<svg id="Layer_1" data-name="Layer 1" xmlns="http://www.w3.org/2000/svg" viewBox="0 0 150 75.5"><defs><style>.cls-1{fill:#1c976e;}.cls-2{fill:#214975;}.cls-3{fill:#fff;}</style></defs><path class="cls-1" d="M7.3,28.52l7.12,14.8h-2.6l-1.26-2.9H3.78l-1.27,2.9H0l7.08-14.8Zm-1,6.29-1.6,3.58h5L8.08,34.83l-.86-2h0Z"/><path class="cls-1" d="M14.56,34.09h2.09V35.8a3.7,3.7,0,0,1,3.46-1.95,4.24,4.24,0,0,1,3.16,1.23,4.94,4.94,0,0,1,1.2,3.57,5.29,5.29,0,0,1-.59,2.56A4.27,4.27,0,0,1,20,43.52a4.67,4.67,0,0,1-2-.41,3.21,3.21,0,0,1-1.34-1.18l0,6.27H14.56Zm7,6.76a3.19,3.19,0,0,0,.7-2.14,3.26,3.26,0,0,0-.69-2.18,2.52,2.52,0,0,0-2-.81,2.68,2.68,0,0,0-1.36.35,2.62,2.62,0,0,0-1,1,3.14,3.14,0,0,0-.37,1.52v.14a3.22,3.22,0,0,0,.37,1.54,2.73,2.73,0,0,0,1,1,2.68,2.68,0,0,0,1.37.37A2.48,2.48,0,0,0,21.52,40.85Z"/><path class="cls-1" d="M25.82,34.09h2.09V35.8a3.7,3.7,0,0,1,3.46-1.95,4.24,4.24,0,0,1,3.16,1.23,4.94,4.94,0,0,1,1.21,3.57,5.29,5.29,0,0,1-.6,2.56,4.27,4.27,0,0,1-3.87,2.31,4.67,4.67,0,0,1-2-.41,3.21,3.21,0,0,1-1.34-1.18l0,6.27H25.82Zm7,6.76a3.19,3.19,0,0,0,.7-2.14,3.26,3.26,0,0,0-.69-2.18,2.52,2.52,0,0,0-2-.81,2.7,2.7,0,0,0-1.36.35,2.53,2.53,0,0,0-1,1A3,3,0,0,0,28,38.59v.14a3.11,3.11,0,0,0,.38,1.54,2.63,2.63,0,0,0,2.36,1.42A2.48,2.48,0,0,0,32.78,40.85Z"/><path class="cls-2" d="M41.35,29.24h3.94a7.49,7.49,0,0,1,3.1.6,5.32,5.32,0,0,1,2.11,1.63,7.45,7.45,0,0,1,1.13,2.23A8.7,8.7,0,0,1,52,36.28a8.4,8.4,0,0,1-.35,2.48A7.57,7.57,0,0,1,50.56,41a5.13,5.13,0,0,1-2.13,1.69,7.49,7.49,0,0,1-3.22.64H41.35Zm4.2,12.11a4.2,4.2,0,0,0,2-.46,3.43,3.43,0,0,0,1.35-1.2,5.75,5.75,0,0,0,.7-1.61,7,7,0,0,0,.22-1.8,6.15,6.15,0,0,0-1-3.59,3.46,3.46,0,0,0-3-1.48H43.44V41.35Z"/><path class="cls-2" d="M58,43.56a4.29,4.29,0,0,1-3.41-1.44,5.78,5.78,0,0,1-1.26-3.95,5.69,5.69,0,0,1,1.27-3.94,4.73,4.73,0,0,1,6.57-.2,4.76,4.76,0,0,1,1.25,3.58A9.1,9.1,0,0,1,62.32,39H55.4a2.73,2.73,0,0,0,.8,2,2.47,2.47,0,0,0,1.8.77,2.56,2.56,0,0,0,2.13-1.05l1.37,1.41A4.36,4.36,0,0,1,58,43.56Zm-2.58-6.3h4.91a2.66,2.66,0,0,0-.7-2A2.3,2.3,0,0,0,58,34.65a2.58,2.58,0,0,0-1.78.63A2.79,2.79,0,0,0,55.4,37.26Z"/><path class="cls-2" d="M66.56,43.32,62.8,33h2.09l2.38,6.74c.15.44.24.74.28.9,0-.16.13-.46.28-.9L70.18,33h2.1L68.51,43.32Z"/><path class="cls-2" d="M77.44,43.56A4.3,4.3,0,0,1,74,42.12a5.83,5.83,0,0,1-1.25-3.95A5.74,5.74,0,0,1,74,34.23a4.74,4.74,0,0,1,6.58-.2,4.8,4.8,0,0,1,1.25,3.58A9.1,9.1,0,0,1,81.79,39H74.87a2.73,2.73,0,0,0,.79,2,2.5,2.5,0,0,0,1.8.77,2.57,2.57,0,0,0,2.14-1.05L81,42.07A4.34,4.34,0,0,1,77.44,43.56Zm-2.57-6.3h4.91a2.66,2.66,0,0,0-.71-2,2.28,2.28,0,0,0-1.63-.64,2.6,2.6,0,0,0-1.78.63A2.78,2.78,0,0,0,74.87,37.26Z"/><path class="cls-2" d="M83.38,43.32V29.78l2.09-1V43.32Z"/><path class="cls-2" d="M95.2,42.13a4.84,4.84,0,0,1-6.87,0,5.73,5.73,0,0,1-1.25-3.94,5.78,5.78,0,0,1,1.25-3.95,4.82,4.82,0,0,1,6.87,0,5.74,5.74,0,0,1,1.27,3.95A5.69,5.69,0,0,1,95.2,42.13Zm-3.44-.54a2.27,2.27,0,0,0,1.91-.91,3.94,3.94,0,0,0,.71-2.49,4,4,0,0,0-.71-2.5,2.42,2.42,0,0,0-3.8,0,4,4,0,0,0-.7,2.5,4,4,0,0,0,.7,2.48A2.27,2.27,0,0,0,91.76,41.59Z"/><path class="cls-2" d="M102.54,43.56a3,3,0,0,1-2.47-1.13v4l-2.09,1V33h2.09v.83a3.17,3.17,0,0,1,2.47-1.07,3.73,3.73,0,0,1,3.09,1.44,6.25,6.25,0,0,1,1.13,3.95,6.11,6.11,0,0,1-1.15,3.93A3.75,3.75,0,0,1,102.54,43.56Zm-.3-2a2.08,2.08,0,0,0,1.81-.88,4.34,4.34,0,0,0,.62-2.52,4.29,4.29,0,0,0-.64-2.47,2.06,2.06,0,0,0-1.79-.95,2.38,2.38,0,0,0-2.17,1.17V40.4A2.63,2.63,0,0,0,102.24,41.59Z"/><path class="cls-2" d="M120.34,43.32V37.16c0-1.59-.63-2.39-1.89-2.39a1.91,1.91,0,0,0-1.47.65,2.67,2.67,0,0,0-.58,1.84v6.06h-2.1V37.16c0-1.59-.63-2.39-1.89-2.39a1.87,1.87,0,0,0-1.46.65,2.68,2.68,0,0,0-.59,1.84v6.06h-2.09V33h2.09v1A3,3,0,0,1,113,32.8a2.88,2.88,0,0,1,2.73,1.47,3.34,3.34,0,0,1,3-1.47,3.69,3.69,0,0,1,2.68,1,3.81,3.81,0,0,1,1,2.91v6.64Z"/><path class="cls-2" d="M128.5,43.56a4.3,4.3,0,0,1-3.41-1.44,5.83,5.83,0,0,1-1.25-3.95,5.74,5.74,0,0,1,1.26-3.94,4.74,4.74,0,0,1,6.58-.2,4.8,4.8,0,0,1,1.25,3.58,9.1,9.1,0,0,1-.08,1.34h-6.92a2.73,2.73,0,0,0,.79,2,2.5,2.5,0,0,0,1.8.77,2.54,2.54,0,0,0,2.13-1.05L132,42.07A4.34,4.34,0,0,1,128.5,43.56Zm-2.57-6.3h4.91a2.66,2.66,0,0,0-.71-2,2.28,2.28,0,0,0-1.63-.64,2.6,2.6,0,0,0-1.78.63A2.78,2.78,0,0,0,125.93,37.26Z"/><path class="cls-2" d="M140.69,43.32V37.18a2.61,2.61,0,0,0-.56-1.82,2,2,0,0,0-1.49-.59c-1.48,0-2.21.79-2.21,2.37v6.18h-2.1V33h2.1v1a3.17,3.17,0,0,1,2.65-1.23q3.71,0,3.7,4.38v6.14Z"/><path class="cls-2" d="M147.67,43.56c-1.53,0-2.3-.85-2.3-2.56V34.85h-1.58V33h1.58V29.8l2.1-1V33h2.43v1.81h-2.43v5.61c0,.78.33,1.17,1,1.17a2.91,2.91,0,0,0,1.53-.48l-.26,2A4.69,4.69,0,0,1,147.67,43.56Z"/><ellipse class="cls-1" cx="19.6" cy="38.78" rx="3" ry="3.36"/><ellipse class="cls-1" cx="30.89" cy="38.78" rx="3.1" ry="3.46"/><path class="cls-3" d="M22,37.71H18.27a.15.15,0,0,0-.15.15V41a.15.15,0,0,0,.15.14h.65v1a.44.44,0,0,0,.44.43h0a.44.44,0,0,0,.44-.43v-1h.61v1a.44.44,0,0,0,.44.43h0a.44.44,0,0,0,.44-.43v-1H22A.14.14,0,0,0,22.1,41v-3.1A.15.15,0,0,0,22,37.71Z"/><path class="cls-3" d="M17.49,37.71h0a.44.44,0,0,0-.43.44v1.78a.44.44,0,0,0,.43.44h0a.44.44,0,0,0,.44-.44V38.15A.44.44,0,0,0,17.49,37.71Z"/><path class="cls-3" d="M22.73,37.71h0a.44.44,0,0,0-.44.44v1.78a.44.44,0,0,0,.44.44h0a.44.44,0,0,0,.44-.44V38.15A.44.44,0,0,0,22.73,37.71Z"/><path class="cls-3" d="M18.3,37.5h3.62a.15.15,0,0,0,.14-.18,2,2,0,0,0-1-1.33l.31-.56a.09.09,0,0,0,0-.11.09.09,0,0,0-.11,0l-.31.57a2,2,0,0,0-.84-.19,2,2,0,0,0-.84.19L19,35.35a.09.09,0,0,0-.11,0,.08.08,0,0,0,0,.11l.31.56a2,2,0,0,0-1,1.33A.15.15,0,0,0,18.3,37.5Zm2.89-.83a.17.17,0,0,1-.34,0,.17.17,0,1,1,.34,0Zm-2-.17a.16.16,0,0,1,.16.17.16.16,0,0,1-.16.16.16.16,0,0,1-.17-.16A.16.16,0,0,1,19.2,36.5Z"/><path class="cls-3" d="M33.92,40.05c0,.05,0,.11-.05.16a4.21,4.21,0,0,1-.73,1.22l-.2.2a.8.8,0,0,1-.49.2,1,1,0,0,1-.41-.08l-.28-.11a1.25,1.25,0,0,0-.93,0l-.33.13a.77.77,0,0,1-.4,0,.71.71,0,0,1-.33-.15,1.82,1.82,0,0,1-.31-.31,4.23,4.23,0,0,1-.9-1.87,3.87,3.87,0,0,1-.08-.9,2.18,2.18,0,0,1,.31-1,1.58,1.58,0,0,1,1.05-.76,1.29,1.29,0,0,1,.8.06l.41.16a.5.5,0,0,0,.38,0l.43-.16a1.36,1.36,0,0,1,.44-.11,1.74,1.74,0,0,1,.68.08,1.5,1.5,0,0,1,.75.56v0A1.47,1.47,0,0,0,33,38.78,1.46,1.46,0,0,0,33.92,40.05Zm-2.69-3.38a1,1,0,0,0,.41-.07,1.5,1.5,0,0,0,.9-1.36s0-.07,0-.12l-.17,0a1.47,1.47,0,0,0-1,.74,1.31,1.31,0,0,0-.18.75S31.2,36.67,31.23,36.67Z"/></svg>