<svg id="Layer_1" data-name="Layer 1" xmlns="http://www.w3.org/2000/svg" viewBox="0 0 150 75.5"><defs><style>.cls-1{fill:#214975;}.cls-2{fill:#1c976e;}</style></defs><path d="M84.61,17.48,70.8,58H66.49L80.34,17.48Z"/><path class="cls-1" d="M93.87,23.14l8.94,23.68a1.44,1.44,0,0,0,1.44,1,1.49,1.49,0,0,0,1.44-1l9.38-23.68h5.71L110.4,49.31a5.58,5.58,0,0,1-2.33,2.94,7.69,7.69,0,0,1-3.82.85,8.35,8.35,0,0,1-3.77-.8,5.25,5.25,0,0,1-2.42-3L88.2,23.14Z"/><path class="cls-1" d="M139.93,23.14a11.42,11.42,0,0,1,4.27.72,8.34,8.34,0,0,1,2.94,1.92,7.42,7.42,0,0,1,1.7,2.81,10.29,10.29,0,0,1,.55,3.36,11.37,11.37,0,0,1-.35,2.77A9.13,9.13,0,0,1,148,37.29,7.86,7.86,0,0,1,146,39.41a8.22,8.22,0,0,1-2.88,1.39L150,52.58h-5.71L137.57,41.2H129.9a.66.66,0,0,0-.75.74V52.58H124V40.93a4.91,4.91,0,0,1,1.09-3.57,4.81,4.81,0,0,1,3.53-1.09H140.1a4.67,4.67,0,0,0,1.88-.35,3.43,3.43,0,0,0,1.26-.92,3.75,3.75,0,0,0,.72-1.3,5,5,0,0,0,.24-1.53,4.1,4.1,0,0,0-1-2.73,3.89,3.89,0,0,0-3.12-1.15H124V23.14Z"/><path class="cls-2" d="M5.67,52.58H0L10.34,26.41a5.58,5.58,0,0,1,2.33-2.94,7.74,7.74,0,0,1,3.86-.85,7.62,7.62,0,0,1,3.81.85,5.34,5.34,0,0,1,2.29,2.94l10,26.17H26.86L17.92,28.9a1.44,1.44,0,0,0-1.44-1,1.52,1.52,0,0,0-1.48,1Z"/><path class="cls-2" d="M51.72,23.14a11.48,11.48,0,0,1,4.28.72,8.34,8.34,0,0,1,2.94,1.92,7.42,7.42,0,0,1,1.7,2.81A10.56,10.56,0,0,1,61.19,32a11.37,11.37,0,0,1-.35,2.77,9.43,9.43,0,0,1-1.09,2.57,8.2,8.2,0,0,1-1.92,2.12A8.4,8.4,0,0,1,55,40.8L61.8,52.58H56.08L49.37,41.2H41.69a.65.65,0,0,0-.74.74V52.58H35.8V40.93a5,5,0,0,1,1.09-3.57,4.86,4.86,0,0,1,3.54-1.09H51.9a4.62,4.62,0,0,0,1.87-.35A3.39,3.39,0,0,0,55,35a3.75,3.75,0,0,0,.72-1.3A5,5,0,0,0,56,32.17a4.1,4.1,0,0,0-1-2.73,3.89,3.89,0,0,0-3.12-1.15H35.76V23.14Z"/></svg>