<svg width="192" height="189" viewBox="0 0 192 189" fill="none" xmlns="http://www.w3.org/2000/svg">
<path d="M95.6693 189C148.506 189 191.339 165.285 191.339 136.032C191.339 106.779 148.506 83.064 95.6693 83.064C42.8326 83.064 0 106.779 0 136.032C0 165.285 42.8326 189 95.6693 189Z" fill="#F0F0F0"/>
<path d="M104.176 167.629C121.858 167.629 136.191 159.692 136.191 149.903C136.191 140.113 121.858 132.177 104.176 132.177C86.4943 132.177 72.1604 140.113 72.1604 149.903C72.1604 159.692 86.4943 167.629 104.176 167.629Z" fill="#E0E0E0"/>
<path d="M161.712 148.184C170.599 148.184 177.803 144.188 177.803 139.259C177.803 134.329 170.599 130.333 161.712 130.333C152.825 130.333 145.62 134.329 145.62 139.259C145.62 144.188 152.825 148.184 161.712 148.184Z" fill="#E0E0E0"/>
<path d="M36.3738 159.248C53.1991 159.248 66.8388 151.687 66.8388 142.36C66.8388 133.033 53.1991 125.472 36.3738 125.472C19.5484 125.472 5.90877 133.033 5.90877 142.36C5.90877 151.687 19.5484 159.248 36.3738 159.248Z" fill="#E0E0E0"/>
<path d="M153.624 141.27C149.308 136.87 146.794 118.977 150.984 115.499H172.398C176.588 118.977 174.074 136.87 169.758 141.27C169.716 141.312 169.674 141.354 169.632 141.396C169.59 141.438 169.548 141.48 169.464 141.522C169.339 141.647 169.213 141.773 169.087 141.857C169.045 141.899 169.003 141.899 169.003 141.941C168.878 142.024 168.794 142.108 168.668 142.192C168.5 142.318 168.291 142.443 168.123 142.527C164.561 144.581 158.82 144.581 155.3 142.527C155.091 142.402 154.923 142.318 154.756 142.15C154.63 142.066 154.546 141.983 154.462 141.941C154.42 141.899 154.378 141.857 154.337 141.857C154.211 141.731 154.085 141.647 153.959 141.522C153.917 141.48 153.834 141.396 153.792 141.354C153.666 141.312 153.624 141.27 153.624 141.27Z" fill="#37474F"/>
<path d="M170.512 114.074C175.415 116.882 175.373 121.449 170.512 124.299C165.609 127.106 157.731 127.106 152.828 124.299C147.925 121.491 147.967 116.923 152.828 114.074C157.689 111.224 165.609 111.224 170.512 114.074Z" fill="#455A64"/>
<path d="M168.165 115.415C171.769 117.468 171.769 120.821 168.165 122.916C164.561 124.969 158.779 124.969 155.175 122.916C151.571 120.863 151.571 117.51 155.175 115.415C158.779 113.362 164.561 113.362 168.165 115.415Z" fill="#263238"/>
<path d="M155.175 118.977C158.778 116.923 164.561 116.923 168.165 118.977C169.171 119.563 169.883 120.234 170.302 120.946C169.841 121.659 169.171 122.329 168.165 122.916C164.561 124.969 158.778 124.969 155.175 122.916C154.169 122.329 153.456 121.659 153.037 120.946C153.456 120.234 154.169 119.563 155.175 118.977Z" fill="#F5F5F5"/>
<path d="M163.765 113.319L160.706 111.14C160.706 111.14 158.192 97.9403 160.371 92.2831C162.55 86.584 166.531 86.6259 168.458 88.1345C170.386 89.643 169.338 94.4202 168.542 97.186C167.62 100.496 164.603 115.373 166.698 120.611L163.765 113.319Z" fill="#1C976E"/>
<g opacity="0.2">
<path opacity="0.2" d="M163.765 113.319L160.706 111.14C160.706 111.14 158.192 97.9403 160.371 92.2831C162.55 86.584 166.531 86.6259 168.458 88.1345C170.386 89.643 169.338 94.4202 168.542 97.186C167.62 100.496 164.603 115.373 166.698 120.611L163.765 113.319Z" fill="black"/>
</g>
<path d="M163.136 111.769C163.262 111.727 163.304 111.601 163.304 111.476C160.832 100.203 165.944 89.7269 165.986 89.6012C166.07 89.4755 165.986 89.3079 165.86 89.266C165.735 89.1822 165.567 89.266 165.525 89.3917C165.483 89.5174 160.245 100.119 162.801 111.601C162.843 111.727 162.969 111.811 163.136 111.769C163.094 111.811 163.136 111.769 163.136 111.769Z" fill="white"/>
<path d="M162.425 109.883C162.425 109.883 162.089 108.836 163.598 108.584C165.107 108.333 165.693 107.034 165.861 104.938C165.987 102.801 166.657 101.293 168.543 100.957C170.47 100.664 171.979 101.586 173.236 100.664C174.493 99.7002 177.678 97.3954 180.36 98.4431C183.042 99.4907 182.162 101.795 180.779 103.262C179.396 104.729 178.977 105.232 180.067 107.662C181.114 110.093 180.36 112.314 177.888 112.9C175.415 113.445 174.032 113.194 173.99 115.876C173.949 118.306 173.446 120.527 170.931 121.449C168.962 122.161 166.783 122.371 164.687 122.078C164.017 121.994 163.263 121.784 162.76 121.281C162.257 120.778 162.341 120.192 162.341 119.521C162.341 118.097 162.341 116.63 162.341 115.205C162.425 113.403 162.425 111.643 162.425 109.883Z" fill="#1C976E"/>
<g opacity="0.1">
<path opacity="0.1" d="M162.425 109.883C162.425 109.883 162.089 108.836 163.598 108.584C165.107 108.333 165.693 107.034 165.861 104.938C165.987 102.801 166.657 101.293 168.543 100.957C170.47 100.664 171.979 101.586 173.236 100.664C174.493 99.7002 177.678 97.3954 180.36 98.4431C183.042 99.4907 182.162 101.795 180.779 103.262C179.396 104.729 178.977 105.232 180.067 107.662C181.114 110.093 180.36 112.314 177.888 112.9C175.415 113.445 174.032 113.194 173.99 115.876C173.949 118.306 173.446 120.527 170.931 121.449C168.962 122.161 166.783 122.371 164.687 122.078C164.017 121.994 163.263 121.784 162.76 121.281C162.257 120.778 162.341 120.192 162.341 119.521C162.341 118.097 162.341 116.63 162.341 115.205C162.425 113.403 162.425 111.643 162.425 109.883Z" fill="black"/>
</g>
<path d="M162.424 121.03C162.508 121.03 162.592 120.988 162.634 120.904C167.117 107.579 177.259 102.215 177.342 102.173C177.426 102.131 177.468 102.005 177.426 101.879C177.384 101.796 177.259 101.754 177.133 101.796C177.049 101.838 166.74 107.285 162.215 120.779C162.173 120.904 162.256 121.03 162.34 121.03C162.382 120.988 162.424 121.03 162.424 121.03Z" fill="white"/>
<path d="M168.878 109.422H168.919C171.853 108.752 176.546 109.129 176.588 109.129C176.714 109.129 176.798 109.045 176.798 108.919C176.798 108.794 176.714 108.71 176.588 108.71C176.379 108.71 171.811 108.333 168.794 109.003C168.668 109.045 168.626 109.129 168.626 109.255C168.668 109.338 168.752 109.422 168.878 109.422Z" fill="white"/>
<path d="M166.489 115.792C167.83 115.792 169.255 115.708 169.338 115.708C169.464 115.708 169.548 115.582 169.548 115.498C169.548 115.373 169.422 115.289 169.338 115.289C169.297 115.289 166.028 115.498 164.771 115.289C164.645 115.289 164.561 115.331 164.519 115.457C164.519 115.582 164.561 115.666 164.687 115.708C165.106 115.792 165.777 115.792 166.489 115.792Z" fill="white"/>
<path d="M170.219 107.83C170.26 107.83 170.26 107.83 170.219 107.83C170.344 107.83 170.428 107.704 170.428 107.62C170.302 105.274 169.506 103.262 169.506 103.178C169.464 103.053 169.339 103.011 169.213 103.053C169.087 103.095 169.045 103.22 169.087 103.346C169.087 103.346 169.883 105.399 170.009 107.662C170.051 107.746 170.135 107.83 170.219 107.83Z" fill="white"/>
<path d="M162.34 122.455C162.34 122.455 159.575 123.502 155.845 122.706C152.116 121.91 151.194 119.647 151.194 119.647C151.194 119.647 153.834 116.881 156.222 116.714C156.222 116.714 152.576 116.085 149.14 116.881C149.14 116.881 146.961 116.085 147.38 112.481C147.38 112.481 149.392 111.015 154.085 111.601C154.085 111.601 151.738 109.967 147.632 109.464C147.296 109.464 147.757 104.771 148.135 102.675C148.512 100.58 149.308 100.915 150.984 101.083C152.66 101.251 157.94 103.011 158.569 104.226C159.197 105.441 158.569 108.5 158.569 108.5C158.569 108.5 160.119 107.243 160.455 105.693C160.455 105.693 162.173 105.776 163.681 107.034C165.148 108.291 164.729 109.087 164.268 110.344C163.765 111.685 163.262 112.523 162.34 113.864C162.34 113.864 163.933 113.277 165.399 109.548C165.399 109.548 166.95 112.439 167.201 114.493C167.537 116.42 165.567 120.778 162.34 122.455Z" fill="#1C976E"/>
<path d="M162.298 122.665C162.214 122.623 162.173 122.581 162.173 122.497C161.628 115.499 153.708 104.603 150.188 102.382C150.104 102.341 150.062 102.173 150.104 102.089C150.146 102.005 150.313 101.963 150.397 102.005C153.959 104.226 162.005 115.331 162.55 122.413C162.55 122.539 162.466 122.623 162.34 122.623C162.34 122.665 162.298 122.665 162.298 122.665Z" fill="white"/>
<path d="M36.667 157.32C36.3318 157.32 36.0384 157.026 36.0384 156.691V115.498C36.0384 115.163 36.3318 114.87 36.667 114.87C37.0022 114.87 37.2956 115.163 37.2956 115.498V156.691C37.2956 157.026 37.0022 157.32 36.667 157.32Z" fill="#455A64"/>
<path d="M62.1455 142.318C61.894 142.318 61.6426 142.15 61.5588 141.899L48.9454 109.925C48.8197 109.59 48.9873 109.213 49.3225 109.087C49.6578 108.961 50.0349 109.129 50.1606 109.464L62.7741 141.438C62.8998 141.773 62.7321 142.15 62.3969 142.276C62.3131 142.318 62.2293 142.318 62.1455 142.318Z" fill="#455A64"/>
<path d="M60.6368 138.462C60.4691 138.462 60.3015 138.378 60.1758 138.253L36.6671 113.361L13.2002 138.127C12.9488 138.378 12.5716 138.378 12.2783 138.169C12.0269 137.917 12.0269 137.54 12.2364 137.247L36.1642 111.978C36.2899 111.853 36.4575 111.769 36.6252 111.769C36.7928 111.769 36.9604 111.853 37.0861 111.978L61.0558 137.331C61.3072 137.582 61.3073 138.001 61.0139 138.253C60.9301 138.42 60.7625 138.462 60.6368 138.462Z" fill="#455A64"/>
<path d="M11.1473 142.318C11.0635 142.318 10.9796 142.318 10.8958 142.276C10.5606 142.15 10.393 141.773 10.5187 141.438L23.1321 109.464C23.2578 109.129 23.635 108.961 23.9702 109.087C24.3055 109.213 24.4731 109.59 24.3474 109.925L11.7339 141.899C11.6501 142.15 11.4406 142.318 11.1473 142.318Z" fill="#455A64"/>
<path d="M61.2654 137.499L62.9416 141.899C62.9416 141.941 62.9416 141.982 62.9416 142.024C62.9416 142.066 62.9416 142.066 62.9416 142.108C62.9416 142.192 62.8159 142.318 62.6901 142.401C62.3968 142.569 61.9358 142.569 61.6844 142.401C61.6006 142.36 61.5168 142.276 61.4749 142.192V142.15L59.9244 138.001L61.2654 137.499Z" fill="#1C976E"/>
<path d="M12.0268 137.499L10.3506 141.899C10.3506 141.941 10.3506 141.982 10.3506 142.024C10.3506 142.066 10.3506 142.066 10.3506 142.108C10.3506 142.192 10.4763 142.318 10.6021 142.401C10.8954 142.569 11.3564 142.569 11.6078 142.401C11.6916 142.36 11.7754 142.276 11.8173 142.192V142.15L13.3678 138.001L12.0268 137.499Z" fill="#1C976E"/>
<path d="M37.3795 153.464V157.11C37.3795 157.236 37.2957 157.32 37.17 157.403C36.8767 157.571 36.4157 157.571 36.1224 157.403C35.9967 157.32 35.9129 157.194 35.9129 157.11V153.464C36.4157 153.213 36.9186 153.213 37.3795 153.464Z" fill="#1C976E"/>
<path d="M62.9415 109.464C62.9415 108.416 62.0196 107.285 60.05 106.028C56.4462 103.681 48.4004 98.9878 43.3718 96.2221C43.3718 96.1802 43.3299 96.1801 43.3299 96.1801C39.4327 93.8335 35.8289 82.6029 33.147 74.0962C32.225 71.2047 31.0936 69.5704 29.7945 68.7742C29.4593 68.6066 28.3279 67.9361 28.0764 67.8104C25.4364 66.218 22.0002 68.1456 17.684 70.4923C13.703 72.6714 10.602 75.4371 10.0153 82.8124C9.6382 87.2963 10.0153 95.8868 10.8954 102.382C12.1944 113.236 13.8287 113.277 16.1754 115.079C20.2402 118.222 29.3336 122.622 33.1889 124.131C40.1451 126.855 45.8442 122.664 50.1185 120.569C54.3509 118.474 59.5891 115.205 61.3491 113.906C62.3967 113.152 62.9415 112.356 62.9415 111.517C62.8996 111.14 62.9415 109.799 62.9415 109.464Z" fill="#263238"/>
<path d="M50.0767 118.474C54.3091 116.378 59.5473 113.11 61.3073 111.811C63.7378 110.051 63.4863 108.249 60.0501 106.028C57.452 104.352 57.6196 104.226 38.1757 93.54C38.1757 93.54 13.4098 108.165 14.4574 110.847C15.505 113.529 28.328 120.15 33.189 122.077C40.1452 124.801 45.8443 120.569 50.0767 118.474Z" fill="#37474F"/>
<path d="M29.6271 68.6904C27.029 67.3076 23.6347 69.1933 19.4442 71.4981C16.7623 72.9648 14.4575 74.7248 13.0746 77.9934L11.3146 76.9876C12.6975 73.719 15.0023 72.0009 17.6842 70.5343C22.0004 68.1876 25.4366 66.3018 28.0766 67.8523C28.2862 67.9361 29.2081 68.439 29.6271 68.6904Z" fill="#455A64"/>
<path d="M19.444 71.498C25.8974 67.9779 30.4231 65.4636 33.1469 74.0961C35.8289 82.6028 39.4327 93.8334 43.3299 96.18C43.3299 96.18 42.0727 95.1324 32.4346 102.424C29.3755 104.729 25.6459 106.656 23.2154 108.081C18.4383 110.931 15.5049 112.062 15.044 111.685C12.5296 109.59 11.1468 91.1514 11.7754 83.818C12.362 76.4427 15.463 73.6351 19.444 71.498Z" fill="#37474F"/>
<g opacity="0.5">
<path opacity="0.5" d="M19.444 71.498C25.8974 67.9779 30.4232 65.4636 33.147 74.0961C35.8289 82.6028 39.4328 93.8334 43.3299 96.18C43.3299 96.18 36.667 96.18 27.0289 101.376C17.0135 106.782 15.4631 112.062 15.0021 111.685C12.4878 109.59 11.1049 91.1514 11.7335 83.818C12.3621 76.4427 15.4631 73.6351 19.444 71.498Z" fill="#455A64"/>
</g>
<path d="M142.771 50.839C144.489 50.4618 145.997 50.0847 147.129 49.7913C153.289 48.1989 155.133 46.1875 155.342 43.4637C155.636 39.1055 154.001 39.1055 151.235 41.0332C149.182 42.458 147.464 43.0027 147.464 43.0027C148.093 42.1646 148.428 41.7456 148.637 41.2427C149.056 40.1532 148.47 39.4827 148.093 39.2732C147.799 39.1474 147.506 39.9017 146.5 40.6979C145.201 41.7456 144.154 41.9551 143.064 43.4218C142.645 43.9665 142.058 44.3437 141.388 44.5113C140.759 44.637 130.744 47.4028 126.009 48.1989C123.243 44.6789 120.687 40.9494 117.753 37.1779C113.269 31.4369 111.132 30.5988 108.576 31.0598L106.397 38.2674C106.397 38.2674 121.19 55.7 121.399 55.9095C122.53 57.3343 124.123 57.8371 125.883 57.3343C132.252 55.5323 138.999 52.599 142.771 50.839Z" fill="#FFA8A7"/>
<path d="M107.989 29.6349C113.227 29.8445 114.82 32.8197 117.502 36.0883C120.184 39.3569 126.092 47.7379 126.092 47.7379L140.424 44.7208C140.424 44.7208 139.837 48.8275 141.681 51.3418C141.681 51.3418 134.054 55.197 129.445 56.9571C123.62 59.178 123.243 58.6752 122.195 57.7114C121.189 56.7894 108.366 42.2903 108.366 42.2903L107.989 29.6349Z" fill="#37474F"/>
<path d="M48.6937 39.3569C50.0766 35.2083 51.5432 35.0407 53.429 37.8902C54.8118 39.9855 56.1947 41.1588 56.1947 41.1588C55.9014 40.1112 55.7757 39.6502 55.8176 39.0635C55.8176 37.8902 56.6138 37.4712 57.0328 37.4292C57.3681 37.3873 57.3261 38.2254 57.9547 39.3569C58.7509 40.8236 59.6728 41.4102 60.0919 43.2121C60.2595 43.8826 60.6785 45.1817 61.2652 45.6007C64.1148 47.6122 69.311 50.0846 74.4234 52.0541C76.2672 48.1989 78.6558 43.3798 80.4997 40.0274C83.9778 33.6159 86.3245 32.9035 88.8388 33.1968L91.4369 40.2788C91.4369 40.2788 77.6082 58.5075 77.4825 58.7589C76.4349 60.2675 74.2558 61.2732 72.5796 60.5609C67.7605 58.5913 64.1567 55.1132 60.0919 52.3056C57.6614 50.6713 55.3566 49.3722 53.8899 48.2827C48.7775 44.5112 47.8556 41.955 48.6937 39.3569Z" fill="#FFA8A7"/>
<path d="M85.5283 119.102C85.654 113.655 87.2883 109.632 87.414 108.081C87.414 108.081 86.9949 75.6886 86.9949 70.4085L114.61 69.2771C114.61 69.2771 114.233 101.754 114.233 106.279C114.233 110.763 113.563 129.914 112.85 138.756L112.767 141.647L106.607 143.575C106.607 143.575 106.732 142.737 106.607 138.63C106.481 134.523 103.715 120.276 103.464 116.672C103.128 111.978 103.883 110.093 103.799 106.992C103.715 103.849 101.871 83.3991 101.871 83.3991C101.871 83.3991 98.3931 103.514 97.555 110.344C96.5493 118.18 93.4064 138.672 93.4064 143.407C93.4064 144.245 93.4064 145.251 93.4064 146.341C93.4064 148.939 93.3226 149.609 93.7417 150.615C94.454 152.375 88.294 153.464 88.0007 152.207L87.3302 147.095V146.927V143.659C87.3302 138.756 85.3606 126.98 85.5283 119.102Z" fill="#FFA8A7"/>
<path d="M124.835 149.735C125.003 150.112 124.961 150.825 124.751 151.244C124.542 151.705 122.195 153.004 119.052 152.794C115.91 152.585 113.73 151.327 112.557 150.531C111.342 149.735 110.127 149.609 108.534 149.484C106.984 149.4 104.93 148.604 104.595 147.891C104.26 147.179 104.637 145.922 104.637 145.922L124.835 149.735Z" fill="#37474F"/>
<path d="M112.18 139.929C112.264 139.929 112.347 139.887 112.431 139.887C112.557 139.845 112.725 139.845 112.85 139.845C113.018 139.887 113.144 139.971 113.227 140.097C113.563 140.474 113.772 140.935 114.024 141.354C114.694 142.443 116.077 143.324 117.586 144.12C118.633 144.664 119.639 145.084 120.687 145.586C121.776 146.089 123.201 146.383 124.039 146.927C125.254 147.765 125.422 149.861 124.039 150.657C122.824 151.369 119.639 152.124 116.287 151.202C114.443 150.699 112.431 148.729 110.043 148.562C108.534 148.436 105.643 148.017 104.679 146.844C104.302 146.341 104.805 144.706 105.182 143.324C105.601 141.773 106.146 139.384 106.648 139.51C106.69 139.803 106.606 139.887 106.816 140.097C106.984 140.306 107.277 140.432 107.445 140.6C107.822 140.935 108.073 141.396 108.283 141.815C108.366 142.024 108.492 142.192 108.702 142.276C108.953 142.36 109.163 142.192 109.372 142.108C109.666 141.983 110.001 141.941 110.294 142.024C110.252 141.731 110.21 141.438 110.127 141.144C110.085 141.061 110.085 140.935 110.085 140.851C110.127 140.767 110.21 140.683 110.294 140.642C110.881 140.264 111.467 140.055 112.18 139.929Z" fill="#455A64"/>
<path d="M99.7341 158.661C99.9017 158.828 99.8598 160.044 99.6503 160.337C99.4408 160.672 98.1836 161.762 95.8788 161.929C93.6998 162.097 91.7302 161.804 90.4731 160.966C89.174 160.169 88.5873 159.247 88.4616 157.99C88.3359 156.733 88.4616 155.56 87.875 154.596C87.3302 153.716 86.4502 152.71 86.2826 152.249C85.8635 151.202 86.2826 149.693 86.2826 149.693L99.7341 158.661Z" fill="#37474F"/>
<path d="M93.7416 147.765C93.7416 148.268 93.8254 148.687 93.9931 149.148C94.3283 150.112 94.7893 151.034 95.334 151.872C95.6274 152.333 95.9207 152.752 96.2559 153.171C96.9264 153.967 97.7226 154.596 98.435 155.35C99.1474 156.104 99.7341 157.026 99.776 158.032C99.8598 159.75 98.016 160.337 96.5912 160.588C95.0407 160.84 93.4483 160.798 91.9397 160.337C90.2635 159.876 89.0902 158.577 88.7968 156.901C88.713 156.44 88.7549 155.937 88.6711 155.476C88.5454 154.386 87.9587 153.381 87.3302 152.459C86.953 151.914 86.5759 151.411 86.3244 150.824C85.8635 149.777 86.2406 148.561 86.534 147.514C86.7854 146.592 87.0787 145.586 87.3721 145.67C87.3721 146.131 87.3721 146.173 87.7073 146.508C88.1264 146.927 88.1683 147.514 88.6292 147.891C88.4197 147.346 88.4197 147.095 88.294 146.676C88.2521 146.55 88.294 146.299 88.3778 146.173C88.5035 146.047 88.713 145.963 88.9226 145.88C89.593 145.67 90.3054 145.502 91.0178 145.419C91.6464 145.335 92.4007 145.251 93.0293 145.419C93.2388 145.461 93.4064 145.544 93.5321 145.712C93.6578 145.88 93.6997 146.005 93.6997 146.299C93.7416 146.634 93.6997 147.304 93.7416 147.765Z" fill="#455A64"/>
<path d="M95.5436 152.249C94.915 151.788 93.4902 151.746 92.694 151.83C91.7302 151.956 90.934 152.291 90.473 152.626C90.2635 152.794 90.0121 152.752 89.8026 152.585C89.593 152.375 89.593 152.04 89.8445 151.872C90.3054 151.537 91.1854 151.034 92.3588 150.95C94.2864 150.824 94.8312 151.16 94.8312 151.16C94.8312 151.16 95.7531 151.704 95.5436 152.249Z" fill="#F5F5F5"/>
<path d="M97.0103 154.009C96.2141 153.548 94.6217 153.59 93.8675 153.674C92.9036 153.8 92.1493 154.177 91.6884 154.512C91.4789 154.68 91.2274 154.638 91.0179 154.47C90.8084 154.261 90.8084 153.925 91.0598 153.758C91.5208 153.422 92.4427 152.836 93.616 152.752C95.5437 152.626 96.0465 153.003 96.0465 153.003C96.0465 153.003 96.8846 153.297 97.0103 154.009Z" fill="#F5F5F5"/>
<path d="M91.6046 149.106C92.9456 148.981 93.4903 149.106 94.0351 149.316C94.3703 149.525 94.5799 150.028 94.3703 150.196C93.9513 149.944 93.1551 149.861 92.2332 149.902C91.6046 149.944 90.8084 150.196 90.1379 150.489C89.9703 150.573 89.7608 150.657 89.5932 150.741C89.3836 150.866 89.0903 150.782 88.9646 150.531C88.8808 150.322 88.9227 150.112 89.1322 149.986C89.6351 149.693 90.5151 149.19 91.6046 149.106Z" fill="#F5F5F5"/>
<path d="M116.161 143.323C116.161 143.323 115.951 142.737 115.03 142.569C114.317 142.443 113.102 142.946 112.348 143.575C112.054 143.826 112.096 144.329 112.431 144.497C112.641 144.622 112.892 144.581 113.06 144.413C113.563 143.994 114.694 143.24 116.161 143.323Z" fill="#F5F5F5"/>
<path d="M118.298 144.539C118.298 144.539 117.837 143.826 116.957 143.868C116.957 143.868 115.155 143.91 114.024 144.958C113.73 145.209 113.772 145.67 114.107 145.88C114.317 146.005 114.568 145.963 114.736 145.796C115.239 145.335 116.245 144.371 118.298 144.539Z" fill="#F5F5F5"/>
<path d="M120.645 145.586C120.645 145.586 120.142 144.958 119.262 144.958C119.262 144.958 117.586 145.042 116.454 146.047C116.161 146.299 116.203 146.76 116.538 146.969C116.748 147.095 116.999 147.053 117.167 146.885C117.67 146.466 118.633 145.461 120.645 145.586Z" fill="#F5F5F5"/>
<path d="M114.652 69.2771C114.652 69.2771 115.029 92.1573 115.071 96.1802C115.113 100.203 115.071 107.914 115.071 111.853C115.071 111.853 114.066 113.571 108.241 113.571C102.416 113.571 101.578 111.978 101.578 111.978L100.74 93.4563L99.1474 112.691C99.1474 112.691 95.795 115.289 91.0178 114.241C86.2406 113.194 85.5282 111.769 85.5282 111.769L86.4501 69.3609L114.652 69.2771Z" fill="#37474F"/>
<path d="M100.74 93.4565L101.578 85.7041C101.578 85.7041 105.559 84.7403 108.241 82.7288C108.241 82.7288 106.816 84.4888 105.224 85.3688C103.589 86.2908 102.835 86.6679 102.835 86.6679L101.662 94.1689L101.452 108.836L100.74 93.4565Z" fill="#263238"/>
<path d="M86.115 73.258C89.9283 76.0238 107.109 79.0828 115.071 73.258C115.071 73.258 114.904 50.9645 114.275 39.1892C114.233 38.6444 114.191 38.1416 114.149 37.6387C114.149 37.4711 114.108 37.3035 114.108 37.1358C114.024 36.4235 113.898 35.7111 113.689 35.0406C113.647 34.9149 113.605 34.8311 113.605 34.7053C113.521 34.4539 113.437 34.2025 113.353 33.9511C113.311 33.8253 113.228 33.6996 113.186 33.5739C113.144 33.4482 113.06 33.3225 113.018 33.2387C113.018 33.1968 113.018 33.1968 112.976 33.1549C112.934 33.0291 112.85 32.9453 112.767 32.8196C112.683 32.6939 112.641 32.5682 112.557 32.4425C112.473 32.3168 112.389 32.2329 112.306 32.1072C112.222 31.9815 112.138 31.8977 112.012 31.772C111.928 31.6463 111.803 31.5625 111.719 31.4787C111.635 31.3948 111.593 31.3529 111.509 31.2691C111.426 31.2272 111.384 31.1434 111.3 31.1015C111.216 31.0177 111.09 30.9339 111.007 30.892C110.713 30.6825 110.378 30.4729 110.001 30.3053C109.917 30.2634 109.791 30.2215 109.708 30.1796C109.666 30.1796 109.666 30.1796 109.624 30.1377C109.498 30.0958 109.372 30.0539 109.247 30.012C109.037 29.9282 108.828 29.8863 108.618 29.8024C108.408 29.7605 108.199 29.6767 107.948 29.6348C107.696 29.6348 107.403 29.6348 107.109 29.6348C106.9 29.6348 106.69 29.6348 106.481 29.6348C106.271 29.6348 106.02 29.6348 105.81 29.6767C102.835 29.8024 98.5608 30.3053 95.1246 30.7244C94.915 30.7663 94.6636 30.7663 94.4541 30.8082C94.2446 30.8501 94.035 30.8501 93.8674 30.892C91.5207 31.1853 89.7607 31.4367 89.5093 31.4787C89.4674 31.4787 89.4674 31.4787 89.4674 31.4787C88.7131 31.6882 87.9588 31.8558 87.414 32.0234C85.8216 32.4844 86.995 32.1072 86.6597 33.6158C85.654 38.0997 86.8274 54.3588 86.8274 54.3588L86.115 73.258Z" fill="#455A64"/>
<path d="M92.9878 17.3984C92.9878 17.3984 94.203 23.1394 94.7059 24.1033C95.2087 25.0671 96.2145 25.3185 96.2145 25.3185L96.1307 21.2537L92.9878 17.3984Z" fill="#263238"/>
<path d="M94.4963 9.14316C94.4963 9.14316 93.1554 8.93363 92.1497 9.98126C91.1439 11.0289 91.6887 14.2556 92.9459 17.3985L95.2506 17.6499L94.4963 9.14316Z" fill="#263238"/>
<path d="M95.9629 17.65C95.502 17.9433 94.8315 17.0214 94.2867 16.4347C93.7001 15.848 91.8562 15.0099 90.9343 16.9795C89.9705 18.9909 91.7724 21.6309 93.2391 22.0919C95.7534 22.8881 96.1306 21.2538 96.1306 21.2538L96.2982 30.5567C98.9382 35.3339 107.906 32.9034 104.553 29.7186V27.3719C104.553 27.3719 107.235 27.5396 108.367 27.3719C110.211 27.0786 111.007 25.7795 111.552 23.7681C112.474 20.5414 112.809 17.9433 112.013 11.5737C111.174 4.61747 103.045 4.53366 98.6868 7.2994C94.2867 10.0232 95.9629 17.65 95.9629 17.65Z" fill="#FFA8A7"/>
<path d="M94.8735 5.32978C96.3821 4.61739 98.0164 4.24025 99.6507 3.90501C103.171 3.15072 106.775 2.43833 110.001 0.804033C110.42 0.594507 110.839 0.384982 111.258 0.426887C112.096 0.552602 112.474 1.55832 112.516 2.43833C112.557 3.23453 112.432 4.03072 112.222 4.78502C112.683 4.24025 113.605 4.32406 114.108 4.82692C114.611 5.32978 114.737 6.12598 114.653 6.79646C114.443 8.38885 113.228 9.68791 111.803 10.4003C110.378 11.1127 108.744 11.2803 107.152 11.3222C104.931 11.406 102.668 11.2384 100.489 10.8193C99.944 10.7355 99.3993 10.6098 98.8964 10.6936C98.3516 10.7774 97.8488 11.1127 97.6811 11.6574C97.4297 12.5375 97.2202 18.5299 95.963 18.5299C95.7535 18.5299 94.8735 17.0213 94.2868 16.4765C93.5744 15.8061 92.8621 10.6517 92.7363 9.72982C92.7363 9.64601 92.6944 9.6041 92.6525 9.52029C91.8563 8.38885 92.7782 6.50312 93.784 5.87455C94.1611 5.66502 94.5383 5.4974 94.8735 5.32978Z" fill="#263238"/>
<path d="M93.1134 9.646C92.5267 10.3584 91.4372 10.4422 90.7248 9.85552C90.0124 9.26885 89.9286 8.17932 90.5153 7.46693L93.1134 9.646Z" fill="#263238"/>
<path d="M104.511 27.3719C104.511 27.3719 100.363 26.9529 98.8961 26.1986C97.9323 25.6957 97.1361 24.7738 96.8847 24.229C96.8847 24.229 97.1361 25.4443 98.0161 26.5757C99.0637 27.9167 104.47 28.9224 104.47 28.9224L104.511 27.3719Z" fill="#F28F8F"/>
<path d="M103.548 16.6021C103.548 17.063 103.171 17.4821 102.71 17.4821C102.249 17.4821 101.872 17.1049 101.872 16.6021C101.872 16.1411 102.249 15.7221 102.71 15.7221C103.171 15.764 103.548 16.1411 103.548 16.6021Z" fill="#263238"/>
<path d="M102.626 13.4595L100.866 14.4233C100.614 13.9204 100.782 13.2919 101.285 12.9985C101.788 12.7471 102.374 12.9566 102.626 13.4595Z" fill="#263238"/>
<path d="M104.134 22.3431L106.02 23.0555C105.852 23.6003 105.266 23.8936 104.721 23.6841C104.218 23.5165 103.967 22.8879 104.134 22.3431Z" fill="#F28F8F"/>
<path d="M110.965 14.1717L109.33 12.9146C109.666 12.4536 110.294 12.3698 110.755 12.7051C111.174 13.0403 111.258 13.7108 110.965 14.1717Z" fill="#263238"/>
<path d="M110.462 16.3928C110.462 16.8537 110.085 17.2728 109.624 17.2728C109.163 17.2728 108.786 16.8957 108.786 16.3928C108.786 15.9318 109.163 15.5128 109.624 15.5128C110.085 15.5128 110.462 15.8899 110.462 16.3928Z" fill="#263238"/>
<path d="M106.9 15.7642L107.151 20.7928L109.792 19.9128L106.9 15.7642Z" fill="#F28F8F"/>
<path d="M89.7607 31.4788C83.6006 31.5626 82.0082 35.2083 80.2063 39.0217C78.4044 42.7931 73.7948 51.5094 73.7948 51.5094L62.229 46.2713C62.229 46.2713 61.3909 49.4141 58.3318 51.2161C58.3318 51.2161 63.7795 55.7837 68.4729 59.1361C72.4539 61.9857 74.7586 63.4523 76.2672 62.4466C77.3987 61.6923 88.6711 46.9417 88.6711 46.9417C91.6464 42.4579 92.2331 34.8731 89.7607 31.4788Z" fill="#37474F"/>
<path d="M109.331 18.6557L108.66 18.3205L108.032 17.3986C108.032 17.3986 108.409 17.2309 108.702 17.4405C108.954 17.65 109.331 18.6557 109.331 18.6557Z" fill="#1C976E"/>
<path opacity="0.65" d="M109.331 18.6557L108.66 18.3205L108.032 17.3986C108.032 17.3986 108.409 17.2309 108.702 17.4405C108.954 17.65 109.331 18.6557 109.331 18.6557Z" fill="black"/>
<path d="M115.449 15.7642C115.407 17.1052 114.275 18.4042 112.976 18.6556L111.929 18.8233C111.426 18.9071 110.965 18.949 110.546 18.949C110.504 18.949 110.462 18.949 110.42 18.949C110.336 18.949 110.253 18.949 110.211 18.949C110.085 18.949 109.959 18.9071 109.833 18.9071C109.75 18.9071 109.708 18.8652 109.624 18.8652C109.582 18.8652 109.498 18.8233 109.456 18.7814C109.414 18.7814 109.414 18.7395 109.373 18.7395C109.331 18.7395 109.331 18.6975 109.289 18.6975C109.247 18.6556 109.205 18.6137 109.205 18.5718L108.87 17.8594C108.744 17.5661 108.367 17.3985 108.032 17.4404L107.277 17.5661C106.942 17.608 106.565 17.9433 106.439 18.2785C106.439 18.2785 106.272 18.6556 106.104 19.1166C105.894 19.5776 104.679 20.1642 103.38 20.3737L102.332 20.5414C102.123 20.5833 101.913 20.5833 101.704 20.5833C101.578 20.5833 101.452 20.5414 101.369 20.5414C101.327 20.5414 101.243 20.4995 101.201 20.4995C101.159 20.4995 101.117 20.4576 101.117 20.4576C101.033 20.4157 100.95 20.3737 100.866 20.3318C100.572 20.2061 96.0886 18.4042 95.46 16.8956C94.4543 14.507 98.5191 12.0765 99.9858 11.6156C100.153 11.5318 100.321 11.4899 100.489 11.448L111.133 9.56224C111.719 9.47843 112.264 9.56224 112.683 9.85557C112.976 10.0232 113.982 10.6099 114.359 10.8613C114.401 10.8613 114.443 10.9032 114.485 10.9032C114.527 10.9451 114.611 10.987 114.653 11.0289L114.694 11.0708C114.736 11.1127 114.82 11.1546 114.862 11.2384C114.946 11.3222 114.988 11.3642 115.03 11.448C115.072 11.4899 115.114 11.5737 115.155 11.6156C115.197 11.6994 115.239 11.7832 115.281 11.867C115.323 11.9508 115.323 12.0346 115.365 12.1184C115.407 12.2023 115.407 12.2861 115.407 12.328V12.3699C115.407 12.4537 115.449 12.5375 115.449 12.6213C115.491 13.6689 115.491 14.7166 115.449 15.7642Z" fill="#1C976E"/>
<g opacity="0.2">
<path opacity="0.2" d="M115.449 15.7654C115.407 17.1063 114.275 18.4054 112.976 18.6568L111.929 18.8245C111.426 18.9083 110.965 18.9502 110.546 18.9502C110.504 18.9502 110.462 18.9502 110.42 18.9502C110.336 18.9502 110.252 18.9502 110.211 18.9502C110.085 18.9502 109.959 18.9083 109.833 18.9083C109.75 18.9083 109.708 18.8664 109.624 18.8664C109.582 18.8664 109.498 18.8245 109.456 18.7825C109.414 18.7825 109.414 18.7406 109.372 18.7406C109.331 18.7406 109.331 18.6987 109.289 18.6987C109.247 18.6568 109.205 18.6149 109.205 18.573L108.87 17.8606C108.744 17.5673 108.367 17.3997 108.031 17.4416L107.277 17.5673C106.942 17.6092 106.565 17.9444 106.439 18.2797C106.439 18.2797 106.271 18.6568 106.104 19.1178C105.894 19.5787 104.679 20.1654 103.38 20.3749L102.332 20.5426C102.123 20.5845 101.913 20.5845 101.704 20.5845C101.578 20.5845 101.452 20.5426 101.369 20.5426C101.327 20.5426 101.243 20.5007 101.201 20.5007C101.159 20.5007 101.117 20.4587 101.117 20.4587C101.033 20.4168 100.95 20.3749 100.866 20.333C100.572 20.2073 96.0886 18.4054 95.46 16.8968C94.4543 14.5082 98.5191 12.0777 99.9857 11.6168C100.153 11.533 100.321 11.4911 100.489 11.4492L111.132 9.56343C111.719 9.47962 112.264 9.56343 112.683 9.85676C112.976 10.0244 113.982 10.6111 114.359 10.8625C114.401 10.8625 114.443 10.9044 114.485 10.9044C114.527 10.9463 114.611 10.9882 114.653 11.0301L114.694 11.072C114.736 11.1139 114.82 11.1558 114.862 11.2396C114.946 11.3234 114.988 11.3653 115.03 11.4492C115.072 11.4911 115.113 11.5749 115.155 11.6168C115.197 11.7006 115.239 11.7844 115.281 11.8682C115.323 11.952 115.323 12.0358 115.365 12.1196C115.407 12.2034 115.407 12.2873 115.407 12.3292V12.3711C115.407 12.4549 115.449 12.5387 115.449 12.6225C115.491 13.6701 115.491 14.7178 115.449 15.7654Z" fill="black"/>
</g>
<path d="M114.359 10.8195C113.94 10.61 113.479 10.5262 112.977 10.61L102.333 12.4957C101.076 12.7052 99.986 13.9205 99.8603 15.1776L96.8012 13.4176C97.8488 12.4538 99.2317 11.7414 99.9441 11.5319C100.112 11.4481 100.279 11.4062 100.447 11.3643L111.091 9.47853C111.678 9.39472 112.222 9.47853 112.641 9.77186C112.935 9.98139 113.94 10.5681 114.359 10.8195Z" fill="#1C976E"/>
<path opacity="0.35" d="M114.359 10.8195C113.94 10.61 113.479 10.5262 112.977 10.61L102.333 12.4957C101.076 12.7052 99.986 13.9205 99.8603 15.1776L96.8012 13.4176C97.8488 12.4538 99.2317 11.7414 99.9441 11.5319C100.112 11.4481 100.279 11.4062 100.447 11.3643L111.091 9.47853C111.678 9.39472 112.222 9.47853 112.641 9.77186C112.935 9.98139 113.94 10.5681 114.359 10.8195Z" fill="white"/>
<path d="M115.449 12.6214C115.491 13.669 115.491 14.7166 115.449 15.7642C115.407 17.1052 114.276 18.4043 112.976 18.6557L111.929 18.8233C110.63 19.0747 109.415 18.9071 109.205 18.53L108.87 17.8176C108.744 17.5242 108.367 17.3566 108.032 17.3985L107.277 17.5242C106.942 17.5662 106.565 17.9014 106.439 18.2366C106.439 18.2366 106.272 18.6138 106.062 19.0747C105.853 19.5357 104.637 20.1224 103.338 20.3319L102.291 20.4995C100.992 20.7509 99.8602 19.829 99.8183 18.4881C99.7764 17.4404 99.7764 16.3928 99.8183 15.3452C99.8602 14.0042 100.992 12.7052 102.291 12.4537L112.935 10.568C114.276 10.4004 115.407 11.2804 115.449 12.6214Z" fill="#1C976E"/>
<path opacity="0.5" d="M115.449 15.7641C115.407 17.1051 114.276 18.4041 112.977 18.6556L111.929 18.8232C111.426 18.907 110.965 18.9489 110.546 18.9489C110.504 18.9489 110.462 18.9489 110.42 18.9489C110.336 18.9489 110.253 18.9489 110.211 18.9489C110.085 18.9489 109.959 18.907 109.834 18.907C109.75 18.907 109.708 18.8651 109.624 18.8651C109.582 18.8651 109.498 18.8232 109.456 18.7813C109.415 18.7813 109.415 18.7394 109.373 18.7394C109.331 18.7394 109.331 18.6975 109.289 18.6975C109.247 18.6556 109.205 18.6137 109.205 18.5718L108.87 17.8594C108.744 17.566 108.367 17.3984 108.032 17.4403L107.277 17.566C106.942 17.6079 106.565 17.9432 106.439 18.2784C106.439 18.2784 106.272 18.6556 106.104 19.1165C105.895 19.5775 104.679 20.1642 103.38 20.3737L102.333 20.5413C102.123 20.5832 101.914 20.5832 101.704 20.5832C101.578 20.5832 101.453 20.5413 101.369 20.5413C101.327 20.5413 101.243 20.4994 101.201 20.4994C101.159 20.4994 101.117 20.4575 101.117 20.4575C101.034 20.4156 100.95 20.3737 100.866 20.3318C100.279 19.9965 99.9021 19.368 99.9021 18.5718C99.8602 17.5241 99.8602 16.4765 99.9021 15.4289C99.944 14.0879 101.075 12.7889 102.375 12.5374L113.018 10.6517C113.521 10.5679 113.982 10.6517 114.401 10.8612C114.443 10.8612 114.485 10.9031 114.527 10.9031C114.569 10.945 114.653 10.9869 114.695 11.0288L114.737 11.0708C114.778 11.1127 114.862 11.1546 114.904 11.2384C114.988 11.3222 115.03 11.3641 115.072 11.4479C115.114 11.4898 115.156 11.5736 115.197 11.6155C115.239 11.6993 115.281 11.7831 115.323 11.8669C115.365 11.9508 115.365 12.0346 115.407 12.1184C115.449 12.2022 115.449 12.286 115.449 12.3279V12.3698C115.449 12.4536 115.491 12.5374 115.491 12.6212C115.491 13.6689 115.491 14.7165 115.449 15.7641Z" fill="white"/>
<g opacity="0.7">
<path opacity="0.7" d="M115.449 12.6216C115.449 12.5378 115.449 12.454 115.407 12.3702V12.3283C115.407 12.2445 115.365 12.1606 115.365 12.1187C115.323 12.0349 115.323 11.9511 115.281 11.8673C115.239 11.7835 115.197 11.6997 115.155 11.6159C115.114 11.574 115.072 11.4902 115.03 11.4483C114.988 11.3644 114.904 11.3225 114.862 11.2387C114.82 11.1968 114.736 11.1549 114.695 11.0711L114.653 11.0292L108.283 17.3988C108.534 17.4407 108.786 17.6083 108.87 17.8178L109.205 18.5302C109.247 18.5721 109.247 18.614 109.289 18.6559C109.331 18.6559 109.331 18.6978 109.373 18.6978C109.373 18.6978 109.414 18.7397 109.456 18.7397C109.498 18.7816 109.54 18.7816 109.624 18.8236C109.666 18.8655 109.75 18.8655 109.834 18.8655C109.959 18.9074 110.085 18.9074 110.211 18.9074C110.294 18.9074 110.378 18.9074 110.42 18.9074C110.462 18.9074 110.504 18.9074 110.546 18.9074C110.797 18.9074 111.091 18.9074 111.384 18.8655L115.449 14.8007C115.491 14.0883 115.491 13.3759 115.449 12.6216Z" fill="#1C976E"/>
<path opacity="0.7" d="M110.378 11.071L101.075 20.374C101.117 20.374 101.159 20.4159 101.159 20.4159C101.201 20.4159 101.285 20.4578 101.327 20.4578C101.453 20.4997 101.536 20.4997 101.662 20.4997C101.872 20.5416 102.081 20.4997 102.291 20.4578L102.961 20.3321L112.725 10.652L110.378 11.071Z" fill="#1C976E"/>
<path opacity="0.7" d="M103.757 12.2444L99.8183 16.1835C99.8183 16.9797 99.8183 17.734 99.8183 18.5302C99.8183 18.9073 99.944 19.2845 100.112 19.5778L108.199 11.4901L103.757 12.2444Z" fill="#1C976E"/>
</g>
<path d="M97.3877 16.3509C97.3877 16.6023 97.1781 16.8119 96.9686 16.77C96.7172 16.7281 96.5496 16.4766 96.5496 16.2252C96.5496 15.9738 96.7591 15.7642 96.9686 15.8061C97.1781 15.8481 97.3877 16.0995 97.3877 16.3509Z" fill="#263238"/>
<g opacity="0.5">
<path opacity="0.5" d="M113.395 10.8194C113.689 10.8194 113.982 10.9032 114.275 11.029C114.317 11.029 114.317 11.0709 114.359 11.0709C114.401 11.1128 114.485 11.1547 114.527 11.1966H114.569C114.611 11.2385 114.653 11.2804 114.695 11.3223C114.736 11.3642 114.82 11.448 114.862 11.5318C114.904 11.5737 114.904 11.6156 114.946 11.6575C114.988 11.7414 115.03 11.7833 115.072 11.8671C115.114 11.909 115.114 11.9928 115.155 12.0347V12.0766C115.155 12.1604 115.197 12.2023 115.197 12.2442C115.197 12.328 115.197 12.4118 115.197 12.4956C115.239 13.5433 115.239 14.5909 115.197 15.6385C115.155 16.8538 114.108 18.069 112.935 18.3204L111.887 18.4881C111.51 18.5719 111.091 18.6138 110.714 18.6138C110.672 18.6138 110.588 18.6138 110.546 18.6138C110.504 18.6138 110.462 18.6138 110.42 18.6138C110.378 18.6138 110.336 18.6138 110.295 18.6138H110.211C110.085 18.6138 109.959 18.5719 109.834 18.5719C109.792 18.5719 109.708 18.53 109.666 18.53C109.624 18.53 109.582 18.4881 109.54 18.4881H109.498L109.456 18.4462C109.415 18.4043 109.415 18.4043 109.415 18.4043L109.079 17.6919C108.912 17.3566 108.534 17.1471 108.157 17.1471C108.115 17.1471 108.032 17.1471 107.99 17.1471L107.235 17.2728C106.816 17.3566 106.397 17.6919 106.23 18.1109C106.23 18.1109 106.062 18.4881 105.894 18.949C105.727 19.2843 104.679 19.8709 103.338 20.0805L102.291 20.2481C102.165 20.29 102.039 20.29 101.913 20.29C101.83 20.29 101.788 20.29 101.704 20.29C101.62 20.29 101.494 20.2481 101.411 20.2481C101.369 20.2481 101.327 20.2062 101.285 20.2062L101.243 20.1643H101.201C101.117 20.1224 101.033 20.0805 100.992 20.0386C100.447 19.7033 100.153 19.1585 100.112 18.4881C100.07 17.4404 100.07 16.3928 100.112 15.3452C100.153 14.1299 101.201 12.9147 102.416 12.6633L113.06 10.7775C113.144 10.8194 113.27 10.8194 113.395 10.8194ZM113.395 10.568C113.27 10.568 113.144 10.568 112.976 10.6099L102.333 12.4956C101.033 12.7471 99.902 14.0042 99.8601 15.3871C99.8182 16.4347 99.8182 17.4823 99.8601 18.53C99.8601 19.2843 100.279 19.9128 100.824 20.29C100.908 20.3319 100.992 20.3738 101.075 20.4157C101.117 20.4157 101.159 20.4576 101.159 20.4576C101.201 20.4576 101.285 20.4995 101.327 20.4995C101.453 20.5414 101.536 20.5414 101.662 20.5414C101.746 20.5414 101.83 20.5414 101.872 20.5414C101.997 20.5414 102.123 20.5414 102.291 20.4995L103.338 20.3319C104.637 20.1224 105.853 19.5357 106.062 19.0747C106.272 18.6138 106.397 18.2366 106.397 18.2366C106.523 17.9014 106.9 17.6081 107.235 17.5243L107.99 17.3985C108.032 17.3985 108.074 17.3985 108.115 17.3985C108.409 17.3985 108.702 17.5662 108.828 17.8176L109.163 18.53C109.205 18.5719 109.205 18.6138 109.247 18.6557C109.289 18.6557 109.289 18.6976 109.331 18.6976C109.331 18.6976 109.373 18.7395 109.415 18.7395C109.456 18.7814 109.498 18.7814 109.582 18.8233C109.624 18.8652 109.708 18.8652 109.792 18.8652C109.917 18.9071 110.043 18.9071 110.169 18.9071C110.253 18.9071 110.336 18.9071 110.378 18.9071C110.42 18.9071 110.462 18.9071 110.504 18.9071C110.546 18.9071 110.63 18.9071 110.672 18.9071C111.049 18.9071 111.468 18.8652 111.887 18.7814L112.935 18.6138C114.234 18.3624 115.365 17.1052 115.407 15.7223C115.449 14.6747 115.449 13.6271 115.407 12.5795C115.407 12.4956 115.407 12.4118 115.365 12.328V12.2861C115.365 12.2023 115.323 12.1185 115.323 12.0766C115.281 11.9928 115.281 11.909 115.239 11.8252C115.197 11.7414 115.156 11.6575 115.114 11.5737C115.072 11.5318 115.03 11.448 114.988 11.4061C114.946 11.3223 114.862 11.2804 114.82 11.1966C114.778 11.1547 114.695 11.1128 114.653 11.029L114.611 10.9871C114.569 10.9452 114.485 10.9032 114.443 10.8613C114.401 10.8194 114.359 10.8194 114.317 10.8194C114.066 10.6518 113.731 10.568 113.395 10.568Z" fill="black"/>
</g>
<path d="M99.8603 18.5299L99.8183 16.2671C99.8183 15.8899 99.7764 15.5128 99.8183 15.1356C99.8602 14.7585 99.986 14.3813 100.154 14.0461C100.531 13.3756 101.117 12.8308 101.872 12.5375C102.249 12.4118 102.626 12.3699 103.003 12.2861L104.093 12.0765L108.535 11.3223C110.001 11.0708 111.51 10.8613 112.977 10.6099C111.51 10.9032 110.043 11.1965 108.535 11.4899L104.093 12.2861L102.961 12.4956C102.584 12.5794 102.207 12.6213 101.872 12.7051C101.201 12.9565 100.615 13.4594 100.237 14.088C100.07 14.4232 99.9441 14.7585 99.8603 15.1356C99.8183 15.5128 99.8602 15.8899 99.8183 16.2671L99.8603 18.5299Z" fill="white"/>
<g opacity="0.3">
<path opacity="0.3" d="M175.415 0.38518V54.6523C174.493 60.3513 171.56 65.9247 166.615 71.0371C164.938 72.7972 163.011 74.4734 160.874 76.1077C158.946 77.5324 156.893 78.8734 154.63 80.2144C146.416 84.9496 136.694 88.302 126.386 90.2716C124.752 90.5649 123.075 90.8582 121.399 91.1097V36.6331C133.007 34.7473 143.944 31.3111 153.121 26.2406C164.436 19.9549 171.392 12.1605 173.906 4.07283C174.367 2.85758 174.786 1.64233 175.08 0.38518C175.121 0.175655 175.415 0.21756 175.415 0.38518Z" fill="#1C976E"/>
</g>
<path d="M121.148 91.3611V36.3816L121.357 36.3397C133.216 34.4121 144.154 30.8502 152.996 25.9892C163.933 19.9548 171.099 12.37 173.697 3.98901V3.82139H173.781C174.241 2.64805 174.619 1.47471 174.87 0.301365C174.912 0.0918392 175.121 -0.033876 175.289 0.00802909C175.499 0.0499342 175.624 0.217554 175.624 0.385175V54.6523C174.661 60.5609 171.685 66.0923 166.74 71.2048C164.98 73.0067 163.053 74.7248 160.958 76.3172C158.904 77.8258 156.851 79.1667 154.714 80.4239C146.71 85.0753 137.155 88.4697 126.386 90.523C124.752 90.8163 123.075 91.1097 121.399 91.3611H121.148ZM121.609 36.8007V90.8583C123.201 90.6068 124.752 90.3554 126.302 90.0621C137.03 88.0087 146.5 84.6563 154.462 80.0467C156.599 78.8315 158.611 77.4905 160.664 75.9819C162.718 74.4315 164.645 72.7134 166.405 70.9533C171.266 65.9247 174.2 60.4771 175.163 54.6942V0.888036C174.87 1.97757 174.535 3.10901 174.074 4.19854C171.434 12.6634 164.226 20.3739 153.163 26.4501C144.363 31.2692 133.468 34.8312 121.609 36.8007Z" fill="#1C976E"/>
<path d="M133.971 77.5743C133.887 77.5743 133.761 77.5324 133.677 77.4905C133.552 77.4067 133.51 77.281 133.51 77.1552V45.0979C133.51 44.8883 133.635 44.7207 133.845 44.6788C136.485 43.9664 138.957 43.2121 141.304 42.374C141.43 42.3321 141.597 42.3321 141.723 42.4159C141.849 42.4997 141.933 42.6255 141.933 42.7931V74.8505C141.933 75.06 141.807 75.2276 141.639 75.2695C139.251 76.1495 136.778 76.9038 134.096 77.6162C134.055 77.5743 134.013 77.5743 133.971 77.5743ZM134.432 45.4331V76.5267C136.736 75.8981 138.916 75.2276 141.053 74.4733V43.3797C138.916 44.0921 136.736 44.7626 134.432 45.4331Z" fill="white"/>
<path d="M148.386 72.4199C148.302 72.4199 148.218 72.378 148.134 72.3361C148.009 72.2523 147.925 72.1266 147.925 71.959V39.9016C147.925 39.734 148.009 39.5663 148.176 39.4825C150.104 38.6025 152.157 37.5968 154.336 36.2977C154.797 36.0463 155.216 35.7949 155.635 35.5434C155.761 35.4596 155.929 35.4596 156.096 35.5434C156.222 35.6273 156.348 35.753 156.348 35.9206V67.978C156.348 68.1456 156.264 68.2713 156.138 68.3551C155.719 68.6066 155.258 68.8999 154.797 69.1513C152.576 70.4085 150.523 71.4561 148.553 72.3361C148.512 72.378 148.428 72.4199 148.386 72.4199ZM148.847 40.1949V71.2466C150.607 70.4504 152.409 69.4866 154.378 68.3551C154.755 68.1456 155.091 67.9361 155.468 67.7266V36.7587C155.258 36.8844 155.049 37.0101 154.839 37.1358C152.702 38.3511 150.733 39.3568 148.847 40.1949Z" fill="white"/>
<path d="M162.759 63.5779C162.676 63.5779 162.634 63.5779 162.55 63.536C162.382 63.4522 162.298 63.2846 162.298 63.117V31.1015C162.298 30.9758 162.34 30.85 162.466 30.7662C163.849 29.6348 165.106 28.4615 166.238 27.2881C167.579 25.9472 168.794 24.4805 169.883 22.93C170.009 22.7624 170.219 22.7205 170.386 22.7624C170.554 22.8043 170.679 23.0138 170.679 23.1814V55.2388C170.679 55.3226 170.638 55.4064 170.596 55.4902C169.464 57.0826 168.207 58.5912 166.866 59.9741C165.693 61.1893 164.394 62.3627 163.011 63.4941C162.969 63.5779 162.885 63.5779 162.759 63.5779ZM163.22 31.311V62.195C164.31 61.2731 165.316 60.3093 166.279 59.3455C167.579 58.0045 168.794 56.5798 169.841 55.0712V24.5224C168.919 25.6957 167.956 26.8272 166.908 27.9167C165.777 29.0481 164.561 30.2215 163.22 31.311Z" fill="white"/>
<g opacity="0.3">
<path opacity="0.3" d="M126.805 83.1058L145.034 49.456L159.617 68.3971C159.617 68.3971 153.456 77.1553 126.805 83.1058Z" fill="#1C976E"/>
</g>
<g opacity="0.3">
<path opacity="0.3" d="M92.9454 85.1172C76.309 84.2372 60.0918 80.2562 47.3526 73.258C33.0211 65.338 25.7296 55.0293 25.4782 44.7207V43.673L25.3524 8.808C25.3524 6.3356 29.7525 13.3757 38.9297 20.6252C39.1392 20.7929 39.3487 20.9605 39.6002 21.1281C40.103 21.5052 40.6478 21.9243 41.1926 22.3014C43.0783 23.6424 45.1736 24.9415 47.4364 26.1986C60.1337 33.1968 76.2671 37.1358 92.8196 38.0577L92.9454 85.1172Z" fill="#1C976E"/>
</g>
<path d="M25.8135 8.89316C26.3163 9.2284 27.364 10.3179 28.4116 11.4494C30.6745 13.7961 34.0688 17.358 38.6364 21.0037C38.804 21.1294 38.9717 21.2552 39.1393 21.3809L39.3069 21.5066C39.8098 21.8837 40.3126 22.2609 40.8993 22.6799C42.8269 24.0628 44.9641 25.3619 47.1851 26.619C59.3375 33.2819 75.3453 37.5143 92.3587 38.4781L92.4845 84.6575C75.5548 83.6937 59.6309 79.5032 47.5622 72.8822C33.8592 65.3393 26.1487 55.324 25.8973 44.722V43.6744L25.8135 8.89316ZM25.6039 8.30649C25.4363 8.30649 25.3525 8.47411 25.3525 8.80935L25.4782 43.6744V44.722C25.7297 55.0726 33.0211 65.3812 47.3527 73.2594C60.0918 80.2575 76.3091 84.2385 92.9454 85.1185L92.8197 38.0591C76.2253 37.1372 60.1337 33.1981 47.4365 26.2C45.1736 24.9428 43.0784 23.6437 41.1926 22.3028C40.6479 21.9256 40.145 21.5485 39.6002 21.1294C39.3907 20.9618 39.1812 20.7942 38.9298 20.6266C31.0097 14.4246 26.6935 8.30649 25.6039 8.30649Z" fill="#1C976E"/>
<path d="M76.8539 78.4542H76.812C76.6863 78.4542 63.1929 76.4847 50.0766 69.8637C35.0327 62.237 29.1659 50.4197 29.0821 50.294C29.0402 50.2521 29.0402 50.1683 29.0402 50.0845V41.033C29.0402 40.9492 29.0821 40.8654 29.124 40.7816L38.9717 26.8272C39.0555 26.7015 39.2232 26.6176 39.3908 26.6596C39.5584 26.6596 39.6841 26.7853 39.7679 26.911L52.0042 55.4064L50.9566 50.1264C50.9147 49.9588 50.9985 49.7912 51.1242 49.6654L60.9719 42.7092C61.0557 42.6254 61.1814 42.6254 61.3071 42.6254C61.4329 42.6673 61.5167 42.7092 61.6005 42.8349L77.273 69.1513C77.3149 69.2351 77.3568 69.3189 77.3568 69.3608V77.9095C77.3568 78.0352 77.3149 78.1609 77.1892 78.2447C77.0635 78.4123 76.9796 78.4542 76.8539 78.4542ZM29.9202 49.9588C30.5069 51.0483 36.4155 61.9017 50.4537 69.0256C62.0195 74.8923 73.8368 77.0295 76.393 77.4485V69.5285L61.0557 43.7568L51.8366 50.2521L53.6804 59.4712C53.7223 59.6808 53.5966 59.9322 53.3871 59.9741C53.1776 60.0579 52.9261 59.9322 52.8423 59.7227L39.2232 28.0005L29.9202 41.1587V49.9588Z" fill="white"/>
<path d="M76.6863 51.9283C76.3929 51.9283 76.1415 51.8864 75.8481 51.8445C73.1662 51.2998 70.9453 48.3664 70.9453 45.2654C70.9453 43.6311 71.5738 42.1644 72.6634 41.2844C73.5853 40.5301 74.8005 40.2368 76.0158 40.4882C78.6977 41.033 80.9187 43.9664 80.9187 47.0673C80.9187 48.7016 80.2901 50.1683 79.2006 51.0483C78.4882 51.5931 77.6082 51.9283 76.6863 51.9283ZM75.1777 41.2425C74.4653 41.2425 73.7948 41.494 73.2081 41.9549C72.3281 42.6673 71.8253 43.8826 71.8253 45.2654C71.8253 47.9473 73.711 50.5036 76.0158 50.9645C76.9796 51.174 77.9015 50.9226 78.6558 50.3359C79.5358 49.6235 80.0387 48.4083 80.0387 47.0254C80.0387 44.3435 78.1529 41.7873 75.8481 41.3263C75.6386 41.2425 75.3872 41.2425 75.1777 41.2425Z" fill="white"/>
<g opacity="0.3">
<path opacity="0.3" d="M28.6215 19.4938C28.6215 19.4938 32.7282 26.6596 41.1511 29.8025V25.7377C33.0635 21.9243 28.6215 14.7166 28.6215 14.7166V19.4938Z" fill="#1C976E"/>
</g>
<g opacity="0.3">
<path opacity="0.3" d="M28.6211 26.8271C28.6211 26.8271 32.7278 33.9929 41.1507 37.1358V33.071C33.063 29.2576 28.6211 22.0499 28.6211 22.0499V26.8271Z" fill="#1C976E"/>
</g>
<g opacity="0.3">
<path opacity="0.3" d="M28.6211 34.2024C28.6211 34.2024 32.7278 41.3681 41.1507 44.511V40.4462C33.063 36.6328 28.6211 29.4252 28.6211 29.4252V34.2024Z" fill="#1C976E"/>
</g>
</svg>
