<svg id="Layer_1" data-name="Layer 1" xmlns="http://www.w3.org/2000/svg" viewBox="0 0 150 75.5"><defs><style>.cls-1{fill:#214975;}.cls-2{fill:#1c976e;}</style></defs><path class="cls-1" d="M48.11,38.19H45.7l4.39-11.12a2.37,2.37,0,0,1,1-1.25,3.35,3.35,0,0,1,1.64-.36,3.24,3.24,0,0,1,1.62.36,2.27,2.27,0,0,1,1,1.25l4.22,11.12H57.12l-3.8-10.06a.62.62,0,0,0-.62-.43.65.65,0,0,0-.63.43Z"/><path class="cls-1" d="M68.14,25.68A5,5,0,0,1,70,26a3.53,3.53,0,0,1,1.25.82,3.21,3.21,0,0,1,.73,1.2,4.49,4.49,0,0,1,.23,1.42A4.71,4.71,0,0,1,72,30.6a3.89,3.89,0,0,1-.46,1.09,3.49,3.49,0,0,1-.82.9,3.57,3.57,0,0,1-1.22.6l2.91,5H70l-2.86-4.84H63.88a.28.28,0,0,0-.31.32v4.52H61.38V33.24a2.09,2.09,0,0,1,.46-1.52,2.06,2.06,0,0,1,1.5-.46h4.88a2,2,0,0,0,.8-.15,1.44,1.44,0,0,0,.53-.39,1.61,1.61,0,0,0,.31-.56,2,2,0,0,0,.1-.64,1.71,1.71,0,0,0-.42-1.16,1.62,1.62,0,0,0-1.32-.49H61.36V25.68Z"/><path class="cls-1" d="M82.92,25.68v2.19H79.27V38.19H77.06V27.87H73.41V25.68Z"/><path class="cls-1" d="M87.16,25.68V38.19H85V25.68Z"/><path class="cls-1" d="M99.88,25.68v2.19h-5A4,4,0,0,0,93.6,28a2.06,2.06,0,0,0-.8.46,1.55,1.55,0,0,0-.42.66,2.78,2.78,0,0,0-.12.83v1.19h7.55v2.07H92.26v4.95H90.07V30a6,6,0,0,1,.25-1.74,3.55,3.55,0,0,1,.81-1.36,3.85,3.85,0,0,1,1.44-.9,6.27,6.27,0,0,1,2.12-.32Z"/><path class="cls-1" d="M104.66,25.68V38.19h-2.19V25.68Z"/><path class="cls-1" d="M117.71,25.68v2.19h-4.84a3.3,3.3,0,0,0-2.64.95,4.76,4.76,0,0,0-.82,3.12,4.79,4.79,0,0,0,.81,3.11,3.31,3.31,0,0,0,2.65,1h4.84v2.19h-4.84a5.44,5.44,0,0,1-4.19-1.55,6.59,6.59,0,0,1-1.46-4.7,6.61,6.61,0,0,1,1.46-4.71,5.44,5.44,0,0,1,4.19-1.55Z"/><path class="cls-1" d="M122.51,25.68V38.19h-2.18V25.68Z"/><path class="cls-1" d="M126.78,38.19h-2.41l4.39-11.12a2.33,2.33,0,0,1,1-1.25,3.32,3.32,0,0,1,1.64-.36,3.24,3.24,0,0,1,1.62.36,2.31,2.31,0,0,1,1,1.25l4.22,11.12h-2.43L132,28.13a.6.6,0,0,0-.61-.43.65.65,0,0,0-.63.43Z"/><path class="cls-1" d="M141.38,25.68v8.17a3,3,0,0,0,.12.85,1.56,1.56,0,0,0,.42.68,2.09,2.09,0,0,0,.79.46,4,4,0,0,0,1.23.16h4.86v2.19h-5a6.31,6.31,0,0,1-2.12-.32,3.85,3.85,0,0,1-1.44-.9,3.41,3.41,0,0,1-.8-1.36,5.67,5.67,0,0,1-.25-1.74V25.68Z"/><path class="cls-2" d="M45.68,39.74H48V54.69H45.68Z"/><path class="cls-2" d="M51.25,45.35h2.16l0,1.71a3.16,3.16,0,0,1,1.22-1.4,3.41,3.41,0,0,1,2-.55,3.58,3.58,0,0,1,2.22.6,2.91,2.91,0,0,1,1,1.68,11.86,11.86,0,0,1,.27,2.8v4.5h-2.2V50.25a6.87,6.87,0,0,0-.34-2.55,1.41,1.41,0,0,0-1.43-.78,2.32,2.32,0,0,0-1.24.38,3,3,0,0,0-1,1.08,3.33,3.33,0,0,0-.41,1.67v4.64h-2.2Z"/><path class="cls-2" d="M63.76,47.14H62.11V45.35h1.65v-3.8L66,41.06v4.29h2.15v1.79H66v7.55H63.76Z"/><path class="cls-2" d="M71.55,54.23a4,4,0,0,1-1.65-1.77A5.61,5.61,0,0,1,69.37,50a5.29,5.29,0,0,1,.62-2.6,4.31,4.31,0,0,1,1.72-1.72,5.08,5.08,0,0,1,2.48-.6A4.07,4.07,0,0,1,77.4,46.3a4.88,4.88,0,0,1,1,3.34,11.17,11.17,0,0,1-.06,1.14H71.67a2.85,2.85,0,0,0,.89,1.79,2.77,2.77,0,0,0,1.84.55A6.47,6.47,0,0,0,76,53a5.18,5.18,0,0,0,1.16-.45l.67,1.57a4.9,4.9,0,0,1-1.38.57,8.06,8.06,0,0,1-2.11.24A5.38,5.38,0,0,1,71.55,54.23Zm4.76-5a2.28,2.28,0,0,0-.55-1.78,2.56,2.56,0,0,0-4.09,1.78Z"/><path class="cls-2" d="M80.93,39.74H83.1V54.69H80.93Z"/><path class="cls-2" d="M86.38,39.74h2.17V54.69H86.38Z"/><path class="cls-2" d="M91.87,43.18a1.43,1.43,0,0,1-.43-1.06,1.29,1.29,0,0,1,.43-1,1.47,1.47,0,0,1,1.06-.4,1.43,1.43,0,0,1,1,.4,1.29,1.29,0,0,1,.43,1A1.46,1.46,0,0,1,94,43.18a1.39,1.39,0,0,1-1,.42A1.45,1.45,0,0,1,91.87,43.18Zm-.06,2.17h2.28v9.34H91.81Z"/><path class="cls-2" d="M99.63,59.29a7.39,7.39,0,0,1-1.44-.53l.49-2a5.22,5.22,0,0,0,2.93.88,3.53,3.53,0,0,0,2.06-.59,2.71,2.71,0,0,0,.85-2.3V53a3.39,3.39,0,0,1-1.38,1.32,4.25,4.25,0,0,1-2.12.53,4.35,4.35,0,0,1-2.24-.6,4.23,4.23,0,0,1-1.6-1.72,6,6,0,0,1,0-5.13,4.07,4.07,0,0,1,1.59-1.72,4.65,4.65,0,0,1,2.42-.61,4.08,4.08,0,0,1,1.53.28,4.44,4.44,0,0,1,1.21.71,2.17,2.17,0,0,1,.66.82l0-1.57h2.08v9.28a5.12,5.12,0,0,1-1.22,3.66,5,5,0,0,1-3.79,1.28A7.44,7.44,0,0,1,99.63,59.29Zm4-7a2.88,2.88,0,0,0,.8-2.11V50a3.28,3.28,0,0,0-.37-1.57,2.65,2.65,0,0,0-1-1.07,2.57,2.57,0,0,0-1.38-.39,2.48,2.48,0,0,0-2,.84A3.28,3.28,0,0,0,98.91,50a3.33,3.33,0,0,0,.7,2.21,2.48,2.48,0,0,0,2,.84A2.64,2.64,0,0,0,103.58,52.24Z"/><path class="cls-2" d="M111.11,54.23a4,4,0,0,1-1.65-1.77,5.61,5.61,0,0,1-.53-2.43,5.29,5.29,0,0,1,.62-2.6,4.31,4.31,0,0,1,1.72-1.72,5.08,5.08,0,0,1,2.48-.6A4.07,4.07,0,0,1,117,46.3,4.88,4.88,0,0,1,118,49.64a11.24,11.24,0,0,1-.07,1.14h-6.71a2.9,2.9,0,0,0,.89,1.79,2.77,2.77,0,0,0,1.84.55,6.47,6.47,0,0,0,1.6-.16,5.18,5.18,0,0,0,1.16-.45l.67,1.57a4.9,4.9,0,0,1-1.38.57,8.06,8.06,0,0,1-2.11.24A5.41,5.41,0,0,1,111.11,54.23Zm4.76-5a2.28,2.28,0,0,0-.55-1.78,2.56,2.56,0,0,0-4.09,1.78Z"/><path class="cls-2" d="M120.3,45.35h2.16l0,1.71a3.22,3.22,0,0,1,1.22-1.4,3.45,3.45,0,0,1,2-.55,3.56,3.56,0,0,1,2.22.6,2.93,2.93,0,0,1,1,1.68,12.5,12.5,0,0,1,.26,2.8v4.5H127V50.25a6.82,6.82,0,0,0-.35-2.55,1.4,1.4,0,0,0-1.42-.78,2.38,2.38,0,0,0-1.25.38,3,3,0,0,0-1,1.08,3.24,3.24,0,0,0-.42,1.67v4.64h-2.2Z"/><path class="cls-2" d="M133.86,54.29a4.37,4.37,0,0,1-1.76-1.73,5.23,5.23,0,0,1-.65-2.65,5.14,5.14,0,0,1,.6-2.53,4.08,4.08,0,0,1,1.69-1.68,5.2,5.2,0,0,1,2.51-.59,5.7,5.7,0,0,1,1.86.27,3.74,3.74,0,0,1,1.23.68l-1,1.77a2.67,2.67,0,0,0-1.94-.85,2.46,2.46,0,0,0-2,.79,3.17,3.17,0,0,0-.68,2.12,3.53,3.53,0,0,0,.7,2.34,2.44,2.44,0,0,0,2,.83,4.26,4.26,0,0,0,1.23-.18,3.11,3.11,0,0,0,.93-.43l.79,1.55a4.27,4.27,0,0,1-1.25.62,5.54,5.54,0,0,1-1.78.27A5.15,5.15,0,0,1,133.86,54.29Z"/><path class="cls-2" d="M143.1,54.23a4.05,4.05,0,0,1-1.64-1.77,5.47,5.47,0,0,1-.53-2.43,5.18,5.18,0,0,1,.62-2.6,4.25,4.25,0,0,1,1.72-1.72,5.08,5.08,0,0,1,2.48-.6A4,4,0,0,1,149,46.3,4.88,4.88,0,0,1,150,49.64a11.17,11.17,0,0,1-.06,1.14h-6.71a2.89,2.89,0,0,0,.88,1.79,2.79,2.79,0,0,0,1.84.55,6.56,6.56,0,0,0,1.61-.16,5.18,5.18,0,0,0,1.16-.45l.67,1.57a5,5,0,0,1-1.38.57,8.14,8.14,0,0,1-2.12.24A5.44,5.44,0,0,1,143.1,54.23Zm4.76-5a2.24,2.24,0,0,0-.55-1.78,2.55,2.55,0,0,0-4.08,1.78Z"/><polygon class="cls-2" points="27.94 35.63 27.96 31.39 29.35 30.02 29.37 27.5 30.84 27.51 30.84 27.37 29.23 27.36 29.21 29.96 27.82 31.34 27.8 35.63 27.94 35.63"/><polygon class="cls-2" points="28.91 33.66 28.92 31.59 30.09 31.33 30.11 28.83 31.22 29.11 32.15 28.52 32.08 28.4 31.19 28.96 29.97 28.65 29.95 31.21 28.78 31.48 28.77 33.66 28.91 33.66"/><polygon class="cls-2" points="28.89 36.77 28.9 34.53 30.89 31.35 30.9 30.1 30.76 30.1 30.75 31.31 28.77 34.49 28.75 36.63 27.12 36.62 27.12 36.76 28.89 36.77"/><polygon class="cls-2" points="30.85 39.26 30.86 38.31 30.11 38.09 30.13 34.56 30.88 34.14 30.88 32.69 32.17 31.09 32.18 29.63 32.04 29.63 32.03 31.04 30.75 32.63 30.74 34.06 29.99 34.48 29.97 38.19 30.71 38.41 30.71 39.26 30.85 39.26"/><polygon class="cls-2" points="32.13 39.27 32.13 37.9 31.13 37.36 31.14 35.71 32.15 35.72 32.15 34.23 33.34 32.43 33.35 29.64 33.21 29.64 33.2 32.38 32.02 34.19 32.01 35.58 31 35.57 30.99 37.44 32 37.98 31.99 39.27 32.13 39.27"/><polygon class="cls-2" points="31.67 34.8 31.68 33.43 32.63 31.91 32.52 31.83 31.54 33.39 31.53 34.79 31.67 34.8"/><polygon class="cls-2" points="32.17 36.99 33.05 36.77 33.06 34.47 34.51 31.9 34.52 30.66 34.38 30.65 34.37 31.86 32.92 34.44 32.91 36.66 32.13 36.86 32.17 36.99"/><rect class="cls-2" x="33.43" y="33.1" width="3.12" height="0.14" transform="translate(-12.17 43.2) rotate(-55.47)"/><polygon class="cls-2" points="35.48 34.54 36.29 32.92 36.99 32.92 36.99 32.78 36.2 32.78 35.4 34.4 34.64 34.39 34.64 34.53 35.48 34.54"/><polygon class="cls-2" points="36.65 35.16 37.48 33.47 37.35 33.41 36.56 35.02 33.63 35 33.63 35.14 36.65 35.16"/><polygon class="cls-2" points="36.24 37.02 36.25 36.08 34.44 36.07 33.66 35.6 33.59 35.72 34.4 36.21 36.11 36.22 36.1 36.88 33.83 36.87 33.83 37.01 36.24 37.02"/><polygon class="cls-2" points="37.99 37.67 38.02 35.02 37.41 35.02 36.66 36.26 36.76 36.36 37.48 35.09 37.87 35.16 37.86 37.53 33.24 37.5 33.24 37.64 37.99 37.67"/><polygon class="cls-2" points="34.11 39.35 34.92 38.45 38.95 38.47 38.96 36.96 38.82 36.96 38.81 38.33 34.85 38.31 34.05 39.21 32.86 39.2 32.86 39.34 34.11 39.35"/><polygon class="cls-2" points="35.55 42.27 35.56 39.85 36.4 39.04 38.88 39.06 38.88 38.92 36.35 38.9 35.42 39.79 35.41 42.27 35.55 42.27"/><rect class="cls-2" x="37.71" y="38.85" width="0.14" height="2.18" transform="translate(-2.36 77.5) rotate(-89.69)"/><polygon class="cls-2" points="34.62 44.04 36.21 42.74 36.48 40.7 38.87 40.71 38.87 40.57 36.36 40.55 36.08 42.66 34.57 43.9 33.21 43.89 33.21 44.03 34.62 44.04"/><rect class="cls-2" x="37.95" y="40.75" width="0.14" height="1.69" transform="translate(-3.78 79.39) rotate(-89.69)"/><polygon class="cls-2" points="36.06 44.04 37.23 43.33 37.24 42.28 37.1 42.28 37.09 43.25 35.99 43.92 36.06 44.04"/><polygon class="cls-2" points="32.18 45.5 32.19 43.18 34.59 43.19 34.6 43.05 32.05 43.04 32.04 45.5 32.18 45.5"/><polygon class="cls-2" points="34.6 42.36 34.6 42.22 31.63 42.18 31.64 41.2 34.04 41.21 34.55 41.77 34.65 41.67 34.1 41.08 31.5 41.06 31.49 42.32 34.6 42.36"/><polygon class="cls-2" points="34.61 39.99 34.61 39.85 29.38 39.83 29.39 38.92 28.88 37.53 28.75 37.57 29.25 38.95 29.24 39.97 34.61 39.99"/><polygon class="cls-2" points="31.09 44.65 31.11 41.06 29.38 41.05 29.38 40.5 31.04 40.51 31.04 40.37 29.24 40.36 29.24 41.19 30.97 41.2 30.95 44.64 31.09 44.65"/><polygon class="cls-2" points="30.22 45.49 30.23 42.71 28.54 42.7 28.55 40.47 24.66 42.45 24.72 42.57 28.41 40.7 28.4 42.84 30.09 42.84 30.08 45.49 30.22 45.49"/><rect class="cls-2" x="29.46" y="41.61" width="1.12" height="0.14" transform="translate(-11.82 71.49) rotate(-89.7)"/><polygon class="cls-2" points="28.81 39.96 28.81 39.82 24.14 39.8 22.6 38.86 22.62 33.71 22.13 33.23 22.03 33.33 22.48 33.77 22.46 38.94 24.1 39.94 28.81 39.96"/><polygon class="cls-2" points="27.85 39.32 27.85 39.18 24.74 39.16 23.66 38.13 27.83 38.15 28.77 38.99 28.86 38.88 27.88 38.01 23.32 37.98 24.68 39.3 27.85 39.32"/><rect class="cls-2" x="25.86" y="38.88" width="0.59" height="0.14" transform="translate(-12.93 64.89) rotate(-89.7)"/><polygon class="cls-2" points="27.86 37.61 27.86 37.48 23.35 37.45 23.36 35.34 23.22 35.34 23.21 37.59 27.86 37.61"/><polygon class="cls-2" points="26.55 37.11 26.55 35.88 27.19 35.67 27.21 32.13 26.44 33.35 26.56 33.42 27.07 32.61 27.05 35.57 26.41 35.78 26.41 37.11 26.55 37.11"/><polygon class="cls-2" points="25.64 36.89 25.65 35.65 26.56 35.07 26.56 34.14 25.24 34.13 26.56 32.14 26.45 32.07 24.98 34.27 26.42 34.28 26.42 35 25.51 35.58 25.5 36.89 25.64 36.89"/><polygon class="cls-2" points="24.72 36.96 24.72 36.82 24.2 36.82 24.21 35.09 25 35.1 24.66 35.93 24.79 35.98 25.21 34.96 24.08 34.95 24.07 36.95 24.72 36.96"/><polygon class="cls-2" points="27.83 29.75 28.93 28.9 28.94 27.64 28.8 27.64 28.8 28.83 27.97 29.47 27.99 26.75 30.1 26.76 30.1 26.62 27.85 26.61 27.83 29.75"/><polygon class="cls-2" points="24.69 33.78 25.88 31.86 25.89 30.13 26.45 29.96 26.44 31.17 27.94 30.14 27.86 30.03 26.58 30.91 26.59 29.77 25.75 30.03 25.74 31.82 24.57 33.71 24.69 33.78"/><polygon class="cls-2" points="27.22 29.87 27.24 26.86 25.77 27.03 25.76 29.02 26.59 29.15 26.59 27.84 26.46 27.84 26.45 28.99 25.9 28.9 25.91 27.16 27.1 27.02 27.09 29.87 27.22 29.87"/><polygon class="cls-2" points="24.23 31.29 24.25 28.76 26.25 26.1 28.88 26.11 28.88 25.98 26.18 25.96 24.11 28.71 24.09 31.29 24.23 31.29"/><polygon class="cls-2" points="23.84 33.78 25.19 31.53 25.2 28.96 25.07 28.95 25.05 31.49 23.72 33.71 23.84 33.78"/><polygon class="cls-2" points="23.36 34.48 23.37 33.26 22.23 31.86 24.16 31.87 24.16 31.73 21.94 31.72 23.23 33.31 23.23 34.48 23.36 34.48"/><rect class="cls-2" x="23.39" y="31.64" width="0.14" height="0.87" transform="translate(-16.18 29.2) rotate(-49.68)"/><polygon class="cls-2" points="22.02 31.41 23.46 31.36 23.46 31.22 22.16 31.26 22.16 29.61 24.83 26.97 25.55 25.45 26.88 25.09 26.84 24.96 25.45 25.33 24.71 26.89 22.03 29.55 22.02 31.41"/><rect class="cls-2" x="22.12" y="30.5" width="1.44" height="0.14" transform="translate(-7.85 53.25) rotate(-89.7)"/><polygon class="cls-2" points="24.04 42.01 25.3 41.29 25.24 41.17 24.18 41.77 24.18 40.63 26.43 40.64 26.43 40.5 24.05 40.49 24.04 42.01"/><polygon class="cls-2" points="29.35 46.45 29.36 43.87 27.9 43.87 27.91 41.91 27.77 41.91 27.76 44.01 29.22 44.01 29.21 46.45 29.35 46.45"/><polygon class="cls-2" points="28.77 45.98 28.78 45.84 27.14 45.83 27.16 43.08 27.02 43.08 27 45.97 28.77 45.98"/><rect class="cls-2" x="27.62" y="44.28" width="0.14" height="1.22" transform="translate(-17.35 72.34) rotate(-89.69)"/><polygon class="cls-2" points="26.12 47.03 26.14 43.93 26 43.93 25.98 46.89 25.11 46.89 25.13 43.38 27.12 42.29 27.06 42.17 24.99 43.29 24.97 47.03 26.12 47.03"/><polygon class="cls-2" points="27.13 47.94 27.14 47.04 28.54 47.05 28.54 46.91 27 46.9 26.99 47.8 25.04 47.79 25.04 47.93 27.13 47.94"/><polygon class="cls-2" points="24.44 48.71 24.46 43.36 22.81 41.44 21.46 41.44 21.47 39.83 20.77 38.85 20.66 38.93 21.33 39.88 21.32 41.58 22.75 41.58 24.32 43.41 24.3 48.71 24.44 48.71"/><rect class="cls-2" x="22.66" y="39.87" width="0.14" height="1.37" transform="translate(-17.95 63.06) rotate(-89.69)"/><polygon class="cls-2" points="22.67 40.59 22.78 40.51 21.27 38.34 21.28 35.33 21.14 35.33 21.13 38.38 22.67 40.59"/><polygon class="cls-2" points="22.04 36.88 22.06 34.72 21.29 33.7 21.3 32.34 21.16 32.34 21.15 33.75 21.92 34.77 21.91 36.87 22.04 36.88"/><polygon class="cls-2" points="18.85 32.76 18.86 30 17.48 29.2 17.5 26.23 18.62 25.33 18.63 24.07 18.49 24.07 18.48 25.27 17.36 26.16 17.34 29.27 18.72 30.08 18.71 32.76 18.85 32.76"/><polygon class="cls-2" points="17.41 43.03 17.42 40.13 16.52 39.16 16.55 34.76 18.14 34.77 18.15 33.78 19.64 33.79 19.66 30.58 19.52 30.58 19.5 33.65 18.01 33.64 18.01 34.63 16.41 34.62 16.38 39.22 17.29 40.18 17.27 43.03 17.41 43.03"/><polygon class="cls-2" points="20.27 35.07 20.28 33.14 21.3 31.04 21.17 30.98 20.14 33.11 20.14 34.93 18.77 34.92 18.77 35.06 20.27 35.07"/><polygon class="cls-2" points="21.69 30.63 21.7 28.97 24.54 26.38 25.22 24.5 25.09 24.46 24.42 26.3 21.56 28.91 21.55 30.49 20.23 30.48 20.23 30.62 21.69 30.63"/><polygon class="cls-2" points="19.35 29.25 19.41 29.13 18.18 28.58 18.19 26.66 19.47 25.33 19.48 24.08 19.34 24.08 19.33 25.27 18.05 26.6 18.04 28.67 19.35 29.25"/><polygon class="cls-2" points="20.83 29.91 20.84 28.18 21.64 28.18 21.64 28.04 20.7 28.04 20.69 29.77 19.59 29.76 19.59 29.9 20.83 29.91"/><polygon class="cls-2" points="18.85 26.96 20.7 25.72 20.71 24.09 20.57 24.09 20.56 25.65 18.77 26.84 18.85 26.96"/><polygon class="cls-2" points="20.3 29.05 20.32 26.79 19.14 27.44 19.21 27.56 20.18 27.02 20.17 28.81 18.84 28.04 18.77 28.16 20.3 29.05"/><polygon class="cls-2" points="20.84 27.39 20.85 26.32 21.72 26.06 21.73 24.09 21.59 24.09 21.58 25.96 20.71 26.22 20.71 27.39 20.84 27.39"/><polygon class="cls-2" points="24.25 26.09 24.56 24.49 24.43 24.46 24.14 25.95 23.41 25.95 23.42 24.1 23.28 24.1 23.27 26.09 24.25 26.09"/><polygon class="cls-2" points="22.09 27.58 22.1 26.72 23.34 26.73 23.34 26.59 22.7 26.58 22.71 24.1 22.57 24.09 22.56 26.58 21.96 26.58 21.95 27.45 21.21 27.44 21.21 27.58 22.09 27.58"/><polygon class="cls-2" points="20.71 40.61 20.71 40.47 20.03 40.47 20.04 39.44 19.08 38.59 19.1 35.51 17.38 35.5 17.38 35.64 18.96 35.65 18.94 38.65 19.9 39.51 19.89 40.61 20.71 40.61"/><polygon class="cls-2" points="20.52 38.09 20.61 37.99 20.05 37.47 20.06 35.59 19.92 35.59 19.91 37.53 20.52 38.09"/><polygon class="cls-2" points="18.39 38.98 18.4 36.55 18.26 36.55 18.25 38.84 17.43 38.83 17.44 36.55 17.3 36.54 17.29 38.97 18.39 38.98"/><polygon class="cls-2" points="19.09 43.05 19.1 40.53 18.96 40.53 18.95 42.91 18.1 42.91 18.07 39.91 19.03 39.91 19.03 39.77 17.93 39.77 17.96 43.05 19.09 43.05"/><polygon class="cls-2" points="20.59 47.39 20.6 44.91 21.62 44.65 21.63 42.47 20.61 41.16 20.5 41.25 21.49 42.52 21.48 44.54 20.46 44.8 20.45 47.39 20.59 47.39"/><polygon class="cls-2" points="23.86 48.78 23.89 43.89 22.48 42.02 22.47 44.83 21.48 45.41 21.47 47.39 21.61 47.39 21.61 45.49 22.61 44.91 22.62 42.44 23.75 43.94 23.73 48.64 22.74 48.63 22.74 48.77 23.86 48.78"/><polygon class="cls-2" points="23.29 48.14 23.31 44.65 22.46 45.86 22.46 46.94 22.59 46.94 22.6 45.9 23.17 45.09 23.16 48 22.52 47.99 22.52 48.13 23.29 48.14"/><polygon class="cls-2" points="20.76 44.21 20.76 42.98 20.02 41.39 19.89 41.45 20.63 43.01 20.62 44.07 19.72 44.06 20.02 43.01 19.88 42.97 19.54 44.2 20.76 44.21"/><polygon class="cls-2" points="20 46.93 20.01 44.78 18.64 44.78 18.64 45.43 18.78 45.43 18.78 44.92 19.87 44.92 19.86 46.93 20 46.93"/><polygon class="cls-2" points="16.84 49.55 17.86 46.69 19.49 46.78 19.48 45.9 19.37 45.82 19.35 46.59 17.74 46.62 17.73 46.63 16.71 49.5 16.84 49.55"/><polygon class="cls-2" points="17.25 46.09 18.35 44.59 18.23 44.51 17.39 45.66 17.4 43.84 19.01 43.85 19.01 43.71 17.27 43.7 17.25 46.09"/><polygon class="cls-2" points="17.45 34.16 17.46 32.39 18.3 32.4 18.31 30.95 16.25 29.98 16.26 29.02 16.95 28.98 16.97 25.5 17.76 24.1 17.64 24.04 16.83 25.46 16.83 25.48 16.81 28.85 16.12 28.88 16.11 30.07 18.17 31.04 18.16 32.26 17.33 32.25 17.32 34.16 17.45 34.16"/><polygon class="cls-2" points="15.77 50.8 15.78 48.7 16.48 48.06 16.48 48.03 16.5 42.71 15.44 42.39 15.4 42.53 16.36 42.81 16.34 48 15.64 48.63 15.63 50.8 15.77 50.8"/><polygon class="cls-2" points="16.51 41.85 16.52 40.29 15.37 40.29 15.36 41.85 15.5 41.85 15.51 40.43 16.38 40.43 16.37 41.85 16.51 41.85"/><polygon class="cls-2" points="14.91 51.87 15.04 51.85 14.66 49.52 15.47 47.83 15.47 47.81 15.49 43.5 15.35 43.5 15.33 47.8 14.52 49.5 14.52 49.52 14.91 51.87"/><polygon class="cls-2" points="6.56 31.8 7.26 31.01 11.4 31.03 12.17 30.57 12.1 30.45 11.36 30.89 7.2 30.87 6.5 31.66 2.54 31.62 2.54 31.76 6.56 31.8"/><polygon class="cls-2" points="13.19 32.08 13.74 31.48 13.75 29.09 10.63 29.08 10.63 29.93 6.88 29.91 6.02 31.03 3.29 30.85 3.28 30.99 6.09 31.18 6.95 30.05 10.77 30.07 10.77 29.22 13.61 29.23 13.6 31.43 13.08 31.99 13.19 32.08"/><polygon class="cls-2" points="5.73 30.63 6.13 29.91 4.2 29.89 4.2 30.03 5.89 30.04 5.64 30.49 4.78 30.48 4.78 30.62 5.73 30.63"/><rect class="cls-2" x="7.28" y="26.89" width="0.14" height="4.47" transform="translate(-21.82 36.33) rotate(-89.72)"/><polygon class="cls-2" points="13.72 35.29 13.73 33.55 11.93 31.78 13 31.28 13.01 29.16 12.87 29.16 12.86 31.19 11.69 31.74 13.59 33.61 13.58 35.29 13.72 35.29"/><polygon class="cls-2" points="16.55 34.16 16.56 32.08 17.93 30.88 17.84 30.77 16.42 32.02 16.41 34.16 16.55 34.16"/><polygon class="cls-2" points="15.83 39.68 15.79 37.71 15.65 37.72 15.69 39.54 15.11 39.54 15.13 36.6 16.03 36.61 16.04 34.15 15.9 34.15 15.89 36.47 14.99 36.46 14.97 39.68 15.83 39.68"/><polygon class="cls-2" points="15 33.62 15.85 32.74 15.86 30.89 16.5 30.89 16.5 30.75 15.72 30.75 15.71 32.73 15 33.33 15.18 26.63 16.59 24.1 16.47 24.03 15.04 26.59 15.04 26.61 15 33.62"/><polygon class="cls-2" points="16.26 28.15 16.27 26.35 16.13 26.35 16.12 28.01 15.1 28.01 15.1 28.15 16.26 28.15"/><polygon class="cls-2" points="14.41 36.6 14.43 32.48 14.29 32.48 14.27 36.46 10.95 36.44 9.33 35.21 9.24 35.32 10.9 36.58 14.41 36.6"/><polygon class="cls-2" points="12.71 35.96 12.72 35.83 11.12 35.82 9.58 34.34 6.86 34.25 6.86 33.09 7.71 32.48 7.77 31.78 10.85 31.83 10.85 31.69 7.64 31.64 7.58 32.41 6.72 33.02 6.72 34.39 9.53 34.48 11.06 35.95 12.71 35.96"/><polygon class="cls-2" points="10.97 33.16 11.53 32.51 11.43 32.42 10.92 33 9.77 32.64 7.22 32.68 7.22 32.82 9.75 32.78 10.97 33.16"/><rect class="cls-2" x="9.89" y="30.45" width="0.14" height="6.34" transform="translate(-23.87 42.82) rotate(-88.71)"/><polygon class="cls-2" points="12.79 35.35 12.79 34.28 11.82 34.28 11.82 34.41 12.65 34.42 12.65 35.21 11.51 35.21 10.69 33.54 10.56 33.6 11.42 35.34 12.79 35.35"/><polygon class="cls-2" points="7.75 28.43 9.13 27.11 7.57 27.1 7.57 27.24 8.78 27.25 7.69 28.29 5.54 28.28 5.54 28.42 7.75 28.43"/><polygon class="cls-2" points="8.78 28.62 10.02 27.26 13.76 27.42 13.77 25.44 13.23 24.7 13.12 24.78 13.63 25.48 13.62 27.28 9.96 27.11 8.68 28.53 8.78 28.62"/><rect class="cls-2" x="11.59" y="27.15" width="5.59" height="0.14" transform="translate(-12.91 41.46) rotate(-89.7)"/><polygon class="cls-2" points="10.34 28.91 10.7 28.18 14.38 28.27 14.38 28.13 10.61 28.04 10.21 28.85 10.34 28.91"/><polygon class="cls-2" points="12.81 26.74 13.26 25.65 12.36 25.39 12.32 25.52 13.07 25.74 12.72 26.59 9.34 26.25 9.32 26.39 12.81 26.74"/><path class="cls-2" d="M6.06,34.18V33l-2.52.13v.14l2.37-.13V34L2.33,33.7V32.48c1.41,0,3.49,0,3.63,0a.07.07,0,0,1,0-.07h.14l0,0a22.44,22.44,0,0,0-3.77,0H2.2v1.48Z"/><polygon class="cls-2" points="0.42 41.77 0.45 37.43 1.3 36.58 1.32 33.63 1.18 33.62 1.17 36.52 0.31 37.37 0.29 41.77 0.42 41.77"/><rect class="cls-2" x="-1.52" y="40.63" width="5.46" height="0.14" transform="translate(-39.49 41.7) rotate(-89.7)"/><polygon class="cls-2" points="2.3 39.82 2.31 38.04 4.42 38.02 4.42 37.89 2.17 37.9 2.16 39.69 1.22 39.68 1.22 39.82 2.3 39.82"/><polygon class="cls-2" points="4.2 42.96 4.21 41.72 2.29 41.71 2.3 39.76 2.16 39.75 2.15 41.85 4.07 41.86 4.06 42.96 4.2 42.96"/><polygon class="cls-2" points="4.67 41.2 7.78 41.08 7.79 37.98 7.24 36.94 3.96 36.92 3.98 34.85 2.84 34.84 2.84 34.98 3.84 34.99 3.83 37.06 7.16 37.08 7.66 38.02 7.64 40.94 4.67 41.06 4.67 41.2"/><path class="cls-2" d="M5.29,40.53,6,39.8v0c0-.71,0-2.12,0-2.33l-.14,0c-.05.25,0,2.06,0,2.33l-.66.64h-3v.14Z"/><polygon class="cls-2" points="7.04 40.31 7.05 38.48 5.98 38.48 5.98 38.62 6.91 38.62 6.9 40.31 7.04 40.31"/><rect class="cls-2" x="4.79" y="38.33" width="0.14" height="2.18" transform="translate(-34.58 44.09) rotate(-89.72)"/><rect class="cls-2" x="2.12" y="36.86" width="2.17" height="0.14" transform="translate(-33.74 39.94) rotate(-89.7)"/><rect class="cls-2" x="2.03" y="36.89" width="1.17" height="0.14" transform="translate(-1.69 0.16) rotate(-2.63)"/><polygon class="cls-2" points="8.49 42.2 8.52 36.28 5.53 36.27 4.49 35.19 4.39 35.29 5.47 36.41 8.38 36.42 8.35 42.06 4.85 42.04 4.85 42.18 8.49 42.2"/><polygon class="cls-2" points="10.56 37.08 10.65 36.98 8.09 34.87 4.45 34.58 4.43 34.72 8.03 35.01 10.56 37.08"/><rect class="cls-2" x="7.38" y="34.17" width="0.14" height="2.91" transform="matrix(0, -1, 1, 0, -28.21, 42.91)"/><polygon class="cls-2" points="8.95 40.32 8.96 38.42 10.63 38.43 11.49 37.53 14.17 37.54 14.17 37.4 11.43 37.39 10.57 38.29 8.83 38.28 8.81 40.32 8.95 40.32"/><polygon class="cls-2" points="14.39 38.8 14.4 38.01 14.26 38.01 14.26 38.65 11.19 38.56 11.18 38.7 14.39 38.8"/><polygon class="cls-2" points="9.79 41.44 9.8 39.52 14.16 39.54 14.16 39.4 9.66 39.38 9.65 41.3 8.88 41.29 8.88 41.43 9.79 41.44"/><polygon class="cls-2" points="14.7 41.91 14.7 41.11 12.08 40.96 12.07 41.1 14.56 41.24 14.56 41.77 10.65 41.75 10.66 40.4 14.64 40.42 14.64 40.28 10.52 40.26 10.51 41.89 14.7 41.91"/><polygon class="cls-2" points="13.64 48.4 14.67 47.38 14.7 42.46 14.56 42.45 14.53 47.33 13.55 48.3 13.64 48.4"/><polygon class="cls-2" points="13.64 51.17 13.64 50.06 14.34 48.69 14.21 48.63 13.51 50.02 13.5 51.03 7.66 51.01 7.66 51.14 13.64 51.17"/><polygon class="cls-2" points="7.31 50.38 7.45 50.38 7.31 47.92 3.15 47.55 3.14 47.69 7.18 48.05 7.31 50.38"/><polygon class="cls-2" points="5.96 50.43 6.77 49.88 6.78 48.55 4.05 48.54 4.05 48.67 6.64 48.69 6.63 49.81 5.88 50.31 5.96 50.43"/><rect class="cls-2" x="5.3" y="48.91" width="0.14" height="1.11" transform="translate(-44.12 54.59) rotate(-89.72)"/><polygon class="cls-2" points="1.54 44.55 3.29 43.85 3.3 42.4 3.16 42.4 3.15 43.76 1.49 44.43 1.54 44.55"/><rect class="cls-2" x="2.62" y="42.69" width="0.14" height="0.96" transform="translate(-40.49 45.65) rotate(-89.72)"/><polygon class="cls-2" points="2.02 46.36 2.85 45.81 2.86 44.79 5.53 43.5 5.53 42.7 5.39 42.7 5.39 43.42 2.72 44.71 2.71 45.74 1.95 46.25 2.02 46.36"/><polygon class="cls-2" points="6.47 44.77 6.47 43.26 9.57 43.27 9.78 42.15 9.65 42.12 9.45 43.13 6.34 43.12 6.33 44.77 6.47 44.77"/><polygon class="cls-2" points="11.06 44.16 11.07 42.73 10.93 42.73 10.93 44.02 7.41 44 7.41 44.14 11.06 44.16"/><polygon class="cls-2" points="13.12 48.04 13.88 46.38 13.88 46.36 13.69 42.38 11.78 42.37 11.78 42.51 13.56 42.52 13.74 46.35 12.99 47.98 13.12 48.04"/><polygon class="cls-2" points="12.76 50.48 12.76 50.34 9.28 50.32 8.09 49.47 8.11 46.8 5.91 46.79 5.91 46.93 7.97 46.94 7.96 49.54 9.24 50.46 12.76 50.48"/><polygon class="cls-2" points="4.83 46.92 4.83 46.78 2.98 46.77 4.13 45.84 4.14 45.03 5.48 44.44 5.43 44.31 4 44.94 3.99 45.78 2.58 46.91 4.83 46.92"/><polygon class="cls-2" points="7.2 45.7 7.46 44.86 9.9 44.87 9.9 44.73 7.36 44.72 7.1 45.56 5.02 45.55 5.02 45.68 7.2 45.7"/><polygon class="cls-2" points="8.91 49.22 8.92 46.27 7.68 46.26 7.68 46.4 8.78 46.41 8.77 49.22 8.91 49.22"/><rect class="cls-2" x="10.74" y="46.69" width="0.14" height="3.99" transform="translate(-39.02 50.62) rotate(-79.71)"/><polygon class="cls-2" points="12.65 45.46 12.67 43.48 12.53 43.48 12.52 45.32 8.27 45.3 8.27 45.44 12.65 45.46"/><rect class="cls-2" x="8.37" y="46.45" width="2.25" height="0.14" transform="translate(-37.08 55.77) rotate(-89.7)"/><rect class="cls-2" x="10.55" y="46.26" width="0.14" height="2.69" transform="translate(-35.1 30.61) rotate(-57.04)"/><rect class="cls-2" x="11.21" y="44.57" width="0.14" height="3.57" transform="translate(-35.13 57.4) rotate(-89.72)"/><polygon class="cls-2" points="12.3 47.77 12.3 46.41 12.16 46.41 12.16 47.46 11.49 46.84 11.4 46.94 12.3 47.77"/><polygon class="cls-2" points="12.25 49.94 11.14 49.17 11.06 49.28 11.81 49.8 9.94 49.79 9.95 48.51 9.81 48.51 9.8 49.93 12.25 49.94"/><polygon class="cls-2" points="12.74 54.46 12.76 51.92 14.26 51.92 14.26 51.78 12.62 51.78 12.6 54.45 12.74 54.46"/><polygon class="cls-2" points="12.07 55.68 12.09 52.7 11.18 52.38 11.19 51.09 11.05 51.09 11.04 52.47 11.95 52.8 11.93 55.68 12.07 55.68"/><polygon class="cls-2" points="9.5 58.86 9.53 53.17 10.59 52.4 10.67 51.09 10.53 51.09 10.46 52.33 9.39 53.1 9.36 58.86 9.5 58.86"/><polygon class="cls-2" points="8.81 57.75 8.82 57.62 8.41 57.61 8.44 52.91 9.37 51.88 9.27 51.78 8.3 52.86 8.27 57.75 8.81 57.75"/><polygon class="cls-2" points="10.3 56.91 10.92 56.92 11.43 54.8 11.3 54.74 10.79 56.77 10.47 56.8 10.45 54.02 10.31 54.02 10.3 56.91"/><rect class="cls-2" x="7.55" y="51.43" width="0.14" height="0.79" transform="translate(-44.24 59.19) rotate(-89.72)"/><path d="M34.1,30.62a.31.31,0,1,0,.3-.31A.31.31,0,0,0,34.1,30.62Z"/><path d="M31.68,37a.31.31,0,0,0,.61,0,.3.3,0,0,0-.3-.31A.31.31,0,0,0,31.68,37Z"/><path d="M33.43,36.88a.31.31,0,0,0,.62,0,.3.3,0,0,0-.31-.3A.3.3,0,0,0,33.43,36.88Z"/><path d="M33.27,35.66a.31.31,0,0,0,.61,0,.3.3,0,0,0-.3-.31A.31.31,0,0,0,33.27,35.66Z"/><path d="M34.38,34.46a.31.31,0,0,0,.31.31.3.3,0,0,0,.31-.3.31.31,0,0,0-.31-.31A.3.3,0,0,0,34.38,34.46Z"/><path d="M33.58,34.46a.31.31,0,0,0,.31.31.3.3,0,0,0,.3-.31.3.3,0,0,0-.3-.31A.31.31,0,0,0,33.58,34.46Z"/><path d="M35.47,31.89a.3.3,0,0,0,.31.3.29.29,0,0,0,.3-.3.3.3,0,0,0-.3-.31A.31.31,0,0,0,35.47,31.89Z"/><path d="M36.64,32.85a.3.3,0,0,0,.3.31.31.31,0,1,0-.3-.31Z"/><path d="M37.15,33.52a.31.31,0,1,0,.31-.31A.31.31,0,0,0,37.15,33.52Z"/><path d="M36.35,36.31a.31.31,0,0,0,.62,0,.32.32,0,0,0-.31-.31A.31.31,0,0,0,36.35,36.31Z"/><path d="M32.75,37.59a.31.31,0,0,0,.62,0,.31.31,0,0,0-.62,0Z"/><path d="M32.5,39.27a.31.31,0,0,0,.31.31.3.3,0,0,0,.31-.3.31.31,0,0,0-.31-.31A.3.3,0,0,0,32.5,39.27Z"/><path d="M34.26,39.92a.3.3,0,0,0,.3.31.31.31,0,0,0,.31-.31.3.3,0,0,0-.3-.3A.3.3,0,0,0,34.26,39.92Z"/><path d="M34.25,41.71a.31.31,0,0,0,.61,0,.3.3,0,0,0-.3-.31A.31.31,0,0,0,34.25,41.71Z"/><path d="M31.75,45.64a.31.31,0,0,0,.31.3.31.31,0,0,0,0-.61A.31.31,0,0,0,31.75,45.64Z"/><path d="M30.66,44.64A.31.31,0,0,0,31,45a.3.3,0,0,0,.31-.3.31.31,0,0,0-.31-.31A.3.3,0,0,0,30.66,44.64Z"/><path d="M29.66,42.27A.31.31,0,1,0,30,42,.31.31,0,0,0,29.66,42.27Z"/><path d="M30.73,40.44a.31.31,0,0,0,.61,0,.3.3,0,0,0-.3-.31A.31.31,0,0,0,30.73,40.44Z"/><path d="M34.24,43.12a.31.31,0,0,0,.31.31.3.3,0,0,0,.3-.31.3.3,0,0,0-.3-.31A.31.31,0,0,0,34.24,43.12Z"/><path d="M35.67,44a.32.32,0,0,0,.31.31.31.31,0,1,0-.31-.31Z"/><path d="M36.81,42.3a.31.31,0,0,0,.31.31.3.3,0,0,0,.31-.3.31.31,0,0,0-.62,0Z"/><path d="M38.51,41.51a.31.31,0,0,0,.3.31.31.31,0,0,0,0-.61A.31.31,0,0,0,38.51,41.51Z"/><path d="M36.33,39.93a.31.31,0,0,0,.31.31.3.3,0,0,0,.31-.3.31.31,0,0,0-.31-.31A.3.3,0,0,0,36.33,39.93Z"/><path d="M38.52,40a.3.3,0,0,0,.3.31.31.31,0,0,0,.31-.31.3.3,0,0,0-.3-.31A.31.31,0,0,0,38.52,40Z"/><path d="M38.63,39a.3.3,0,0,0,.3.31.31.31,0,0,0,.31-.31.3.3,0,0,0-.3-.31A.31.31,0,0,0,38.63,39Z"/><path d="M30.43,39.26a.3.3,0,0,0,.3.31.3.3,0,0,0,.31-.3.31.31,0,0,0-.31-.31A.29.29,0,0,0,30.43,39.26Z"/><path d="M28.46,37.56a.31.31,0,0,0,.31.31.3.3,0,0,0,.31-.3.31.31,0,0,0-.31-.31A.3.3,0,0,0,28.46,37.56Z"/><path d="M26.76,36.69a.32.32,0,0,0,.31.31.31.31,0,1,0-.31-.31Z"/><path d="M27.62,35.63a.32.32,0,0,0,.31.31.31.31,0,1,0-.31-.31Z"/><path d="M26.14,33.46a.31.31,0,0,0,.31.31.3.3,0,0,0,.31-.3.31.31,0,0,0-.31-.31A.3.3,0,0,0,26.14,33.46Z"/><path d="M27.54,30.27a.31.31,0,0,0,.31.31.3.3,0,0,0,.31-.3.31.31,0,0,0-.62,0Z"/><path d="M24.78,29a.31.31,0,0,0,.31.31.31.31,0,0,0,0-.61A.3.3,0,0,0,24.78,29Z"/><path d="M30.49,27.44a.3.3,0,0,0,.3.31.31.31,0,0,0,.31-.31.3.3,0,0,0-.3-.31A.31.31,0,0,0,30.49,27.44Z"/><path d="M31.76,28.43a.31.31,0,0,0,.31.31.31.31,0,0,0,0-.62A.31.31,0,0,0,31.76,28.43Z"/><path d="M30.47,30.1a.31.31,0,1,0,.31-.3A.3.3,0,0,0,30.47,30.1Z"/><path d="M31.25,34.79a.31.31,0,1,0,.31-.3A.3.3,0,0,0,31.25,34.79Z"/><path d="M31.75,29.63a.31.31,0,1,0,.31-.31A.31.31,0,0,0,31.75,29.63Z"/><path d="M26.17,27.86a.31.31,0,1,0,.31-.3A.3.3,0,0,0,26.17,27.86Z"/><path d="M24.09,33.88a.31.31,0,1,0,.61,0,.3.3,0,0,0-.3-.31A.31.31,0,0,0,24.09,33.88Z"/><path d="M24.37,36A.31.31,0,0,0,25,36a.31.31,0,0,0-.62,0Z"/><path d="M25.22,36.93a.3.3,0,0,0,.3.31.31.31,0,0,0,.31-.31.31.31,0,0,0-.61,0Z"/><path d="M28.51,39.07a.31.31,0,0,0,.62,0,.31.31,0,0,0-.62,0Z"/><path d="M26.1,40.57a.31.31,0,1,0,.62,0,.31.31,0,0,0-.62,0Z"/><path d="M24.89,41.35a.3.3,0,0,0,.3.31.31.31,0,0,0,.31-.31.3.3,0,0,0-.3-.31A.31.31,0,0,0,24.89,41.35Z"/><path d="M26.73,42.23a.3.3,0,0,0,.31.3.3.3,0,0,0,.31-.3.31.31,0,0,0-.31-.31A.32.32,0,0,0,26.73,42.23Z"/><path d="M27.48,41.76a.31.31,0,0,0,.31.31.3.3,0,0,0,.31-.3.31.31,0,0,0-.62,0Z"/><path d="M28.92,46.5a.31.31,0,1,0,.31-.31A.31.31,0,0,0,28.92,46.5Z"/><path d="M27.88,44.94a.3.3,0,0,0,.31.3.29.29,0,0,0,.3-.3.3.3,0,0,0-.3-.31A.31.31,0,0,0,27.88,44.94Z"/><path d="M28.19,45.91a.31.31,0,1,0,.31-.31A.31.31,0,0,0,28.19,45.91Z"/><path d="M28.11,47.1a.31.31,0,1,0,.61,0,.3.3,0,0,0-.3-.31A.31.31,0,0,0,28.11,47.1Z"/><path d="M25.77,43.93a.31.31,0,1,0,.31-.31A.31.31,0,0,0,25.77,43.93Z"/><path d="M24.68,47.86a.31.31,0,1,0,.62,0,.3.3,0,0,0-.31-.3A.3.3,0,0,0,24.68,47.86Z"/><path d="M22.17,47.07a.3.3,0,0,0,.3.3.3.3,0,0,0,.31-.3.3.3,0,0,0-.3-.31A.31.31,0,0,0,22.17,47.07Z"/><path d="M22.31,48.74a.3.3,0,0,0,.3.31.31.31,0,0,0,.31-.31.32.32,0,0,0-.31-.31A.31.31,0,0,0,22.31,48.74Z"/><path d="M21.18,47.66a.31.31,0,0,0,.3.31.31.31,0,1,0-.3-.31Z"/><path d="M20.19,41.21a.32.32,0,0,0,.31.31.31.31,0,1,0,0-.62A.32.32,0,0,0,20.19,41.21Z"/><path d="M23.12,40.56a.3.3,0,0,0,.31.3.3.3,0,0,0,.31-.3.31.31,0,0,0-.62,0Z"/><path d="M20.36,38.9a.31.31,0,1,0,.31-.3A.3.3,0,0,0,20.36,38.9Z"/><path d="M19.63,35.62a.31.31,0,0,0,.31.31.3.3,0,0,0,.31-.3.31.31,0,0,0-.31-.31A.3.3,0,0,0,19.63,35.62Z"/><path d="M20.94,35.28a.31.31,0,0,0,.61,0,.31.31,0,0,0-.3-.31A.3.3,0,0,0,20.94,35.28Z"/><path d="M21.54,37a.3.3,0,0,0,.31.3.3.3,0,0,0,.31-.3.31.31,0,0,0-.62,0Z"/><path d="M21.72,33.28A.31.31,0,1,0,22,33,.31.31,0,0,0,21.72,33.28Z"/><path d="M19.23,30.63a.31.31,0,1,0,.31-.31A.31.31,0,0,0,19.23,30.63Z"/><path d="M20.87,32.34a.31.31,0,0,0,.31.31.3.3,0,0,0,.31-.3.31.31,0,0,0-.62,0Z"/><path d="M22.94,35.34a.31.31,0,0,0,.61,0,.31.31,0,1,0-.61,0Z"/><path d="M23.81,31.82a.31.31,0,1,0,.31-.3A.31.31,0,0,0,23.81,31.82Z"/><path d="M22.49,29.85a.3.3,0,0,0,.3.31.31.31,0,1,0,0-.62A.3.3,0,0,0,22.49,29.85Z"/><path d="M26.49,25.07a.31.31,0,0,0,.31.31.3.3,0,0,0,.31-.3.31.31,0,0,0-.31-.31A.3.3,0,0,0,26.49,25.07Z"/><path d="M23,24.1a.31.31,0,1,0,.31-.31A.32.32,0,0,0,23,24.1Z"/><path d="M21.3,24.09a.31.31,0,1,0,.31-.31A.31.31,0,0,0,21.3,24.09Z"/><path d="M19.05,24.08a.3.3,0,0,0,.3.31.31.31,0,1,0-.3-.31Z"/><path d="M15.85,26.35a.3.3,0,0,0,.3.31.31.31,0,0,0,.31-.31.3.3,0,0,0-.31-.3A.29.29,0,0,0,15.85,26.35Z"/><path d="M14,24.42a.31.31,0,0,0,.31.31.3.3,0,0,0,.31-.3.31.31,0,0,0-.62,0Z"/><path d="M14,30a.29.29,0,0,0,.3.3.3.3,0,0,0,.31-.3.31.31,0,0,0-.31-.31A.3.3,0,0,0,14,30Z"/><path d="M16.14,30.92a.31.31,0,0,0,.62,0,.32.32,0,0,0-.31-.31A.31.31,0,0,0,16.14,30.92Z"/><path d="M14,32.61a.31.31,0,0,0,.31.31.3.3,0,0,0,.31-.3.31.31,0,0,0-.31-.31A.3.3,0,0,0,14,32.61Z"/><path d="M15.4,37.8a.31.31,0,0,0,.31.31.31.31,0,0,0,0-.61A.3.3,0,0,0,15.4,37.8Z"/><path d="M14,38.07a.31.31,0,1,0,.31-.3A.3.3,0,0,0,14,38.07Z"/><path d="M16.08,41.92a.31.31,0,1,0,.31-.31A.32.32,0,0,0,16.08,41.92Z"/><path d="M15.07,41.91a.31.31,0,0,0,.31.31.3.3,0,0,0,.31-.3.31.31,0,0,0-.31-.31A.3.3,0,0,0,15.07,41.91Z"/><path d="M14.28,40.43a.31.31,0,0,0,.31.31.31.31,0,1,0,0-.62A.31.31,0,0,0,14.28,40.43Z"/><path d="M13.79,39.51a.3.3,0,0,0,.3.31.31.31,0,1,0-.3-.31Z"/><path d="M12.41,35.85a.31.31,0,0,0,.31.31.3.3,0,0,0,.31-.3.31.31,0,0,0-.31-.31A.3.3,0,0,0,12.41,35.85Z"/><path d="M11.55,34.38a.31.31,0,0,0,.31.31.31.31,0,1,0-.31-.31Z"/><path d="M11.17,32.46a.3.3,0,0,0,.3.31.31.31,0,0,0,.31-.31.31.31,0,0,0-.61,0Z"/><path d="M9.92,28.88a.31.31,0,1,0,.62,0,.31.31,0,0,0-.62,0Z"/><path d="M9,26.32a.31.31,0,0,0,.61,0,.3.3,0,0,0-.3-.31A.31.31,0,0,0,9,26.32Z"/><path d="M11.9,25.31a.3.3,0,0,0,.31.3.3.3,0,0,0,.31-.3.31.31,0,0,0-.62,0Z"/><path d="M11.78,30.5a.3.3,0,0,0,.3.31.31.31,0,0,0,.31-.31.32.32,0,0,0-.31-.31A.31.31,0,0,0,11.78,30.5Z"/><path d="M12.78,32.07a.31.31,0,0,0,.31.31.31.31,0,0,0,0-.61A.3.3,0,0,0,12.78,32.07Z"/><path d="M10.54,31.76a.31.31,0,0,0,.61,0,.3.3,0,0,0-.3-.31A.31.31,0,0,0,10.54,31.76Z"/><path d="M4.44,30.5a.3.3,0,0,0,.3.31.31.31,0,0,0,.31-.31.3.3,0,0,0-.3-.31A.31.31,0,0,0,4.44,30.5Z"/><path d="M5.13,28.37a.31.31,0,1,0,.61,0,.3.3,0,0,0-.3-.31A.31.31,0,0,0,5.13,28.37Z"/><path d="M8.59,28.6a.31.31,0,0,0,.31.31.3.3,0,0,0,.3-.3.3.3,0,0,0-.3-.31A.3.3,0,0,0,8.59,28.6Z"/><path d="M7.21,27.18a.31.31,0,0,0,.31.31.3.3,0,0,0,.31-.3.31.31,0,0,0-.31-.31A.3.3,0,0,0,7.21,27.18Z"/><path d="M5.66,32.34A.31.31,0,1,0,6,32,.31.31,0,0,0,5.66,32.34Z"/><path d="M3.15,33.18a.3.3,0,0,0,.3.31.31.31,0,1,0,0-.61A.3.3,0,0,0,3.15,33.18Z"/><path d="M4.08,34.66a.31.31,0,1,0,.31-.31A.32.32,0,0,0,4.08,34.66Z"/><path d="M8.52,41.36a.31.31,0,1,0,.31-.31A.31.31,0,0,0,8.52,41.36Z"/><path d="M9.25,42.19a.31.31,0,0,0,.62,0,.32.32,0,0,0-.31-.31A.31.31,0,0,0,9.25,42.19Z"/><path d="M11.72,41a.31.31,0,0,0,.31.31.32.32,0,0,0,.31-.31.31.31,0,0,0-.62,0Z"/><path d="M11,38.71a.31.31,0,0,0,.31.31.32.32,0,0,0,.31-.31.31.31,0,0,0-.62,0Z"/><path d="M10.32,37.16a.3.3,0,0,0,.3.31.31.31,0,0,0,.31-.31.3.3,0,0,0-.3-.3A.3.3,0,0,0,10.32,37.16Z"/><path d="M5.64,35.62A.31.31,0,1,0,6,35.31.31.31,0,0,0,5.64,35.62Z"/><path d="M6.61,40.39a.31.31,0,0,0,.62,0,.32.32,0,0,0-.31-.31A.31.31,0,0,0,6.61,40.39Z"/><path d="M3.39,39.41a.31.31,0,0,0,.31.31.3.3,0,0,0,.31-.3.31.31,0,0,0-.62,0Z"/><path d="M1.58,37a.31.31,0,0,0,.31.31A.3.3,0,0,0,2.2,37a.31.31,0,0,0-.31-.31A.3.3,0,0,0,1.58,37Z"/><path d="M.89,33.67A.31.31,0,0,0,1.2,34a.3.3,0,0,0,.31-.3.31.31,0,0,0-.62,0Z"/><path d="M.84,43.36a.3.3,0,0,0,.31.3.3.3,0,0,0,.31-.3.31.31,0,1,0-.62,0Z"/><path d="M5.29,44.38a.31.31,0,0,0,.31.31.32.32,0,0,0,.31-.31.31.31,0,0,0-.62,0Z"/><path d="M5.11,42.87a.3.3,0,0,0,.3.31.31.31,0,0,0,.31-.31.31.31,0,0,0-.61,0Z"/><path d="M9.55,44.8a.3.3,0,0,0,.3.31.31.31,0,0,0,.31-.31.3.3,0,0,0-.3-.31A.31.31,0,0,0,9.55,44.8Z"/><path d="M12.24,43.55a.31.31,0,0,0,.31.31.32.32,0,0,0,.31-.31.31.31,0,1,0-.62,0Z"/><path d="M11.05,46.88a.31.31,0,0,0,.31.31.3.3,0,0,0,.31-.3.31.31,0,0,0-.31-.31A.3.3,0,0,0,11.05,46.88Z"/><path d="M12.7,48a.3.3,0,0,0,.3.31.31.31,0,0,0,.31-.31.31.31,0,0,0-.61,0Z"/><path d="M15.06,43.51a.31.31,0,1,0,.31-.31A.31.31,0,0,0,15.06,43.51Z"/><path d="M10.77,42.73a.3.3,0,0,0,.3.31.31.31,0,1,0-.3-.31Z"/><path d="M4.67,45.68A.3.3,0,0,0,5,46a.31.31,0,1,0-.3-.31Z"/><path d="M5.56,46.86a.31.31,0,0,0,.61,0,.3.3,0,0,0-.3-.31A.31.31,0,0,0,5.56,46.86Z"/><path d="M8.48,49.21a.31.31,0,0,0,.31.31.3.3,0,0,0,.31-.3.31.31,0,0,0-.31-.31A.3.3,0,0,0,8.48,49.21Z"/><path d="M2.79,47.65A.31.31,0,0,0,3.1,48a.3.3,0,0,0,.31-.3.31.31,0,0,0-.31-.31A.3.3,0,0,0,2.79,47.65Z"/><path d="M1.63,46.3a.31.31,0,1,0,.31-.3A.3.3,0,0,0,1.63,46.3Z"/><path d="M2,43.16a.31.31,0,1,0,.31-.3A.3.3,0,0,0,2,43.16Z"/><path d="M0,41.77a.32.32,0,0,0,.31.31.3.3,0,0,0,.3-.31.3.3,0,0,0-.3-.31A.31.31,0,0,0,0,41.77Z"/><path d="M3.77,43a.31.31,0,1,0,.31-.31A.32.32,0,0,0,3.77,43Z"/><path d="M4.36,41.16a.3.3,0,0,0,.3.31A.31.31,0,0,0,5,41.16a.3.3,0,0,0-.3-.31A.31.31,0,0,0,4.36,41.16Z"/><path d="M6.91,44.07a.32.32,0,0,0,.31.31.31.31,0,1,0-.31-.31Z"/><path d="M12.51,50.41a.31.31,0,1,0,.31-.31A.31.31,0,0,0,12.51,50.41Z"/><path d="M10.77,49.23a.32.32,0,0,0,.31.31.31.31,0,1,0-.31-.31Z"/><path d="M9.13,47.78a.3.3,0,0,0,.3.31.31.31,0,1,0-.3-.31Z"/><path d="M13.92,48.76a.3.3,0,0,0,.3.31.31.31,0,1,0-.3-.31Z"/><path d="M13.9,51.85a.31.31,0,0,0,.31.31.3.3,0,0,0,.31-.3.31.31,0,0,0-.31-.31A.3.3,0,0,0,13.9,51.85Z"/><path d="M11,54.77a.31.31,0,0,0,.62,0,.31.31,0,1,0-.62,0Z"/><path d="M9.07,58.86a.31.31,0,1,0,.31-.31A.31.31,0,0,0,9.07,58.86Z"/><path d="M8.46,57.68a.31.31,0,0,0,.31.31.31.31,0,0,0,0-.61A.3.3,0,0,0,8.46,57.68Z"/><path d="M15.33,50.79a.31.31,0,0,0,.31.31.3.3,0,0,0,.31-.3.31.31,0,0,0-.62,0Z"/><path d="M14.27,42.61a.31.31,0,0,0,.31.31.3.3,0,0,0,.3-.31.29.29,0,0,0-.3-.3A.3.3,0,0,0,14.27,42.61Z"/><path d="M8.55,40.4a.31.31,0,0,0,.31.31.31.31,0,0,0,0-.62A.31.31,0,0,0,8.55,40.4Z"/><path d="M5.63,37.66a.31.31,0,1,0,.31-.3A.3.3,0,0,0,5.63,37.66Z"/><path d="M4.11,38a.3.3,0,0,0,.3.31.31.31,0,1,0-.3-.31Z"/><path d="M.87,37.94a.32.32,0,0,0,.31.31.31.31,0,1,0-.31-.31Z"/><path d="M2.27,35a.32.32,0,0,0,.31.31A.31.31,0,1,0,2.27,35Z"/><path d="M2.18,31.71a.31.31,0,0,0,.31.31.3.3,0,0,0,.31-.3.31.31,0,0,0-.31-.31A.3.3,0,0,0,2.18,31.71Z"/><path d="M8.89,35.22a.31.31,0,1,0,.62,0,.3.3,0,0,0-.31-.3A.3.3,0,0,0,8.89,35.22Z"/><path d="M15.62,34.15a.31.31,0,1,0,.31-.3A.3.3,0,0,0,15.62,34.15Z"/><path d="M20.16,47.38a.31.31,0,0,0,.31.31.3.3,0,0,0,.31-.3.31.31,0,0,0-.31-.31A.3.3,0,0,0,20.16,47.38Z"/><path d="M24.34,42.49a.3.3,0,0,0,.3.31.31.31,0,0,0,.31-.31.31.31,0,0,0-.61,0Z"/><path d="M28.48,33.59a.31.31,0,0,0,.31.31.3.3,0,0,0,.31-.3.31.31,0,0,0-.31-.31A.3.3,0,0,0,28.48,33.59Z"/><path d="M31.66,39.25a.31.31,0,0,0,.31.31.3.3,0,0,0,.31-.3.31.31,0,0,0-.62,0Z"/><path d="M32.23,31.87a.31.31,0,1,0,.31-.31A.31.31,0,0,0,32.23,31.87Z"/><path d="M38.53,36.91a.31.31,0,1,0,.31-.31A.31.31,0,0,0,38.53,36.91Z"/><path d="M35.12,42.26a.31.31,0,1,0,.31-.31A.31.31,0,0,0,35.12,42.26Z"/><path d="M16.18,24.13a.3.3,0,0,0,.3.31.31.31,0,0,0,.31-.31.3.3,0,0,0-.3-.31A.31.31,0,0,0,16.18,24.13Z"/><path d="M23,26.65a.31.31,0,1,0,.31-.3A.3.3,0,0,0,23,26.65Z"/><path d="M18.45,26.94a.3.3,0,0,0,.31.3.3.3,0,0,0,.31-.3.31.31,0,0,0-.62,0Z"/><path d="M12.77,33.7a.31.31,0,1,0,.62,0,.32.32,0,0,0-.31-.31A.31.31,0,0,0,12.77,33.7Z"/><path d="M1,44.63a.3.3,0,0,0,.3.31.31.31,0,0,0,.31-.31.3.3,0,0,0-.3-.31A.31.31,0,0,0,1,44.63Z"/><path d="M3.75,48.71a.3.3,0,0,0,.3.31.31.31,0,1,0,0-.62A.3.3,0,0,0,3.75,48.71Z"/><path d="M7.4,51.07a.31.31,0,0,0,.61,0,.31.31,0,0,0-.31-.31A.3.3,0,0,0,7.4,51.07Z"/><path d="M12.71,46.36a.3.3,0,0,0,.3.31.31.31,0,0,0,.31-.31.32.32,0,0,0-.31-.31A.3.3,0,0,0,12.71,46.36Z"/><path d="M7.21,46.33a.3.3,0,0,0,.3.31.31.31,0,0,0,.31-.31.31.31,0,0,0-.61,0Z"/><path d="M18.37,43.75a.3.3,0,0,0,.3.31.3.3,0,0,0,.31-.3.31.31,0,0,0-.31-.31A.29.29,0,0,0,18.37,43.75Z"/><path d="M14.71,51.86a.32.32,0,0,0,.31.31.31.31,0,1,0-.31-.31Z"/><path d="M12.49,54.45a.31.31,0,0,0,.31.31.3.3,0,0,0,.31-.3.31.31,0,0,0-.62,0Z"/><path d="M11.64,55.68A.3.3,0,0,0,12,56a.3.3,0,0,0,.31-.3.31.31,0,0,0-.31-.31A.32.32,0,0,0,11.64,55.68Z"/><path d="M10,54a.3.3,0,0,0,.3.3.3.3,0,0,0,.31-.3.3.3,0,0,0-.3-.31A.31.31,0,0,0,10,54Z"/><path d="M8.9,51.83a.3.3,0,0,0,.3.31.31.31,0,1,0,0-.62A.3.3,0,0,0,8.9,51.83Z"/><path d="M6.69,51.82a.31.31,0,0,0,.31.3.3.3,0,0,0,.31-.3.31.31,0,1,0-.62,0Z"/><path d="M5.57,49.49a.31.31,0,0,0,.31.31.3.3,0,0,0,.31-.3.31.31,0,0,0-.31-.31A.3.3,0,0,0,5.57,49.49Z"/><path d="M7,50.38a.3.3,0,0,0,.3.31.31.31,0,0,0,.31-.31.3.3,0,0,0-.3-.31A.31.31,0,0,0,7,50.38Z"/><path d="M12.52,49.06a.31.31,0,1,0,.61,0,.3.3,0,0,0-.3-.31A.31.31,0,0,0,12.52,49.06Z"/><path d="M17.39,24.07a.31.31,0,0,0,.31.31.3.3,0,0,0,.3-.31.3.3,0,0,0-.3-.31A.31.31,0,0,0,17.39,24.07Z"/><path d="M21.2,28.14a.31.31,0,0,0,.31.31.3.3,0,0,0,.31-.3.31.31,0,0,0-.31-.31A.3.3,0,0,0,21.2,28.14Z"/><path d="M18.45,28.13a.3.3,0,0,0,.3.31.31.31,0,1,0-.3-.31Z"/><path d="M18.42,33a.31.31,0,1,0,.31-.3A.3.3,0,0,0,18.42,33Z"/><path d="M17,34.07a.31.31,0,1,0,.31-.31A.31.31,0,0,0,17,34.07Z"/><path d="M16.83,35.61a.31.31,0,1,0,.61,0,.31.31,0,0,0-.61,0Z"/><path d="M18,36.55a.3.3,0,0,0,.3.31.31.31,0,0,0,.31-.31.3.3,0,0,0-.3-.31A.31.31,0,0,0,18,36.55Z"/><path d="M17,43.24a.31.31,0,0,0,.62,0,.32.32,0,0,0-.31-.31A.31.31,0,0,0,17,43.24Z"/><path d="M19.59,43a.31.31,0,1,0,.62,0,.32.32,0,0,0-.31-.31A.31.31,0,0,0,19.59,43Z"/><path d="M18.36,45.44a.31.31,0,1,0,.31-.3A.3.3,0,0,0,18.36,45.44Z"/><path d="M16.42,49.55a.3.3,0,0,0,.3.31.31.31,0,0,0,.31-.31.3.3,0,0,0-.3-.31A.31.31,0,0,0,16.42,49.55Z"/><path d="M18.69,39.84a.31.31,0,0,0,.62,0,.32.32,0,0,0-.31-.31A.31.31,0,0,0,18.69,39.84Z"/><path d="M25.81,38.65a.31.31,0,1,0,.31-.3A.3.3,0,0,0,25.81,38.65Z"/><polygon class="cls-2" points="27.93 35.63 27.81 35.63 27.84 31.34 29.23 29.96 29.24 27.38 30.84 27.38 30.84 27.5 29.35 27.49 29.34 30.01 27.95 31.39 27.93 35.63"/><polygon class="cls-2" points="28.9 33.66 28.78 33.66 28.79 31.49 29.97 31.23 29.98 28.67 31.2 28.98 32.09 28.41 32.15 28.51 31.22 29.1 30.09 28.81 30.08 31.32 28.91 31.58 28.9 33.66"/><polygon class="cls-2" points="28.88 36.75 27.12 36.74 27.12 36.63 28.77 36.64 28.78 34.5 28.79 34.48 30.77 31.31 30.77 30.1 30.89 30.1 30.88 31.34 30.87 31.36 28.89 34.53 28.88 36.75"/><polygon class="cls-2" points="30.84 39.26 30.72 39.26 30.73 38.4 29.98 38.18 30 34.49 30.75 34.06 30.76 32.64 32.05 31.05 32.05 29.63 32.16 29.63 32.16 31.09 30.87 32.68 30.86 34.13 30.12 34.55 30.1 38.1 30.84 38.32 30.84 39.26"/><polygon class="cls-2" points="32.12 39.27 32 39.27 32.01 37.97 31 37.44 31.01 35.59 32.02 35.59 32.03 34.19 33.21 32.39 33.22 29.64 33.34 29.64 33.32 32.42 32.14 34.23 32.13 35.71 31.12 35.7 31.11 37.37 32.12 37.91 32.12 39.27"/><polygon class="cls-2" points="31.66 34.8 31.55 34.79 31.55 33.39 31.56 33.38 32.53 31.84 32.62 31.9 31.67 33.43 31.66 34.8"/><polygon class="cls-2" points="32.16 36.98 32.14 36.87 32.92 36.67 32.93 34.44 32.94 34.43 34.38 31.86 34.39 30.66 34.5 30.66 34.5 31.89 34.49 31.91 33.05 34.47 33.03 36.76 32.16 36.98"/><rect class="cls-2" x="33.43" y="33.12" width="3.12" height="0.11" transform="translate(-12.17 43.23) rotate(-55.5)"/><polygon class="cls-2" points="35.47 34.52 34.64 34.52 34.64 34.41 35.4 34.41 36.21 32.79 36.99 32.8 36.99 32.91 36.28 32.91 35.47 34.52"/><polygon class="cls-2" points="36.64 35.14 33.63 35.13 33.63 35.02 36.57 35.03 37.36 33.41 37.47 33.47 36.64 35.14"/><polygon class="cls-2" points="36.23 37.01 33.83 36.99 33.83 36.88 36.12 36.89 36.12 36.21 34.4 36.2 33.59 35.7 33.65 35.61 34.43 36.08 36.23 36.09 36.23 37.01"/><polygon class="cls-2" points="37.98 37.65 33.24 37.63 33.24 37.52 37.87 37.54 37.88 35.15 37.51 35.14 36.76 36.34 36.66 36.28 37.45 35.03 38 35.04 37.98 37.65"/><polygon class="cls-2" points="34.11 39.34 32.86 39.33 32.86 39.22 34.06 39.22 34.86 38.32 34.89 38.32 38.82 38.34 38.83 36.96 38.95 36.96 38.94 38.46 34.91 38.44 34.11 39.34"/><polygon class="cls-2" points="35.53 42.27 35.42 42.27 35.44 39.8 36.35 38.92 36.38 38.92 38.88 38.93 38.88 39.04 36.4 39.03 35.55 39.84 35.53 42.27"/><rect class="cls-2" x="37.72" y="38.85" width="0.11" height="2.18" transform="translate(-2.35 77.51) rotate(-89.7)"/><polygon class="cls-2" points="34.61 44.03 34.59 44.03 33.21 44.02 33.21 43.91 34.57 43.91 36.09 42.67 36.37 40.57 38.87 40.58 38.87 40.69 36.47 40.68 36.2 42.73 34.61 44.03"/><rect class="cls-2" x="37.96" y="40.75" width="0.11" height="1.69" transform="translate(-3.77 79.39) rotate(-89.7)"/><polygon class="cls-2" points="36.06 44.03 36 43.93 37.11 43.26 37.11 42.28 37.23 42.28 37.22 43.32 36.06 44.03"/><polygon class="cls-2" points="32.16 45.5 32.05 45.5 32.06 43.05 34.59 43.06 34.59 43.17 32.17 43.16 32.16 45.5"/><polygon class="cls-2" points="34.6 42.35 31.51 42.31 31.51 41.08 34.1 41.09 34.64 41.68 34.56 41.76 34.05 41.2 31.63 41.19 31.62 42.2 34.6 42.24 34.6 42.35"/><polygon class="cls-2" points="34.61 39.98 29.26 39.95 29.26 38.95 28.77 37.57 28.87 37.53 29.37 38.94 29.37 39.84 34.61 39.87 34.61 39.98"/><polygon class="cls-2" points="31.07 44.65 30.96 44.64 30.98 41.19 29.25 41.18 29.25 40.37 31.04 40.38 31.04 40.49 29.37 40.48 29.36 41.06 31.09 41.07 31.07 44.65"/><polygon class="cls-2" points="30.2 45.49 30.09 45.49 30.11 42.83 28.41 42.82 28.43 40.68 24.72 42.56 24.67 42.46 28.54 40.49 28.53 42.71 30.22 42.72 30.2 45.49"/><polygon class="cls-2" points="30.08 42.24 29.96 42.24 29.97 41.12 30.08 41.12 30.08 42.24"/><polygon class="cls-2" points="28.81 39.95 24.1 39.92 22.47 38.93 22.47 38.9 22.5 33.76 22.04 33.32 22.12 33.24 22.61 33.71 22.58 38.87 24.14 39.81 28.81 39.84 28.81 39.95"/><polygon class="cls-2" points="27.85 39.3 24.69 39.29 23.35 38 27.88 38.02 28.85 38.89 28.77 38.98 27.84 38.13 23.63 38.11 24.73 39.18 27.85 39.19 27.85 39.3"/><polygon class="cls-2" points="26.2 39.24 26.09 39.24 26.09 38.65 26.21 38.65 26.2 39.24"/><polygon class="cls-2" points="27.86 37.6 23.22 37.58 23.23 35.34 23.35 35.34 23.34 37.46 27.86 37.49 27.86 37.6"/><polygon class="cls-2" points="26.53 37.11 26.42 37.11 26.43 35.79 27.07 35.58 27.08 32.57 26.55 33.41 26.45 33.35 27.2 32.18 27.18 35.66 26.54 35.87 26.53 37.11"/><polygon class="cls-2" points="25.63 36.89 25.52 36.89 25.52 35.58 26.43 35 26.44 34.27 25 34.26 26.46 32.07 26.55 32.14 25.21 34.15 26.55 34.15 26.55 35.06 25.64 35.65 25.63 36.89"/><polygon class="cls-2" points="24.72 36.95 24.08 36.94 24.09 34.97 25.19 34.97 24.78 35.98 24.67 35.94 25.02 35.08 24.2 35.08 24.19 36.83 24.72 36.83 24.72 36.95"/><polygon class="cls-2" points="27.84 29.72 27.86 26.62 30.1 26.63 30.1 26.75 27.97 26.74 27.96 29.49 28.81 28.84 28.81 27.64 28.93 27.64 28.92 28.9 27.84 29.72"/><polygon class="cls-2" points="24.68 33.78 24.58 33.72 25.76 31.82 25.77 30.04 26.57 29.79 26.57 30.93 27.87 30.04 27.93 30.14 26.45 31.15 26.46 29.94 25.88 30.12 25.87 31.85 25.86 31.86 24.68 33.78"/><polygon class="cls-2" points="27.21 29.87 27.1 29.87 27.11 27 25.89 27.14 25.88 28.91 26.46 29 26.47 27.84 26.58 27.84 26.58 29.14 25.77 29.01 25.78 27.05 27.23 26.88 27.21 29.87"/><polygon class="cls-2" points="24.22 31.29 24.11 31.29 24.12 28.72 26.19 25.98 28.88 25.99 28.88 26.1 26.24 26.09 24.23 28.76 24.22 31.29"/><polygon class="cls-2" points="23.83 33.77 23.73 33.71 25.07 31.5 25.08 28.95 25.19 28.95 25.18 31.53 23.83 33.77"/><polygon class="cls-2" points="23.35 34.48 23.24 34.48 23.25 33.31 21.96 31.73 24.16 31.74 24.16 31.86 22.2 31.85 23.36 33.27 23.35 34.48"/><rect class="cls-2" x="23.4" y="31.64" width="0.11" height="0.87" transform="translate(-16.18 29.19) rotate(-49.66)"/><polygon class="cls-2" points="22.03 31.39 22.04 29.55 24.73 26.9 25.46 25.34 26.84 24.97 26.88 25.08 25.54 25.44 24.81 26.97 22.15 29.6 22.14 31.28 23.46 31.23 23.46 31.35 22.03 31.39"/><polygon class="cls-2" points="22.89 31.29 22.78 31.29 22.78 29.85 22.9 29.85 22.89 31.29"/><polygon class="cls-2" points="24.05 41.99 24.06 40.5 26.43 40.52 26.43 40.63 24.17 40.62 24.17 41.8 25.24 41.18 25.3 41.28 24.05 41.99"/><polygon class="cls-2" points="29.34 46.45 29.22 46.45 29.23 44 27.77 43.99 27.78 41.91 27.89 41.91 27.88 43.88 29.35 43.89 29.34 46.45"/><polygon class="cls-2" points="28.77 45.97 27.01 45.96 27.03 43.08 27.14 43.08 27.13 45.85 28.78 45.85 28.77 45.97"/><rect class="cls-2" x="27.63" y="44.28" width="0.11" height="1.22" transform="matrix(0.01, -1, 1, 0.01, -17.35, 72.35)"/><polygon class="cls-2" points="26.11 47.02 24.98 47.01 25 43.3 25.03 43.29 27.06 42.18 27.12 42.28 25.12 43.37 25.1 46.9 26 46.91 26.01 43.93 26.13 43.93 26.11 47.02"/><polygon class="cls-2" points="27.12 47.93 25.04 47.92 25.04 47.81 27 47.82 27.01 46.91 28.54 46.92 28.54 47.03 27.12 47.02 27.12 47.93"/><polygon class="cls-2" points="24.42 48.71 24.31 48.71 24.34 43.41 22.75 41.57 21.34 41.56 21.35 39.87 20.67 38.92 20.76 38.86 21.46 39.84 21.45 41.45 22.81 41.46 24.45 43.36 24.42 48.71"/><rect class="cls-2" x="22.67" y="39.87" width="0.11" height="1.37" transform="translate(-17.95 63.07) rotate(-89.7)"/><polygon class="cls-2" points="22.68 40.59 21.14 38.38 21.16 35.33 21.27 35.33 21.25 38.34 22.77 40.52 22.68 40.59"/><polygon class="cls-2" points="22.03 36.88 21.92 36.87 21.93 34.76 21.17 33.75 21.17 32.34 21.29 32.34 21.28 33.71 22.04 34.73 22.03 36.88"/><polygon class="cls-2" points="18.83 32.76 18.72 32.76 18.73 30.07 17.35 29.27 17.37 26.17 18.49 25.27 18.5 24.07 18.61 24.07 18.61 25.33 17.48 26.23 17.47 29.2 18.85 30.01 18.83 32.76"/><polygon class="cls-2" points="17.4 43.03 17.28 43.03 17.3 40.17 16.4 39.21 16.42 34.63 18.02 34.64 18.02 33.66 19.52 33.66 19.53 30.58 19.64 30.58 19.63 33.78 18.14 33.77 18.13 34.75 16.53 34.75 16.51 39.17 17.41 40.13 17.4 43.03"/><polygon class="cls-2" points="20.26 35.06 18.77 35.05 18.77 34.94 20.15 34.95 20.16 33.1 21.18 30.99 21.29 31.04 20.27 33.14 20.26 35.06"/><polygon class="cls-2" points="21.68 30.62 20.23 30.61 20.23 30.5 21.57 30.5 21.57 28.91 21.59 28.89 24.43 26.31 25.11 24.46 25.21 24.5 24.52 26.38 21.69 28.96 21.68 30.62"/><polygon class="cls-2" points="19.36 29.24 18.05 28.66 18.06 26.61 19.35 25.28 19.35 24.08 19.46 24.08 19.46 25.33 18.17 26.65 18.16 28.59 19.41 29.14 19.36 29.24"/><polygon class="cls-2" points="20.82 29.89 19.59 29.89 19.59 29.77 20.71 29.78 20.72 28.05 21.64 28.05 21.64 28.17 20.83 28.16 20.82 29.89"/><polygon class="cls-2" points="18.84 26.95 18.78 26.85 20.57 25.65 20.58 24.09 20.7 24.09 20.69 25.71 20.66 25.73 18.84 26.95"/><polygon class="cls-2" points="20.29 29.03 18.77 28.15 18.83 28.05 20.18 28.83 20.19 27 19.2 27.55 19.15 27.45 20.3 26.81 20.29 29.03"/><polygon class="cls-2" points="20.83 27.39 20.72 27.39 20.73 26.23 21.59 25.97 21.6 24.09 21.71 24.09 21.7 26.05 20.84 26.31 20.83 27.39"/><polygon class="cls-2" points="24.24 26.08 23.28 26.07 23.29 24.1 23.41 24.1 23.4 25.96 24.14 25.96 24.44 24.47 24.55 24.49 24.24 26.08"/><polygon class="cls-2" points="22.08 27.57 21.21 27.57 21.21 27.45 21.97 27.46 21.97 26.59 22.57 26.59 22.59 24.09 22.7 24.1 22.69 26.6 23.34 26.6 23.34 26.71 22.08 26.71 22.08 27.57"/><polygon class="cls-2" points="20.71 40.6 19.91 40.59 19.91 39.5 18.96 38.64 18.97 35.64 17.38 35.63 17.38 35.52 19.09 35.52 19.07 38.59 20.02 39.45 20.02 40.48 20.71 40.49 20.71 40.6"/><polygon class="cls-2" points="20.53 38.08 19.92 37.53 19.93 35.59 20.04 35.59 20.03 37.48 20.61 38 20.53 38.08"/><polygon class="cls-2" points="18.38 38.96 17.3 38.96 17.32 36.54 17.43 36.55 17.42 38.84 18.26 38.85 18.27 36.55 18.39 36.55 18.38 38.96"/><polygon class="cls-2" points="19.07 43.04 17.98 43.04 17.94 39.78 19.03 39.78 19.03 39.9 18.05 39.89 18.09 42.92 18.96 42.93 18.97 40.53 19.09 40.53 19.07 43.04"/><polygon class="cls-2" points="20.57 47.39 20.46 47.39 20.48 44.81 21.49 44.55 21.5 42.51 20.51 41.24 20.59 41.17 21.62 42.47 21.61 44.64 20.59 44.9 20.57 47.39"/><polygon class="cls-2" points="23.85 48.77 22.74 48.76 22.74 48.65 23.74 48.65 23.76 43.93 22.61 42.4 22.59 44.9 21.6 45.48 21.59 47.39 21.48 47.39 21.49 45.41 22.48 44.83 22.49 42.06 23.88 43.9 23.85 48.77"/><polygon class="cls-2" points="23.28 48.12 22.52 48.12 22.52 48.01 23.17 48.01 23.18 45.05 22.59 45.9 22.58 46.94 22.47 46.94 22.47 45.86 23.3 44.69 23.28 48.12"/><polygon class="cls-2" points="20.75 44.2 19.55 44.19 19.89 42.97 20 43 19.7 44.08 20.63 44.08 20.64 43.01 19.91 41.44 20.01 41.39 20.75 42.98 20.75 44.2"/><polygon class="cls-2" points="19.98 46.93 19.87 46.93 19.88 44.91 18.77 44.9 18.77 45.43 18.66 45.43 18.66 44.79 20 44.8 19.98 46.93"/><polygon class="cls-2" points="16.83 49.54 16.72 49.51 17.76 46.6 19.37 46.59 19.37 45.86 19.48 45.86 19.48 46.7 17.84 46.71 16.83 49.54"/><polygon class="cls-2" points="17.27 46.05 17.28 43.72 19.01 43.73 19.01 43.84 17.39 43.83 17.38 45.7 18.24 44.52 18.34 44.59 17.27 46.05"/><polygon class="cls-2" points="17.44 34.16 17.33 34.16 17.34 32.27 18.18 32.27 18.18 31.03 16.13 30.06 16.13 28.89 16.82 28.86 16.84 25.46 17.66 24.04 17.75 24.1 16.95 25.49 16.94 28.97 16.24 29 16.24 29.99 18.3 30.96 18.29 32.38 17.45 32.38 17.44 34.16"/><polygon class="cls-2" points="15.76 50.8 15.64 50.8 15.65 48.64 16.35 48.01 16.38 42.8 15.41 42.51 15.44 42.41 16.49 42.72 16.46 48.05 15.77 48.69 15.76 50.8"/><polygon class="cls-2" points="16.5 41.85 16.38 41.85 16.39 40.42 15.49 40.41 15.48 41.85 15.37 41.85 15.38 40.3 16.5 40.3 16.5 41.85"/><polygon class="cls-2" points="14.92 51.87 14.53 49.5 15.34 47.8 15.36 43.5 15.48 43.5 15.45 47.84 14.65 49.52 15.03 51.85 14.92 51.87"/><polygon class="cls-2" points="6.56 31.79 6.53 31.79 2.54 31.74 2.54 31.63 6.51 31.68 7.2 30.88 7.23 30.88 11.37 30.9 12.1 30.46 12.16 30.56 11.4 31.02 11.38 31.02 7.25 31 6.56 31.79"/><polygon class="cls-2" points="13.18 32.07 13.09 32 13.61 31.43 13.63 29.22 10.76 29.2 10.75 30.05 6.94 30.04 6.08 31.16 6.05 31.16 3.28 30.98 3.29 30.86 6.03 31.05 6.89 29.92 6.92 29.92 10.64 29.94 10.64 29.09 13.74 29.11 13.73 31.47 13.18 32.07"/><polygon class="cls-2" points="5.72 30.61 4.78 30.61 4.78 30.5 5.65 30.5 5.91 30.03 4.2 30.02 4.2 29.91 6.1 29.92 5.72 30.61"/><rect class="cls-2" x="7.29" y="26.89" width="0.11" height="4.47" transform="translate(-21.82 36.32) rotate(-89.7)"/><polygon class="cls-2" points="13.71 35.29 13.59 35.29 13.6 33.61 11.71 31.75 12.87 31.2 12.88 29.16 12.99 29.16 12.98 31.27 11.9 31.78 13.72 33.56 13.71 35.29"/><polygon class="cls-2" points="16.54 34.16 16.42 34.16 16.43 32.03 17.84 30.79 17.92 30.87 16.55 32.08 16.54 34.16"/><polygon class="cls-2" points="15.82 39.67 14.98 39.66 15 36.48 15.9 36.48 15.92 34.15 16.03 34.15 16.02 36.59 15.11 36.59 15.1 39.55 15.7 39.55 15.66 37.72 15.77 37.71 15.82 39.67"/><polygon class="cls-2" points="15 33.6 15.06 26.59 16.48 24.04 16.58 24.09 15.16 26.63 15.12 33.33 15.72 32.72 15.73 30.76 16.5 30.76 16.5 30.88 15.85 30.87 15.84 32.77 15 33.6"/><polygon class="cls-2" points="16.25 28.14 15.1 28.13 15.1 28.02 16.14 28.03 16.14 26.35 16.26 26.35 16.25 28.14"/><polygon class="cls-2" points="14.39 36.59 10.91 36.57 10.89 36.56 9.25 35.31 9.32 35.22 10.95 36.45 14.28 36.47 14.3 32.48 14.41 32.48 14.39 36.59"/><polygon class="cls-2" points="12.71 35.95 11.07 35.94 9.53 34.47 6.73 34.37 6.74 33.02 7.59 32.41 7.65 31.66 10.85 31.7 10.85 31.81 7.76 31.77 7.7 32.47 6.85 33.08 6.84 34.26 9.58 34.36 11.11 35.83 12.72 35.84 12.71 35.95"/><polygon class="cls-2" points="10.96 33.14 9.76 32.77 7.22 32.8 7.22 32.69 9.77 32.65 10.93 33.01 11.44 32.42 11.52 32.5 10.96 33.14"/><rect class="cls-2" x="9.9" y="30.45" width="0.11" height="6.34" transform="matrix(0.02, -1, 1, 0.02, -23.87, 42.83)"/><polygon class="cls-2" points="12.78 35.34 11.43 35.33 10.62 33.64 10.72 33.59 11.5 35.22 12.66 35.23 12.67 34.41 11.82 34.4 11.82 34.29 12.78 34.29 12.78 35.34"/><polygon class="cls-2" points="7.74 28.41 7.72 28.41 5.54 28.4 5.54 28.29 7.7 28.3 8.81 27.24 7.57 27.23 7.57 27.12 9.09 27.12 7.74 28.41"/><polygon class="cls-2" points="8.78 28.61 8.69 28.54 9.97 27.13 9.99 27.13 13.64 27.29 13.64 25.48 13.13 24.77 13.22 24.71 13.76 25.44 13.75 27.41 10.02 27.24 8.78 28.61"/><path class="cls-2" d="M14.43,30h-.12s0-5.43,0-5.59h.12C14.46,24.59,14.43,30,14.43,30Z"/><polygon class="cls-2" points="10.33 28.9 10.22 28.85 10.62 28.05 14.38 28.14 14.38 28.26 10.69 28.16 10.33 28.9"/><polygon class="cls-2" points="12.8 26.73 9.32 26.37 9.34 26.26 12.73 26.61 13.09 25.73 12.33 25.51 12.36 25.4 13.24 25.66 12.8 26.73"/><path class="cls-2" d="M6,34.16,2.2,33.81V32.36h.06a25,25,0,0,1,3.77,0v0H6l0,0c-.13,0-2.23,0-3.65,0v1.24L5.93,34v-.93l-2.39.13v-.11L6.05,33Z"/><polygon class="cls-2" points="0.41 41.77 0.3 41.77 0.32 37.38 1.18 36.53 1.19 33.62 1.31 33.63 1.29 36.58 0.43 37.42 0.41 41.77"/><polygon class="cls-2" points="1.25 43.42 1.14 43.42 1.17 37.97 1.28 37.97 1.25 43.42"/><polygon class="cls-2" points="2.29 39.81 1.22 39.81 1.22 39.69 2.17 39.7 2.18 37.91 4.42 37.9 4.42 38.01 2.29 38.03 2.29 39.81"/><polygon class="cls-2" points="4.19 42.96 4.07 42.96 4.08 41.84 2.16 41.83 2.17 39.75 2.29 39.76 2.28 41.72 4.19 41.73 4.19 42.96"/><polygon class="cls-2" points="4.67 41.18 4.67 41.07 7.65 40.95 7.67 38.01 7.16 37.07 3.84 37.05 3.85 34.97 2.84 34.97 2.84 34.85 3.96 34.86 3.95 36.94 7.23 36.95 7.78 37.98 7.78 38 7.76 41.06 4.67 41.18"/><path class="cls-2" d="M5.29,40.52h0l-3,0v-.11l3,0,.66-.66c0-.24,0-2.07,0-2.33l.12,0c0,.21,0,1.62,0,2.33v0Z"/><polygon class="cls-2" points="7.02 40.31 6.91 40.31 6.92 38.61 5.98 38.61 5.98 38.49 7.03 38.5 7.02 40.31"/><rect class="cls-2" x="4.81" y="38.33" width="0.11" height="2.18" transform="translate(-34.58 44.08) rotate(-89.7)"/><polygon class="cls-2" points="3.25 38.02 3.14 38.02 3.15 35.84 3.27 35.84 3.25 38.02"/><rect class="cls-2" x="2.03" y="36.9" width="1.17" height="0.11" transform="translate(-1.69 0.16) rotate(-2.63)"/><polygon class="cls-2" points="8.48 42.19 4.85 42.17 4.85 42.05 8.37 42.07 8.4 36.41 5.47 36.39 4.4 35.28 4.48 35.2 5.52 36.28 8.51 36.3 8.48 42.19"/><polygon class="cls-2" points="10.57 37.07 8.04 34.99 4.44 34.71 4.45 34.6 8.08 34.88 10.64 36.98 10.57 37.07"/><rect class="cls-2" x="7.4" y="34.17" width="0.11" height="2.91" transform="translate(-28.21 42.89) rotate(-89.7)"/><polygon class="cls-2" points="8.94 40.32 8.83 40.32 8.84 38.3 10.57 38.3 11.43 37.4 11.46 37.4 14.17 37.42 14.17 37.53 11.48 37.52 10.62 38.42 8.95 38.41 8.94 40.32"/><polygon class="cls-2" points="14.38 38.78 11.18 38.69 11.19 38.57 14.27 38.67 14.27 38.01 14.39 38.01 14.38 38.78"/><polygon class="cls-2" points="9.77 41.42 8.88 41.42 8.88 41.3 9.66 41.31 9.67 39.39 14.16 39.41 14.16 39.53 9.78 39.5 9.77 41.42"/><polygon class="cls-2" points="14.69 41.9 10.52 41.88 10.53 40.27 14.64 40.3 14.64 40.41 10.64 40.39 10.64 41.77 14.57 41.79 14.57 41.23 12.07 41.09 12.08 40.97 14.69 41.12 14.69 41.9"/><polygon class="cls-2" points="13.64 48.39 13.56 48.31 14.54 47.33 14.57 42.45 14.68 42.46 14.66 47.38 13.64 48.39"/><polygon class="cls-2" points="13.63 51.16 13.57 51.16 7.66 51.13 7.66 51.02 13.51 51.05 13.52 50.01 14.22 48.63 14.32 48.68 13.63 50.05 13.63 51.16"/><polygon class="cls-2" points="7.32 50.38 7.19 48.03 3.14 47.67 3.15 47.56 7.3 47.93 7.43 50.38 7.32 50.38"/><polygon class="cls-2" points="5.95 50.42 5.89 50.33 6.65 49.81 6.65 48.67 4.05 48.66 4.05 48.55 6.77 48.56 6.76 49.87 5.95 50.42"/><rect class="cls-2" x="5.31" y="48.91" width="0.11" height="1.11" transform="translate(-44.12 54.58) rotate(-89.71)"/><polygon class="cls-2" points="1.53 44.54 1.49 44.44 3.16 43.77 3.17 42.4 3.29 42.4 3.28 43.85 1.53 44.54"/><rect class="cls-2" x="2.63" y="42.69" width="0.11" height="0.96" transform="matrix(0.01, -1, 1, 0.01, -40.49, 45.63)"/><polygon class="cls-2" points="2.01 46.35 1.95 46.26 2.73 45.74 2.73 44.72 5.4 43.42 5.41 42.7 5.52 42.7 5.52 43.49 2.85 44.79 2.84 45.81 2.01 46.35"/><polygon class="cls-2" points="6.45 44.77 6.34 44.77 6.35 43.13 9.46 43.15 9.66 42.13 9.77 42.15 9.55 43.26 6.46 43.24 6.45 44.77"/><polygon class="cls-2" points="11.05 44.14 7.41 44.13 7.41 44.01 10.94 44.03 10.95 42.73 11.06 42.73 11.05 44.14"/><polygon class="cls-2" points="13.1 48.04 13 47.99 13.75 46.35 13.57 42.51 11.78 42.5 11.78 42.38 13.68 42.39 13.86 46.38 13.86 46.39 13.1 48.04"/><polygon class="cls-2" points="12.76 50.47 9.24 50.45 9.22 50.44 7.97 49.53 7.98 46.92 5.91 46.91 5.91 46.8 8.1 46.81 8.08 49.48 9.28 50.33 12.76 50.35 12.76 50.47"/><polygon class="cls-2" points="4.83 46.91 2.62 46.9 4.01 45.78 4.01 44.95 5.43 44.33 5.48 44.43 4.12 45.02 4.12 45.84 2.94 46.79 4.83 46.8 4.83 46.91"/><polygon class="cls-2" points="7.19 45.68 5.02 45.67 5.02 45.56 7.11 45.57 7.36 44.73 9.9 44.74 9.9 44.86 7.45 44.84 7.19 45.68"/><polygon class="cls-2" points="8.89 49.22 8.78 49.22 8.8 46.4 7.68 46.39 7.68 46.28 8.91 46.28 8.89 49.22"/><rect class="cls-2" x="10.75" y="46.69" width="0.11" height="3.99" transform="translate(-39.02 50.61) rotate(-79.7)"/><polygon class="cls-2" points="12.64 45.45 8.27 45.43 8.27 45.31 12.53 45.34 12.54 43.48 12.65 43.48 12.64 45.45"/><polygon class="cls-2" points="9.54 47.65 9.43 47.65 9.44 45.4 9.55 45.4 9.54 47.65"/><rect class="cls-2" x="10.56" y="46.26" width="0.11" height="2.69" transform="translate(-35.1 30.61) rotate(-57.04)"/><rect class="cls-2" x="11.22" y="44.57" width="0.11" height="3.57" transform="translate(-35.13 57.39) rotate(-89.7)"/><polygon class="cls-2" points="12.28 47.74 11.41 46.93 11.48 46.84 12.17 47.49 12.18 46.41 12.29 46.41 12.28 47.74"/><polygon class="cls-2" points="12.21 49.93 9.82 49.92 9.82 48.51 9.94 48.51 9.93 49.8 11.85 49.81 11.07 49.27 11.13 49.18 12.21 49.93"/><polygon class="cls-2" points="12.73 54.46 12.62 54.45 12.63 51.79 14.26 51.8 14.26 51.91 12.74 51.9 12.73 54.46"/><polygon class="cls-2" points="12.06 55.68 11.94 55.68 11.96 52.79 11.05 52.46 11.06 51.09 11.18 51.09 11.17 52.38 12.07 52.71 12.06 55.68"/><polygon class="cls-2" points="9.48 58.86 9.37 58.86 9.4 53.1 10.47 52.34 10.54 51.09 10.66 51.09 10.58 52.4 9.51 53.16 9.48 58.86"/><polygon class="cls-2" points="8.81 57.74 8.28 57.74 8.31 52.87 9.28 51.79 9.36 51.87 8.42 52.91 8.4 57.63 8.82 57.63 8.81 57.74"/><polygon class="cls-2" points="10.91 56.9 10.31 56.9 10.33 54.02 10.44 54.02 10.43 56.78 10.82 56.78 11.31 54.76 11.42 54.78 10.91 56.9"/><rect class="cls-2" x="7.56" y="51.43" width="0.11" height="0.79" transform="translate(-44.24 59.16) rotate(-89.69)"/><path class="cls-2" d="M34.1,30.62a.31.31,0,1,0,.3-.31A.31.31,0,0,0,34.1,30.62Z"/><path class="cls-2" d="M31.68,37a.31.31,0,0,0,.61,0,.3.3,0,0,0-.3-.31A.31.31,0,0,0,31.68,37Z"/><path class="cls-2" d="M33.43,36.88a.31.31,0,0,0,.62,0,.3.3,0,0,0-.31-.3A.3.3,0,0,0,33.43,36.88Z"/><path class="cls-2" d="M33.27,35.66a.31.31,0,0,0,.61,0,.3.3,0,0,0-.3-.31A.31.31,0,0,0,33.27,35.66Z"/><path class="cls-2" d="M34.38,34.46a.31.31,0,0,0,.31.31.3.3,0,0,0,.31-.3.31.31,0,0,0-.31-.31A.3.3,0,0,0,34.38,34.46Z"/><path class="cls-2" d="M33.58,34.46a.31.31,0,0,0,.31.31.3.3,0,0,0,.3-.31.3.3,0,0,0-.3-.31A.31.31,0,0,0,33.58,34.46Z"/><path class="cls-2" d="M35.47,31.89a.3.3,0,0,0,.31.3.29.29,0,0,0,.3-.3.3.3,0,0,0-.3-.31A.31.31,0,0,0,35.47,31.89Z"/><path class="cls-2" d="M36.64,32.85a.3.3,0,0,0,.3.31.31.31,0,1,0-.3-.31Z"/><path class="cls-2" d="M37.15,33.52a.31.31,0,1,0,.31-.31A.31.31,0,0,0,37.15,33.52Z"/><path class="cls-2" d="M36.35,36.31a.31.31,0,0,0,.62,0,.32.32,0,0,0-.31-.31A.31.31,0,0,0,36.35,36.31Z"/><path class="cls-2" d="M32.75,37.59a.31.31,0,0,0,.62,0,.31.31,0,0,0-.62,0Z"/><path class="cls-2" d="M32.5,39.27a.31.31,0,0,0,.31.31.3.3,0,0,0,.31-.3.31.31,0,0,0-.31-.31A.3.3,0,0,0,32.5,39.27Z"/><path class="cls-2" d="M34.26,39.92a.3.3,0,0,0,.3.31.31.31,0,0,0,.31-.31.3.3,0,0,0-.3-.3A.3.3,0,0,0,34.26,39.92Z"/><path class="cls-2" d="M34.25,41.71a.31.31,0,0,0,.61,0,.3.3,0,0,0-.3-.31A.31.31,0,0,0,34.25,41.71Z"/><path class="cls-2" d="M31.75,45.64a.31.31,0,0,0,.31.3.31.31,0,0,0,0-.61A.31.31,0,0,0,31.75,45.64Z"/><path class="cls-2" d="M30.66,44.64A.31.31,0,0,0,31,45a.3.3,0,0,0,.31-.3.31.31,0,0,0-.31-.31A.3.3,0,0,0,30.66,44.64Z"/><path class="cls-2" d="M29.66,42.27A.31.31,0,1,0,30,42,.31.31,0,0,0,29.66,42.27Z"/><path class="cls-2" d="M30.73,40.44a.31.31,0,0,0,.61,0,.3.3,0,0,0-.3-.31A.31.31,0,0,0,30.73,40.44Z"/><path class="cls-2" d="M34.24,43.12a.31.31,0,0,0,.31.31.3.3,0,0,0,.3-.31.3.3,0,0,0-.3-.31A.31.31,0,0,0,34.24,43.12Z"/><path class="cls-2" d="M35.67,44a.32.32,0,0,0,.31.31.31.31,0,1,0-.31-.31Z"/><path class="cls-2" d="M36.81,42.3a.31.31,0,0,0,.31.31.3.3,0,0,0,.31-.3.31.31,0,0,0-.62,0Z"/><path class="cls-2" d="M38.51,41.51a.31.31,0,0,0,.3.31.31.31,0,0,0,0-.61A.31.31,0,0,0,38.51,41.51Z"/><path class="cls-2" d="M36.33,39.93a.31.31,0,0,0,.31.31.3.3,0,0,0,.31-.3.31.31,0,0,0-.31-.31A.3.3,0,0,0,36.33,39.93Z"/><path class="cls-2" d="M38.52,40a.3.3,0,0,0,.3.31.31.31,0,0,0,.31-.31.3.3,0,0,0-.3-.31A.31.31,0,0,0,38.52,40Z"/><path class="cls-2" d="M38.63,39a.3.3,0,0,0,.3.31.31.31,0,0,0,.31-.31.3.3,0,0,0-.3-.31A.31.31,0,0,0,38.63,39Z"/><path class="cls-2" d="M30.43,39.26a.3.3,0,0,0,.3.31.3.3,0,0,0,.31-.3.31.31,0,0,0-.31-.31A.29.29,0,0,0,30.43,39.26Z"/><path class="cls-2" d="M28.46,37.56a.31.31,0,0,0,.31.31.3.3,0,0,0,.31-.3.31.31,0,0,0-.31-.31A.3.3,0,0,0,28.46,37.56Z"/><path class="cls-2" d="M26.76,36.69a.32.32,0,0,0,.31.31.31.31,0,1,0-.31-.31Z"/><path class="cls-2" d="M27.62,35.63a.32.32,0,0,0,.31.31.31.31,0,1,0-.31-.31Z"/><path class="cls-2" d="M26.14,33.46a.31.31,0,0,0,.31.31.3.3,0,0,0,.31-.3.31.31,0,0,0-.31-.31A.3.3,0,0,0,26.14,33.46Z"/><path class="cls-2" d="M27.54,30.27a.31.31,0,0,0,.31.31.3.3,0,0,0,.31-.3.31.31,0,0,0-.62,0Z"/><path class="cls-2" d="M24.78,29a.31.31,0,0,0,.31.31.31.31,0,0,0,0-.61A.3.3,0,0,0,24.78,29Z"/><path class="cls-2" d="M30.49,27.44a.3.3,0,0,0,.3.31.31.31,0,0,0,.31-.31.3.3,0,0,0-.3-.31A.31.31,0,0,0,30.49,27.44Z"/><path class="cls-2" d="M31.76,28.43a.31.31,0,0,0,.31.31.31.31,0,0,0,0-.62A.31.31,0,0,0,31.76,28.43Z"/><path class="cls-2" d="M30.47,30.1a.31.31,0,1,0,.31-.3A.3.3,0,0,0,30.47,30.1Z"/><path class="cls-2" d="M31.25,34.79a.31.31,0,1,0,.31-.3A.3.3,0,0,0,31.25,34.79Z"/><path class="cls-2" d="M31.75,29.63a.31.31,0,1,0,.31-.31A.31.31,0,0,0,31.75,29.63Z"/><path class="cls-2" d="M26.17,27.86a.31.31,0,1,0,.31-.3A.3.3,0,0,0,26.17,27.86Z"/><path class="cls-2" d="M24.09,33.88a.31.31,0,1,0,.61,0,.3.3,0,0,0-.3-.31A.31.31,0,0,0,24.09,33.88Z"/><path class="cls-2" d="M24.37,36A.31.31,0,0,0,25,36a.31.31,0,0,0-.62,0Z"/><path class="cls-2" d="M25.22,36.93a.3.3,0,0,0,.3.31.31.31,0,0,0,.31-.31.31.31,0,0,0-.61,0Z"/><path class="cls-2" d="M28.51,39.07a.31.31,0,0,0,.62,0,.31.31,0,0,0-.62,0Z"/><path class="cls-2" d="M26.1,40.57a.31.31,0,1,0,.62,0,.31.31,0,0,0-.62,0Z"/><path class="cls-2" d="M24.89,41.35a.3.3,0,0,0,.3.31.31.31,0,0,0,.31-.31.3.3,0,0,0-.3-.31A.31.31,0,0,0,24.89,41.35Z"/><path class="cls-2" d="M26.73,42.23a.3.3,0,0,0,.31.3.3.3,0,0,0,.31-.3.31.31,0,0,0-.31-.31A.32.32,0,0,0,26.73,42.23Z"/><path class="cls-2" d="M27.48,41.76a.31.31,0,0,0,.31.31.3.3,0,0,0,.31-.3.31.31,0,0,0-.62,0Z"/><path class="cls-2" d="M28.92,46.5a.31.31,0,1,0,.31-.31A.31.31,0,0,0,28.92,46.5Z"/><path class="cls-2" d="M27.88,44.94a.3.3,0,0,0,.31.3.29.29,0,0,0,.3-.3.3.3,0,0,0-.3-.31A.31.31,0,0,0,27.88,44.94Z"/><path class="cls-2" d="M28.19,45.91a.31.31,0,1,0,.31-.31A.31.31,0,0,0,28.19,45.91Z"/><path class="cls-2" d="M28.11,47.1a.31.31,0,1,0,.61,0,.3.3,0,0,0-.3-.31A.31.31,0,0,0,28.11,47.1Z"/><path class="cls-2" d="M25.77,43.93a.31.31,0,1,0,.31-.31A.31.31,0,0,0,25.77,43.93Z"/><path class="cls-2" d="M24.68,47.86a.31.31,0,1,0,.62,0,.3.3,0,0,0-.31-.3A.3.3,0,0,0,24.68,47.86Z"/><path class="cls-2" d="M22.17,47.07a.3.3,0,0,0,.3.3.3.3,0,0,0,.31-.3.3.3,0,0,0-.3-.31A.31.31,0,0,0,22.17,47.07Z"/><path class="cls-2" d="M22.31,48.74a.3.3,0,0,0,.3.31.31.31,0,0,0,.31-.31.32.32,0,0,0-.31-.31A.31.31,0,0,0,22.31,48.74Z"/><path class="cls-2" d="M21.18,47.66a.31.31,0,0,0,.3.31.31.31,0,1,0-.3-.31Z"/><path class="cls-2" d="M20.19,41.21a.32.32,0,0,0,.31.31.31.31,0,1,0,0-.62A.32.32,0,0,0,20.19,41.21Z"/><path class="cls-2" d="M23.12,40.56a.3.3,0,0,0,.31.3.3.3,0,0,0,.31-.3.31.31,0,0,0-.62,0Z"/><path class="cls-2" d="M20.36,38.9a.31.31,0,1,0,.31-.3A.3.3,0,0,0,20.36,38.9Z"/><path class="cls-2" d="M19.63,35.62a.31.31,0,0,0,.31.31.3.3,0,0,0,.31-.3.31.31,0,0,0-.31-.31A.3.3,0,0,0,19.63,35.62Z"/><path class="cls-2" d="M20.94,35.28a.31.31,0,0,0,.61,0,.31.31,0,0,0-.3-.31A.3.3,0,0,0,20.94,35.28Z"/><path class="cls-2" d="M21.54,37a.3.3,0,0,0,.31.3.3.3,0,0,0,.31-.3.31.31,0,0,0-.62,0Z"/><path class="cls-2" d="M21.72,33.28A.31.31,0,1,0,22,33,.31.31,0,0,0,21.72,33.28Z"/><path class="cls-2" d="M19.23,30.63a.31.31,0,1,0,.31-.31A.31.31,0,0,0,19.23,30.63Z"/><path class="cls-2" d="M20.87,32.34a.31.31,0,0,0,.31.31.3.3,0,0,0,.31-.3.31.31,0,0,0-.62,0Z"/><path class="cls-2" d="M22.94,35.34a.31.31,0,0,0,.61,0,.31.31,0,1,0-.61,0Z"/><path class="cls-2" d="M23.81,31.82a.31.31,0,1,0,.31-.3A.31.31,0,0,0,23.81,31.82Z"/><path class="cls-2" d="M22.49,29.85a.3.3,0,0,0,.3.31.31.31,0,1,0,0-.62A.3.3,0,0,0,22.49,29.85Z"/><path class="cls-2" d="M26.49,25.07a.31.31,0,0,0,.31.31.3.3,0,0,0,.31-.3.31.31,0,0,0-.31-.31A.3.3,0,0,0,26.49,25.07Z"/><path class="cls-2" d="M23,24.1a.31.31,0,1,0,.31-.31A.32.32,0,0,0,23,24.1Z"/><path class="cls-2" d="M21.3,24.09a.31.31,0,1,0,.31-.31A.31.31,0,0,0,21.3,24.09Z"/><path class="cls-2" d="M19.05,24.08a.3.3,0,0,0,.3.31.31.31,0,1,0-.3-.31Z"/><path class="cls-2" d="M15.85,26.35a.3.3,0,0,0,.3.31.31.31,0,0,0,.31-.31.3.3,0,0,0-.31-.3A.29.29,0,0,0,15.85,26.35Z"/><path class="cls-2" d="M14,24.42a.31.31,0,0,0,.31.31.3.3,0,0,0,.31-.3.31.31,0,0,0-.62,0Z"/><path class="cls-2" d="M14,30a.29.29,0,0,0,.3.3.3.3,0,0,0,.31-.3.31.31,0,0,0-.31-.31A.3.3,0,0,0,14,30Z"/><path class="cls-2" d="M16.14,30.92a.31.31,0,0,0,.62,0,.32.32,0,0,0-.31-.31A.31.31,0,0,0,16.14,30.92Z"/><path class="cls-2" d="M14,32.61a.31.31,0,0,0,.31.31.3.3,0,0,0,.31-.3.31.31,0,0,0-.31-.31A.3.3,0,0,0,14,32.61Z"/><path class="cls-2" d="M15.4,37.8a.31.31,0,0,0,.31.31.31.31,0,0,0,0-.61A.3.3,0,0,0,15.4,37.8Z"/><path class="cls-2" d="M14,38.07a.31.31,0,1,0,.31-.3A.3.3,0,0,0,14,38.07Z"/><path class="cls-2" d="M16.08,41.92a.31.31,0,1,0,.31-.31A.32.32,0,0,0,16.08,41.92Z"/><path class="cls-2" d="M15.07,41.91a.31.31,0,0,0,.31.31.3.3,0,0,0,.31-.3.31.31,0,0,0-.31-.31A.3.3,0,0,0,15.07,41.91Z"/><path class="cls-2" d="M14.28,40.43a.31.31,0,0,0,.31.31.31.31,0,1,0,0-.62A.31.31,0,0,0,14.28,40.43Z"/><path class="cls-2" d="M13.79,39.51a.3.3,0,0,0,.3.31.31.31,0,1,0-.3-.31Z"/><path class="cls-2" d="M12.41,35.85a.31.31,0,0,0,.31.31.3.3,0,0,0,.31-.3.31.31,0,0,0-.31-.31A.3.3,0,0,0,12.41,35.85Z"/><path class="cls-2" d="M11.55,34.38a.31.31,0,0,0,.31.31.31.31,0,1,0-.31-.31Z"/><path class="cls-2" d="M11.17,32.46a.3.3,0,0,0,.3.31.31.31,0,0,0,.31-.31.31.31,0,0,0-.61,0Z"/><path class="cls-2" d="M9.92,28.88a.31.31,0,1,0,.62,0,.31.31,0,0,0-.62,0Z"/><path class="cls-2" d="M9,26.32a.31.31,0,0,0,.61,0,.3.3,0,0,0-.3-.31A.31.31,0,0,0,9,26.32Z"/><path class="cls-2" d="M11.9,25.31a.3.3,0,0,0,.31.3.3.3,0,0,0,.31-.3.31.31,0,0,0-.62,0Z"/><path class="cls-2" d="M11.78,30.5a.3.3,0,0,0,.3.31.31.31,0,0,0,.31-.31.32.32,0,0,0-.31-.31A.31.31,0,0,0,11.78,30.5Z"/><path class="cls-2" d="M12.78,32.07a.31.31,0,0,0,.31.31.31.31,0,0,0,0-.61A.3.3,0,0,0,12.78,32.07Z"/><path class="cls-2" d="M10.54,31.76a.31.31,0,0,0,.61,0,.3.3,0,0,0-.3-.31A.31.31,0,0,0,10.54,31.76Z"/><path class="cls-2" d="M4.44,30.5a.3.3,0,0,0,.3.31.31.31,0,0,0,.31-.31.3.3,0,0,0-.3-.31A.31.31,0,0,0,4.44,30.5Z"/><path class="cls-2" d="M5.13,28.37a.31.31,0,1,0,.61,0,.3.3,0,0,0-.3-.31A.31.31,0,0,0,5.13,28.37Z"/><path class="cls-2" d="M8.59,28.6a.31.31,0,0,0,.31.31.3.3,0,0,0,.3-.3.3.3,0,0,0-.3-.31A.3.3,0,0,0,8.59,28.6Z"/><path class="cls-2" d="M7.21,27.18a.31.31,0,0,0,.31.31.3.3,0,0,0,.31-.3.31.31,0,0,0-.31-.31A.3.3,0,0,0,7.21,27.18Z"/><path class="cls-2" d="M5.66,32.34A.31.31,0,1,0,6,32,.31.31,0,0,0,5.66,32.34Z"/><path class="cls-2" d="M3.15,33.18a.3.3,0,0,0,.3.31.31.31,0,1,0,0-.61A.3.3,0,0,0,3.15,33.18Z"/><path class="cls-2" d="M4.08,34.66a.31.31,0,1,0,.31-.31A.32.32,0,0,0,4.08,34.66Z"/><path class="cls-2" d="M8.52,41.36a.31.31,0,1,0,.31-.31A.31.31,0,0,0,8.52,41.36Z"/><path class="cls-2" d="M9.25,42.19a.31.31,0,0,0,.62,0,.32.32,0,0,0-.31-.31A.31.31,0,0,0,9.25,42.19Z"/><path class="cls-2" d="M11.72,41a.31.31,0,0,0,.31.31.32.32,0,0,0,.31-.31.31.31,0,0,0-.62,0Z"/><path class="cls-2" d="M11,38.71a.31.31,0,0,0,.31.31.32.32,0,0,0,.31-.31.31.31,0,0,0-.62,0Z"/><path class="cls-2" d="M10.32,37.16a.3.3,0,0,0,.3.31.31.31,0,0,0,.31-.31.3.3,0,0,0-.3-.3A.3.3,0,0,0,10.32,37.16Z"/><path class="cls-2" d="M5.64,35.62A.31.31,0,1,0,6,35.31.31.31,0,0,0,5.64,35.62Z"/><path class="cls-2" d="M6.61,40.39a.31.31,0,0,0,.62,0,.32.32,0,0,0-.31-.31A.31.31,0,0,0,6.61,40.39Z"/><path class="cls-2" d="M3.39,39.41a.31.31,0,0,0,.31.31.3.3,0,0,0,.31-.3.31.31,0,0,0-.62,0Z"/><path class="cls-2" d="M1.58,37a.31.31,0,0,0,.31.31A.3.3,0,0,0,2.2,37a.31.31,0,0,0-.31-.31A.3.3,0,0,0,1.58,37Z"/><path class="cls-2" d="M.89,33.67A.31.31,0,0,0,1.2,34a.3.3,0,0,0,.31-.3.31.31,0,0,0-.62,0Z"/><path class="cls-2" d="M.84,43.36a.3.3,0,0,0,.31.3.3.3,0,0,0,.31-.3.31.31,0,1,0-.62,0Z"/><path class="cls-2" d="M5.29,44.38a.31.31,0,0,0,.31.31.32.32,0,0,0,.31-.31.31.31,0,0,0-.62,0Z"/><path class="cls-2" d="M5.11,42.87a.3.3,0,0,0,.3.31.31.31,0,0,0,.31-.31.31.31,0,0,0-.61,0Z"/><path class="cls-2" d="M9.55,44.8a.3.3,0,0,0,.3.31.31.31,0,0,0,.31-.31.3.3,0,0,0-.3-.31A.31.31,0,0,0,9.55,44.8Z"/><path class="cls-2" d="M12.24,43.55a.31.31,0,0,0,.31.31.32.32,0,0,0,.31-.31.31.31,0,1,0-.62,0Z"/><path class="cls-2" d="M11.05,46.88a.31.31,0,0,0,.31.31.3.3,0,0,0,.31-.3.31.31,0,0,0-.31-.31A.3.3,0,0,0,11.05,46.88Z"/><path class="cls-2" d="M12.7,48a.3.3,0,0,0,.3.31.31.31,0,0,0,.31-.31.31.31,0,0,0-.61,0Z"/><path class="cls-2" d="M15.06,43.51a.31.31,0,1,0,.31-.31A.31.31,0,0,0,15.06,43.51Z"/><path class="cls-2" d="M10.77,42.73a.3.3,0,0,0,.3.31.31.31,0,1,0-.3-.31Z"/><path class="cls-2" d="M4.67,45.68A.3.3,0,0,0,5,46a.31.31,0,1,0-.3-.31Z"/><path class="cls-2" d="M5.56,46.86a.31.31,0,0,0,.61,0,.3.3,0,0,0-.3-.31A.31.31,0,0,0,5.56,46.86Z"/><path class="cls-2" d="M8.48,49.21a.31.31,0,0,0,.31.31.3.3,0,0,0,.31-.3.31.31,0,0,0-.31-.31A.3.3,0,0,0,8.48,49.21Z"/><path class="cls-2" d="M2.79,47.65A.31.31,0,0,0,3.1,48a.3.3,0,0,0,.31-.3.31.31,0,0,0-.31-.31A.3.3,0,0,0,2.79,47.65Z"/><path class="cls-2" d="M1.63,46.3a.31.31,0,1,0,.31-.3A.3.3,0,0,0,1.63,46.3Z"/><path class="cls-2" d="M2,43.16a.31.31,0,1,0,.31-.3A.3.3,0,0,0,2,43.16Z"/><path class="cls-2" d="M0,41.77a.32.32,0,0,0,.31.31.3.3,0,0,0,.3-.31.3.3,0,0,0-.3-.31A.31.31,0,0,0,0,41.77Z"/><path class="cls-2" d="M3.77,43a.31.31,0,1,0,.31-.31A.32.32,0,0,0,3.77,43Z"/><path class="cls-2" d="M4.36,41.16a.3.3,0,0,0,.3.31A.31.31,0,0,0,5,41.16a.3.3,0,0,0-.3-.31A.31.31,0,0,0,4.36,41.16Z"/><path class="cls-2" d="M6.91,44.07a.32.32,0,0,0,.31.31.31.31,0,1,0-.31-.31Z"/><path class="cls-2" d="M12.51,50.41a.31.31,0,1,0,.31-.31A.31.31,0,0,0,12.51,50.41Z"/><path class="cls-2" d="M10.77,49.23a.32.32,0,0,0,.31.31.31.31,0,1,0-.31-.31Z"/><path class="cls-2" d="M9.13,47.78a.3.3,0,0,0,.3.31.31.31,0,1,0-.3-.31Z"/><path class="cls-2" d="M13.92,48.76a.3.3,0,0,0,.3.31.31.31,0,1,0-.3-.31Z"/><path class="cls-2" d="M13.9,51.85a.31.31,0,0,0,.31.31.3.3,0,0,0,.31-.3.31.31,0,0,0-.31-.31A.3.3,0,0,0,13.9,51.85Z"/><path class="cls-2" d="M11,54.77a.31.31,0,0,0,.62,0,.31.31,0,1,0-.62,0Z"/><path class="cls-2" d="M9.07,58.86a.31.31,0,1,0,.31-.31A.31.31,0,0,0,9.07,58.86Z"/><path class="cls-2" d="M8.46,57.68a.31.31,0,0,0,.31.31.31.31,0,0,0,0-.61A.3.3,0,0,0,8.46,57.68Z"/><path class="cls-2" d="M15.33,50.79a.31.31,0,0,0,.31.31.3.3,0,0,0,.31-.3.31.31,0,0,0-.62,0Z"/><path class="cls-2" d="M14.27,42.61a.31.31,0,0,0,.31.31.3.3,0,0,0,.3-.31.29.29,0,0,0-.3-.3A.3.3,0,0,0,14.27,42.61Z"/><path class="cls-2" d="M8.55,40.4a.31.31,0,0,0,.31.31.31.31,0,0,0,0-.62A.31.31,0,0,0,8.55,40.4Z"/><path class="cls-2" d="M5.63,37.66a.31.31,0,1,0,.31-.3A.3.3,0,0,0,5.63,37.66Z"/><path class="cls-2" d="M4.11,38a.3.3,0,0,0,.3.31.31.31,0,1,0-.3-.31Z"/><path class="cls-2" d="M.87,37.94a.32.32,0,0,0,.31.31.31.31,0,1,0-.31-.31Z"/><path class="cls-2" d="M2.27,35a.32.32,0,0,0,.31.31A.31.31,0,1,0,2.27,35Z"/><path class="cls-2" d="M2.18,31.71a.31.31,0,0,0,.31.31.3.3,0,0,0,.31-.3.31.31,0,0,0-.31-.31A.3.3,0,0,0,2.18,31.71Z"/><path class="cls-2" d="M8.89,35.22a.31.31,0,1,0,.62,0,.3.3,0,0,0-.31-.3A.3.3,0,0,0,8.89,35.22Z"/><path class="cls-2" d="M15.62,34.15a.31.31,0,1,0,.31-.3A.3.3,0,0,0,15.62,34.15Z"/><path class="cls-2" d="M20.16,47.38a.31.31,0,0,0,.31.31.3.3,0,0,0,.31-.3.31.31,0,0,0-.31-.31A.3.3,0,0,0,20.16,47.38Z"/><path class="cls-2" d="M24.34,42.49a.3.3,0,0,0,.3.31.31.31,0,0,0,.31-.31.31.31,0,0,0-.61,0Z"/><path class="cls-2" d="M28.48,33.59a.31.31,0,0,0,.31.31.3.3,0,0,0,.31-.3.31.31,0,0,0-.31-.31A.3.3,0,0,0,28.48,33.59Z"/><path class="cls-2" d="M31.66,39.25a.31.31,0,0,0,.31.31.3.3,0,0,0,.31-.3.31.31,0,0,0-.62,0Z"/><path class="cls-2" d="M32.23,31.87a.31.31,0,1,0,.31-.31A.31.31,0,0,0,32.23,31.87Z"/><path class="cls-2" d="M38.53,36.91a.31.31,0,1,0,.31-.31A.31.31,0,0,0,38.53,36.91Z"/><path class="cls-2" d="M35.12,42.26a.31.31,0,1,0,.31-.31A.31.31,0,0,0,35.12,42.26Z"/><path class="cls-2" d="M16.18,24.13a.3.3,0,0,0,.3.31.31.31,0,0,0,.31-.31.3.3,0,0,0-.3-.31A.31.31,0,0,0,16.18,24.13Z"/><path class="cls-2" d="M23,26.65a.31.31,0,1,0,.31-.3A.3.3,0,0,0,23,26.65Z"/><path class="cls-2" d="M18.45,26.94a.3.3,0,0,0,.31.3.3.3,0,0,0,.31-.3.31.31,0,0,0-.62,0Z"/><path class="cls-2" d="M12.77,33.7a.31.31,0,1,0,.62,0,.32.32,0,0,0-.31-.31A.31.31,0,0,0,12.77,33.7Z"/><path class="cls-2" d="M1,44.63a.3.3,0,0,0,.3.31.31.31,0,0,0,.31-.31.3.3,0,0,0-.3-.31A.31.31,0,0,0,1,44.63Z"/><path class="cls-2" d="M3.75,48.71a.3.3,0,0,0,.3.31.31.31,0,1,0,0-.62A.3.3,0,0,0,3.75,48.71Z"/><path class="cls-2" d="M7.4,51.07a.31.31,0,0,0,.61,0,.31.31,0,0,0-.31-.31A.3.3,0,0,0,7.4,51.07Z"/><path class="cls-2" d="M12.71,46.36a.3.3,0,0,0,.3.31.31.31,0,0,0,.31-.31.32.32,0,0,0-.31-.31A.3.3,0,0,0,12.71,46.36Z"/><path class="cls-2" d="M7.21,46.33a.3.3,0,0,0,.3.31.31.31,0,0,0,.31-.31.31.31,0,0,0-.61,0Z"/><path class="cls-2" d="M18.37,43.75a.3.3,0,0,0,.3.31.3.3,0,0,0,.31-.3.31.31,0,0,0-.31-.31A.29.29,0,0,0,18.37,43.75Z"/><path class="cls-2" d="M14.71,51.86a.32.32,0,0,0,.31.31.31.31,0,1,0-.31-.31Z"/><path class="cls-2" d="M12.49,54.45a.31.31,0,0,0,.31.31.3.3,0,0,0,.31-.3.31.31,0,0,0-.62,0Z"/><path class="cls-2" d="M11.64,55.68A.3.3,0,0,0,12,56a.3.3,0,0,0,.31-.3.31.31,0,0,0-.31-.31A.32.32,0,0,0,11.64,55.68Z"/><path class="cls-2" d="M10,54a.3.3,0,0,0,.3.3.3.3,0,0,0,.31-.3.3.3,0,0,0-.3-.31A.31.31,0,0,0,10,54Z"/><path class="cls-2" d="M8.9,51.83a.3.3,0,0,0,.3.31.31.31,0,1,0,0-.62A.3.3,0,0,0,8.9,51.83Z"/><path class="cls-2" d="M6.69,51.82a.31.31,0,0,0,.31.3.3.3,0,0,0,.31-.3.31.31,0,1,0-.62,0Z"/><path class="cls-2" d="M5.57,49.49a.31.31,0,0,0,.31.31.3.3,0,0,0,.31-.3.31.31,0,0,0-.31-.31A.3.3,0,0,0,5.57,49.49Z"/><path class="cls-2" d="M7,50.38a.3.3,0,0,0,.3.31.31.31,0,0,0,.31-.31.3.3,0,0,0-.3-.31A.31.31,0,0,0,7,50.38Z"/><path class="cls-2" d="M12.52,49.06a.31.31,0,1,0,.61,0,.3.3,0,0,0-.3-.31A.31.31,0,0,0,12.52,49.06Z"/><path class="cls-2" d="M17.39,24.07a.31.31,0,0,0,.31.31.3.3,0,0,0,.3-.31.3.3,0,0,0-.3-.31A.31.31,0,0,0,17.39,24.07Z"/><path class="cls-2" d="M21.2,28.14a.31.31,0,0,0,.31.31.3.3,0,0,0,.31-.3.31.31,0,0,0-.31-.31A.3.3,0,0,0,21.2,28.14Z"/><path class="cls-2" d="M18.45,28.13a.3.3,0,0,0,.3.31.31.31,0,1,0-.3-.31Z"/><path class="cls-2" d="M18.42,33a.31.31,0,1,0,.31-.3A.3.3,0,0,0,18.42,33Z"/><path class="cls-2" d="M17,34.07a.31.31,0,1,0,.31-.31A.31.31,0,0,0,17,34.07Z"/><path class="cls-2" d="M16.83,35.61a.31.31,0,1,0,.61,0,.31.31,0,0,0-.61,0Z"/><path class="cls-2" d="M18,36.55a.3.3,0,0,0,.3.31.31.31,0,0,0,.31-.31.3.3,0,0,0-.3-.31A.31.31,0,0,0,18,36.55Z"/><path class="cls-2" d="M17,43.24a.31.31,0,0,0,.62,0,.32.32,0,0,0-.31-.31A.31.31,0,0,0,17,43.24Z"/><path class="cls-2" d="M19.59,43a.31.31,0,1,0,.62,0,.32.32,0,0,0-.31-.31A.31.31,0,0,0,19.59,43Z"/><path class="cls-2" d="M18.36,45.44a.31.31,0,1,0,.31-.3A.3.3,0,0,0,18.36,45.44Z"/><path class="cls-2" d="M16.42,49.55a.3.3,0,0,0,.3.31.31.31,0,0,0,.31-.31.3.3,0,0,0-.3-.31A.31.31,0,0,0,16.42,49.55Z"/><path class="cls-2" d="M18.69,39.84a.31.31,0,0,0,.62,0,.32.32,0,0,0-.31-.31A.31.31,0,0,0,18.69,39.84Z"/><path class="cls-2" d="M25.81,38.65a.31.31,0,1,0,.31-.3A.3.3,0,0,0,25.81,38.65Z"/></svg>