<svg width="195" height="161" viewBox="0 0 195 161" fill="none" xmlns="http://www.w3.org/2000/svg">
<path d="M190.715 49.7103C189.994 46.8418 189.093 43.9734 188.012 41.1497C174.904 7.62436 139.635 -1.24999 106.663 1.70813C103.059 2.02187 99.5008 2.51488 95.9873 3.14236C66.1682 7.53472 35.9887 24.7904 18.6918 49.6207C8.46679 64.2768 3.06151 83.146 6.84521 100.895C10.5839 118.509 23.6917 131.014 39.6373 138.633C42.1597 139.843 44.7723 140.919 47.3848 141.86C82.0687 154.41 126.978 155.261 158.103 133.255C161.436 130.924 164.544 128.325 167.472 125.501C187.337 106.228 197.426 76.8712 190.715 49.7103Z" fill="#E8F2F8"/>
<path d="M92.3432 11.4389C93.469 11.2137 94.5949 11.0335 95.7208 10.8984C89.1907 15.7172 83.111 21.1214 77.6618 27.066C67.9342 31.7046 58.1616 36.163 48.1639 40.1712C56.4053 30.2635 66.5832 21.977 78.2472 16.1675C82.9309 13.8707 87.6145 12.3396 92.3432 11.4389Z" fill="#1C976E"/>
<path d="M48.1639 40.2163C41.3637 48.4127 35.8694 57.7349 32.0865 67.6876C30.1499 72.7766 28.889 78.0457 28.4837 83.63C27.5379 97.4557 30.7354 110.921 36.9953 122.63C27.4929 119.433 18.9813 113.668 12.4962 105.967C10.0644 103.085 7.90268 99.9327 6.10128 96.555C-5.51774 81.063 -0.203613 55.3931 19.1614 50.079C29.0691 47.3769 38.7066 43.9992 48.1639 40.2163Z" fill="#1C976E"/>
<path d="M154.041 125.377C150.303 132.223 145.484 138.573 139.63 143.977C137.964 145.508 136.252 146.949 134.496 148.345C131.298 150.822 127.876 152.984 124.228 154.83C119.724 157.082 114.951 158.793 109.862 159.874C106.664 160.55 103.422 160.91 100.179 161C95.8559 161 91.6226 160.595 87.4794 159.874C65.4573 155.956 47.1731 141.545 36.9952 122.63C38.1211 122.99 39.292 123.351 40.4629 123.666C47.3082 125.512 54.4237 127.134 61.6293 128.44C72.4377 136.681 87.0741 140.689 100.765 140.374C119.229 139.924 137.874 134.609 154.041 125.377Z" fill="#E8F2F8"/>
<path d="M191.555 54.8977C201.868 77.7755 186.872 100.248 169.713 114.524C164.85 118.577 159.626 122.18 154.086 125.332C159.265 115.875 162.508 105.337 163.724 94.5735C173.001 79.5319 177.324 61.2927 175.928 43.3238C175.523 37.9196 174.532 32.6054 172.956 27.5615C180.702 35.5777 187.052 44.945 191.555 54.8977Z" fill="#214975"/>
<path d="M175.883 43.3688C177.279 61.3377 172.956 79.5769 163.679 94.6186C164.624 86.4672 164.444 78.1808 163.093 70.1195C159.716 49.5386 148.907 30.3537 130.668 18.5995C127.11 16.3028 123.282 14.4563 119.229 13.1053C116.392 12.1595 113.42 11.484 110.357 11.0787C113.33 9.63758 116.347 8.15143 119.364 6.75534C121.661 5.6745 124.003 4.54863 126.345 3.55786C144.133 5.44933 160.346 14.6815 172.956 27.6065C174.487 32.6504 175.478 37.9646 175.883 43.3688Z" fill="url(#paint0_linear)"/>
<path d="M171.74 24.0937C172.19 25.2646 172.55 26.4355 172.956 27.6064C160.346 14.6364 144.133 5.44923 126.345 3.51273C131.208 1.53119 136.207 0 141.431 0C155.167 0.045035 166.921 11.2137 171.74 24.0937Z" fill="url(#paint1_linear)"/>
<path d="M163.093 70.1193C164.399 78.1806 164.624 86.467 163.679 94.6184C156.113 106.913 145.259 117.091 131.569 123.261C109.862 133.033 85.1377 132.628 61.6745 128.44C52.7125 121.639 46.4076 111.957 45.3718 99.4821C44.7863 93.6726 45.2367 87.9982 46.4526 82.549C52.4873 62.1031 63.1606 42.8732 77.7069 27.156C88.6504 21.9319 99.5038 16.4377 110.402 11.1235C113.465 11.5288 116.437 12.2044 119.274 13.1501C123.327 14.5012 127.155 16.3476 130.713 18.6444C148.907 30.3535 159.716 49.4933 163.093 70.1193Z" fill="url(#paint2_linear)"/>
<path d="M163.679 94.6184C162.418 105.382 159.22 115.92 154.041 125.377C137.874 134.609 119.229 139.924 100.81 140.374C87.1192 140.689 72.4829 136.681 61.6745 128.44C85.1377 132.628 109.862 133.033 131.569 123.261C145.259 117.091 156.113 106.913 163.679 94.6184Z" fill="#1C976E"/>
<path d="M113.465 3.46778C117.833 3.06246 122.111 3.1075 126.345 3.55785C123.958 4.54862 121.661 5.62946 119.364 6.75533C116.347 8.19645 113.375 9.63757 110.357 11.0787C109.051 10.8985 107.7 10.8085 106.349 10.7634C102.836 10.4932 99.3237 10.5383 95.7659 10.9886C96.4865 10.4482 97.2521 9.90778 98.0177 9.36736C103.062 6.39505 108.241 4.45855 113.465 3.46778Z" fill="#E8F2F8"/>
<path d="M106.349 10.7182C107.7 10.7633 109.051 10.8984 110.357 11.0335C99.4588 16.3476 88.6053 21.8419 77.6618 27.0659C83.1561 21.1663 89.1908 15.7171 95.7209 10.9434C99.2786 10.493 102.836 10.448 106.349 10.7182Z" fill="url(#paint3_linear)"/>
<path d="M48.1639 40.2163C58.1617 36.2081 67.9343 31.7497 77.6618 27.1111C63.1155 42.8283 52.4873 62.0582 46.4076 82.5041C45.1466 87.9983 44.6962 93.6277 45.3267 99.4372C46.3625 111.957 52.7125 121.639 61.6294 128.395C54.4238 127.089 47.3083 125.467 40.463 123.621C39.2921 123.306 38.1211 122.945 36.9953 122.585C30.6904 110.876 27.4929 97.4107 28.4837 83.5849C28.889 78.0006 30.15 72.7315 32.0865 67.6425C35.8694 57.7349 41.3637 48.4126 48.1639 40.2163Z" fill="url(#paint4_linear)"/>
<path d="M118.959 92.772C136.096 92.772 149.988 78.8798 149.988 61.743C149.988 44.6061 136.096 30.7139 118.959 30.7139C101.822 30.7139 87.9298 44.6061 87.9298 61.743C87.9298 78.8798 101.822 92.772 118.959 92.772Z" fill="url(#paint5_radial)"/>
<path d="M118.959 89.5294C134.305 89.5294 146.745 77.089 146.745 61.7429C146.745 46.3968 134.305 33.9563 118.959 33.9563C103.613 33.9563 91.1723 46.3968 91.1723 61.7429C91.1723 77.089 103.613 89.5294 118.959 89.5294Z" fill="url(#paint6_radial)"/>
<path d="M118.959 80.1172C129.107 80.1172 137.333 71.8907 137.333 61.7429C137.333 51.5951 129.107 43.3687 118.959 43.3687C108.811 43.3687 100.585 51.5951 100.585 61.7429C100.585 71.8907 108.811 80.1172 118.959 80.1172Z" fill="url(#paint7_radial)"/>
<path d="M118.148 64.4H114.861L114.32 65.9312H112.069L115.221 57.1494H117.698L120.85 65.9312H118.599L118.148 64.4ZM116.527 59.5363L115.446 62.7337H117.608L116.527 59.5363Z" fill="#1C976E"/>
<path d="M121.886 57.1943H124.003V65.9762H121.886V57.1943Z" fill="#1C976E"/>
<path d="M128.101 52.4654V71.0649H109.547V52.4654H128.101ZM128.822 51.7449H108.826V71.7404H128.822V51.7449Z" fill="#1C976E"/>
<path d="M113.284 48.7727H112.024V52.1053H113.284V48.7727Z" fill="#1C976E"/>
<path d="M118.193 48.7727H116.932V52.1053H118.193V48.7727Z" fill="#1C976E"/>
<path d="M123.147 48.7727H121.886V52.1053H123.147V48.7727Z" fill="#1C976E"/>
<path d="M128.101 48.7727H126.84V52.1053H128.101V48.7727Z" fill="#1C976E"/>
<path d="M115.716 49.8984H114.456V52.0601H115.716V49.8984Z" fill="#1C976E"/>
<path d="M110.808 49.8984H109.547V52.0601H110.808V49.8984Z" fill="#1C976E"/>
<path d="M120.67 49.8984H119.409V52.0601H120.67V49.8984Z" fill="#1C976E"/>
<path d="M125.624 49.8984H124.363V52.0601H125.624V49.8984Z" fill="#1C976E"/>
<path d="M125.624 71.4253H124.363V74.7579H125.624V71.4253Z" fill="#1C976E"/>
<path d="M120.67 71.4253H119.409V74.7579H120.67V71.4253Z" fill="#1C976E"/>
<path d="M115.716 71.4253H114.456V74.7579H115.716V71.4253Z" fill="#1C976E"/>
<path d="M110.808 71.4253H109.547V74.7579H110.808V71.4253Z" fill="#1C976E"/>
<path d="M123.147 71.4253H121.886V73.587H123.147V71.4253Z" fill="#1C976E"/>
<path d="M128.101 71.4253H126.84V73.587H128.101V71.4253Z" fill="#1C976E"/>
<path d="M118.193 71.4253H116.932V73.587H118.193V71.4253Z" fill="#1C976E"/>
<path d="M113.284 71.4253H112.024V73.587H113.284V71.4253Z" fill="#1C976E"/>
<path d="M131.749 54.9424H128.416V56.2034H131.749V54.9424Z" fill="#1C976E"/>
<path d="M131.749 59.8962H128.416V61.1572H131.749V59.8962Z" fill="#1C976E"/>
<path d="M131.749 64.8052H128.416V66.0662H131.749V64.8052Z" fill="#1C976E"/>
<path d="M131.749 69.759H128.416V71.02H131.749V69.759Z" fill="#1C976E"/>
<path d="M130.578 57.4194H128.416V58.6804H130.578V57.4194Z" fill="#1C976E"/>
<path d="M130.578 52.4656H128.416V53.7266H130.578V52.4656Z" fill="#1C976E"/>
<path d="M130.578 62.3281H128.416V63.5891H130.578V62.3281Z" fill="#1C976E"/>
<path d="M130.578 67.282H128.416V68.543H130.578V67.282Z" fill="#1C976E"/>
<path d="M109.186 67.282H105.854V68.543H109.186V67.282Z" fill="#1C976E"/>
<path d="M109.186 62.3281H105.854V63.5891H109.186V62.3281Z" fill="#1C976E"/>
<path d="M109.186 57.4194H105.854V58.6804H109.186V57.4194Z" fill="#1C976E"/>
<path d="M109.186 52.4656H105.854V53.7266H109.186V52.4656Z" fill="#1C976E"/>
<path d="M109.186 64.8052H107.025V66.0662H109.186V64.8052Z" fill="#1C976E"/>
<path d="M109.186 69.759H107.025V71.02H109.186V69.759Z" fill="#1C976E"/>
<path d="M109.186 59.8962H107.025V61.1572H109.186V59.8962Z" fill="#1C976E"/>
<path d="M109.186 54.9424H107.025V56.2034H109.186V54.9424Z" fill="#1C976E"/>
<path d="M110.447 50.0339H110.177V47.5119L107.655 44.9899V38.0095H107.97V44.8548L110.447 47.3768V50.0339Z" fill="#1C976E"/>
<path d="M112.789 48.9529H112.474V45.4852L113.735 44.2693V33.9563H114.05V44.4044L112.789 45.6204V48.9529Z" fill="#1C976E"/>
<path d="M113.87 40.6666L110.537 37.379V31.2092H110.853V37.2439L114.095 40.4414L113.87 40.6666Z" fill="#1C976E"/>
<path d="M115.311 49.8987H114.996V46.7012L116.212 45.4853V31.7046H116.527V45.6204L115.311 46.8363V49.8987Z" fill="#1C976E"/>
<path d="M117.698 48.8179H117.383V46.2509L118.554 45.1251V27.1111H118.869V45.2602L117.698 46.386V48.8179Z" fill="#1C976E"/>
<path d="M120.22 36.7036H119.905V49.9439H120.22V36.7036Z" fill="#1C976E"/>
<path d="M122.697 48.9081H122.382V45.2152L120.986 43.7741V23.8687H121.301V43.639L122.697 45.0801V48.9081Z" fill="#1C976E"/>
<path d="M125.174 49.9889H124.859V43.9092L123.327 42.378V32.4253H123.643V42.2429L125.174 43.7741V49.9889Z" fill="#1C976E"/>
<path d="M123.688 37.4691L123.462 37.2439L125.534 35.1723V26.4355H125.849V35.3074L123.688 37.4691Z" fill="#1C976E"/>
<path d="M127.561 48.908H127.245V41.9276L129.182 39.9911V34.9922H129.497V40.1262L127.561 42.0176V48.908Z" fill="#1C976E"/>
<path d="M121.841 23.238C121.841 23.5983 121.526 23.9135 121.166 23.9135C120.805 23.9135 120.49 23.5983 120.49 23.238C120.49 22.8777 120.805 22.5625 121.166 22.5625C121.526 22.5625 121.841 22.8777 121.841 23.238Z" fill="#1C976E"/>
<path d="M117.067 31.029C117.067 31.3893 116.752 31.7046 116.392 31.7046C116.032 31.7046 115.716 31.3893 115.716 31.029C115.716 30.6688 116.032 30.3535 116.392 30.3535C116.752 30.3535 117.067 30.6688 117.067 31.029Z" fill="#1C976E"/>
<path d="M120.76 36.0281C120.76 36.3883 120.445 36.7036 120.085 36.7036C119.725 36.7036 119.409 36.3883 119.409 36.0281C119.409 35.6678 119.725 35.3525 120.085 35.3525C120.445 35.3525 120.76 35.6678 120.76 36.0281Z" fill="#1C976E"/>
<path d="M114.59 33.281C114.59 33.6413 114.275 33.9565 113.915 33.9565C113.555 33.9565 113.239 33.6413 113.239 33.281C113.239 32.9207 113.555 32.6055 113.915 32.6055C114.275 32.6055 114.59 32.9207 114.59 33.281Z" fill="#1C976E"/>
<path d="M111.348 30.5788C111.348 30.9391 111.033 31.2544 110.672 31.2544C110.312 31.2544 109.997 30.9391 109.997 30.5788C109.997 30.2186 110.312 29.9033 110.672 29.9033C111.078 29.9033 111.348 30.1735 111.348 30.5788Z" fill="#1C976E"/>
<path d="M108.466 37.334C108.466 37.6943 108.151 38.0095 107.79 38.0095C107.43 38.0095 107.115 37.6943 107.115 37.334C107.115 36.9737 107.43 36.6584 107.79 36.6584C108.151 36.6584 108.466 36.9737 108.466 37.334Z" fill="#1C976E"/>
<path d="M119.364 26.4355C119.364 26.7958 119.049 27.1111 118.689 27.1111C118.328 27.1111 118.013 26.7958 118.013 26.4355C118.013 26.0753 118.328 25.76 118.689 25.76C119.049 25.76 119.364 26.0753 119.364 26.4355Z" fill="#1C976E"/>
<path d="M126.39 25.8052C126.39 26.1654 126.075 26.4807 125.714 26.4807C125.354 26.4807 125.039 26.1654 125.039 25.8052C125.039 25.4449 125.354 25.1296 125.714 25.1296C126.075 25.1296 126.39 25.4449 126.39 25.8052Z" fill="#1C976E"/>
<path d="M124.138 31.7497C124.138 32.11 123.823 32.4253 123.462 32.4253C123.102 32.4253 122.787 32.11 122.787 31.7497C122.787 31.3895 123.102 31.0742 123.462 31.0742C123.823 31.0742 124.138 31.3895 124.138 31.7497Z" fill="#1C976E"/>
<path d="M129.993 34.3166C129.993 34.6769 129.677 34.9922 129.317 34.9922C128.957 34.9922 128.641 34.6769 128.641 34.3166C128.641 33.9564 128.957 33.6411 129.317 33.6411C129.677 33.6411 129.993 33.9113 129.993 34.3166Z" fill="#1C976E"/>
<path d="M129.948 85.4765H129.632V78.6312L127.111 76.1092V73.4521H127.426V75.9741L129.948 78.4961V85.4765Z" fill="#1C976E"/>
<path d="M123.868 89.5296H123.553V79.0815L124.769 77.8655V74.533H125.084V78.0006L123.868 79.2166V89.5296Z" fill="#1C976E"/>
<path d="M127.02 92.2767H126.705V86.242L123.508 83.0445L123.733 82.8193L127.02 86.1069V92.2767Z" fill="#1C976E"/>
<path d="M121.346 91.7813H121.031V77.8655L122.247 76.6495V73.5872H122.562V76.7846L121.346 78.0006V91.7813Z" fill="#1C976E"/>
<path d="M119.049 96.3748H118.734V78.2257L119.86 77.0999V74.668H120.175V77.235L119.049 78.3608V96.3748Z" fill="#1C976E"/>
<path d="M117.653 73.5872H117.338V86.8274H117.653V73.5872Z" fill="#1C976E"/>
<path d="M116.617 99.6176H116.302V79.8472L114.861 78.4061V74.5781H115.176V78.271L116.617 79.7121V99.6176Z" fill="#1C976E"/>
<path d="M114.231 91.0607H113.96V81.2431L112.384 79.7119V73.4971H112.699V79.5768L114.231 81.108V91.0607Z" fill="#1C976E"/>
<path d="M112.024 97.0504H111.708V88.1785L113.915 86.0168L114.14 86.242L112.024 88.3136V97.0504Z" fill="#1C976E"/>
<path d="M108.421 88.4939H108.106V83.3599L109.997 81.4685V74.5781H110.312V81.5585L108.421 83.495V88.4939Z" fill="#1C976E"/>
<path d="M115.762 100.248C115.762 99.8878 116.077 99.5725 116.437 99.5725C116.797 99.5725 117.113 99.8878 117.113 100.248C117.113 100.608 116.797 100.924 116.437 100.924C116.032 100.924 115.762 100.608 115.762 100.248Z" fill="#1C976E"/>
<path d="M120.535 92.4568C120.535 92.0965 120.851 91.7812 121.211 91.7812C121.571 91.7812 121.886 92.0965 121.886 92.4568C121.886 92.8171 121.571 93.1323 121.211 93.1323C120.851 93.1323 120.535 92.8171 120.535 92.4568Z" fill="#1C976E"/>
<path d="M116.842 87.458C116.842 87.0977 117.158 86.7825 117.518 86.7825C117.878 86.7825 118.194 87.0977 118.194 87.458C118.194 87.8183 117.878 88.1335 117.518 88.1335C117.113 88.1335 116.842 87.8183 116.842 87.458Z" fill="#1C976E"/>
<path d="M123.012 90.2051C123.012 89.8448 123.327 89.5295 123.688 89.5295C124.048 89.5295 124.363 89.8448 124.363 90.2051C124.363 90.5653 124.048 90.8806 123.688 90.8806C123.327 90.8806 123.012 90.5653 123.012 90.2051Z" fill="#1C976E"/>
<path d="M126.21 92.9072C126.21 92.5469 126.525 92.2317 126.885 92.2317C127.246 92.2317 127.561 92.5469 127.561 92.9072C127.561 93.2675 127.246 93.5827 126.885 93.5827C126.525 93.5827 126.21 93.3125 126.21 92.9072Z" fill="#1C976E"/>
<path d="M129.137 86.1518C129.137 85.7916 129.452 85.4763 129.813 85.4763C130.173 85.4763 130.488 85.7916 130.488 86.1518C130.488 86.5121 130.173 86.8274 129.813 86.8274C129.407 86.8274 129.137 86.5121 129.137 86.1518Z" fill="#1C976E"/>
<path d="M118.239 97.0505C118.239 96.6902 118.554 96.375 118.914 96.375C119.274 96.375 119.59 96.6902 119.59 97.0505C119.59 97.4108 119.274 97.726 118.914 97.726C118.554 97.726 118.239 97.4108 118.239 97.0505Z" fill="#1C976E"/>
<path d="M111.213 97.6809C111.213 97.3206 111.528 97.0054 111.889 97.0054C112.249 97.0054 112.564 97.3206 112.564 97.6809C112.564 98.0412 112.249 98.3564 111.889 98.3564C111.483 98.3564 111.213 98.0412 111.213 97.6809Z" fill="#1C976E"/>
<path d="M113.465 91.7363C113.465 91.376 113.78 91.0608 114.14 91.0608C114.501 91.0608 114.816 91.376 114.816 91.7363C114.816 92.0966 114.501 92.4118 114.14 92.4118C113.78 92.4118 113.465 92.0966 113.465 91.7363Z" fill="#1C976E"/>
<path d="M107.61 89.1694C107.61 88.8091 107.926 88.4939 108.286 88.4939C108.646 88.4939 108.961 88.8091 108.961 89.1694C108.961 89.5297 108.646 89.8449 108.286 89.8449C107.926 89.8449 107.61 89.5747 107.61 89.1694Z" fill="#1C976E"/>
<path d="M133.1 53.3663H130.443V53.051H133.01L135.487 50.5291H142.512V50.8443H135.622L133.1 53.3663Z" fill="#1C976E"/>
<path d="M146.52 56.924H136.117L134.856 55.663H131.524V55.3928H134.991L136.252 56.6088H146.52V56.924Z" fill="#1C976E"/>
<path d="M140.035 56.9689L139.81 56.7437L143.143 53.4111H149.267V53.7264H143.233L140.035 56.9689Z" fill="#1C976E"/>
<path d="M148.817 59.4008H134.901L133.685 58.1849H130.578V57.8696H133.82L135.036 59.0856H148.817V59.4008Z" fill="#1C976E"/>
<path d="M153.366 61.7426H135.262L134.091 60.5717H131.704V60.3015H134.226L135.397 61.4274H153.366V61.7426Z" fill="#1C976E"/>
<path d="M143.818 62.7786H130.578V63.0938H143.818V62.7786Z" fill="#1C976E"/>
<path d="M135.442 65.5707H131.614V65.2555H135.307L136.703 63.8594H156.608V64.1746H136.838L135.442 65.5707Z" fill="#1C976E"/>
<path d="M136.703 68.0476H130.488V67.7324H136.568L138.099 66.2012H148.097V66.5164H138.234L136.703 68.0476Z" fill="#1C976E"/>
<path d="M154.041 68.723H145.214L143.008 66.5614L143.233 66.3362L145.304 68.4528H154.041V68.723Z" fill="#1C976E"/>
<path d="M145.53 72.3709H140.396L138.459 70.4344H131.614V70.1191H138.594L140.486 72.0556H145.53V72.3709Z" fill="#1C976E"/>
<path d="M157.239 64.7151C156.878 64.7151 156.563 64.3998 156.563 64.0395C156.563 63.6793 156.878 63.364 157.239 63.364C157.599 63.364 157.914 63.6793 157.914 64.0395C157.914 64.3998 157.644 64.7151 157.239 64.7151Z" fill="#1C976E"/>
<path d="M149.448 59.9414C149.087 59.9414 148.772 59.6261 148.772 59.2659C148.772 58.9056 149.087 58.5903 149.448 58.5903C149.808 58.5903 150.123 58.9056 150.123 59.2659C150.123 59.6261 149.808 59.9414 149.448 59.9414Z" fill="#1C976E"/>
<path d="M144.449 63.6343C144.088 63.6343 143.773 63.319 143.773 62.9587C143.773 62.5984 144.088 62.2832 144.449 62.2832C144.809 62.2832 145.124 62.5984 145.124 62.9587C145.124 63.319 144.854 63.6343 144.449 63.6343Z" fill="#1C976E"/>
<path d="M147.196 57.4646C146.836 57.4646 146.52 57.1493 146.52 56.789C146.52 56.4288 146.836 56.1135 147.196 56.1135C147.556 56.1135 147.871 56.4288 147.871 56.789C147.871 57.1493 147.556 57.4646 147.196 57.4646Z" fill="#1C976E"/>
<path d="M149.943 54.2671C149.583 54.2671 149.267 53.9518 149.267 53.5915C149.267 53.2313 149.583 52.916 149.943 52.916C150.303 52.916 150.619 53.2313 150.619 53.5915C150.619 53.9518 150.303 54.2671 149.943 54.2671Z" fill="#1C976E"/>
<path d="M143.143 51.3398C142.782 51.3398 142.467 51.0246 142.467 50.6643C142.467 50.304 142.782 49.9888 143.143 49.9888C143.503 49.9888 143.818 50.304 143.818 50.6643C143.818 51.0246 143.548 51.3398 143.143 51.3398Z" fill="#1C976E"/>
<path d="M154.041 62.2383C153.681 62.2383 153.366 61.923 153.366 61.5627C153.366 61.2025 153.681 60.8872 154.041 60.8872C154.401 60.8872 154.717 61.2025 154.717 61.5627C154.717 61.923 154.446 62.2383 154.041 62.2383Z" fill="#1C976E"/>
<path d="M154.672 69.2636C154.311 69.2636 153.996 68.9484 153.996 68.5881C153.996 68.2278 154.311 67.9126 154.672 67.9126C155.032 67.9126 155.347 68.2278 155.347 68.5881C155.347 68.9484 155.077 69.2636 154.672 69.2636Z" fill="#1C976E"/>
<path d="M148.727 67.0119C148.367 67.0119 148.051 66.6967 148.051 66.3364C148.051 65.9761 148.367 65.6609 148.727 65.6609C149.087 65.6609 149.402 65.9761 149.402 66.3364C149.448 66.6967 149.132 67.0119 148.727 67.0119Z" fill="#1C976E"/>
<path d="M146.205 72.8664C145.845 72.8664 145.53 72.5512 145.53 72.1909C145.53 71.8306 145.845 71.5154 146.205 71.5154C146.565 71.5154 146.881 71.8306 146.881 72.1909C146.881 72.5512 146.565 72.8664 146.205 72.8664Z" fill="#1C976E"/>
<path d="M102.431 73.0015H95.4506V72.6863H102.341L104.818 70.1643H107.52V70.4795H104.953L102.431 73.0015Z" fill="#1C976E"/>
<path d="M106.439 68.1379H102.971L101.711 66.9219H91.3975V66.6067H101.846L103.062 67.8226H106.439V68.1379Z" fill="#1C976E"/>
<path d="M94.8202 70.0743H88.6504V69.759H94.6851L97.9276 66.5615L98.1077 66.7867L94.8202 70.0743Z" fill="#1C976E"/>
<path d="M107.385 65.6159H104.142L102.926 64.4H89.1458V64.0847H103.062L104.278 65.3007H107.385V65.6159Z" fill="#1C976E"/>
<path d="M106.259 63.229H103.737L102.566 62.1031H84.5972V61.7878H102.701L103.827 62.9137H106.259V63.229Z" fill="#1C976E"/>
<path d="M107.385 60.3918H94.1446V60.7071H107.385V60.3918Z" fill="#1C976E"/>
<path d="M101.26 59.6712H81.3097V59.3559H101.125L102.521 57.9148H106.349V58.23H102.656L101.26 59.6712Z" fill="#1C976E"/>
<path d="M99.8191 57.2844H89.8663V57.0142H99.684L101.26 55.438H107.43V55.7532H101.35L99.8191 57.2844Z" fill="#1C976E"/>
<path d="M94.73 57.1943L92.6134 55.0777H83.8766V54.7625H92.7485L94.9102 56.9692L94.73 57.1943Z" fill="#1C976E"/>
<path d="M106.349 53.3664H99.3687L97.4322 51.4749H92.4333V51.1597H97.5673L99.5038 53.0511H106.349V53.3664Z" fill="#1C976E"/>
<path d="M80.6792 58.8157C81.0395 58.8157 81.3548 59.1309 81.3548 59.4912C81.3548 59.8515 81.0395 60.1667 80.6792 60.1667C80.319 60.1667 80.0037 59.8515 80.0037 59.4912C80.0037 59.0859 80.319 58.8157 80.6792 58.8157Z" fill="#1C976E"/>
<path d="M88.5152 63.5894C88.8755 63.5894 89.1908 63.9046 89.1908 64.2649C89.1908 64.6252 88.8755 64.9404 88.5152 64.9404C88.155 64.9404 87.8397 64.6252 87.8397 64.2649C87.8397 63.9046 88.1099 63.5894 88.5152 63.5894Z" fill="#1C976E"/>
<path d="M93.4692 59.8965C93.8294 59.8965 94.1447 60.2117 94.1447 60.572C94.1447 60.9323 93.8294 61.2475 93.4692 61.2475C93.1089 61.2475 92.7936 60.9323 92.7936 60.572C92.7936 60.1667 93.1089 59.8965 93.4692 59.8965Z" fill="#1C976E"/>
<path d="M90.767 66.0662C91.1273 66.0662 91.4426 66.3814 91.4426 66.7417C91.4426 67.102 91.1273 67.4172 90.767 67.4172C90.4068 67.4172 90.0915 67.102 90.0915 66.7417C90.0465 66.3814 90.3617 66.0662 90.767 66.0662Z" fill="#1C976E"/>
<path d="M88.0199 69.2637C88.3801 69.2637 88.6954 69.5789 88.6954 69.9392C88.6954 70.2995 88.3801 70.6147 88.0199 70.6147C87.6596 70.6147 87.3443 70.2995 87.3443 69.9392C87.3443 69.5789 87.6596 69.2637 88.0199 69.2637Z" fill="#1C976E"/>
<path d="M94.7752 72.1912C95.1354 72.1912 95.4507 72.5064 95.4507 72.8667C95.4507 73.227 95.1354 73.5422 94.7752 73.5422C94.4149 73.5422 94.0996 73.227 94.0996 72.8667C94.0996 72.4614 94.4149 72.1912 94.7752 72.1912Z" fill="#1C976E"/>
<path d="M83.8767 61.2925C84.237 61.2925 84.5522 61.6077 84.5522 61.968C84.5522 62.3283 84.237 62.6435 83.8767 62.6435C83.5164 62.6435 83.2012 62.3283 83.2012 61.968C83.2012 61.6077 83.5164 61.2925 83.8767 61.2925Z" fill="#1C976E"/>
<path d="M83.2462 54.2671C83.6065 54.2671 83.9217 54.5823 83.9217 54.9426C83.9217 55.3029 83.6065 55.6181 83.2462 55.6181C82.8859 55.6181 82.5707 55.3029 82.5707 54.9426C82.5707 54.5373 82.8859 54.2671 83.2462 54.2671Z" fill="#1C976E"/>
<path d="M89.1907 56.5188C89.551 56.5188 89.8663 56.834 89.8663 57.1943C89.8663 57.5546 89.551 57.8698 89.1907 57.8698C88.8305 57.8698 88.5152 57.5546 88.5152 57.1943C88.5152 56.834 88.8305 56.5188 89.1907 56.5188Z" fill="#1C976E"/>
<path d="M91.7578 50.6643C92.1181 50.6643 92.4334 50.9796 92.4334 51.3398C92.4334 51.7001 92.1181 52.0154 91.7578 52.0154C91.3976 52.0154 91.0823 51.7001 91.0823 51.3398C91.0823 50.9796 91.3976 50.6643 91.7578 50.6643Z" fill="#1C976E"/>
<path d="M121.211 27.5164C123.573 27.5164 125.489 25.6009 125.489 23.238C125.489 20.8752 123.573 18.9597 121.211 18.9597C118.848 18.9597 116.932 20.8752 116.932 23.238C116.932 25.6009 118.848 27.5164 121.211 27.5164Z" fill="url(#paint8_radial)"/>
<path d="M121.211 25.5799C122.504 25.5799 123.552 24.5314 123.552 23.2381C123.552 21.9447 122.504 20.8962 121.211 20.8962C119.917 20.8962 118.869 21.9447 118.869 23.2381C118.869 24.5314 119.917 25.5799 121.211 25.5799Z" fill="url(#paint9_radial)"/>
<path d="M129.272 38.595C131.635 38.595 133.55 36.6795 133.55 34.3167C133.55 31.9538 131.635 30.0383 129.272 30.0383C126.909 30.0383 124.994 31.9538 124.994 34.3167C124.994 36.6795 126.909 38.595 129.272 38.595Z" fill="url(#paint10_radial)"/>
<path d="M129.272 36.6585C130.565 36.6585 131.614 35.61 131.614 34.3167C131.614 33.0233 130.565 31.9749 129.272 31.9749C127.979 31.9749 126.93 33.0233 126.93 34.3167C126.93 35.61 127.979 36.6585 129.272 36.6585Z" fill="url(#paint11_radial)"/>
<path d="M120.22 40.3062C122.583 40.3062 124.498 38.3907 124.498 36.0278C124.498 33.665 122.583 31.7495 120.22 31.7495C117.857 31.7495 115.942 33.665 115.942 36.0278C115.942 38.3907 117.857 40.3062 120.22 40.3062Z" fill="url(#paint12_radial)"/>
<path d="M122.562 36.0279C122.562 37.3339 121.526 38.3697 120.22 38.3697C118.914 38.3697 117.878 37.3339 117.878 36.0279C117.878 34.7218 118.914 33.686 120.22 33.686C121.526 33.686 122.562 34.7218 122.562 36.0279Z" fill="url(#paint13_radial)"/>
<path d="M143.278 54.9426C145.641 54.9426 147.556 53.0272 147.556 50.6643C147.556 48.3015 145.641 46.386 143.278 46.386C140.915 46.386 138.999 48.3015 138.999 50.6643C138.999 53.0272 140.915 54.9426 143.278 54.9426Z" fill="url(#paint14_radial)"/>
<path d="M143.278 53.0061C144.571 53.0061 145.62 51.9577 145.62 50.6643C145.62 49.371 144.571 48.3225 143.278 48.3225C141.984 48.3225 140.936 49.371 140.936 50.6643C140.936 51.9577 141.984 53.0061 143.278 53.0061Z" fill="url(#paint15_radial)"/>
<path d="M80.6792 63.9497C83.042 63.9497 84.9575 62.0342 84.9575 59.6714C84.9575 57.3085 83.042 55.3931 80.6792 55.3931C78.3163 55.3931 76.4009 57.3085 76.4009 59.6714C76.4009 62.0342 78.3163 63.9497 80.6792 63.9497Z" fill="url(#paint16_radial)"/>
<path d="M80.6793 62.0132C81.9726 62.0132 83.0211 60.9648 83.0211 59.6714C83.0211 58.3781 81.9726 57.3296 80.6793 57.3296C79.3859 57.3296 78.3375 58.3781 78.3375 59.6714C78.3375 60.9648 79.3859 62.0132 80.6793 62.0132Z" fill="url(#paint17_radial)"/>
<path d="M94.7751 77.28C97.1379 77.28 99.0534 75.3646 99.0534 73.0017C99.0534 70.6389 97.1379 68.7234 94.7751 68.7234C92.4122 68.7234 90.4968 70.6389 90.4968 73.0017C90.4968 75.3646 92.4122 77.28 94.7751 77.28Z" fill="url(#paint18_radial)"/>
<path d="M97.1169 73.0019C97.1169 74.3079 96.081 75.3437 94.775 75.3437C93.469 75.3437 92.4332 74.3079 92.4332 73.0019C92.4332 71.6959 93.469 70.66 94.775 70.66C96.081 70.615 97.1169 71.6959 97.1169 73.0019Z" fill="url(#paint19_radial)"/>
<path d="M88.5153 68.5432C90.8782 68.5432 92.7936 66.6277 92.7936 64.2649C92.7936 61.902 90.8782 59.9866 88.5153 59.9866C86.1525 59.9866 84.237 61.902 84.237 64.2649C84.237 66.6277 86.1525 68.5432 88.5153 68.5432Z" fill="url(#paint20_radial)"/>
<path d="M88.5153 66.6067C89.8087 66.6067 90.8572 65.5583 90.8572 64.2649C90.8572 62.9716 89.8087 61.9231 88.5153 61.9231C87.222 61.9231 86.1735 62.9716 86.1735 64.2649C86.1735 65.5583 87.222 66.6067 88.5153 66.6067Z" fill="url(#paint21_radial)"/>
<path d="M91.7578 55.6182C94.1206 55.6182 96.0361 53.7027 96.0361 51.3398C96.0361 48.977 94.1206 47.0615 91.7578 47.0615C89.3949 47.0615 87.4795 48.977 87.4795 51.3398C87.4795 53.7027 89.3949 55.6182 91.7578 55.6182Z" fill="url(#paint22_radial)"/>
<path d="M94.0997 51.3399C94.0997 52.6459 93.0639 53.6817 91.7579 53.6817C90.4519 53.6817 89.4161 52.6459 89.4161 51.3399C89.4161 50.0338 90.4519 48.998 91.7579 48.998C93.0639 48.998 94.0997 50.0338 94.0997 51.3399Z" fill="url(#paint23_radial)"/>
<path d="M149.448 63.5442C151.81 63.5442 153.726 61.6287 153.726 59.2659C153.726 56.903 151.81 54.9875 149.448 54.9875C147.085 54.9875 145.169 56.903 145.169 59.2659C145.169 61.6287 147.085 63.5442 149.448 63.5442Z" fill="url(#paint24_radial)"/>
<path d="M151.789 59.2659C151.789 60.5719 150.754 61.6077 149.447 61.6077C148.141 61.6077 147.106 60.5719 147.106 59.2659C147.106 57.9599 148.141 56.9241 149.447 56.9241C150.754 56.9241 151.789 57.9599 151.789 59.2659Z" fill="url(#paint25_radial)"/>
<path d="M157.239 68.363C159.602 68.363 161.517 66.4476 161.517 64.0847C161.517 61.7219 159.602 59.8064 157.239 59.8064C154.876 59.8064 152.96 61.7219 152.96 64.0847C152.96 66.4476 154.876 68.363 157.239 68.363Z" fill="url(#paint26_radial)"/>
<path d="M159.58 64.0847C159.58 65.3908 158.545 66.4266 157.239 66.4266C155.933 66.4266 154.897 65.3908 154.897 64.0847C154.897 62.7787 155.933 61.7429 157.239 61.7429C158.545 61.7429 159.58 62.8238 159.58 64.0847Z" fill="url(#paint27_radial)"/>
<path d="M146.205 76.4692C148.568 76.4692 150.483 74.5538 150.483 72.1909C150.483 69.8281 148.568 67.9126 146.205 67.9126C143.842 67.9126 141.927 69.8281 141.927 72.1909C141.927 74.5538 143.842 76.4692 146.205 76.4692Z" fill="url(#paint28_radial)"/>
<path d="M148.547 72.1908C148.547 73.4968 147.511 74.5326 146.205 74.5326C144.899 74.5326 143.863 73.4968 143.863 72.1908C143.863 70.8848 144.899 69.849 146.205 69.849C147.466 69.804 148.547 70.8848 148.547 72.1908Z" fill="url(#paint29_radial)"/>
<path d="M131.704 86.1517C131.704 87.1875 130.848 88.0432 129.812 88.0432C128.777 88.0432 127.921 87.1875 127.921 86.1517C127.921 85.1159 128.777 84.2602 129.812 84.2602C130.848 84.2152 131.704 85.0709 131.704 86.1517Z" fill="url(#paint30_radial)"/>
<path d="M130.848 86.1518C130.848 86.7372 130.398 87.1876 129.812 87.1876C129.227 87.1876 128.777 86.7372 128.777 86.1518C128.777 85.5663 129.227 85.116 129.812 85.116C130.398 85.116 130.848 85.5663 130.848 86.1518Z" fill="url(#paint31_radial)"/>
<path d="M117.518 89.4394C118.562 89.4394 119.409 88.5926 119.409 87.548C119.409 86.5033 118.562 85.6565 117.518 85.6565C116.473 85.6565 115.626 86.5033 115.626 87.548C115.626 88.5926 116.473 89.4394 117.518 89.4394Z" fill="url(#paint32_radial)"/>
<path d="M117.518 88.5838C118.09 88.5838 118.554 88.1201 118.554 87.548C118.554 86.9759 118.09 86.5122 117.518 86.5122C116.946 86.5122 116.482 86.9759 116.482 87.548C116.482 88.1201 116.946 88.5838 117.518 88.5838Z" fill="url(#paint33_radial)"/>
<path d="M144.539 64.8503C145.583 64.8503 146.43 64.0035 146.43 62.9588C146.43 61.9142 145.583 61.0674 144.539 61.0674C143.494 61.0674 142.647 61.9142 142.647 62.9588C142.647 64.0035 143.494 64.8503 144.539 64.8503Z" fill="url(#paint34_radial)"/>
<path d="M145.62 62.9588C145.62 63.5443 145.169 63.9946 144.584 63.9946C143.998 63.9946 143.548 63.5443 143.548 62.9588C143.548 62.3734 143.998 61.923 144.584 61.923C145.124 61.878 145.62 62.3734 145.62 62.9588Z" fill="url(#paint35_radial)"/>
<path d="M109.682 37.3339C109.682 38.3697 108.826 39.2253 107.79 39.2253C106.754 39.2253 105.899 38.3697 105.899 37.3339C105.899 36.298 106.754 35.4424 107.79 35.4424C108.826 35.4424 109.682 36.298 109.682 37.3339Z" fill="url(#paint36_radial)"/>
<path d="M108.826 37.3339C108.826 37.9194 108.376 38.3697 107.79 38.3697C107.205 38.3697 106.755 37.9194 106.755 37.3339C106.755 36.7484 107.205 36.2981 107.79 36.2981C108.376 36.2981 108.826 36.7484 108.826 37.3339Z" fill="url(#paint37_radial)"/>
<path d="M118.283 31.0741C118.283 32.1099 117.428 32.9655 116.392 32.9655C115.356 32.9655 114.5 32.1099 114.5 31.0741C114.5 30.0383 115.356 29.1826 116.392 29.1826C117.428 29.1376 118.283 29.9932 118.283 31.0741Z" fill="url(#paint38_radial)"/>
<path d="M117.428 31.0741C117.428 31.6595 116.977 32.1099 116.392 32.1099C115.806 32.1099 115.356 31.6595 115.356 31.0741C115.356 30.4886 115.806 30.0382 116.392 30.0382C116.932 29.9932 117.428 30.4886 117.428 31.0741Z" fill="url(#paint39_radial)"/>
<path d="M125.714 27.6965C126.759 27.6965 127.606 26.8497 127.606 25.805C127.606 24.7604 126.759 23.9136 125.714 23.9136C124.67 23.9136 123.823 24.7604 123.823 25.805C123.823 26.8497 124.67 27.6965 125.714 27.6965Z" fill="url(#paint40_radial)"/>
<path d="M125.714 26.8407C126.286 26.8407 126.75 26.3769 126.75 25.8048C126.75 25.2328 126.286 24.769 125.714 24.769C125.142 24.769 124.678 25.2328 124.678 25.8048C124.678 26.3769 125.142 26.8407 125.714 26.8407Z" fill="url(#paint41_radial)"/>
<path d="M149.943 55.438C150.988 55.438 151.834 54.5911 151.834 53.5465C151.834 52.5019 150.988 51.655 149.943 51.655C148.898 51.655 148.051 52.5019 148.051 53.5465C148.051 54.5911 148.898 55.438 149.943 55.438Z" fill="url(#paint42_radial)"/>
<path d="M149.943 54.5823C150.515 54.5823 150.979 54.1186 150.979 53.5465C150.979 52.9745 150.515 52.5107 149.943 52.5107C149.371 52.5107 148.907 52.9745 148.907 53.5465C148.907 54.1186 149.371 54.5823 149.943 54.5823Z" fill="url(#paint43_radial)"/>
<path d="M156.608 68.5431C156.608 69.5789 155.752 70.4345 154.717 70.4345C153.681 70.4345 152.825 69.5789 152.825 68.5431C152.825 67.5073 153.681 66.6516 154.717 66.6516C155.752 66.6516 156.608 67.5073 156.608 68.5431Z" fill="url(#paint44_radial)"/>
<path d="M155.752 68.5431C155.752 69.1286 155.302 69.5789 154.717 69.5789C154.131 69.5789 153.681 69.1286 153.681 68.5431C153.681 67.9577 154.131 67.5073 154.717 67.5073C155.257 67.5073 155.752 68.0027 155.752 68.5431Z" fill="url(#paint45_radial)"/>
<path d="M93.4691 62.4634C94.5137 62.4634 95.3605 61.6165 95.3605 60.5719C95.3605 59.5273 94.5137 58.6804 93.4691 58.6804C92.4244 58.6804 91.5776 59.5273 91.5776 60.5719C91.5776 61.6165 92.4244 62.4634 93.4691 62.4634Z" fill="url(#paint46_radial)"/>
<path d="M94.55 60.5719C94.55 61.1573 94.0997 61.6077 93.5142 61.6077C92.9288 61.6077 92.4784 61.1573 92.4784 60.5719C92.4784 59.9864 92.9288 59.5361 93.5142 59.5361C94.0546 59.491 94.55 59.9864 94.55 60.5719Z" fill="url(#paint47_radial)"/>
<path d="M87.9298 71.8308C88.9745 71.8308 89.8213 70.9839 89.8213 69.9393C89.8213 68.8947 88.9745 68.0479 87.9298 68.0479C86.8852 68.0479 86.0384 68.8947 86.0384 69.9393C86.0384 70.9839 86.8852 71.8308 87.9298 71.8308Z" fill="url(#paint48_radial)"/>
<path d="M88.9657 69.9394C88.9657 70.5248 88.5153 70.9752 87.9299 70.9752C87.3444 70.9752 86.8941 70.5248 86.8941 69.9394C86.8941 69.3539 87.3444 68.9036 87.9299 68.9036C88.5153 68.9036 88.9657 69.3539 88.9657 69.9394Z" fill="url(#paint49_radial)"/>
<path d="M83.2461 56.8342C84.2907 56.8342 85.1376 55.9874 85.1376 54.9427C85.1376 53.8981 84.2907 53.0513 83.2461 53.0513C82.2015 53.0513 81.3547 53.8981 81.3547 54.9427C81.3547 55.9874 82.2015 56.8342 83.2461 56.8342Z" fill="url(#paint50_radial)"/>
<path d="M83.2462 55.9786C83.8182 55.9786 84.282 55.5148 84.282 54.9428C84.282 54.3707 83.8182 53.907 83.2462 53.907C82.6741 53.907 82.2104 54.3707 82.2104 54.9428C82.2104 55.5148 82.6741 55.9786 83.2462 55.9786Z" fill="url(#paint51_radial)"/>
<path d="M126.885 97.1855C129.248 97.1855 131.163 95.2701 131.163 92.9072C131.163 90.5444 129.248 88.6289 126.885 88.6289C124.522 88.6289 122.607 90.5444 122.607 92.9072C122.607 95.2701 124.522 97.1855 126.885 97.1855Z" fill="url(#paint52_radial)"/>
<path d="M129.227 92.9072C129.227 94.2133 128.191 95.2491 126.885 95.2491C125.579 95.2491 124.543 94.2133 124.543 92.9072C124.543 91.6012 125.579 90.5654 126.885 90.5654C128.191 90.5654 129.227 91.6463 129.227 92.9072Z" fill="url(#paint53_radial)"/>
<path d="M108.286 93.8079C110.649 93.8079 112.564 91.8924 112.564 89.5295C112.564 87.1667 110.649 85.2512 108.286 85.2512C105.923 85.2512 104.007 87.1667 104.007 89.5295C104.007 91.8924 105.923 93.8079 108.286 93.8079Z" fill="url(#paint54_radial)"/>
<path d="M108.286 91.8714C109.579 91.8714 110.628 90.8229 110.628 89.5296C110.628 88.2362 109.579 87.1877 108.286 87.1877C106.992 87.1877 105.944 88.2362 105.944 89.5296C105.944 90.8229 106.992 91.8714 108.286 91.8714Z" fill="url(#paint55_radial)"/>
<path d="M116.437 104.526C118.8 104.526 120.715 102.611 120.715 100.248C120.715 97.885 118.8 95.9695 116.437 95.9695C114.074 95.9695 112.159 97.885 112.159 100.248C112.159 102.611 114.074 104.526 116.437 104.526Z" fill="url(#paint56_radial)"/>
<path d="M118.779 100.248C118.779 101.554 117.743 102.59 116.437 102.59C115.131 102.59 114.095 101.554 114.095 100.248C114.095 98.9418 115.131 97.906 116.437 97.906C117.743 97.906 118.779 98.9418 118.779 100.248Z" fill="url(#paint57_radial)"/>
<path d="M110.808 34.8569C113.17 34.8569 115.086 32.9415 115.086 30.5786C115.086 28.2158 113.17 26.3003 110.808 26.3003C108.445 26.3003 106.529 28.2158 106.529 30.5786C106.529 32.9415 108.445 34.8569 110.808 34.8569Z" fill="url(#paint58_radial)"/>
<path d="M113.149 30.5786C113.149 31.8846 112.114 32.9205 110.808 32.9205C109.502 32.9205 108.466 31.8846 108.466 30.5786C108.466 29.2726 109.502 28.2368 110.808 28.2368C112.114 28.2368 113.149 29.2726 113.149 30.5786Z" fill="url(#paint59_radial)"/>
<path d="M116.347 87.8179C115.581 87.998 112.744 91.7359 112.249 89.8445C111.979 88.8987 113.059 87.908 113.014 86.9172C112.879 85.431 110.898 86.7821 110.267 87.2324C109.276 87.998 108.691 88.9888 108.376 90.1147C107.79 89.5292 106.89 89.4842 106.214 89.9796L104.503 91.3306L103.332 92.2313L89.6412 102.77C89.0107 103.265 88.8306 104.166 89.1908 104.841C88.7855 105.021 88.4252 105.111 88.155 105.156C86.5338 103.85 83.2913 98.5362 80.1838 92.2313C80.5892 91.2856 80.8143 90.2498 80.8143 89.1689C80.8143 84.9357 77.3917 81.513 73.1584 81.513C70.4563 81.513 68.1145 82.9091 66.7634 84.9807C63.611 83.9899 59.6029 83.4495 54.7391 83.3144C62.5752 81.4229 69.0152 75.9737 72.3478 68.8132H73.2034C74.2843 68.8132 75.3201 68.1376 75.6353 67.0568C76.6261 64.1745 77.1665 61.1122 77.1665 57.8697V57.5094C77.1665 56.1133 75.9956 54.9424 74.5545 54.9424C73.1134 41.8822 62.0348 31.7043 48.5693 31.7043C35.1039 31.7043 24.0252 41.8822 22.5841 54.9424C21.188 54.9424 20.0171 56.0683 19.9721 57.5094V57.8697C19.9721 61.0671 20.5125 64.1745 21.5033 67.0568C21.8636 68.0926 22.8543 68.8132 23.9352 68.8132H24.7908C28.0784 75.9737 34.5634 81.4229 42.3995 83.3144C37.5357 83.4495 33.5276 83.9899 30.3752 84.9807C29.6997 85.2059 29.0241 85.431 28.4387 85.6562C29.0241 85.386 29.6997 85.1608 30.3752 84.9807C29.0241 82.9091 26.6373 81.513 23.9802 81.513C19.7469 81.513 16.3243 84.9357 16.3243 89.1689C16.3243 89.9345 16.4594 90.6551 16.6395 91.3757C13.397 95.9692 9.11868 102.679 8.66833 106.958C8.30805 110.245 10.1094 115.424 12.2711 120.243C11.6406 120.693 11.4155 121.594 11.7757 122.315L19.7469 137.672L20.4225 139.023L21.4132 140.959C21.8185 141.68 22.6742 142.04 23.4398 141.77C23.2146 142.896 23.3497 144.067 23.9352 145.147C24.7008 146.589 26.1419 147.624 27.7631 147.895C28.7539 148.03 31.5911 147.804 31.5011 146.318C31.456 145.508 28.3036 142.085 30.2401 141.905C31.2308 141.815 31.9964 143.076 32.9872 143.166C34.4734 143.301 33.4826 141.094 33.1223 140.419C32.5369 139.338 31.6812 138.527 30.6454 138.077C31.3209 137.627 31.5461 136.726 31.1408 135.96L30.15 134.024L23.755 137.356L30.15 134.024L29.4745 132.673L21.5033 117.316C21.098 116.55 20.2423 116.235 19.4767 116.55C17.7204 112.632 16.5494 109.255 16.7296 107.903C16.9548 105.967 19.6569 101.328 22.8093 96.7799C23.0345 96.8249 23.2597 96.8699 23.5299 96.8699L23.755 96.8249C24.9259 105.922 28.889 119.117 31.5461 121.099C31.7713 121.279 32.0415 121.459 32.3567 121.594C32.3567 121.594 33.7978 131.096 36.635 131.862C40.2829 132.808 44.4261 132.988 48.7044 132.988C52.9827 132.988 57.1259 132.808 60.7738 131.862C63.611 131.096 65.0521 121.594 65.0521 121.594C65.3673 121.459 65.6376 121.279 65.8627 121.099C68.5198 119.117 72.4829 105.967 73.6538 96.8699C74.1492 97.9057 74.7346 98.9866 75.3201 100.067C80.8594 110.425 83.9668 112.452 86.2636 113.037C86.7589 113.173 87.2994 113.218 87.8398 113.218C89.7763 113.218 91.983 112.497 94.3248 111.326C94.9103 111.867 95.811 111.912 96.4415 111.416L110.132 100.878L111.303 99.9773L113.014 98.6263C113.69 98.1309 113.825 97.1852 113.42 96.5096C114.546 96.5096 115.716 96.1944 116.662 95.4288C117.968 94.438 118.734 92.8168 118.689 91.1955C118.554 90.2048 117.833 87.4576 116.347 87.8179ZM24.0703 88.4484C24.3405 88.1782 24.6557 87.908 24.971 87.6378C24.6557 87.908 24.3405 88.1782 24.0703 88.4484ZM64.6918 98.6263H54.8742C54.7391 98.6263 54.649 98.5813 54.5139 98.5362C54.604 98.5813 54.7391 98.6263 54.8742 98.6263H64.6918C64.7819 98.6263 64.917 98.6263 65.0071 98.5813C64.872 98.5813 64.7819 98.6263 64.6918 98.6263ZM72.9783 88.4934C72.7981 88.2682 72.618 88.0881 72.3928 87.953C72.618 88.0881 72.7981 88.2682 72.9783 88.4934Z" fill="#E5E5E6"/>
<path d="M91.6679 111.191C91.1275 111.191 90.5871 111.146 90.0917 111.011C87.7949 110.425 84.6875 108.399 79.1482 98.0408C76.356 92.8617 74.2394 87.9079 74.1493 87.6827L81.535 84.5303C85.2279 93.0869 90.0467 101.508 92.1633 103.175C94.4601 102.769 100.99 98.356 106.394 93.5823L111.754 99.572C106.62 104.075 97.6576 111.191 91.6679 111.191Z" fill="url(#paint60_linear)"/>
<path d="M21.5484 128.62C19.2517 124.657 11.911 111.326 12.6315 104.976C13.3521 98.6265 22.314 86.9624 24.1154 84.7107L30.4203 89.6645C25.9619 95.3389 20.9179 103.175 20.6027 105.877C20.3325 108.354 24.5658 117.721 28.5289 124.612L21.5484 128.62Z" fill="url(#paint61_linear)"/>
<path d="M113.96 98.8515L115.131 97.9057L108.466 89.259L107.295 90.2048L113.96 98.8515Z" fill="url(#paint62_linear)"/>
<path d="M117.293 94.4381C118.419 94.4381 119.59 94.1229 120.535 93.3573C121.841 92.3665 122.607 90.7452 122.562 89.124C122.517 88.0882 121.841 85.3861 120.355 85.7464C119.59 85.9265 116.752 89.6644 116.257 87.7729C115.987 86.8272 117.068 85.8364 117.023 84.8457C116.887 83.3595 114.906 84.7106 114.275 85.1609C113.285 85.9265 112.699 86.9173 112.384 88.0431C112.429 88.0882 112.474 88.1332 112.519 88.2233L117.158 94.258C117.203 94.348 117.248 94.3931 117.293 94.4381Z" fill="url(#paint63_linear)"/>
<path d="M117.293 94.438C117.248 94.393 117.203 94.3029 117.158 94.2579L112.519 88.2232C112.474 88.1782 112.429 88.1331 112.384 88.0431C111.798 87.4576 110.898 87.4126 110.222 87.908L108.511 89.259L115.176 97.9057L116.887 96.5547C117.518 96.0593 117.698 95.1586 117.293 94.438ZM93.5593 100.743C92.8388 101.283 92.7037 102.319 93.2441 103.04L97.8827 109.074C98.4231 109.795 99.4589 109.93 100.179 109.39L113.87 98.8515L107.205 90.2047L93.5593 100.743Z" fill="url(#paint64_linear)"/>
<path d="M23.6652 135.645L24.3407 136.996L34.0683 131.952L33.3477 130.601L23.6652 135.645Z" fill="url(#paint65_linear)"/>
<path d="M27.4031 139.698C27.1779 140.824 27.313 141.995 27.8984 143.076C28.664 144.517 30.1052 145.553 31.7264 145.823C32.7172 145.958 35.5544 145.733 35.4643 144.247C35.4193 143.436 32.2668 140.013 34.2033 139.833C35.1941 139.743 35.9597 141.004 36.9505 141.094C38.4366 141.229 37.4459 139.023 37.0856 138.347C36.5001 137.266 35.6445 136.456 34.6086 136.005C34.5636 136.05 34.4735 136.095 34.4285 136.14L27.6733 139.653C27.5382 139.653 27.4481 139.698 27.4031 139.698Z" fill="url(#paint66_linear)"/>
<path d="M35.059 133.889L34.0682 131.952L24.3407 136.996L25.3315 138.933C25.7368 139.653 26.5924 140.014 27.358 139.743C27.4031 139.698 27.4931 139.698 27.5382 139.653L34.2934 136.141C34.3385 136.096 34.4285 136.05 34.4736 136.005C35.1941 135.51 35.4643 134.654 35.059 133.889ZM25.3765 115.244C24.9712 114.434 23.9804 114.118 23.1698 114.524L16.4145 118.037C15.6039 118.442 15.2887 119.433 15.694 120.243L23.6652 135.6L33.3477 130.601L25.3765 115.244Z" fill="url(#paint67_linear)"/>
<path d="M68.7001 94.7983C69.1955 94.7983 69.5558 95.2037 69.5558 95.654C69.5558 96.1494 69.1505 96.5097 68.7001 96.5097H58.8825C58.3871 96.5097 58.0268 96.1044 58.0268 95.654C58.0268 95.1586 58.4322 94.7983 58.8825 94.7983H68.7001Z" fill="url(#paint68_linear)"/>
<path d="M78.5177 52.9609C79.9138 52.9609 81.0847 54.0868 81.1297 55.5279C81.1297 55.663 81.1297 55.7531 81.1297 55.8882C81.1297 59.0857 80.5893 62.1931 79.5985 65.0753C79.2382 66.1111 78.2475 66.8317 77.1666 66.8317H76.311C77.8422 63.4991 78.6978 59.8063 78.6978 55.9332C78.6978 54.8974 78.6528 53.9517 78.5177 52.9609Z" fill="url(#paint69_linear)"/>
<path d="M84.7776 87.1874C84.7776 91.2406 81.6702 94.5281 77.7071 94.8434L77.4819 94.7983C77.9773 90.7002 77.9323 87.4576 76.9415 86.4218C75.5454 84.9807 73.4738 83.8548 70.7267 82.9992C72.0777 80.9276 74.4646 79.5315 77.1217 79.5315C81.3549 79.5315 84.7776 82.9542 84.7776 87.1874Z" fill="url(#paint70_linear)"/>
<path d="M52.5326 43.5037C52.2623 43.5037 51.9921 43.2785 51.9921 42.9633C51.9921 42.6931 52.2173 42.4229 52.5326 42.4229C52.8028 42.4229 53.073 42.648 53.073 42.9633C53.0279 43.2785 52.8028 43.5037 52.5326 43.5037Z" fill="url(#paint71_linear)"/>
<path d="M52.5325 41.7922C51.857 41.7922 51.3166 42.3327 51.3166 43.0082C51.3166 43.6837 51.857 44.2241 52.5325 44.2241C53.2081 44.2241 53.7485 43.6837 53.7485 43.0082C53.7034 42.3327 53.163 41.7922 52.5325 41.7922Z" fill="#220035"/>
<path d="M52.5325 40.4412C51.1365 40.4412 50.0106 41.567 50.0106 42.9631C50.0106 44.3592 51.1365 45.4851 52.5325 45.4851C53.9286 45.4851 55.0545 44.3592 55.0545 42.9631C55.0545 41.6121 53.9286 40.4412 52.5325 40.4412ZM52.5325 44.1791C51.857 44.1791 51.3166 43.6386 51.3166 42.9631C51.3166 42.2876 51.857 41.7472 52.5325 41.7472C53.2081 41.7472 53.7485 42.2876 53.7485 42.9631C53.7035 43.6386 53.163 44.1791 52.5325 44.1791Z" fill="url(#paint72_linear)"/>
<path d="M40.4632 74.8928C38.3465 74.8928 36.5001 73.3166 36.1849 71.2L33.843 55.3476C33.6629 54.0867 34.0232 52.8257 34.8338 51.88C35.6444 50.9342 36.8604 50.3938 38.1214 50.3938H66.8537C68.1146 50.3938 69.2855 50.9342 70.1412 51.88C70.9518 52.8257 71.3121 54.0867 71.132 55.3476L68.7902 71.2C68.4749 73.3166 66.6285 74.8928 64.5118 74.8928H40.4632Z" fill="url(#paint73_linear)"/>
<path d="M66.8987 51.0244C67.9795 51.0244 68.9703 51.4747 69.6458 52.2854C70.3214 53.096 70.6366 54.1318 70.5015 55.2126L68.1597 71.0649C67.8895 72.8213 66.3583 74.1724 64.5569 74.1724H52.5326H40.4632C38.6618 74.1724 37.1306 72.8213 36.8604 71.0649L34.5186 55.2126C34.3835 54.1768 34.6537 53.096 35.3742 52.2854C36.0498 51.4747 37.0856 51.0244 38.1214 51.0244H52.4875H66.8987ZM66.8987 49.6733H52.5326H38.1664C35.104 49.6733 32.7622 52.3754 33.2126 55.3928L35.5544 71.2451C35.9147 73.677 38.0313 75.5234 40.5082 75.5234H52.5326H64.5569C67.0338 75.5234 69.1505 73.722 69.5107 71.2451L71.8525 55.3928C72.3029 52.3754 69.9611 49.6733 66.8987 49.6733Z" fill="#220035"/>
<path d="M26.5022 52.9609C25.1062 52.9609 23.9352 54.0868 23.8902 55.5279C23.8902 55.663 23.8902 55.7531 23.8902 55.8882C23.8902 59.0857 24.4306 62.1931 25.4214 65.0753C25.7817 66.1111 26.7724 66.8317 27.8533 66.8317H28.709C27.1778 63.4991 26.3221 59.8063 26.3221 55.9332C26.3671 54.8974 26.4122 53.9517 26.5022 52.9609Z" fill="url(#paint74_linear)"/>
<path d="M20.2875 87.1874C20.2875 91.2406 23.3949 94.5281 27.3579 94.8434L27.5831 94.7983C27.0877 90.7002 27.1328 87.4576 28.1235 86.4218C29.5196 84.9807 31.5912 83.8548 34.3384 82.9992C32.9873 80.9276 30.6005 79.5315 27.9434 79.5315C23.7101 79.5315 20.2875 82.9542 20.2875 87.1874Z" fill="url(#paint75_linear)"/>
<path d="M76.9415 86.422C75.5455 84.9808 73.4738 83.855 70.7267 82.9993C67.5743 82.0085 63.5662 81.4681 58.7024 81.333C56.7208 81.8284 54.6492 82.0536 52.5326 82.0536C50.4159 82.0536 48.3443 81.7834 46.3628 81.333C41.499 81.4681 37.4909 82.0085 34.3385 82.9993C31.5913 83.855 29.4747 84.9808 28.1236 86.422C27.1329 87.4578 27.0878 90.7003 27.5832 94.7985C28.7541 103.896 32.7172 117.091 35.3743 119.072C35.5994 119.252 35.8697 119.433 36.1849 119.568C40.8235 121.955 52.5326 121.955 52.5326 121.955C52.5326 121.955 64.2417 121.955 68.8803 119.568C69.1955 119.433 69.4657 119.252 69.6909 119.072C72.348 117.046 76.311 103.85 77.482 94.7985C78.0224 90.7003 77.9323 87.4127 76.9415 86.422ZM68.7001 96.5548H58.8825C58.3871 96.5548 58.0269 96.1495 58.0269 95.6992C58.0269 95.2038 58.4322 94.8435 58.8825 94.8435H68.7001C69.1955 94.8435 69.5558 95.2488 69.5558 95.6992C69.5558 96.1495 69.1505 96.5548 68.7001 96.5548Z" fill="url(#paint76_linear)"/>
<path d="M78.5177 52.9609C77.0766 39.9008 65.998 29.7229 52.5326 29.7229C39.0671 29.7229 27.9885 39.9008 26.5474 52.9609C26.4573 53.9067 26.3672 54.8974 26.3672 55.8882C26.3672 59.8063 27.2229 63.4991 28.7541 66.7867C32.0416 73.9472 38.5267 79.3965 46.3628 81.2879C48.3443 81.7833 50.4159 82.0085 52.5326 82.0085C54.6492 82.0085 56.7208 81.7383 58.7023 81.2879C66.5384 79.3965 72.9784 73.9472 76.311 66.7867C77.8422 63.4541 78.6979 59.7612 78.6979 55.8882C78.6979 54.8974 78.6528 53.9517 78.5177 52.9609ZM52.5326 40.4412C53.9286 40.4412 55.0545 41.5671 55.0545 42.9632C55.0545 44.3593 53.9286 45.4851 52.5326 45.4851C51.1365 45.4851 50.0106 44.3593 50.0106 42.9632C50.0106 41.6121 51.1365 40.4412 52.5326 40.4412ZM71.8525 55.3928L69.5107 71.2451C69.1505 73.677 67.0338 75.5235 64.5569 75.5235H52.5326H40.4632C37.9863 75.5235 35.8696 73.7221 35.5093 71.2451L33.2126 55.3928C32.7622 52.3755 35.104 49.6734 38.1664 49.6734H52.5326H66.8987C69.9611 49.6734 72.3029 52.3755 71.8525 55.3928Z" fill="url(#paint77_linear)"/>
<path d="M58.9275 57.1491V62.3732C58.9275 63.0487 59.4679 63.5441 60.0984 63.5441H62.0349C62.7104 63.5441 63.2058 63.0037 63.2058 62.3732V57.1491C63.2058 56.4736 62.6654 55.9782 62.0349 55.9782H60.0984C59.4679 55.9332 58.9275 56.4736 58.9275 57.1491Z" fill="#214975"/>
<path d="M50.3708 69.3538C50.3708 70.0293 50.9112 70.5247 51.5417 70.5247H52.5325H53.5233C54.1988 70.5247 54.6942 69.9843 54.6942 69.3538C54.6942 68.6782 54.1537 68.1829 53.5233 68.1829H52.5325H51.5417C50.9112 68.1829 50.3708 68.6782 50.3708 69.3538Z" fill="#214975"/>
<path d="M42.9851 63.5439H44.9216C45.5971 63.5439 46.0925 63.0035 46.0925 62.373V57.1489C46.0925 56.4734 45.552 55.978 44.9216 55.978H42.9851C42.3095 55.978 41.8141 56.5184 41.8141 57.1489V62.373C41.8141 63.0035 42.3095 63.5439 42.9851 63.5439Z" fill="#214975"/>
<path d="M52.5325 72.0107C53.9751 72.0107 55.1446 70.8412 55.1446 69.3986C55.1446 67.9561 53.9751 66.7866 52.5325 66.7866C51.09 66.7866 49.9205 67.9561 49.9205 69.3986C49.9205 70.8412 51.09 72.0107 52.5325 72.0107Z" fill="url(#paint78_radial)"/>
<path d="M53.9736 69.3986C53.9736 70.2093 53.3431 70.8398 52.5325 70.8398C51.7219 70.8398 51.0914 70.2093 51.0914 69.3986C51.0914 68.588 51.7219 67.9575 52.5325 67.9575C53.3431 67.9575 53.9736 68.588 53.9736 69.3986Z" fill="url(#paint79_radial)"/>
<path d="M61.2693 64.1746C63.6322 64.1746 65.5476 62.2591 65.5476 59.8962C65.5476 57.5334 63.6322 55.6179 61.2693 55.6179C58.9065 55.6179 56.991 57.5334 56.991 59.8962C56.991 62.2591 58.9065 64.1746 61.2693 64.1746Z" fill="url(#paint80_radial)"/>
<path d="M63.6112 59.8963C63.6112 61.2023 62.5754 62.2381 61.2694 62.2381C59.9633 62.2381 58.9275 61.2023 58.9275 59.8963C58.9275 58.5902 59.9633 57.5544 61.2694 57.5544C62.5754 57.5544 63.6112 58.5902 63.6112 59.8963Z" fill="url(#paint81_radial)"/>
<path d="M43.7957 64.1746C46.1586 64.1746 48.0741 62.2591 48.0741 59.8962C48.0741 57.5334 46.1586 55.6179 43.7957 55.6179C41.4329 55.6179 39.5174 57.5334 39.5174 59.8962C39.5174 62.2591 41.4329 64.1746 43.7957 64.1746Z" fill="url(#paint82_radial)"/>
<path d="M46.1375 59.8963C46.1375 61.2023 45.1017 62.2381 43.7957 62.2381C42.4897 62.2381 41.4538 61.2023 41.4538 59.8963C41.4538 58.5902 42.4897 57.5544 43.7957 57.5544C45.1017 57.5544 46.1375 58.5902 46.1375 59.8963Z" fill="url(#paint83_radial)"/>
<path d="M52.5326 121.954C52.5326 121.954 40.8235 121.954 36.1849 119.568C36.1849 119.568 37.626 129.07 40.4632 129.836C44.111 130.781 48.2542 130.961 52.5326 130.961C56.8109 130.961 60.9541 130.781 64.6019 129.836C67.4391 129.07 68.8802 119.568 68.8802 119.568C64.2416 121.954 52.5326 121.954 52.5326 121.954Z" fill="url(#paint84_linear)"/>
<defs>
<linearGradient id="paint0_linear" x1="143.256" y1="3.53926" x2="143.256" y2="94.6194" gradientUnits="userSpaceOnUse">
<stop stop-color="#1C976E"/>
<stop offset="0.327" stop-color="#1C976E"/>
<stop offset="1" stop-color="#214975"/>
</linearGradient>
<linearGradient id="paint1_linear" x1="139.161" y1="-3.85986" x2="161.237" y2="34.3783" gradientUnits="userSpaceOnUse">
<stop stop-color="#1C976E"/>
<stop offset="1" stop-color="#214975"/>
</linearGradient>
<linearGradient id="paint2_linear" x1="73.2719" y1="29.6356" x2="128.558" y2="125.393" gradientUnits="userSpaceOnUse">
<stop stop-color="#214975"/>
<stop offset="0.2291" stop-color="#3E6DA0"/>
<stop offset="0.4985" stop-color="#30547B"/>
<stop offset="0.787" stop-color="#2F66A3"/>
<stop offset="1" stop-color="#1A4677"/>
</linearGradient>
<linearGradient id="paint3_linear" x1="90.9054" y1="13.7114" x2="94.6172" y2="20.1405" gradientUnits="userSpaceOnUse">
<stop stop-color="#EFCF64"/>
<stop offset="1" stop-color="#E49174"/>
</linearGradient>
<linearGradient id="paint4_linear" x1="52.9921" y1="27.102" x2="52.9921" y2="128.427" gradientUnits="userSpaceOnUse">
<stop stop-color="#4D5DEC"/>
<stop offset="0.327" stop-color="#4136EB"/>
<stop offset="1" stop-color="#420087"/>
</linearGradient>
<radialGradient id="paint5_radial" cx="0" cy="0" r="1" gradientUnits="userSpaceOnUse" gradientTransform="translate(118.972 61.7435) scale(31.0416)">
<stop stop-color="white"/>
<stop offset="0.3438" stop-color="#FCFDFC"/>
<stop offset="0.5556" stop-color="#F4F4F4"/>
<stop offset="0.7317" stop-color="#E5E6E5"/>
<stop offset="0.8872" stop-color="#D1D3D1"/>
<stop offset="1" stop-color="#BDBFBD"/>
</radialGradient>
<radialGradient id="paint6_radial" cx="0" cy="0" r="1" gradientUnits="userSpaceOnUse" gradientTransform="translate(118.972 61.7435) scale(27.7921)">
<stop stop-color="white"/>
<stop offset="0.237" stop-color="#FBFBFB"/>
<stop offset="0.4911" stop-color="#EEEEEE"/>
<stop offset="0.7521" stop-color="#D8DAD8"/>
<stop offset="1" stop-color="#BDBFBD"/>
</radialGradient>
<radialGradient id="paint7_radial" cx="0" cy="0" r="1" gradientUnits="userSpaceOnUse" gradientTransform="translate(118.972 61.7435) scale(18.3567)">
<stop stop-color="white"/>
<stop offset="0.4584" stop-color="#FDFDFD"/>
<stop offset="0.6423" stop-color="#F6F6F6"/>
<stop offset="0.777" stop-color="#EAEAEA"/>
<stop offset="0.8877" stop-color="#D8DAD8"/>
<stop offset="0.9825" stop-color="#C2C4C2"/>
<stop offset="1" stop-color="#BDBFBD"/>
</radialGradient>
<radialGradient id="paint8_radial" cx="0" cy="0" r="1" gradientUnits="userSpaceOnUse" gradientTransform="translate(121.209 23.2384) scale(4.78803)">
<stop stop-color="#66A8DE"/>
<stop offset="0.2281" stop-color="#4C7DA5"/>
<stop offset="0.6059" stop-color="#233A4D"/>
<stop offset="0.8719" stop-color="#0A1016"/>
<stop offset="1"/>
</radialGradient>
<radialGradient id="paint9_radial" cx="0" cy="0" r="1" gradientUnits="userSpaceOnUse" gradientTransform="translate(121.209 23.2384) scale(3.03472)">
<stop stop-color="#66A8DE"/>
<stop offset="0.2281" stop-color="#4C7DA5"/>
<stop offset="0.6059" stop-color="#233A4D"/>
<stop offset="0.8719" stop-color="#0A1016"/>
<stop offset="1"/>
</radialGradient>
<radialGradient id="paint10_radial" cx="0" cy="0" r="1" gradientUnits="userSpaceOnUse" gradientTransform="translate(129.29 34.3069) scale(4.78803)">
<stop stop-color="#66A8DE"/>
<stop offset="0.2281" stop-color="#4C7DA5"/>
<stop offset="0.6059" stop-color="#233A4D"/>
<stop offset="0.8719" stop-color="#0A1016"/>
<stop offset="1"/>
</radialGradient>
<radialGradient id="paint11_radial" cx="0" cy="0" r="1" gradientUnits="userSpaceOnUse" gradientTransform="translate(129.29 34.3069) scale(3.03473)">
<stop stop-color="#66A8DE"/>
<stop offset="0.2281" stop-color="#4C7DA5"/>
<stop offset="0.6059" stop-color="#233A4D"/>
<stop offset="0.8719" stop-color="#0A1016"/>
<stop offset="1"/>
</radialGradient>
<radialGradient id="paint12_radial" cx="0" cy="0" r="1" gradientUnits="userSpaceOnUse" gradientTransform="translate(120.226 36.0282) scale(4.78803)">
<stop stop-color="#66A8DE"/>
<stop offset="0.2281" stop-color="#4C7DA5"/>
<stop offset="0.6059" stop-color="#233A4D"/>
<stop offset="0.8719" stop-color="#0A1016"/>
<stop offset="1"/>
</radialGradient>
<radialGradient id="paint13_radial" cx="0" cy="0" r="1" gradientUnits="userSpaceOnUse" gradientTransform="translate(120.226 36.0283) scale(3.03468)">
<stop stop-color="#66A8DE"/>
<stop offset="0.2281" stop-color="#4C7DA5"/>
<stop offset="0.6059" stop-color="#233A4D"/>
<stop offset="0.8719" stop-color="#0A1016"/>
<stop offset="1"/>
</radialGradient>
<radialGradient id="paint14_radial" cx="0" cy="0" r="1" gradientUnits="userSpaceOnUse" gradientTransform="translate(143.255 50.6607) scale(4.78803)">
<stop stop-color="#66A8DE"/>
<stop offset="0.2281" stop-color="#4C7DA5"/>
<stop offset="0.6059" stop-color="#233A4D"/>
<stop offset="0.8719" stop-color="#0A1016"/>
<stop offset="1"/>
</radialGradient>
<radialGradient id="paint15_radial" cx="0" cy="0" r="1" gradientUnits="userSpaceOnUse" gradientTransform="translate(143.255 50.6607) scale(3.03472)">
<stop stop-color="#66A8DE"/>
<stop offset="0.2281" stop-color="#4C7DA5"/>
<stop offset="0.6059" stop-color="#233A4D"/>
<stop offset="0.8719" stop-color="#0A1016"/>
<stop offset="1"/>
</radialGradient>
<radialGradient id="paint16_radial" cx="0" cy="0" r="1" gradientUnits="userSpaceOnUse" gradientTransform="translate(80.6913 59.6502) scale(4.78803)">
<stop stop-color="#66A8DE"/>
<stop offset="0.2281" stop-color="#4C7DA5"/>
<stop offset="0.6059" stop-color="#233A4D"/>
<stop offset="0.8719" stop-color="#0A1016"/>
<stop offset="1"/>
</radialGradient>
<radialGradient id="paint17_radial" cx="0" cy="0" r="1" gradientUnits="userSpaceOnUse" gradientTransform="translate(80.6914 59.6502) scale(3.03473)">
<stop stop-color="#66A8DE"/>
<stop offset="0.2281" stop-color="#4C7DA5"/>
<stop offset="0.6059" stop-color="#233A4D"/>
<stop offset="0.8719" stop-color="#0A1016"/>
<stop offset="1"/>
</radialGradient>
<radialGradient id="paint18_radial" cx="0" cy="0" r="1" gradientUnits="userSpaceOnUse" gradientTransform="translate(94.79 72.9809) scale(4.78803)">
<stop stop-color="#66A8DE"/>
<stop offset="0.2281" stop-color="#4C7DA5"/>
<stop offset="0.6059" stop-color="#233A4D"/>
<stop offset="0.8719" stop-color="#0A1016"/>
<stop offset="1"/>
</radialGradient>
<radialGradient id="paint19_radial" cx="0" cy="0" r="1" gradientUnits="userSpaceOnUse" gradientTransform="translate(94.79 72.9811) scale(3.03468)">
<stop stop-color="#66A8DE"/>
<stop offset="0.2281" stop-color="#4C7DA5"/>
<stop offset="0.6059" stop-color="#233A4D"/>
<stop offset="0.8719" stop-color="#0A1016"/>
<stop offset="1"/>
</radialGradient>
<radialGradient id="paint20_radial" cx="0" cy="0" r="1" gradientUnits="userSpaceOnUse" gradientTransform="translate(88.516 64.2617) scale(4.78803)">
<stop stop-color="#66A8DE"/>
<stop offset="0.2281" stop-color="#4C7DA5"/>
<stop offset="0.6059" stop-color="#233A4D"/>
<stop offset="0.8719" stop-color="#0A1016"/>
<stop offset="1"/>
</radialGradient>
<radialGradient id="paint21_radial" cx="0" cy="0" r="1" gradientUnits="userSpaceOnUse" gradientTransform="translate(88.5161 64.2617) scale(3.03472)">
<stop stop-color="#66A8DE"/>
<stop offset="0.2281" stop-color="#4C7DA5"/>
<stop offset="0.6059" stop-color="#233A4D"/>
<stop offset="0.8719" stop-color="#0A1016"/>
<stop offset="1"/>
</radialGradient>
<radialGradient id="paint22_radial" cx="0" cy="0" r="1" gradientUnits="userSpaceOnUse" gradientTransform="translate(91.7598 51.3436) scale(4.78803)">
<stop stop-color="#66A8DE"/>
<stop offset="0.2281" stop-color="#4C7DA5"/>
<stop offset="0.6059" stop-color="#233A4D"/>
<stop offset="0.8719" stop-color="#0A1016"/>
<stop offset="1"/>
</radialGradient>
<radialGradient id="paint23_radial" cx="0" cy="0" r="1" gradientUnits="userSpaceOnUse" gradientTransform="translate(91.7599 51.3436) scale(3.03468)">
<stop stop-color="#66A8DE"/>
<stop offset="0.2281" stop-color="#4C7DA5"/>
<stop offset="0.6059" stop-color="#233A4D"/>
<stop offset="0.8719" stop-color="#0A1016"/>
<stop offset="1"/>
</radialGradient>
<radialGradient id="paint24_radial" cx="0" cy="0" r="1" gradientUnits="userSpaceOnUse" gradientTransform="translate(149.443 59.2536) scale(4.78803)">
<stop stop-color="#66A8DE"/>
<stop offset="0.2281" stop-color="#4C7DA5"/>
<stop offset="0.6059" stop-color="#233A4D"/>
<stop offset="0.8719" stop-color="#0A1016"/>
<stop offset="1"/>
</radialGradient>
<radialGradient id="paint25_radial" cx="0" cy="0" r="1" gradientUnits="userSpaceOnUse" gradientTransform="translate(149.443 59.2537) scale(3.03468)">
<stop stop-color="#66A8DE"/>
<stop offset="0.2281" stop-color="#4C7DA5"/>
<stop offset="0.6059" stop-color="#233A4D"/>
<stop offset="0.8719" stop-color="#0A1016"/>
<stop offset="1"/>
</radialGradient>
<radialGradient id="paint26_radial" cx="0" cy="0" r="1" gradientUnits="userSpaceOnUse" gradientTransform="translate(157.253 64.1) scale(4.78803)">
<stop stop-color="#66A8DE"/>
<stop offset="0.2281" stop-color="#4C7DA5"/>
<stop offset="0.6059" stop-color="#233A4D"/>
<stop offset="0.8719" stop-color="#0A1016"/>
<stop offset="1"/>
</radialGradient>
<radialGradient id="paint27_radial" cx="0" cy="0" r="1" gradientUnits="userSpaceOnUse" gradientTransform="translate(157.253 64.1) scale(3.03468)">
<stop stop-color="#66A8DE"/>
<stop offset="0.2281" stop-color="#4C7DA5"/>
<stop offset="0.6059" stop-color="#233A4D"/>
<stop offset="0.8719" stop-color="#0A1016"/>
<stop offset="1"/>
</radialGradient>
<radialGradient id="paint28_radial" cx="0" cy="0" r="1" gradientUnits="userSpaceOnUse" gradientTransform="translate(146.185 72.1717) scale(4.78803)">
<stop stop-color="#66A8DE"/>
<stop offset="0.2281" stop-color="#4C7DA5"/>
<stop offset="0.6059" stop-color="#233A4D"/>
<stop offset="0.8719" stop-color="#0A1016"/>
<stop offset="1"/>
</radialGradient>
<radialGradient id="paint29_radial" cx="0" cy="0" r="1" gradientUnits="userSpaceOnUse" gradientTransform="translate(146.185 72.1716) scale(3.03468)">
<stop stop-color="#66A8DE"/>
<stop offset="0.2281" stop-color="#4C7DA5"/>
<stop offset="0.6059" stop-color="#233A4D"/>
<stop offset="0.8719" stop-color="#0A1016"/>
<stop offset="1"/>
</radialGradient>
<radialGradient id="paint30_radial" cx="0" cy="0" r="1" gradientUnits="userSpaceOnUse" gradientTransform="translate(129.803 86.1495) scale(2.15055)">
<stop stop-color="#66A8DE"/>
<stop offset="0.2281" stop-color="#4C7DA5"/>
<stop offset="0.6059" stop-color="#233A4D"/>
<stop offset="0.8719" stop-color="#0A1016"/>
<stop offset="1"/>
</radialGradient>
<radialGradient id="paint31_radial" cx="0" cy="0" r="1" gradientUnits="userSpaceOnUse" gradientTransform="translate(129.803 86.1496) scale(1.36303)">
<stop stop-color="#66A8DE"/>
<stop offset="0.2281" stop-color="#4C7DA5"/>
<stop offset="0.6059" stop-color="#233A4D"/>
<stop offset="0.8719" stop-color="#0A1016"/>
<stop offset="1"/>
</radialGradient>
<radialGradient id="paint32_radial" cx="0" cy="0" r="1" gradientUnits="userSpaceOnUse" gradientTransform="translate(117.51 87.5391) scale(2.15055)">
<stop stop-color="#66A8DE"/>
<stop offset="0.2281" stop-color="#4C7DA5"/>
<stop offset="0.6059" stop-color="#233A4D"/>
<stop offset="0.8719" stop-color="#0A1016"/>
<stop offset="1"/>
</radialGradient>
<radialGradient id="paint33_radial" cx="0" cy="0" r="1" gradientUnits="userSpaceOnUse" gradientTransform="translate(117.51 87.5392) scale(1.36307)">
<stop stop-color="#66A8DE"/>
<stop offset="0.2281" stop-color="#4C7DA5"/>
<stop offset="0.6059" stop-color="#233A4D"/>
<stop offset="0.8719" stop-color="#0A1016"/>
<stop offset="1"/>
</radialGradient>
<radialGradient id="paint34_radial" cx="0" cy="0" r="1" gradientUnits="userSpaceOnUse" gradientTransform="translate(144.544 62.9527) scale(2.15055)">
<stop stop-color="#66A8DE"/>
<stop offset="0.2281" stop-color="#4C7DA5"/>
<stop offset="0.6059" stop-color="#233A4D"/>
<stop offset="0.8719" stop-color="#0A1016"/>
<stop offset="1"/>
</radialGradient>
<radialGradient id="paint35_radial" cx="0" cy="0" r="1" gradientUnits="userSpaceOnUse" gradientTransform="translate(144.544 62.9527) scale(1.36302)">
<stop stop-color="#66A8DE"/>
<stop offset="0.2281" stop-color="#4C7DA5"/>
<stop offset="0.6059" stop-color="#233A4D"/>
<stop offset="0.8719" stop-color="#0A1016"/>
<stop offset="1"/>
</radialGradient>
<radialGradient id="paint36_radial" cx="0" cy="0" r="1" gradientUnits="userSpaceOnUse" gradientTransform="translate(107.779 37.3371) scale(2.15055)">
<stop stop-color="#66A8DE"/>
<stop offset="0.2281" stop-color="#4C7DA5"/>
<stop offset="0.6059" stop-color="#233A4D"/>
<stop offset="0.8719" stop-color="#0A1016"/>
<stop offset="1"/>
</radialGradient>
<radialGradient id="paint37_radial" cx="0" cy="0" r="1" gradientUnits="userSpaceOnUse" gradientTransform="translate(107.779 37.3372) scale(1.36303)">
<stop stop-color="#66A8DE"/>
<stop offset="0.2281" stop-color="#4C7DA5"/>
<stop offset="0.6059" stop-color="#233A4D"/>
<stop offset="0.8719" stop-color="#0A1016"/>
<stop offset="1"/>
</radialGradient>
<radialGradient id="paint38_radial" cx="0" cy="0" r="1" gradientUnits="userSpaceOnUse" gradientTransform="translate(116.372 31.0631) scale(2.15056)">
<stop stop-color="#66A8DE"/>
<stop offset="0.2281" stop-color="#4C7DA5"/>
<stop offset="0.6059" stop-color="#233A4D"/>
<stop offset="0.8719" stop-color="#0A1016"/>
<stop offset="1"/>
</radialGradient>
<radialGradient id="paint39_radial" cx="0" cy="0" r="1" gradientUnits="userSpaceOnUse" gradientTransform="translate(116.372 31.0631) scale(1.36303)">
<stop stop-color="#66A8DE"/>
<stop offset="0.2281" stop-color="#4C7DA5"/>
<stop offset="0.6059" stop-color="#233A4D"/>
<stop offset="0.8719" stop-color="#0A1016"/>
<stop offset="1"/>
</radialGradient>
<radialGradient id="paint40_radial" cx="0" cy="0" r="1" gradientUnits="userSpaceOnUse" gradientTransform="translate(125.705 25.8135) scale(2.15055)">
<stop stop-color="#66A8DE"/>
<stop offset="0.2281" stop-color="#4C7DA5"/>
<stop offset="0.6059" stop-color="#233A4D"/>
<stop offset="0.8719" stop-color="#0A1016"/>
<stop offset="1"/>
</radialGradient>
<radialGradient id="paint41_radial" cx="0" cy="0" r="1" gradientUnits="userSpaceOnUse" gradientTransform="translate(125.705 25.8133) scale(1.36307)">
<stop stop-color="#66A8DE"/>
<stop offset="0.2281" stop-color="#4C7DA5"/>
<stop offset="0.6059" stop-color="#233A4D"/>
<stop offset="0.8719" stop-color="#0A1016"/>
<stop offset="1"/>
</radialGradient>
<radialGradient id="paint42_radial" cx="0" cy="0" r="1" gradientUnits="userSpaceOnUse" gradientTransform="translate(149.926 53.5629) scale(2.15055)">
<stop stop-color="#66A8DE"/>
<stop offset="0.2281" stop-color="#4C7DA5"/>
<stop offset="0.6059" stop-color="#233A4D"/>
<stop offset="0.8719" stop-color="#0A1016"/>
<stop offset="1"/>
</radialGradient>
<radialGradient id="paint43_radial" cx="0" cy="0" r="1" gradientUnits="userSpaceOnUse" gradientTransform="translate(149.926 53.563) scale(1.36307)">
<stop stop-color="#66A8DE"/>
<stop offset="0.2281" stop-color="#4C7DA5"/>
<stop offset="0.6059" stop-color="#233A4D"/>
<stop offset="0.8719" stop-color="#0A1016"/>
<stop offset="1"/>
</radialGradient>
<radialGradient id="paint44_radial" cx="0" cy="0" r="1" gradientUnits="userSpaceOnUse" gradientTransform="translate(154.678 68.5642) scale(2.15056)">
<stop stop-color="#66A8DE"/>
<stop offset="0.2281" stop-color="#4C7DA5"/>
<stop offset="0.6059" stop-color="#233A4D"/>
<stop offset="0.8719" stop-color="#0A1016"/>
<stop offset="1"/>
</radialGradient>
<radialGradient id="paint45_radial" cx="0" cy="0" r="1" gradientUnits="userSpaceOnUse" gradientTransform="translate(154.678 68.5642) scale(1.36302)">
<stop stop-color="#66A8DE"/>
<stop offset="0.2281" stop-color="#4C7DA5"/>
<stop offset="0.6059" stop-color="#233A4D"/>
<stop offset="0.8719" stop-color="#0A1016"/>
<stop offset="1"/>
</radialGradient>
<radialGradient id="paint46_radial" cx="0" cy="0" r="1" gradientUnits="userSpaceOnUse" gradientTransform="translate(93.4812 60.5627) scale(2.15055)">
<stop stop-color="#66A8DE"/>
<stop offset="0.2281" stop-color="#4C7DA5"/>
<stop offset="0.6059" stop-color="#233A4D"/>
<stop offset="0.8719" stop-color="#0A1016"/>
<stop offset="1"/>
</radialGradient>
<radialGradient id="paint47_radial" cx="0" cy="0" r="1" gradientUnits="userSpaceOnUse" gradientTransform="translate(93.4813 60.5626) scale(1.36303)">
<stop stop-color="#66A8DE"/>
<stop offset="0.2281" stop-color="#4C7DA5"/>
<stop offset="0.6059" stop-color="#233A4D"/>
<stop offset="0.8719" stop-color="#0A1016"/>
<stop offset="1"/>
</radialGradient>
<radialGradient id="paint48_radial" cx="0" cy="0" r="1" gradientUnits="userSpaceOnUse" gradientTransform="translate(87.9307 69.9524) scale(2.15055)">
<stop stop-color="#66A8DE"/>
<stop offset="0.2281" stop-color="#4C7DA5"/>
<stop offset="0.6059" stop-color="#233A4D"/>
<stop offset="0.8719" stop-color="#0A1016"/>
<stop offset="1"/>
</radialGradient>
<radialGradient id="paint49_radial" cx="0" cy="0" r="1" gradientUnits="userSpaceOnUse" gradientTransform="translate(87.9307 69.9525) scale(1.36303)">
<stop stop-color="#66A8DE"/>
<stop offset="0.2281" stop-color="#4C7DA5"/>
<stop offset="0.6059" stop-color="#233A4D"/>
<stop offset="0.8719" stop-color="#0A1016"/>
<stop offset="1"/>
</radialGradient>
<radialGradient id="paint50_radial" cx="0" cy="0" r="1" gradientUnits="userSpaceOnUse" gradientTransform="translate(83.2662 54.937) scale(2.15055)">
<stop stop-color="#66A8DE"/>
<stop offset="0.2281" stop-color="#4C7DA5"/>
<stop offset="0.6059" stop-color="#233A4D"/>
<stop offset="0.8719" stop-color="#0A1016"/>
<stop offset="1"/>
</radialGradient>
<radialGradient id="paint51_radial" cx="0" cy="0" r="1" gradientUnits="userSpaceOnUse" gradientTransform="translate(83.2663 54.9371) scale(1.36307)">
<stop stop-color="#66A8DE"/>
<stop offset="0.2281" stop-color="#4C7DA5"/>
<stop offset="0.6059" stop-color="#233A4D"/>
<stop offset="0.8719" stop-color="#0A1016"/>
<stop offset="1"/>
</radialGradient>
<radialGradient id="paint52_radial" cx="0" cy="0" r="1" gradientUnits="userSpaceOnUse" gradientTransform="translate(126.9 92.9218) scale(4.78803)">
<stop stop-color="#66A8DE"/>
<stop offset="0.2281" stop-color="#4C7DA5"/>
<stop offset="0.6059" stop-color="#233A4D"/>
<stop offset="0.8719" stop-color="#0A1016"/>
<stop offset="1"/>
</radialGradient>
<radialGradient id="paint53_radial" cx="0" cy="0" r="1" gradientUnits="userSpaceOnUse" gradientTransform="translate(126.9 92.9218) scale(3.03468)">
<stop stop-color="#66A8DE"/>
<stop offset="0.2281" stop-color="#4C7DA5"/>
<stop offset="0.6059" stop-color="#233A4D"/>
<stop offset="0.8719" stop-color="#0A1016"/>
<stop offset="1"/>
</radialGradient>
<radialGradient id="paint54_radial" cx="0" cy="0" r="1" gradientUnits="userSpaceOnUse" gradientTransform="translate(108.292 89.5073) scale(4.78803)">
<stop stop-color="#66A8DE"/>
<stop offset="0.2281" stop-color="#4C7DA5"/>
<stop offset="0.6059" stop-color="#233A4D"/>
<stop offset="0.8719" stop-color="#0A1016"/>
<stop offset="1"/>
</radialGradient>
<radialGradient id="paint55_radial" cx="0" cy="0" r="1" gradientUnits="userSpaceOnUse" gradientTransform="translate(108.292 89.5073) scale(3.03473)">
<stop stop-color="#66A8DE"/>
<stop offset="0.2281" stop-color="#4C7DA5"/>
<stop offset="0.6059" stop-color="#233A4D"/>
<stop offset="0.8719" stop-color="#0A1016"/>
<stop offset="1"/>
</radialGradient>
<radialGradient id="paint56_radial" cx="0" cy="0" r="1" gradientUnits="userSpaceOnUse" gradientTransform="translate(116.429 100.249) scale(4.78803)">
<stop stop-color="#66A8DE"/>
<stop offset="0.2281" stop-color="#4C7DA5"/>
<stop offset="0.6059" stop-color="#233A4D"/>
<stop offset="0.8719" stop-color="#0A1016"/>
<stop offset="1"/>
</radialGradient>
<radialGradient id="paint57_radial" cx="0" cy="0" r="1" gradientUnits="userSpaceOnUse" gradientTransform="translate(116.429 100.249) scale(3.03468)">
<stop stop-color="#66A8DE"/>
<stop offset="0.2281" stop-color="#4C7DA5"/>
<stop offset="0.6059" stop-color="#233A4D"/>
<stop offset="0.8719" stop-color="#0A1016"/>
<stop offset="1"/>
</radialGradient>
<radialGradient id="paint58_radial" cx="0" cy="0" r="1" gradientUnits="userSpaceOnUse" gradientTransform="translate(110.817 30.5651) scale(4.78803)">
<stop stop-color="#66A8DE"/>
<stop offset="0.2281" stop-color="#4C7DA5"/>
<stop offset="0.6059" stop-color="#233A4D"/>
<stop offset="0.8719" stop-color="#0A1016"/>
<stop offset="1"/>
</radialGradient>
<radialGradient id="paint59_radial" cx="0" cy="0" r="1" gradientUnits="userSpaceOnUse" gradientTransform="translate(110.817 30.5652) scale(3.03468)">
<stop stop-color="#66A8DE"/>
<stop offset="0.2281" stop-color="#4C7DA5"/>
<stop offset="0.6059" stop-color="#233A4D"/>
<stop offset="0.8719" stop-color="#0A1016"/>
<stop offset="1"/>
</radialGradient>
<linearGradient id="paint60_linear" x1="74.1282" y1="97.8324" x2="111.656" y2="97.8324" gradientUnits="userSpaceOnUse">
<stop stop-color="#3758B8"/>
<stop offset="1" stop-color="#220035"/>
</linearGradient>
<linearGradient id="paint61_linear" x1="12.5577" y1="106.638" x2="30.3867" y2="106.638" gradientUnits="userSpaceOnUse">
<stop stop-color="#3758B8"/>
<stop offset="1" stop-color="#220035"/>
</linearGradient>
<linearGradient id="paint62_linear" x1="107.288" y1="94.0489" x2="115.138" y2="94.0489" gradientUnits="userSpaceOnUse">
<stop stop-color="#CEF0FC"/>
<stop offset="0.6246" stop-color="#B2D2FC"/>
<stop offset="1" stop-color="#9FBDFC"/>
</linearGradient>
<linearGradient id="paint63_linear" x1="112.373" y1="89.3167" x2="122.563" y2="89.3167" gradientUnits="userSpaceOnUse">
<stop stop-color="#3758B8"/>
<stop offset="1" stop-color="#220035"/>
</linearGradient>
<linearGradient id="paint64_linear" x1="101.82" y1="92.7601" x2="108.63" y2="104.556" gradientUnits="userSpaceOnUse">
<stop stop-color="#F8FAFB"/>
<stop offset="0.5921" stop-color="#CEF0FC"/>
<stop offset="0.8298" stop-color="#C1D2FB"/>
<stop offset="1" stop-color="#B7B9FA"/>
</linearGradient>
<linearGradient id="paint65_linear" x1="23.6697" y1="133.799" x2="34.0514" y2="133.799" gradientUnits="userSpaceOnUse">
<stop stop-color="#CEF0FC"/>
<stop offset="0.6246" stop-color="#B2D2FC"/>
<stop offset="1" stop-color="#9FBDFC"/>
</linearGradient>
<linearGradient id="paint66_linear" x1="27.2913" y1="140.935" x2="37.6903" y2="140.935" gradientUnits="userSpaceOnUse">
<stop stop-color="#3758B8"/>
<stop offset="1" stop-color="#220035"/>
</linearGradient>
<linearGradient id="paint67_linear" x1="19.2293" y1="116.44" x2="31.5289" y2="137.743" gradientUnits="userSpaceOnUse">
<stop stop-color="#F8FAFB"/>
<stop offset="0.5921" stop-color="#CEF0FC"/>
<stop offset="0.8298" stop-color="#C1D2FB"/>
<stop offset="1" stop-color="#B7B9FA"/>
</linearGradient>
<linearGradient id="paint68_linear" x1="63.7706" y1="96.5523" x2="63.7706" y2="94.8012" gradientUnits="userSpaceOnUse">
<stop stop-color="#F8FAFB"/>
<stop offset="0.5921" stop-color="#CEF0FC"/>
<stop offset="0.8298" stop-color="#C1D2FB"/>
<stop offset="1" stop-color="#B7B9FA"/>
</linearGradient>
<linearGradient id="paint69_linear" x1="78.7209" y1="52.982" x2="78.7209" y2="66.8125" gradientUnits="userSpaceOnUse">
<stop stop-color="#F8FAFB"/>
<stop offset="0.5921" stop-color="#CEF0FC"/>
<stop offset="0.8298" stop-color="#C1D2FB"/>
<stop offset="1" stop-color="#B7B9FA"/>
</linearGradient>
<linearGradient id="paint70_linear" x1="75.1" y1="79.4939" x2="82.7565" y2="92.7554" gradientUnits="userSpaceOnUse">
<stop stop-color="#F8FAFB"/>
<stop offset="0.5921" stop-color="#CEF0FC"/>
<stop offset="0.8298" stop-color="#C1D2FB"/>
<stop offset="1" stop-color="#B7B9FA"/>
</linearGradient>
<linearGradient id="paint71_linear" x1="52.0024" y1="42.9818" x2="53.0447" y2="42.9818" gradientUnits="userSpaceOnUse">
<stop stop-color="#420087"/>
<stop offset="0.8387" stop-color="#220035"/>
</linearGradient>
<linearGradient id="paint72_linear" x1="52.5235" y1="45.5018" x2="52.5235" y2="40.4616" gradientUnits="userSpaceOnUse">
<stop stop-color="#F8FAFB"/>
<stop offset="0.5921" stop-color="#CEF0FC"/>
<stop offset="0.8298" stop-color="#C1D2FB"/>
<stop offset="1" stop-color="#B7B9FA"/>
</linearGradient>
<linearGradient id="paint73_linear" x1="52.5235" y1="50.3616" x2="52.5235" y2="74.8734" gradientUnits="userSpaceOnUse">
<stop stop-color="#1C976E"/>
<stop offset="0.8387" stop-color="#214975"/>
</linearGradient>
<linearGradient id="paint74_linear" x1="26.3259" y1="52.982" x2="26.3259" y2="66.8125" gradientUnits="userSpaceOnUse">
<stop stop-color="#F8FAFB"/>
<stop offset="0.5921" stop-color="#CEF0FC"/>
<stop offset="0.8298" stop-color="#C1D2FB"/>
<stop offset="1" stop-color="#B7B9FA"/>
</linearGradient>
<linearGradient id="paint75_linear" x1="24.0903" y1="80.542" x2="31.1195" y2="92.7169" gradientUnits="userSpaceOnUse">
<stop stop-color="#F8FAFB"/>
<stop offset="0.5921" stop-color="#CEF0FC"/>
<stop offset="0.8298" stop-color="#C1D2FB"/>
<stop offset="1" stop-color="#B7B9FA"/>
</linearGradient>
<linearGradient id="paint76_linear" x1="43.5688" y1="90.1644" x2="70.3598" y2="116.955" gradientUnits="userSpaceOnUse">
<stop stop-color="#F8FAFB"/>
<stop offset="0.5921" stop-color="#CEF0FC"/>
<stop offset="0.8298" stop-color="#C1D2FB"/>
<stop offset="1" stop-color="#B7B9FA"/>
</linearGradient>
<linearGradient id="paint77_linear" x1="34.7366" y1="38.1101" x2="71.2945" y2="74.668" gradientUnits="userSpaceOnUse">
<stop stop-color="#F8FAFB"/>
<stop offset="0.5921" stop-color="#CEF0FC"/>
<stop offset="0.8298" stop-color="#C1D2FB"/>
<stop offset="1" stop-color="#B7B9FA"/>
</linearGradient>
<radialGradient id="paint78_radial" cx="0" cy="0" r="1" gradientUnits="userSpaceOnUse" gradientTransform="translate(52.5234 69.3961) scale(2.95303)">
<stop stop-color="#66A8DE"/>
<stop offset="0.2281" stop-color="#4C7DA5"/>
<stop offset="0.6059" stop-color="#233A4D"/>
<stop offset="0.8719" stop-color="#0A1016"/>
<stop offset="1"/>
</radialGradient>
<radialGradient id="paint79_radial" cx="0" cy="0" r="1" gradientUnits="userSpaceOnUse" gradientTransform="translate(52.5234 69.3961) scale(1.87165)">
<stop stop-color="#66A8DE"/>
<stop offset="0.2281" stop-color="#4C7DA5"/>
<stop offset="0.6059" stop-color="#233A4D"/>
<stop offset="0.8719" stop-color="#0A1016"/>
<stop offset="1"/>
</radialGradient>
<radialGradient id="paint80_radial" cx="0" cy="0" r="1" gradientUnits="userSpaceOnUse" gradientTransform="translate(61.2598 59.8795) scale(4.78803)">
<stop stop-color="#66A8DE"/>
<stop offset="0.2281" stop-color="#4C7DA5"/>
<stop offset="0.6059" stop-color="#233A4D"/>
<stop offset="0.8719" stop-color="#0A1016"/>
<stop offset="1"/>
</radialGradient>
<radialGradient id="paint81_radial" cx="0" cy="0" r="1" gradientUnits="userSpaceOnUse" gradientTransform="translate(61.2599 59.8796) scale(3.03468)">
<stop stop-color="#66A8DE"/>
<stop offset="0.2281" stop-color="#4C7DA5"/>
<stop offset="0.6059" stop-color="#233A4D"/>
<stop offset="0.8719" stop-color="#0A1016"/>
<stop offset="1"/>
</radialGradient>
<radialGradient id="paint82_radial" cx="0" cy="0" r="1" gradientUnits="userSpaceOnUse" gradientTransform="translate(43.7871 59.8795) scale(4.78803)">
<stop stop-color="#66A8DE"/>
<stop offset="0.2281" stop-color="#4C7DA5"/>
<stop offset="0.6059" stop-color="#233A4D"/>
<stop offset="0.8719" stop-color="#0A1016"/>
<stop offset="1"/>
</radialGradient>
<radialGradient id="paint83_radial" cx="0" cy="0" r="1" gradientUnits="userSpaceOnUse" gradientTransform="translate(43.787 59.8796) scale(3.03468)">
<stop stop-color="#66A8DE"/>
<stop offset="0.2281" stop-color="#4C7DA5"/>
<stop offset="0.6059" stop-color="#233A4D"/>
<stop offset="0.8719" stop-color="#0A1016"/>
<stop offset="1"/>
</radialGradient>
<linearGradient id="paint84_linear" x1="47.5362" y1="112.986" x2="59.1089" y2="133.031" gradientUnits="userSpaceOnUse">
<stop stop-color="#1C976E"/>
<stop offset="1" stop-color="#214975"/>
</linearGradient>
</defs>
</svg>
