<svg id="Layer_1" data-name="Layer 1" xmlns="http://www.w3.org/2000/svg" viewBox="0 0 150 75.5"><defs><style>.cls-1{fill:#214975;}.cls-2{fill:#1c976e;}</style></defs><path class="cls-1" d="M1.35,12h9.83c2.69,0,4.64.61,5.87,1.82a6.25,6.25,0,0,1,1.84,4.61,5.14,5.14,0,0,1-3.1,4.95,5.65,5.65,0,0,1,3,2.25,6,6,0,0,1,1,3.32,7.05,7.05,0,0,1-2,5q-2,2.11-6.07,2.12H1.35Zm9.28,9.7a5.07,5.07,0,0,0,3-.79,2.56,2.56,0,0,0,1-2.17q0-2.92-3.43-2.92H5.48V21.7Zm1.31,10.55a3.55,3.55,0,0,0,2.77-.94,3.27,3.27,0,0,0,.84-2.25q0-3.55-4.61-3.55H5.48v6.74Z"/><path class="cls-1" d="M24.9,36.07V12H29V36.07Z"/><path class="cls-1" d="M44.74,36.48a10.42,10.42,0,0,1-4.76-1,8.75,8.75,0,0,1-3.32-2.83,13.71,13.71,0,0,1-1.86-4A16.78,16.78,0,0,1,34.18,24a16.28,16.28,0,0,1,.4-3.54,13.09,13.09,0,0,1,1.26-3.37,12.11,12.11,0,0,1,2.06-2.83,8.79,8.79,0,0,1,3-2,9.81,9.81,0,0,1,3.87-.74,9,9,0,0,1,5.09,1.29,11.44,11.44,0,0,1,3.33,3.56l-3.67,2.09c-1.33-2-2.92-3-4.75-3a5.69,5.69,0,0,0-3,.77,5.29,5.29,0,0,0-2,2.06,10.56,10.56,0,0,0-1,2.7A13.4,13.4,0,0,0,38.45,24a10.88,10.88,0,0,0,1.58,6,5.23,5.23,0,0,0,4.71,2.44,4.53,4.53,0,0,0,3.32-1.3A4.33,4.33,0,0,0,49.38,28v-.38H45.15V23.73h8.43v3.33A9.4,9.4,0,0,1,51.1,34,8.58,8.58,0,0,1,44.74,36.48Z"/><path class="cls-1" d="M66.57,12H74a13.52,13.52,0,0,1,4.44.69,9.93,9.93,0,0,1,3.3,1.82,10.07,10.07,0,0,1,2.18,2.7,12.33,12.33,0,0,1,1.27,3.27,15.27,15.27,0,0,1,.4,3.55,15.74,15.74,0,0,1-.36,3.37A12.21,12.21,0,0,1,84,30.65a10.7,10.7,0,0,1-2.18,2.79,9.8,9.8,0,0,1-3.36,1.91,13.73,13.73,0,0,1-4.59.72H66.57Zm7.88,20.18a6.9,6.9,0,0,0,3.21-.72,5.53,5.53,0,0,0,2.17-1.94A9.25,9.25,0,0,0,81,26.92,11.33,11.33,0,0,0,81.32,24a9.86,9.86,0,0,0-1.65-5.75,5.49,5.49,0,0,0-4.84-2.39H70.7V32.18Z"/><path class="cls-1" d="M105.12,36.07l-1.89-5.26H93.7l-1.89,5.26H87.44l9-24.07h4.09l8.94,24.07Zm-3.2-9-2.65-7.23a18.51,18.51,0,0,1-.79-2.44c-.18.67-.45,1.48-.79,2.44L95,27.1Z"/><path class="cls-1" d="M119.8,16V36.07h-4.13V16h-6.84V12h17.81V16Z"/><path class="cls-1" d="M143.7,36.07l-1.9-5.26h-9.52l-1.89,5.26H126L135,12h4.09L148,36.07Zm-3.2-9-2.65-7.23a18.51,18.51,0,0,1-.79-2.44c-.18.67-.45,1.48-.79,2.44l-2.68,7.23Z"/><path class="cls-2" d="M4.51,59.28,4,57.71H1.4L.85,59.28H0L2.3,52.84H3l2.28,6.44ZM3.71,57l-.83-2.38c-.11-.3-.17-.52-.21-.65-.06.24-.13.45-.2.65L1.64,57Z"/><path class="cls-2" d="M10.37,59.28V56.44a1.36,1.36,0,0,0-.27-.93,1,1,0,0,0-.74-.3c-.72,0-1.08.4-1.08,1.21v2.86h-.8v-4.7h.8v.48a1.41,1.41,0,0,1,1.21-.59,1.59,1.59,0,0,1,1.26.5,2.5,2.5,0,0,1,.42,1.61v2.7Z"/><path class="cls-2" d="M15.24,59.39a1.71,1.71,0,0,1-1.42-.66,2.81,2.81,0,0,1-.52-1.8,2.72,2.72,0,0,1,.53-1.8,1.71,1.71,0,0,1,1.41-.66,1.73,1.73,0,0,1,1.18.44V53l.8-.38v6.64h-.8v-.37A1.55,1.55,0,0,1,15.24,59.39Zm.11-.74A1.18,1.18,0,0,0,16.42,58v-2.2a1.2,1.2,0,0,0-1.07-.6,1.07,1.07,0,0,0-.92.44,2.58,2.58,0,0,0,0,2.51A1.05,1.05,0,0,0,15.35,58.65Z"/><path class="cls-2" d="M37.51,59.28l-1.34-3.81H30l-1.32,3.81h-2l5.54-15.62H34L39.5,59.28Zm-1.94-5.53-2-5.78a16.38,16.38,0,0,1-.49-1.59c-.16.58-.33,1.11-.49,1.59l-2,5.78Z"/><path class="cls-2" d="M49.52,59.28V52.39a3.29,3.29,0,0,0-.66-2.27,2.32,2.32,0,0,0-1.8-.72c-1.75,0-2.63,1-2.63,2.94v6.94H42.49V47.88h1.94V49a3.45,3.45,0,0,1,3-1.43,3.77,3.77,0,0,1,3,1.22,6,6,0,0,1,1,3.89v6.56Z"/><path class="cls-2" d="M61.59,59.28V58.23a4.56,4.56,0,0,1-3.23,1.32,4.1,4.1,0,0,1-2.89-1,3.64,3.64,0,0,1-1.09-2.85,3.35,3.35,0,0,1,1.23-2.81,4.78,4.78,0,0,1,3-1,5.84,5.84,0,0,1,2.94.74v-.81a2.58,2.58,0,0,0-.63-2,2.68,2.68,0,0,0-1.84-.57,5.73,5.73,0,0,0-3.33,1.13l-.56-1.62a7.3,7.3,0,0,1,4.13-1.21q4.06,0,4.06,4.11v7.56Zm-2.94-1.45a3.8,3.8,0,0,0,2.94-1.49v-2a5.05,5.05,0,0,0-2.68-.76,3.29,3.29,0,0,0-1.94.54,1.81,1.81,0,0,0-.76,1.56,2,2,0,0,0,.64,1.54A2.55,2.55,0,0,0,58.65,57.83Z"/><path class="cls-2" d="M66.9,59.28V44.08l1.95-.91V59.28Z"/><path class="cls-2" d="M74,63.61,75.74,59,71.52,47.88h2l2.83,7.76c.1.26.22.62.36,1.1a11.42,11.42,0,0,1,.35-1.1l2.88-7.76h2L76,63.61Z"/><path class="cls-2" d="M87.55,59.55c-1.61,0-2.41-.91-2.41-2.72V49.57H83.29V47.88h1.85V44.11l1.94-.94v4.71h2.81v1.69H87.08v6.61a2.17,2.17,0,0,0,.25,1.16,1,1,0,0,0,.93.4,3.24,3.24,0,0,0,1.7-.6L89.74,59A4.71,4.71,0,0,1,87.55,59.55Z"/><path class="cls-2" d="M94.67,45.46a1.21,1.21,0,0,1-.87.34,1.16,1.16,0,0,1-.86-.35,1.2,1.2,0,0,1-.35-.85,1.19,1.19,0,0,1,.36-.88,1.13,1.13,0,0,1,.85-.37,1.16,1.16,0,0,1,.87.37,1.18,1.18,0,0,1,.35.88A1.14,1.14,0,0,1,94.67,45.46ZM92.84,59.28V47.88h1.94v11.4Z"/><path class="cls-2" d="M102.55,59.55A4.19,4.19,0,0,1,99.09,58a6.79,6.79,0,0,1-1.28-4.39,6.8,6.8,0,0,1,1.29-4.4,4.31,4.31,0,0,1,3.54-1.58,3.84,3.84,0,0,1,4,2.66l-1.83.67a2.13,2.13,0,0,0-2.14-1.52,2.4,2.4,0,0,0-2.15,1.09,5.68,5.68,0,0,0-.71,3.08,5.57,5.57,0,0,0,.71,3,2.34,2.34,0,0,0,2.08,1.08,2.23,2.23,0,0,0,2.32-1.7l1.81.61a3.93,3.93,0,0,1-1.51,2.16A4.49,4.49,0,0,1,102.55,59.55Z"/><path class="cls-2" d="M113,59.55a5.36,5.36,0,0,1-2.33-.52,5.05,5.05,0,0,1-1.8-1.4l1.39-1.18a3.77,3.77,0,0,0,2.79,1.36,2.81,2.81,0,0,0,1.54-.37,1.2,1.2,0,0,0,.58-1.08,1.33,1.33,0,0,0-.43-1,3,3,0,0,0-.87-.65c-.29-.14-.73-.32-1.31-.55a8.23,8.23,0,0,1-2.64-1.45,2.72,2.72,0,0,1-.89-2.12,2.63,2.63,0,0,1,1.08-2.2,4.48,4.48,0,0,1,2.76-.81,4.77,4.77,0,0,1,3.84,1.72l-1.34,1.11a3.4,3.4,0,0,0-2.52-1.09,2.49,2.49,0,0,0-1.39.34,1,1,0,0,0-.51.93,1.2,1.2,0,0,0,.17.62,1.58,1.58,0,0,0,.6.52c.29.16.52.29.69.37s.49.21,1,.39A8.69,8.69,0,0,1,116.13,54a2.92,2.92,0,0,1,.94,2.32A2.84,2.84,0,0,1,116,58.69,4.7,4.7,0,0,1,113,59.55Z"/><rect class="cls-2" x="1.38" y="37.86" width="148.62" height="0.58"/><polygon class="cls-2" points="146.95 64.04 74.03 64.04 74.35 63.17 146.95 63.17 146.95 64.04"/><polygon points="131.82 48.86 136.28 54.15 142.74 45.84 142.72 48.88 144.34 48.88 144.38 42.1 138.45 44.31 139.01 45.83 141.4 44.94 136.23 51.58 131.92 46.48 121.67 57.93 122.82 59.07 131.82 48.86"/></svg>