<svg width="264" height="174" viewBox="0 0 264 174" fill="none" xmlns="http://www.w3.org/2000/svg">
<path d="M139.898 15.335H136.63V104.686H139.898V15.335Z" fill="#1C976E"/>
<path d="M149.088 33.7368H145.821V123.088H149.088V33.7368Z" fill="#1C976E"/>
<path d="M157.87 0H154.603V89.3513H157.87V0Z" fill="#1C976E"/>
<path d="M167.061 46.0046H163.793V135.356H167.061V46.0046Z" fill="#1C976E"/>
<path d="M51.058 32.9189C37.1703 26.9894 21.036 33.5323 14.9091 47.4359C8.98636 61.3396 15.5218 77.6968 29.4095 83.6263C43.2972 89.5558 59.4314 83.0129 65.5584 69.1093C71.4811 55.0012 64.9457 38.8484 51.058 32.9189ZM33.4941 74.2209C24.7122 70.5405 20.6275 60.3173 24.3037 51.5252C27.9799 42.7332 38.1914 38.6439 46.9734 42.3243C55.7553 46.0047 59.8399 56.2279 56.1637 65.02C52.4876 73.812 42.276 77.9013 33.4941 74.2209Z" fill="#1C976E"/>
<path d="M44.7268 47.6403C38.8041 45.1867 32.0644 47.8447 29.6137 53.7742C27.1629 59.7037 29.8179 66.4511 35.7406 68.9047C41.6633 71.3583 48.4029 68.7002 50.8537 62.7707C53.5087 56.8412 50.6495 50.0939 44.7268 47.6403Z" fill="#1C976E"/>
<path d="M52.4876 42.1199L42.4802 37.8261L51.0579 20.8555L58.8187 24.1269L52.4876 42.1199Z" fill="#1C976E"/>
<path d="M37.7829 76.6744L27.5713 72.3806L21.4444 90.578L29.2052 93.8495L37.7829 76.6744Z" fill="#1C976E"/>
<path d="M59.0228 56.228L55.5509 45.8002L73.9317 40.8931L76.5867 49.0717L59.0228 56.228Z" fill="#1C976E"/>
<path d="M55.9595 72.9941L59.6357 62.5664L77.1996 70.3361L74.3403 78.3102L55.9595 72.9941Z" fill="#1C976E"/>
<path d="M20.2191 56.6369L24.0995 46.4136L5.71873 40.8931L2.8595 48.6627L20.2191 56.6369Z" fill="#1C976E"/>
<path d="M27.5714 42.7334L37.5787 38.0307L28.3883 21.469L20.6276 24.9449L27.5714 42.7334Z" fill="#1C976E"/>
<path d="M52.4876 73.812L42.4802 78.3103L51.4664 95.0764L59.2272 91.6005L52.4876 73.812Z" fill="#1C976E"/>
<path d="M20.4233 60.3174L23.691 70.7451L5.10592 75.2434L2.65515 67.0647L20.4233 60.3174Z" fill="#1C976E"/>
<path d="M228.739 85.671C231.598 85.0576 237.112 84.6487 242.422 84.6487C248.958 84.6487 252.838 85.2621 256.31 87.3067C259.578 88.9425 261.824 92.2139 261.824 96.5077C261.824 100.597 259.374 104.482 254.063 106.526V106.731C259.374 108.162 263.254 112.252 263.254 118.181C263.254 122.475 261.212 125.746 258.352 128.2C254.88 130.858 249.366 132.494 239.972 132.494C234.866 132.494 230.985 132.085 228.535 131.88V85.671H228.739ZM239.155 103.664H242.627C248.141 103.664 251.204 101.415 251.204 97.9389C251.204 94.463 248.549 92.6228 243.648 92.6228C241.401 92.6228 239.972 92.8273 239.155 92.8273V103.664ZM239.155 124.315C240.176 124.519 241.401 124.519 243.239 124.519C247.937 124.519 252.225 122.679 252.225 117.772C252.225 113.069 247.937 111.229 242.831 111.229H239.155V124.315Z" fill="#1C976E"/>
<path d="M238.95 78.1057H234.049V89.7602H238.95V78.1057Z" fill="#1C976E"/>
<path d="M249.366 78.1057H244.465V89.7602H249.366V78.1057Z" fill="#1C976E"/>
<path d="M238.95 126.769H234.049V138.423H238.95V126.769Z" fill="#1C976E"/>
<path d="M249.366 126.769H244.465V138.423H249.366V126.769Z" fill="#1C976E"/>
<path d="M255.493 156.62C255.493 166.23 198.308 174 127.849 174C57.1847 174 0 166.23 0 156.62C0 147.01 57.1847 139.241 127.644 139.241C198.308 139.241 255.493 147.01 255.493 156.62Z" fill="#F8F8F9"/>
<path d="M198.308 144.762C198.308 148.033 195.449 150.691 191.977 150.691H45.5435C42.0716 150.691 39.2123 148.033 39.2123 144.762V58.6817C39.2123 55.4103 42.0716 52.7522 45.5435 52.7522H191.977C195.449 52.7522 198.308 55.4103 198.308 58.6817V144.762Z" fill="#FFE9BA"/>
<path d="M190.139 63.3843H46.7688V145.784H190.139V63.3843Z" fill="#214975"/>
<path d="M49.6282 135.356V147.215H49.8324C51.262 150.282 65.5582 152.94 82.9178 152.94C100.277 152.94 114.574 150.487 116.003 147.215H116.208V135.356H49.6282Z" fill="#1C976E"/>
<path d="M61.6777 135.765V151.509C64.9454 152.122 69.03 152.327 73.3189 152.736V135.97H61.6777V135.765Z" fill="#FED150"/>
<path d="M75.3615 138.628V152.736C76.3826 152.736 77.1995 152.736 78.2207 152.736V138.423H75.3615V138.628Z" fill="#FED150"/>
<path d="M116.208 135.356C116.208 138.219 101.299 140.672 82.9178 140.672C64.537 140.672 49.6282 138.219 49.6282 135.356C49.6282 132.494 64.537 130.04 82.9178 130.04C101.299 130.04 116.208 132.494 116.208 135.356Z" fill="#FFE984"/>
<path d="M108.038 135.765C108.038 138.014 96.8056 139.854 82.9178 139.854C69.0301 139.854 57.7974 138.014 57.7974 135.765C57.7974 133.516 69.0301 131.676 82.9178 131.676C96.8056 131.676 108.038 133.516 108.038 135.765Z" fill="#1C976E"/>
<path d="M82.9179 139.854C95.438 139.854 105.588 138.206 105.588 136.174C105.588 134.141 95.438 132.493 82.9179 132.493C70.3977 132.493 60.2482 134.141 60.2482 136.174C60.2482 138.206 70.3977 139.854 82.9179 139.854Z" fill="#FED150"/>
<path d="M46.3605 120.839V132.698H46.5647C47.9943 135.765 62.2905 138.423 79.6501 138.423C97.0098 138.423 111.306 135.97 112.736 132.698H112.94V120.839H46.3605Z" fill="#1C976E"/>
<path d="M58.41 121.248V136.992C61.6777 137.605 65.7623 137.81 70.0511 138.219V121.453H58.41V121.248Z" fill="#FED150"/>
<path d="M72.0938 123.906V138.014C73.1149 138.014 73.9318 138.014 74.953 138.014V123.702H72.0938V123.906Z" fill="#FED150"/>
<path d="M112.94 120.839C112.94 123.702 98.0309 126.155 79.6501 126.155C61.2693 126.155 46.3605 123.702 46.3605 120.839C46.3605 117.977 61.2693 115.523 79.6501 115.523C98.0309 115.523 112.94 117.772 112.94 120.839Z" fill="#FFE984"/>
<path d="M104.771 121.044C104.771 123.293 93.5379 125.133 79.6501 125.133C65.7624 125.133 54.5297 123.293 54.5297 121.044C54.5297 118.795 65.7624 116.954 79.6501 116.954C93.5379 117.159 104.771 118.999 104.771 121.044Z" fill="#1C976E"/>
<path d="M102.32 121.452C102.32 123.497 92.1083 125.133 79.6502 125.133C67.1921 125.133 56.9805 123.497 56.9805 121.452C56.9805 119.408 67.1921 117.772 79.6502 117.772C92.1083 117.976 102.32 119.612 102.32 121.452Z" fill="#FED150"/>
<path d="M42.2758 106.322V118.181H42.48C43.9096 121.248 58.2058 123.906 75.5654 123.906C92.9251 123.906 107.221 121.452 108.651 118.181H108.855V106.322H42.2758Z" fill="#1C976E"/>
<path d="M54.3253 106.526V122.27C57.593 122.884 61.6776 123.088 65.9664 123.497V106.731H54.3253V106.526Z" fill="#FED150"/>
<path d="M68.2131 109.389V123.497C69.2342 123.497 70.0511 123.497 71.0723 123.497V109.185H68.2131V109.389Z" fill="#FED150"/>
<path d="M108.855 106.322C108.855 109.184 93.9462 111.638 75.5654 111.638C57.1846 111.638 42.2758 109.184 42.2758 106.322C42.2758 103.459 57.1846 101.006 75.5654 101.006C93.9462 100.801 108.855 103.255 108.855 106.322Z" fill="#FFE984"/>
<path d="M100.686 106.526C100.686 108.775 89.4531 110.616 75.5654 110.616C61.6777 110.616 50.445 108.775 50.445 106.526C50.445 104.277 61.6777 102.437 75.5654 102.437C89.4531 102.437 100.686 104.277 100.686 106.526Z" fill="#1C976E"/>
<path d="M98.2351 106.935C98.2351 108.98 88.0235 110.616 75.5654 110.616C63.1073 110.616 52.8958 108.98 52.8958 106.935C52.8958 104.891 63.1073 103.255 75.5654 103.255C88.0235 103.255 98.2351 104.891 98.2351 106.935Z" fill="#FED150"/>
<path d="M49.6282 90.7827V102.642H49.8324C51.262 105.709 65.5582 108.367 82.9178 108.367C100.277 108.367 114.574 105.913 116.003 102.642H116.208V90.7827H49.6282Z" fill="#1C976E"/>
<path d="M61.6777 90.9871V106.731C64.9454 107.344 69.03 107.549 73.3189 107.958V91.1915H61.6777V90.9871Z" fill="#FED150"/>
<path d="M75.3615 93.8497V107.958C76.3826 107.958 77.1995 107.958 78.2207 107.958V93.6453H75.3615V93.8497Z" fill="#FED150"/>
<path d="M116.208 90.7826C116.208 93.6451 101.299 96.0987 82.9178 96.0987C64.537 96.0987 49.6282 93.6451 49.6282 90.7826C49.6282 87.9201 64.537 85.4665 82.9178 85.4665C101.299 85.262 116.208 87.7156 116.208 90.7826Z" fill="#FFE984"/>
<path d="M108.038 90.987C108.038 93.2361 96.8056 95.0763 82.9178 95.0763C69.0301 95.0763 57.7974 93.2361 57.7974 90.987C57.7974 88.7379 69.0301 86.8977 82.9178 86.8977C96.8056 86.8977 108.038 88.7379 108.038 90.987Z" fill="#1C976E"/>
<path d="M105.588 91.3959C105.588 93.4406 95.3759 95.0763 82.9179 95.0763C70.4598 95.0763 60.2482 93.4406 60.2482 91.3959C60.2482 89.3513 70.4598 87.7156 82.9179 87.7156C95.3759 87.7156 105.588 89.3513 105.588 91.3959Z" fill="#FED150"/>
<path d="M118.046 134.742V146.601H118.25C119.679 149.668 133.976 152.326 151.335 152.326C168.695 152.326 182.991 149.873 184.421 146.601H184.625V134.742H118.046Z" fill="#1C976E"/>
<path d="M130.095 134.947V150.691C133.363 151.304 137.447 151.509 141.736 151.918V134.947H130.095Z" fill="#FED150"/>
<path d="M143.779 137.81V151.918C144.8 151.918 145.617 151.918 146.638 151.918V137.605H143.779V137.81Z" fill="#FED150"/>
<path d="M184.421 134.743C184.421 137.605 169.512 140.059 151.131 140.059C132.75 140.059 117.841 137.605 117.841 134.743C117.841 131.88 132.75 129.426 151.131 129.426C169.512 129.222 184.421 131.676 184.421 134.743Z" fill="#FFE984"/>
<path d="M176.456 134.947C176.456 137.196 165.223 139.036 151.335 139.036C137.448 139.036 126.215 137.196 126.215 134.947C126.215 132.698 137.448 130.858 151.335 130.858C165.223 130.858 176.456 132.698 176.456 134.947Z" fill="#1C976E"/>
<path d="M174.005 135.356C174.005 137.401 163.793 139.036 151.335 139.036C138.877 139.036 128.665 137.401 128.665 135.356C128.665 133.311 138.877 131.676 151.335 131.676C163.793 131.676 174.005 133.311 174.005 135.356Z" fill="#FED150"/>
<path d="M126.01 121.043V132.902H126.215C127.644 135.969 141.941 138.627 159.3 138.627C176.66 138.627 190.956 136.174 192.386 132.902H192.59V121.043H126.01Z" fill="#1C976E"/>
<path d="M138.06 121.452V136.992C141.328 137.605 145.412 137.81 149.701 138.219V121.452H138.06Z" fill="#FED150"/>
<path d="M151.948 124.11V138.218C152.969 138.218 153.786 138.218 154.807 138.218V123.906H151.948V124.11Z" fill="#FED150"/>
<path d="M192.59 121.043C192.59 123.906 177.681 126.359 159.3 126.359C140.919 126.359 126.01 123.906 126.01 121.043C126.01 118.181 140.919 115.727 159.3 115.727C177.681 115.727 192.59 117.976 192.59 121.043Z" fill="#FFE984"/>
<path d="M184.421 121.248C184.421 123.497 173.188 125.337 159.3 125.337C145.412 125.337 134.18 123.497 134.18 121.248C134.18 118.999 145.412 117.158 159.3 117.158C173.188 117.363 184.421 118.999 184.421 121.248Z" fill="#1C976E"/>
<path d="M181.97 121.657C181.97 123.701 171.758 125.337 159.3 125.337C146.842 125.337 136.63 123.701 136.63 121.657C136.63 119.612 146.842 117.976 159.3 117.976C171.758 117.976 181.97 119.612 181.97 121.657Z" fill="#FED150"/>
<path d="M213.626 145.784H22.2611V155.803H213.626V145.784Z" fill="#EFCD92"/>
<path d="M20.6273 129.222V126.359C18.5849 126.359 16.7469 125.746 15.7257 125.133L16.5426 121.657C17.768 122.27 19.4019 122.884 21.4442 122.884C23.078 122.884 24.3034 122.27 24.3034 121.043C24.3034 120.021 23.2823 119.203 21.2399 118.59C18.1765 117.567 15.9299 116.136 15.9299 113.274C15.9299 110.616 17.768 108.775 20.8315 108.162V105.3H23.6907V107.958C25.733 107.958 26.9584 108.367 27.9796 108.98L27.1627 112.251C26.3457 111.842 25.1203 111.229 22.8738 111.229C21.0357 111.229 20.423 112.047 20.423 112.865C20.423 113.887 21.4442 114.501 23.895 115.318C27.3669 116.545 28.7965 118.181 28.7965 120.839C28.7965 123.497 26.9584 125.542 23.6907 126.155V129.222H20.6273Z" fill="#1C976E"/>
<path d="M232.619 153.758L234.049 157.029L230.781 157.643L228.943 153.349L232.619 153.758Z" fill="#FFD9A7"/>
<path d="M230.168 156.62C230.168 156.62 232.211 157.643 233.436 155.598C233.436 155.598 237.929 159.892 234.457 161.937C230.985 163.981 224.042 165.617 222.612 164.39C220.365 162.55 225.88 158.87 230.168 156.62Z" fill="#E66254"/>
<path d="M205.865 155.598L206.069 159.279L202.801 158.461V153.758L205.865 155.598Z" fill="#FFD9A7"/>
<path d="M222.816 88.3291C222.816 88.3291 224.654 96.7122 215.668 104.277L204.639 124.111C204.639 124.111 208.928 144.966 207.09 154.371C206.273 158.052 202.189 156.416 201.78 155.189C198.513 145.579 192.181 125.951 195.449 114.91C198.308 105.504 204.231 99.5747 204.231 99.5747L222.816 88.3291Z" fill="#52456B"/>
<path d="M202.597 157.234C202.597 157.234 204.231 159.074 206.069 157.643C206.069 157.643 208.52 163.368 204.64 163.981C200.759 164.595 193.611 163.572 192.59 161.732C191.365 159.074 197.9 157.643 202.597 157.234Z" fill="#E66254"/>
<path d="M222.612 85.262C222.612 85.262 227.513 92.2138 221.999 102.846L219.14 125.337C219.14 125.337 230.985 142.921 232.824 152.327C233.436 156.007 229.147 156.211 228.126 154.985C221.387 147.215 208.112 131.676 207.09 120.226C206.069 110.411 209.337 102.642 209.337 102.642L222.612 85.262Z" fill="#675781"/>
<path d="M204.844 64.2022C205.865 63.5888 207.703 62.5664 208.52 65.02C209.133 67.4736 201.78 80.3549 199.33 82.3996C197.083 84.4442 181.766 88.5335 181.766 88.5335C181.766 88.5335 180.132 88.3291 181.357 86.2844L195.858 79.7415C195.858 79.5371 201.78 66.4513 204.844 64.2022Z" fill="#AFAE35"/>
<path d="M217.506 63.9976C221.182 67.0645 224.042 74.0164 224.654 96.9165C224.858 101.824 201.985 100.801 201.985 95.8942C202.189 82.6039 197.287 73.6074 204.027 64.8154C204.027 64.611 210.358 57.8636 217.506 63.9976Z" fill="#D8D844"/>
<path d="M211.788 55.4102C211.788 55.4102 210.358 59.0905 211.788 61.5441C212.605 62.9754 206.069 68.087 206.069 66.0423C206.274 63.3843 207.499 61.7486 206.069 58.8861L211.788 55.4102Z" fill="#EFC18F"/>
<path d="M206.069 49.0717C204.027 51.3208 201.985 60.7262 204.436 62.5664C205.457 63.3842 209.746 62.1574 212.196 58.0681C213.217 56.4324 214.443 53.161 212.605 50.094C211.584 48.6627 208.52 46.4136 206.069 49.0717Z" fill="#FFD9A8"/>
<path d="M202.393 50.094C202.393 50.094 203.618 51.7297 207.09 52.1386C210.562 52.5475 211.175 52.1386 210.971 53.1609C209.95 55.6145 212.605 55.6145 211.583 58.6815C210.358 61.7485 212.605 59.0904 213.013 58.477C213.422 58.0681 216.281 54.3877 214.034 50.2984C211.583 46.0046 205.252 47.6404 202.393 50.094Z" fill="#9B4D34"/>
<path d="M208.112 89.1467V100.188H207.907C206.478 103.255 192.998 105.504 176.864 105.504C160.73 105.504 147.251 103.255 145.821 100.188H145.617V89.1467H208.112Z" fill="#1C976E"/>
<path d="M196.879 89.5557V104.277C193.815 104.686 189.935 105.095 186.055 105.299V89.5557H196.879Z" fill="#FED150"/>
<path d="M183.808 92.2139V105.504C182.991 105.504 181.97 105.504 181.153 105.504V92.2139H183.808Z" fill="#FED150"/>
<path d="M145.617 89.1468C145.617 92.0093 159.709 94.2584 176.864 94.2584C194.224 94.2584 208.112 92.0093 208.112 89.1468C208.112 86.2843 194.02 84.0352 176.864 84.0352C159.709 84.2396 145.617 86.4887 145.617 89.1468Z" fill="#FFE984"/>
<path d="M153.173 89.5557C153.173 91.6004 163.793 93.4406 176.864 93.4406C189.935 93.4406 200.555 91.8049 200.555 89.5557C200.555 87.5111 189.935 85.6709 176.864 85.6709C163.793 85.6709 153.173 87.3066 153.173 89.5557Z" fill="#1C976E"/>
<path d="M155.624 89.7601C155.624 91.6003 165.223 93.236 176.864 93.236C188.505 93.236 198.104 91.6003 198.104 89.7601C198.104 87.9199 188.505 86.2842 176.864 86.2842C165.223 86.2842 155.624 87.9199 155.624 89.7601Z" fill="#FED150"/>
<path d="M205.048 98.1433C205.048 98.1433 198.513 100.188 200.555 100.801C202.597 101.415 204.435 101.824 206.682 99.1656L205.048 98.1433Z" fill="#EFC18F"/>
<path d="M213.83 67.0646C214.239 66.0423 215.464 63.7932 217.302 65.6333C219.957 68.7003 220.161 82.195 219.344 85.0575C218.527 87.9201 206.478 99.5746 206.478 99.5746C206.478 99.5746 204.64 99.5746 204.64 97.7344L215.055 83.6263C215.055 83.8308 212.605 70.9494 213.83 67.0646Z" fill="#AFAE35"/>
<path d="M79.2417 93.4408C79.8544 92.8274 81.0798 89.9648 81.0798 89.9648C81.0798 89.9648 82.3051 92.6229 83.1221 93.4408C83.7348 94.0542 86.594 95.2809 86.594 95.2809C86.594 95.2809 83.939 96.5077 83.1221 97.3256C82.5094 97.939 81.284 100.802 81.284 100.802C81.284 100.802 80.0586 98.1435 79.2417 97.3256C78.629 96.7122 75.7697 95.4854 75.7697 95.4854C75.7697 95.4854 78.629 94.0542 79.2417 93.4408Z" fill="#F7F7FC"/>
<path d="M94.3548 75.6522C94.9675 75.0388 96.1929 72.1763 96.1929 72.1763C96.1929 72.1763 97.4183 74.8343 98.2352 75.6522C98.8479 76.2656 101.707 77.4924 101.707 77.4924C101.707 77.4924 99.0521 78.7192 98.2352 79.537C97.6225 80.1504 96.3971 83.0129 96.3971 83.0129C96.3971 83.0129 95.1717 80.3549 94.3548 79.537C93.5379 78.9236 90.8829 77.6968 90.8829 77.6968C90.8829 77.6968 93.7421 76.2656 94.3548 75.6522Z" fill="#F7F7FC"/>
<path d="M58.0017 106.935C58.6143 106.322 59.8397 103.459 59.8397 103.459C59.8397 103.459 61.0651 106.118 61.882 106.935C62.4947 107.549 65.354 108.776 65.354 108.776C65.354 108.776 62.699 110.002 61.882 110.82C61.2694 111.434 60.044 114.296 60.044 114.296C60.044 114.296 58.8186 111.638 58.0017 110.82C57.389 110.207 54.5297 108.98 54.5297 108.98C54.5297 108.98 57.1847 107.549 58.0017 106.935Z" fill="#F7F7FC"/>
<path d="M63.3117 128.609C63.9244 127.995 65.1498 125.133 65.1498 125.133C65.1498 125.133 66.3752 127.791 67.1921 128.609C67.8048 129.222 70.664 130.449 70.664 130.449C70.664 130.449 68.009 131.676 67.1921 132.494C66.3752 132.903 65.354 135.765 65.354 135.765C65.354 135.765 64.1286 133.107 63.3117 132.289C62.699 131.676 59.8398 130.449 59.8398 130.449C59.8398 130.449 62.699 129.222 63.3117 128.609Z" fill="#F7F7FC"/>
</svg>
