<svg id="Layer_1" data-name="Layer 1" xmlns="http://www.w3.org/2000/svg" viewBox="0 0 150 75.5"><defs><style>.cls-1{fill:#214975;}.cls-2{fill:#1c976e;}</style></defs><path class="cls-1" d="M24.49,48.47V29.58L27.8,28V48.47Z"/><path class="cls-1" d="M38.11,48.81a6.13,6.13,0,0,1-4.84-2,8.07,8.07,0,0,1-1.79-5.55,8.14,8.14,0,0,1,1.79-5.57,6.1,6.1,0,0,1,4.84-2,6.14,6.14,0,0,1,4.85,2,8.09,8.09,0,0,1,1.8,5.57A8.06,8.06,0,0,1,43,46.8,6.18,6.18,0,0,1,38.11,48.81Zm0-3.17a2.93,2.93,0,0,0,2.45-1.16,5.23,5.23,0,0,0,.89-3.23A5.37,5.37,0,0,0,40.56,38a2.91,2.91,0,0,0-2.45-1.19A2.85,2.85,0,0,0,35.7,38a5.28,5.28,0,0,0-.91,3.24,5.14,5.14,0,0,0,.9,3.21A2.86,2.86,0,0,0,38.11,45.64Z"/><path class="cls-1" d="M54.05,48.81a5.91,5.91,0,0,1-4.71-2,8.21,8.21,0,0,1-1.75-5.55,8.28,8.28,0,0,1,1.75-5.57,5.89,5.89,0,0,1,4.71-2q4.47,0,5.75,4L56.66,38.7a2.53,2.53,0,0,0-2.49-1.87A2.75,2.75,0,0,0,51.81,38,5.5,5.5,0,0,0,51,41.25a5.41,5.41,0,0,0,.84,3.19,2.63,2.63,0,0,0,2.25,1.17,2.58,2.58,0,0,0,2.64-2.1l3.17,1A5.49,5.49,0,0,1,54.05,48.81Z"/><path class="cls-1" d="M76.08,48.47H72.46l-4.14-8-1.61,1.59v6.4H63.4V29.58L66.71,28V38.19L70.79,34h4L70.7,38.11Z"/><path class="cls-2" d="M86.56,48.81a8.56,8.56,0,0,1-3.23-.59A6.63,6.63,0,0,1,81,46.63a8.7,8.7,0,0,1-1.54-2.35,11.87,11.87,0,0,1-.9-2.78,15.6,15.6,0,0,1-.27-2.94A14,14,0,0,1,78.72,35a12.07,12.07,0,0,1,1.39-3.27,7,7,0,0,1,2.6-2.49,8.42,8.42,0,0,1,8.27.28,6.63,6.63,0,0,1,2.49,3l-3.06,1.38a6.12,6.12,0,0,0-1.65-1.78,3.93,3.93,0,0,0-2.2-.57,4.11,4.11,0,0,0-2.28.64,4.25,4.25,0,0,0-1.5,1.7A9.11,9.11,0,0,0,82,36.14a12,12,0,0,0-.24,2.42A9.45,9.45,0,0,0,83,43.43a3.89,3.89,0,0,0,3.55,2.1q2.26,0,3.8-2.55l3.14,1.19A7.11,7.11,0,0,1,86.56,48.81Z"/><path class="cls-2" d="M97,48.47V29.55L100.27,28v7.34a4.72,4.72,0,0,1,3.82-1.7,5,5,0,0,1,3.7,1.42,6.12,6.12,0,0,1,1.43,4.5v8.89H105.9V40.12c0-2.21-.89-3.32-2.69-3.32q-2.94,0-2.94,3.26v8.41Z"/><path class="cls-2" d="M121.57,48.47V47.31a5.12,5.12,0,0,1-3.86,1.5,5.6,5.6,0,0,1-3.78-1.26A4.44,4.44,0,0,1,112.47,44a4.16,4.16,0,0,1,1.66-3.57,6.61,6.61,0,0,1,4-1.22,6.94,6.94,0,0,1,3.43.76v-.76a2.59,2.59,0,0,0-.7-2,3.09,3.09,0,0,0-2.14-.62,7.34,7.34,0,0,0-4.3,1.36l-1-2.69a10.95,10.95,0,0,1,7.66-1.41,6.15,6.15,0,0,1,1.78.73,3.43,3.43,0,0,1,1.43,1.7,7.14,7.14,0,0,1,.51,2.88v9.32Zm-3.23-2.58a4.33,4.33,0,0,0,3.23-1.38V42.64a6.64,6.64,0,0,0-2.89-.6,4.27,4.27,0,0,0-2.16.48A1.62,1.62,0,0,0,115.7,44a1.64,1.64,0,0,0,.68,1.38A3.24,3.24,0,0,0,118.34,45.89Z"/><path class="cls-2" d="M131.84,31.44a1.87,1.87,0,0,1-1.38.58,2,2,0,0,1-2-2,1.87,1.87,0,0,1,.58-1.38,2,2,0,0,1,1.41-.57,1.95,1.95,0,0,1,1.95,2A2,2,0,0,1,131.84,31.44Zm-3.05,17V34h3.31V48.47Z"/><path class="cls-2" d="M145.33,48.47v-8.3c0-2.24-.9-3.37-2.7-3.37q-2.94,0-2.94,3.32v8.35h-3.31V34h3.31v1.36a4.72,4.72,0,0,1,3.82-1.7,5,5,0,0,1,3.7,1.42,6.12,6.12,0,0,1,1.43,4.5v8.89Z"/><path class="cls-1" d="M15.67,50.75H11V48.66H9.27v2.09H4.54V48.66H1.23V43.93H3.48V29.19H1.23V24.47H4.54V21.91H9.27v2.56H11V21.91h4.72v2.58a6.92,6.92,0,0,1,6.41,6.88v.38a6.85,6.85,0,0,1-1.4,4.15,7.16,7.16,0,0,1,2.24,5.2v.39a7.17,7.17,0,0,1-7.16,7.17h-.09Zm-4.54-.19h4.36V48.48h.27a7,7,0,0,0,7-7V41.1A7,7,0,0,0,20.49,36l-.06-.06.05-.07a6.6,6.6,0,0,0,1.41-4.1v-.38a6.72,6.72,0,0,0-6.31-6.7h-.09V22.09H11.13v2.56H9.08V22.09H4.72v2.56H1.41V29H3.66v15.1H1.41v4.37H4.72v2.08H9.08V48.48h2.05Zm4.63-6.45H8V38.47h7.74a2.63,2.63,0,0,1,2.62,2.63v.39A2.62,2.62,0,0,1,15.76,44.11Zm-7.55-.18h7.55a2.44,2.44,0,0,0,2.44-2.44V41.1a2.44,2.44,0,0,0-2.44-2.44H8.21Zm7-9.82H8V29h7.15a2.36,2.36,0,0,1,2.36,2.36v.38A2.36,2.36,0,0,1,15.17,34.11Zm-7-.18h7a2.19,2.19,0,0,0,2.18-2.18v-.38a2.19,2.19,0,0,0-2.18-2.18h-7Z"/><path class="cls-1" d="M15.67,50.75H11V48.66H9.27v2.09H4.54V48.66H1.23V43.93H3.48V29.19H1.23V24.47H4.54V21.91H9.27v2.56H11V21.91h4.72v2.58a6.92,6.92,0,0,1,6.41,6.88v.38a6.85,6.85,0,0,1-1.4,4.15,7.16,7.16,0,0,1,2.24,5.2v.39a7.17,7.17,0,0,1-7.16,7.17h-.09Zm-4.54-.19h4.36V48.48h.27a7,7,0,0,0,7-7V41.1A7,7,0,0,0,20.49,36l-.06-.06.05-.07a6.6,6.6,0,0,0,1.41-4.1v-.38a6.72,6.72,0,0,0-6.31-6.7h-.09V22.09H11.13v2.56H9.08V22.09H4.72v2.56H1.41V29H3.66v15.1H1.41v4.37H4.72v2.08H9.08V48.48h2.05Zm4.63-6.45H8V38.47h7.74a2.63,2.63,0,0,1,2.62,2.63v.39A2.62,2.62,0,0,1,15.76,44.11Zm-7.55-.18h7.55a2.44,2.44,0,0,0,2.44-2.44V41.1a2.44,2.44,0,0,0-2.44-2.44H8.21Zm7-9.82H8V29h7.15a2.36,2.36,0,0,1,2.36,2.36v.38A2.36,2.36,0,0,1,15.17,34.11Zm-7-.18h7a2.19,2.19,0,0,0,2.18-2.18v-.38a2.19,2.19,0,0,0-2.18-2.18h-7Z"/><path class="cls-1" d="M15.24,50.31H11.39V48.22H8.83v2.09H5V48.22H1.67V44.37H3.92V28.75H1.67V24.91H5V22.35H8.83v2.56h2.56V22.35h3.85v2.56l.32,0a6.46,6.46,0,0,1,6.08,6.44v.38a6.41,6.41,0,0,1-1.36,4l-.19.25.23.22a6.73,6.73,0,0,1,2.17,4.93v.39a6.74,6.74,0,0,1-6.73,6.73h-.52Zm-3.67-.18h3.48V48h.71a6.55,6.55,0,0,0,6.54-6.55V41.1a6.57,6.57,0,0,0-2.11-4.8L19.84,36l.3-.38a6.27,6.27,0,0,0,1.32-3.84v-.38a6.29,6.29,0,0,0-5.91-6.26l-.5,0V22.53H11.57v2.56H8.65V22.53H5.16v2.56H1.85v3.48H4.1v16H1.85V48H5.16v2.09H8.65V48h2.92Zm4.19-5.58H7.59V38h8.17a3.07,3.07,0,0,1,3.06,3.07v.39A3.07,3.07,0,0,1,15.76,44.55Zm-8-.18h8a2.89,2.89,0,0,0,2.88-2.88V41.1a2.89,2.89,0,0,0-2.88-2.88h-8Zm7.4-9.82H7.59v-6h7.58a2.81,2.81,0,0,1,2.8,2.8v.38A2.81,2.81,0,0,1,15.17,34.55Zm-7.4-.18h7.4a2.63,2.63,0,0,0,2.62-2.62v-.38a2.63,2.63,0,0,0-2.62-2.62H7.77Z"/><path class="cls-1" d="M14.7,49.78H11.92V47.69H8.3v2.09H5.51V47.69H2.2V44.9H4.45V28.22H2.2V25.44H5.51V22.88H8.3v2.56h3.62V22.88H14.7v2.53l.83.05a5.93,5.93,0,0,1,5.58,5.91v.38a5.83,5.83,0,0,1-1.25,3.62l-.49.64.59.54a6.22,6.22,0,0,1,2,4.55v.39a6.2,6.2,0,0,1-6.19,6.2H14.7Zm-2.6-.19h2.42V47.51h1.24a6,6,0,0,0,6-6V41.1a6,6,0,0,0-1.94-4.41L19.12,36l.6-.77a5.69,5.69,0,0,0,1.2-3.51v-.38a5.75,5.75,0,0,0-5.4-5.73l-1-.06V23.06H12.1v2.56h-4V23.06H5.69v2.56H2.38V28H4.63v17H2.38v2.43H5.69v2.08H8.11V47.51h4Zm3.66-4.51H7.05V37.5h8.71a3.6,3.6,0,0,1,3.59,3.6v.39A3.59,3.59,0,0,1,15.76,45.08ZM7.24,44.9h8.52a3.41,3.41,0,0,0,3.41-3.41V41.1a3.41,3.41,0,0,0-3.41-3.41H7.24Zm7.93-9.82H7.05V28h8.12a3.34,3.34,0,0,1,3.33,3.33v.38A3.33,3.33,0,0,1,15.17,35.08ZM7.24,34.9h7.93a3.16,3.16,0,0,0,3.15-3.15v-.38a3.16,3.16,0,0,0-3.15-3.15H7.24Z"/><path class="cls-1" d="M14.17,49.25H12.45V47.16H7.77v2.09H6V47.16H2.73V45.43H5V27.69H2.73V26H6V23.41H7.77V26h4.68V23.41h1.72v2.5L15.5,26a5.4,5.4,0,0,1,5.08,5.38v.38a5.37,5.37,0,0,1-1.14,3.3l-.79,1,1,.87a5.69,5.69,0,0,1,1.82,4.16v.39a5.67,5.67,0,0,1-5.66,5.67H14.17Zm-1.54-.19H14V47h1.77a5.49,5.49,0,0,0,5.48-5.48V41.1a5.47,5.47,0,0,0-1.77-4l-1.07-1,.9-1.16a5.17,5.17,0,0,0,1.09-3.18v-.38a5.21,5.21,0,0,0-4.9-5.2L14,26.08V23.59H12.63v2.56H7.58V23.59H6.22v2.56H2.91v1.36H5.16V45.62H2.91V47H6.22v2.09H7.58V47h5.05Zm3.13-3.44H6.52V37h9.24a4.13,4.13,0,0,1,4.12,4.13v.39A4.13,4.13,0,0,1,15.76,45.62Zm-9-.19h9.05a4,4,0,0,0,3.94-3.94V41.1a4,4,0,0,0-3.94-4h-9Zm8.46-9.82H6.52v-8.1h8.65A3.86,3.86,0,0,1,19,31.37v.38A3.86,3.86,0,0,1,15.17,35.61Zm-8.46-.18h8.46a3.68,3.68,0,0,0,3.68-3.68v-.38a3.68,3.68,0,0,0-3.68-3.68H6.71Z"/><path class="cls-1" d="M13.64,48.71H13V46.63H7.23v2.08H6.57V46.63H3.26V46H5.51V27.16H3.26V26.5H6.57V23.94h.66V26.5H13V23.94h.66v2.47l1.83.11A4.87,4.87,0,0,1,20,31.37v.38a4.79,4.79,0,0,1-1,3l-1.09,1.41,1.31,1.2a5.17,5.17,0,0,1,1.65,3.77v.39a5.14,5.14,0,0,1-5.13,5.14H13.64Zm-.48-.18h.3V46.44h2.3a5,5,0,0,0,5-4.95V41.1a5,5,0,0,0-1.6-3.63l-1.43-1.32,1.2-1.54a4.65,4.65,0,0,0,1-2.86v-.38a4.69,4.69,0,0,0-4.41-4.67l-2-.12V24.13h-.3v2.55H7.05V24.13H6.76v2.55H3.44V27H5.7V46.15H3.44v.29H6.76v2.09h.29V46.44h6.11Zm2.6-2.38H6V36.44h9.77a4.66,4.66,0,0,1,4.65,4.66v.39A4.66,4.66,0,0,1,15.76,46.15ZM6.17,46h9.59a4.47,4.47,0,0,0,4.47-4.47V41.1a4.48,4.48,0,0,0-4.47-4.48H6.17Zm9-9.82H6V27h9.18a4.4,4.4,0,0,1,4.4,4.39v.38A4.4,4.4,0,0,1,15.17,36.14Zm-9-.18h9a4.22,4.22,0,0,0,4.21-4.21v-.38a4.22,4.22,0,0,0-4.21-4.21h-9Z"/></svg>