<svg width="221" height="170" viewBox="0 0 221 170" fill="none" xmlns="http://www.w3.org/2000/svg">
<path d="M34.3299 44.1111C35.1504 36.0522 41.8784 29.7718 49.9738 29.7718C52.9275 29.7718 55.7171 30.6055 58.1239 32.1061C60.5306 30.3831 63.4296 29.3827 66.6022 29.3827C73.9865 29.3827 80.1128 34.9406 81.152 42.1659C88.0441 43.7777 93.2404 50.0581 93.2404 57.6168C93.2404 66.3983 86.239 73.4568 77.6513 73.4568H40.0186C31.7044 73.4568 25.0311 66.6206 25.0311 58.2282C24.9765 51.8366 28.8601 46.3899 34.3299 44.1111Z" fill="#1C976E"/>
<path opacity="0.6" d="M74.0805 56.2469C74.2431 55.3468 74.3515 54.3905 74.3515 53.4341C74.3515 52.4778 74.2431 51.5214 74.0805 50.6213L71.9666 50.3401C71.6956 49.44 71.3703 48.5961 70.9367 47.7523L72.1834 46.0084C71.2077 44.4332 69.9068 43.0831 68.3891 42.0705L66.7088 43.4206C65.95 42.9706 65.0827 42.633 64.2155 42.3518L63.9444 40.1578C63.0772 39.989 62.1557 39.8765 61.2343 39.8765C60.3128 39.8765 59.3913 39.989 58.5241 40.1578L58.2531 42.3518C57.3858 42.5768 56.5727 42.9706 55.7597 43.4206L54.0794 42.1267C52.5617 43.1393 51.2608 44.4895 50.2851 46.0646L51.5318 47.8086C51.0982 48.5961 50.773 49.44 50.5019 50.3963L48.388 50.6776C48.2254 51.5777 48.117 52.534 48.117 53.4904C48.117 54.4467 48.2254 55.4031 48.388 56.3031L50.5019 56.6407C50.773 57.5408 51.0982 58.3846 51.5318 59.2284L50.2309 61.0286C51.2066 62.6038 52.5075 63.9539 54.0252 64.9665L55.7055 63.6164C56.4643 64.0664 57.3316 64.4039 58.1989 64.6852L58.5241 66.8792C59.3913 67.048 60.3128 67.1605 61.2343 67.1605C62.1557 67.1605 63.0772 67.048 63.9444 66.8792L64.2697 64.6852C65.1369 64.4602 65.95 64.0664 66.763 63.6164L68.4433 64.9665C69.961 63.9539 71.2619 62.6038 72.2376 61.0286L70.9367 59.2847C71.3703 58.4971 71.6956 57.597 71.9666 56.6969L74.0805 56.2469ZM61.2343 60.016C57.7652 60.016 54.9466 57.0907 54.9466 53.4341C54.9466 49.8338 57.7652 46.8522 61.2343 46.8522C64.7033 46.8522 67.5761 49.7775 67.5761 53.4341C67.5219 57.0345 64.7033 60.016 61.2343 60.016Z" fill="white"/>
<path d="M120.476 29.7148C121.31 22.0397 128.091 16.1112 136.373 16.1112C139.374 16.1112 142.209 16.9052 144.655 18.3344C147.1 16.6935 150.046 15.7407 153.27 15.7407C160.774 15.7407 166.999 21.034 168.055 27.9151C175.059 29.4502 180.339 35.4315 180.339 42.6303C180.339 50.9936 173.224 57.716 164.498 57.716H126.312C117.863 57.716 111.082 51.2054 111.082 43.2126C110.971 37.0724 114.917 31.8321 120.476 29.7148Z" fill="#1C976E"/>
<g opacity="0.6">
<path opacity="0.6" d="M139.273 42.8447C139.273 40.7062 140.424 39.5547 141.905 39.5547C143.44 39.5547 144.537 40.761 144.537 42.8447C144.537 44.9283 143.385 46.1346 141.905 46.1346C140.369 46.1346 139.273 44.9283 139.273 42.8447ZM143.605 42.8447C143.605 41.1997 142.892 40.3772 141.905 40.3772C140.863 40.3772 140.205 41.1997 140.205 42.8447C140.205 44.4896 140.918 45.3121 141.905 45.3121C142.892 45.3121 143.605 44.4896 143.605 42.8447Z" fill="white"/>
<path opacity="0.6" d="M145.414 42.8448C145.414 40.7063 146.565 39.5548 148.046 39.5548C149.581 39.5548 150.678 40.7611 150.678 42.8448C150.678 44.9284 149.526 46.1347 148.046 46.1347C146.565 46.1347 145.414 44.9284 145.414 42.8448ZM149.8 42.8448C149.8 41.1998 149.088 40.3773 148.101 40.3773C147.059 40.3773 146.401 41.1998 146.401 42.8448C146.401 44.4897 147.114 45.3122 148.101 45.3122C149.088 45.3122 149.8 44.4897 149.8 42.8448Z" fill="white"/>
<path opacity="0.6" d="M153.584 39.5548V46.0798H152.652V40.3773H151.171V39.5548H153.584Z" fill="white"/>
<path opacity="0.6" d="M155.01 42.8448C155.01 40.7063 156.161 39.5548 157.642 39.5548C159.177 39.5548 160.273 40.7611 160.273 42.8448C160.273 44.9284 159.122 46.1347 157.642 46.1347C156.106 46.1347 155.01 44.9284 155.01 42.8448ZM159.341 42.8448C159.341 41.1998 158.629 40.3773 157.642 40.3773C156.6 40.3773 155.942 41.1998 155.942 42.8448C155.942 44.4897 156.655 45.3122 157.642 45.3122C158.683 45.3122 159.341 44.4897 159.341 42.8448Z" fill="white"/>
<path opacity="0.6" d="M163.18 39.5548V46.0798H162.247V40.3773H160.767V39.5548H163.18Z" fill="white"/>
<path opacity="0.6" d="M164.605 42.8448C164.605 40.7063 165.757 39.5548 167.237 39.5548C168.772 39.5548 169.869 40.7611 169.869 42.8448C169.869 44.9284 168.718 46.1347 167.237 46.1347C165.702 46.1347 164.605 44.9284 164.605 42.8448ZM168.937 42.8448C168.937 41.1998 168.224 40.3773 167.237 40.3773C166.195 40.3773 165.537 41.1998 165.537 42.8448C165.537 44.4897 166.25 45.3122 167.237 45.3122C168.224 45.3122 168.937 44.4897 168.937 42.8448Z" fill="white"/>
<path opacity="0.6" d="M172.72 39.5548V46.0798H171.788V40.3773H170.308V39.5548H172.72Z" fill="white"/>
</g>
<path d="M72.1587 113.687C72.1587 106.175 67.2239 99.8698 60.4795 97.7314C59.4926 89.9452 52.8579 83.9686 44.8525 83.9686C41.6174 83.9686 38.6016 84.9555 36.1342 86.6005C33.6119 84.9555 30.651 83.9686 27.4159 83.9686C19.3556 83.9686 12.7758 90.0001 11.7888 97.7314C4.93487 99.8698 0 106.23 0 113.687C0 122.899 7.51196 130.411 16.7237 130.411H55.764C64.8661 130.247 72.1587 122.844 72.1587 113.687Z" fill="#1C976E"/>
<path d="M35.9149 86.5457C33.4474 84.9555 30.4865 83.9686 27.3063 83.9686C19.246 83.9686 12.6662 90.0001 11.6792 97.7314C4.93487 99.8698 0 106.23 0 113.687C0 122.899 7.51196 130.411 16.7237 130.411H28.4577L35.9149 86.5457Z" fill="#1C976E"/>
<path d="M76.8193 122.241H34.1601V125.422H76.8193V122.241Z" fill="#3D4959"/>
<path d="M76.8193 106.889H34.1601V110.069H76.8193V106.889Z" fill="#3D4959"/>
<path d="M78.7384 138.91H32.0216C30.8153 138.91 29.8284 137.923 29.8284 136.717V126.847C29.8284 125.641 30.8153 124.654 32.0216 124.654H78.6836C79.8899 124.654 80.8768 125.641 80.8768 126.847V136.717C80.9317 137.923 79.9447 138.91 78.7384 138.91Z" fill="#D6E0EA"/>
<path d="M51.0483 124.654L48.7454 138.91H32.0216C30.8153 138.91 29.8284 137.923 29.8284 136.717V126.847C29.8284 125.641 30.8153 124.654 32.0216 124.654H51.0483Z" fill="#EDEDED"/>
<path d="M77.7601 135.793V127.788L32.9625 127.788V135.793H77.7601Z" fill="#3D4959"/>
<path d="M74.2422 131.782C74.2422 132.55 73.6391 133.153 72.8714 133.153C72.1038 133.153 71.5006 132.55 71.5006 131.782C71.5006 131.014 72.1038 130.411 72.8714 130.411C73.6391 130.411 74.2422 131.014 74.2422 131.782Z" fill="#1C976E"/>
<path d="M68.3206 131.782C68.3206 132.44 67.7722 132.989 67.1143 132.989C66.4563 132.989 65.908 132.44 65.908 131.782C65.908 131.124 66.4563 130.576 67.1143 130.576C67.7722 130.631 68.3206 131.124 68.3206 131.782Z" fill="#1C976E"/>
<path d="M62.5631 131.782C62.5631 132.44 62.0147 132.989 61.3568 132.989C60.6988 132.989 60.1505 132.44 60.1505 131.782C60.1505 131.124 60.6988 130.576 61.3568 130.576C62.0147 130.631 62.5631 131.124 62.5631 131.782Z" fill="white"/>
<path d="M56.8057 131.782C56.8057 132.44 56.2574 132.989 55.5994 132.989C54.9414 132.989 54.3931 132.44 54.3931 131.782C54.3931 131.124 54.9414 130.576 55.5994 130.576C56.2574 130.631 56.8057 131.124 56.8057 131.782Z" fill="#1C976E"/>
<path d="M51.0484 131.782C51.0484 132.44 50.5001 132.989 49.8421 132.989C49.1841 132.989 48.6358 132.44 48.6358 131.782C48.6358 131.124 49.1841 130.576 49.8421 130.576C50.5549 130.631 51.0484 131.124 51.0484 131.782Z" fill="white"/>
<path d="M78.7384 123.283H32.0216C30.8153 123.283 29.8284 122.296 29.8284 121.09V111.22C29.8284 110.014 30.8153 109.027 32.0216 109.027H78.6836C79.8899 109.027 80.8768 110.014 80.8768 111.22V121.09C80.9317 122.296 79.9447 123.283 78.7384 123.283Z" fill="#D6E0EA"/>
<path d="M53.5706 109.027L51.2676 123.283H32.0216C30.8153 123.283 29.8284 122.296 29.8284 121.09V111.22C29.8284 110.014 30.8153 109.027 32.0216 109.027H53.5706Z" fill="#EDEDED"/>
<path d="M77.7531 120.159V112.154L32.9554 112.154V120.159L77.7531 120.159Z" fill="#3D4959"/>
<path d="M78.7384 107.93H32.0216C30.8153 107.93 29.8284 106.943 29.8284 105.736V95.8667C29.8284 94.6604 30.8153 93.6734 32.0216 93.6734H78.6836C79.8899 93.6734 80.8768 94.6604 80.8768 95.8667V105.736C80.9317 106.943 79.9447 107.93 78.7384 107.93Z" fill="#D6E0EA"/>
<path d="M56.0928 93.619L53.7899 107.875H32.0216C30.8153 107.875 29.8284 106.888 29.8284 105.682V95.8123C29.8284 94.606 30.8153 93.619 32.0216 93.619H56.0928Z" fill="#EDEDED"/>
<path d="M77.772 104.771V96.7652L32.9744 96.7652V104.771L77.772 104.771Z" fill="#3D4959"/>
<path d="M72.8714 117.526C73.6285 117.526 74.2422 116.912 74.2422 116.155C74.2422 115.398 73.6285 114.784 72.8714 114.784C72.1143 114.784 71.5006 115.398 71.5006 116.155C71.5006 116.912 72.1143 117.526 72.8714 117.526Z" fill="#1C976E"/>
<path d="M68.3206 116.155C68.3206 116.813 67.7722 117.361 67.1143 117.361C66.4563 117.361 65.908 116.813 65.908 116.155C65.908 115.497 66.4563 114.949 67.1143 114.949C67.7722 115.004 68.3206 115.497 68.3206 116.155Z" fill="#1C976E"/>
<path d="M62.5631 116.155C62.5631 116.813 62.0147 117.361 61.3568 117.361C60.6988 117.361 60.1505 116.813 60.1505 116.155C60.1505 115.497 60.6988 114.949 61.3568 114.949C62.0147 115.004 62.5631 115.497 62.5631 116.155Z" fill="white"/>
<path d="M56.8057 116.155C56.8057 116.813 56.2574 117.361 55.5994 117.361C54.9414 117.361 54.3931 116.813 54.3931 116.155C54.3931 115.497 54.9414 114.949 55.5994 114.949C56.2574 115.004 56.8057 115.497 56.8057 116.155Z" fill="#1C976E"/>
<path d="M51.0484 116.155C51.0484 116.813 50.5001 117.361 49.8421 117.361C49.1841 117.361 48.6358 116.813 48.6358 116.155C48.6358 115.497 49.1841 114.949 49.8421 114.949C50.5549 115.004 51.0484 115.497 51.0484 116.155Z" fill="white"/>
<path d="M74.2422 100.747C74.2422 101.515 73.6391 102.118 72.8714 102.118C72.1038 102.118 71.5006 101.515 71.5006 100.747C71.5006 99.9798 72.1038 99.3767 72.8714 99.3767C73.6391 99.3767 74.2422 100.035 74.2422 100.747Z" fill="#1C976E"/>
<path d="M68.3206 100.747C68.3206 101.405 67.7722 101.954 67.1143 101.954C66.4563 101.954 65.908 101.405 65.908 100.747C65.908 100.089 66.4563 99.5411 67.1143 99.5411C67.7722 99.596 68.3206 100.144 68.3206 100.747Z" fill="white"/>
<path d="M62.5631 100.747C62.5631 101.405 62.0147 101.954 61.3568 101.954C60.6988 101.954 60.1505 101.405 60.1505 100.747C60.1505 100.089 60.6988 99.5411 61.3568 99.5411C62.0147 99.596 62.5631 100.144 62.5631 100.747Z" fill="white"/>
<path d="M56.8057 100.747C56.8057 101.405 56.2574 101.954 55.5994 101.954C54.9414 101.954 54.3931 101.405 54.3931 100.747C54.3931 100.089 54.9414 99.5411 55.5994 99.5411C56.2574 99.596 56.8057 100.144 56.8057 100.747Z" fill="#1C976E"/>
<path d="M51.0484 100.747C51.0484 101.405 50.5001 101.954 49.8421 101.954C49.1841 101.954 48.6358 101.405 48.6358 100.747C48.6358 100.089 49.1841 99.5411 49.8421 99.5411C50.5549 99.596 51.0484 100.144 51.0484 100.747Z" fill="#1C976E"/>
<path d="M140.259 117.251C140.259 111.329 136.366 106.339 131.047 104.64C130.28 98.4983 125.016 93.7828 118.71 93.7828C116.133 93.7828 113.775 94.5505 111.801 95.8664C109.827 94.5505 107.47 93.7828 104.893 93.7828C98.532 93.7828 93.323 98.5532 92.5554 104.64C87.1818 106.339 83.3436 111.329 83.3436 117.251C83.3436 124.543 89.2654 130.465 96.5581 130.465H127.428C134.502 130.246 140.259 124.434 140.259 117.251Z" fill="#1C976E"/>
<path d="M111.638 95.7574C109.664 94.4963 107.361 93.7286 104.838 93.7286C98.4779 93.7286 93.2689 98.499 92.5012 104.585C87.1277 106.285 83.2895 111.275 83.2895 117.197C83.2895 124.489 89.2113 130.411 96.504 130.411H105.771L111.638 95.7574Z" fill="#1C976E"/>
<path d="M133.186 145.051H90.5273V148.232H133.186V145.051Z" fill="#3D4959"/>
<path d="M133.186 129.643H90.5273V132.824H133.186V129.643Z" fill="#3D4959"/>
<path d="M135.106 161.72H88.4438C87.2375 161.72 86.2505 160.733 86.2505 159.527V149.657C86.2505 148.451 87.2375 147.464 88.4438 147.464H135.106C136.312 147.464 137.299 148.451 137.299 149.657V159.527C137.299 160.733 136.312 161.72 135.106 161.72Z" fill="#D6E0EA"/>
<path d="M107.416 147.409L105.113 161.665H88.4438C87.2375 161.665 86.2505 160.678 86.2505 159.472V149.602C86.2505 148.396 87.2375 147.409 88.4438 147.409H107.416Z" fill="#EDEDED"/>
<path d="M134.154 158.56V150.555H89.3562V158.56H134.154Z" fill="#3D4959"/>
<path d="M130.609 154.592C130.609 155.36 130.006 155.963 129.239 155.963C128.471 155.963 127.868 155.36 127.868 154.592C127.868 153.824 128.471 153.221 129.239 153.221C130.006 153.166 130.609 153.824 130.609 154.592Z" fill="#1C976E"/>
<path d="M124.687 154.592C124.687 155.25 124.139 155.798 123.481 155.798C122.823 155.798 122.275 155.25 122.275 154.592C122.275 153.934 122.823 153.386 123.481 153.386C124.139 153.386 124.687 153.934 124.687 154.592Z" fill="#1C976E"/>
<path d="M118.93 154.592C118.93 155.25 118.382 155.798 117.724 155.798C117.066 155.798 116.518 155.25 116.518 154.592C116.518 153.934 117.066 153.386 117.724 153.386C118.382 153.386 118.93 153.934 118.93 154.592Z" fill="white"/>
<path d="M113.173 154.592C113.173 155.25 112.625 155.798 111.967 155.798C111.309 155.798 110.76 155.25 110.76 154.592C110.76 153.934 111.309 153.386 111.967 153.386C112.625 153.386 113.173 153.934 113.173 154.592Z" fill="#1C976E"/>
<path d="M107.416 154.592C107.416 155.25 106.867 155.798 106.209 155.798C105.551 155.798 105.003 155.25 105.003 154.592C105.003 153.934 105.551 153.386 106.209 153.386C106.922 153.386 107.416 153.934 107.416 154.592Z" fill="white"/>
<path d="M135.106 146.093H88.4438C87.2375 146.093 86.2505 145.106 86.2505 143.9V134.03C86.2505 132.824 87.2375 131.837 88.4438 131.837H135.106C136.312 131.837 137.299 132.824 137.299 134.03V143.9C137.299 145.106 136.312 146.093 135.106 146.093Z" fill="#D6E0EA"/>
<path d="M109.938 131.782L107.635 146.038H88.3888C87.1825 146.038 86.1956 145.051 86.1956 143.845V133.975C86.1956 132.769 87.1825 131.782 88.3888 131.782H109.938Z" fill="#EDEDED"/>
<path d="M134.147 142.926V134.921H89.3491V142.926H134.147Z" fill="#3D4959"/>
<path d="M135.105 130.685H88.443C87.2367 130.685 86.2497 129.698 86.2497 128.492V118.622C86.2497 117.416 87.2367 116.429 88.443 116.429H135.105C136.311 116.429 137.298 117.416 137.298 118.622V128.492C137.298 129.698 136.311 130.685 135.105 130.685Z" fill="#D6E0EA"/>
<path d="M112.459 116.429L110.156 130.685H88.443C87.2367 130.685 86.2497 129.698 86.2497 128.492V118.622C86.2497 117.416 87.2367 116.429 88.443 116.429H112.459Z" fill="#EDEDED"/>
<path d="M134.166 127.538V119.533L89.3682 119.533V127.538L134.166 127.538Z" fill="#3D4959"/>
<path d="M130.609 138.91C130.609 139.678 130.006 140.281 129.239 140.281C128.471 140.281 127.868 139.678 127.868 138.91C127.868 138.143 128.471 137.539 129.239 137.539C130.006 137.539 130.609 138.197 130.609 138.91Z" fill="#1C976E"/>
<path d="M124.687 138.91C124.687 139.568 124.139 140.117 123.481 140.117C122.823 140.117 122.275 139.568 122.275 138.91C122.275 138.252 122.823 137.704 123.481 137.704C124.139 137.759 124.687 138.307 124.687 138.91Z" fill="#1C976E"/>
<path d="M118.93 138.91C118.93 139.568 118.382 140.117 117.724 140.117C117.066 140.117 116.518 139.568 116.518 138.91C116.518 138.252 117.066 137.704 117.724 137.704C118.382 137.759 118.93 138.307 118.93 138.91Z" fill="white"/>
<path d="M113.173 138.91C113.173 139.568 112.625 140.117 111.967 140.117C111.309 140.117 110.76 139.568 110.76 138.91C110.76 138.252 111.309 137.704 111.967 137.704C112.625 137.759 113.173 138.307 113.173 138.91Z" fill="#1C976E"/>
<path d="M107.416 138.91C107.416 139.568 106.867 140.117 106.209 140.117C105.551 140.117 105.003 139.568 105.003 138.91C105.003 138.252 105.551 137.704 106.209 137.704C106.922 137.759 107.416 138.307 107.416 138.91Z" fill="white"/>
<path d="M130.609 123.557C130.609 124.325 130.006 124.928 129.239 124.928C128.471 124.928 127.868 124.325 127.868 123.557C127.868 122.79 128.471 122.187 129.239 122.187C130.006 122.187 130.609 122.79 130.609 123.557Z" fill="#1C976E"/>
<path d="M124.688 123.557C124.688 124.215 124.139 124.764 123.481 124.764C122.823 124.764 122.275 124.215 122.275 123.557C122.275 122.899 122.823 122.351 123.481 122.351C124.139 122.351 124.688 122.899 124.688 123.557Z" fill="white"/>
<path d="M118.93 123.557C118.93 124.215 118.382 124.764 117.724 124.764C117.066 124.764 116.518 124.215 116.518 123.557C116.518 122.899 117.066 122.351 117.724 122.351C118.382 122.351 118.93 122.899 118.93 123.557Z" fill="white"/>
<path d="M113.173 123.557C113.173 124.215 112.625 124.764 111.967 124.764C111.309 124.764 110.76 124.215 110.76 123.557C110.76 122.899 111.309 122.351 111.967 122.351C112.625 122.351 113.173 122.899 113.173 123.557Z" fill="#1C976E"/>
<path d="M107.416 123.557C107.416 124.215 106.867 124.764 106.209 124.764C105.551 124.764 105.003 124.215 105.003 123.557C105.003 122.899 105.551 122.351 106.209 122.351C106.922 122.351 107.416 122.899 107.416 123.557Z" fill="#1C976E"/>
<path d="M220.314 113.687C220.314 106.176 215.379 99.8699 208.635 97.7314C207.648 89.9453 201.013 83.9686 193.008 83.9686C189.773 83.9686 186.757 84.9556 184.29 86.6006C181.767 84.9556 178.806 83.9686 175.571 83.9686C167.511 83.9686 160.931 90.0001 159.944 97.7314C153.145 99.8699 148.265 106.176 148.265 113.687C148.265 122.899 155.777 130.411 164.989 130.411H203.974C213.021 130.247 220.314 122.844 220.314 113.687Z" fill="#1C976E"/>
<path d="M184.07 86.546C181.603 84.9559 178.642 83.9689 175.462 83.9689C167.401 83.9689 160.822 90.0004 159.835 97.7317C153.036 99.8702 148.156 106.176 148.156 113.688C148.156 122.9 155.667 130.412 164.879 130.412H176.613L184.07 86.546Z" fill="#1C976E"/>
<path d="M189.554 122.242H146.895V125.422H189.554V122.242Z" fill="#3D4959"/>
<path d="M189.554 106.889H146.894V110.069H189.554V106.889Z" fill="#3D4959"/>
<path d="M191.473 138.911H144.811C143.604 138.911 142.618 137.924 142.618 136.717V126.848C142.618 125.641 143.604 124.654 144.811 124.654H191.473C192.679 124.654 193.666 125.641 193.666 126.848V136.717C193.666 137.924 192.679 138.911 191.473 138.911Z" fill="#D6E0EA"/>
<path d="M163.783 124.654L161.48 138.911H144.811C143.604 138.911 142.618 137.924 142.618 136.717V126.848C142.618 125.641 143.604 124.654 144.811 124.654H163.783Z" fill="#EDEDED"/>
<path d="M190.508 135.78V127.774L145.711 127.774V135.78H190.508Z" fill="#3D4959"/>
<path d="M186.976 131.782C186.976 132.55 186.373 133.153 185.606 133.153C184.838 133.153 184.235 132.55 184.235 131.782C184.235 131.015 184.838 130.412 185.606 130.412C186.373 130.412 186.976 131.015 186.976 131.782Z" fill="#1C976E"/>
<path d="M179.848 132.989C180.515 132.989 181.055 132.449 181.055 131.783C181.055 131.116 180.515 130.576 179.848 130.576C179.182 130.576 178.642 131.116 178.642 131.783C178.642 132.449 179.182 132.989 179.848 132.989Z" fill="#1C976E"/>
<path d="M175.297 131.783C175.297 132.441 174.749 132.989 174.091 132.989C173.433 132.989 172.885 132.441 172.885 131.783C172.885 131.125 173.433 130.576 174.091 130.576C174.749 130.631 175.297 131.125 175.297 131.783Z" fill="white"/>
<path d="M169.54 131.783C169.54 132.441 168.992 132.989 168.334 132.989C167.676 132.989 167.127 132.441 167.127 131.783C167.127 131.125 167.676 130.576 168.334 130.576C169.047 130.631 169.54 131.125 169.54 131.783Z" fill="#1C976E"/>
<path d="M163.783 131.783C163.783 132.441 163.234 132.989 162.576 132.989C161.918 132.989 161.37 132.441 161.37 131.783C161.37 131.125 161.918 130.576 162.576 130.576C163.289 130.631 163.783 131.125 163.783 131.783Z" fill="white"/>
<path d="M191.473 123.284H144.811C143.604 123.284 142.618 122.297 142.618 121.09V111.221C142.618 110.014 143.604 109.027 144.811 109.027H191.473C192.679 109.027 193.666 110.014 193.666 111.221V121.09C193.666 122.297 192.679 123.284 191.473 123.284Z" fill="#D6E0EA"/>
<path d="M166.305 109.027L164.002 123.284H144.756C143.55 123.284 142.563 122.297 142.563 121.09V111.221C142.563 110.014 143.55 109.027 144.756 109.027H166.305Z" fill="#EDEDED"/>
<path d="M190.501 120.146V112.14L145.704 112.14V120.146L190.501 120.146Z" fill="#3D4959"/>
<path d="M191.472 107.93H144.81C143.604 107.93 142.617 106.943 142.617 105.737V95.867C142.617 94.6607 143.604 93.6737 144.81 93.6737H191.472C192.678 93.6737 193.665 94.6607 193.665 95.867V105.737C193.665 106.943 192.678 107.93 191.472 107.93Z" fill="#D6E0EA"/>
<path d="M168.827 93.6194L166.524 107.876H144.81C143.604 107.876 142.617 106.889 142.617 105.682V95.8127C142.617 94.6064 143.604 93.6194 144.81 93.6194H168.827Z" fill="#EDEDED"/>
<path d="M190.52 104.757V96.7516L145.723 96.7516V104.757L190.52 104.757Z" fill="#3D4959"/>
<path d="M186.976 116.155C186.976 116.923 186.373 117.526 185.606 117.526C184.838 117.526 184.235 116.923 184.235 116.155C184.235 115.388 184.838 114.785 185.606 114.785C186.373 114.785 186.976 115.388 186.976 116.155Z" fill="#1C976E"/>
<path d="M181.055 116.155C181.055 116.813 180.506 117.362 179.848 117.362C179.19 117.362 178.642 116.813 178.642 116.155C178.642 115.497 179.19 114.949 179.848 114.949C180.506 115.004 181.055 115.497 181.055 116.155Z" fill="#1C976E"/>
<path d="M175.297 116.155C175.297 116.813 174.749 117.362 174.091 117.362C173.433 117.362 172.885 116.813 172.885 116.155C172.885 115.497 173.433 114.949 174.091 114.949C174.749 115.004 175.297 115.497 175.297 116.155Z" fill="white"/>
<path d="M169.54 116.155C169.54 116.813 168.992 117.362 168.334 117.362C167.676 117.362 167.127 116.813 167.127 116.155C167.127 115.497 167.676 114.949 168.334 114.949C169.046 115.004 169.54 115.497 169.54 116.155Z" fill="#1C976E"/>
<path d="M163.783 116.155C163.783 116.813 163.234 117.362 162.576 117.362C161.918 117.362 161.37 116.813 161.37 116.155C161.37 115.497 161.918 114.949 162.576 114.949C163.289 115.004 163.783 115.497 163.783 116.155Z" fill="white"/>
<path d="M186.976 100.748C186.976 101.515 186.373 102.119 185.606 102.119C184.838 102.119 184.235 101.515 184.235 100.748C184.235 99.9801 184.838 99.3769 185.606 99.3769C186.373 99.3769 186.976 100.035 186.976 100.748Z" fill="#1C976E"/>
<path d="M181.055 100.748C181.055 101.406 180.506 101.954 179.848 101.954C179.19 101.954 178.642 101.406 178.642 100.748C178.642 100.09 179.19 99.5414 179.848 99.5414C180.506 99.5962 181.055 100.145 181.055 100.748Z" fill="white"/>
<path d="M175.297 100.748C175.297 101.406 174.749 101.954 174.091 101.954C173.433 101.954 172.885 101.406 172.885 100.748C172.885 100.09 173.433 99.5414 174.091 99.5414C174.749 99.5962 175.297 100.145 175.297 100.748Z" fill="white"/>
<path d="M169.54 100.748C169.54 101.406 168.992 101.954 168.334 101.954C167.676 101.954 167.127 101.406 167.127 100.748C167.127 100.09 167.676 99.5414 168.334 99.5414C169.046 99.5962 169.54 100.145 169.54 100.748Z" fill="#1C976E"/>
<path d="M163.783 100.748C163.783 101.406 163.234 101.954 162.576 101.954C161.918 101.954 161.37 101.406 161.37 100.748C161.37 100.09 161.918 99.5414 162.576 99.5414C163.289 99.5962 163.783 100.145 163.783 100.748Z" fill="#1C976E"/>
<path d="M148.101 55.2367H75.3938C72.2136 55.2367 69.6365 52.6596 69.6365 49.4794V4.84623C69.6365 2.15947 71.7749 0.0210266 74.4617 0.0210266H148.978C151.665 0.0210266 153.803 2.15947 153.803 4.84623V49.4794C153.858 52.6596 151.281 55.2367 148.101 55.2367Z" fill="#1C976E"/>
<path opacity="0.2" d="M111.035 0.0210266H74.5165C71.8297 0.0210266 69.6365 2.15947 69.6365 4.84623V49.4794C69.6365 52.6596 72.2136 55.2367 75.3938 55.2367H99.9037L111.035 0.0210266Z" fill="white"/>
<path d="M149.033 64.3386H74.5164C71.8296 64.3386 69.6912 62.2002 69.6912 59.5134V9.12296H153.858V59.5134C153.858 62.2002 151.665 64.3386 149.033 64.3386Z" fill="#D6E0EA"/>
<path d="M74.5164 62.0905C73.0908 62.0905 71.9393 60.9391 71.9393 59.5134V9.12296H151.555V59.5134C151.555 60.9391 150.404 62.0905 148.978 62.0905H74.5164Z" fill="#F3F9FF"/>
<path d="M126.716 46.2439V41.309L123.317 40.8155C123.043 39.7189 122.604 38.6222 122.056 37.6901L124.085 34.9485L120.575 31.4393L117.834 33.468C116.902 32.8649 115.86 32.4262 114.708 32.1521L114.215 28.7525H109.28L108.786 32.1521C107.69 32.4262 106.593 32.8649 105.661 33.468L102.919 31.4393L99.4102 34.9485L101.439 37.6901C100.836 38.6222 100.397 39.664 100.178 40.8155L96.7783 41.309V46.2439L100.178 46.7373C100.452 47.834 100.891 48.9306 101.439 49.8628L99.4102 52.6044L102.919 56.1136L105.661 54.0848C106.593 54.688 107.635 55.1266 108.786 55.4008L109.28 58.8004H114.215L114.708 55.4008C115.805 55.1266 116.902 54.688 117.834 54.0848L120.575 56.1136L124.085 52.6044L122.056 49.8628C122.659 48.8758 123.098 47.834 123.317 46.7373L126.716 46.2439ZM111.747 51.2336C107.58 51.2336 104.29 47.8888 104.29 43.7764C104.29 39.664 107.635 36.2645 111.747 36.2645C115.86 36.2645 119.204 39.6092 119.204 43.7764C119.204 47.8888 115.86 51.2336 111.747 51.2336Z" fill="#425160"/>
<path d="M111.747 51.2333C107.635 51.2333 104.29 47.8886 104.29 43.7762C104.29 39.6638 107.58 36.3191 111.747 36.2642V28.8071H109.28L108.786 32.2067C107.69 32.4808 106.593 32.9195 105.661 33.5226L102.919 31.4939L99.4103 35.0031L101.439 37.7447C100.836 38.6768 100.397 39.7186 100.178 40.8701L96.7783 41.3636V46.2985L100.178 46.7919C100.452 47.8886 100.891 48.9852 101.439 49.9174L99.4103 52.659L102.919 56.1682L105.661 54.1394C106.593 54.7426 107.635 55.1812 108.786 55.4554L109.28 58.855H111.747V51.2333Z" fill="#3D4959"/>
<path d="M145.085 26.2853V22.7761L142.672 22.4471C142.508 21.6246 142.179 20.9118 141.74 20.199L143.221 18.2799L140.753 15.7576L138.779 17.2381C138.121 16.7994 137.354 16.5253 136.531 16.3059L136.202 13.8933H132.693L132.364 16.3059C131.541 16.4704 130.829 16.7994 130.116 17.2381L128.197 15.7576L125.674 18.2799L127.155 20.199C126.716 20.857 126.442 21.6246 126.223 22.4471L123.81 22.7761V26.2853L126.223 26.6143C126.387 27.4368 126.716 28.1496 127.155 28.8624L125.674 30.7816L128.197 33.249L130.116 31.7685C130.774 32.2072 131.541 32.5362 132.364 32.7007L132.693 35.1133H136.202L136.531 32.7007C137.354 32.5362 138.066 32.2072 138.779 31.7685L140.753 33.249L143.221 30.7816L141.74 28.8076C142.179 28.0948 142.453 27.382 142.672 26.5595L145.085 26.2853ZM134.448 29.8494C131.487 29.8494 129.129 27.4916 129.129 24.5307C129.129 21.5698 131.487 19.212 134.448 19.212C137.409 19.212 139.766 21.6246 139.766 24.5307C139.766 27.4368 137.354 29.8494 134.448 29.8494Z" fill="#41566D"/>
<path d="M101.384 11.8648H74.7906V14.0581H101.384V11.8648Z" fill="#D6E0EA"/>
<path d="M101.384 17.1286H74.7906V19.3219H101.384V17.1286Z" fill="#D6E0EA"/>
<path d="M101.384 22.3376H74.7906V24.5309H101.384V22.3376Z" fill="#D6E0EA"/>
<path d="M95.6268 27.5466H74.7906V29.7399H95.6268V27.5466Z" fill="#D6E0EA"/>
<path d="M95.6268 32.7553H74.7906V34.9486H95.6268V32.7553Z" fill="#D6E0EA"/>
<path d="M133.9 4.6271C133.9 5.66891 133.077 6.49138 132.035 6.49138C130.993 6.49138 130.171 5.66891 130.171 4.6271C130.171 3.5853 130.993 2.76282 132.035 2.76282C133.077 2.81765 133.9 3.64013 133.9 4.6271Z" fill="white"/>
<path d="M141.521 4.62652C141.521 5.66833 140.699 6.4908 139.657 6.4908C138.615 6.4908 137.792 5.66833 137.792 4.62652C137.792 3.58472 138.615 2.76224 139.657 2.76224C140.644 2.81707 141.521 3.63955 141.521 4.62652Z" fill="white"/>
<path d="M149.088 4.62652C149.088 5.66833 148.265 6.4908 147.224 6.4908C146.182 6.4908 145.359 5.66833 145.359 4.62652C145.359 3.58472 146.182 2.76224 147.224 2.76224C148.265 2.81707 149.088 3.63955 149.088 4.62652Z" fill="white"/>
<path d="M129.732 56.3887C129.732 57.2112 129.074 57.8692 128.252 57.8692C127.429 57.8692 126.771 57.2112 126.771 56.3887C126.771 55.5662 127.429 54.9083 128.252 54.9083C129.074 54.9083 129.732 55.5662 129.732 56.3887Z" fill="#1C976E"/>
<path d="M136.148 56.3887C136.148 57.2112 135.49 57.8692 134.667 57.8692C133.845 57.8692 133.187 57.2112 133.187 56.3887C133.187 55.5662 133.845 54.9083 134.667 54.9083C135.49 54.9083 136.148 55.5662 136.148 56.3887Z" fill="#1C976E"/>
<path d="M143.166 56.3885C143.166 57.54 142.234 58.4722 141.082 58.4722C139.931 58.4722 138.999 57.54 138.999 56.3885C138.999 55.2371 139.931 54.3049 141.082 54.3049C142.234 54.3049 143.166 55.2371 143.166 56.3885Z" fill="#1C976E"/>
<path d="M148.923 56.3887C148.923 57.2112 148.265 57.8692 147.443 57.8692C146.62 57.8692 145.962 57.2112 145.962 56.3887C145.962 55.5662 146.62 54.9083 147.443 54.9083C148.265 54.9083 148.923 55.5662 148.923 56.3887Z" fill="#1C976E"/>
<path d="M77.5322 56.3887C77.5322 57.2112 76.8742 57.8692 76.0517 57.8692C75.2293 57.8692 74.5713 57.2112 74.5713 56.3887C74.5713 55.5662 75.2293 54.9083 76.0517 54.9083C76.8742 54.9083 77.5322 55.5662 77.5322 56.3887Z" fill="#1C976E"/>
<path d="M83.9475 56.3887C83.9475 57.2112 83.2895 57.8692 82.467 57.8692C81.6446 57.8692 80.9866 57.2112 80.9866 56.3887C80.9866 55.5662 81.6446 54.9083 82.467 54.9083C83.2895 54.9083 83.9475 55.5662 83.9475 56.3887Z" fill="#1C976E"/>
<path d="M90.3627 56.3887C90.3627 57.2112 89.7047 57.8692 88.8822 57.8692C88.0598 57.8692 87.4018 57.2112 87.4018 56.3887C87.4018 55.5662 88.0598 54.9083 88.8822 54.9083C89.6499 54.9083 90.3627 55.5662 90.3627 56.3887Z" fill="#1C976E"/>
<path d="M96.7234 56.3887C96.7234 57.2112 96.0654 57.8692 95.2429 57.8692C94.4205 57.8692 93.7625 57.2112 93.7625 56.3887C93.7625 55.5662 94.4205 54.9083 95.2429 54.9083C96.0654 54.9083 96.7234 55.5662 96.7234 56.3887Z" fill="#1C976E"/>
<path d="M63.8577 15.284V10.9506L61.2237 10.5407C61.0171 9.54517 60.6556 8.66677 60.2424 7.78839L61.8435 5.38745L59.1578 2.28381L56.9886 4.09915C56.2655 3.57212 55.4392 3.22076 54.5612 2.98652L54.1996 0H50.3777L50.0162 2.98652C49.1382 3.22076 48.3635 3.63068 47.5888 4.09915L45.5229 2.28381L42.7856 5.38745L44.3866 7.78839C43.9218 8.60822 43.6119 9.54517 43.4053 10.5407L40.7713 10.9506V15.284L43.4053 15.6939C43.6119 16.6894 43.9218 17.5678 44.3866 18.4462L42.7856 20.8471L45.5229 23.8922L47.6404 22.0769C48.3635 22.6039 49.1898 23.0138 50.0678 23.248L50.4294 26.2346H54.2513L54.6128 23.248C55.4908 23.0138 56.2655 22.6039 57.0403 22.0769L59.1578 23.8922L61.8435 20.8471L60.2424 18.4462C60.7072 17.5678 61.0171 16.6894 61.2237 15.6939L63.8577 15.284ZM52.3403 18.5047C49.7063 18.5047 47.5371 16.1038 47.5371 13.0587C47.5371 10.0722 49.6547 7.61271 52.3403 7.61271C54.9744 7.61271 57.1435 10.0722 57.1435 13.0587C57.0919 16.1038 54.9744 18.5047 52.3403 18.5047Z" fill="#E4EFF7"/>
<path d="M190.833 69.9498V66.4699L188.441 66.1437C188.278 65.3281 187.951 64.6213 187.516 63.9688L188.984 62.0658L186.538 59.5647L184.58 61.0327C183.928 60.5978 183.167 60.3259 182.405 60.1084L182.079 57.716H178.599L178.273 60.1084C177.457 60.2715 176.751 60.5978 176.098 61.0327L174.195 59.5647L171.694 62.0658L173.162 63.9688C172.727 64.6213 172.455 65.3825 172.238 66.1437L169.845 66.4699V69.9498L172.238 70.276C172.401 71.0916 172.727 71.7984 173.162 72.5053L171.694 74.4083L174.195 76.855L176.098 75.387C176.751 75.822 177.512 76.1482 178.273 76.3113L178.599 78.7037H182.079L182.405 76.3113C183.221 76.1482 183.928 75.822 184.58 75.387L186.538 76.855L188.984 74.4083L187.516 72.4509C187.951 71.7441 188.223 71.0372 188.441 70.276L190.833 69.9498ZM180.285 72.614C177.838 72.614 175.935 70.6566 175.935 68.2642C175.935 65.8719 177.892 63.9145 180.285 63.9145C182.677 63.9145 184.635 65.8719 184.635 68.2642C184.635 70.6566 182.677 72.614 180.285 72.614Z" fill="#DDE9F2"/>
<path d="M160.401 151.276V148.847L158.73 148.616C158.615 148.037 158.384 147.517 158.096 147.054L159.133 145.724L157.405 143.989L156.022 145.03C155.561 144.74 155.043 144.509 154.467 144.393L154.236 142.716H151.817L151.586 144.393C151.01 144.509 150.491 144.74 150.031 145.03L148.705 143.989L146.977 145.724L148.014 147.054C147.726 147.517 147.496 148.037 147.38 148.616L145.71 148.847V151.276L147.38 151.508C147.496 152.086 147.726 152.607 148.014 153.069L146.977 154.4L148.705 156.135L150.031 155.094C150.491 155.383 151.01 155.614 151.586 155.73L151.817 157.407H154.236L154.467 155.73C155.043 155.614 155.561 155.383 156.022 155.094L157.405 156.135L159.133 154.4L158.096 153.012C158.384 152.549 158.615 152.028 158.73 151.45L160.401 151.276ZM153.026 153.127C151.356 153.127 149.973 151.739 149.973 150.062C149.973 148.384 151.356 146.996 153.026 146.996C154.697 146.996 156.08 148.384 156.08 150.062C156.08 151.739 154.697 153.127 153.026 153.127Z" fill="#E4EFF7"/>
<path d="M91.5142 167.477C91.5142 165.887 92.3915 164.955 93.5429 164.955C94.6944 164.955 95.5717 165.887 95.5717 167.477C95.5717 169.068 94.6944 170 93.5429 170C92.3915 170 91.5142 169.068 91.5142 167.477ZM94.8589 167.477C94.8589 166.216 94.3106 165.558 93.5429 165.558C92.7753 165.558 92.227 166.216 92.227 167.477C92.227 168.739 92.7753 169.397 93.5429 169.397C94.3106 169.397 94.8589 168.739 94.8589 167.477Z" fill="#DDE9F2"/>
<path d="M96.2299 167.477C96.2299 165.887 97.1072 164.955 98.2586 164.955C99.4101 164.955 100.287 165.887 100.287 167.477C100.287 169.068 99.4101 170 98.2586 170C97.0523 170 96.2299 169.068 96.2299 167.477ZM99.5198 167.477C99.5198 166.216 98.9715 165.558 98.2038 165.558C97.4362 165.558 96.8878 166.216 96.8878 167.477C96.8878 168.739 97.4362 169.397 98.2038 169.397C99.0263 169.397 99.5198 168.739 99.5198 167.477Z" fill="#DDE9F2"/>
<path d="M102.426 165.01V169.945H101.713V165.613H100.616V165.01H102.426Z" fill="#DDE9F2"/>
<path d="M103.522 167.477C103.522 165.887 104.4 164.955 105.551 164.955C106.703 164.955 107.58 165.887 107.58 167.477C107.58 169.068 106.703 170 105.551 170C104.4 170 103.522 169.068 103.522 167.477ZM106.812 167.477C106.812 166.216 106.264 165.558 105.496 165.558C104.729 165.558 104.18 166.216 104.18 167.477C104.18 168.739 104.729 169.397 105.496 169.397C106.319 169.397 106.812 168.739 106.812 167.477Z" fill="#DDE9F2"/>
<path d="M109.718 165.01V169.945H109.005V165.613H107.909V165.01H109.718Z" fill="#DDE9F2"/>
<path d="M110.815 167.477C110.815 165.887 111.692 164.955 112.844 164.955C113.995 164.955 114.873 165.887 114.873 167.477C114.873 169.068 113.995 170 112.844 170C111.692 170 110.815 169.068 110.815 167.477ZM114.105 167.477C114.105 166.216 113.557 165.558 112.789 165.558C112.021 165.558 111.473 166.216 111.473 167.477C111.473 168.739 112.021 169.397 112.789 169.397C113.612 169.397 114.105 168.739 114.105 167.477Z" fill="#DDE9F2"/>
<path d="M117.011 165.01V169.945H116.298V165.613H115.201V165.01H117.011Z" fill="#DDE9F2"/>
<path d="M16.3947 79.0338C16.3947 77.005 17.4913 75.8535 18.9169 75.8535C20.3425 75.8535 21.4392 77.005 21.4392 79.0338C21.4392 81.0626 20.3425 82.214 18.9169 82.214C17.4365 82.214 16.3947 81.0626 16.3947 79.0338ZM20.5619 79.0338C20.5619 77.4437 19.9039 76.676 18.9169 76.676C17.9299 76.676 17.272 77.4985 17.272 79.0338C17.272 80.6239 17.9299 81.3916 18.9169 81.3916C19.9039 81.3916 20.5619 80.6239 20.5619 79.0338Z" fill="#DDE9F2"/>
<path d="M22.3167 79.0338C22.3167 77.005 23.4133 75.8535 24.8389 75.8535C26.2645 75.8535 27.3612 77.005 27.3612 79.0338C27.3612 81.0625 26.2645 82.214 24.8389 82.214C23.3585 82.214 22.3167 81.0625 22.3167 79.0338ZM26.4839 79.0338C26.4839 77.4436 25.8259 76.676 24.8389 76.676C23.8519 76.676 23.194 77.4985 23.194 79.0338C23.194 80.6239 23.8519 81.3915 24.8389 81.3915C25.7711 81.3915 26.4839 80.6239 26.4839 79.0338Z" fill="#DDE9F2"/>
<path d="M30.1027 75.9083V82.1043H29.2254V76.676H27.7998V75.9083H30.1027Z" fill="#DDE9F2"/>
<path d="M31.4734 79.0338C31.4734 77.005 32.57 75.8535 33.9957 75.8535C35.4213 75.8535 36.5179 77.005 36.5179 79.0338C36.5179 81.0625 35.4213 82.214 33.9957 82.214C32.57 82.214 31.4734 81.0625 31.4734 79.0338ZM35.6406 79.0338C35.6406 77.4436 34.9826 76.676 33.9957 76.676C33.0087 76.676 32.3507 77.4985 32.3507 79.0338C32.3507 80.6239 33.0087 81.3915 33.9957 81.3915C34.9826 81.3915 35.6406 80.6239 35.6406 79.0338Z" fill="#DDE9F2"/>
<path d="M39.2594 75.9083V82.1043H38.3821V76.676H36.9565V75.9083H39.2594Z" fill="#DDE9F2"/>
<path d="M42.5495 75.9083V82.1043H41.6722V76.676H40.2466V75.9083H42.5495Z" fill="#DDE9F2"/>
<path d="M43.9201 79.0338C43.9201 77.005 45.0167 75.8535 46.4423 75.8535C47.868 75.8535 48.9646 77.005 48.9646 79.0338C48.9646 81.0625 47.868 82.214 46.4423 82.214C45.0167 82.214 43.9201 81.0625 43.9201 79.0338ZM48.0873 79.0338C48.0873 77.4436 47.4293 76.676 46.4423 76.676C45.4554 76.676 44.7974 77.4985 44.7974 79.0338C44.7974 80.6239 45.4554 81.3915 46.4423 81.3915C47.4293 81.3915 48.0873 80.6239 48.0873 79.0338Z" fill="#DDE9F2"/>
<path d="M49.8421 79.0338C49.8421 77.005 50.9387 75.8535 52.3643 75.8535C53.79 75.8535 54.8866 77.005 54.8866 79.0338C54.8866 81.0625 53.79 82.214 52.3643 82.214C50.8839 82.214 49.8421 81.0625 49.8421 79.0338ZM54.0093 79.0338C54.0093 77.4436 53.3513 76.676 52.3643 76.676C51.3774 76.676 50.7194 77.4985 50.7194 79.0338C50.7194 80.6239 51.3774 81.3915 52.3643 81.3915C53.2965 81.3915 54.0093 80.6239 54.0093 79.0338Z" fill="#DDE9F2"/>
<path d="M55.7641 79.0338C55.7641 77.005 56.8607 75.8535 58.2863 75.8535C59.712 75.8535 60.8086 77.005 60.8086 79.0338C60.8086 81.0625 59.712 82.214 58.2863 82.214C56.8059 82.214 55.7641 81.0625 55.7641 79.0338ZM59.9313 79.0338C59.9313 77.4436 59.2733 76.676 58.2863 76.676C57.2994 76.676 56.6414 77.4985 56.6414 79.0338C56.6414 80.6239 57.2994 81.3915 58.2863 81.3915C59.2185 81.3915 59.9313 80.6239 59.9313 79.0338Z" fill="#DDE9F2"/>
<path d="M63.5501 75.9083V82.1043H62.6728V76.676H61.2472V75.9083H63.5501Z" fill="#DDE9F2"/>
<path d="M64.9208 79.0338C64.9208 77.005 66.0174 75.8535 67.4431 75.8535C68.8687 75.8535 69.9653 77.005 69.9653 79.0338C69.9653 81.0625 68.8687 82.214 67.4431 82.214C65.9626 82.214 64.9208 81.0625 64.9208 79.0338ZM69.088 79.0338C69.088 77.4436 68.43 76.676 67.4431 76.676C66.4561 76.676 65.7981 77.4985 65.7981 79.0338C65.7981 80.6239 66.4561 81.3915 67.4431 81.3915C68.43 81.3915 69.088 80.6239 69.088 79.0338Z" fill="#DDE9F2"/>
<path d="M72.7069 75.9083V82.1043H71.8296V76.676H70.4039V75.9083H72.7069Z" fill="#DDE9F2"/>
<path d="M114.16 86.3265C114.16 84.2977 115.256 83.1462 116.682 83.1462C118.108 83.1462 119.204 84.2977 119.204 86.3265C119.204 88.3553 118.108 89.5067 116.682 89.5067C115.256 89.5067 114.16 88.3553 114.16 86.3265ZM118.327 86.3265C118.327 84.7364 117.669 83.9687 116.682 83.9687C115.695 83.9687 115.037 84.7912 115.037 86.3265C115.037 87.9166 115.695 88.6843 116.682 88.6843C117.669 88.6843 118.327 87.9166 118.327 86.3265Z" fill="#DDE9F2"/>
<path d="M121.946 83.2009V89.3969H121.068V83.9685H119.643V83.2009H121.946Z" fill="#DDE9F2"/>
<path d="M125.236 83.2009V89.3969H124.358V83.9685H122.933V83.2009H125.236Z" fill="#DDE9F2"/>
<path d="M126.606 86.3263C126.606 84.2975 127.703 83.1461 129.129 83.1461C130.554 83.1461 131.651 84.2975 131.651 86.3263C131.651 88.3551 130.554 89.5065 129.129 89.5065C127.703 89.5065 126.606 88.3551 126.606 86.3263ZM130.774 86.3263C130.774 84.7362 130.116 83.9685 129.129 83.9685C128.142 83.9685 127.484 84.791 127.484 86.3263C127.484 87.9164 128.142 88.6841 129.129 88.6841C130.116 88.6841 130.774 87.9164 130.774 86.3263Z" fill="#DDE9F2"/>
<path d="M132.528 86.3263C132.528 84.2975 133.625 83.1461 135.051 83.1461C136.476 83.1461 137.573 84.2975 137.573 86.3263C137.573 88.3551 136.476 89.5065 135.051 89.5065C133.625 89.5065 132.528 88.3551 132.528 86.3263ZM136.696 86.3263C136.696 84.7362 136.038 83.9685 135.051 83.9685C134.064 83.9685 133.406 84.791 133.406 86.3263C133.406 87.9164 134.064 88.6841 135.051 88.6841C136.038 88.6841 136.696 87.9164 136.696 86.3263Z" fill="#DDE9F2"/>
<path d="M138.45 86.3263C138.45 84.2975 139.547 83.1461 140.972 83.1461C142.398 83.1461 143.495 84.2975 143.495 86.3263C143.495 88.3551 142.398 89.5065 140.972 89.5065C139.492 89.5065 138.45 88.3551 138.45 86.3263ZM142.617 86.3263C142.617 84.7362 141.959 83.9685 140.972 83.9685C139.985 83.9685 139.328 84.791 139.328 86.3263C139.328 87.9164 139.985 88.6841 140.972 88.6841C141.959 88.6841 142.617 87.9164 142.617 86.3263Z" fill="#DDE9F2"/>
<path d="M159.944 11.865C159.944 12.6875 159.286 13.3454 158.464 13.3454C157.641 13.3454 156.983 12.6875 156.983 11.865C156.983 11.0425 157.641 10.3845 158.464 10.3845C159.286 10.3845 159.944 11.0973 159.944 11.865Z" fill="#DDE9F2"/>
<path d="M166.36 11.865C166.36 12.6875 165.702 13.3454 164.879 13.3454C164.057 13.3454 163.399 12.6875 163.399 11.865C163.399 11.0425 164.057 10.3845 164.879 10.3845C165.702 10.3845 166.36 11.0973 166.36 11.865Z" fill="#DDE9F2"/>
<path d="M173.378 11.8648C173.378 13.0163 172.446 13.9484 171.295 13.9484C170.143 13.9484 169.211 13.0163 169.211 11.8648C169.211 10.7133 170.143 9.78119 171.295 9.78119C172.446 9.78119 173.378 10.7133 173.378 11.8648Z" fill="#DDE9F2"/>
<path d="M179.136 11.865C179.136 12.6875 178.478 13.3454 177.655 13.3454C176.833 13.3454 176.175 12.6875 176.175 11.865C176.175 11.0425 176.833 10.3845 177.655 10.3845C178.478 10.3845 179.136 11.0973 179.136 11.865Z" fill="#DDE9F2"/>
<path d="M71.6651 145.052C71.6651 144.229 72.3231 143.571 73.1455 143.571C73.968 143.571 74.626 144.229 74.626 145.052C74.626 145.874 73.968 146.532 73.1455 146.532C72.3231 146.532 71.6651 145.874 71.6651 145.052Z" fill="#DDE9F2"/>
<path d="M65.2496 145.052C65.2496 144.229 65.9076 143.571 66.7301 143.571C67.5526 143.571 68.2106 144.229 68.2106 145.052C68.2106 145.874 67.5526 146.532 66.7301 146.532C65.9076 146.532 65.2496 145.874 65.2496 145.052Z" fill="#DDE9F2"/>
<path d="M58.2312 145.051C58.2312 143.9 59.1634 142.968 60.3148 142.968C61.4663 142.968 62.3985 143.9 62.3985 145.051C62.3985 146.203 61.4663 147.135 60.3148 147.135C59.2182 147.135 58.2312 146.203 58.2312 145.051Z" fill="#DDE9F2"/>
<path d="M52.4738 145.052C52.4738 144.229 53.1318 143.571 53.9543 143.571C54.7768 143.571 55.4348 144.229 55.4348 145.052C55.4348 145.874 54.7768 146.532 53.9543 146.532C53.1318 146.532 52.4738 145.874 52.4738 145.052Z" fill="#DDE9F2"/>
<path d="M148.265 90.7678H145.743V92.2483H148.265V90.7678Z" fill="#55738E"/>
<path d="M148.265 87.9712H145.743V89.4516H148.265V87.9712Z" fill="#55738E"/>
<path d="M148.265 85.175H145.743V86.6555H148.265V85.175Z" fill="#55738E"/>
<path d="M148.265 82.3784H145.743V83.8588H148.265V82.3784Z" fill="#55738E"/>
<path d="M148.265 79.582H145.743V81.0625H148.265V79.582Z" fill="#55738E"/>
<path d="M148.265 76.7854H145.743V78.2658H148.265V76.7854Z" fill="#55738E"/>
<path d="M148.265 73.9892H145.743V75.4697H148.265V73.9892Z" fill="#55738E"/>
<path d="M148.265 71.1928H145.743V72.6733H148.265V71.1928Z" fill="#55738E"/>
<path d="M148.265 68.4513H145.743V69.9317H148.265V68.4513Z" fill="#55738E"/>
<path d="M148.265 65.6548H145.743V67.1353H148.265V65.6548Z" fill="#55738E"/>
<path d="M113.008 90.7678H110.486V92.2483H113.008V90.7678Z" fill="#55738E"/>
<path d="M113.008 87.9712H110.486V89.4516H113.008V87.9712Z" fill="#55738E"/>
<path d="M113.008 85.175H110.486V86.6555H113.008V85.175Z" fill="#55738E"/>
<path d="M113.008 82.3784H110.486V83.8588H113.008V82.3784Z" fill="#55738E"/>
<path d="M113.008 79.582H110.486V81.0625H113.008V79.582Z" fill="#55738E"/>
<path d="M113.008 76.7854H110.486V78.2658H113.008V76.7854Z" fill="#55738E"/>
<path d="M113.008 73.9892H110.486V75.4697H113.008V73.9892Z" fill="#55738E"/>
<path d="M113.008 71.1928H110.486V72.6733H113.008V71.1928Z" fill="#55738E"/>
<path d="M113.008 68.4513H110.486V69.9317H113.008V68.4513Z" fill="#55738E"/>
<path d="M113.008 65.6548H110.486V67.1353H113.008V65.6548Z" fill="#55738E"/>
<path d="M77.8063 90.7678H75.284V92.2483H77.8063V90.7678Z" fill="#55738E"/>
<path d="M77.8063 87.9711H75.284V89.4516H77.8063V87.9711Z" fill="#55738E"/>
<path d="M77.8063 85.175H75.284V86.6555H77.8063V85.175Z" fill="#55738E"/>
<path d="M77.8063 82.3784H75.284V83.8588H77.8063V82.3784Z" fill="#55738E"/>
<path d="M77.8063 79.582H75.284V81.0624H77.8063V79.582Z" fill="#55738E"/>
<path d="M77.8063 76.7853H75.284V78.2658H77.8063V76.7853Z" fill="#55738E"/>
<path d="M77.8063 73.9892H75.284V75.4697H77.8063V73.9892Z" fill="#55738E"/>
<path d="M77.8063 71.1928H75.284V72.6733H77.8063V71.1928Z" fill="#55738E"/>
<path d="M77.8063 68.4512H75.284V69.9317H77.8063V68.4512Z" fill="#55738E"/>
<path d="M77.8062 65.6548H75.284V67.1353H77.8062V65.6548Z" fill="#55738E"/>
</svg>
