<svg id="Layer_1" data-name="Layer 1" xmlns="http://www.w3.org/2000/svg" viewBox="0 0 150 75.5"><defs><style>.cls-1{fill:#1c976e;}.cls-2{fill:#214975;}</style></defs><path class="cls-1" d="M16.81,57.94h0a16.74,16.74,0,0,1-15-9A17.87,17.87,0,0,1,21,23.57a16.24,16.24,0,0,1,13.38-11,16.55,16.55,0,0,1,16.34,7.13,15.37,15.37,0,0,1,9.42,4A4.93,4.93,0,0,1,61.81,27h-.7a4.26,4.26,0,0,0-1.5-2.86,14.82,14.82,0,0,0-9.12-3.82H50.3l-.1-.16a15.88,15.88,0,0,0-15.76-7A15.54,15.54,0,0,0,21.53,24.07l-.09.3-.31-.06A17.17,17.17,0,0,0,2.44,48.6a16,16,0,0,0,14.37,8.64l21.39,0v.7Z"/><path class="cls-2" d="M11.51,48a6.82,6.82,0,0,1-2.58-.47A5.44,5.44,0,0,1,7,46.23a7,7,0,0,1-1.24-1.89,9.71,9.71,0,0,1-.71-2.24,14,14,0,0,1-.2-2.37,11.36,11.36,0,0,1,.36-2.85,10.21,10.21,0,0,1,1.11-2.64,5.61,5.61,0,0,1,2.07-2,6.11,6.11,0,0,1,3.09-.77A6.13,6.13,0,0,1,15,32.4a4.92,4.92,0,0,1,1.94,2.24l-2.16,1a4.42,4.42,0,0,0-1.36-1.44,3.65,3.65,0,0,0-1.91-.46,3.59,3.59,0,0,0-2,.55,3.67,3.67,0,0,0-1.3,1.46,8,8,0,0,0-.67,1.91,9.23,9.23,0,0,0-.22,2.06A8,8,0,0,0,8.41,43.9a3.42,3.42,0,0,0,3.1,1.8,3.67,3.67,0,0,0,3.24-2.05L17,44.5A5.45,5.45,0,0,1,11.51,48Z"/><path class="cls-2" d="M19.82,47.71V32.36l2.37-1.11V47.71Z"/><path class="cls-2" d="M34.14,46.37A5,5,0,0,1,30.24,48a4.93,4.93,0,0,1-3.89-1.61,6.54,6.54,0,0,1-1.43-4.47,6.61,6.61,0,0,1,1.43-4.49,4.91,4.91,0,0,1,3.89-1.63,5,5,0,0,1,3.9,1.63,6.61,6.61,0,0,1,1.43,4.49A6.54,6.54,0,0,1,34.14,46.37Zm-3.9-.62a2.57,2.57,0,0,0,2.16-1,4.42,4.42,0,0,0,.8-2.82,4.48,4.48,0,0,0-.8-2.84,2.75,2.75,0,0,0-4.31,0,4.54,4.54,0,0,0-.8,2.84,4.51,4.51,0,0,0,.8,2.81A2.59,2.59,0,0,0,30.24,45.75Z"/><path class="cls-2" d="M45.29,47.71V46.59a3.62,3.62,0,0,1-3,1.39c-2.8,0-4.2-1.65-4.2-5V36.06h2.37V43a3,3,0,0,0,.64,2.07,2.22,2.22,0,0,0,1.69.67c1.67,0,2.51-.9,2.51-2.69v-7h2.37V47.71Z"/><path class="cls-2" d="M55.12,48a4.29,4.29,0,0,1-3.53-1.63,7,7,0,0,1-1.31-4.48,6.86,6.86,0,0,1,1.34-4.46,4.3,4.3,0,0,1,3.5-1.63,3.65,3.65,0,0,1,2.76,1.1V32.34l2.37-1.09V47.71H57.88v-.82A3.53,3.53,0,0,1,55.12,48Zm.34-2.23a2.68,2.68,0,0,0,2.42-1.32V39.3a2.87,2.87,0,0,0-1-.91A2.82,2.82,0,0,0,55.46,38a2.42,2.42,0,0,0-2.08,1,4.84,4.84,0,0,0-.73,2.85,4.74,4.74,0,0,0,.76,2.81A2.38,2.38,0,0,0,55.46,45.75Z"/><path class="cls-2" d="M73.93,48a6.45,6.45,0,0,1-3.67-1,5.36,5.36,0,0,1-2.15-2.84l2.24-.82a4.07,4.07,0,0,0,1.46,1.76A3.78,3.78,0,0,0,74,45.7a3.27,3.27,0,0,0,2.11-.63,2.25,2.25,0,0,0,.79-1.83,2,2,0,0,0-.22-.92,2.71,2.71,0,0,0-.49-.7,3.28,3.28,0,0,0-.84-.56c-.38-.19-.7-.33-1-.43l-1.11-.4c-.6-.21-1.06-.38-1.36-.5a8.49,8.49,0,0,1-1.2-.61,4.33,4.33,0,0,1-1.12-.84A4.13,4.13,0,0,1,69,37.17a3.72,3.72,0,0,1-.3-1.52,3.83,3.83,0,0,1,1.37-3,5.44,5.44,0,0,1,3.72-1.21,5.56,5.56,0,0,1,3.22.87,4.19,4.19,0,0,1,1.7,2.3l-2.19.73a2.54,2.54,0,0,0-1.06-1.17,3.51,3.51,0,0,0-1.86-.45,2.84,2.84,0,0,0-1.79.51,1.68,1.68,0,0,0-.65,1.41,1.44,1.44,0,0,0,.51,1.09,3.31,3.31,0,0,0,1.05.71c.36.15.91.36,1.66.62l1,.37c.22.09.55.23,1,.43a5.54,5.54,0,0,1,1,.53,8.53,8.53,0,0,1,.8.65,3.26,3.26,0,0,1,.7.83,5,5,0,0,1,.41,1,4.85,4.85,0,0,1,.17,1.29,4.3,4.3,0,0,1-1.53,3.5A6,6,0,0,1,73.93,48Z"/><path class="cls-2" d="M90.87,46.37a5.5,5.5,0,0,1-7.78,0,6.49,6.49,0,0,1-1.43-4.47,6.56,6.56,0,0,1,1.43-4.49,5.46,5.46,0,0,1,7.78,0,6.56,6.56,0,0,1,1.44,4.49A6.49,6.49,0,0,1,90.87,46.37ZM87,45.75a2.58,2.58,0,0,0,2.17-1,4.48,4.48,0,0,0,.8-2.82,4.54,4.54,0,0,0-.8-2.84,2.75,2.75,0,0,0-4.31,0A4.54,4.54,0,0,0,84,41.9a4.51,4.51,0,0,0,.8,2.81A2.57,2.57,0,0,0,87,45.75Z"/><path class="cls-2" d="M95.05,47.71V32.36l2.37-1.11V47.71Z"/><path class="cls-2" d="M107.82,47.71V46.59a3.62,3.62,0,0,1-3,1.39c-2.8,0-4.2-1.65-4.2-5V36.06H103V43a2.9,2.9,0,0,0,.64,2.07,2.22,2.22,0,0,0,1.69.67c1.67,0,2.51-.9,2.51-2.69v-7h2.37V47.71Z"/><path class="cls-2" d="M116.76,48c-1.74,0-2.6-1-2.6-2.89v-7h-1.81v-2h1.81V32.39l2.37-1.14v4.81h2.76v2h-2.76v6.36c0,.88.38,1.33,1.14,1.33a3.34,3.34,0,0,0,1.73-.55l-.3,2.21A5.16,5.16,0,0,1,116.76,48Z"/><path class="cls-2" d="M124,33.81a1.44,1.44,0,1,1,.42-1A1.39,1.39,0,0,1,124,33.81Zm-2.2,13.9V36.06h2.37V47.71Z"/><path class="cls-2" d="M136.05,46.37a5.52,5.52,0,0,1-7.79,0,6.53,6.53,0,0,1-1.42-4.47,6.61,6.61,0,0,1,1.42-4.49,5.47,5.47,0,0,1,7.79,0,6.56,6.56,0,0,1,1.43,4.49A6.49,6.49,0,0,1,136.05,46.37Zm-3.9-.62a2.57,2.57,0,0,0,2.16-1,4.42,4.42,0,0,0,.8-2.82,4.48,4.48,0,0,0-.8-2.84,2.75,2.75,0,0,0-4.31,0,4.54,4.54,0,0,0-.79,2.84,4.51,4.51,0,0,0,.79,2.81A2.59,2.59,0,0,0,132.15,45.75Z"/><path class="cls-2" d="M147.31,47.71v-7a2.9,2.9,0,0,0-.64-2.07A2.19,2.19,0,0,0,145,38c-1.68,0-2.51.9-2.51,2.69v7h-2.37V36.06h2.37v1.11a3.64,3.64,0,0,1,3-1.39c2.8,0,4.19,1.66,4.19,5v7Z"/><path class="cls-1" d="M41.3,52v8.37H40.22V52Z"/><path class="cls-1" d="M46.91,60.33v-.58a2.54,2.54,0,0,1-1.8.73,2.28,2.28,0,0,1-1.61-.55,2.06,2.06,0,0,1-.6-1.59,1.87,1.87,0,0,1,.68-1.56,2.65,2.65,0,0,1,1.69-.54,3.3,3.3,0,0,1,1.64.41v-.44a1.21,1.21,0,0,0-1.38-1.43,3.17,3.17,0,0,0-1.85.63l-.31-.9a4.09,4.09,0,0,1,2.3-.68,2,2,0,0,1,2.26,2.29v4.21Zm-1.64-.81a2.09,2.09,0,0,0,1.64-.83V57.6a2.77,2.77,0,0,0-1.49-.42,1.89,1.89,0,0,0-1.08.29,1,1,0,0,0-.42.87,1.11,1.11,0,0,0,.35.86A1.42,1.42,0,0,0,45.27,59.52Z"/><path class="cls-1" d="M53.44,60.33v-.58a2.54,2.54,0,0,1-1.8.73A2.3,2.3,0,0,1,50,59.93a2.06,2.06,0,0,1-.6-1.59,1.85,1.85,0,0,1,.69-1.56,2.6,2.6,0,0,1,1.68-.54,3.27,3.27,0,0,1,1.64.41v-.44a1.42,1.42,0,0,0-.35-1.11,1.45,1.45,0,0,0-1-.32,3.2,3.2,0,0,0-1.86.63l-.31-.9a4.09,4.09,0,0,1,2.3-.68,2,2,0,0,1,2.26,2.29v4.21Zm-1.64-.81a2.07,2.07,0,0,0,1.64-.83V57.6A2.77,2.77,0,0,0,52,57.18a1.89,1.89,0,0,0-1.08.29,1,1,0,0,0-.42.87,1.11,1.11,0,0,0,.35.86A1.42,1.42,0,0,0,51.8,59.52Z"/><path class="cls-1" d="M59.06,60.48a3.38,3.38,0,0,1-1.92-.54A2.75,2.75,0,0,1,56,58.54l1-.37a2.17,2.17,0,0,0,2,1.29,1.9,1.9,0,0,0,1.26-.38A1.33,1.33,0,0,0,60.8,58a1.36,1.36,0,0,0-.52-1.1,5,5,0,0,0-1.45-.74l-.73-.29a5.57,5.57,0,0,1-.68-.35,3.13,3.13,0,0,1-.6-.47,2.44,2.44,0,0,1-.38-.61,2.11,2.11,0,0,1-.15-.8A1.93,1.93,0,0,1,57,52.11a2.85,2.85,0,0,1,2-.62,3,3,0,0,1,1.68.43A1.94,1.94,0,0,1,61.5,53l-1,.34a1.41,1.41,0,0,0-.6-.64,2,2,0,0,0-1-.25,1.77,1.77,0,0,0-1.08.31,1,1,0,0,0-.39.84,1,1,0,0,0,.14.52,1.15,1.15,0,0,0,.45.42c.2.12.39.22.56.3s.41.17.72.28a8.37,8.37,0,0,1,.95.41,7.37,7.37,0,0,1,.8.51,2.2,2.2,0,0,1,.66.8A2.56,2.56,0,0,1,61.91,58a2.28,2.28,0,0,1-.79,1.84A3.08,3.08,0,0,1,59.06,60.48Z"/><path class="cls-1" d="M63.45,61.9a2.66,2.66,0,0,0,.45-.58,1.71,1.71,0,0,0,.25-.79,1,1,0,0,1-.62-.26.72.72,0,0,1-.25-.57.89.89,0,0,1,.24-.64.81.81,0,0,1,.59-.24.9.9,0,0,1,.67.27,1.1,1.1,0,0,1,.28.82,2.44,2.44,0,0,1-.35,1.26,2.61,2.61,0,0,1-.9.91Z"/><path class="cls-1" d="M69.68,60.33V51.64H73a3.58,3.58,0,0,1,1.32.22,2,2,0,0,1,.87.6,2.62,2.62,0,0,1,.46.83,3,3,0,0,1,.15,1,2.63,2.63,0,0,1-.7,1.82,2.69,2.69,0,0,1-2.1.78H70.76v3.49Zm3.4-4.5a1.54,1.54,0,0,0,1.25-.47,1.64,1.64,0,0,0,.4-1.12,1.76,1.76,0,0,0-.38-1.11,1.51,1.51,0,0,0-1.27-.49H70.76v3.19Z"/><path class="cls-1" d="M80.71,60.33v-.58a2.56,2.56,0,0,1-1.8.73,2.28,2.28,0,0,1-1.61-.55,2.06,2.06,0,0,1-.61-1.59,1.85,1.85,0,0,1,.69-1.56,2.63,2.63,0,0,1,1.69-.54,3.3,3.3,0,0,1,1.64.41v-.44a1.22,1.22,0,0,0-1.38-1.43,3.15,3.15,0,0,0-1.85.63l-.31-.9a4.05,4.05,0,0,1,2.29-.68,2,2,0,0,1,2.27,2.29v4.21Zm-1.64-.81a2.1,2.1,0,0,0,1.64-.83V57.6a2.82,2.82,0,0,0-1.49-.42,1.89,1.89,0,0,0-1.08.29,1,1,0,0,0-.43.87,1.09,1.09,0,0,0,.36.86A1.4,1.4,0,0,0,79.07,59.52Z"/><path class="cls-1" d="M87.24,60.33v-.58a2.54,2.54,0,0,1-1.8.73,2.28,2.28,0,0,1-1.61-.55,2.06,2.06,0,0,1-.6-1.59,1.87,1.87,0,0,1,.68-1.56,2.65,2.65,0,0,1,1.69-.54,3.3,3.3,0,0,1,1.64.41v-.44a1.21,1.21,0,0,0-1.38-1.43,3.17,3.17,0,0,0-1.85.63l-.31-.9a4.06,4.06,0,0,1,2.3-.68,2,2,0,0,1,2.26,2.29v4.21Zm-1.64-.81a2.09,2.09,0,0,0,1.64-.83V57.6a2.8,2.8,0,0,0-1.49-.42,1.89,1.89,0,0,0-1.08.29,1,1,0,0,0-.42.87,1.08,1.08,0,0,0,.35.86A1.42,1.42,0,0,0,85.6,59.52Z"/><path class="cls-1" d="M92.85,60.48a3.43,3.43,0,0,1-1.92-.54,2.75,2.75,0,0,1-1.11-1.4l1-.37a2.19,2.19,0,0,0,2,1.29,1.85,1.85,0,0,0,1.25-.38A1.3,1.3,0,0,0,94.59,58a1.35,1.35,0,0,0-.51-1.1,5.26,5.26,0,0,0-1.45-.74l-.74-.29a5.53,5.53,0,0,1-.67-.35,3.13,3.13,0,0,1-.6-.47,2.18,2.18,0,0,1-.38-.61,2.11,2.11,0,0,1-.16-.8,1.93,1.93,0,0,1,.72-1.53,2.85,2.85,0,0,1,2-.62,3,3,0,0,1,1.68.43A1.91,1.91,0,0,1,95.3,53l-1,.34a1.47,1.47,0,0,0-.6-.64,2,2,0,0,0-1-.25,1.73,1.73,0,0,0-1.08.31,1,1,0,0,0-.4.84,1,1,0,0,0,.14.52,1.31,1.31,0,0,0,.45.42,5.3,5.3,0,0,0,.57.3c.17.07.41.17.72.28a8.13,8.13,0,0,1,.94.41,6.57,6.57,0,0,1,.81.51,2.2,2.2,0,0,1,.66.8A2.56,2.56,0,0,1,95.71,58a2.28,2.28,0,0,1-.79,1.84A3.09,3.09,0,0,1,92.85,60.48Z"/><path class="cls-1" d="M104.13,60.33v-.58a2.54,2.54,0,0,1-1.8.73,2.28,2.28,0,0,1-1.61-.55,2.06,2.06,0,0,1-.6-1.59,1.87,1.87,0,0,1,.68-1.56,2.65,2.65,0,0,1,1.69-.54,3.3,3.3,0,0,1,1.64.41v-.44a1.21,1.21,0,0,0-1.38-1.43,3.2,3.2,0,0,0-1.85.63l-.31-.9a4.09,4.09,0,0,1,2.3-.68,2,2,0,0,1,2.26,2.29v4.21Zm-1.64-.81a2.09,2.09,0,0,0,1.64-.83V57.6a2.77,2.77,0,0,0-1.49-.42,1.89,1.89,0,0,0-1.08.29,1,1,0,0,0-.42.87,1.11,1.11,0,0,0,.35.86A1.42,1.42,0,0,0,102.49,59.52Z"/><path class="cls-1" d="M110.94,60.33V56.49a1.81,1.81,0,0,0-.37-1.26,1.27,1.27,0,0,0-1-.4c-1,0-1.46.55-1.46,1.64v3.86H107V54h1.08v.65a1.91,1.91,0,0,1,1.64-.8,2.1,2.1,0,0,1,1.69.68,3.29,3.29,0,0,1,.58,2.17v3.65Z"/><path class="cls-1" d="M116.27,60.48a2.34,2.34,0,0,1-1.92-.89,3.85,3.85,0,0,1-.7-2.44,3.72,3.72,0,0,1,.71-2.43,2.47,2.47,0,0,1,3.51-.29V51.87l1.08-.51v9h-1.08v-.5A2.14,2.14,0,0,1,116.27,60.48Zm.15-1a1.61,1.61,0,0,0,1.45-.85v-3a1.63,1.63,0,0,0-1.45-.81,1.45,1.45,0,0,0-1.25.6,3.48,3.48,0,0,0,0,3.39A1.43,1.43,0,0,0,116.42,59.47Z"/><path class="cls-1" d="M126.64,60.48a3.38,3.38,0,0,1-1.92-.54,2.75,2.75,0,0,1-1.11-1.4l1-.37a2.17,2.17,0,0,0,2,1.29,1.9,1.9,0,0,0,1.26-.38,1.33,1.33,0,0,0,.46-1.08,1.36,1.36,0,0,0-.52-1.1,5.12,5.12,0,0,0-1.45-.74l-.74-.29a6.38,6.38,0,0,1-.67-.35,3.13,3.13,0,0,1-.6-.47,2.44,2.44,0,0,1-.38-.61,2.11,2.11,0,0,1-.15-.8,1.93,1.93,0,0,1,.72-1.53,2.85,2.85,0,0,1,2-.62,3,3,0,0,1,1.67.43,1.91,1.91,0,0,1,.87,1.12l-1,.34a1.41,1.41,0,0,0-.6-.64,2,2,0,0,0-1-.25,1.77,1.77,0,0,0-1.08.31,1,1,0,0,0-.39.84,1,1,0,0,0,.14.52,1.15,1.15,0,0,0,.45.42c.2.12.39.22.56.3s.41.17.72.28a7.43,7.43,0,0,1,.94.41,6.57,6.57,0,0,1,.81.51,2.2,2.2,0,0,1,.66.8,2.56,2.56,0,0,1,.22,1.09,2.28,2.28,0,0,1-.79,1.84A3.08,3.08,0,0,1,126.64,60.48Z"/><path class="cls-1" d="M135,60.33v-.58a2.58,2.58,0,0,1-1.8.73,2.26,2.26,0,0,1-1.61-.55,2.06,2.06,0,0,1-.61-1.59,1.85,1.85,0,0,1,.69-1.56,2.63,2.63,0,0,1,1.69-.54,3.3,3.3,0,0,1,1.64.41v-.44a1.42,1.42,0,0,0-.36-1.11,1.44,1.44,0,0,0-1-.32,3.15,3.15,0,0,0-1.85.63l-.31-.9a4.05,4.05,0,0,1,2.29-.68A2,2,0,0,1,136,56.12v4.21Zm-1.64-.81a2.1,2.1,0,0,0,1.64-.83V57.6a2.82,2.82,0,0,0-1.49-.42,1.89,1.89,0,0,0-1.08.29,1,1,0,0,0-.43.87,1.09,1.09,0,0,0,.36.86A1.4,1.4,0,0,0,133.36,59.52Z"/><path class="cls-1" d="M141.53,60.33v-.58a2.54,2.54,0,0,1-1.8.73,2.28,2.28,0,0,1-1.61-.55,2.06,2.06,0,0,1-.6-1.59,1.87,1.87,0,0,1,.68-1.56,2.65,2.65,0,0,1,1.69-.54,3.3,3.3,0,0,1,1.64.41v-.44a1.21,1.21,0,0,0-1.38-1.43,3.17,3.17,0,0,0-1.85.63l-.31-.9a4.06,4.06,0,0,1,2.3-.68,2,2,0,0,1,2.26,2.29v4.21Zm-1.64-.81a2.09,2.09,0,0,0,1.64-.83V57.6a2.8,2.8,0,0,0-1.49-.42,1.89,1.89,0,0,0-1.08.29,1,1,0,0,0-.42.87,1.08,1.08,0,0,0,.35.86A1.42,1.42,0,0,0,139.89,59.52Z"/><path class="cls-1" d="M147.14,60.48a3.43,3.43,0,0,1-1.92-.54,2.75,2.75,0,0,1-1.11-1.4l1-.37a2.19,2.19,0,0,0,2,1.29,1.85,1.85,0,0,0,1.25-.38,1.3,1.3,0,0,0,.46-1.08,1.35,1.35,0,0,0-.51-1.1,5.26,5.26,0,0,0-1.45-.74l-.74-.29a5.53,5.53,0,0,1-.67-.35,3.13,3.13,0,0,1-.6-.47,2.18,2.18,0,0,1-.38-.61,2.11,2.11,0,0,1-.16-.8,1.93,1.93,0,0,1,.72-1.53,2.85,2.85,0,0,1,1.95-.62,3,3,0,0,1,1.68.43,1.91,1.91,0,0,1,.87,1.12l-1,.34a1.47,1.47,0,0,0-.6-.64,2.07,2.07,0,0,0-1-.25,1.73,1.73,0,0,0-1.08.31,1,1,0,0,0-.4.84,1,1,0,0,0,.14.52,1.31,1.31,0,0,0,.45.42,5.3,5.3,0,0,0,.57.3c.17.07.41.17.72.28a8.13,8.13,0,0,1,.94.41,6.57,6.57,0,0,1,.81.51,2.2,2.2,0,0,1,.66.8A2.56,2.56,0,0,1,150,58a2.31,2.31,0,0,1-.79,1.84A3.09,3.09,0,0,1,147.14,60.48Z"/><path class="cls-1" d="M24.53,24.35l-.65-.27c.11-.28,2.88-6.86,9.15-8.63,4.2-1.18,8.93.12,14,3.86l-.41.57c-4.94-3.61-9.46-4.87-13.45-3.75C27.29,17.8,24.55,24.28,24.53,24.35Z"/><path class="cls-1" d="M58.55,27.31c-1.26-4-7-4.86-7.07-4.87l.1-.69c.26,0,6.24,1,7.64,5.35Z"/></svg>