<svg id="Layer_1" data-name="Layer 1" xmlns="http://www.w3.org/2000/svg" viewBox="0 0 150 75.5"><defs><style>.cls-1{fill:#1c976e;}.cls-2{fill:#214975;}</style></defs><path class="cls-1" d="M33.17,71.81h0C21,71.81,9.81,66.4,4.62,58-.21,50.26,0,41.31,5.15,33.5A32.53,32.53,0,0,1,19.84,21.79a40.75,40.75,0,0,1,21.53-2.46C44.74,10.69,53.54,4.44,65,2.57,78,.45,91,4.64,98.09,13.26c7.11,0,19.12,1.36,21.28,11.1l-.7.15C116.7,15.66,106.3,13.9,97.92,14h-.17l-.11-.14C90.72,5.34,78,1.19,65.09,3.29c-11.29,1.84-20,8-23.15,16.57l-.1.28-.3-.05C26.86,17.82,12.81,23.24,5.75,33.9c-5,7.57-5.19,16.22-.52,23.76,5.07,8.15,16,13.42,27.92,13.42h0l18.1,0,23,0v.73l-23,0Z"/><path class="cls-1" d="M17.77,63.19a9.34,9.34,0,0,1-3.49-3.73,11.06,11.06,0,0,1-1.2-5.14A10.9,10.9,0,0,1,14.38,49,9.31,9.31,0,0,1,18,45.32,10.69,10.69,0,0,1,23.35,44a10.52,10.52,0,0,1,2.5.28,9.69,9.69,0,0,1,1.92.66,4,4,0,0,1,1,.61l-1.34,2.73a6.3,6.3,0,0,0-4.34-1.47,6.35,6.35,0,0,0-5.81,3.57,8.75,8.75,0,0,0-.88,4,8.92,8.92,0,0,0,.78,3.77,6.2,6.2,0,0,0,2.28,2.67,6.34,6.34,0,0,0,3.58,1,8.78,8.78,0,0,0,4.64-1.36l.9,2.59a6,6,0,0,1-2.2,1,10.53,10.53,0,0,1-3.23.51A10.08,10.08,0,0,1,17.77,63.19Z"/><path class="cls-1" d="M34,63.79a6,6,0,0,1-2.32-2.38,6.79,6.79,0,0,1-.82-3.33,6.94,6.94,0,0,1,.8-3.3,6.07,6.07,0,0,1,2.31-2.38,6.8,6.8,0,0,1,3.47-.87,6.7,6.7,0,0,1,3.45.87,6,6,0,0,1,2.29,2.38,7.15,7.15,0,0,1,0,6.63,6.14,6.14,0,0,1-2.31,2.38,6.64,6.64,0,0,1-3.42.87A6.71,6.71,0,0,1,34,63.79Zm6-2.7a4.67,4.67,0,0,0,.91-3,4.62,4.62,0,0,0-1-3,3.19,3.19,0,0,0-2.6-1.22,3,3,0,0,0-2.49,1.2,4.75,4.75,0,0,0-.95,3,4.38,4.38,0,0,0,1,2.93,3.27,3.27,0,0,0,2.6,1.19A3,3,0,0,0,40,61.09Z"/><path class="cls-1" d="M47.1,51.86H50v2.26a4.16,4.16,0,0,1,1.77-1.93,5.28,5.28,0,0,1,2.66-.66q3.36,0,4.12,2.32a4.28,4.28,0,0,1,1.8-1.69,5.4,5.4,0,0,1,2.54-.63,5,5,0,0,1,3,.75,3.66,3.66,0,0,1,1.35,2.13,16.43,16.43,0,0,1,.34,3.7v6.28h-3V58.08a8,8,0,0,0-.45-3.16,1.73,1.73,0,0,0-1.73-1,3.09,3.09,0,0,0-2.61,1.16,4.88,4.88,0,0,0-.89,3v6.23H56V57.65a15.89,15.89,0,0,0-.11-2.16,1.81,1.81,0,0,0-.6-1.12A2.5,2.5,0,0,0,53.7,54a3.14,3.14,0,0,0-1.79.57,4.2,4.2,0,0,0-1.33,1.55,4.38,4.38,0,0,0-.51,2.08v6.23h-3Z"/><path class="cls-1" d="M71.42,51.86h2.84v2.32A5,5,0,0,1,79,51.53a5.72,5.72,0,0,1,4.29,1.68,6.67,6.67,0,0,1,1.64,4.85,7.16,7.16,0,0,1-.81,3.46,5.8,5.8,0,0,1-5.25,3.14,6.34,6.34,0,0,1-2.75-.56,4.25,4.25,0,0,1-1.81-1.59l0,8.51H71.42ZM80.86,61a4.32,4.32,0,0,0,1-2.9,4.38,4.38,0,0,0-.94-3,3.4,3.4,0,0,0-2.75-1.11,3.74,3.74,0,0,0-1.84.48,3.49,3.49,0,0,0-1.36,1.36A4.06,4.06,0,0,0,74.42,58v.19a4.2,4.2,0,0,0,.51,2.09,3.56,3.56,0,0,0,1.35,1.42,3.51,3.51,0,0,0,1.85.51A3.34,3.34,0,0,0,80.86,61Z"/><path class="cls-1" d="M88.79,63.13a8,8,0,0,1-1-4.26v-7h3v6.28A12.43,12.43,0,0,0,91,60.55a2.06,2.06,0,0,0,.71,1.27,2.57,2.57,0,0,0,1.6.41,2.68,2.68,0,0,0,1.47-.44,3.45,3.45,0,0,0,1.16-1.18A3.15,3.15,0,0,0,96.34,59v-7.1h2.92V64.39h-2.4l-.33-1.83a4.28,4.28,0,0,1-1.7,1.58,5.39,5.39,0,0,1-2.47.52Q89.76,64.66,88.79,63.13Z"/><path class="cls-1" d="M104.29,54.26h-2.22v-2.4h2.22V46.75l3-.65v5.76h2.89v2.4h-2.89V64.39h-3Z"/><path class="cls-1" d="M112.86,48.94a1.91,1.91,0,0,1-.58-1.42,1.72,1.72,0,0,1,.58-1.31,2,2,0,0,1,1.42-.55,1.92,1.92,0,0,1,1.39.55,1.74,1.74,0,0,1,.57,1.31,1.93,1.93,0,0,1-.56,1.42,1.88,1.88,0,0,1-1.4.57A1.92,1.92,0,0,1,112.86,48.94Zm-.08,2.92h3V64.39h-3Z"/><path class="cls-1" d="M119.93,51.86h2.89l0,2.29a4.35,4.35,0,0,1,1.64-1.88,4.65,4.65,0,0,1,2.62-.74,4.73,4.73,0,0,1,3,.81,3.86,3.86,0,0,1,1.39,2.25,16.06,16.06,0,0,1,.36,3.77v6h-3v-6a9.15,9.15,0,0,0-.46-3.43,1.87,1.87,0,0,0-1.91-1,3.21,3.21,0,0,0-1.67.51,4,4,0,0,0-1.41,1.46,4.34,4.34,0,0,0-.55,2.23v6.23h-2.95Z"/><path class="cls-1" d="M139,70.56a9.62,9.62,0,0,1-1.93-.71l.66-2.73a7.07,7.07,0,0,0,3.93,1.17,4.66,4.66,0,0,0,2.76-.79c.74-.53,1.12-1.56,1.14-3.08V62.18A4.47,4.47,0,0,1,143.68,64a6,6,0,0,1-5.85-.09,5.72,5.72,0,0,1-2.15-2.31,8.09,8.09,0,0,1,0-6.89,5.44,5.44,0,0,1,2.14-2.31,6.25,6.25,0,0,1,3.25-.82,5.57,5.57,0,0,1,2.05.38,6.33,6.33,0,0,1,1.62.94,3.05,3.05,0,0,1,.89,1.11l0-2.1h2.79V64.31a6.85,6.85,0,0,1-1.64,4.91c-1.09,1.15-2.79,1.72-5.08,1.72A10.18,10.18,0,0,1,139,70.56Zm5.31-9.46a3.85,3.85,0,0,0,1.06-2.83v-.19a4.4,4.4,0,0,0-.49-2.1,3.68,3.68,0,0,0-1.34-1.45,3.51,3.51,0,0,0-1.85-.51A3.34,3.34,0,0,0,139,55.15a5.06,5.06,0,0,0,0,5.89,3.32,3.32,0,0,0,2.72,1.14A3.55,3.55,0,0,0,144.28,61.1Z"/><path class="cls-2" d="M36.52,41.83a8.64,8.64,0,0,1-3.23-3.45,10.28,10.28,0,0,1-1.11-4.77,10.09,10.09,0,0,1,1.2-4.94,8.63,8.63,0,0,1,3.38-3.4A9.86,9.86,0,0,1,41.69,24a9.52,9.52,0,0,1,2.32.27,9.15,9.15,0,0,1,1.78.61,3.47,3.47,0,0,1,.94.57L45.49,28a5.85,5.85,0,0,0-4-1.37,6,6,0,0,0-3.17.86A5.91,5.91,0,0,0,36.08,30a8,8,0,0,0-.81,3.69A8.25,8.25,0,0,0,36,37.15a5.75,5.75,0,0,0,2.11,2.48,5.9,5.9,0,0,0,3.32.91,8.2,8.2,0,0,0,4.3-1.26l.83,2.4a5.69,5.69,0,0,1-2,1,9.69,9.69,0,0,1-3,.47A9.4,9.4,0,0,1,36.52,41.83Z"/><path class="cls-2" d="M49.74,24.35H52.6V40.42h5.34V43h-8.2Z"/><path class="cls-2" d="M64.81,42a8.78,8.78,0,0,1-3.41-3.35,9.92,9.92,0,0,1-1.26-5.06,9.88,9.88,0,0,1,1.26-5.07,8.66,8.66,0,0,1,3.41-3.33,9.89,9.89,0,0,1,9.33,0,8.66,8.66,0,0,1,3.41,3.33,9.88,9.88,0,0,1,1.26,5.07,9.92,9.92,0,0,1-1.26,5.06A8.78,8.78,0,0,1,74.14,42a9.81,9.81,0,0,1-9.33,0Zm7.85-2.2A5.83,5.83,0,0,0,75,37.42a7.89,7.89,0,0,0,.85-3.79,7.87,7.87,0,0,0-.85-3.8,5.79,5.79,0,0,0-2.27-2.4,6.49,6.49,0,0,0-3.2-.8,6.57,6.57,0,0,0-3.22.8A5.67,5.67,0,0,0,64,29.83a8,8,0,0,0-.84,3.8A7.89,7.89,0,0,0,64,37.42a6,6,0,0,0,2.32,2.4,6.52,6.52,0,0,0,6.33,0Z"/><path class="cls-2" d="M83.57,41.1A10,10,0,0,1,82,35V24.35h2.83v10.7a7.69,7.69,0,0,0,.89,4.24,4,4,0,0,0,5.81,0,7.74,7.74,0,0,0,.87-4.26V24.35h2.86V35a9.66,9.66,0,0,1-1.66,6.09,5.94,5.94,0,0,1-5,2.11C86.3,43.2,84.62,42.5,83.57,41.1Z"/><path class="cls-2" d="M99.23,24.35h4.48q5.61,0,7.86,2.65a9.53,9.53,0,0,1,2.24,6.33,11.52,11.52,0,0,1-1,4.72,7.9,7.9,0,0,1-3.17,3.53A11,11,0,0,1,103.86,43H99.23Zm4.94,16.09q3.48,0,5.07-2a7.78,7.78,0,0,0,1.58-5,7.1,7.1,0,0,0-1.59-4.79c-1.07-1.23-2.75-1.84-5.06-1.84h-2.1V40.44Z"/><path class="cls-1" d="M48.56,16.45l-.6-.4A24.51,24.51,0,0,1,58,8.17c6.27-2.79,17-4.64,32.4,2.4l-.3.66C75,4.31,64.49,6.1,58.35,8.82A24.22,24.22,0,0,0,48.56,16.45Z"/><path class="cls-1" d="M114.94,24.37c-2.52-7.31-12.92-7.14-13-7.14l0-.72c.1,0,11-.19,13.72,7.62Z"/></svg>