<svg width="276" height="190" viewBox="0 0 276 190" fill="none" xmlns="http://www.w3.org/2000/svg">
<path d="M276 180.725H0V180.89H276V180.725Z" fill="#EBEBEB"/>
<path d="M248.345 189.612H217.874V189.778H248.345V189.612Z" fill="#EBEBEB"/>
<path d="M182.436 186.742H177.634V186.907H182.436V186.742Z" fill="#EBEBEB"/>
<path d="M216.219 184.534H205.62V184.699H216.219V184.534Z" fill="#EBEBEB"/>
<path d="M52.8265 185.417H28.9801V185.582H52.8265V185.417Z" fill="#EBEBEB"/>
<path d="M144.072 189.005H118.846V189.17H144.072V189.005Z" fill="#EBEBEB"/>
<path d="M129.279 186.686H77.5565V186.852H129.279V186.686Z" fill="#EBEBEB"/>
<path d="M133.97 152.959C133.97 154.67 132.535 156.106 130.824 156.106H24.2329C22.5217 156.106 21.0865 154.67 21.0865 152.959V3.1464C21.0865 1.4352 22.5217 0 24.2329 0H130.824C132.535 0 133.97 1.4352 133.97 3.1464V152.959ZM133.86 3.1464C133.86 1.4904 132.535 0.1104 130.824 0.1104H24.2329C22.5769 0.1104 21.1969 1.4352 21.1969 3.1464V152.959C21.1969 154.615 22.5217 155.995 24.2329 155.995H130.824C132.48 155.995 133.86 154.67 133.86 152.959" fill="#EBEBEB"/>
<path d="M250.222 156.106H143.631C141.92 156.106 140.484 154.67 140.484 152.959V3.1464C140.484 1.4352 141.92 0 143.631 0H250.222C251.933 0 253.368 1.4352 253.368 3.1464V152.959C253.368 154.726 251.988 156.106 250.222 156.106ZM143.631 0.1656C141.975 0.1656 140.595 1.4904 140.595 3.2016V153.014C140.595 154.67 141.92 156.05 143.631 156.05H250.222C251.878 156.05 253.258 154.726 253.258 153.014V3.1464C253.258 1.4904 251.933 0.1104 250.222 0.1104H143.631V0.1656Z" fill="#EBEBEB"/>
<path d="M106.647 51.115C106.536 42.5038 99.581 35.5486 90.9146 35.5486C88.817 35.5486 86.8298 35.935 85.0634 36.7078C81.9722 30.415 75.5138 26.0542 68.0066 26.0542C58.9538 26.0542 51.3914 32.4022 49.5146 40.903C41.0138 41.455 34.2794 48.5206 34.2794 57.187C34.2794 66.1846 41.5658 73.5262 50.6186 73.5262H102.562C108.965 73.5262 114.154 68.3374 114.154 61.9342C114.043 56.9662 110.952 52.771 106.647 51.115Z" fill="#E0E0E0"/>
<path d="M239.569 126.463C239.513 117.852 232.503 110.896 223.892 110.896C221.794 110.896 219.807 111.283 218.041 112.056C214.949 105.763 208.491 101.402 200.984 101.402C191.931 101.402 184.369 107.75 182.492 116.251C173.991 116.803 167.257 123.869 167.257 132.535C167.257 141.533 174.543 148.874 183.596 148.874H235.539C241.942 148.874 247.131 143.685 247.131 137.282C247.021 132.314 243.929 128.119 239.569 126.463Z" fill="#F5F5F5"/>
<path d="M189.888 75.5687C189.833 71.0975 186.245 67.5095 181.774 67.5095C180.67 67.5095 179.676 67.7303 178.738 68.1167C177.137 64.8599 173.77 62.5967 169.906 62.5967C165.214 62.5967 161.294 65.9087 160.301 70.2695C155.885 70.5455 152.407 74.2439 152.407 78.7151C152.407 83.4071 156.216 87.1607 160.853 87.1607H187.79C191.102 87.1607 193.807 84.4559 193.807 81.1439C193.752 78.6047 192.151 76.4519 189.888 75.5687Z" fill="#E0E0E0"/>
<path d="M227.866 26.9926C227.811 21.0862 223.008 16.339 217.102 16.339C215.667 16.339 214.342 16.615 213.072 17.1118C210.975 12.8062 206.504 9.82544 201.37 9.82544C195.188 9.82544 189.999 14.1862 188.674 19.9822C182.823 20.3686 178.241 25.2262 178.241 31.1326C178.241 37.315 183.264 42.3382 189.447 42.3382H225.051C229.412 42.3382 233 38.8054 233 34.3894C232.944 31.0222 230.847 28.0966 227.866 26.9926Z" fill="#EBEBEB"/>
<path d="M113.767 121.605C113.712 115.699 108.91 110.952 103.003 110.952C101.568 110.952 100.243 111.228 98.9736 111.725C96.876 107.419 92.4048 104.438 87.2712 104.438C81.0888 104.438 75.9 108.799 74.5752 114.595C68.724 114.981 64.1424 119.839 64.1424 125.745C64.1424 131.928 69.1656 136.951 75.348 136.951H110.952C115.313 136.951 118.901 133.418 118.901 129.002C118.846 125.635 116.748 122.709 113.767 121.605Z" fill="#F5F5F5"/>
<path d="M72.3122 66.2951C72.257 66.2951 72.1466 66.2399 72.0914 66.2399C72.0914 66.2399 72.0362 66.1847 72.0362 66.1295C72.0362 66.0743 72.0362 66.0743 72.0362 66.0191C72.0362 65.9639 72.0362 65.9639 72.0362 65.9087C72.0362 65.8535 72.0914 65.8535 72.0914 65.7983C72.1466 65.7431 72.3122 65.6879 72.3674 65.7431C72.4226 65.7431 72.4226 65.7983 72.4778 65.7983C72.533 65.8535 72.5882 65.9087 72.5882 66.0191C72.5882 66.0743 72.5882 66.0743 72.5882 66.1295C72.5882 66.1847 72.533 66.1847 72.533 66.2399C72.4778 66.2399 72.3674 66.2951 72.3122 66.2951Z" fill="#E0E0E0"/>
<path d="M72.0362 78.1631C72.0362 77.9975 72.1466 77.8871 72.3122 77.8871C72.4778 77.8871 72.5882 77.9975 72.5882 78.1631C72.5882 78.3287 72.4778 78.4391 72.3122 78.4391C72.1466 78.4391 72.0362 78.3287 72.0362 78.1631ZM72.0362 75.1271C72.0362 74.9615 72.1466 74.8511 72.3122 74.8511C72.4778 74.8511 72.5882 74.9615 72.5882 75.1271C72.5882 75.2927 72.4778 75.4031 72.3122 75.4031C72.1466 75.4031 72.0362 75.2927 72.0362 75.1271ZM72.0362 72.0911C72.0362 71.9255 72.1466 71.8151 72.3122 71.8151C72.4778 71.8151 72.5882 71.9255 72.5882 72.0911C72.5882 72.2567 72.4778 72.3671 72.3122 72.3671C72.1466 72.3671 72.0362 72.2567 72.0362 72.0911ZM72.0362 69.0551C72.0362 68.8895 72.1466 68.7791 72.3122 68.7791C72.4778 68.7791 72.5882 68.8895 72.5882 69.0551C72.5882 69.2207 72.4778 69.3311 72.3122 69.3311C72.1466 69.3311 72.0362 69.2207 72.0362 69.0551Z" fill="#E0E0E0"/>
<path d="M72.3122 81.5304C72.257 81.5304 72.257 81.5304 72.2018 81.5304C72.1466 81.5304 72.1466 81.4752 72.0914 81.4752C72.0914 81.4752 72.0362 81.42 72.0362 81.3648C72.0362 81.3096 72.0362 81.3096 72.0362 81.2544C72.0362 81.1992 72.0362 81.1992 72.0362 81.144C72.0362 81.0888 72.0914 81.0888 72.0914 81.0336C72.0914 80.9784 72.1466 80.9784 72.2018 80.9784C72.257 80.9232 72.3674 80.9232 72.4226 80.9784C72.4778 80.9784 72.4778 81.0336 72.533 81.0336C72.533 81.0336 72.5882 81.0888 72.5882 81.144C72.5882 81.1992 72.5882 81.1992 72.5882 81.2544C72.5882 81.3096 72.5882 81.42 72.4778 81.4752C72.4778 81.5304 72.4226 81.5304 72.3674 81.5304C72.3674 81.4752 72.3674 81.5304 72.3122 81.5304Z" fill="#E0E0E0"/>
<path d="M122.655 81.2543C122.655 81.0887 122.765 80.9783 122.931 80.9783C123.096 80.9783 123.207 81.0887 123.207 81.2543C123.207 81.4199 123.096 81.5303 122.931 81.5303C122.765 81.5303 122.655 81.3647 122.655 81.2543ZM119.288 81.2543C119.288 81.0887 119.398 80.9783 119.564 80.9783C119.729 80.9783 119.84 81.0887 119.84 81.2543C119.84 81.4199 119.729 81.5303 119.564 81.5303C119.398 81.5303 119.288 81.3647 119.288 81.2543ZM115.92 81.2543C115.92 81.0887 116.031 80.9783 116.196 80.9783C116.362 80.9783 116.472 81.0887 116.472 81.2543C116.472 81.4199 116.362 81.5303 116.196 81.5303C116.031 81.5303 115.92 81.3647 115.92 81.2543ZM112.498 81.2543C112.498 81.0887 112.608 80.9783 112.774 80.9783C112.939 80.9783 113.05 81.0887 113.05 81.2543C113.05 81.4199 112.939 81.5303 112.774 81.5303C112.664 81.5303 112.498 81.3647 112.498 81.2543ZM109.131 81.2543C109.131 81.0887 109.241 80.9783 109.407 80.9783C109.572 80.9783 109.683 81.0887 109.683 81.2543C109.683 81.4199 109.572 81.5303 109.407 81.5303C109.296 81.5303 109.131 81.3647 109.131 81.2543ZM105.764 81.2543C105.764 81.0887 105.874 80.9783 106.04 80.9783C106.205 80.9783 106.316 81.0887 106.316 81.2543C106.316 81.4199 106.205 81.5303 106.04 81.5303C105.874 81.5303 105.764 81.3647 105.764 81.2543ZM102.396 81.2543C102.396 81.0887 102.507 80.9783 102.672 80.9783C102.838 80.9783 102.948 81.0887 102.948 81.2543C102.948 81.4199 102.838 81.5303 102.672 81.5303C102.507 81.5303 102.396 81.3647 102.396 81.2543ZM99.0291 81.2543C99.0291 81.0887 99.1395 80.9783 99.3051 80.9783C99.4707 80.9783 99.5811 81.0887 99.5811 81.2543C99.5811 81.4199 99.4707 81.5303 99.3051 81.5303C99.1395 81.5303 99.0291 81.3647 99.0291 81.2543ZM95.6619 81.2543C95.6619 81.0887 95.7723 80.9783 95.9379 80.9783C96.1035 80.9783 96.2139 81.0887 96.2139 81.2543C96.2139 81.4199 96.1035 81.5303 95.9379 81.5303C95.7723 81.5303 95.6619 81.3647 95.6619 81.2543ZM92.2947 81.2543C92.2947 81.0887 92.4051 80.9783 92.5707 80.9783C92.7363 80.9783 92.8467 81.0887 92.8467 81.2543C92.8467 81.4199 92.7363 81.5303 92.5707 81.5303C92.4051 81.5303 92.2947 81.3647 92.2947 81.2543ZM88.8723 81.2543C88.8723 81.0887 88.9827 80.9783 89.1483 80.9783C89.3139 80.9783 89.4243 81.0887 89.4243 81.2543C89.4243 81.4199 89.3139 81.5303 89.1483 81.5303C89.0379 81.5303 88.8723 81.3647 88.8723 81.2543ZM85.5603 81.2543C85.5603 81.0887 85.6707 80.9783 85.8363 80.9783C86.0019 80.9783 86.1123 81.0887 86.1123 81.2543C86.1123 81.4199 86.0019 81.5303 85.8363 81.5303C85.6707 81.5303 85.5603 81.3647 85.5603 81.2543ZM82.1379 81.2543C82.1379 81.0887 82.2483 80.9783 82.4139 80.9783C82.5795 80.9783 82.6899 81.0887 82.6899 81.2543C82.6899 81.4199 82.5795 81.5303 82.4139 81.5303C82.3035 81.5303 82.1379 81.3647 82.1379 81.2543ZM78.7707 81.2543C78.7707 81.0887 78.8811 80.9783 79.0467 80.9783C79.2123 80.9783 79.3227 81.0887 79.3227 81.2543C79.3227 81.4199 79.2123 81.5303 79.0467 81.5303C78.9363 81.5303 78.7707 81.3647 78.7707 81.2543ZM75.4035 81.2543C75.4035 81.0887 75.5139 80.9783 75.6795 80.9783C75.8451 80.9783 75.9555 81.0887 75.9555 81.2543C75.9555 81.4199 75.8451 81.5303 75.6795 81.5303C75.5139 81.5303 75.4035 81.3647 75.4035 81.2543Z" fill="#E0E0E0"/>
<path d="M126.298 81.5304C126.243 81.5304 126.243 81.5304 126.188 81.5304C126.132 81.5304 126.132 81.4752 126.077 81.4752C126.077 81.4752 126.022 81.42 126.022 81.3648C126.022 81.3096 126.022 81.3096 126.022 81.2544C126.022 81.1992 126.022 81.1992 126.022 81.144C126.022 81.0888 126.077 81.0888 126.077 81.0336C126.077 80.9784 126.132 80.9784 126.188 80.9784C126.243 80.9232 126.353 80.9232 126.408 80.9784C126.464 80.9784 126.464 81.0336 126.519 81.0336C126.519 81.0336 126.574 81.0888 126.574 81.144C126.574 81.1992 126.574 81.1992 126.574 81.2544C126.574 81.3096 126.519 81.42 126.519 81.4752C126.519 81.5304 126.464 81.5304 126.408 81.5304C126.353 81.4752 126.298 81.5304 126.298 81.5304Z" fill="#E0E0E0"/>
<path d="M126.022 77.9423C126.022 77.7767 126.132 77.6663 126.298 77.6663C126.464 77.6663 126.574 77.7767 126.574 77.9423C126.574 78.1079 126.464 78.2183 126.298 78.2183C126.132 78.2183 126.022 78.1079 126.022 77.9423ZM126.022 74.6303C126.022 74.4647 126.132 74.3543 126.298 74.3543C126.464 74.3543 126.574 74.4647 126.574 74.6303C126.574 74.7959 126.464 74.9063 126.298 74.9063C126.132 74.9063 126.022 74.7959 126.022 74.6303ZM126.022 71.3735C126.022 71.2079 126.132 71.0975 126.298 71.0975C126.464 71.0975 126.574 71.2079 126.574 71.3735C126.574 71.5391 126.464 71.6495 126.298 71.6495C126.132 71.6495 126.022 71.5391 126.022 71.3735ZM126.022 68.0615C126.022 67.8959 126.132 67.7855 126.298 67.7855C126.464 67.7855 126.574 67.8959 126.574 68.0615C126.574 68.2271 126.464 68.3375 126.298 68.3375C126.132 68.3375 126.022 68.2271 126.022 68.0615ZM126.022 64.8047C126.022 64.6391 126.132 64.5287 126.298 64.5287C126.464 64.5287 126.574 64.6391 126.574 64.8047C126.574 64.9703 126.464 65.0807 126.298 65.0807C126.132 65.0807 126.022 64.9703 126.022 64.8047ZM126.022 61.4927C126.022 61.3271 126.132 61.2167 126.298 61.2167C126.464 61.2167 126.574 61.3271 126.574 61.4927C126.574 61.6583 126.464 61.7687 126.298 61.7687C126.132 61.7687 126.022 61.6583 126.022 61.4927ZM126.022 58.2359C126.022 58.0703 126.132 57.9599 126.298 57.9599C126.464 57.9599 126.574 58.0703 126.574 58.2359C126.574 58.4015 126.464 58.5119 126.298 58.5119C126.132 58.5119 126.022 58.3463 126.022 58.2359ZM126.022 54.9239C126.022 54.7583 126.132 54.6479 126.298 54.6479C126.464 54.6479 126.574 54.7583 126.574 54.9239C126.574 55.0895 126.464 55.1999 126.298 55.1999C126.132 55.1999 126.022 55.0895 126.022 54.9239ZM126.022 51.6671C126.022 51.5015 126.132 51.3911 126.298 51.3911C126.464 51.3911 126.574 51.5015 126.574 51.6671C126.574 51.8327 126.464 51.9431 126.298 51.9431C126.132 51.9431 126.022 51.7775 126.022 51.6671Z" fill="#E0E0E0"/>
<path d="M126.298 48.6311C126.243 48.6311 126.243 48.6311 126.188 48.6311C126.132 48.6311 126.132 48.5759 126.077 48.5759C126.077 48.5759 126.022 48.5207 126.022 48.4655C126.022 48.4103 126.022 48.4103 126.022 48.3551C126.022 48.2999 126.022 48.2999 126.022 48.2447C126.022 48.1895 126.077 48.1895 126.077 48.1343C126.077 48.1343 126.132 48.0791 126.188 48.0791C126.243 48.0791 126.353 48.0791 126.408 48.0791C126.464 48.0791 126.464 48.1343 126.519 48.1343C126.574 48.1895 126.574 48.2447 126.574 48.3551C126.574 48.4103 126.519 48.5207 126.519 48.5759C126.408 48.5759 126.353 48.6311 126.298 48.6311Z" fill="#E0E0E0"/>
<path d="M202.032 48.3551C202.032 48.1895 202.143 48.0791 202.308 48.0791C202.474 48.0791 202.584 48.1895 202.584 48.3551C202.584 48.5207 202.474 48.6311 202.308 48.6311C202.143 48.6311 202.032 48.5207 202.032 48.3551ZM198.72 48.3551C198.72 48.1895 198.831 48.0791 198.996 48.0791C199.162 48.0791 199.272 48.1895 199.272 48.3551C199.272 48.5207 199.162 48.6311 198.996 48.6311C198.831 48.6311 198.72 48.5207 198.72 48.3551ZM195.408 48.3551C195.408 48.1895 195.519 48.0791 195.684 48.0791C195.85 48.0791 195.96 48.1895 195.96 48.3551C195.96 48.5207 195.85 48.6311 195.684 48.6311C195.519 48.6311 195.408 48.5207 195.408 48.3551ZM192.096 48.3551C192.096 48.1895 192.207 48.0791 192.372 48.0791C192.538 48.0791 192.648 48.1895 192.648 48.3551C192.648 48.5207 192.538 48.6311 192.372 48.6311C192.262 48.6311 192.096 48.5207 192.096 48.3551ZM188.784 48.3551C188.784 48.1895 188.895 48.0791 189.06 48.0791C189.226 48.0791 189.336 48.1895 189.336 48.3551C189.336 48.5207 189.226 48.6311 189.06 48.6311C188.95 48.6311 188.784 48.5207 188.784 48.3551ZM185.472 48.3551C185.472 48.1895 185.583 48.0791 185.748 48.0791C185.914 48.0791 186.024 48.1895 186.024 48.3551C186.024 48.5207 185.914 48.6311 185.748 48.6311C185.638 48.6311 185.472 48.5207 185.472 48.3551ZM182.216 48.3551C182.216 48.1895 182.326 48.0791 182.492 48.0791C182.657 48.0791 182.768 48.1895 182.768 48.3551C182.768 48.5207 182.657 48.6311 182.492 48.6311C182.326 48.6311 182.216 48.5207 182.216 48.3551ZM178.904 48.3551C178.904 48.1895 179.014 48.0791 179.18 48.0791C179.345 48.0791 179.456 48.1895 179.456 48.3551C179.456 48.5207 179.345 48.6311 179.18 48.6311C179.014 48.6311 178.904 48.5207 178.904 48.3551ZM175.592 48.3551C175.592 48.1895 175.702 48.0791 175.868 48.0791C176.033 48.0791 176.144 48.1895 176.144 48.3551C176.144 48.5207 176.033 48.6311 175.868 48.6311C175.702 48.6311 175.592 48.5207 175.592 48.3551ZM172.28 48.3551C172.28 48.1895 172.39 48.0791 172.556 48.0791C172.721 48.0791 172.832 48.1895 172.832 48.3551C172.832 48.5207 172.721 48.6311 172.556 48.6311C172.39 48.6311 172.28 48.5207 172.28 48.3551ZM168.968 48.3551C168.968 48.1895 169.078 48.0791 169.244 48.0791C169.409 48.0791 169.52 48.1895 169.52 48.3551C169.52 48.5207 169.409 48.6311 169.244 48.6311C169.078 48.6311 168.968 48.5207 168.968 48.3551ZM165.656 48.3551C165.656 48.1895 165.766 48.0791 165.932 48.0791C166.097 48.0791 166.208 48.1895 166.208 48.3551C166.208 48.5207 166.097 48.6311 165.932 48.6311C165.766 48.6311 165.656 48.5207 165.656 48.3551ZM162.344 48.3551C162.344 48.1895 162.454 48.0791 162.62 48.0791C162.785 48.0791 162.896 48.1895 162.896 48.3551C162.896 48.5207 162.785 48.6311 162.62 48.6311C162.509 48.6311 162.344 48.5207 162.344 48.3551ZM159.032 48.3551C159.032 48.1895 159.142 48.0791 159.308 48.0791C159.473 48.0791 159.584 48.1895 159.584 48.3551C159.584 48.5207 159.473 48.6311 159.308 48.6311C159.197 48.6311 159.032 48.5207 159.032 48.3551ZM155.775 48.3551C155.775 48.1895 155.885 48.0791 156.051 48.0791C156.216 48.0791 156.327 48.1895 156.327 48.3551C156.327 48.5207 156.216 48.6311 156.051 48.6311C155.885 48.6311 155.775 48.5207 155.775 48.3551ZM152.463 48.3551C152.463 48.1895 152.573 48.0791 152.739 48.0791C152.904 48.0791 153.015 48.1895 153.015 48.3551C153.015 48.5207 152.904 48.6311 152.739 48.6311C152.573 48.6311 152.463 48.5207 152.463 48.3551ZM149.151 48.3551C149.151 48.1895 149.261 48.0791 149.427 48.0791C149.592 48.0791 149.703 48.1895 149.703 48.3551C149.703 48.5207 149.592 48.6311 149.427 48.6311C149.261 48.6311 149.151 48.5207 149.151 48.3551ZM145.839 48.3551C145.839 48.1895 145.949 48.0791 146.115 48.0791C146.28 48.0791 146.391 48.1895 146.391 48.3551C146.391 48.5207 146.28 48.6311 146.115 48.6311C145.949 48.6311 145.839 48.5207 145.839 48.3551ZM142.527 48.3551C142.527 48.1895 142.637 48.0791 142.803 48.0791C142.968 48.0791 143.079 48.1895 143.079 48.3551C143.079 48.5207 142.968 48.6311 142.803 48.6311C142.637 48.6311 142.527 48.5207 142.527 48.3551ZM139.215 48.3551C139.215 48.1895 139.325 48.0791 139.491 48.0791C139.656 48.0791 139.767 48.1895 139.767 48.3551C139.767 48.5207 139.656 48.6311 139.491 48.6311C139.38 48.6311 139.215 48.5207 139.215 48.3551ZM135.903 48.3551C135.903 48.1895 136.013 48.0791 136.179 48.0791C136.344 48.0791 136.455 48.1895 136.455 48.3551C136.455 48.5207 136.344 48.6311 136.179 48.6311C136.068 48.6311 135.903 48.5207 135.903 48.3551ZM132.646 48.3551C132.646 48.1895 132.756 48.0791 132.922 48.0791C133.088 48.0791 133.198 48.1895 133.198 48.3551C133.198 48.5207 133.088 48.6311 132.922 48.6311C132.756 48.6311 132.646 48.5207 132.646 48.3551ZM129.334 48.3551C129.334 48.1895 129.444 48.0791 129.61 48.0791C129.776 48.0791 129.886 48.1895 129.886 48.3551C129.886 48.5207 129.776 48.6311 129.61 48.6311C129.444 48.6311 129.334 48.5207 129.334 48.3551Z" fill="#E0E0E0"/>
<path d="M205.62 48.631C205.565 48.631 205.455 48.5758 205.399 48.5758C205.344 48.5206 205.344 48.4654 205.344 48.355C205.344 48.2998 205.344 48.1894 205.399 48.1342C205.399 48.1342 205.455 48.079 205.51 48.079C205.62 48.0238 205.731 48.079 205.841 48.1342C205.841 48.1894 205.896 48.1894 205.896 48.2446C205.896 48.2998 205.896 48.2998 205.896 48.355C205.896 48.4102 205.896 48.5206 205.841 48.5758C205.731 48.5758 205.675 48.631 205.62 48.631Z" fill="#E0E0E0"/>
<path d="M205.344 45.1533C205.344 44.9877 205.455 44.8773 205.62 44.8773C205.786 44.8773 205.896 44.9877 205.896 45.1533C205.896 45.3189 205.786 45.4293 205.62 45.4293C205.455 45.4293 205.344 45.3189 205.344 45.1533ZM205.344 42.0069C205.344 41.8413 205.455 41.7309 205.62 41.7309C205.786 41.7309 205.896 41.8413 205.896 42.0069C205.896 42.1725 205.786 42.2829 205.62 42.2829C205.455 42.2829 205.344 42.1173 205.344 42.0069ZM205.344 38.8053C205.344 38.6397 205.455 38.5293 205.62 38.5293C205.786 38.5293 205.896 38.6397 205.896 38.8053C205.896 38.9709 205.786 39.0813 205.62 39.0813C205.455 39.0813 205.344 38.9709 205.344 38.8053ZM205.344 35.6037C205.344 35.4381 205.455 35.3277 205.62 35.3277C205.786 35.3277 205.896 35.4381 205.896 35.6037C205.896 35.7693 205.786 35.8797 205.62 35.8797C205.455 35.8797 205.344 35.7693 205.344 35.6037ZM205.344 32.4021C205.344 32.2365 205.455 32.1261 205.62 32.1261C205.786 32.1261 205.896 32.2365 205.896 32.4021C205.896 32.5677 205.786 32.6781 205.62 32.6781C205.455 32.6781 205.344 32.5677 205.344 32.4021ZM205.344 29.2557C205.344 29.0901 205.455 28.9797 205.62 28.9797C205.786 28.9797 205.896 29.0901 205.896 29.2557C205.896 29.4213 205.786 29.5317 205.62 29.5317C205.455 29.5317 205.344 29.4213 205.344 29.2557Z" fill="#E0E0E0"/>
<path d="M205.62 26.3303C205.565 26.3303 205.455 26.3303 205.399 26.2751C205.344 26.2199 205.344 26.1647 205.344 26.0543C205.344 25.9991 205.344 25.9991 205.344 25.9439C205.344 25.8887 205.399 25.8887 205.399 25.8335C205.51 25.7231 205.675 25.7231 205.786 25.8335C205.841 25.8887 205.841 25.9439 205.841 26.0543C205.841 26.1095 205.841 26.1095 205.841 26.1647C205.841 26.2199 205.786 26.2199 205.786 26.2751C205.731 26.2751 205.731 26.3303 205.675 26.3303H205.62Z" fill="#E0E0E0"/>
<path d="M91.5218 130.217C91.4666 130.217 91.3562 130.217 91.301 130.162C91.301 130.107 91.2458 130.107 91.2458 130.051C91.2458 129.996 91.2458 129.996 91.2458 129.941C91.2458 129.886 91.301 129.775 91.301 129.775C91.3562 129.72 91.5218 129.665 91.577 129.72C91.6322 129.72 91.6322 129.775 91.6874 129.775C91.7426 129.831 91.7426 129.886 91.7426 129.941C91.7426 129.996 91.7426 129.996 91.7426 130.051C91.7426 130.107 91.6874 130.107 91.6874 130.162C91.6874 130.162 91.6322 130.217 91.577 130.217C91.577 130.217 91.577 130.217 91.5218 130.217Z" fill="#E0E0E0"/>
<path d="M91.2458 143.465C91.2458 143.299 91.3562 143.189 91.5218 143.189C91.6874 143.189 91.7978 143.299 91.7978 143.465C91.7978 143.63 91.6874 143.741 91.5218 143.741C91.3562 143.741 91.2458 143.63 91.2458 143.465ZM91.2458 140.098C91.2458 139.932 91.3562 139.822 91.5218 139.822C91.6874 139.822 91.7978 139.932 91.7978 140.098C91.7978 140.263 91.6874 140.374 91.5218 140.374C91.3562 140.374 91.2458 140.263 91.2458 140.098ZM91.2458 136.675C91.2458 136.51 91.3562 136.399 91.5218 136.399C91.6874 136.399 91.7978 136.51 91.7978 136.675C91.7978 136.841 91.6874 136.951 91.5218 136.951C91.3562 136.951 91.2458 136.841 91.2458 136.675ZM91.2458 133.308C91.2458 133.142 91.3562 133.032 91.5218 133.032C91.6874 133.032 91.7978 133.142 91.7978 133.308C91.7978 133.474 91.6874 133.584 91.5218 133.584C91.3562 133.584 91.2458 133.474 91.2458 133.308Z" fill="#E0E0E0"/>
<path d="M91.5218 147.108C91.4666 147.108 91.3562 147.108 91.301 146.998C91.301 146.998 91.2458 146.942 91.2458 146.887C91.2458 146.832 91.2458 146.832 91.2458 146.777C91.2458 146.722 91.2458 146.722 91.2458 146.667C91.2458 146.611 91.301 146.611 91.301 146.556C91.3562 146.501 91.5218 146.446 91.577 146.501C91.6322 146.501 91.6322 146.556 91.6874 146.556C91.6874 146.556 91.7426 146.611 91.7426 146.667C91.7426 146.722 91.7426 146.722 91.7426 146.777C91.7426 146.832 91.7426 146.832 91.7426 146.887C91.7426 146.942 91.6874 146.942 91.6874 146.998C91.6874 146.998 91.6322 147.053 91.577 147.053C91.577 147.108 91.577 147.108 91.5218 147.108Z" fill="#E0E0E0"/>
<path d="M122.82 146.832C122.82 146.666 122.931 146.556 123.096 146.556C123.262 146.556 123.372 146.666 123.372 146.832C123.372 146.998 123.262 147.108 123.096 147.108C122.986 147.108 122.82 146.998 122.82 146.832ZM119.674 146.832C119.674 146.666 119.784 146.556 119.95 146.556C120.116 146.556 120.226 146.666 120.226 146.832C120.226 146.998 120.116 147.108 119.95 147.108C119.784 147.108 119.674 146.998 119.674 146.832ZM116.528 146.832C116.528 146.666 116.638 146.556 116.804 146.556C116.969 146.556 117.08 146.666 117.08 146.832C117.08 146.998 116.969 147.108 116.804 147.108C116.638 147.108 116.528 146.998 116.528 146.832ZM113.381 146.832C113.381 146.666 113.492 146.556 113.657 146.556C113.823 146.556 113.933 146.666 113.933 146.832C113.933 146.998 113.823 147.108 113.657 147.108C113.492 147.108 113.381 146.998 113.381 146.832ZM110.18 146.832C110.18 146.666 110.29 146.556 110.456 146.556C110.621 146.556 110.732 146.666 110.732 146.832C110.732 146.998 110.621 147.108 110.456 147.108C110.345 147.108 110.18 146.998 110.18 146.832ZM107.033 146.832C107.033 146.666 107.144 146.556 107.309 146.556C107.475 146.556 107.585 146.666 107.585 146.832C107.585 146.998 107.475 147.108 107.309 147.108C107.144 147.108 107.033 146.998 107.033 146.832ZM103.887 146.832C103.887 146.666 103.997 146.556 104.163 146.556C104.328 146.556 104.439 146.666 104.439 146.832C104.439 146.998 104.328 147.108 104.163 147.108C103.997 147.108 103.887 146.998 103.887 146.832ZM100.74 146.832C100.74 146.666 100.851 146.556 101.016 146.556C101.182 146.556 101.292 146.666 101.292 146.832C101.292 146.998 101.182 147.108 101.016 147.108C100.851 147.108 100.74 146.998 100.74 146.832ZM97.594 146.832C97.594 146.666 97.7044 146.556 97.87 146.556C98.0356 146.556 98.146 146.666 98.146 146.832C98.146 146.998 98.0356 147.108 97.87 147.108C97.7044 147.108 97.594 146.998 97.594 146.832ZM94.3924 146.832C94.3924 146.666 94.5028 146.556 94.6684 146.556C94.834 146.556 94.9444 146.666 94.9444 146.832C94.9444 146.998 94.834 147.108 94.6684 147.108C94.558 147.108 94.3924 146.998 94.3924 146.832Z" fill="#E0E0E0"/>
<path d="M126.298 147.108C126.243 147.108 126.243 147.108 126.188 147.108C126.132 147.108 126.132 147.053 126.077 147.053C126.077 147.053 126.022 146.998 126.022 146.942C126.022 146.887 126.022 146.887 126.022 146.832C126.022 146.777 126.077 146.666 126.077 146.611C126.077 146.611 126.132 146.556 126.188 146.556C126.243 146.556 126.353 146.556 126.408 146.556C126.464 146.556 126.464 146.611 126.519 146.611C126.574 146.666 126.574 146.722 126.574 146.832C126.574 146.887 126.574 146.887 126.574 146.942C126.574 146.998 126.519 146.998 126.519 147.053C126.519 147.053 126.464 147.108 126.408 147.108C126.353 147.108 126.298 147.108 126.298 147.108Z" fill="#E0E0E0"/>
<path d="M126.022 143.631C126.022 143.465 126.132 143.355 126.298 143.355C126.464 143.355 126.574 143.465 126.574 143.631C126.574 143.796 126.464 143.907 126.298 143.907C126.132 143.907 126.022 143.796 126.022 143.631ZM126.022 140.429C126.022 140.263 126.132 140.153 126.298 140.153C126.464 140.153 126.574 140.263 126.574 140.429C126.574 140.595 126.464 140.705 126.298 140.705C126.132 140.705 126.022 140.595 126.022 140.429ZM126.022 137.227C126.022 137.062 126.132 136.951 126.298 136.951C126.464 136.951 126.574 137.062 126.574 137.227C126.574 137.393 126.464 137.503 126.298 137.503C126.132 137.503 126.022 137.393 126.022 137.227ZM126.022 134.026C126.022 133.86 126.132 133.75 126.298 133.75C126.464 133.75 126.574 133.86 126.574 134.026C126.574 134.191 126.464 134.302 126.298 134.302C126.132 134.302 126.022 134.136 126.022 134.026ZM126.022 130.769C126.022 130.603 126.132 130.493 126.298 130.493C126.464 130.493 126.574 130.603 126.574 130.769C126.574 130.935 126.464 131.045 126.298 131.045C126.132 131.045 126.022 130.935 126.022 130.769ZM126.022 127.567C126.022 127.402 126.132 127.291 126.298 127.291C126.464 127.291 126.574 127.402 126.574 127.567C126.574 127.733 126.464 127.843 126.298 127.843C126.132 127.843 126.022 127.733 126.022 127.567ZM126.022 124.366C126.022 124.2 126.132 124.09 126.298 124.09C126.464 124.09 126.574 124.2 126.574 124.366C126.574 124.531 126.464 124.642 126.298 124.642C126.132 124.642 126.022 124.531 126.022 124.366ZM126.022 121.164C126.022 120.999 126.132 120.888 126.298 120.888C126.464 120.888 126.574 120.999 126.574 121.164C126.574 121.33 126.464 121.44 126.298 121.44C126.132 121.44 126.022 121.275 126.022 121.164ZM126.022 117.907C126.022 117.742 126.132 117.631 126.298 117.631C126.464 117.631 126.574 117.742 126.574 117.907C126.574 118.073 126.464 118.183 126.298 118.183C126.132 118.183 126.022 118.073 126.022 117.907ZM126.022 114.706C126.022 114.54 126.132 114.43 126.298 114.43C126.464 114.43 126.574 114.54 126.574 114.706C126.574 114.871 126.464 114.982 126.298 114.982C126.132 114.982 126.022 114.871 126.022 114.706ZM126.022 111.504C126.022 111.339 126.132 111.228 126.298 111.228C126.464 111.228 126.574 111.339 126.574 111.504C126.574 111.67 126.464 111.78 126.298 111.78C126.132 111.78 126.022 111.67 126.022 111.504ZM126.022 108.303C126.022 108.137 126.132 108.027 126.298 108.027C126.464 108.027 126.574 108.137 126.574 108.303C126.574 108.468 126.464 108.579 126.298 108.579C126.132 108.579 126.022 108.468 126.022 108.303ZM126.022 105.101C126.022 104.935 126.132 104.825 126.298 104.825C126.464 104.825 126.574 104.935 126.574 105.101C126.574 105.267 126.464 105.377 126.298 105.377C126.132 105.377 126.022 105.211 126.022 105.101ZM126.022 101.844C126.022 101.679 126.132 101.568 126.298 101.568C126.464 101.568 126.574 101.679 126.574 101.844C126.574 102.01 126.464 102.12 126.298 102.12C126.132 102.12 126.022 102.01 126.022 101.844Z" fill="#E0E0E0"/>
<path d="M126.298 98.9184C126.243 98.9184 126.243 98.9184 126.188 98.9184C126.132 98.9184 126.132 98.8632 126.077 98.8632C126.077 98.808 126.022 98.8079 126.022 98.7527C126.022 98.6975 126.022 98.6976 126.022 98.6424C126.022 98.5872 126.077 98.4768 126.077 98.4216C126.077 98.4216 126.132 98.3664 126.188 98.3664C126.243 98.3112 126.353 98.3112 126.408 98.3664C126.464 98.3664 126.464 98.4216 126.519 98.4216C126.574 98.4768 126.574 98.532 126.574 98.6424C126.574 98.6976 126.574 98.6975 126.574 98.7527C126.574 98.8079 126.519 98.808 126.519 98.8632C126.519 98.8632 126.464 98.9184 126.408 98.9184C126.353 98.9184 126.298 98.9184 126.298 98.9184Z" fill="#E0E0E0"/>
<path d="M169.409 98.6425C169.409 98.4769 169.52 98.3665 169.685 98.3665C169.851 98.3665 169.961 98.4769 169.961 98.6425C169.961 98.8081 169.851 98.9185 169.685 98.9185C169.52 98.9185 169.409 98.8081 169.409 98.6425ZM166.097 98.6425C166.097 98.4769 166.208 98.3665 166.373 98.3665C166.539 98.3665 166.649 98.4769 166.649 98.6425C166.649 98.8081 166.539 98.9185 166.373 98.9185C166.208 98.9185 166.097 98.8081 166.097 98.6425ZM162.73 98.6425C162.73 98.4769 162.84 98.3665 163.006 98.3665C163.172 98.3665 163.282 98.4769 163.282 98.6425C163.282 98.8081 163.172 98.9185 163.006 98.9185C162.84 98.9185 162.73 98.8081 162.73 98.6425ZM159.418 98.6425C159.418 98.4769 159.528 98.3665 159.694 98.3665C159.86 98.3665 159.97 98.4769 159.97 98.6425C159.97 98.8081 159.86 98.9185 159.694 98.9185C159.528 98.9185 159.418 98.8081 159.418 98.6425ZM156.051 98.6425C156.051 98.4769 156.161 98.3665 156.327 98.3665C156.492 98.3665 156.603 98.4769 156.603 98.6425C156.603 98.8081 156.492 98.9185 156.327 98.9185C156.161 98.9185 156.051 98.8081 156.051 98.6425ZM152.739 98.6425C152.739 98.4769 152.849 98.3665 153.015 98.3665C153.18 98.3665 153.291 98.4769 153.291 98.6425C153.291 98.8081 153.18 98.9185 153.015 98.9185C152.849 98.9185 152.739 98.8081 152.739 98.6425ZM149.372 98.6425C149.372 98.4769 149.482 98.3665 149.648 98.3665C149.813 98.3665 149.924 98.4769 149.924 98.6425C149.924 98.8081 149.813 98.9185 149.648 98.9185C149.482 98.9185 149.372 98.8081 149.372 98.6425ZM146.06 98.6425C146.06 98.4769 146.17 98.3665 146.336 98.3665C146.501 98.3665 146.612 98.4769 146.612 98.6425C146.612 98.8081 146.501 98.9185 146.336 98.9185C146.17 98.9185 146.06 98.8081 146.06 98.6425ZM142.692 98.6425C142.692 98.4769 142.803 98.3665 142.968 98.3665C143.134 98.3665 143.244 98.4769 143.244 98.6425C143.244 98.8081 143.134 98.9185 142.968 98.9185C142.803 98.9185 142.692 98.8081 142.692 98.6425ZM139.38 98.6425C139.38 98.4769 139.491 98.3665 139.656 98.3665C139.822 98.3665 139.932 98.4769 139.932 98.6425C139.932 98.8081 139.822 98.9185 139.656 98.9185C139.491 98.9185 139.38 98.8081 139.38 98.6425ZM136.013 98.6425C136.013 98.4769 136.124 98.3665 136.289 98.3665C136.455 98.3665 136.565 98.4769 136.565 98.6425C136.565 98.8081 136.455 98.9185 136.289 98.9185C136.124 98.9185 136.013 98.8081 136.013 98.6425ZM132.701 98.6425C132.701 98.4769 132.812 98.3665 132.977 98.3665C133.143 98.3665 133.253 98.4769 133.253 98.6425C133.253 98.8081 133.143 98.9185 132.977 98.9185C132.812 98.9185 132.701 98.8081 132.701 98.6425ZM129.334 98.6425C129.334 98.4769 129.444 98.3665 129.61 98.3665C129.776 98.3665 129.886 98.4769 129.886 98.6425C129.886 98.8081 129.776 98.9185 129.61 98.9185C129.444 98.9185 129.334 98.8081 129.334 98.6425Z" fill="#E0E0E0"/>
<path d="M173.052 98.9184C172.997 98.9184 172.887 98.8632 172.832 98.8632C172.832 98.808 172.776 98.8079 172.776 98.7527C172.776 98.6975 172.776 98.6976 172.776 98.6424C172.776 98.5872 172.776 98.5872 172.776 98.532C172.776 98.4768 172.832 98.4768 172.832 98.4216C172.832 98.4216 172.887 98.3664 172.942 98.3664C172.997 98.3112 173.108 98.3112 173.163 98.3664C173.218 98.3664 173.218 98.4216 173.273 98.4216C173.273 98.4768 173.328 98.4768 173.328 98.532C173.328 98.5872 173.328 98.5872 173.328 98.6424C173.328 98.6976 173.328 98.808 173.273 98.8632C173.163 98.9184 173.108 98.9184 173.052 98.9184Z" fill="#E0E0E0"/>
<path d="M172.776 95.1649C172.776 94.9993 172.887 94.8889 173.052 94.8889C173.218 94.8889 173.328 94.9993 173.328 95.1649C173.328 95.3305 173.218 95.4409 173.052 95.4409C172.887 95.4409 172.776 95.3305 172.776 95.1649ZM172.776 91.6873C172.776 91.5217 172.887 91.4113 173.052 91.4113C173.218 91.4113 173.328 91.5217 173.328 91.6873C173.328 91.8529 173.218 91.9633 173.052 91.9633C172.887 91.9633 172.776 91.8529 172.776 91.6873ZM172.776 88.2097C172.776 88.0441 172.887 87.9337 173.052 87.9337C173.218 87.9337 173.328 88.0441 173.328 88.2097C173.328 88.3753 173.218 88.4857 173.052 88.4857C172.887 88.4857 172.776 88.3753 172.776 88.2097ZM172.776 84.7321C172.776 84.5665 172.887 84.4561 173.052 84.4561C173.218 84.4561 173.328 84.5665 173.328 84.7321C173.328 84.8977 173.218 85.0081 173.052 85.0081C172.887 85.0081 172.776 84.8425 172.776 84.7321Z" fill="#E0E0E0"/>
<path d="M173.052 81.5304C172.997 81.5304 172.887 81.4752 172.832 81.4752C172.832 81.42 172.776 81.42 172.776 81.3648C172.776 81.3096 172.776 81.3096 172.776 81.2544C172.776 81.1992 172.776 81.1992 172.776 81.144C172.776 81.0888 172.832 81.0888 172.832 81.0336C172.832 80.9784 172.887 80.9784 172.942 80.9784C172.997 80.9232 173.108 80.9232 173.163 80.9784C173.218 80.9784 173.218 81.0336 173.273 81.0336C173.273 81.0336 173.328 81.0888 173.328 81.144C173.328 81.1992 173.328 81.1992 173.328 81.2544C173.328 81.3096 173.328 81.42 173.273 81.4752C173.163 81.4752 173.108 81.5304 173.052 81.5304Z" fill="#E0E0E0"/>
<path d="M205.62 142.526C205.565 142.526 205.455 142.471 205.399 142.471C205.344 142.416 205.344 142.361 205.344 142.25C205.344 142.195 205.344 142.085 205.399 142.029C205.455 141.974 205.62 141.919 205.675 141.974C205.731 141.974 205.731 142.029 205.786 142.029C205.786 142.085 205.841 142.085 205.841 142.14C205.841 142.195 205.841 142.195 205.841 142.25C205.841 142.305 205.841 142.416 205.786 142.471C205.731 142.526 205.675 142.526 205.62 142.526Z" fill="#E0E0E0"/>
<path d="M205.344 161.35C205.344 161.184 205.455 161.074 205.62 161.074C205.786 161.074 205.896 161.184 205.896 161.35C205.896 161.515 205.786 161.626 205.62 161.626C205.455 161.626 205.344 161.515 205.344 161.35ZM205.344 158.148C205.344 157.982 205.455 157.872 205.62 157.872C205.786 157.872 205.896 157.982 205.896 158.148C205.896 158.314 205.786 158.424 205.62 158.424C205.455 158.424 205.344 158.314 205.344 158.148ZM205.344 155.002C205.344 154.836 205.455 154.726 205.62 154.726C205.786 154.726 205.896 154.836 205.896 155.002C205.896 155.167 205.786 155.278 205.62 155.278C205.455 155.278 205.344 155.112 205.344 155.002ZM205.344 151.8C205.344 151.634 205.455 151.524 205.62 151.524C205.786 151.524 205.896 151.634 205.896 151.8C205.896 151.966 205.786 152.076 205.62 152.076C205.455 152.076 205.344 151.966 205.344 151.8ZM205.344 148.598C205.344 148.433 205.455 148.322 205.62 148.322C205.786 148.322 205.896 148.433 205.896 148.598C205.896 148.764 205.786 148.874 205.62 148.874C205.455 148.874 205.344 148.764 205.344 148.598ZM205.344 145.452C205.344 145.286 205.455 145.176 205.62 145.176C205.786 145.176 205.896 145.286 205.896 145.452C205.896 145.618 205.786 145.728 205.62 145.728C205.455 145.728 205.344 145.562 205.344 145.452Z" fill="#E0E0E0"/>
<path d="M205.62 164.772C205.565 164.772 205.455 164.772 205.399 164.661C205.344 164.606 205.344 164.551 205.344 164.496C205.344 164.441 205.344 164.441 205.344 164.385C205.344 164.33 205.399 164.33 205.399 164.275C205.51 164.165 205.675 164.165 205.786 164.275C205.841 164.33 205.841 164.385 205.841 164.496C205.841 164.551 205.841 164.551 205.841 164.606C205.841 164.661 205.786 164.661 205.786 164.717C205.731 164.717 205.731 164.772 205.675 164.772H205.62Z" fill="#E0E0E0"/>
<path d="M202.032 164.496C202.032 164.33 202.142 164.22 202.308 164.22C202.474 164.22 202.584 164.33 202.584 164.496C202.584 164.661 202.474 164.772 202.308 164.772C202.142 164.772 202.032 164.661 202.032 164.496ZM198.72 164.496C198.72 164.33 198.83 164.22 198.996 164.22C199.162 164.22 199.272 164.33 199.272 164.496C199.272 164.661 199.162 164.772 198.996 164.772C198.83 164.772 198.72 164.661 198.72 164.496ZM195.408 164.496C195.408 164.33 195.518 164.22 195.684 164.22C195.85 164.22 195.96 164.33 195.96 164.496C195.96 164.661 195.85 164.772 195.684 164.772C195.518 164.772 195.408 164.661 195.408 164.496ZM192.096 164.496C192.096 164.33 192.206 164.22 192.372 164.22C192.538 164.22 192.648 164.33 192.648 164.496C192.648 164.661 192.538 164.772 192.372 164.772C192.262 164.772 192.096 164.661 192.096 164.496ZM188.784 164.496C188.784 164.33 188.894 164.22 189.06 164.22C189.226 164.22 189.336 164.33 189.336 164.496C189.336 164.661 189.226 164.772 189.06 164.772C188.95 164.772 188.784 164.661 188.784 164.496ZM185.472 164.496C185.472 164.33 185.582 164.22 185.748 164.22C185.914 164.22 186.024 164.33 186.024 164.496C186.024 164.661 185.914 164.772 185.748 164.772C185.638 164.772 185.472 164.661 185.472 164.496ZM182.215 164.496C182.215 164.33 182.326 164.22 182.491 164.22C182.657 164.22 182.767 164.33 182.767 164.496C182.767 164.661 182.657 164.772 182.491 164.772C182.326 164.772 182.215 164.661 182.215 164.496ZM178.903 164.496C178.903 164.33 179.014 164.22 179.179 164.22C179.345 164.22 179.455 164.33 179.455 164.496C179.455 164.661 179.345 164.772 179.179 164.772C179.014 164.772 178.903 164.661 178.903 164.496ZM175.591 164.496C175.591 164.33 175.702 164.22 175.867 164.22C176.033 164.22 176.143 164.33 176.143 164.496C176.143 164.661 176.033 164.772 175.867 164.772C175.702 164.772 175.591 164.661 175.591 164.496ZM172.279 164.496C172.279 164.33 172.39 164.22 172.555 164.22C172.721 164.22 172.831 164.33 172.831 164.496C172.831 164.661 172.721 164.772 172.555 164.772C172.39 164.772 172.279 164.661 172.279 164.496ZM168.967 164.496C168.967 164.33 169.078 164.22 169.243 164.22C169.409 164.22 169.519 164.33 169.519 164.496C169.519 164.661 169.409 164.772 169.243 164.772C169.078 164.772 168.967 164.661 168.967 164.496ZM165.655 164.496C165.655 164.33 165.766 164.22 165.931 164.22C166.097 164.22 166.207 164.33 166.207 164.496C166.207 164.661 166.097 164.772 165.931 164.772C165.766 164.772 165.655 164.661 165.655 164.496ZM162.343 164.496C162.343 164.33 162.454 164.22 162.619 164.22C162.785 164.22 162.895 164.33 162.895 164.496C162.895 164.661 162.785 164.772 162.619 164.772C162.509 164.772 162.343 164.661 162.343 164.496ZM159.031 164.496C159.031 164.33 159.142 164.22 159.307 164.22C159.473 164.22 159.583 164.33 159.583 164.496C159.583 164.661 159.473 164.772 159.307 164.772C159.197 164.772 159.031 164.661 159.031 164.496ZM155.774 164.496C155.774 164.33 155.885 164.22 156.05 164.22C156.216 164.22 156.326 164.33 156.326 164.496C156.326 164.661 156.216 164.772 156.05 164.772C155.885 164.772 155.774 164.661 155.774 164.496ZM152.462 164.496C152.462 164.33 152.573 164.22 152.738 164.22C152.904 164.22 153.014 164.33 153.014 164.496C153.014 164.661 152.904 164.772 152.738 164.772C152.573 164.772 152.462 164.661 152.462 164.496ZM149.15 164.496C149.15 164.33 149.261 164.22 149.426 164.22C149.592 164.22 149.702 164.33 149.702 164.496C149.702 164.661 149.592 164.772 149.426 164.772C149.261 164.772 149.15 164.661 149.15 164.496ZM145.838 164.496C145.838 164.33 145.949 164.22 146.114 164.22C146.28 164.22 146.39 164.33 146.39 164.496C146.39 164.661 146.28 164.772 146.114 164.772C145.949 164.772 145.838 164.661 145.838 164.496ZM142.526 164.496C142.526 164.33 142.637 164.22 142.802 164.22C142.968 164.22 143.078 164.33 143.078 164.496C143.078 164.661 142.968 164.772 142.802 164.772C142.637 164.772 142.526 164.661 142.526 164.496ZM139.214 164.496C139.214 164.33 139.325 164.22 139.49 164.22C139.656 164.22 139.766 164.33 139.766 164.496C139.766 164.661 139.656 164.772 139.49 164.772C139.38 164.772 139.214 164.661 139.214 164.496ZM135.902 164.496C135.902 164.33 136.013 164.22 136.178 164.22C136.344 164.22 136.454 164.33 136.454 164.496C136.454 164.661 136.344 164.772 136.178 164.772C136.068 164.772 135.902 164.661 135.902 164.496ZM132.646 164.496C132.646 164.33 132.756 164.22 132.922 164.22C133.087 164.22 133.198 164.33 133.198 164.496C133.198 164.661 133.087 164.772 132.922 164.772C132.756 164.772 132.646 164.661 132.646 164.496ZM129.334 164.496C129.334 164.33 129.444 164.22 129.61 164.22C129.775 164.22 129.886 164.33 129.886 164.496C129.886 164.661 129.775 164.772 129.61 164.772C129.444 164.772 129.334 164.661 129.334 164.496Z" fill="#E0E0E0"/>
<path d="M126.298 164.772C126.242 164.772 126.242 164.772 126.187 164.772C126.132 164.772 126.132 164.717 126.077 164.717C126.077 164.717 126.022 164.661 126.022 164.606C126.022 164.551 126.022 164.551 126.022 164.496C126.022 164.441 126.022 164.441 126.022 164.385C126.022 164.33 126.077 164.33 126.077 164.275C126.077 164.275 126.132 164.22 126.187 164.22C126.242 164.22 126.353 164.22 126.408 164.22C126.463 164.22 126.463 164.275 126.518 164.275C126.518 164.275 126.574 164.33 126.574 164.385C126.574 164.441 126.574 164.441 126.574 164.496C126.574 164.551 126.574 164.551 126.574 164.606C126.574 164.661 126.518 164.661 126.518 164.717C126.518 164.717 126.463 164.772 126.408 164.772C126.353 164.772 126.298 164.772 126.298 164.772Z" fill="#E0E0E0"/>
<path d="M126.022 160.963C126.022 160.797 126.132 160.687 126.298 160.687C126.463 160.687 126.574 160.797 126.574 160.963C126.574 161.129 126.463 161.239 126.298 161.239C126.132 161.239 126.022 161.129 126.022 160.963ZM126.022 157.43C126.022 157.265 126.132 157.154 126.298 157.154C126.463 157.154 126.574 157.265 126.574 157.43C126.574 157.596 126.463 157.706 126.298 157.706C126.132 157.706 126.022 157.596 126.022 157.43ZM126.022 153.897C126.022 153.732 126.132 153.621 126.298 153.621C126.463 153.621 126.574 153.732 126.574 153.897C126.574 154.063 126.463 154.173 126.298 154.173C126.132 154.173 126.022 154.063 126.022 153.897ZM126.022 150.365C126.022 150.199 126.132 150.089 126.298 150.089C126.463 150.089 126.574 150.199 126.574 150.365C126.574 150.53 126.463 150.641 126.298 150.641C126.132 150.641 126.022 150.53 126.022 150.365Z" fill="#E0E0E0"/>
<path d="M126.298 147.108C126.242 147.108 126.242 147.108 126.187 147.108C126.132 147.108 126.132 147.053 126.077 147.053C126.077 147.053 126.022 146.998 126.022 146.942C126.022 146.887 126.022 146.887 126.022 146.832C126.022 146.777 126.077 146.666 126.077 146.611C126.077 146.611 126.132 146.556 126.187 146.556C126.242 146.556 126.353 146.556 126.408 146.556C126.463 146.556 126.463 146.611 126.518 146.611C126.574 146.666 126.574 146.722 126.574 146.832C126.574 146.887 126.574 146.887 126.574 146.942C126.574 146.998 126.518 146.998 126.518 147.053C126.518 147.053 126.463 147.108 126.408 147.108C126.353 147.108 126.298 147.108 126.298 147.108Z" fill="#E0E0E0"/>
<path d="M126.298 81.5304C126.242 81.5304 126.242 81.5304 126.187 81.5304C126.132 81.5304 126.132 81.4752 126.077 81.4752C126.077 81.4752 126.022 81.42 126.022 81.3648C126.022 81.3096 126.022 81.3096 126.022 81.2544C126.022 81.1992 126.022 81.1992 126.022 81.144C126.022 81.0888 126.077 81.0888 126.077 81.0336C126.077 80.9784 126.132 80.9784 126.187 80.9784C126.242 80.9232 126.353 80.9232 126.408 80.9784C126.463 80.9784 126.463 81.0336 126.518 81.0336C126.518 81.0336 126.574 81.0888 126.574 81.144C126.574 81.1992 126.574 81.1992 126.574 81.2544C126.574 81.3096 126.518 81.42 126.518 81.4752C126.518 81.5304 126.463 81.5304 126.408 81.5304C126.353 81.4752 126.298 81.5304 126.298 81.5304Z" fill="#E0E0E0"/>
<path d="M126.022 95.1649C126.022 94.9993 126.132 94.8889 126.298 94.8889C126.463 94.8889 126.574 94.9993 126.574 95.1649C126.574 95.3305 126.463 95.4409 126.298 95.4409C126.132 95.4409 126.022 95.3305 126.022 95.1649ZM126.022 91.6873C126.022 91.5217 126.132 91.4113 126.298 91.4113C126.463 91.4113 126.574 91.5217 126.574 91.6873C126.574 91.8529 126.463 91.9633 126.298 91.9633C126.132 91.9633 126.022 91.8529 126.022 91.6873ZM126.022 88.2097C126.022 88.0441 126.132 87.9337 126.298 87.9337C126.463 87.9337 126.574 88.0441 126.574 88.2097C126.574 88.3753 126.463 88.4857 126.298 88.4857C126.132 88.4857 126.022 88.3753 126.022 88.2097ZM126.022 84.7321C126.022 84.5665 126.132 84.4561 126.298 84.4561C126.463 84.4561 126.574 84.5665 126.574 84.7321C126.574 84.8977 126.463 85.0081 126.298 85.0081C126.132 85.0081 126.022 84.8425 126.022 84.7321Z" fill="#E0E0E0"/>
<path d="M126.298 98.9184C126.242 98.9184 126.242 98.9184 126.187 98.9184C126.132 98.9184 126.132 98.8632 126.077 98.8632C126.077 98.808 126.022 98.8079 126.022 98.7527C126.022 98.6975 126.022 98.6976 126.022 98.6424C126.022 98.5872 126.077 98.4768 126.077 98.4216C126.077 98.4216 126.132 98.3664 126.187 98.3664C126.242 98.3112 126.353 98.3112 126.408 98.3664C126.463 98.3664 126.463 98.4216 126.518 98.4216C126.574 98.4768 126.574 98.532 126.574 98.6424C126.574 98.6976 126.574 98.6975 126.574 98.7527C126.574 98.8079 126.518 98.808 126.518 98.8632C126.518 98.8632 126.463 98.9184 126.408 98.9184C126.353 98.9184 126.298 98.9184 126.298 98.9184Z" fill="#E0E0E0"/>
<path d="M68.0618 164.772L69.1658 145.894C69.221 144.79 70.1594 143.906 71.2634 143.906H101.955C103.059 143.906 103.887 144.79 103.831 145.894L102.727 164.772C102.672 165.876 101.734 166.759 100.63 166.759H69.9386C68.8346 166.814 68.0066 165.876 68.0618 164.772Z" fill="#214975"/>
<path d="M66.516 164.772L67.62 145.894C67.6752 144.79 68.6136 143.906 69.7176 143.906H101.623C102.727 143.906 103.555 144.79 103.5 145.894L102.396 164.772C102.341 165.876 101.402 166.759 100.298 166.759H68.3928C67.2888 166.814 66.4608 165.876 66.516 164.772Z" fill="white"/>
<path opacity="0.3" d="M66.516 164.772L67.62 145.894C67.6752 144.79 68.6136 143.906 69.7176 143.906H101.623C102.727 143.906 103.555 144.79 103.5 145.894L102.396 164.772C102.341 165.876 101.402 166.759 100.298 166.759H68.3928C67.2888 166.814 66.4608 165.876 66.516 164.772Z" fill="#214975"/>
<path d="M79.5984 170.844V170.568C79.5984 169.464 80.4816 168.581 81.5856 168.581H93.1224C94.2264 168.581 95.1096 169.464 95.1096 170.568V170.844C95.1096 171.948 94.2264 172.831 93.1224 172.831H81.5856C80.4816 172.831 79.5984 171.948 79.5984 170.844Z" fill="#214975"/>
<g opacity="0.6">
<path opacity="0.6" d="M79.5984 170.844V170.568C79.5984 169.464 80.4816 168.581 81.5856 168.581H93.1224C94.2264 168.581 95.1096 169.464 95.1096 170.568V170.844C95.1096 171.948 94.2264 172.831 93.1224 172.831H81.5856C80.4816 172.831 79.5984 171.948 79.5984 170.844Z" fill="white"/>
</g>
<path d="M74.8513 170.844V170.568C74.8513 169.464 75.7345 168.581 76.8385 168.581H89.5897C90.6937 168.581 91.5769 169.464 91.5769 170.568V170.844C91.5769 171.948 90.6937 172.831 89.5897 172.831H76.8385C75.7897 172.831 74.8513 171.948 74.8513 170.844Z" fill="white"/>
<path opacity="0.3" d="M74.8513 170.844V170.568C74.8513 169.464 75.7345 168.581 76.8385 168.581H89.5897C90.6937 168.581 91.5769 169.464 91.5769 170.568V170.844C91.5769 171.948 90.6937 172.831 89.5897 172.831H76.8385C75.7897 172.831 74.8513 171.948 74.8513 170.844Z" fill="#214975"/>
<path opacity="0.9" d="M100.74 165.821H68.0616C67.5648 165.821 67.1784 165.435 67.2336 164.938L68.3376 145.728C68.3928 145.231 68.7792 144.845 69.276 144.845H101.954C102.451 144.845 102.838 145.231 102.782 145.728L101.678 164.938C101.678 165.435 101.237 165.821 100.74 165.821Z" fill="white"/>
<path opacity="0.1" d="M77.5007 165.821H70.9871L76.9487 144.845H83.4071L77.5007 165.821Z" fill="#214975"/>
<path opacity="0.1" d="M82.8002 165.821H78.2738L84.2354 144.845H88.7618L82.8002 165.821Z" fill="#214975"/>
<path opacity="0.1" d="M92.6808 165.821H88.1544L94.116 144.845H98.6424L92.6808 165.821Z" fill="#214975"/>
<path d="M120.888 164.772L121.992 145.894C122.047 144.79 122.985 143.906 124.089 143.906H154.781C155.885 143.906 156.713 144.79 156.657 145.894L155.553 164.772C155.498 165.876 154.56 166.759 153.456 166.759H122.765C121.661 166.814 120.833 165.876 120.888 164.772Z" fill="#214975"/>
<path d="M119.343 164.772L120.447 145.894C120.502 144.79 121.44 143.906 122.544 143.906H154.45C155.554 143.906 156.382 144.79 156.327 145.894L155.223 164.772C155.167 165.876 154.229 166.759 153.125 166.759H121.219C120.115 166.814 119.287 165.876 119.343 164.772Z" fill="white"/>
<path opacity="0.3" d="M119.343 164.772L120.447 145.894C120.502 144.79 121.44 143.906 122.544 143.906H154.45C155.554 143.906 156.382 144.79 156.327 145.894L155.223 164.772C155.167 165.876 154.229 166.759 153.125 166.759H121.219C120.115 166.814 119.287 165.876 119.343 164.772Z" fill="#214975"/>
<path d="M132.424 170.844V170.568C132.424 169.464 133.308 168.581 134.412 168.581H145.948C147.052 168.581 147.936 169.464 147.936 170.568V170.844C147.936 171.948 147.052 172.831 145.948 172.831H134.412C133.363 172.831 132.424 171.948 132.424 170.844Z" fill="#214975"/>
<g opacity="0.6">
<path opacity="0.6" d="M132.424 170.844V170.568C132.424 169.464 133.308 168.581 134.412 168.581H145.948C147.052 168.581 147.936 169.464 147.936 170.568V170.844C147.936 171.948 147.052 172.831 145.948 172.831H134.412C133.363 172.831 132.424 171.948 132.424 170.844Z" fill="white"/>
</g>
<path d="M127.677 170.844V170.568C127.677 169.464 128.561 168.581 129.665 168.581H142.416C143.52 168.581 144.403 169.464 144.403 170.568V170.844C144.403 171.948 143.52 172.831 142.416 172.831H129.72C128.616 172.831 127.677 171.948 127.677 170.844Z" fill="white"/>
<path opacity="0.3" d="M127.677 170.844V170.568C127.677 169.464 128.561 168.581 129.665 168.581H142.416C143.52 168.581 144.403 169.464 144.403 170.568V170.844C144.403 171.948 143.52 172.831 142.416 172.831H129.72C128.616 172.831 127.677 171.948 127.677 170.844Z" fill="#214975"/>
<path opacity="0.9" d="M153.566 165.821H120.888C120.391 165.821 120.005 165.435 120.06 164.938L121.164 145.728C121.219 145.231 121.605 144.845 122.102 144.845H154.781C155.277 144.845 155.664 145.231 155.609 145.728L154.505 164.938C154.505 165.435 154.063 165.821 153.566 165.821Z" fill="white"/>
<path opacity="0.1" d="M130.327 165.821H123.814L129.775 144.845H136.289L130.327 165.821Z" fill="#214975"/>
<path opacity="0.1" d="M135.626 165.821H131.1L137.061 144.845H141.588L135.626 165.821Z" fill="#214975"/>
<path opacity="0.1" d="M145.562 165.821H140.981L146.942 144.845H151.469L145.562 165.821Z" fill="#214975"/>
<path d="M173.715 164.772L174.819 145.894C174.874 144.79 175.812 143.906 176.916 143.906H207.608C208.712 143.906 209.54 144.79 209.484 145.894L208.38 164.772C208.325 165.876 207.387 166.759 206.283 166.759H175.592C174.488 166.814 173.66 165.876 173.715 164.772Z" fill="#214975"/>
<path d="M172.169 164.772L173.273 145.894C173.328 144.79 174.266 143.906 175.37 143.906H207.276C208.38 143.906 209.208 144.79 209.153 145.894L208.049 164.772C207.994 165.876 207.055 166.759 205.951 166.759H174.046C172.942 166.814 172.114 165.876 172.169 164.772Z" fill="white"/>
<path opacity="0.3" d="M172.169 164.772L173.273 145.894C173.328 144.79 174.266 143.906 175.37 143.906H207.276C208.38 143.906 209.208 144.79 209.153 145.894L208.049 164.772C207.994 165.876 207.055 166.759 205.951 166.759H174.046C172.942 166.814 172.114 165.876 172.169 164.772Z" fill="#214975"/>
<path d="M185.251 170.844V170.568C185.251 169.464 186.135 168.581 187.239 168.581H198.775C199.879 168.581 200.763 169.464 200.763 170.568V170.844C200.763 171.948 199.879 172.831 198.775 172.831H187.239C186.19 172.831 185.251 171.948 185.251 170.844Z" fill="#214975"/>
<g opacity="0.6">
<path opacity="0.6" d="M185.251 170.844V170.568C185.251 169.464 186.135 168.581 187.239 168.581H198.775C199.879 168.581 200.763 169.464 200.763 170.568V170.844C200.763 171.948 199.879 172.831 198.775 172.831H187.239C186.19 172.831 185.251 171.948 185.251 170.844Z" fill="white"/>
</g>
<path d="M180.559 170.844V170.568C180.559 169.464 181.443 168.581 182.547 168.581H195.298C196.402 168.581 197.285 169.464 197.285 170.568V170.844C197.285 171.948 196.402 172.831 195.298 172.831H182.547C181.443 172.831 180.559 171.948 180.559 170.844Z" fill="white"/>
<path opacity="0.3" d="M180.559 170.844V170.568C180.559 169.464 181.443 168.581 182.547 168.581H195.298C196.402 168.581 197.285 169.464 197.285 170.568V170.844C197.285 171.948 196.402 172.831 195.298 172.831H182.547C181.443 172.831 180.559 171.948 180.559 170.844Z" fill="#214975"/>
<path opacity="0.9" d="M206.393 165.821H173.715C173.218 165.821 172.831 165.435 172.887 164.938L173.991 145.728C174.046 145.231 174.432 144.845 174.929 144.845H207.607C208.104 144.845 208.491 145.231 208.435 145.728L207.331 164.938C207.331 165.435 206.89 165.821 206.393 165.821Z" fill="white"/>
<path opacity="0.1" d="M183.154 165.821H176.64L182.602 144.845H189.115L183.154 165.821Z" fill="#214975"/>
<path opacity="0.1" d="M188.453 165.821H183.926L189.888 144.845H194.414L188.453 165.821Z" fill="#214975"/>
<path opacity="0.1" d="M198.389 165.821H193.863L199.769 144.845H204.351L198.389 165.821Z" fill="#214975"/>
<path d="M84.8427 140.098C84.7875 140.098 84.7875 140.098 84.7323 140.098C84.6771 140.098 84.6771 140.043 84.6219 140.043C84.6219 139.987 84.5667 139.987 84.5667 139.932C84.5667 139.877 84.5667 139.877 84.5667 139.822C84.5667 139.767 84.5667 139.656 84.6219 139.601C84.6771 139.546 84.8427 139.491 84.9531 139.546C85.0083 139.546 85.0083 139.601 85.0635 139.601C85.1187 139.656 85.1187 139.656 85.1187 139.711C85.1187 139.767 85.1187 139.767 85.1187 139.822C85.1187 139.877 85.1187 139.877 85.1187 139.932C85.1187 139.987 85.0635 139.987 85.0635 140.043C85.0635 140.043 85.0083 140.098 84.9531 140.098C84.8979 140.098 84.8427 140.098 84.8427 140.098Z" fill="#214975"/>
<path d="M84.5667 137.834C84.5667 137.669 84.6771 137.558 84.8427 137.558C85.0083 137.558 85.1187 137.669 85.1187 137.834C85.1187 138 85.0083 138.11 84.8427 138.11C84.6771 138.11 84.5667 138 84.5667 137.834Z" fill="#214975"/>
<path d="M84.8433 136.068C84.7881 136.068 84.6777 136.013 84.6225 135.958C84.6225 135.958 84.5673 135.902 84.5673 135.847C84.5673 135.792 84.5673 135.792 84.5673 135.737C84.5673 135.682 84.5673 135.571 84.6225 135.516C84.6777 135.461 84.8433 135.406 84.9537 135.461C85.0089 135.461 85.0089 135.516 85.0641 135.516C85.1193 135.516 85.1193 135.571 85.1193 135.626C85.1193 135.682 85.1193 135.682 85.1193 135.737C85.1193 135.792 85.1193 135.792 85.1193 135.847C85.1193 135.902 85.0641 135.902 85.0641 135.958C85.0641 136.013 85.0089 136.013 84.9537 136.013C84.8985 136.068 84.8433 136.068 84.8433 136.068Z" fill="#214975"/>
<path d="M135.517 135.792C135.517 135.627 135.627 135.516 135.793 135.516C135.958 135.516 136.069 135.627 136.069 135.792C136.069 135.958 135.958 136.068 135.793 136.068C135.627 136.068 135.517 135.958 135.517 135.792ZM133.309 135.792C133.309 135.627 133.419 135.516 133.585 135.516C133.75 135.516 133.861 135.627 133.861 135.792C133.861 135.958 133.75 136.068 133.585 136.068C133.419 136.068 133.309 135.958 133.309 135.792ZM131.101 135.792C131.101 135.627 131.211 135.516 131.377 135.516C131.542 135.516 131.653 135.627 131.653 135.792C131.653 135.958 131.542 136.068 131.377 136.068C131.211 136.068 131.101 135.958 131.101 135.792ZM128.893 135.792C128.893 135.627 129.003 135.516 129.169 135.516C129.334 135.516 129.445 135.627 129.445 135.792C129.445 135.958 129.334 136.068 129.169 136.068C129.003 136.068 128.893 135.958 128.893 135.792ZM126.629 135.792C126.629 135.627 126.74 135.516 126.905 135.516C127.071 135.516 127.181 135.627 127.181 135.792C127.181 135.958 127.071 136.068 126.905 136.068C126.795 136.068 126.629 135.958 126.629 135.792ZM124.421 135.792C124.421 135.627 124.532 135.516 124.697 135.516C124.863 135.516 124.973 135.627 124.973 135.792C124.973 135.958 124.863 136.068 124.697 136.068C124.532 136.068 124.421 135.958 124.421 135.792ZM122.213 135.792C122.213 135.627 122.324 135.516 122.489 135.516C122.655 135.516 122.765 135.627 122.765 135.792C122.765 135.958 122.655 136.068 122.489 136.068C122.324 136.068 122.213 135.958 122.213 135.792ZM120.005 135.792C120.005 135.627 120.116 135.516 120.281 135.516C120.447 135.516 120.557 135.627 120.557 135.792C120.557 135.958 120.447 136.068 120.281 136.068C120.116 136.068 120.005 135.958 120.005 135.792ZM117.797 135.792C117.797 135.627 117.908 135.516 118.073 135.516C118.239 135.516 118.349 135.627 118.349 135.792C118.349 135.958 118.239 136.068 118.073 136.068C117.908 136.068 117.797 135.958 117.797 135.792ZM115.589 135.792C115.589 135.627 115.7 135.516 115.865 135.516C116.031 135.516 116.141 135.627 116.141 135.792C116.141 135.958 116.031 136.068 115.865 136.068C115.7 136.068 115.589 135.958 115.589 135.792ZM113.326 135.792C113.326 135.627 113.437 135.516 113.602 135.516C113.768 135.516 113.878 135.627 113.878 135.792C113.878 135.958 113.768 136.068 113.602 136.068C113.492 136.068 113.326 135.958 113.326 135.792ZM111.118 135.792C111.118 135.627 111.229 135.516 111.394 135.516C111.56 135.516 111.67 135.627 111.67 135.792C111.67 135.958 111.56 136.068 111.394 136.068C111.284 136.068 111.118 135.958 111.118 135.792ZM108.91 135.792C108.91 135.627 109.021 135.516 109.186 135.516C109.352 135.516 109.462 135.627 109.462 135.792C109.462 135.958 109.352 136.068 109.186 136.068C109.021 136.068 108.91 135.958 108.91 135.792ZM106.702 135.792C106.702 135.627 106.813 135.516 106.978 135.516C107.144 135.516 107.254 135.627 107.254 135.792C107.254 135.958 107.144 136.068 106.978 136.068C106.813 136.068 106.702 135.958 106.702 135.792ZM104.494 135.792C104.494 135.627 104.605 135.516 104.77 135.516C104.936 135.516 105.046 135.627 105.046 135.792C105.046 135.958 104.936 136.068 104.77 136.068C104.605 136.068 104.494 135.958 104.494 135.792ZM102.286 135.792C102.286 135.627 102.397 135.516 102.562 135.516C102.728 135.516 102.838 135.627 102.838 135.792C102.838 135.958 102.728 136.068 102.562 136.068C102.397 136.068 102.286 135.958 102.286 135.792ZM100.078 135.792C100.078 135.627 100.189 135.516 100.354 135.516C100.52 135.516 100.63 135.627 100.63 135.792C100.63 135.958 100.52 136.068 100.354 136.068C100.189 136.068 100.078 135.958 100.078 135.792ZM97.8702 135.792C97.8702 135.627 97.9806 135.516 98.1462 135.516C98.3118 135.516 98.4222 135.627 98.4222 135.792C98.4222 135.958 98.3118 136.068 98.1462 136.068C97.9806 136.068 97.8702 135.958 97.8702 135.792ZM95.607 135.792C95.607 135.627 95.7174 135.516 95.883 135.516C96.0486 135.516 96.159 135.627 96.159 135.792C96.159 135.958 96.0486 136.068 95.883 136.068C95.7726 136.068 95.607 135.958 95.607 135.792ZM93.399 135.792C93.399 135.627 93.5094 135.516 93.675 135.516C93.8406 135.516 93.951 135.627 93.951 135.792C93.951 135.958 93.8406 136.068 93.675 136.068C93.5646 136.068 93.399 135.958 93.399 135.792ZM91.191 135.792C91.191 135.627 91.3014 135.516 91.467 135.516C91.6326 135.516 91.743 135.627 91.743 135.792C91.743 135.958 91.6326 136.068 91.467 136.068C91.3014 136.068 91.191 135.958 91.191 135.792ZM88.983 135.792C88.983 135.627 89.0934 135.516 89.259 135.516C89.4246 135.516 89.535 135.627 89.535 135.792C89.535 135.958 89.4246 136.068 89.259 136.068C89.0934 136.068 88.983 135.958 88.983 135.792ZM86.775 135.792C86.775 135.627 86.8854 135.516 87.051 135.516C87.2166 135.516 87.327 135.627 87.327 135.792C87.327 135.958 87.2166 136.068 87.051 136.068C86.8854 136.068 86.775 135.958 86.775 135.792Z" fill="#214975"/>
<path d="M138 136.068C137.945 136.068 137.945 136.068 137.89 136.068C137.835 136.068 137.835 136.013 137.779 136.013C137.779 136.013 137.724 135.958 137.724 135.902C137.724 135.847 137.724 135.847 137.724 135.792C137.724 135.737 137.724 135.737 137.724 135.682C137.724 135.626 137.779 135.626 137.779 135.571C137.779 135.516 137.835 135.516 137.89 135.516C137.945 135.461 138.055 135.461 138.111 135.516C138.166 135.516 138.166 135.571 138.221 135.571C138.276 135.626 138.331 135.682 138.331 135.792C138.331 135.847 138.331 135.847 138.331 135.902C138.331 135.958 138.276 135.958 138.276 136.013C138.276 136.013 138.221 136.068 138.166 136.068C138.055 136.068 138.055 136.068 138 136.068Z" fill="#214975"/>
<path d="M138 136.068C137.945 136.068 137.945 136.068 137.89 136.068C137.834 136.068 137.834 136.013 137.779 136.013C137.779 136.013 137.724 135.958 137.724 135.902C137.724 135.847 137.724 135.847 137.724 135.792C137.724 135.737 137.724 135.737 137.724 135.682C137.724 135.626 137.779 135.626 137.779 135.571C137.779 135.516 137.834 135.516 137.89 135.516C137.945 135.461 138.055 135.461 138.11 135.516C138.166 135.516 138.166 135.571 138.221 135.571C138.276 135.626 138.331 135.682 138.331 135.792C138.331 135.847 138.331 135.847 138.331 135.902C138.331 135.958 138.276 135.958 138.276 136.013C138.276 136.013 138.221 136.068 138.166 136.068C138.055 136.068 138.055 136.068 138 136.068Z" fill="#214975"/>
<path d="M137.724 133.86C137.724 133.694 137.834 133.584 138 133.584C138.166 133.584 138.276 133.694 138.276 133.86C138.276 134.026 138.166 134.136 138 134.136C137.834 134.136 137.724 134.026 137.724 133.86ZM137.724 131.983C137.724 131.818 137.834 131.707 138 131.707C138.166 131.707 138.276 131.818 138.276 131.983C138.276 132.149 138.166 132.259 138 132.259C137.834 132.259 137.724 132.149 137.724 131.983ZM137.724 130.051C137.724 129.886 137.834 129.775 138 129.775C138.166 129.775 138.276 129.886 138.276 130.051C138.276 130.217 138.166 130.327 138 130.327C137.834 130.327 137.724 130.217 137.724 130.051Z" fill="#214975"/>
<path d="M138 128.395C137.945 128.395 137.835 128.395 137.78 128.34C137.78 128.34 137.724 128.285 137.724 128.23C137.724 128.174 137.724 128.174 137.724 128.119C137.724 128.064 137.724 128.064 137.724 128.009C137.724 127.954 137.78 127.954 137.78 127.898C137.78 127.898 137.835 127.843 137.89 127.843C137.945 127.788 138.056 127.788 138.111 127.843C138.166 127.843 138.166 127.898 138.221 127.898C138.221 127.898 138.276 127.954 138.276 128.009C138.276 128.064 138.276 128.064 138.276 128.119C138.276 128.174 138.276 128.174 138.276 128.23C138.276 128.285 138.221 128.285 138.221 128.34C138.166 128.395 138.056 128.395 138 128.395Z" fill="#214975"/>
<path d="M138 136.068C137.945 136.068 137.945 136.068 137.89 136.068C137.835 136.068 137.835 136.013 137.78 136.013C137.78 136.013 137.724 135.957 137.724 135.902C137.724 135.847 137.724 135.847 137.724 135.792C137.724 135.737 137.724 135.737 137.724 135.681C137.724 135.626 137.78 135.626 137.78 135.571C137.78 135.516 137.835 135.516 137.89 135.516C137.945 135.461 138.056 135.461 138.111 135.516C138.166 135.516 138.166 135.571 138.221 135.571C138.276 135.626 138.332 135.681 138.332 135.792C138.332 135.847 138.332 135.847 138.332 135.902C138.332 135.957 138.276 135.957 138.276 136.013C138.276 136.013 138.221 136.068 138.166 136.068C138.056 136.068 138.056 136.068 138 136.068Z" fill="#214975"/>
<path d="M137.724 137.834C137.724 137.669 137.834 137.558 138 137.558C138.166 137.558 138.276 137.669 138.276 137.834C138.276 138 138.166 138.11 138 138.11C137.834 138.11 137.724 138 137.724 137.834Z" fill="#214975"/>
<path d="M138 140.097C137.945 140.097 137.834 140.042 137.779 140.042C137.779 139.987 137.724 139.987 137.724 139.932C137.724 139.877 137.724 139.877 137.724 139.821C137.724 139.766 137.724 139.766 137.724 139.711C137.724 139.656 137.779 139.656 137.779 139.601C137.89 139.49 138.055 139.49 138.166 139.601C138.166 139.656 138.221 139.656 138.221 139.711C138.221 139.766 138.221 139.766 138.221 139.821C138.221 139.877 138.221 139.877 138.221 139.932C138.221 139.987 138.166 139.987 138.166 140.042C138.166 140.097 138.055 140.097 138 140.097Z" fill="#214975"/>
<path d="M191.158 140.097C191.102 140.097 190.992 140.042 190.992 140.042C190.937 139.987 190.882 139.932 190.882 139.821C190.882 139.766 190.937 139.656 190.992 139.601C191.102 139.49 191.268 139.49 191.378 139.601C191.378 139.656 191.434 139.656 191.434 139.711C191.434 139.766 191.434 139.766 191.434 139.821C191.434 139.877 191.434 139.987 191.378 140.042C191.323 140.097 191.268 140.097 191.158 140.097Z" fill="#214975"/>
<path d="M190.882 137.834C190.882 137.669 190.992 137.558 191.158 137.558C191.323 137.558 191.434 137.669 191.434 137.834C191.434 138 191.323 138.11 191.158 138.11C190.992 138.11 190.882 138 190.882 137.834Z" fill="#214975"/>
<path d="M191.158 136.068C191.102 136.068 190.992 136.013 190.992 136.013C190.937 135.957 190.882 135.902 190.882 135.792C190.882 135.737 190.937 135.626 190.992 135.571C191.102 135.461 191.268 135.461 191.378 135.571C191.434 135.626 191.434 135.681 191.434 135.792C191.434 135.847 191.434 135.957 191.378 136.013C191.323 136.068 191.268 136.068 191.158 136.068Z" fill="#214975"/>
<path d="M188.674 135.792C188.674 135.626 188.784 135.516 188.95 135.516C189.116 135.516 189.226 135.626 189.226 135.792C189.226 135.957 189.116 136.068 188.95 136.068C188.784 136.068 188.674 135.957 188.674 135.792ZM186.466 135.792C186.466 135.626 186.576 135.516 186.742 135.516C186.908 135.516 187.018 135.626 187.018 135.792C187.018 135.957 186.908 136.068 186.742 136.068C186.576 136.068 186.466 135.957 186.466 135.792ZM184.258 135.792C184.258 135.626 184.368 135.516 184.534 135.516C184.7 135.516 184.81 135.626 184.81 135.792C184.81 135.957 184.7 136.068 184.534 136.068C184.368 136.068 184.258 135.957 184.258 135.792ZM182.05 135.792C182.05 135.626 182.16 135.516 182.326 135.516C182.492 135.516 182.602 135.626 182.602 135.792C182.602 135.957 182.492 136.068 182.326 136.068C182.16 136.068 182.05 135.957 182.05 135.792ZM179.842 135.792C179.842 135.626 179.952 135.516 180.118 135.516C180.284 135.516 180.394 135.626 180.394 135.792C180.394 135.957 180.284 136.068 180.118 136.068C179.952 136.068 179.842 135.957 179.842 135.792ZM177.579 135.792C177.579 135.626 177.689 135.516 177.855 135.516C178.02 135.516 178.131 135.626 178.131 135.792C178.131 135.957 178.02 136.068 177.855 136.068C177.744 136.068 177.579 135.957 177.579 135.792ZM175.371 135.792C175.371 135.626 175.481 135.516 175.647 135.516C175.812 135.516 175.923 135.626 175.923 135.792C175.923 135.957 175.812 136.068 175.647 136.068C175.536 136.068 175.371 135.957 175.371 135.792ZM173.163 135.792C173.163 135.626 173.273 135.516 173.439 135.516C173.604 135.516 173.715 135.626 173.715 135.792C173.715 135.957 173.604 136.068 173.439 136.068C173.273 136.068 173.163 135.957 173.163 135.792ZM170.955 135.792C170.955 135.626 171.065 135.516 171.231 135.516C171.396 135.516 171.507 135.626 171.507 135.792C171.507 135.957 171.396 136.068 171.231 136.068C171.065 136.068 170.955 135.957 170.955 135.792ZM168.747 135.792C168.747 135.626 168.857 135.516 169.023 135.516C169.188 135.516 169.299 135.626 169.299 135.792C169.299 135.957 169.188 136.068 169.023 136.068C168.857 136.068 168.747 135.957 168.747 135.792ZM166.539 135.792C166.539 135.626 166.649 135.516 166.815 135.516C166.98 135.516 167.091 135.626 167.091 135.792C167.091 135.957 166.98 136.068 166.815 136.068C166.649 136.068 166.539 135.957 166.539 135.792ZM164.331 135.792C164.331 135.626 164.441 135.516 164.607 135.516C164.772 135.516 164.883 135.626 164.883 135.792C164.883 135.957 164.772 136.068 164.607 136.068C164.441 136.068 164.331 135.957 164.331 135.792ZM162.068 135.792C162.068 135.626 162.178 135.516 162.344 135.516C162.509 135.516 162.62 135.626 162.62 135.792C162.62 135.957 162.509 136.068 162.344 136.068C162.233 136.068 162.068 135.957 162.068 135.792ZM159.86 135.792C159.86 135.626 159.97 135.516 160.136 135.516C160.301 135.516 160.412 135.626 160.412 135.792C160.412 135.957 160.301 136.068 160.136 136.068C160.025 136.068 159.86 135.957 159.86 135.792ZM157.652 135.792C157.652 135.626 157.762 135.516 157.928 135.516C158.093 135.516 158.204 135.626 158.204 135.792C158.204 135.957 158.093 136.068 157.928 136.068C157.762 136.068 157.652 135.957 157.652 135.792ZM155.444 135.792C155.444 135.626 155.554 135.516 155.72 135.516C155.885 135.516 155.996 135.626 155.996 135.792C155.996 135.957 155.885 136.068 155.72 136.068C155.554 136.068 155.444 135.957 155.444 135.792ZM153.236 135.792C153.236 135.626 153.346 135.516 153.512 135.516C153.677 135.516 153.788 135.626 153.788 135.792C153.788 135.957 153.677 136.068 153.512 136.068C153.346 136.068 153.236 135.957 153.236 135.792ZM151.028 135.792C151.028 135.626 151.138 135.516 151.304 135.516C151.469 135.516 151.58 135.626 151.58 135.792C151.58 135.957 151.469 136.068 151.304 136.068C151.138 136.068 151.028 135.957 151.028 135.792ZM148.82 135.792C148.82 135.626 148.93 135.516 149.096 135.516C149.261 135.516 149.372 135.626 149.372 135.792C149.372 135.957 149.261 136.068 149.096 136.068C148.93 136.068 148.82 135.957 148.82 135.792ZM146.556 135.792C146.556 135.626 146.667 135.516 146.832 135.516C146.998 135.516 147.108 135.626 147.108 135.792C147.108 135.957 146.998 136.068 146.832 136.068C146.722 136.068 146.556 135.957 146.556 135.792ZM144.348 135.792C144.348 135.626 144.459 135.516 144.624 135.516C144.79 135.516 144.9 135.626 144.9 135.792C144.9 135.957 144.79 136.068 144.624 136.068C144.514 136.068 144.348 135.957 144.348 135.792ZM142.14 135.792C142.14 135.626 142.251 135.516 142.416 135.516C142.582 135.516 142.692 135.626 142.692 135.792C142.692 135.957 142.582 136.068 142.416 136.068C142.306 136.068 142.14 135.957 142.14 135.792ZM139.932 135.792C139.932 135.626 140.043 135.516 140.208 135.516C140.374 135.516 140.484 135.626 140.484 135.792C140.484 135.957 140.374 136.068 140.208 136.068C140.043 136.068 139.932 135.957 139.932 135.792Z" fill="#214975"/>
<path d="M138 136.068C137.945 136.068 137.945 136.068 137.89 136.068C137.835 136.068 137.835 136.013 137.779 136.013C137.779 136.013 137.724 135.957 137.724 135.902C137.724 135.847 137.724 135.847 137.724 135.792C137.724 135.737 137.724 135.737 137.724 135.681C137.724 135.626 137.779 135.626 137.779 135.571C137.779 135.516 137.835 135.516 137.89 135.516C137.945 135.461 138.055 135.461 138.111 135.516C138.166 135.516 138.166 135.571 138.221 135.571C138.276 135.626 138.331 135.681 138.331 135.792C138.331 135.847 138.331 135.847 138.331 135.902C138.331 135.957 138.276 135.957 138.276 136.013C138.276 136.013 138.221 136.068 138.166 136.068C138.055 136.068 138.055 136.068 138 136.068Z" fill="#214975"/>
<path d="M222.236 77.6113C222.07 59.4505 207.332 44.8225 189.171 44.8225H175.536C168.636 32.8441 155.72 24.7849 140.871 24.7849H114.264V34.9417C108.137 40.4065 103.666 47.7481 101.844 56.0833C83.9044 57.2425 69.6628 72.1465 69.6628 90.4177C69.6628 109.407 85.0636 124.807 104.052 124.807H213.514C226.983 124.807 237.912 113.878 237.912 100.409C237.912 89.9761 231.399 81.0889 222.236 77.6113Z" fill="#214975"/>
<path opacity="0.7" d="M222.236 77.6113C222.07 59.4505 207.332 44.8225 189.171 44.8225H175.536C168.636 32.8441 155.72 24.7849 140.871 24.7849H114.264V34.9417C108.137 40.4065 103.666 47.7481 101.844 56.0833C83.9044 57.2425 69.6628 72.1465 69.6628 90.4177C69.6628 109.407 85.0636 124.807 104.052 124.807H213.514C226.983 124.807 237.912 113.878 237.912 100.409C237.912 89.9761 231.399 81.0889 222.236 77.6113Z" fill="white"/>
<path d="M195.629 77.6113C195.463 59.4505 180.725 44.8225 162.564 44.8225C158.203 44.8225 154.008 45.7057 150.199 47.2513C143.686 33.9481 130.051 24.7849 114.264 24.7849C95.1651 24.7849 79.2123 38.1985 75.2379 56.0833C57.2979 57.2425 43.0563 72.1465 43.0563 90.4177C43.0563 109.407 58.4571 124.807 77.4459 124.807H186.907C200.376 124.807 211.306 113.878 211.306 100.409C211.306 89.9761 204.792 81.0889 195.629 77.6113Z" fill="#214975"/>
<path opacity="0.1" d="M222.236 77.6113C222.07 59.4505 207.332 44.8225 189.171 44.8225C184.81 44.8225 180.615 45.7057 176.806 47.2513C170.292 33.9481 156.658 24.7849 140.871 24.7849C121.772 24.7849 105.819 38.1985 101.844 56.0833C83.9044 57.2425 69.6628 72.1465 69.6628 90.4177C69.6628 109.407 85.0636 124.807 104.052 124.807H213.514C226.983 124.807 237.912 113.878 237.912 100.409C237.912 89.9761 231.399 81.0889 222.236 77.6113Z" fill="black"/>
<path d="M186.963 125.304H77.4457C58.1809 125.304 42.5041 109.627 42.5041 90.3625C42.5041 72.1465 56.6353 56.9113 74.7961 55.5313C76.8385 46.8097 81.7513 38.9161 88.7065 33.2857C95.8825 27.4345 104.935 24.2329 114.209 24.2329C129.665 24.2329 143.465 32.7889 150.42 46.5337C154.284 45.0433 158.369 44.2705 162.564 44.2705C180.835 44.2705 195.795 59.0089 196.181 77.2249C205.565 80.9785 211.913 90.2521 211.913 100.409C211.858 114.099 200.652 125.304 186.963 125.304ZM114.264 25.2817C95.9377 25.2817 79.7641 38.2537 75.7897 56.1385C75.7345 56.3593 75.5137 56.5249 75.2929 56.5801C57.5185 57.7393 43.6081 72.5881 43.6081 90.3625C43.6081 109.02 58.7881 124.255 77.5009 124.255H186.963C200.1 124.255 210.809 113.547 210.809 100.409C210.809 90.5833 204.627 81.6409 195.463 78.1081C195.243 78.0529 195.132 77.8321 195.132 77.6113C194.967 59.8369 180.394 45.3193 162.619 45.3193C158.424 45.3193 154.339 46.0921 150.42 47.6929C150.144 47.8033 149.868 47.6929 149.758 47.4169C143.023 33.7825 129.444 25.2817 114.264 25.2817Z" fill="#214975"/>
<path opacity="0.7" d="M186.963 125.304H77.4457C58.1809 125.304 42.5041 109.627 42.5041 90.3625C42.5041 72.1465 56.6353 56.9113 74.7961 55.5313C76.8385 46.8097 81.7513 38.9161 88.7065 33.2857C95.8825 27.4345 104.935 24.2329 114.209 24.2329C129.665 24.2329 143.465 32.7889 150.42 46.5337C154.284 45.0433 158.369 44.2705 162.564 44.2705C180.835 44.2705 195.795 59.0089 196.181 77.2249C205.565 80.9785 211.913 90.2521 211.913 100.409C211.858 114.099 200.652 125.304 186.963 125.304ZM114.264 25.2817C95.9377 25.2817 79.7641 38.2537 75.7897 56.1385C75.7345 56.3593 75.5137 56.5249 75.2929 56.5801C57.5185 57.7393 43.6081 72.5881 43.6081 90.3625C43.6081 109.02 58.7881 124.255 77.5009 124.255H186.963C200.1 124.255 210.809 113.547 210.809 100.409C210.809 90.5833 204.627 81.6409 195.463 78.1081C195.243 78.0529 195.132 77.8321 195.132 77.6113C194.967 59.8369 180.394 45.3193 162.619 45.3193C158.424 45.3193 154.339 46.0921 150.42 47.6929C150.144 47.8033 149.868 47.6929 149.758 47.4169C143.023 33.7825 129.444 25.2817 114.264 25.2817Z" fill="white"/>
<path d="M100.299 75.9553H109.075C110.455 75.9553 111.504 77.0593 111.504 78.3841V121.716C111.504 123.096 110.4 124.145 109.075 124.145H100.299V75.9553Z" fill="#E0E0E0"/>
<path d="M101.182 75.9553H82.2484C80.8684 75.9553 79.8196 77.0593 79.8196 78.3841V121.716C79.8196 123.096 80.9236 124.145 82.2484 124.145H101.182C102.562 124.145 103.611 123.041 103.611 121.716V78.3841C103.611 77.0593 102.507 75.9553 101.182 75.9553Z" fill="white"/>
<path d="M103.61 114.209H79.7639V114.65H103.61V114.209Z" fill="#E0E0E0"/>
<path d="M103.61 104.659H79.7639V105.101H103.61V104.659Z" fill="#E0E0E0"/>
<path d="M103.61 95.1096H79.7639V95.5512H103.61V95.1096Z" fill="#E0E0E0"/>
<path d="M103.61 85.5601H79.7639V86.0017H103.61V85.5601Z" fill="#E0E0E0"/>
<path opacity="0.6" d="M91.6877 82.4136H83.7389C83.2421 82.4136 82.8557 82.8 82.8557 83.2968C82.8557 83.7936 83.2421 84.18 83.7389 84.18H91.6877C92.1845 84.18 92.5709 83.7936 92.5709 83.2968C92.5709 82.8552 92.1845 82.4136 91.6877 82.4136Z" fill="#214975"/>
<path opacity="0.6" d="M91.6877 80.0952H83.7389C83.2421 80.0952 82.8557 80.4816 82.8557 80.9784C82.8557 81.4752 83.2421 81.8616 83.7389 81.8616H91.6877C92.1845 81.8616 92.5709 81.4752 92.5709 80.9784C92.5709 80.4816 92.1845 80.0952 91.6877 80.0952Z" fill="#214975"/>
<path opacity="0.6" d="M91.6877 77.7217H83.7389C83.2421 77.7217 82.8557 78.1081 82.8557 78.6049C82.8557 79.1017 83.2421 79.4881 83.7389 79.4881H91.6877C92.1845 79.4881 92.5709 79.1017 92.5709 78.6049C92.5709 78.1081 92.1845 77.7217 91.6877 77.7217Z" fill="#214975"/>
<path d="M93.442 84.2847H96.754V82.4631H93.442V84.2847Z" fill="#EBEBEB"/>
<path d="M93.442 81.8721H96.754V80.0505H93.442V81.8721Z" fill="#214975"/>
<path d="M93.442 79.5144H96.754V77.6928H93.442V79.5144Z" fill="#EBEBEB"/>
<path d="M97.3235 84.2847H100.636V82.4631H97.3235V84.2847Z" fill="#EBEBEB"/>
<path d="M97.3235 81.8721H100.636V80.0505H97.3235V81.8721Z" fill="#EBEBEB"/>
<path d="M97.3235 79.5144H100.636V77.6928H97.3235V79.5144Z" fill="#214975"/>
<path d="M91.6872 92.0186H83.7384C83.2416 92.0186 82.8552 92.405 82.8552 92.9018C82.8552 93.3986 83.2416 93.785 83.7384 93.785H91.6872C92.184 93.785 92.5704 93.3986 92.5704 92.9018C92.5704 92.405 92.184 92.0186 91.6872 92.0186Z" fill="#EBEBEB"/>
<path opacity="0.6" d="M91.6872 89.6453H83.7384C83.2416 89.6453 82.8552 90.0317 82.8552 90.5285C82.8552 91.0253 83.2416 91.4117 83.7384 91.4117H91.6872C92.184 91.4117 92.5704 91.0253 92.5704 90.5285C92.5704 90.0317 92.184 89.6453 91.6872 89.6453Z" fill="#214975"/>
<path opacity="0.6" d="M91.6872 87.2715H83.7384C83.2416 87.2715 82.8552 87.6579 82.8552 88.1547C82.8552 88.6515 83.2416 89.0379 83.7384 89.0379H91.6872C92.184 89.0379 92.5704 88.6515 92.5704 88.1547C92.5704 87.6579 92.184 87.2715 91.6872 87.2715Z" fill="#214975"/>
<path d="M93.4418 93.8008H96.7538V91.9792H93.4418V93.8008Z" fill="#EBEBEB"/>
<path d="M93.4418 91.4434H96.7538V89.6218H93.4418V91.4434Z" fill="#EBEBEB"/>
<path d="M93.4418 89.0857H96.7538V87.2641H93.4418V89.0857Z" fill="#214975"/>
<path d="M97.3233 93.8008H100.635V91.9792H97.3233V93.8008Z" fill="#EBEBEB"/>
<path d="M97.3233 91.4434H100.635V89.6218H97.3233V91.4434Z" fill="#EBEBEB"/>
<path d="M97.3233 89.0857H100.635V87.2641H97.3233V89.0857Z" fill="#EBEBEB"/>
<path opacity="0.6" d="M91.6872 101.568H83.7384C83.2416 101.568 82.8552 101.955 82.8552 102.451C82.8552 102.948 83.2416 103.335 83.7384 103.335H91.6872C92.184 103.335 92.5704 102.948 92.5704 102.451C92.5704 101.955 92.184 101.568 91.6872 101.568Z" fill="#214975"/>
<path opacity="0.6" d="M91.6872 99.1943H83.7384C83.2416 99.1943 82.8552 99.5807 82.8552 100.078C82.8552 100.574 83.2416 100.961 83.7384 100.961H91.6872C92.184 100.961 92.5704 100.574 92.5704 100.078C92.5704 99.5807 92.184 99.1943 91.6872 99.1943Z" fill="#214975"/>
<path opacity="0.6" d="M91.6871 96.8208H83.7383C83.2415 96.8208 82.8551 97.2072 82.8551 97.704C82.8551 98.2008 83.2415 98.5872 83.7383 98.5872H91.6871C92.1839 98.5872 92.5703 98.2008 92.5703 97.704C92.5703 97.2624 92.1839 96.8208 91.6871 96.8208Z" fill="#214975"/>
<path d="M93.4418 103.372H96.7538V101.55H93.4418V103.372Z" fill="#EBEBEB"/>
<path d="M93.4418 101.014H96.7538V99.1926H93.4418V101.014Z" fill="#214975"/>
<path d="M93.4418 98.6567H96.7538V96.8351H93.4418V98.6567Z" fill="#EBEBEB"/>
<path d="M97.3233 103.372H100.635V101.55H97.3233V103.372Z" fill="#EBEBEB"/>
<path d="M97.3233 101.014H100.635V99.1926H97.3233V101.014Z" fill="#EBEBEB"/>
<path d="M97.3233 98.6567H100.635V96.8351H97.3233V98.6567Z" fill="#214975"/>
<path opacity="0.6" d="M91.6872 111.117H83.7384C83.2416 111.117 82.8552 111.504 82.8552 112.001C82.8552 112.497 83.2416 112.884 83.7384 112.884H91.6872C92.184 112.884 92.5704 112.497 92.5704 112.001C92.5704 111.504 92.184 111.117 91.6872 111.117Z" fill="#214975"/>
<path opacity="0.6" d="M91.6872 108.744H83.7384C83.2416 108.744 82.8552 109.13 82.8552 109.627C82.8552 110.124 83.2416 110.51 83.7384 110.51H91.6872C92.184 110.51 92.5704 110.124 92.5704 109.627C92.5704 109.185 92.184 108.744 91.6872 108.744Z" fill="#214975"/>
<path opacity="0.6" d="M91.6871 106.37H83.7383C83.2415 106.37 82.8551 106.757 82.8551 107.254C82.8551 107.75 83.2415 108.137 83.7383 108.137H91.6871C92.1839 108.137 92.5703 107.75 92.5703 107.254C92.5703 106.812 92.1839 106.37 91.6871 106.37Z" fill="#214975"/>
<path d="M93.4418 112.943H96.7538V111.121H93.4418V112.943Z" fill="#EBEBEB"/>
<path d="M93.4418 110.585H96.7538V108.764H93.4418V110.585Z" fill="#214975"/>
<path d="M93.4418 108.228H96.7538V106.406H93.4418V108.228Z" fill="#EBEBEB"/>
<path d="M97.3233 112.943H100.635V111.121H97.3233V112.943Z" fill="#214975"/>
<path d="M97.3233 110.585H100.635V108.764H97.3233V110.585Z" fill="#EBEBEB"/>
<path d="M97.3233 108.228H100.635V106.406H97.3233V108.228Z" fill="#214975"/>
<path opacity="0.6" d="M91.6872 120.667H83.7384C83.2416 120.667 82.8552 121.054 82.8552 121.55C82.8552 122.047 83.2416 122.434 83.7384 122.434H91.6872C92.184 122.434 92.5704 122.047 92.5704 121.55C92.5704 121.109 92.184 120.667 91.6872 120.667Z" fill="#214975"/>
<path opacity="0.6" d="M91.6872 118.294H83.7384C83.2416 118.294 82.8552 118.68 82.8552 119.177C82.8552 119.674 83.2416 120.06 83.7384 120.06H91.6872C92.184 120.06 92.5704 119.674 92.5704 119.177C92.5704 118.735 92.184 118.294 91.6872 118.294Z" fill="#214975"/>
<path opacity="0.6" d="M91.6872 115.977H83.7384C83.2416 115.977 82.8552 116.364 82.8552 116.86C82.8552 117.357 83.2416 117.744 83.7384 117.744H91.6872C92.184 117.744 92.5704 117.357 92.5704 116.86C92.5704 116.364 92.184 115.977 91.6872 115.977Z" fill="#214975"/>
<path d="M93.4417 122.514H96.7537V120.692H93.4417V122.514Z" fill="#214975"/>
<path d="M93.4417 120.156H96.7537V118.335H93.4417V120.156Z" fill="#EBEBEB"/>
<path d="M93.4417 117.744H96.7537V115.922H93.4417V117.744Z" fill="#EBEBEB"/>
<path d="M97.3233 122.514H100.635V120.692H97.3233V122.514Z" fill="#EBEBEB"/>
<path d="M97.3233 120.156H100.635V118.335H97.3233V120.156Z" fill="#EBEBEB"/>
<path d="M97.3233 117.744H100.635V115.922H97.3233V117.744Z" fill="#214975"/>
<path d="M134.633 53.2129H147.55C149.537 53.2129 151.138 54.8137 151.138 56.8009V120.612C151.138 122.599 149.537 124.2 147.55 124.2H134.633V53.2129Z" fill="#E0E0E0"/>
<path d="M135.903 53.2129H108.027C106.04 53.2129 104.439 54.8137 104.439 56.8009V120.612C104.439 122.599 106.04 124.2 108.027 124.2H135.903C137.89 124.2 139.491 122.599 139.491 120.612V56.8009C139.546 54.8137 137.89 53.2129 135.903 53.2129Z" fill="white"/>
<path d="M139.546 109.517H104.439V110.179H139.546V109.517Z" fill="#E0E0E0"/>
<path d="M139.546 95.4409H104.439V96.1033H139.546V95.4409Z" fill="#E0E0E0"/>
<path d="M139.546 81.3647H104.439V82.0272H139.546V81.3647Z" fill="#E0E0E0"/>
<path d="M139.546 67.2888H104.439V67.9512H139.546V67.2888Z" fill="#E0E0E0"/>
<path opacity="0.6" d="M121.937 62.7073H110.179C109.462 62.7073 108.855 63.3145 108.855 64.0321C108.855 64.7497 109.462 65.3569 110.179 65.3569H121.937C122.655 65.3569 123.262 64.7497 123.262 64.0321C123.262 63.3145 122.655 62.7073 121.937 62.7073Z" fill="#214975"/>
<path opacity="0.6" d="M121.937 59.2297H110.179C109.462 59.2297 108.855 59.8369 108.855 60.5545C108.855 61.2721 109.462 61.8793 110.179 61.8793H121.937C122.655 61.8793 123.262 61.2721 123.262 60.5545C123.262 59.8369 122.655 59.2297 121.937 59.2297Z" fill="#214975"/>
<path opacity="0.6" d="M121.937 55.7529H110.18C109.462 55.7529 108.855 56.3601 108.855 57.0777C108.855 57.7953 109.462 58.4025 110.18 58.4025H121.937C122.655 58.4025 123.262 57.7953 123.262 57.0777C123.262 56.3601 122.655 55.7529 121.937 55.7529Z" fill="#214975"/>
<path d="M124.471 65.3867H129.384V62.6819H124.471V65.3867Z" fill="#EBEBEB"/>
<path d="M124.471 61.8994H129.384V59.1946H124.471V61.8994Z" fill="#214975"/>
<path d="M124.471 58.4119H129.384V55.7071H124.471V58.4119Z" fill="#EBEBEB"/>
<path d="M130.189 65.3867H135.101V62.6819H130.189V65.3867Z" fill="#EBEBEB"/>
<path d="M130.189 61.8994H135.101V59.1946H130.189V61.8994Z" fill="#EBEBEB"/>
<path d="M130.189 58.4119H135.101V55.7071H130.189V58.4119Z" fill="#214975"/>
<path opacity="0.6" d="M121.937 76.7832H110.179C109.462 76.7832 108.855 77.3904 108.855 78.108C108.855 78.8256 109.462 79.4328 110.179 79.4328H121.937C122.655 79.4328 123.262 78.8256 123.262 78.108C123.262 77.3904 122.655 76.7832 121.937 76.7832Z" fill="#214975"/>
<path opacity="0.6" d="M121.937 73.3057H110.179C109.462 73.3057 108.855 73.9129 108.855 74.6305C108.855 75.3481 109.462 75.9553 110.179 75.9553H121.937C122.655 75.9553 123.262 75.3481 123.262 74.6305C123.262 73.9129 122.655 73.3057 121.937 73.3057Z" fill="#214975"/>
<path opacity="0.6" d="M121.937 69.8298H110.179C109.462 69.8298 108.855 70.437 108.855 71.1546C108.855 71.8722 109.462 72.4794 110.179 72.4794H121.937C122.655 72.4794 123.262 71.8722 123.262 71.1546C123.262 70.437 122.655 69.8298 121.937 69.8298Z" fill="#214975"/>
<path d="M124.471 79.4595H129.384V76.7547H124.471V79.4595Z" fill="#EBEBEB"/>
<path d="M124.471 75.9719H129.384V73.2671H124.471V75.9719Z" fill="#EBEBEB"/>
<path d="M124.471 72.4846H129.384V69.7798H124.471V72.4846Z" fill="#214975"/>
<path d="M130.189 79.4595H135.101V76.7547H130.189V79.4595Z" fill="#214975"/>
<path d="M130.189 75.9719H135.101V73.2671H130.189V75.9719Z" fill="#EBEBEB"/>
<path d="M130.189 72.4846H135.101V69.7798H130.189V72.4846Z" fill="#214975"/>
<path opacity="0.6" d="M121.937 90.8594H110.179C109.462 90.8594 108.855 91.4666 108.855 92.1842C108.855 92.9018 109.462 93.509 110.179 93.509H121.937C122.655 93.509 123.262 92.9018 123.262 92.1842C123.262 91.4666 122.655 90.8594 121.937 90.8594Z" fill="#214975"/>
<path opacity="0.6" d="M121.937 87.3816H110.179C109.462 87.3816 108.855 87.9888 108.855 88.7064C108.855 89.424 109.462 90.0312 110.179 90.0312H121.937C122.655 90.0312 123.262 89.424 123.262 88.7064C123.262 87.9888 122.655 87.3816 121.937 87.3816Z" fill="#214975"/>
<path opacity="0.6" d="M121.937 83.9045H110.179C109.462 83.9045 108.855 84.5117 108.855 85.2293C108.855 85.9469 109.462 86.5541 110.179 86.5541H121.937C122.655 86.5541 123.262 85.9469 123.262 85.2293C123.262 84.5117 122.655 83.9045 121.937 83.9045Z" fill="#214975"/>
<path d="M124.471 93.5325H129.384V90.8277H124.471V93.5325Z" fill="#214975"/>
<path d="M124.471 90.0449H129.384V87.3401H124.471V90.0449Z" fill="#EBEBEB"/>
<path d="M124.471 86.5576H129.384V83.8528H124.471V86.5576Z" fill="#EBEBEB"/>
<path d="M130.189 93.5325H135.101V90.8277H130.189V93.5325Z" fill="#EBEBEB"/>
<path d="M130.189 90.0449H135.101V87.3401H130.189V90.0449Z" fill="#EBEBEB"/>
<path d="M130.189 86.5576H135.101V83.8528H130.189V86.5576Z" fill="#214975"/>
<path opacity="0.6" d="M121.937 104.935H110.179C109.462 104.935 108.855 105.542 108.855 106.26C108.855 106.978 109.462 107.585 110.179 107.585H121.937C122.655 107.585 123.262 106.978 123.262 106.26C123.262 105.542 122.655 104.935 121.937 104.935Z" fill="#214975"/>
<path d="M121.937 101.458H110.179C109.462 101.458 108.855 102.065 108.855 102.783C108.855 103.5 109.462 104.107 110.179 104.107H121.937C122.655 104.107 123.262 103.5 123.262 102.783C123.262 102.065 122.655 101.458 121.937 101.458Z" fill="#EBEBEB"/>
<path opacity="0.6" d="M121.937 97.9805H110.179C109.462 97.9805 108.855 98.5877 108.855 99.3053C108.855 100.023 109.462 100.63 110.179 100.63H121.937C122.655 100.63 123.262 100.023 123.262 99.3053C123.262 98.5877 122.655 97.9805 121.937 97.9805Z" fill="#214975"/>
<path d="M124.471 107.605H129.384V104.9H124.471V107.605Z" fill="#EBEBEB"/>
<path d="M124.471 104.118H129.384V101.413H124.471V104.118Z" fill="#214975"/>
<path d="M124.471 100.63H129.384V97.9256H124.471V100.63Z" fill="#EBEBEB"/>
<path d="M130.189 107.605H135.101V104.9H130.189V107.605Z" fill="#214975"/>
<path d="M130.189 104.118H135.101V101.413H130.189V104.118Z" fill="#214975"/>
<path d="M130.189 100.63H135.101V97.9256H130.189V100.63Z" fill="#EBEBEB"/>
<path opacity="0.6" d="M121.937 119.011H110.179C109.462 119.011 108.855 119.618 108.855 120.336C108.855 121.054 109.462 121.661 110.179 121.661H121.937C122.655 121.661 123.262 121.054 123.262 120.336C123.262 119.618 122.655 119.011 121.937 119.011Z" fill="#214975"/>
<path opacity="0.6" d="M121.937 115.534H110.179C109.462 115.534 108.855 116.141 108.855 116.858C108.855 117.576 109.462 118.183 110.179 118.183H121.937C122.655 118.183 123.262 117.576 123.262 116.858C123.262 116.141 122.655 115.534 121.937 115.534Z" fill="#214975"/>
<path opacity="0.6" d="M121.937 112.057H110.179C109.462 112.057 108.855 112.664 108.855 113.381C108.855 114.099 109.462 114.706 110.179 114.706H121.937C122.655 114.706 123.262 114.099 123.262 113.381C123.262 112.664 122.655 112.057 121.937 112.057Z" fill="#214975"/>
<path d="M124.471 121.678H129.384V118.973H124.471V121.678Z" fill="#EBEBEB"/>
<path d="M124.471 118.191H129.384V115.486H124.471V118.191Z" fill="#EBEBEB"/>
<path d="M124.471 114.703H129.384V111.999H124.471V114.703Z" fill="#EBEBEB"/>
<path d="M130.189 121.678H135.101V118.973H130.189V121.678Z" fill="#EBEBEB"/>
<path d="M130.189 118.191H135.101V115.486H130.189V118.191Z" fill="#EBEBEB"/>
<path d="M130.189 114.703H135.101V111.999H130.189V114.703Z" fill="#214975"/>
<path d="M166.815 62.4312H178.075C179.787 62.4312 181.222 63.8112 181.222 65.5776V121.054C181.222 122.765 179.842 124.2 178.075 124.2H166.815V62.4312Z" fill="#E0E0E0"/>
<path d="M167.918 62.4312H143.686C141.974 62.4312 140.539 63.8112 140.539 65.5776V121.054C140.539 122.765 141.919 124.2 143.686 124.2H167.918C169.63 124.2 171.065 122.82 171.065 121.054V65.5776C171.065 63.8664 169.685 62.4312 167.918 62.4312Z" fill="white"/>
<path d="M171.12 111.394H140.594V111.946H171.12V111.394Z" fill="#E0E0E0"/>
<path d="M171.12 99.1943H140.594V99.7463H171.12V99.1943Z" fill="#E0E0E0"/>
<path d="M171.12 86.9399H140.594V87.4919H171.12V86.9399Z" fill="#E0E0E0"/>
<path d="M171.12 74.6855H140.594V75.2375H171.12V74.6855Z" fill="#E0E0E0"/>
<path opacity="0.6" d="M155.775 70.7112H145.563C144.9 70.7112 144.403 71.208 144.403 71.8704C144.403 72.5328 144.9 73.0296 145.563 73.0296H155.775C156.437 73.0296 156.934 72.5328 156.934 71.8704C156.934 71.2632 156.437 70.7112 155.775 70.7112Z" fill="#214975"/>
<path opacity="0.6" d="M155.775 67.6753H145.563C144.9 67.6753 144.403 68.1721 144.403 68.8345C144.403 69.4969 144.9 69.9937 145.563 69.9937H155.775C156.437 69.9937 156.934 69.4969 156.934 68.8345C156.934 68.2273 156.437 67.6753 155.775 67.6753Z" fill="#214975"/>
<path opacity="0.6" d="M155.775 64.6392H145.563C144.9 64.6392 144.404 65.136 144.404 65.7984C144.404 66.4608 144.9 66.9576 145.563 66.9576H155.775C156.437 66.9576 156.934 66.4608 156.934 65.7984C156.934 65.1912 156.437 64.6392 155.775 64.6392Z" fill="#214975"/>
<path d="M158.015 115.984H162.265V113.665H158.015V115.984Z" fill="#EBEBEB"/>
<path d="M158.015 119.006H162.265V116.687H158.015V119.006Z" fill="#214975"/>
<path d="M158.015 122.027H162.265V119.709H158.015V122.027Z" fill="#EBEBEB"/>
<path d="M162.965 115.984H167.215V113.665H162.965V115.984Z" fill="#EBEBEB"/>
<path d="M162.965 119.006H167.215V116.687H162.965V119.006Z" fill="#EBEBEB"/>
<path d="M162.965 122.027H167.215V119.709H162.965V122.027Z" fill="#214975"/>
<path d="M155.775 82.9656H145.563C144.9 82.9656 144.403 83.4624 144.403 84.1248C144.403 84.7872 144.9 85.284 145.563 85.284H155.775C156.437 85.284 156.934 84.7872 156.934 84.1248C156.934 83.4624 156.437 82.9656 155.775 82.9656Z" fill="#EBEBEB"/>
<path opacity="0.6" d="M155.775 79.9294H145.563C144.9 79.9294 144.403 80.4262 144.403 81.0886C144.403 81.751 144.9 82.2478 145.563 82.2478H155.775C156.437 82.2478 156.934 81.751 156.934 81.0886C156.934 80.4262 156.437 79.9294 155.775 79.9294Z" fill="#214975"/>
<path opacity="0.6" d="M155.775 76.8936H145.563C144.9 76.8936 144.404 77.3903 144.404 78.0527C144.404 78.7151 144.9 79.212 145.563 79.212H155.775C156.437 79.212 156.934 78.7151 156.934 78.0527C156.934 77.4455 156.437 76.8936 155.775 76.8936Z" fill="#214975"/>
<path d="M158.015 103.7H162.265V101.382H158.015V103.7Z" fill="#EBEBEB"/>
<path d="M158.015 106.722H162.265V104.404H158.015V106.722Z" fill="#EBEBEB"/>
<path d="M158.015 109.799H162.265V107.481H158.015V109.799Z" fill="#214975"/>
<path d="M162.965 103.7H167.215V101.382H162.965V103.7Z" fill="#214975"/>
<path d="M162.965 106.722H167.215V104.404H162.965V106.722Z" fill="#EBEBEB"/>
<path d="M162.965 109.799H167.215V107.481H162.965V109.799Z" fill="#214975"/>
<path opacity="0.6" d="M155.775 95.22H145.563C144.9 95.22 144.403 95.7168 144.403 96.3792C144.403 97.0416 144.9 97.5384 145.563 97.5384H155.775C156.437 97.5384 156.934 97.0416 156.934 96.3792C156.934 95.7168 156.437 95.22 155.775 95.22Z" fill="#214975"/>
<path opacity="0.6" d="M155.775 92.1838H145.563C144.9 92.1838 144.403 92.6806 144.403 93.343C144.403 94.0054 144.9 94.5022 145.563 94.5022H155.775C156.437 94.5022 156.934 94.0054 156.934 93.343C156.934 92.6806 156.437 92.1838 155.775 92.1838Z" fill="#214975"/>
<path opacity="0.6" d="M155.775 89.1479H145.563C144.9 89.1479 144.404 89.6448 144.404 90.3072C144.404 90.9696 144.9 91.4663 145.563 91.4663H155.775C156.437 91.4663 156.934 90.9696 156.934 90.3072C156.934 89.6448 156.437 89.1479 155.775 89.1479Z" fill="#214975"/>
<path d="M158.015 91.4717H162.265V89.1533H158.015V91.4717Z" fill="#214975"/>
<path d="M158.015 94.4937H162.265V92.1753H158.015V94.4937Z" fill="#EBEBEB"/>
<path d="M158.015 97.5154H162.265V95.197H158.015V97.5154Z" fill="#EBEBEB"/>
<path d="M162.965 91.4717H167.215V89.1533H162.965V91.4717Z" fill="#EBEBEB"/>
<path d="M162.965 94.4937H167.215V92.1753H162.965V94.4937Z" fill="#EBEBEB"/>
<path d="M162.965 97.5154H167.215V95.197H162.965V97.5154Z" fill="#214975"/>
<path opacity="0.6" d="M155.775 107.419H145.563C144.9 107.419 144.403 107.916 144.403 108.578C144.403 109.241 144.9 109.738 145.563 109.738H155.775C156.437 109.738 156.934 109.241 156.934 108.578C156.934 107.971 156.437 107.419 155.775 107.419Z" fill="#214975"/>
<path opacity="0.6" d="M155.775 104.438H145.563C144.9 104.438 144.403 104.935 144.403 105.597C144.403 106.26 144.9 106.757 145.563 106.757H155.775C156.437 106.757 156.934 106.26 156.934 105.597C156.934 104.935 156.437 104.438 155.775 104.438Z" fill="#214975"/>
<path opacity="0.6" d="M155.775 101.402H145.563C144.9 101.402 144.403 101.899 144.403 102.562C144.403 103.224 144.9 103.721 145.563 103.721H155.775C156.437 103.721 156.934 103.224 156.934 102.562C156.934 101.899 156.437 101.402 155.775 101.402Z" fill="#214975"/>
<path d="M158.015 79.2432H162.265V76.9248H158.015V79.2432Z" fill="#EBEBEB"/>
<path d="M158.015 82.2651H162.265V79.9467H158.015V82.2651Z" fill="#214975"/>
<path d="M158.015 85.2871H162.265V82.9687H158.015V85.2871Z" fill="#EBEBEB"/>
<path d="M162.965 79.2432H167.215V76.9248H162.965V79.2432Z" fill="#214975"/>
<path d="M162.965 82.2651H167.215V79.9467H162.965V82.2651Z" fill="#EBEBEB"/>
<path d="M162.965 85.2871H167.215V82.9687H162.965V85.2871Z" fill="#EBEBEB"/>
<path opacity="0.6" d="M155.775 119.674H145.563C144.9 119.674 144.403 120.17 144.403 120.833C144.403 121.495 144.9 121.992 145.563 121.992H155.775C156.437 121.992 156.934 121.495 156.934 120.833C156.934 120.226 156.437 119.674 155.775 119.674Z" fill="#214975"/>
<path opacity="0.6" d="M155.775 116.637H145.563C144.9 116.637 144.403 117.134 144.403 117.797C144.403 118.459 144.9 118.956 145.563 118.956H155.775C156.437 118.956 156.934 118.459 156.934 117.797C156.934 117.189 156.437 116.637 155.775 116.637Z" fill="#214975"/>
<path opacity="0.6" d="M155.775 113.602H145.563C144.9 113.602 144.403 114.098 144.403 114.761C144.403 115.423 144.9 115.92 145.563 115.92H155.775C156.437 115.92 156.934 115.423 156.934 114.761C156.934 114.154 156.437 113.602 155.775 113.602Z" fill="#214975"/>
<path d="M158.015 67.0149H162.265V64.6965H158.015V67.0149Z" fill="#214975"/>
<path d="M158.015 70.0369H162.265V67.7185H158.015V70.0369Z" fill="#EBEBEB"/>
<path d="M158.015 73.0588H162.265V70.7404H158.015V73.0588Z" fill="#EBEBEB"/>
<path d="M162.965 67.0149H167.215V64.6965H162.965V67.0149Z" fill="#EBEBEB"/>
<path d="M162.965 70.0369H167.215V67.7185H162.965V70.0369Z" fill="#EBEBEB"/>
<path d="M162.965 73.0588H167.215V70.7404H162.965V73.0588Z" fill="#214975"/>
</svg>
