<svg id="Layer_1" data-name="Layer 1" xmlns="http://www.w3.org/2000/svg" viewBox="0 0 150 75.5"><defs><style>.cls-1{fill:#1c976e;}.cls-2{fill:#214975;}</style></defs><path class="cls-1" d="M110.34,55.8H.53A.52.52,0,0,1,0,55.28v-.15a.52.52,0,0,1,.52-.52H110.34Z"/><path class="cls-1" d="M110.34,58.45H15.89a.52.52,0,0,1-.52-.52v-.15a.52.52,0,0,1,.52-.52h94.45Z"/><path class="cls-1" d="M110.34,61.1H34.09a.52.52,0,0,1-.52-.52v-.15a.52.52,0,0,1,.52-.52h76.25Z"/><path class="cls-2" d="M0,19.31H7.56q9.5,0,13.27,4.48a16.09,16.09,0,0,1,3.79,10.69,19.45,19.45,0,0,1-1.63,8,13.33,13.33,0,0,1-5.36,6,18.48,18.48,0,0,1-9.81,2.31H0ZM8.33,46.49q5.9,0,8.57-3.36a13.12,13.12,0,0,0,2.67-8.44,11.89,11.89,0,0,0-2.69-8.07Q14.2,23.5,8.33,23.5H4.79v23Z"/><path class="cls-2" d="M32.74,49.76A8.57,8.57,0,0,1,29.27,46a11.73,11.73,0,0,1-1.11-5.11,11.09,11.09,0,0,1,1.31-5.47,9,9,0,0,1,3.61-3.61,10.68,10.68,0,0,1,5.21-1.26q4.53,0,6.73,2.5t2.2,7a21.92,21.92,0,0,1-.13,2.39H33a6.07,6.07,0,0,0,1.86,3.76,5.9,5.9,0,0,0,3.87,1.16,14.17,14.17,0,0,0,3.37-.34,11.25,11.25,0,0,0,2.44-.94l1.41,3.29A11,11,0,0,1,43,50.63a16.7,16.7,0,0,1-4.44.52A11.36,11.36,0,0,1,32.74,49.76Zm10-10.45c0-1.77-.36-3-1.16-3.74a4.9,4.9,0,0,0-3.42-1.09q-4.48,0-5.17,4.83Z"/><path class="cls-2" d="M48.93,31.1h5.26L58.42,40l1.37,3.55L61.15,40l4.19-8.85h5.13L60.17,50.72h-.9Z"/><path class="cls-1" d="M80.49,49.16a14.88,14.88,0,0,1-5.75-5.66A16.74,16.74,0,0,1,72.61,35a16.72,16.72,0,0,1,2.13-8.57,14.71,14.71,0,0,1,5.75-5.62,16.77,16.77,0,0,1,15.77,0A14.71,14.71,0,0,1,102,26.38,16.72,16.72,0,0,1,104.15,35,16.75,16.75,0,0,1,102,43.5a14.88,14.88,0,0,1-5.75,5.66,16.62,16.62,0,0,1-15.77,0Zm13.27-3.72a10,10,0,0,0,3.87-4.06A13.4,13.4,0,0,0,99.06,35a13.48,13.48,0,0,0-1.43-6.43,9.89,9.89,0,0,0-3.85-4,10.78,10.78,0,0,0-5.4-1.37A10.9,10.9,0,0,0,83,24.52a9.64,9.64,0,0,0-3.85,4A13.6,13.6,0,0,0,77.69,35a13.17,13.17,0,0,0,1.46,6.39,10,10,0,0,0,3.91,4.06,11,11,0,0,0,10.7,0Z"/><path class="cls-1" d="M109.49,31.1h4.44v3.64a7.86,7.86,0,0,1,7.35-4.15A9,9,0,0,1,128,33.22q2.56,2.63,2.57,7.58a11.33,11.33,0,0,1-1.26,5.43,9.13,9.13,0,0,1-8.23,4.92,9.88,9.88,0,0,1-4.3-.88,6.77,6.77,0,0,1-2.84-2.5l0,13.33h-4.48Zm14.78,14.38a6.8,6.8,0,0,0,1.5-4.55,6.89,6.89,0,0,0-1.47-4.63,5.34,5.34,0,0,0-4.3-1.74,5.78,5.78,0,0,0-2.88.75A5.5,5.5,0,0,0,115,37.45a6.36,6.36,0,0,0-.79,3.23V41a6.6,6.6,0,0,0,.79,3.27,5.82,5.82,0,0,0,2.11,2.23,5.68,5.68,0,0,0,2.91.79A5.25,5.25,0,0,0,124.27,45.48Z"/><path class="cls-1" d="M138,50.61a8.48,8.48,0,0,1-3.14-1.26l1.54-3.63a10,10,0,0,0,5.85,1.79c2.2,0,3.29-.64,3.29-1.92a1.51,1.51,0,0,0-.68-1.32,11.83,11.83,0,0,0-2.44-1.12l-1.62-.59a12.77,12.77,0,0,1-4.06-2.46,5,5,0,0,1-1.5-3.78,4.89,4.89,0,0,1,2.12-4.21A9.54,9.54,0,0,1,143,30.59a15.77,15.77,0,0,1,3.44.38A8,8,0,0,1,149,32l-1.67,3.67a4.53,4.53,0,0,0-1.77-1,8.63,8.63,0,0,0-2.72-.4q-3,0-3,1.83a1.74,1.74,0,0,0,.81,1.56,12.86,12.86,0,0,0,2.65,1.18c.11,0,.56.18,1.33.47a11.48,11.48,0,0,1,4.06,2.43A4.86,4.86,0,0,1,150,45.25a5,5,0,0,1-2.2,4.4,9.71,9.71,0,0,1-5.58,1.5A17.81,17.81,0,0,1,138,50.61Z"/></svg>