<svg width="309" height="108" viewBox="0 0 309 108" fill="none" xmlns="http://www.w3.org/2000/svg">
<path d="M166.855 73.4278H148.817C148.592 73.4278 148.441 73.2775 148.441 73.0521C148.441 72.8266 148.592 72.6763 148.817 72.6763H166.855C167.08 72.6763 167.231 72.8266 167.231 73.0521C167.231 73.2024 167.08 73.4278 166.855 73.4278Z" fill="black"/>
<path d="M51.6398 95.2233H53.8193H56.074L54.7212 97.1022H52.9926L51.6398 95.2233Z" fill="#094F8E"/>
<path d="M52.9172 97.1022H54.721L53.8191 98.1544L52.9172 97.1022Z" fill="#1C976E"/>
<path d="M40.1407 108C39.9153 108 39.6146 107.925 39.4643 107.775C39.0885 107.474 38.9382 106.948 39.0885 106.497C39.1637 106.422 39.0886 106.271 39.0134 106.196C38.9382 106.121 38.8631 106.046 38.7128 106.046H28.3412C28.266 106.046 28.266 106.046 28.1909 106.046H24.8088C24.2076 106.046 23.6815 105.52 23.6815 104.919V74.7057C23.6815 74.1044 24.2076 73.5783 24.8088 73.5783L48.3328 73.5032C48.6334 73.5032 48.9341 73.6535 49.0844 73.8038C49.3098 74.0293 49.385 74.2547 49.385 74.5554V91.0898C49.385 91.165 49.385 91.165 49.385 91.2401V104.843C49.385 105.445 48.8589 105.971 48.2576 105.971H43.5979C43.5228 105.971 43.4476 105.971 43.3725 106.046L40.6668 107.775C40.5917 107.925 40.3662 108 40.1407 108ZM28.4915 105.294H38.7879C39.1637 105.294 39.4643 105.445 39.6898 105.745C39.9153 106.046 39.9153 106.422 39.8401 106.798C39.765 107.023 39.9153 107.173 39.9153 107.173C39.9904 107.248 40.1407 107.324 40.3662 107.173L43.0718 105.445C43.2222 105.294 43.4476 105.294 43.6731 105.294H48.3328C48.5583 105.294 48.7086 105.144 48.7086 104.919V91.4656C48.7086 91.3904 48.7086 91.3904 48.7086 91.3153V74.6305C48.7086 74.5554 48.7086 74.4802 48.6334 74.4051C48.5583 74.3299 48.4831 74.3299 48.408 74.3299H24.8088C24.5833 74.3299 24.433 74.4802 24.433 74.7057V104.919C24.433 105.144 24.5833 105.294 24.8088 105.294H28.266C28.3412 105.219 28.4163 105.219 28.4915 105.294Z" fill="black"/>
<path d="M28.1156 86.881H14.0613C13.0091 86.881 12.1824 86.0542 12.1824 85.002V72.3757C12.1824 71.3235 13.0091 70.4968 14.0613 70.4968H28.0404C29.0926 70.4968 29.9193 71.3235 29.9193 72.3757V84.9269C29.9945 85.9791 29.1678 86.881 28.1156 86.881Z" fill="#1C976E"/>
<path d="M23.0804 81.0187H19.6232L18.9468 82.8976C18.7965 83.1982 18.4959 83.4237 18.1953 83.4237C18.1201 83.4237 18.045 83.4237 17.8946 83.3485C17.5189 83.1982 17.2934 82.7473 17.4437 82.2963L20.6003 73.954C20.7506 73.6533 21.0512 73.4279 21.3518 73.4279C21.6525 73.4279 21.9531 73.5782 22.1034 73.954L25.26 82.2963C25.4103 82.6721 25.1848 83.1982 24.809 83.3485C24.7339 83.3485 24.6587 83.4237 24.5084 83.4237C24.2078 83.4237 23.9072 83.2734 23.7569 82.8976L23.0804 81.0187ZM22.4792 79.4404L21.3518 76.359L20.2245 79.4404H22.4792Z" fill="white"/>
<path d="M45.1762 78.4634H32.5499C32.3244 78.4634 32.1741 78.313 32.1741 78.0876C32.1741 77.8621 32.3244 77.7118 32.5499 77.7118H45.1762C45.4016 77.7118 45.5519 77.8621 45.5519 78.0876C45.5519 78.313 45.3265 78.4634 45.1762 78.4634Z" fill="black"/>
<path d="M45.1762 81.3193H32.5499C32.3244 81.3193 32.1741 81.169 32.1741 80.9435C32.1741 80.7181 32.3244 80.5677 32.5499 80.5677H45.1762C45.4016 80.5677 45.5519 80.7181 45.5519 80.9435C45.5519 81.169 45.3265 81.3193 45.1762 81.3193Z" fill="black"/>
<path d="M45.1762 84.1753H32.5499C32.3244 84.1753 32.1741 84.025 32.1741 83.7995C32.1741 83.574 32.3244 83.4237 32.5499 83.4237H45.1762C45.4016 83.4237 45.5519 83.574 45.5519 83.7995C45.5519 84.025 45.3265 84.1753 45.1762 84.1753Z" fill="black"/>
<path d="M45.1762 87.0312H32.5499C32.3244 87.0312 32.1741 86.8809 32.1741 86.6554C32.1741 86.43 32.3244 86.2797 32.5499 86.2797H45.1762C45.4016 86.2797 45.5519 86.43 45.5519 86.6554C45.5519 86.8809 45.3265 87.0312 45.1762 87.0312Z" fill="black"/>
<path d="M45.1763 89.8873H27.6648C27.4393 89.8873 27.289 89.737 27.289 89.5115C27.289 89.2861 27.4393 89.1357 27.6648 89.1357H45.1763C45.4018 89.1357 45.5521 89.2861 45.5521 89.5115C45.5521 89.737 45.3266 89.8873 45.1763 89.8873Z" fill="black"/>
<path d="M45.1763 92.7433H27.6648C27.4393 92.7433 27.289 92.593 27.289 92.3675C27.289 92.142 27.4393 91.9917 27.6648 91.9917H45.1763C45.4018 91.9917 45.5521 92.142 45.5521 92.3675C45.5521 92.5178 45.3266 92.7433 45.1763 92.7433Z" fill="black"/>
<path d="M45.1763 95.5991H27.6648C27.4393 95.5991 27.289 95.4488 27.289 95.2233C27.289 94.9978 27.4393 94.8475 27.6648 94.8475H45.1763C45.4018 94.8475 45.5521 94.9978 45.5521 95.2233C45.5521 95.3736 45.3266 95.5991 45.1763 95.5991Z" fill="black"/>
<path d="M45.1763 98.38H27.6648C27.4393 98.38 27.289 98.2297 27.289 98.0042C27.289 97.7787 27.4393 97.6284 27.6648 97.6284H45.1763C45.4018 97.6284 45.5521 97.7787 45.5521 98.0042C45.5521 98.2297 45.3266 98.38 45.1763 98.38Z" fill="black"/>
<path d="M80.0491 101.987H55.7735C55.548 101.987 55.3977 101.837 55.3977 101.612C55.3977 101.386 55.548 101.236 55.7735 101.236H80.0491C80.2746 101.236 80.4249 101.386 80.4249 101.612C80.4249 101.837 80.1994 101.987 80.0491 101.987Z" fill="#1C976E"/>
<path d="M56.074 95.2234V71.1733C56.074 70.4969 55.5479 69.8956 54.7964 69.8956H52.8423C52.1659 69.8956 51.5646 70.4217 51.5646 71.1733V95.2234H56.074Z" fill="#094F8E"/>
<path d="M55.0218 69.8956H52.692V95.2234H55.0218V69.8956Z" fill="#214975"/>
<path d="M232.316 54.7139C231.564 54.7139 230.813 54.4132 230.287 53.8871C229.761 53.361 229.46 52.6095 229.46 51.8579C229.46 51.1063 229.761 50.3548 230.287 49.8287C230.813 49.3026 231.564 49.002 232.316 49.002C233.067 49.002 233.819 49.3026 234.345 49.8287C234.946 50.3548 235.247 51.1063 235.247 51.8579C235.247 52.6095 234.946 53.361 234.42 53.8871C233.819 54.4132 233.143 54.7139 232.316 54.7139ZM232.316 49.6784C231.113 49.6784 230.136 50.6554 230.136 51.8579C230.136 52.4592 230.362 52.9853 230.738 53.361C231.113 53.7368 231.715 53.9623 232.241 53.9623C232.842 53.9623 233.368 53.7368 233.744 53.361C234.12 52.9853 234.345 52.384 234.345 51.8579C234.345 51.2567 234.12 50.7306 233.744 50.3548C233.443 49.9038 232.917 49.6784 232.316 49.6784Z" fill="#D6DEE7"/>
<path d="M252.383 47.6493C251.631 47.6493 250.88 47.3486 250.354 46.8226C249.828 46.2965 249.527 45.5449 249.527 44.7933C249.527 44.0418 249.828 43.2902 250.354 42.7641C250.88 42.238 251.631 41.9374 252.383 41.9374C253.134 41.9374 253.886 42.238 254.412 42.7641C254.938 43.2902 255.239 44.0418 255.239 44.7933C255.239 45.5449 254.938 46.2965 254.412 46.8226C253.886 47.3486 253.134 47.6493 252.383 47.6493ZM252.383 42.6138C251.782 42.6138 251.256 42.8393 250.88 43.215C250.504 43.5908 250.279 44.1921 250.279 44.7182C250.279 45.9207 251.256 46.8977 252.458 46.8977C253.661 46.8977 254.638 45.9207 254.638 44.7182C254.487 43.5908 253.51 42.6138 252.383 42.6138Z" fill="#D6DEE7"/>
<path d="M252.233 54.263C251.256 54.263 250.429 53.4363 250.429 52.4593C250.429 52.0083 250.579 51.5574 250.955 51.1816C251.256 50.881 251.706 50.6555 252.233 50.6555C253.21 50.6555 254.036 51.4822 253.961 52.4593C253.961 52.9102 253.811 53.3612 253.435 53.7369C253.134 54.1127 252.684 54.263 252.233 54.263ZM252.233 51.4822C251.932 51.4822 251.706 51.5574 251.481 51.7829C251.256 52.0083 251.18 52.2338 251.18 52.5344C251.18 53.0605 251.631 53.5866 252.157 53.5866C252.458 53.5866 252.684 53.5115 252.909 53.286C253.134 53.0605 253.21 52.8351 253.21 52.5344C253.285 51.9332 252.834 51.4822 252.233 51.4822Z" fill="#D6DEE7"/>
<path d="M78.5458 57.0438C77.5688 57.0438 76.742 56.2171 76.742 55.24C76.742 54.7891 76.8924 54.3382 77.2681 53.9624C77.5688 53.6618 78.0197 53.4363 78.5458 53.4363C79.5228 53.4363 80.3496 54.263 80.2744 55.24C80.3496 56.2171 79.5228 57.0438 78.5458 57.0438ZM78.5458 54.263C78.2452 54.263 78.0197 54.3382 77.7942 54.5636C77.5688 54.7891 77.4936 55.0146 77.4936 55.3152C77.4936 55.8413 77.9445 56.3674 78.4706 56.3674C78.9967 56.3674 79.5228 55.9164 79.5228 55.3903C79.598 54.7139 79.1471 54.263 78.5458 54.263Z" fill="#D6DEE7"/>
<path d="M66.8215 94.4716C65.8444 94.4716 65.0177 93.6449 65.0177 92.6679C65.0177 92.217 65.168 91.766 65.5438 91.3902C65.8444 91.0896 66.2954 90.8641 66.8215 90.8641C67.2724 90.8641 67.7233 91.0144 68.0991 91.3902C68.3998 91.6909 68.6252 92.1418 68.6252 92.6679C68.5501 93.6449 67.7985 94.4716 66.8215 94.4716ZM66.8215 91.6157C66.5208 91.6157 66.2954 91.6909 66.0699 91.9163C65.8444 92.1418 65.7693 92.3673 65.7693 92.6679C65.7693 93.194 66.2202 93.7201 66.7463 93.7201C67.2724 93.7201 67.7985 93.2691 67.7985 92.743C67.7985 92.4424 67.7233 92.217 67.4979 91.9915C67.3476 91.766 67.1221 91.6157 66.8215 91.6157Z" fill="#D6DEE7"/>
<path d="M103.497 77.4864C102.52 77.4864 101.694 76.6597 101.694 75.6827C101.694 75.2317 101.844 74.7808 102.22 74.405C102.52 74.1044 102.971 73.8789 103.497 73.8789C104.024 73.8789 104.399 74.0292 104.775 74.405C105.076 74.7056 105.301 75.1566 105.301 75.6827C105.301 76.1336 105.151 76.5845 104.775 76.9603C104.399 77.3361 103.948 77.4864 103.497 77.4864ZM103.497 74.7056C103.197 74.7056 102.971 74.7808 102.746 75.0063C102.52 75.2317 102.445 75.4572 102.445 75.7578C102.445 76.2839 102.896 76.81 103.422 76.81C103.723 76.81 103.948 76.7349 104.174 76.5094C104.399 76.2839 104.474 76.0584 104.474 75.7578C104.474 75.4572 104.399 75.2317 104.174 75.0063C104.024 74.7808 103.798 74.7056 103.497 74.7056Z" fill="#D6DEE7"/>
<path d="M98.1617 57.2693C97.335 57.2693 96.7337 56.5929 96.7337 55.8413C96.7337 55.0146 97.4101 54.4133 98.1617 54.4133C98.9884 54.4133 99.5897 55.0897 99.5897 55.8413C99.5897 56.5929 98.9884 57.2693 98.1617 57.2693ZM98.1617 55.0897C97.7859 55.0897 97.4853 55.3904 97.4853 55.7661C97.4853 56.1419 97.7859 56.4426 98.1617 56.4426C98.5375 56.4426 98.8381 56.1419 98.8381 55.7661C98.8381 55.4655 98.5375 55.0897 98.1617 55.0897Z" fill="black"/>
<path d="M99.0632 22.0961H78.9213C76.9672 22.0961 75.3889 23.6744 75.3889 25.6284C75.3889 27.5825 76.9672 29.1608 78.9213 29.1608H85.6853H85.7605C85.6102 28.9353 85.4599 28.6347 85.4599 28.3341C85.4599 27.5073 86.1363 26.9061 86.8878 26.9061H87.3388C88.1655 26.9061 88.7668 27.5825 88.7668 28.3341C88.7668 28.6347 88.6916 28.9353 88.4661 29.1608H89.368H98.9881C100.942 29.1608 102.52 27.5825 102.52 25.6284C102.52 23.6744 100.942 22.0961 99.0632 22.0961Z" fill="#1C976E"/>
<path d="M96.6582 26.0794H81.3263C81.1008 26.0794 80.9505 25.9291 80.9505 25.7037C80.9505 25.4782 81.1008 25.3279 81.3263 25.3279H96.6582C96.8837 25.3279 97.034 25.4782 97.034 25.7037C97.034 25.9291 96.8837 26.0794 96.6582 26.0794Z" fill="white"/>
<path d="M99.2135 58.998H88.3158C87.2636 58.998 86.4369 58.2465 86.4369 57.3446V54.4886C86.4369 53.5868 87.2636 52.8352 88.3158 52.8352H99.2135C100.266 52.8352 101.092 53.5868 101.092 54.4886V57.3446C101.092 58.2465 100.266 58.998 99.2135 58.998ZM88.391 53.5116C87.7897 53.5116 87.2636 53.8874 87.2636 54.4135V57.2694C87.2636 57.7955 87.7897 58.1713 88.391 58.1713H99.2135C99.8148 58.1713 100.341 57.7955 100.341 57.2694V54.4135C100.341 53.8874 99.8148 53.5116 99.2135 53.5116H88.391Z" fill="black"/>
<path d="M99.4391 51.3319H88.1656L88.0905 51.1816C88.0153 51.1065 84.2575 45.7704 78.3201 44.3424C77.4182 44.0418 76.8922 43.1399 77.1176 42.1628C77.2679 41.261 78.0947 40.2839 79.8233 40.5094C81.4767 40.7349 83.4308 41.3361 85.1594 42.0125V36.3758V36.3006V28.1837C85.1594 27.0564 86.0612 26.0793 87.2638 26.0793C88.3911 26.0793 89.3681 26.9812 89.3681 28.1837V34.3466C89.7439 34.0459 90.1949 33.8956 90.721 33.8956C91.3974 33.8956 92.0738 34.2714 92.4496 34.7975C92.8253 34.2714 93.4266 33.8956 94.1782 33.8956C94.8546 33.8956 95.531 34.2714 95.9068 34.7975C96.2825 34.2714 96.8838 33.8956 97.6354 33.8956C98.6124 33.8956 99.5143 34.572 99.6646 35.6242C99.6646 35.6994 99.6646 35.7745 99.6646 35.8497V35.9249V51.3319H99.4391ZM88.5414 50.5804H98.6876V35.7745C98.6876 35.6994 98.6876 35.6994 98.6876 35.6242C98.6124 35.023 98.0111 34.572 97.4099 34.572C96.8838 34.572 96.3577 34.8727 96.2074 35.3988C96.1322 35.5491 96.1322 35.6994 96.1322 35.7745H95.3807C95.3807 35.0981 94.7794 34.4969 94.103 34.4969C93.6521 34.4969 93.2011 34.7223 92.9756 35.1733C92.9756 35.2484 92.9005 35.2484 92.9005 35.2484C92.8253 35.3988 92.7502 35.5491 92.7502 35.6994H91.9986C91.9235 35.023 91.3974 34.4969 90.721 34.4969C90.27 34.4969 89.8191 34.7223 89.5936 35.1733C89.5184 35.3236 89.4433 35.4739 89.4433 35.6994L88.6917 35.6242V28.1086C88.6917 27.357 88.0905 26.7558 87.3389 26.7558C86.5873 26.7558 85.9861 27.357 85.9861 28.1086V43.1399L85.46 42.9144C83.6562 42.0877 81.5519 41.4113 79.8233 41.1858C78.6208 41.0355 78.0947 41.6368 78.0195 42.238C77.9443 42.7641 78.0947 43.3654 78.6959 43.5908C84.1072 44.9436 87.865 49.6033 88.5414 50.5804Z" fill="black"/>
<path d="M98.8379 53.5116H88.8421C87.9402 53.5116 87.1887 52.8352 87.1887 52.0085C87.1887 51.1818 87.9402 50.5054 88.8421 50.5054H98.8379C99.7398 50.5054 100.491 51.1818 100.491 52.0085C100.491 52.8352 99.7398 53.5116 98.8379 53.5116ZM88.767 51.2569C88.2409 51.2569 87.8651 51.5576 87.8651 52.0085C87.8651 52.3843 88.316 52.7601 88.767 52.7601H98.7628C99.2889 52.7601 99.6647 52.4594 99.6647 52.0085C99.6647 51.6327 99.2137 51.2569 98.7628 51.2569H88.767Z" fill="black"/>
<path d="M88.9172 54.9396H88.1657V56.9688H88.9172V54.9396Z" fill="black"/>
<path d="M87.1134 19.7662C86.8879 19.7662 86.7376 19.6159 86.7376 19.3904V14.8058C86.7376 14.5804 86.8879 14.4301 87.1134 14.4301C87.3389 14.4301 87.4892 14.5804 87.4892 14.8058V19.3904C87.4892 19.6159 87.3389 19.7662 87.1134 19.7662Z" fill="#D6DEE7"/>
<path d="M89.3682 19.7663C89.293 19.7663 89.1427 19.6911 89.0675 19.616C88.9172 19.4656 88.9924 19.2402 89.1427 19.0899L92.7502 16.2339C92.9005 16.0836 93.126 16.1588 93.2763 16.3091C93.4266 16.4594 93.3515 16.6848 93.2011 16.8352L89.5936 19.6911C89.5185 19.7663 89.4433 19.7663 89.3682 19.7663Z" fill="#D6DEE7"/>
<path d="M84.9338 19.7663C84.8587 19.7663 84.7835 19.7663 84.7084 19.6911L81.1008 16.8352C80.9505 16.6848 80.8754 16.4594 81.0257 16.3091C81.176 16.1588 81.4015 16.0836 81.5518 16.2339L85.1593 19.0899C85.3096 19.2402 85.3848 19.4656 85.2345 19.616C85.1593 19.7663 85.0841 19.7663 84.9338 19.7663Z" fill="#D6DEE7"/>
<path d="M294.546 56.6681C294.095 56.6681 290.638 56.6681 289.886 55.6911H289.736V55.3153V53.3612H299.356V55.3153C299.356 56.5929 295.072 56.6681 294.546 56.6681ZM290.487 55.165C290.638 55.4656 291.99 55.9165 294.546 55.9165C297.026 55.9165 298.379 55.4656 298.604 55.2401V54.1128H290.487V55.165Z" fill="#D6DEE7"/>
<path d="M298.98 53.737C298.98 54.3383 297.026 54.7892 294.546 54.7892C292.065 54.7892 290.111 54.3383 290.111 53.737C290.111 53.1358 292.065 52.6848 294.546 52.6848C297.026 52.76 298.98 53.2109 298.98 53.737Z" fill="white"/>
<path d="M294.546 55.1649C294.02 55.1649 289.736 55.0898 289.736 53.7369C289.736 52.3841 294.095 52.309 294.546 52.309C295.072 52.309 299.356 52.3841 299.356 53.7369C299.356 55.0898 294.997 55.1649 294.546 55.1649ZM290.487 53.7369C290.788 53.9624 292.141 54.4133 294.546 54.4133C296.875 54.4133 298.303 54.0376 298.604 53.7369C298.303 53.5115 296.951 53.0605 294.546 53.0605C292.141 53.1357 290.788 53.5115 290.487 53.7369Z" fill="#D6DEE7"/>
<path d="M304.166 60.6514C303.715 60.6514 300.258 60.6514 299.506 59.6743H299.356V59.2986V57.3445H308.976V59.2986C308.976 60.6514 304.617 60.6514 304.166 60.6514ZM300.032 59.1482C300.182 59.4489 301.535 59.8998 304.09 59.8998C306.571 59.8998 307.923 59.4489 308.149 59.2234V58.096H300.032V59.1482Z" fill="#D6DEE7"/>
<path d="M308.6 57.7954C308.6 58.3966 306.646 58.8475 304.166 58.8475C301.686 58.8475 299.731 58.3966 299.731 57.7954C299.731 57.1941 301.686 56.7432 304.166 56.7432C306.571 56.7432 308.6 57.1941 308.6 57.7954Z" fill="white"/>
<path d="M304.091 59.1483C303.565 59.1483 299.281 59.0732 299.281 57.7203C299.281 56.3675 303.64 56.2924 304.091 56.2924C304.617 56.2924 308.901 56.3675 308.901 57.7203C308.976 59.1483 304.617 59.1483 304.091 59.1483ZM300.107 57.7955C300.408 58.021 301.911 58.4719 304.166 58.4719C306.421 58.4719 307.849 58.0961 308.224 57.7955C307.924 57.57 306.571 57.1191 304.166 57.1191C301.836 57.1191 300.408 57.4949 300.107 57.7955Z" fill="#D6DEE7"/>
<path d="M296.951 65.9874C296.5 65.9874 293.043 65.9874 292.291 65.0104H292.141V64.6346V62.6805H301.761V64.6346C301.761 65.9874 297.402 65.9874 296.951 65.9874ZM292.817 64.4843C292.967 64.7849 294.471 65.2359 296.876 65.2359C299.356 65.2359 300.709 64.7849 300.934 64.5595V63.4321H292.817V64.4843Z" fill="#D6DEE7"/>
<path d="M301.385 63.1315C301.385 63.7328 299.431 64.1837 296.951 64.1837C294.471 64.1837 292.517 63.7328 292.517 63.1315C292.517 62.5303 294.471 62.0793 296.951 62.0793C299.356 62.0793 301.385 62.5303 301.385 63.1315Z" fill="white"/>
<path d="M296.876 64.4844C296.349 64.4844 292.066 64.4092 292.066 63.0564C292.066 61.7036 296.425 61.6284 296.876 61.6284C297.402 61.6284 301.686 61.7036 301.686 63.0564C301.761 64.4844 297.402 64.4844 296.876 64.4844ZM292.892 63.1315C293.193 63.357 294.546 63.808 296.951 63.808C299.281 63.808 300.709 63.4322 301.009 63.1315C300.709 62.9061 299.205 62.4551 296.951 62.4551C294.621 62.4551 293.193 62.8309 292.892 63.1315Z" fill="#D6DEE7"/>
<path d="M37.7359 5.86228H28.2662C28.0407 5.86228 27.8904 5.71197 27.8904 5.4865C27.8904 5.26103 28.0407 5.11072 28.2662 5.11072H37.7359C37.9614 5.11072 38.1117 5.26103 38.1117 5.4865C38.1117 5.63681 37.8862 5.86228 37.7359 5.86228Z" fill="#D6DEE7"/>
<path d="M40.3663 10.597H30.8965C30.6711 10.597 30.5208 10.4467 30.5208 10.2212C30.5208 9.99577 30.6711 9.84546 30.8965 9.84546H40.3663C40.5917 9.84546 40.742 9.99577 40.742 10.2212C40.742 10.3716 40.5166 10.597 40.3663 10.597Z" fill="#D6DEE7"/>
<path d="M52.5416 7.96653H47.2806C47.0552 7.96653 46.9049 7.81622 46.9049 7.59075C46.9049 7.36528 47.0552 7.21497 47.2806 7.21497H52.5416C52.7671 7.21497 52.9174 7.36528 52.9174 7.59075C52.9174 7.81622 52.7671 7.96653 52.5416 7.96653Z" fill="#D6DEE7"/>
<path d="M43.5979 7.96653H34.7294C34.5039 7.96653 34.3536 7.81622 34.3536 7.59075C34.3536 7.36528 34.5039 7.21497 34.7294 7.21497H43.5979C43.8233 7.21497 43.9736 7.36528 43.9736 7.59075C43.9736 7.81622 43.8233 7.96653 43.5979 7.96653Z" fill="#D6DEE7"/>
<path d="M57.8026 104.618L55.2473 101.687L57.8026 104.618Z" fill="white"/>
<path d="M57.8028 104.994C57.7277 104.994 57.5774 104.919 57.5022 104.844L54.9469 101.912C54.7966 101.762 54.7966 101.537 54.9469 101.386C55.0972 101.236 55.3227 101.236 55.473 101.386L58.0283 104.317C58.1786 104.468 58.1786 104.693 58.0283 104.844C57.9531 104.919 57.878 104.994 57.8028 104.994Z" fill="#1C976E"/>
<path d="M57.8026 98.8309L55.2473 101.762L57.8026 98.8309Z" fill="white"/>
<path d="M55.2485 102.063C55.1734 102.063 55.0982 102.063 55.0231 101.987C54.8727 101.837 54.8727 101.612 55.0231 101.461L57.5784 98.5302C57.7287 98.3799 57.9542 98.3799 58.1045 98.5302C58.2548 98.6805 58.2548 98.906 58.1045 99.0563L55.5492 101.987C55.474 102.063 55.3237 102.063 55.2485 102.063Z" fill="#1C976E"/>
<path d="M48.4078 66.4383H47.1302C46.6041 66.4383 46.1532 65.9874 46.1532 65.3861V60.5761C46.1532 59.9749 46.6041 59.5239 47.1302 59.5239H48.4078C48.9339 59.5239 49.3849 59.9749 49.3849 60.5761V65.3861C49.3097 65.9874 48.9339 66.4383 48.4078 66.4383ZM47.1302 60.2755C47.055 60.2755 46.9047 60.4258 46.9047 60.5761V65.3861C46.9047 65.5365 46.9799 65.6868 47.1302 65.6868H48.4078C48.483 65.6868 48.6333 65.5365 48.6333 65.3861V60.5761C48.6333 60.4258 48.5582 60.2755 48.4078 60.2755H47.1302Z" fill="#D6DEE7"/>
<path d="M48.8588 65.6115C48.6334 65.6115 48.483 65.4612 48.483 65.2357V60.5009C48.483 60.3506 48.5582 60.2754 48.6334 60.2002C48.6334 60.2002 50.9632 58.5468 51.5645 55.9915C51.7148 55.4654 52.2409 55.1647 52.767 55.3151C53.2931 55.3902 53.744 55.9163 53.6688 56.743C53.5937 57.4194 53.3682 58.171 53.0676 58.8474H55.4726C55.6981 58.8474 55.9235 58.9226 56.0739 59.0729C56.3745 59.2984 56.5999 59.599 56.5999 59.9748C56.5999 60.2754 56.5248 60.5009 56.2993 60.7263C56.4496 60.9518 56.5999 61.1773 56.5999 61.4779C56.5999 61.7785 56.5248 62.004 56.2993 62.2295C56.4496 62.4549 56.5999 62.6804 56.5999 62.981C56.5999 63.2817 56.5248 63.5071 56.2993 63.7326C56.4496 63.9581 56.5999 64.1835 56.5999 64.4842C56.5999 65.0103 56.2242 65.5364 55.6981 65.6115C55.6229 65.6115 55.6229 65.6115 55.5478 65.6115H48.8588ZM49.2346 64.8599H55.6229C55.8484 64.7848 55.9987 64.6345 55.9987 64.4842C55.9987 64.3338 55.9235 64.1835 55.7732 64.1084C55.6981 64.1084 55.6981 64.1084 55.6229 64.1084C55.3974 64.1084 55.2471 63.9581 55.2471 63.7326C55.2471 63.5071 55.3974 63.3568 55.6229 63.3568C55.8484 63.3568 55.9987 63.2065 55.9987 62.981C55.9987 62.8307 55.9235 62.7556 55.7732 62.6804V62.6052C55.7732 62.6052 55.7732 62.6052 55.6981 62.6052H55.6229C55.3974 62.6052 55.2471 62.4549 55.2471 62.2295C55.2471 62.004 55.3974 61.8537 55.6229 61.8537C55.8484 61.8537 55.9987 61.7034 55.9987 61.4779C55.9987 61.3276 55.9235 61.2524 55.7732 61.1773C55.6981 61.1773 55.6981 61.1021 55.6229 61.1021C55.3974 61.1021 55.2471 60.9518 55.2471 60.7263C55.2471 60.5009 55.3974 60.3506 55.6229 60.3506C55.8484 60.3506 55.9235 60.2002 55.9235 59.9748C55.9235 59.8245 55.8484 59.7493 55.7732 59.6741C55.6981 59.599 55.6229 59.599 55.5478 59.599H52.5415C52.3912 59.599 52.316 59.5238 52.2409 59.4487C52.1657 59.3735 52.1657 59.2232 52.2409 59.0729C52.6167 58.3213 52.9173 57.3443 52.9924 56.5927C52.9924 56.2921 52.9173 56.0666 52.6918 55.9915C52.5415 55.9915 52.3912 55.9915 52.316 56.1418C51.7148 58.5468 49.8359 60.2002 49.2346 60.6512V64.8599Z" fill="#D6DEE7"/>
<path d="M51.2639 35.6994V25.4029C51.2639 24.6514 50.6626 23.975 49.8359 23.975H29.5436C28.7921 23.975 28.1156 24.5762 28.1156 25.4029V39.3069C28.1156 40.0585 28.7169 40.7349 29.5436 40.7349H35.03L38.5624 42.9896C39.1637 43.3654 39.8401 42.7641 39.6146 42.1629L39.0885 40.7349H47.0551L51.2639 35.6994Z" fill="#094F8E"/>
<path d="M69.527 36.0001H48.0322C47.5813 36.0001 47.2055 36.3759 47.2055 36.8268V51.9333C47.2055 52.3842 47.5813 52.76 48.0322 52.76H58.9299C59.5312 52.76 59.907 53.3613 59.6815 53.8874L59.5312 54.2632C59.3057 54.8644 59.9821 55.4657 60.5834 55.0899L63.9654 52.9103C64.1157 52.8352 64.266 52.76 64.4164 52.76H69.6022C70.0531 52.76 70.4289 52.3842 70.4289 51.9333V36.8268C70.3537 36.3759 69.9779 36.0001 69.527 36.0001Z" fill="#214975"/>
<path d="M65.3179 41.7871H52.9171C52.6916 41.7871 52.5413 41.6368 52.5413 41.4113C52.5413 41.1858 52.6916 41.0355 52.9171 41.0355H65.3179C65.5434 41.0355 65.6937 41.1858 65.6937 41.4113C65.6937 41.6368 65.5434 41.7871 65.3179 41.7871Z" fill="black"/>
<path d="M65.3179 44.7934H52.9171C52.6916 44.7934 52.5413 44.6431 52.5413 44.4177C52.5413 44.1922 52.6916 44.0419 52.9171 44.0419H65.3179C65.5434 44.0419 65.6937 44.1922 65.6937 44.4177C65.6937 44.6431 65.5434 44.7934 65.3179 44.7934Z" fill="black"/>
<path d="M59.9067 47.875H52.9171C52.6916 47.875 52.5413 47.7247 52.5413 47.4992C52.5413 47.2737 52.6916 47.1234 52.9171 47.1234H59.9067C60.1321 47.1234 60.2824 47.2737 60.2824 47.4992C60.2824 47.7247 60.1321 47.875 59.9067 47.875Z" fill="black"/>
<path d="M45.9276 29.3111H33.4516C33.2262 29.3111 33.0759 29.1608 33.0759 28.9354C33.0759 28.7099 33.2262 28.5596 33.4516 28.5596H45.8525C46.0779 28.5596 46.2282 28.7099 46.2282 28.9354C46.3034 29.1608 46.0779 29.3111 45.9276 29.3111Z" fill="white"/>
<path d="M45.9276 32.3926H33.4516C33.2262 32.3926 33.0759 32.2422 33.0759 32.0168C33.0759 31.7913 33.2262 31.641 33.4516 31.641H45.8525C46.0779 31.641 46.2282 31.7913 46.2282 32.0168C46.3034 32.2422 46.0779 32.3926 45.9276 32.3926Z" fill="white"/>
<path d="M40.5164 35.3988H33.5268C33.3013 35.3988 33.151 35.2485 33.151 35.023C33.151 34.7975 33.3013 34.6472 33.5268 34.6472H40.5164C40.7418 34.6472 40.8922 34.7975 40.8922 35.023C40.8922 35.2485 40.6667 35.3988 40.5164 35.3988Z" fill="white"/>
<path d="M28.5665 44.7933H22.7043C22.4788 44.7933 22.3285 44.9436 22.3285 45.1691V49.1524C22.3285 49.3779 22.4788 49.5282 22.7043 49.5282H24.2826L25.3348 50.2046C25.4851 50.2798 25.7106 50.1295 25.6354 49.9791L25.4851 49.6034H28.5665C28.792 49.6034 28.9423 49.453 28.9423 49.2276V45.2443C29.0175 44.9436 28.792 44.7933 28.5665 44.7933Z" fill="#D6DEE7"/>
<path d="M54.3451 28.3342H60.3577C60.5831 28.3342 60.7335 28.4845 60.7335 28.71V32.8436C60.7335 33.0691 60.5831 33.2194 60.3577 33.2194H58.7042L57.652 33.8958C57.5017 33.971 57.2763 33.8207 57.3514 33.6703L57.5017 33.2194H54.27C54.0445 33.2194 53.8942 33.0691 53.8942 32.8436V28.71C53.9694 28.4845 54.1197 28.3342 54.3451 28.3342Z" fill="#1C976E"/>
<path d="M30.8963 68.2421C30.746 68.2421 30.5205 68.167 30.3702 68.0167C30.0696 67.7912 29.9944 67.4154 30.1448 67.0396L30.2199 66.8141C30.2199 66.739 30.2199 66.6638 30.2199 66.6638C30.2199 66.6638 30.1448 66.5887 30.0696 66.5887H22.8546C22.3285 66.5887 21.9527 66.2129 21.9527 65.6868V55.7661C21.9527 55.24 22.3285 54.8643 22.8546 54.8643H37.0592C37.5853 54.8643 37.961 55.24 37.961 55.7661V65.762C37.961 66.2881 37.5853 66.6638 37.0592 66.6638H33.602H33.5268L31.3473 68.0918C31.197 68.167 31.0466 68.2421 30.8963 68.2421ZM22.8546 55.6158C22.7794 55.6158 22.7043 55.691 22.7043 55.7661V65.762C22.7043 65.8371 22.7794 65.9123 22.8546 65.9123H30.0696C30.3702 65.9123 30.6709 66.0626 30.8212 66.288C30.9715 66.5135 31.0466 66.8893 30.8963 67.1148L30.8212 67.3402V67.4154C30.8963 67.4906 30.8963 67.4154 30.8963 67.4154L33.0759 65.9874C33.2262 65.9123 33.3765 65.8371 33.602 65.8371H37.0592C37.1343 65.8371 37.2095 65.762 37.2095 65.6868V55.7661C37.2095 55.691 37.1343 55.6158 37.0592 55.6158H22.8546Z" fill="#D6DEE7"/>
<path d="M34.3536 59.148H26.0864C25.8609 59.148 25.7106 58.9977 25.7106 58.7723C25.7106 58.5468 25.8609 58.3965 26.0864 58.3965H34.3536C34.5791 58.3965 34.7294 58.5468 34.7294 58.7723C34.7294 58.9977 34.5039 59.148 34.3536 59.148Z" fill="#D6DEE7"/>
<path d="M34.3536 61.1775H26.0864C25.8609 61.1775 25.7106 61.0272 25.7106 60.8017C25.7106 60.5762 25.8609 60.4259 26.0864 60.4259H34.3536C34.5791 60.4259 34.7294 60.5762 34.7294 60.8017C34.7294 61.0272 34.5039 61.1775 34.3536 61.1775Z" fill="#D6DEE7"/>
<path d="M30.7461 63.2066H26.0864C25.8609 63.2066 25.7106 63.0563 25.7106 62.8309C25.7106 62.6054 25.8609 62.4551 26.0864 62.4551H30.7461C30.9716 62.4551 31.1219 62.6054 31.1219 62.8309C31.1219 63.0563 30.9716 63.2066 30.7461 63.2066Z" fill="#D6DEE7"/>
<path d="M35.7816 64.9353H41.7941C42.0195 64.9353 42.1699 65.0856 42.1699 65.3111V69.4447C42.1699 69.6702 42.0195 69.8205 41.7941 69.8205H40.1406L39.0884 70.4969C38.9381 70.572 38.7127 70.4217 38.7878 70.2714L38.9381 69.8205H35.7064C35.4809 69.8205 35.3306 69.6702 35.3306 69.4447V65.3111C35.4058 65.0856 35.5561 64.9353 35.7816 64.9353Z" fill="#1C976E"/>
<path d="M205.185 17.361L201.502 19.766L205.185 22.171V17.361Z" fill="#094F8E"/>
<path d="M215.857 15.1815L212.099 12.7765L208.416 15.1815H215.857Z" fill="#094F8E"/>
<path d="M219.014 17.361V22.171L222.696 19.766L219.014 17.361Z" fill="#094F8E"/>
<path d="M219.013 22.1711V16.3089C219.013 15.7077 218.562 15.2567 217.961 15.2567H206.237C205.636 15.2567 205.185 15.7077 205.185 16.3089V22.1711L212.099 26.7557L219.013 22.1711Z" fill="#D6DEE7"/>
<path d="M212.099 26.7556L206.838 30.288L201.502 33.7452H222.696L217.435 30.288L212.099 26.7556Z" fill="#214975"/>
<path d="M216.684 21.2693H207.965C207.74 21.2693 207.59 21.119 207.59 20.8935C207.59 20.668 207.74 20.5177 207.965 20.5177H216.684C216.909 20.5177 217.059 20.668 217.059 20.8935C217.059 21.0438 216.909 21.2693 216.684 21.2693Z" fill="black"/>
<path d="M214.579 23.1482H208.04C207.815 23.1482 207.665 22.9979 207.665 22.7724C207.665 22.5469 207.815 22.3966 208.04 22.3966H214.579C214.804 22.3966 214.955 22.5469 214.955 22.7724C214.955 22.9979 214.729 23.1482 214.579 23.1482Z" fill="black"/>
<path d="M222.696 19.7661L217.435 23.2233L212.099 26.7557L206.838 23.2233L201.502 19.7661V33.7452L206.838 30.288L212.099 26.7557L217.435 30.288L222.696 33.7452V19.7661Z" fill="#214975"/>
<path d="M213.677 18.0375C213.677 18.714 213.076 19.3152 212.4 19.3152C211.723 19.3152 211.122 18.714 211.122 18.0375C211.122 17.3611 211.723 16.7599 212.4 16.7599C213.076 16.7599 213.677 17.3611 213.677 18.0375Z" fill="#1C976E"/>
<path d="M4.81712 15.4071C1.7357 15.4071 0.157415 13.5282 0.00710196 11.6493C-0.0680546 10.5971 0.458041 9.46972 1.35992 8.79331C2.11149 8.19206 3.08852 8.04175 4.06556 8.34238C4.21587 3.68267 7.97369 0 12.6334 0C16.0906 0 19.172 2.02923 20.5248 5.1858C22.028 5.33611 23.0802 6.46346 23.3056 8.11691C25.4852 8.56785 26.9883 10.071 26.9883 11.6493C26.9883 13.6785 24.7336 15.3319 21.9528 15.4071H4.81712ZM3.16368 8.94363C2.71274 8.94363 2.18664 9.09394 1.81086 9.39457C1.13445 9.92066 0.683511 10.8225 0.758667 11.5741C0.908981 13.0021 2.03633 14.6555 4.81712 14.6555H21.9528C24.3578 14.5804 26.2367 13.2276 26.2367 11.6493C26.2367 10.2964 24.8839 9.09394 22.8547 8.79331L22.5541 8.71816V8.41753C22.4038 6.9144 21.5019 5.93737 20.1491 5.93737H19.9236L19.8484 5.7119C18.6459 2.70564 15.79 0.751565 12.5582 0.751565C8.34948 0.751565 4.81712 4.28392 4.81712 8.56785C4.81712 8.643 4.81712 8.79331 4.81712 8.86847V9.46972L4.29102 9.24425C3.91524 9.01878 3.53946 8.94363 3.16368 8.94363Z" fill="#D6DEE7"/>
<path d="M128.525 37.5781L128.976 37.4278C128.976 37.2775 128.901 37.1272 128.901 36.9769H128.45V36.7514V36.6762V36.4508H128.901C128.901 36.3005 128.976 36.1501 128.976 35.9998L128.525 35.8495L128.6 35.624L128.675 35.5489L128.75 35.3234L129.201 35.4737C129.277 35.3234 129.352 35.2483 129.427 35.098L129.051 34.7973L129.201 34.647L129.277 34.5719L129.427 34.4215L129.803 34.7222C129.878 34.647 130.028 34.4967 130.103 34.4215L129.878 34.0458L130.028 33.8203L130.103 33.7451L130.254 33.5948L130.554 33.9706C130.704 33.8954 130.855 33.8203 131.005 33.7451L130.855 33.2942L131.005 33.219H131.08L131.231 33.1439L131.381 33.5948C131.531 33.5948 131.682 33.5197 131.832 33.5197L131.907 33.0687H132.132H132.208H132.433V33.5197C132.583 33.5197 132.734 33.5948 132.884 33.5948L133.109 33.1439L133.26 33.219L133.335 33.2942L133.485 33.3694L133.335 33.8203C133.485 33.8954 133.636 33.9706 133.786 34.0458L134.087 33.67L134.237 33.8203L134.312 33.8954L134.462 34.0458L134.162 34.4215C134.312 34.4967 134.387 34.647 134.462 34.7973L134.913 34.5719L134.988 34.7222L135.064 34.7973L135.139 34.9476L134.763 35.2483C134.838 35.3986 134.913 35.5489 134.988 35.6992L135.439 35.5489L135.515 35.6992V35.7744L135.59 35.9247L135.139 36.075C135.139 36.2253 135.214 36.3756 135.214 36.5259L135.74 36.6011V36.8266V36.9017V37.1272H135.214C135.214 37.2775 135.139 37.4278 135.139 37.5781L135.59 37.8036L135.515 37.9539L135.439 38.0291L135.364 38.1794L134.913 38.0291C134.838 38.1794 134.763 38.3297 134.688 38.48L135.064 38.7806L134.913 38.9309L134.838 39.0061L134.688 39.1564L134.312 38.8558C134.237 39.0061 134.087 39.0812 133.936 39.1564L134.162 39.6073L134.011 39.6825L133.936 39.7577L133.786 39.8328L133.485 39.457C133.335 39.5322 133.185 39.6073 133.109 39.6825L133.26 40.1334L133.034 40.2086H132.959L132.734 40.2838L132.583 39.8328C132.433 39.8328 132.283 39.908 132.132 39.908V40.3589H131.907H131.832H131.606V39.908C131.456 39.908 131.306 39.8328 131.155 39.8328L131.005 40.2838L130.78 40.2086L130.704 40.1334L130.479 40.0583L130.629 39.6073C130.479 39.5322 130.404 39.457 130.254 39.3819L129.953 39.7577L129.803 39.6073L129.727 39.5322L129.577 39.3819L129.878 39.0061C129.803 38.9309 129.652 38.7806 129.577 38.7055L129.201 38.9309L129.051 38.7806L128.976 38.7055L128.826 38.5552L129.201 38.2545C129.126 38.1042 129.051 38.0291 129.051 37.8787L128.6 38.0291L128.525 37.8036V37.7284V37.5781ZM132.583 38.48C133.485 38.2545 134.011 37.2775 133.786 36.3756C133.56 35.4737 132.583 34.9476 131.682 35.1731C130.78 35.3986 130.254 36.3756 130.479 37.2775C130.78 38.1794 131.682 38.7055 132.583 38.48Z" fill="#D6DEE7"/>
<path d="M121.61 36.6763L119.732 36.6012V35.549C119.656 35.549 119.581 35.549 119.431 35.4738L119.055 36.4509L117.327 35.7744L117.702 34.7974C117.627 34.7223 117.552 34.7223 117.477 34.6471L116.8 35.4738L115.297 34.3465L115.899 33.5197C115.823 33.4446 115.748 33.3694 115.673 33.2943L114.771 33.8204L113.719 32.2421L114.546 31.6408C114.471 31.5657 114.471 31.4905 114.395 31.4154L113.343 31.6408L112.817 29.8371L113.794 29.5365C113.794 29.4613 113.794 29.311 113.794 29.2358L112.742 29.1607L112.817 27.2818H113.869C113.869 27.2066 113.944 27.0563 113.944 26.9811L112.967 26.6053L113.644 24.8767L114.621 25.1774C114.696 25.1022 114.696 25.0271 114.771 24.9519L113.944 24.2755L115.147 22.7724L115.974 23.3736C116.049 23.2985 116.124 23.2233 116.199 23.1481L115.673 22.2463L117.251 21.1941L117.853 22.0208C117.928 21.9456 118.078 21.9456 118.153 21.8705L117.928 20.8183L119.656 20.3674L119.957 21.3444C120.107 21.3444 120.182 21.3444 120.333 21.2692L120.408 20.217L122.137 20.2922V21.3444C122.287 21.3444 122.362 21.4195 122.512 21.4195L122.888 20.4425L124.542 21.0438L124.241 22.0208C124.391 22.096 124.466 22.1711 124.617 22.2463L125.293 21.4195L126.646 22.5469L126.045 23.3736C126.12 23.4488 126.27 23.5991 126.345 23.6742L127.247 23.1481L128.224 24.6513L127.397 25.2525C127.473 25.4028 127.473 25.478 127.548 25.6283L128.6 25.4028L129.051 27.1314L127.999 27.4321C127.999 27.5824 127.999 27.6575 128.074 27.8079L129.126 27.883L129.051 29.6116H127.999C127.999 29.7619 127.924 29.8371 127.924 29.9874L128.901 30.4383L128.299 32.0918L127.247 31.7911C127.172 31.9415 127.097 32.0166 127.022 32.1669L127.848 32.8433L126.721 34.1962L125.819 33.5949C125.744 33.6701 125.594 33.7452 125.519 33.8955L126.12 34.7974L124.692 35.7744L124.015 34.8726C123.94 34.9477 123.79 34.9477 123.715 35.0229L123.94 36.0751L122.137 36.6012L121.836 35.6241C121.761 35.6241 121.61 35.6241 121.535 35.6241L121.61 36.6763ZM120.483 35.8496H120.934L121.009 34.8726H121.31C121.61 34.8726 121.836 34.7974 122.137 34.7974L122.437 34.7223L122.738 35.6993L123.114 35.549L122.888 34.5719L123.189 34.4216C123.489 34.3465 123.715 34.1962 124.015 34.0458L124.316 33.8955L124.917 34.7223L125.218 34.5719L124.692 33.6701L124.917 33.4446C125.143 33.2943 125.368 33.0688 125.594 32.7682L125.819 32.5427L126.646 33.144L126.871 32.9185L126.12 32.2421L126.27 31.9415C126.42 31.716 126.571 31.4154 126.721 31.1147L126.871 30.8141L127.848 31.1147L127.924 30.8141L126.947 30.4383L127.022 30.1377C127.097 29.8371 127.172 29.5365 127.247 29.2358L127.322 28.9352H128.299V28.6346L127.322 28.5594V28.2588C127.322 27.9582 127.247 27.5824 127.247 27.3569L127.172 27.0563L128.149 26.7557L128.074 26.455L127.097 26.6805L126.947 26.3799C126.796 26.0793 126.721 25.7786 126.571 25.5532L126.42 25.2525L127.247 24.6513L127.097 24.3507L126.27 24.8767L126.045 24.6513C125.894 24.4258 125.669 24.2003 125.368 23.9749L125.143 23.7494L125.744 22.9227L125.519 22.5469L124.842 23.2985L124.542 23.1481C124.316 22.9978 124.015 22.8475 123.715 22.6972L123.414 22.5469L123.715 21.645L123.414 21.5699L123.038 22.4717L122.738 22.3966C122.362 22.3214 122.061 22.2463 121.836 22.1711L121.535 22.096V21.0438H121.235L121.159 22.0208H120.859C120.483 22.0208 120.182 22.096 119.882 22.096L119.581 22.1711L119.281 21.1941L118.98 21.2692L119.205 22.2463L118.905 22.3966C118.604 22.4717 118.304 22.6221 118.078 22.7724L117.777 22.9227L117.251 22.1711L116.876 22.3966L117.251 23.2985L117.026 23.5239C116.8 23.6742 116.65 23.8997 116.425 24.1252L116.199 24.3507L115.448 23.7494L115.147 24.05L115.899 24.6513L115.748 24.9519C115.598 25.1774 115.448 25.478 115.297 25.7035L115.147 26.0041L114.245 25.7035L114.095 26.0793L114.997 26.455L114.922 26.7557C114.846 26.9811 114.771 27.2818 114.771 27.5824L114.696 27.883H113.719V28.3339L114.696 28.4091V28.7097C114.696 29.0104 114.771 29.311 114.771 29.5365L114.846 29.8371L113.944 30.1377L114.095 30.5135L115.072 30.288L115.222 30.5886C115.297 30.8141 115.448 31.1147 115.598 31.3402L115.748 31.6408L114.922 32.2421L115.147 32.6179L115.974 32.0918L116.199 32.3172C116.349 32.5427 116.575 32.7682 116.8 32.9185L117.026 33.144L116.425 33.9707L116.725 34.2713L117.402 33.5197L117.702 33.6701C117.928 33.8204 118.153 33.9707 118.454 34.121L118.754 34.2713L118.454 35.2484L118.83 35.3987L119.205 34.4968L119.506 34.5719C119.807 34.6471 120.107 34.7223 120.333 34.7223L120.633 34.7974L120.483 35.8496ZM121.009 32.3924C119.281 32.3924 117.702 31.2651 117.251 29.5365C116.951 28.5594 117.101 27.4321 117.627 26.5302C118.153 25.6283 118.98 24.9519 119.957 24.6513C120.934 24.3507 121.986 24.501 122.963 25.0271C123.865 25.5532 124.542 26.3799 124.842 27.3569C125.443 29.4613 124.241 31.6408 122.137 32.1669C121.761 32.3172 121.385 32.3924 121.009 32.3924ZM121.009 25.2525C120.709 25.2525 120.408 25.3277 120.182 25.4028C119.356 25.6283 118.679 26.1544 118.304 26.906C117.853 27.6575 117.777 28.4843 118.003 29.311C118.454 30.9644 120.258 31.9415 121.911 31.4905C123.565 31.0396 124.542 29.2358 124.091 27.5824C123.865 26.7557 123.339 26.0793 122.587 25.7035C122.061 25.4028 121.535 25.2525 121.009 25.2525Z" fill="#D6DEE7"/>
<path d="M262.529 102.363H232.542C232.241 102.363 232.016 102.213 232.016 101.987V96.5761C238.78 93.1189 250.955 88.4592 263.13 88.6846V101.987C263.13 102.138 262.83 102.363 262.529 102.363Z" fill="#094F8E"/>
<path d="M232.016 92.2921V97.2524V101.987V102.363H263.13V101.987V97.2524V96.5008C255.615 93.72 241.711 91.5405 232.016 92.2921Z" fill="#214975"/>
<path d="M262.98 102.664H231.865C231.64 102.664 231.49 102.513 231.49 102.288V80.0416C231.49 79.8161 231.64 79.6658 231.865 79.6658H262.98C263.206 79.6658 263.356 79.8161 263.356 80.0416V102.288C263.356 102.513 263.206 102.664 262.98 102.664ZM232.241 101.912H262.604V80.4173H232.241V101.912Z" fill="black"/>
<path d="M236.6 87.1815C235.247 87.1815 234.12 86.0542 234.12 84.7014C234.12 83.3485 235.247 82.2212 236.6 82.2212C237.953 82.2212 239.08 83.3485 239.08 84.7014C239.08 86.0542 237.953 87.1815 236.6 87.1815ZM236.6 82.9728C235.623 82.9728 234.872 83.7243 234.872 84.7014C234.872 85.6784 235.623 86.43 236.6 86.43C237.577 86.43 238.329 85.6784 238.329 84.7014C238.329 83.7995 237.577 82.9728 236.6 82.9728Z" fill="black"/>
<path d="M269.218 104.543H228.558C227.581 104.543 226.755 103.716 226.755 102.739V79.5907C226.755 78.6137 227.581 77.787 228.558 77.787H269.218C270.195 77.787 271.022 78.6137 271.022 79.5907V102.739C270.947 103.716 270.195 104.543 269.218 104.543ZM228.558 78.5386C228.032 78.5386 227.506 78.9895 227.506 79.5907V102.739C227.506 103.265 227.957 103.791 228.558 103.791H269.218C269.744 103.791 270.27 103.34 270.27 102.739V79.5907C270.27 79.0646 269.819 78.5386 269.218 78.5386H228.558Z" fill="black"/>
<path d="M229.836 94.4716C229.61 94.4716 229.46 94.3213 229.46 94.0958V88.3088C229.46 88.0833 229.61 87.933 229.836 87.933C230.061 87.933 230.212 88.0833 230.212 88.3088V94.0958C230.212 94.2461 230.061 94.4716 229.836 94.4716Z" fill="black"/>
<path d="M266.888 93.4195C265.686 93.4195 264.633 92.4425 264.633 91.1649C264.633 89.9623 265.61 88.9102 266.888 88.9102C268.091 88.9102 269.143 89.8872 269.143 91.1649C269.143 92.3674 268.166 93.4195 266.888 93.4195ZM266.888 89.6617C266.061 89.6617 265.385 90.3381 265.385 91.1649C265.385 91.9916 266.061 92.668 266.888 92.668C267.715 92.668 268.391 91.9916 268.391 91.1649C268.391 90.3381 267.715 89.6617 266.888 89.6617Z" fill="black"/>
<path d="M259.899 99.2816H235.623C235.398 99.2816 235.248 99.1313 235.248 98.9058C235.248 98.6803 235.398 98.53 235.623 98.53H259.899C260.124 98.53 260.275 98.6803 260.275 98.9058C260.275 99.1313 260.124 99.2816 259.899 99.2816Z" fill="black"/>
<path d="M242.086 98.9812C242.086 99.6576 241.485 100.259 240.809 100.259C240.132 100.259 239.531 99.6576 239.531 98.9812C239.531 98.3047 240.132 97.7035 240.809 97.7035C241.485 97.7035 242.086 98.2296 242.086 98.9812Z" fill="white"/>
<path d="M240.809 100.635C239.907 100.635 239.156 99.883 239.156 98.9811C239.156 98.0792 239.907 97.3276 240.809 97.3276C241.711 97.3276 242.462 98.0792 242.462 98.9811C242.462 99.883 241.711 100.635 240.809 100.635ZM240.809 98.0792C240.283 98.0792 239.907 98.455 239.907 98.9811C239.907 99.5072 240.283 99.883 240.809 99.883C241.335 99.883 241.711 99.5072 241.711 98.9811C241.711 98.455 241.26 98.0792 240.809 98.0792Z" fill="black"/>
<path d="M252.609 91.3903C252.609 94.2462 250.279 96.5761 247.423 96.5761C244.567 96.5761 242.237 94.2462 242.237 91.3903C242.237 88.5343 244.567 86.2045 247.423 86.2045C250.279 86.2045 252.609 88.5343 252.609 91.3903Z" fill="#1C976E"/>
<path d="M246.145 94.0208C246.07 94.0208 245.995 94.0208 245.919 93.9457C245.769 93.8705 245.694 93.7202 245.694 93.645V89.0605C245.694 88.9102 245.769 88.835 245.919 88.7599C246.07 88.6847 246.145 88.6847 246.295 88.7599L250.278 91.0897C250.429 91.1649 250.504 91.3152 250.504 91.3903C250.504 91.5407 250.429 91.6158 250.278 91.691L246.295 94.0208C246.295 94.0208 246.22 94.0208 246.145 94.0208ZM246.521 89.7369V93.0438L249.377 91.3903L246.521 89.7369Z" fill="white"/>
<path d="M84.2576 77.0354C84.2576 82.2964 80.0488 86.5051 74.7879 86.5051C69.5269 86.5051 65.3181 82.2964 65.3181 77.0354C65.3181 71.7744 69.5269 67.5657 74.7879 67.5657C80.0488 67.5657 84.2576 71.8496 84.2576 77.0354Z" fill="#D6DEE7"/>
<path d="M82.1535 77.0354C82.1535 81.0938 78.8466 84.4007 74.7881 84.4007C70.7297 84.4007 67.4228 81.0938 67.4228 77.0354C67.4228 72.9769 70.7297 69.67 74.7881 69.67C78.8466 69.7452 82.1535 73.0521 82.1535 77.0354Z" fill="white"/>
<path d="M74.8631 77.4865C74.6376 77.4865 74.4873 77.3362 74.4873 77.1107V73.2026C74.4873 72.9771 74.6376 72.8268 74.8631 72.8268C75.0886 72.8268 75.2389 72.9771 75.2389 73.2026V77.1107C75.2389 77.3362 75.0134 77.4865 74.8631 77.4865Z" fill="#D6DEE7"/>
<path d="M74.9381 77.4114C74.7878 77.4114 74.7127 77.3362 74.6375 77.2611C74.5624 77.1107 74.5624 76.8853 74.7878 76.735L79.2972 74.0293C79.4475 73.9542 79.673 73.9542 79.8233 74.1796C79.8985 74.3299 79.8985 74.5554 79.673 74.7057L75.1636 77.4114C75.0885 77.4114 75.0133 77.4114 74.9381 77.4114Z" fill="#D6DEE7"/>
<path d="M69.6772 77.1858C69.6772 77.4865 69.3766 77.7871 69.0759 77.7871C68.7753 77.7871 68.4747 77.4865 68.4747 77.1858C68.4747 76.8852 68.7753 76.5846 69.0759 76.5846C69.3766 76.5846 69.6772 76.8101 69.6772 77.1858Z" fill="#D6DEE7"/>
<path d="M81.1763 77.1858C81.1763 77.4865 80.8756 77.7871 80.575 77.7871C80.2744 77.7871 79.9738 77.4865 79.9738 77.1858C79.9738 76.8852 80.2744 76.5846 80.575 76.5846C80.8756 76.5846 81.1763 76.8101 81.1763 77.1858Z" fill="#D6DEE7"/>
<path d="M74.8628 71.7745C74.5622 71.7745 74.2616 71.4739 74.2616 71.1733C74.2616 70.8726 74.5622 70.572 74.8628 70.572C75.1634 70.572 75.4641 70.8726 75.4641 71.1733C75.4641 71.4739 75.2386 71.7745 74.8628 71.7745Z" fill="#D6DEE7"/>
<path d="M74.8628 83.2733C74.5622 83.2733 74.2616 82.9727 74.2616 82.6721C74.2616 82.3714 74.5622 82.0708 74.8628 82.0708C75.1634 82.0708 75.4641 82.3714 75.4641 82.6721C75.4641 82.9727 75.2386 83.2733 74.8628 83.2733Z" fill="#D6DEE7"/>
<path d="M196.316 43.666C198.721 43.666 200.6 45.6201 200.6 47.9499V94.0961C200.6 96.4259 198.721 98.38 196.316 98.38H113.268C110.863 98.38 108.984 96.4259 108.984 94.0961V47.9499C108.984 45.5449 110.938 43.666 113.268 43.666H196.316Z" fill="#D6DEE7"/>
<path d="M196.842 47.6493H112.742V94.4718H196.842V47.6493Z" fill="#214975"/>
<path d="M163.473 101.687V104.392H146.187V101.687H104.85V102.814C104.85 105.219 106.955 107.098 109.51 107.098H199.999C202.554 107.098 204.658 105.144 204.658 102.814V101.687H163.473Z" fill="#D6DEE7"/>
<path d="M170.162 68.0166H139.197V76.9602H170.162V68.0166Z" fill="white"/>
<path d="M143.03 72.7515C141.978 72.7515 141.151 71.9248 141.151 70.8726C141.151 69.8204 141.978 68.9937 143.03 68.9937C144.083 68.9937 144.909 69.8204 144.909 70.8726C144.909 71.9248 144.083 72.7515 143.03 72.7515ZM143.03 69.8204C142.429 69.8204 141.903 70.3465 141.903 70.9477C141.903 71.549 142.429 72.0751 143.03 72.0751C143.632 72.0751 144.158 71.549 144.158 70.9477C144.158 70.2713 143.632 69.8204 143.03 69.8204Z" fill="black"/>
<path d="M167.005 71.2483H148.968C148.742 71.2483 148.592 71.098 148.592 70.8725C148.592 70.647 148.742 70.4967 148.968 70.4967H167.005C167.231 70.4967 167.381 70.647 167.381 70.8725C167.381 71.0228 167.231 71.2483 167.005 71.2483Z" fill="black"/>
<path d="M166.855 73.4278H148.818C148.592 73.4278 148.442 73.2775 148.442 73.0521C148.442 72.8266 148.592 72.6763 148.818 72.6763H166.855C167.081 72.6763 167.231 72.8266 167.231 73.0521C167.231 73.2024 167.081 73.4278 166.855 73.4278Z" fill="black"/>
<path d="M153.552 75.6074H142.279C142.053 75.6074 141.903 75.4571 141.903 75.2316C141.903 75.0061 142.053 74.8558 142.279 74.8558H153.552C153.778 74.8558 153.928 75.0061 153.928 75.2316C153.928 75.3819 153.778 75.6074 153.552 75.6074Z" fill="black"/>
<path d="M170.312 78.9894H139.348V87.933H170.312V78.9894Z" fill="white"/>
<path d="M143.105 83.7243C142.053 83.7243 141.226 82.8975 141.226 81.8453C141.226 80.7932 142.053 79.9664 143.105 79.9664C144.157 79.9664 144.984 80.7932 144.984 81.8453C144.984 82.8975 144.157 83.7243 143.105 83.7243ZM143.105 80.7932C142.504 80.7932 141.978 81.3192 141.978 81.9205C141.978 82.5218 142.504 83.0478 143.105 83.0478C143.706 83.0478 144.233 82.5218 144.233 81.9205C144.233 81.2441 143.706 80.7932 143.105 80.7932Z" fill="black"/>
<path d="M167.08 82.2212H149.043C148.817 82.2212 148.667 82.0709 148.667 81.8454C148.667 81.6199 148.817 81.4696 149.043 81.4696H167.08C167.306 81.4696 167.456 81.6199 167.456 81.8454C167.456 82.0709 167.306 82.2212 167.08 82.2212Z" fill="black"/>
<path d="M166.93 84.4007H148.892C148.667 84.4007 148.517 84.2504 148.517 84.025C148.517 83.7995 148.667 83.6492 148.892 83.6492H166.93C167.156 83.6492 167.306 83.7995 167.306 84.025C167.306 84.1753 167.156 84.4007 166.93 84.4007Z" fill="black"/>
<path d="M153.703 86.5802H142.429C142.204 86.5802 142.053 86.4299 142.053 86.2044C142.053 85.9789 142.204 85.8286 142.429 85.8286H153.703C153.928 85.8286 154.078 85.9789 154.078 86.2044C154.078 86.3547 153.928 86.5802 153.703 86.5802Z" fill="black"/>
<path d="M153.778 58.8475H139.347V65.8371H153.778V58.8475Z" fill="white"/>
<path d="M149.945 62.6806H143.256C143.03 62.6806 142.88 62.5303 142.88 62.3049C142.88 62.0794 143.03 61.9291 143.256 61.9291H149.945C150.17 61.9291 150.32 62.0794 150.32 62.3049C150.32 62.5303 150.17 62.6806 149.945 62.6806Z" fill="black"/>
<path d="M192.408 58.6973H173.243V65.6868H192.408V58.6973Z" fill="#1C976E"/>
<path d="M196.842 47.6493H112.742V54.8643H196.842V47.6493Z" fill="#094F8E"/>
<path d="M115.448 85.2275H95.381C95.1556 85.2275 95.0053 85.0772 95.0053 84.8517V63.9582C95.0053 63.7327 95.1556 63.5824 95.381 63.5824C95.6065 63.5824 95.7568 63.7327 95.7568 63.9582V84.4759H115.448C115.673 84.4759 115.824 84.6262 115.824 84.8517C115.824 85.0772 115.673 85.2275 115.448 85.2275Z" fill="#1C976E"/>
<path d="M98.1615 66.0625L95.2304 63.5072L98.1615 66.0625Z" fill="white"/>
<path d="M98.1616 66.4384C98.0864 66.4384 98.0112 66.4384 97.9361 66.3632L95.005 63.8079C94.8547 63.6576 94.8547 63.4321 95.005 63.2818C95.1553 63.1315 95.3808 63.1315 95.5311 63.2818L98.4622 65.8371C98.6125 65.9874 98.6125 66.2129 98.4622 66.3632C98.387 66.3632 98.3119 66.4384 98.1616 66.4384Z" fill="#1C976E"/>
<path d="M92.3747 66.0626L95.3058 63.5073L92.3747 66.0626Z" fill="white"/>
<path d="M92.3746 66.4383C92.2994 66.4383 92.1491 66.3632 92.0739 66.288C91.9236 66.1377 91.9236 65.9122 92.0739 65.7619L95.005 63.2066C95.1554 63.0563 95.3808 63.0563 95.5311 63.2066C95.6815 63.3569 95.6815 63.5824 95.5311 63.7327L92.6 66.288C92.6 66.3632 92.4497 66.4383 92.3746 66.4383Z" fill="#1C976E"/>
<path d="M136.341 58.6973H117.176V65.6868H136.341V58.6973Z" fill="white"/>
<path d="M134.086 62.3048H127.172C126.946 62.3048 126.796 62.1545 126.796 61.929C126.796 61.7035 126.946 61.5532 127.172 61.5532H134.086C134.312 61.5532 134.462 61.7035 134.462 61.929C134.462 62.1545 134.237 62.3048 134.086 62.3048Z" fill="black"/>
<path d="M120.558 63.8831C119.506 63.8831 118.679 63.0563 118.679 62.0042C118.679 60.952 119.506 60.1252 120.558 60.1252C121.61 60.1252 122.437 60.952 122.437 62.0042C122.437 63.0563 121.61 63.8831 120.558 63.8831ZM120.558 60.8768C119.957 60.8768 119.431 61.4029 119.431 62.0042C119.431 62.6054 119.957 63.1315 120.558 63.1315C121.159 63.1315 121.685 62.6054 121.685 62.0042C121.685 61.4029 121.159 60.8768 120.558 60.8768Z" fill="black"/>
<path d="M136.717 67.7159H117.251V87.6324H136.717V67.7159Z" fill="white"/>
<path d="M126.871 76.5844C124.917 76.5844 123.264 74.931 123.264 72.9769C123.264 71.0228 124.917 69.3694 126.871 69.3694C128.826 69.3694 130.479 71.0228 130.479 72.9769C130.479 75.0061 128.826 76.5844 126.871 76.5844ZM126.871 70.121C125.293 70.121 124.016 71.3986 124.016 72.9769C124.016 74.5552 125.293 75.8328 126.871 75.8328C128.45 75.8328 129.727 74.5552 129.727 72.9769C129.727 71.3986 128.375 70.121 126.871 70.121Z" fill="black"/>
<path d="M133.034 79.1397H120.934C120.709 79.1397 120.558 78.9894 120.558 78.764C120.558 78.5385 120.709 78.3882 120.934 78.3882H133.034C133.26 78.3882 133.41 78.5385 133.41 78.764C133.41 78.9894 133.26 79.1397 133.034 79.1397Z" fill="black"/>
<path d="M133.034 80.7933H120.934C120.709 80.7933 120.558 80.643 120.558 80.4175C120.558 80.1921 120.709 80.0417 120.934 80.0417H133.034C133.26 80.0417 133.41 80.1921 133.41 80.4175C133.41 80.643 133.26 80.7933 133.034 80.7933Z" fill="black"/>
<path d="M131.005 86.43H122.888C121.761 86.43 120.859 85.5282 120.859 84.4008C120.859 83.2735 121.761 82.3716 122.888 82.3716H131.005C132.132 82.3716 133.034 83.2735 133.034 84.4008C133.034 85.5282 132.132 86.43 131.005 86.43Z" fill="#1C976E"/>
<path d="M130.629 84.7014H123.264C123.038 84.7014 122.888 84.5511 122.888 84.3256C122.888 84.1001 123.038 83.9498 123.264 83.9498H130.629C130.855 83.9498 131.005 84.1001 131.005 84.3256C131.005 84.4759 130.855 84.7014 130.629 84.7014Z" fill="black"/>
<path d="M80.0488 101.987C79.8234 101.987 79.6731 101.837 79.6731 101.612V92.4425C79.6731 92.217 79.8234 92.0667 80.0488 92.0667H155.957V89.9623C155.957 89.7369 156.107 89.5865 156.333 89.5865C156.558 89.5865 156.709 89.7369 156.709 89.9623V92.4425C156.709 92.668 156.558 92.8183 156.333 92.8183H80.4246V101.536C80.4246 101.837 80.1992 101.987 80.0488 101.987Z" fill="#1C976E"/>
<path d="M180.082 62.9811V61.1773C180.082 61.1021 180.157 61.027 180.233 61.027H180.684C180.984 61.027 181.285 61.2524 181.285 61.6282C181.285 61.7785 181.21 61.8537 181.134 62.004C181.285 62.1543 181.435 62.3046 181.435 62.5301C181.435 62.9059 181.134 63.2065 180.759 63.2065H180.233C180.157 63.2065 180.082 63.1314 180.082 62.9811ZM180.383 61.8537H180.608C180.759 61.8537 180.834 61.7785 180.834 61.6282C180.834 61.4779 180.759 61.4028 180.608 61.4028H180.383V61.8537ZM180.383 62.8307H180.759C180.909 62.8307 181.059 62.6804 181.059 62.5301C181.059 62.3798 180.909 62.2295 180.759 62.2295H180.383V62.8307Z" fill="white"/>
<path d="M182.713 63.2066C182.262 63.2066 181.811 62.8308 181.811 62.3047V61.2525C181.811 61.1773 181.886 61.1022 181.961 61.1022C182.037 61.1022 182.112 61.1773 182.112 61.2525V62.3047C182.112 62.6053 182.337 62.8308 182.638 62.8308C182.938 62.8308 183.164 62.6053 183.164 62.3047V61.2525C183.164 61.1773 183.239 61.1022 183.314 61.1022C183.389 61.1022 183.465 61.1773 183.465 61.2525V62.3047C183.615 62.7556 183.239 63.2066 182.713 63.2066Z" fill="white"/>
<path d="M185.794 61.3276L185.193 62.1543V62.9811C185.193 63.0562 185.118 63.1314 185.043 63.1314C184.968 63.1314 184.892 63.0562 184.892 62.9811V62.1543L184.291 61.3276C184.216 61.2525 184.216 61.1773 184.291 61.1021C184.366 61.027 184.441 61.027 184.517 61.1021L185.043 61.7785L185.569 61.1021C185.644 61.027 185.719 61.027 185.794 61.1021C185.794 61.1773 185.794 61.2525 185.794 61.3276Z" fill="white"/>
<path d="M286.579 47.5741H275.832H274.479H263.732L262.228 73.7286H288.157L286.579 47.5741Z" fill="#214975"/>
<path d="M283.873 49.7536C283.873 50.5804 283.197 51.1816 282.445 51.1816C281.619 51.1816 281.017 50.5052 281.017 49.7536C281.017 48.9269 281.694 48.3257 282.445 48.3257C283.197 48.2505 283.873 48.9269 283.873 49.7536Z" fill="white"/>
<path d="M279.589 59.2233C279.589 61.7787 277.56 63.8079 275.005 63.8079C272.45 63.8079 270.42 61.7787 270.42 59.2233C270.42 56.668 272.45 54.6388 275.005 54.6388C277.485 54.714 279.589 56.7432 279.589 59.2233Z" fill="#1C976E"/>
<path d="M273.652 61.1775V57.0439C273.652 56.8184 273.802 56.6681 274.028 56.6681H276.283C276.508 56.6681 276.658 56.8184 276.658 57.0439C276.658 57.2693 276.508 57.4197 276.283 57.4197H274.404V58.6973H276.057C276.283 58.6973 276.433 58.8476 276.433 59.0731C276.433 59.2986 276.283 59.4489 276.057 59.4489H274.404V60.7265H276.283C276.508 60.7265 276.658 60.8769 276.658 61.1023C276.658 61.3278 276.508 61.4781 276.283 61.4781H274.028C273.802 61.5533 273.652 61.403 273.652 61.1775Z" fill="white"/>
<path d="M279.815 66.6638H270.045C269.819 66.6638 269.669 66.5135 269.669 66.288C269.669 66.0625 269.819 65.9122 270.045 65.9122H279.815C280.04 65.9122 280.191 66.0625 280.191 66.288C280.191 66.4383 280.04 66.6638 279.815 66.6638Z" fill="white"/>
<path d="M269.518 49.7536C269.518 50.5804 268.842 51.1816 268.09 51.1816C267.264 51.1816 266.662 50.5052 266.662 49.7536C266.662 48.9269 267.339 48.3257 268.09 48.3257C268.842 48.2505 269.518 48.9269 269.518 49.7536Z" fill="white"/>
<path d="M268.015 50.1294C267.79 50.1294 267.64 49.9791 267.64 49.7536C267.64 49.5281 267.489 44.7933 270.195 41.9373C271.473 40.5845 273.126 39.9081 275.23 39.9081C275.456 39.9081 275.606 40.0584 275.606 40.2839C275.606 40.5093 275.456 40.6596 275.23 40.6596C273.351 40.6596 271.848 41.2609 270.721 42.3882C268.241 45.0187 268.391 49.6033 268.391 49.6784C268.391 49.9791 268.241 50.1294 268.015 50.1294Z" fill="black"/>
<path d="M282.445 50.1294C282.22 50.1294 282.07 49.9791 282.07 49.7536C282.07 49.6785 282.22 45.0939 279.74 42.4634C278.612 41.2609 277.109 40.7348 275.23 40.7348C275.005 40.7348 274.855 40.5845 274.855 40.3591C274.855 40.1336 275.005 39.9833 275.23 39.9833C277.26 39.9833 278.988 40.6597 280.266 42.0125C282.971 44.8685 282.821 49.6033 282.821 49.8288C282.821 49.9791 282.671 50.1294 282.445 50.1294Z" fill="black"/>
<path d="M206.537 52.4591H198.42C198.195 52.4591 198.045 52.3088 198.045 52.0834C198.045 51.8579 198.195 51.7076 198.42 51.7076H206.162V46.5218C206.162 46.4466 206.237 46.2963 206.237 46.2212C206.312 46.146 206.387 46.146 206.537 46.146H228.032C228.258 46.146 228.408 46.2963 228.408 46.5218C228.408 46.7472 228.258 46.8976 228.032 46.8976H206.913V52.0834C206.913 52.2337 206.763 52.4591 206.537 52.4591Z" fill="#1C976E"/>
<path d="M226.003 43.5907L228.558 46.5218L226.003 43.5907Z" fill="white"/>
<path d="M228.558 46.8976C228.483 46.8976 228.333 46.8225 228.257 46.7473L225.702 43.8162C225.552 43.6659 225.552 43.4404 225.702 43.2901C225.852 43.1398 226.078 43.1398 226.228 43.2901L228.783 46.2212C228.934 46.3715 228.934 46.597 228.783 46.7473C228.708 46.8976 228.633 46.8976 228.558 46.8976Z" fill="#1C976E"/>
<path d="M226.003 49.453L228.558 46.5219L226.003 49.453Z" fill="white"/>
<path d="M226.003 49.8287C225.928 49.8287 225.852 49.8287 225.777 49.7535C225.627 49.6032 225.627 49.3777 225.777 49.2274L228.333 46.2963C228.483 46.146 228.708 46.146 228.859 46.2963C229.009 46.4466 229.009 46.6721 228.859 46.8224L226.303 49.7535C226.228 49.7535 226.153 49.8287 226.003 49.8287Z" fill="#1C976E"/>
<path d="M260.65 67.3403C260.65 69.595 258.846 71.3988 256.592 71.3988C254.337 71.3988 252.533 69.595 252.533 67.3403C252.533 65.0856 254.337 63.2819 256.592 63.2819C258.846 63.2819 260.65 65.1608 260.65 67.3403Z" fill="#1C976E"/>
<path d="M256.742 64.7098C256.892 64.7098 257.043 64.8602 257.043 65.0105V65.1608C257.418 65.2359 257.719 65.3111 258.02 65.5366C258.095 65.6117 258.17 65.6869 258.17 65.8372C258.17 66.0627 258.02 66.213 257.794 66.213C257.719 66.213 257.644 66.213 257.644 66.1378C257.418 65.9875 257.193 65.9123 257.043 65.8372V67.0397C257.945 67.2652 258.395 67.6409 258.395 68.3174C258.395 68.9938 257.869 69.4447 257.118 69.5199V69.8956C257.118 70.046 256.968 70.1963 256.817 70.1963C256.667 70.1963 256.517 70.046 256.517 69.8956V69.5199C256.066 69.4447 255.615 69.2944 255.239 69.0689C255.164 68.9938 255.089 68.9186 255.089 68.7683C255.089 68.5428 255.239 68.3925 255.464 68.3925C255.54 68.3925 255.615 68.3925 255.69 68.4677C255.99 68.6931 256.291 68.8434 256.592 68.9186V67.7161C255.69 67.4906 255.239 67.1149 255.239 66.4384C255.239 65.762 255.765 65.3111 256.517 65.2359V65.0856C256.441 64.785 256.592 64.7098 256.742 64.7098ZM256.441 66.8142V65.6869C256.066 65.6869 255.84 65.9123 255.84 66.213C255.915 66.5136 255.99 66.6639 256.441 66.8142ZM256.967 67.6409V68.7683C257.343 68.6931 257.569 68.5428 257.569 68.2422C257.569 67.9416 257.418 67.7913 256.967 67.6409Z" fill="white"/>
<path d="M238.93 40.0584C238.93 42.764 236.75 44.9436 234.045 44.9436C231.339 44.9436 229.159 42.764 229.159 40.0584C229.159 37.3528 231.339 35.1732 234.045 35.1732C236.75 35.2484 238.93 37.4279 238.93 40.0584Z" fill="#EB4680"/>
<path d="M231.715 39.9081C231.715 38.4802 232.842 37.428 234.27 37.428C234.871 37.428 235.397 37.6534 235.848 37.9541C235.999 38.1044 236.074 38.3299 235.923 38.5553C235.773 38.7056 235.548 38.7808 235.322 38.6305C235.021 38.405 234.646 38.2547 234.195 38.2547C233.669 38.2547 233.218 38.4802 232.917 38.7808C232.616 39.0814 232.391 39.5324 232.391 39.9833C232.391 40.4342 232.616 40.8852 232.917 41.1858C233.218 41.4864 233.669 41.7119 234.195 41.7119C234.571 41.7119 234.871 41.6367 235.172 41.4113V40.4342H234.195C233.969 40.4342 233.819 40.2839 233.819 40.0585C233.819 39.833 233.969 39.6827 234.195 39.6827H235.548C235.773 39.6827 235.923 39.833 235.923 40.0585V41.5616C235.923 41.6367 235.923 41.6367 235.923 41.7119C235.923 41.7871 235.848 41.8622 235.773 41.8622C235.322 42.238 234.796 42.3883 234.195 42.3883C232.842 42.3883 231.715 41.261 231.715 39.9081Z" fill="white"/>
<path d="M249.076 34.6472C251.556 39.1566 247.272 43.666 242.838 41.7119C241.861 41.261 241.034 40.5094 240.583 39.4572C238.629 34.9478 243.214 30.6639 247.648 33.2192C248.249 33.5199 248.775 34.046 249.076 34.6472Z" fill="#3185EC"/>
<path d="M245.769 36.5261C245.769 36.7516 245.619 36.9019 245.393 36.9019H245.243V38.8559C245.468 38.8559 245.619 39.0063 245.619 39.2317C245.619 39.4572 245.468 39.6075 245.243 39.6075C244.792 39.6075 244.491 39.2317 244.491 38.8559V36.9019H244.266C244.04 36.9019 243.89 36.7516 243.89 36.5261C243.89 36.3006 244.04 36.1503 244.266 36.1503H244.491V35.1733C244.491 34.9478 244.642 34.7975 244.867 34.7975C245.092 34.7975 245.243 34.9478 245.243 35.1733V36.1503H245.393C245.619 36.1503 245.769 36.3006 245.769 36.5261Z" fill="white"/>
<path d="M246.445 47.1984C248.925 51.7078 244.642 56.2171 240.207 54.2631C239.23 53.8121 238.404 53.0606 237.953 52.0084C235.999 47.499 240.583 43.2151 245.017 45.7704C245.619 46.1462 246.145 46.5971 246.445 47.1984Z" fill="#094F8E"/>
<path d="M240.959 51.858V47.7244C240.959 47.4989 241.11 47.3486 241.335 47.3486H243.59C243.815 47.3486 243.965 47.4989 243.965 47.7244C243.965 47.9499 243.815 48.1002 243.59 48.1002H241.711V49.3779H243.364C243.59 49.3779 243.74 49.5282 243.74 49.7536C243.74 49.9791 243.59 50.1294 243.364 50.1294H241.711V51.858C241.711 52.0835 241.56 52.2338 241.335 52.2338C241.11 52.2338 240.959 52.0835 240.959 51.858Z" fill="white"/>
<path d="M184.968 51.5574C184.968 52.2338 184.441 52.7599 183.765 52.7599C183.089 52.7599 182.563 52.2338 182.563 51.5574C182.563 50.881 183.089 50.3549 183.765 50.3549C184.441 50.3549 184.968 50.9561 184.968 51.5574Z" fill="white"/>
<path d="M188.349 51.5574C188.349 52.2338 187.823 52.7599 187.147 52.7599C186.47 52.7599 185.944 52.2338 185.944 51.5574C185.944 50.881 186.47 50.3549 187.147 50.3549C187.823 50.3549 188.349 50.9561 188.349 51.5574Z" fill="white"/>
<path d="M191.731 51.5574C191.731 52.2338 191.205 52.7599 190.529 52.7599C189.853 52.7599 189.326 52.2338 189.326 51.5574C189.326 50.881 189.853 50.3549 190.529 50.3549C191.205 50.3549 191.731 50.9561 191.731 51.5574Z" fill="white"/>
<path d="M116.829 52.8486H136.369V50.2933H116.829V52.8486Z" fill="white"/>
<path d="M179.406 51.858H171.89C171.665 51.858 171.515 51.7077 171.515 51.4822C171.515 51.2568 171.665 51.1064 171.89 51.1064H179.406C179.631 51.1064 179.782 51.2568 179.782 51.4822C179.782 51.6325 179.631 51.858 179.406 51.858Z" fill="white"/>
<path d="M167.456 51.858H139.272C139.046 51.858 138.896 51.7077 138.896 51.4822C138.896 51.2568 139.046 51.1064 139.272 51.1064H167.456C167.681 51.1064 167.831 51.2568 167.831 51.4822C167.831 51.6325 167.681 51.858 167.456 51.858Z" fill="white"/>
<path d="M170.086 58.9227H155.656V65.9123H170.086V58.9227Z" fill="white"/>
<path d="M166.253 62.7557H159.564C159.339 62.7557 159.189 62.6054 159.189 62.3799C159.189 62.1545 159.339 62.0042 159.564 62.0042H166.253C166.479 62.0042 166.629 62.1545 166.629 62.3799C166.629 62.6054 166.404 62.7557 166.253 62.7557Z" fill="black"/>
<path d="M192.333 67.9417H172.867V76.9604H192.333V67.9417Z" fill="white"/>
<path d="M237.577 33.0688C236.6 33.0688 235.773 32.2421 235.773 31.2651C235.773 30.8141 235.924 30.3632 236.3 29.9874C236.6 29.6868 237.051 29.4613 237.577 29.4613C238.554 29.4613 239.381 30.288 239.306 31.2651C239.306 31.716 239.156 32.1669 238.78 32.5427C238.479 32.9185 238.028 33.0688 237.577 33.0688ZM237.577 30.288C237.277 30.288 237.051 30.3632 236.826 30.5887C236.6 30.8141 236.525 31.0396 236.525 31.3402C236.525 31.8663 236.976 32.3924 237.502 32.3924C237.803 32.3924 238.028 32.3173 238.254 32.0918C238.479 31.8663 238.554 31.6408 238.554 31.3402C238.629 30.8141 238.178 30.288 237.577 30.288Z" fill="#D6DEE7"/>
<path d="M274.103 12.1754H264.634C264.408 12.1754 264.258 12.0251 264.258 11.7996C264.258 11.5741 264.408 11.4238 264.634 11.4238H274.103C274.329 11.4238 274.479 11.5741 274.479 11.7996C274.479 12.0251 274.254 12.1754 274.103 12.1754Z" fill="#D6DEE7"/>
<path d="M276.734 16.9103H267.264C267.038 16.9103 266.888 16.7599 266.888 16.5345C266.888 16.309 267.038 16.1587 267.264 16.1587H276.734C276.959 16.1587 277.109 16.309 277.109 16.5345C277.109 16.7599 276.884 16.9103 276.734 16.9103Z" fill="#D6DEE7"/>
<path d="M288.909 14.2798H283.648C283.423 14.2798 283.272 14.1295 283.272 13.904C283.272 13.6785 283.423 13.5282 283.648 13.5282H288.909C289.134 13.5282 289.285 13.6785 289.285 13.904C289.285 14.1295 289.134 14.2798 288.909 14.2798Z" fill="#D6DEE7"/>
<path d="M279.965 14.2798H271.097C270.872 14.2798 270.721 14.1295 270.721 13.904C270.721 13.6785 270.872 13.5282 271.097 13.5282H279.965C280.191 13.5282 280.341 13.6785 280.341 13.904C280.341 14.1295 280.191 14.2798 279.965 14.2798Z" fill="#D6DEE7"/>
<path d="M241.185 21.7203C238.103 21.7203 236.525 19.8414 236.375 17.9625C236.3 16.9103 236.826 15.783 237.728 15.1065C238.479 14.5053 239.456 14.355 240.433 14.6556C240.583 10.0711 244.341 6.31323 249.001 6.31323C252.458 6.31323 255.54 8.34246 256.892 11.499C258.396 11.6493 259.448 12.7767 259.673 14.4301C261.853 14.8811 263.356 16.3842 263.356 17.9625C263.356 19.9917 261.101 21.6452 258.32 21.7203H241.185ZM239.531 15.2569C239.08 15.2569 238.554 15.4072 238.178 15.7078C237.502 16.2339 237.051 17.1358 237.126 17.8873C237.277 19.3153 238.404 20.9688 241.185 20.9688H258.32C260.725 20.8936 262.604 19.5408 262.604 17.9625C262.604 16.6097 261.252 15.4072 259.222 15.1065L258.922 15.0314V14.7308C258.771 13.2276 257.869 12.2506 256.517 12.2506H256.291V12.0251C255.089 9.01887 252.233 7.0648 249.001 7.0648C244.717 7.0648 241.185 10.5972 241.185 14.8811C241.185 14.9562 241.185 15.1065 241.185 15.1817V15.783L240.659 15.5575C240.283 15.332 239.907 15.2569 239.531 15.2569Z" fill="#D6DEE7"/>
<path d="M14.362 55.3153C13.385 55.3153 12.5583 54.4886 12.5583 53.5115C12.5583 53.0606 12.7086 52.6096 13.0844 52.2339C13.385 51.9332 13.8359 51.7078 14.362 51.7078C14.813 51.7078 15.2639 51.8581 15.6397 52.2339C15.9403 52.5345 16.1658 52.9854 16.1658 53.5115C16.1658 53.9625 16.0155 54.4134 15.6397 54.7892C15.2639 55.165 14.813 55.3153 14.362 55.3153ZM14.362 52.5345C14.0614 52.5345 13.8359 52.6096 13.6104 52.8351C13.385 53.0606 13.3098 53.2861 13.3098 53.5867C13.3098 54.1128 13.7608 54.6389 14.2869 54.6389C14.5875 54.6389 14.813 54.5637 15.0384 54.3382C15.2639 54.1128 15.339 53.8873 15.339 53.5867C15.339 53.2861 15.2639 53.0606 15.0384 52.8351C14.8881 52.6848 14.6626 52.5345 14.362 52.5345Z" fill="#D6DEE7"/>
<path d="M107.18 38.6305C106.203 38.6305 105.377 37.8037 105.377 36.8267C105.377 36.3758 105.527 35.9248 105.903 35.549C106.203 35.2484 106.654 35.0229 107.18 35.0229C107.631 35.0229 108.082 35.1733 108.458 35.549C108.759 35.8497 108.984 36.3006 108.984 36.8267C108.984 37.2776 108.834 37.7286 108.458 38.1044C108.082 38.4802 107.631 38.6305 107.18 38.6305ZM107.18 35.8497C106.88 35.8497 106.654 35.9248 106.429 36.1503C106.203 36.3758 106.128 36.6012 106.128 36.9019C106.128 37.428 106.579 37.9541 107.105 37.9541C107.406 37.9541 107.631 37.8789 107.857 37.6534C108.082 37.428 108.157 37.2025 108.157 36.9019C108.157 36.6012 108.082 36.3758 107.857 36.1503C107.707 35.9248 107.481 35.8497 107.18 35.8497Z" fill="#D6DEE7"/>
<path d="M175.949 48.8518C175.723 48.8518 175.573 48.7014 175.573 48.476V27.357C175.573 27.1315 175.723 26.9812 175.949 26.9812H198.27C198.496 26.9812 198.646 27.1315 198.646 27.357C198.646 27.5825 198.496 27.7328 198.27 27.7328H176.324V48.476C176.324 48.7014 176.174 48.8518 175.949 48.8518Z" fill="#1C976E"/>
<path d="M196.692 24.501L199.247 27.4321L196.692 24.501Z" fill="white"/>
<path d="M199.247 27.7327C199.172 27.7327 199.022 27.6575 198.947 27.5824L196.391 24.6513C196.241 24.501 196.241 24.2755 196.391 24.1252C196.542 23.9749 196.767 23.9749 196.917 24.1252L199.473 27.0563C199.623 27.2066 199.623 27.4321 199.473 27.5824C199.397 27.7327 199.322 27.7327 199.247 27.7327Z" fill="#1C976E"/>
<path d="M196.692 30.288L199.247 27.3569L196.692 30.288Z" fill="white"/>
<path d="M196.692 30.6638C196.617 30.6638 196.541 30.6638 196.466 30.5886C196.316 30.4383 196.316 30.2128 196.466 30.0625L199.022 27.1314C199.172 26.9811 199.397 26.9811 199.548 27.1314C199.698 27.2817 199.698 27.5072 199.548 27.6575L196.992 30.5886C196.917 30.5886 196.842 30.6638 196.692 30.6638Z" fill="#1C976E"/>
<path d="M192.483 78.9895H173.018V88.0083H192.483V78.9895Z" fill="white"/>
<path d="M190.078 73.9541H175.798C175.573 73.9541 175.422 73.8038 175.422 73.5783C175.422 73.3528 175.573 73.2025 175.798 73.2025H190.078C190.303 73.2025 190.454 73.3528 190.454 73.5783C190.454 73.8038 190.303 73.9541 190.078 73.9541Z" fill="black"/>
<path d="M185.418 83.499C185.418 85.0021 184.216 86.2046 182.713 86.2046C181.21 86.2046 180.007 85.0021 180.007 83.499C180.007 81.9958 181.21 80.7933 182.713 80.7933C184.216 80.8685 185.418 82.071 185.418 83.499Z" fill="#1C976E"/>
<path d="M182.036 83.4989V82.3716L183.089 82.8977L184.141 83.4989L183.089 84.1002L182.036 84.7014V83.4989Z" fill="white"/>
<path d="M190.078 71.7745H175.798C175.573 71.7745 175.422 71.6242 175.422 71.3987C175.422 71.1733 175.573 71.0229 175.798 71.0229H190.078C190.303 71.0229 190.454 71.1733 190.454 71.3987C190.454 71.6242 190.303 71.7745 190.078 71.7745Z" fill="black"/>
<path d="M222.17 84.2506H190.829C190.604 84.2506 190.454 84.1003 190.454 83.8748C190.454 83.6493 190.604 83.499 190.829 83.499H222.17C222.395 83.499 222.545 83.6493 222.545 83.8748C222.545 84.0251 222.32 84.2506 222.17 84.2506Z" fill="#1C976E"/>
<path d="M220.066 80.9437L222.621 83.8748L220.066 80.9437Z" fill="white"/>
<path d="M222.62 84.1755C222.545 84.1755 222.395 84.1003 222.32 84.0251L219.764 81.094C219.614 80.9437 219.614 80.7182 219.764 80.5679C219.915 80.4176 220.14 80.4176 220.291 80.5679L222.846 83.499C222.996 83.6494 222.996 83.8748 222.846 84.0251C222.771 84.1755 222.696 84.1755 222.62 84.1755Z" fill="#1C976E"/>
<path d="M220.066 86.7307L222.621 83.7996L220.066 86.7307Z" fill="white"/>
<path d="M220.065 87.1065C219.99 87.1065 219.915 87.1065 219.84 87.0314C219.69 86.8811 219.69 86.6556 219.84 86.5053L222.395 83.5742C222.546 83.4238 222.771 83.4238 222.921 83.5742C223.072 83.7245 223.072 83.9499 222.921 84.1003L220.366 87.0314C220.291 87.0314 220.216 87.1065 220.065 87.1065Z" fill="#1C976E"/>
<path d="M226.755 67.9416C226.679 67.9416 226.529 67.8664 226.454 67.8664C226.379 67.7913 226.379 67.7161 226.379 67.5658V62.38H194.663C194.437 62.38 194.287 62.2297 194.287 62.0042C194.287 61.7787 194.437 61.6284 194.663 61.6284H226.755C226.98 61.6284 227.13 61.7787 227.13 62.0042V67.19H248.249C248.475 67.19 248.625 67.3403 248.625 67.5658C248.625 67.7913 248.475 67.9416 248.249 67.9416H226.755Z" fill="#1C976E"/>
<path d="M246.37 70.3464L248.925 67.4153L246.37 70.3464Z" fill="white"/>
<path d="M246.37 70.7222C246.295 70.7222 246.22 70.7222 246.145 70.6471C245.995 70.4968 245.995 70.2713 246.145 70.121L248.7 67.1899C248.851 67.0396 249.076 67.0396 249.226 67.1899C249.377 67.3402 249.377 67.5657 249.226 67.716L246.671 70.6471C246.521 70.6471 246.445 70.7222 246.37 70.7222Z" fill="#1C976E"/>
<path d="M246.37 64.5594L248.926 67.4906L246.37 64.5594Z" fill="white"/>
<path d="M248.85 67.7912C248.775 67.7912 248.625 67.716 248.55 67.6409L245.994 64.7098C245.844 64.5594 245.844 64.334 245.994 64.1837C246.145 64.0333 246.37 64.0333 246.52 64.1837L249.076 67.1148C249.226 67.2651 249.226 67.4905 249.076 67.6409C249.076 67.7912 248.925 67.7912 248.85 67.7912Z" fill="#1C976E"/>
<path d="M95.0802 99.0563H85.6104C85.385 99.0563 85.2347 98.9059 85.2347 98.6805C85.2347 98.455 85.385 98.3047 85.6104 98.3047H95.0802C95.3056 98.3047 95.456 98.455 95.456 98.6805C95.456 98.8308 95.3056 99.0563 95.0802 99.0563Z" fill="#D6DEE7"/>
<path d="M74.0363 61.7035H64.5666C64.3411 61.7035 64.1908 61.5532 64.1908 61.3277C64.1908 61.1022 64.3411 60.9519 64.5666 60.9519H74.0363C74.2618 60.9519 74.4121 61.1022 74.4121 61.3277C74.4121 61.5532 74.2618 61.7035 74.0363 61.7035Z" fill="#D6DEE7"/>
<path d="M150.696 37.879H141.226C141.001 37.879 140.85 37.7287 140.85 37.5032C140.85 37.2778 141.001 37.1274 141.226 37.1274H150.696C150.921 37.1274 151.072 37.2778 151.072 37.5032C151.072 37.7287 150.846 37.879 150.696 37.879Z" fill="#D6DEE7"/>
<path d="M218.412 72H208.942C208.717 72 208.567 71.8497 208.567 71.6242C208.567 71.3987 208.717 71.2484 208.942 71.2484H218.412C218.638 71.2484 218.788 71.3987 218.788 71.6242C218.788 71.8497 218.638 72 218.412 72Z" fill="#D6DEE7"/>
<path d="M201.351 38.7057H191.881C191.656 38.7057 191.506 38.5554 191.506 38.3299C191.506 38.1044 191.656 37.9541 191.881 37.9541H201.351C201.577 37.9541 201.727 38.1044 201.727 38.3299C201.727 38.5554 201.577 38.7057 201.351 38.7057Z" fill="#D6DEE7"/>
<path d="M222.922 74.5553H213.452C213.226 74.5553 213.076 74.405 213.076 74.1795C213.076 73.954 213.226 73.8037 213.452 73.8037H222.922C223.147 73.8037 223.297 73.954 223.297 74.1795C223.297 74.405 223.147 74.5553 222.922 74.5553Z" fill="#D6DEE7"/>
<path d="M78.3956 64.0334H68.9259C68.7004 64.0334 68.5501 63.8831 68.5501 63.6576C68.5501 63.4322 68.7004 63.2819 68.9259 63.2819H78.3956C78.6211 63.2819 78.7714 63.4322 78.7714 63.6576C78.7714 63.8831 78.6211 64.0334 78.3956 64.0334Z" fill="#D6DEE7"/>
<path d="M268.992 32.9187H259.523C259.297 32.9187 259.147 32.7684 259.147 32.5429C259.147 32.3174 259.297 32.1671 259.523 32.1671H268.992C269.218 32.1671 269.368 32.3174 269.368 32.5429C269.368 32.7684 269.218 32.9187 268.992 32.9187Z" fill="#D6DEE7"/>
<path d="M272.675 35.2485H263.206C262.98 35.2485 262.83 35.0982 262.83 34.8727C262.83 34.6473 262.98 34.4969 263.206 34.4969H272.675C272.901 34.4969 273.051 34.6473 273.051 34.8727C273.051 35.0982 272.901 35.2485 272.675 35.2485Z" fill="#D6DEE7"/>
<path d="M214.955 56.6679C213.978 56.6679 213.151 55.8412 213.151 54.8642C213.151 54.4132 213.301 53.9623 213.677 53.5865C213.978 53.2859 214.429 53.0604 214.955 53.0604C215.932 53.0604 216.759 53.8871 216.684 54.8642C216.684 55.3151 216.533 55.7661 216.157 56.1418C215.857 56.5176 215.481 56.6679 214.955 56.6679ZM214.955 53.8871C214.654 53.8871 214.429 53.9623 214.203 54.1878C213.978 54.4132 213.903 54.6387 213.903 54.9393C213.903 55.4654 214.354 55.9915 214.88 55.9915C215.18 55.9915 215.406 55.9164 215.631 55.6909C215.857 55.4654 215.932 55.24 215.932 54.9393C216.007 54.3381 215.556 53.8871 214.955 53.8871Z" fill="#D6DEE7"/>
<path d="M233.368 63.883C232.917 63.883 232.466 63.7327 232.091 63.3569C231.79 63.0563 231.564 62.6054 231.564 62.0793C231.564 61.6283 231.715 61.1774 232.091 60.8016C232.391 60.501 232.842 60.2755 233.368 60.2755C234.345 60.2755 235.172 61.1022 235.097 62.0793C235.097 63.1315 234.345 63.883 233.368 63.883ZM233.368 63.1315C233.894 63.1315 234.42 62.6805 234.42 62.1544C234.42 61.6283 233.97 61.1022 233.368 61.1022C233.068 61.1022 232.842 61.1774 232.617 61.4029C232.391 61.6283 232.316 61.8538 232.316 62.1544C232.316 62.4551 232.391 62.6805 232.617 62.906C232.842 63.0563 233.068 63.1315 233.368 63.1315Z" fill="#D6DEE7"/>
<path d="M180.759 33.6703C180.233 33.6703 179.857 33.5199 179.481 33.1442C179.18 32.8435 178.955 32.3926 178.955 31.8665C178.955 31.4156 179.105 30.9646 179.481 30.5888C179.782 30.2882 180.233 30.0627 180.759 30.0627C181.736 30.0627 182.562 30.8895 182.487 31.8665C182.487 32.8435 181.736 33.6703 180.759 33.6703ZM180.759 32.9187C181.285 32.9187 181.811 32.4678 181.811 31.9417C181.811 31.4156 181.36 30.8895 180.759 30.8895C180.458 30.8895 180.233 30.9646 180.007 31.1901C179.782 31.4156 179.707 31.641 179.707 31.9417C179.707 32.2423 179.782 32.4678 180.007 32.6932C180.233 32.8435 180.458 32.9187 180.759 32.9187Z" fill="#D6DEE7"/>
<path d="M278.988 83.5742C278.537 83.5742 278.086 83.4239 277.71 83.0481C277.41 82.7475 277.184 82.2965 277.184 81.7704C277.184 81.3195 277.335 80.8686 277.71 80.4928C278.011 80.1921 278.462 79.9667 278.988 79.9667C279.439 79.9667 279.89 80.117 280.266 80.4928C280.566 80.7934 280.792 81.2443 280.792 81.7704C280.792 82.8226 279.965 83.5742 278.988 83.5742ZM278.988 80.7934C278.688 80.7934 278.462 80.8686 278.237 81.094C278.011 81.3195 277.936 81.545 277.936 81.8456C277.936 82.1462 278.011 82.3717 278.237 82.5972C278.462 82.8226 278.688 82.8978 278.988 82.8978C279.214 82.8978 279.514 82.8226 279.74 82.5972C279.965 82.3717 280.04 82.1462 280.04 81.8456C280.04 81.545 279.965 81.3195 279.74 81.094C279.514 80.9437 279.289 80.7934 278.988 80.7934Z" fill="#D6DEE7"/>
<path d="M222.471 92.5929C222.02 92.5929 221.569 92.4426 221.193 92.0668C220.892 91.7661 220.667 91.3152 220.667 90.7891C220.667 90.3382 220.817 89.8872 221.193 89.5114C221.494 89.2108 221.944 88.9854 222.471 88.9854C222.997 88.9854 223.372 89.1357 223.748 89.5114C224.049 89.8121 224.274 90.263 224.274 90.7891C224.199 91.8413 223.372 92.5929 222.471 92.5929ZM222.471 89.8121C222.17 89.8121 221.944 89.8872 221.719 90.1127C221.494 90.3382 221.418 90.5636 221.418 90.8643C221.418 91.1649 221.494 91.3904 221.719 91.6158C221.944 91.8413 222.17 91.9165 222.471 91.9165C222.771 91.9165 222.997 91.8413 223.222 91.6158C223.448 91.3904 223.523 91.1649 223.523 90.8643C223.523 90.5636 223.448 90.3382 223.222 90.1127C222.997 89.9624 222.696 89.8121 222.471 89.8121Z" fill="#D6DEE7"/>
<path d="M288.909 42.9144C288.909 42.9144 288.834 42.9144 288.909 42.9144C287.932 42.9144 287.105 42.0877 287.105 41.1106C287.105 40.6597 287.255 40.2088 287.631 39.833C287.932 39.5324 288.383 39.3069 288.909 39.3069C289.886 39.3069 290.713 40.1336 290.637 41.1106C290.637 42.1628 289.811 42.9144 288.909 42.9144ZM288.834 42.1628C289.36 42.1628 289.886 41.7119 289.886 41.1858C289.886 40.6597 289.435 40.1336 288.909 40.1336C288.608 40.1336 288.383 40.2088 288.157 40.4342C287.932 40.6597 287.857 40.8852 287.857 41.1858C287.857 41.7119 288.308 42.1628 288.834 42.1628Z" fill="#D6DEE7"/>
</svg>
