<svg id="Layer_1" data-name="Layer 1" xmlns="http://www.w3.org/2000/svg" viewBox="0 0 150 75.5"><defs><style>.cls-1{fill:#214975;}.cls-2{fill:#1c976e;}</style></defs><rect class="cls-1" x="0.39" y="38.25" width="0.4" height="3.26"/><rect class="cls-1" x="1.36" y="37.13" width="0.4" height="5.13"/><rect class="cls-1" x="2.12" y="36.28" width="0.4" height="5.5"/><rect class="cls-1" x="3.06" y="35.38" width="0.46" height="6.4"/><rect class="cls-1" x="4.13" y="34.61" width="0.46" height="7.17"/><path class="cls-1" d="M.05,37.35a.11.11,0,0,0,.16,0,16.45,16.45,0,0,1,2.88-2.92,6,6,0,0,1,.83-.52l-.08.23a.12.12,0,0,0,.07.15.12.12,0,0,0,.15-.07l.17-.48v0h0v0a.13.13,0,0,0-.08-.08l-.49-.17a.11.11,0,0,0-.14.06h0a.12.12,0,0,0,.08.14l.22.08a5,5,0,0,0-.84.52,16.87,16.87,0,0,0-2.95,3s0,0,0,0A.11.11,0,0,0,.05,37.35Z"/><path class="cls-2" d="M3.08,29.29H0V32H2.58c3,0,4.37,1.72,4.37,4.44,0,3.12-1.55,4.74-4.42,4.74H0V44H3a7.36,7.36,0,0,0,7.73-7.6C10.73,32.5,8,29.29,3.08,29.29Z"/><path class="cls-2" d="M14.55,30.1a1,1,0,0,1-.11.5,1.42,1.42,0,0,1-.71.71,1.34,1.34,0,0,1-.52.1,1.25,1.25,0,0,1-.51-.1,1.46,1.46,0,0,1-.41-.29A1.34,1.34,0,0,1,12,30.6a1.18,1.18,0,0,1-.1-.5,1.31,1.31,0,0,1,.38-.94,1.28,1.28,0,0,1,.41-.29,1.26,1.26,0,0,1,.51-.11,1.35,1.35,0,0,1,.52.11,1.22,1.22,0,0,1,.42.29,1.37,1.37,0,0,1,.29.42A1.19,1.19,0,0,1,14.55,30.1Zm-.39,3.31V44H12.3V33.41Z"/><path class="cls-2" d="M25.91,33.83v.69c0,.23-.15.37-.44.44l-1.2.15a3.24,3.24,0,0,1,.35,1.52A3.38,3.38,0,0,1,24.33,38a3.23,3.23,0,0,1-.82,1.08,3.86,3.86,0,0,1-1.25.68,5.09,5.09,0,0,1-1.59.24,5.63,5.63,0,0,1-1.39-.17,1.51,1.51,0,0,0-.51.44.77.77,0,0,0-.18.47.63.63,0,0,0,.31.57,2.2,2.2,0,0,0,.8.28,9.3,9.3,0,0,0,1.15.1l1.31.07a11.16,11.16,0,0,1,1.31.16,3.82,3.82,0,0,1,1.14.38,2,2,0,0,1,1.12,1.9,2.73,2.73,0,0,1-.34,1.32,3.68,3.68,0,0,1-1,1.13,5.19,5.19,0,0,1-1.56.79,6.74,6.74,0,0,1-2.08.3,8,8,0,0,1-2-.23,4.56,4.56,0,0,1-1.44-.62,2.51,2.51,0,0,1-.86-.89A2.14,2.14,0,0,1,16.17,45a1.88,1.88,0,0,1,.49-1.32A3.46,3.46,0,0,1,18,42.79a1.82,1.82,0,0,1-.74-.55,1.53,1.53,0,0,1-.28-1,1.35,1.35,0,0,1,.09-.47,1.89,1.89,0,0,1,.25-.49,3,3,0,0,1,.42-.46,2.75,2.75,0,0,1,.59-.39A3.31,3.31,0,0,1,17,35.23a3,3,0,0,1,.83-1.07,3.63,3.63,0,0,1,1.26-.68,5.18,5.18,0,0,1,1.61-.24,5.31,5.31,0,0,1,1.29.15,4.3,4.3,0,0,1,1.08.44ZM24,44.55a.88.88,0,0,0-.22-.63,1.46,1.46,0,0,0-.59-.37,3.4,3.4,0,0,0-.86-.2c-.33,0-.67-.07-1-.09L20.2,43.2c-.37,0-.73-.05-1.08-.1a2.86,2.86,0,0,0-.95.68,1.38,1.38,0,0,0-.37,1,1.32,1.32,0,0,0,.18.67,1.6,1.6,0,0,0,.56.53,3.3,3.3,0,0,0,.94.35,5.85,5.85,0,0,0,1.34.13,6,6,0,0,0,1.34-.13,3.23,3.23,0,0,0,1-.39,2,2,0,0,0,.63-.59A1.37,1.37,0,0,0,24,44.55Zm-3.35-5.74a3,3,0,0,0,1-.15,2,2,0,0,0,.72-.44,1.78,1.78,0,0,0,.44-.67,2.39,2.39,0,0,0,.15-.86,2.09,2.09,0,0,0-.59-1.55,2.37,2.37,0,0,0-1.71-.57,2.35,2.35,0,0,0-1.71.57,2.09,2.09,0,0,0-.59,1.55,2.39,2.39,0,0,0,.15.86,1.91,1.91,0,0,0,.44.67,2.18,2.18,0,0,0,.72.44A3,3,0,0,0,20.67,38.81Z"/><path class="cls-2" d="M30,30.1a1.18,1.18,0,0,1-.11.5,1.37,1.37,0,0,1-.29.42,1.3,1.3,0,0,1-.43.29,1.35,1.35,0,0,1-1,0,1.33,1.33,0,0,1-.41-.29,1.34,1.34,0,0,1-.28-.42,1.18,1.18,0,0,1-.11-.5,1.37,1.37,0,0,1,.39-.94,1.18,1.18,0,0,1,.41-.29,1.24,1.24,0,0,1,1,0,1.17,1.17,0,0,1,.43.29,1.37,1.37,0,0,1,.29.42A1.35,1.35,0,0,1,30,30.1Zm-.39,3.31V44H27.73V33.41Z"/><path class="cls-2" d="M35.66,44.14a2.53,2.53,0,0,1-1.92-.7,2.77,2.77,0,0,1-.67-2V35H31.79a.45.45,0,0,1-.28-.1.42.42,0,0,1-.11-.31v-.74l1.73-.22.43-3.26a.42.42,0,0,1,.14-.26A.43.43,0,0,1,34,30h.94v3.64H38V35H34.92V41.3a1.31,1.31,0,0,0,.33,1,1.1,1.1,0,0,0,.83.33,1.5,1.5,0,0,0,.5-.08,1.84,1.84,0,0,0,.37-.17l.27-.17a.3.3,0,0,1,.19-.08.31.31,0,0,1,.26.17l.55.89a3.46,3.46,0,0,1-1.16.7A4,4,0,0,1,35.66,44.14Z"/><path class="cls-2" d="M39.41,34.9a6.25,6.25,0,0,1,1.89-1.26,5.8,5.8,0,0,1,2.24-.41,3.94,3.94,0,0,1,1.58.29,3.08,3.08,0,0,1,1.15.81A3.39,3.39,0,0,1,47,35.59a5.31,5.31,0,0,1,.24,1.63V44H46.4a.82.82,0,0,1-.42-.09.6.6,0,0,1-.23-.35l-.21-1a9.63,9.63,0,0,1-.81.69,5.38,5.38,0,0,1-.83.5A4.93,4.93,0,0,1,43,44a5.25,5.25,0,0,1-1.1.11A3.9,3.9,0,0,1,40.71,44a2.82,2.82,0,0,1-1-.52,2.44,2.44,0,0,1-.63-.87,3,3,0,0,1-.24-1.24,2.35,2.35,0,0,1,.35-1.21,3.1,3.1,0,0,1,1.11-1,7.74,7.74,0,0,1,2-.73,15.7,15.7,0,0,1,3-.33v-.82a2.84,2.84,0,0,0-.53-1.86,1.94,1.94,0,0,0-1.56-.63,3.21,3.21,0,0,0-1.15.17,4,4,0,0,0-.8.38l-.58.39a.91.91,0,0,1-.49.17.51.51,0,0,1-.32-.1.76.76,0,0,1-.23-.24Zm6,4.32a17.34,17.34,0,0,0-2.19.2,6.56,6.56,0,0,0-1.47.42,2.11,2.11,0,0,0-.82.62,1.33,1.33,0,0,0-.25.79,1.75,1.75,0,0,0,.13.72,1.45,1.45,0,0,0,.37.5,1.51,1.51,0,0,0,.55.28,2.56,2.56,0,0,0,.69.09,4.11,4.11,0,0,0,.89-.1,3.39,3.39,0,0,0,.77-.29,3.71,3.71,0,0,0,.69-.45,5.81,5.81,0,0,0,.64-.59Z"/><path class="cls-2" d="M51.76,28.62V44H49.9V28.62Z"/><path class="cls-1" d="M72.1,44H69.54V36a16.34,16.34,0,0,1,.09-1.79q-.25.77-.69,1.83l-3.62,8.15L61.7,36c-.26-.57-.49-1.16-.71-1.79A16.34,16.34,0,0,1,61.08,36V44H58.52V29.05H61.1l3.84,8.76c.15.4.29.77.4,1.11.12-.34.25-.71.41-1.11l3.86-8.76H72.1Z"/><path class="cls-1" d="M81.18,44V43.1a3.84,3.84,0,0,1-2.9,1.13,4.2,4.2,0,0,1-2.84-.95,3.32,3.32,0,0,1-1.1-2.68,3.09,3.09,0,0,1,1.25-2.68,4.94,4.94,0,0,1,3-.92,5.13,5.13,0,0,1,2.58.58V37a1.93,1.93,0,0,0-.52-1.51A2.38,2.38,0,0,0,79.05,35a5.56,5.56,0,0,0-3.24,1L75,34A8.17,8.17,0,0,1,80.81,33a4.77,4.77,0,0,1,1.34.54,2.76,2.76,0,0,1,1.08,1.28A5.57,5.57,0,0,1,83.61,37v7ZM78.75,42a3.27,3.27,0,0,0,2.43-1V39.58A5,5,0,0,0,79,39.13a3.08,3.08,0,0,0-1.62.37,1.18,1.18,0,0,0-.62,1.1,1.25,1.25,0,0,0,.51,1A2.45,2.45,0,0,0,78.75,42Z"/><path class="cls-1" d="M86.06,44V33.08h2.5v1.13a2.28,2.28,0,0,1,2.24-1.39,3,3,0,0,1,2,.75l-.36,2.28a3.15,3.15,0,0,0-1.85-.58,2,2,0,0,0-1.45.6,2.78,2.78,0,0,0-.6,2V44Z"/><path class="cls-1" d="M103.67,44H101l-3.12-6-1.21,1.19V44h-2.5V29.75l2.5-1.17v7.65l3.07-3.15h3l-3.09,3.09Z"/><path class="cls-1" d="M109.77,44.23a4.68,4.68,0,0,1-3.68-1.53,6.07,6.07,0,0,1-1.35-4.18,6,6,0,0,1,1.36-4.17,5.16,5.16,0,0,1,7.09-.23,5.1,5.1,0,0,1,1.34,3.82,11.46,11.46,0,0,1-.09,1.53h-7.23a2.71,2.71,0,0,0,.8,1.86,2.45,2.45,0,0,0,1.76.7,2.7,2.7,0,0,0,2.3-1.13l1.58,1.62A4.78,4.78,0,0,1,109.77,44.23Zm-2.54-6.82h4.82a2.59,2.59,0,0,0-.72-1.78,2.17,2.17,0,0,0-1.56-.61,2.63,2.63,0,0,0-1.76.58A2.53,2.53,0,0,0,107.23,37.41Z"/><path class="cls-1" d="M119.58,44.23c-1.69,0-2.54-.93-2.54-2.79V35.25h-1.62V33.08H117V29.77l2.5-1.19v4.5h2.51v2.17h-2.51V41c0,.69.3,1,.91,1a3.46,3.46,0,0,0,1.71-.49l-.3,2.24A5,5,0,0,1,119.58,44.23Z"/><path class="cls-1" d="M126.4,31.15a1.4,1.4,0,0,1-1,.44,1.5,1.5,0,0,1-1.5-1.5,1.4,1.4,0,0,1,.44-1,1.43,1.43,0,0,1,1.06-.43,1.39,1.39,0,0,1,1,.43,1.43,1.43,0,0,1,.43,1A1.47,1.47,0,0,1,126.4,31.15ZM124.1,44V33.08h2.49V44Z"/><path class="cls-1" d="M136,44V37.73c0-1.7-.67-2.54-2-2.54s-2.22.83-2.22,2.49V44h-2.49V33.08h2.49v1a3.56,3.56,0,0,1,2.88-1.28,3.78,3.78,0,0,1,2.78,1.07,4.6,4.6,0,0,1,1.08,3.39V44Z"/><path class="cls-1" d="M144.86,48.24l-1.32-2a7.21,7.21,0,0,0,3.1-.69,1.83,1.83,0,0,0,.87-1.67v-.62a3.22,3.22,0,0,1-2.48,1,4.07,4.07,0,0,1-3.25-1.48,6.41,6.41,0,0,1-1.25-4.23,6.38,6.38,0,0,1,1.25-4.17,4,4,0,0,1,3.27-1.53,3.34,3.34,0,0,1,2.46.92v-.66H150v9.81a5.56,5.56,0,0,1-1.16,3.92A6.07,6.07,0,0,1,144.86,48.24Zm.6-6.4a2.3,2.3,0,0,0,2-1.07V36.26a2.35,2.35,0,0,0-2-1.07,2.1,2.1,0,0,0-1.8.85,4.13,4.13,0,0,0-.63,2.48,4.09,4.09,0,0,0,.64,2.43A2.07,2.07,0,0,0,145.46,41.84Z"/></svg>