<svg width="231" height="187" viewBox="0 0 231 187" fill="none" xmlns="http://www.w3.org/2000/svg">
<path d="M200.704 98.6951C198.495 104.061 198.232 110.48 199.021 116.161C199.757 121.685 201.283 127.052 201.757 132.681C202.23 138.31 201.967 143.571 200.81 148.674C199.81 153.198 198.126 157.565 195.654 161.879C195.443 162.247 195.233 162.615 195.023 162.931H27.4619C26.4098 158.144 25.2524 153.409 24.0949 148.674C21.8327 138.994 19.6758 129.261 18.7814 119.318C17.624 106.218 18.8866 88.9098 33.512 83.7015C40.8773 81.071 49.0318 83.1754 56.4497 80.5449C68.1815 76.3888 72.4955 63.8152 78.5982 54.2403C83.333 46.875 89.4883 40.6671 97.5375 36.8792C104.535 33.5648 110.111 32.9335 114.846 33.9857C116.424 34.3013 117.897 34.8274 119.318 35.5114C121.317 37.1422 123.421 38.7205 125.578 40.1936C126.525 40.8249 127.472 41.5088 128.472 42.1401C131.891 44.2445 135.574 45.9806 139.415 47.2432C148.148 50.1367 157.46 50.6102 166.561 49.6106C171.033 49.1372 175.399 48.2428 179.713 47.138C183.659 46.191 187.342 44.5075 191.34 43.6658C195.128 42.8767 199.179 43.0345 202.704 44.6654C210.069 48.0324 213.646 56.5025 213.804 64.1308C213.909 70.8648 212.121 77.4936 209.28 83.5436C206.807 88.752 202.967 93.2764 200.704 98.6951Z" fill="url(#paint0_linear)"/>
<path d="M34.7221 175.452C34.7221 176.715 26.936 177.714 17.3611 177.714C7.78618 177.714 0 176.715 0 175.452C0 174.189 7.78618 173.19 17.3611 173.19C26.936 173.19 34.7221 174.242 34.7221 175.452Z" fill="#E2E6F7"/>
<path d="M93.2763 186.5C102.865 186.5 110.637 185.487 110.637 184.238C110.637 182.988 102.865 181.976 93.2763 181.976C83.688 181.976 75.9152 182.988 75.9152 184.238C75.9152 185.487 83.688 186.5 93.2763 186.5Z" fill="#E2E6F7"/>
<path d="M211.174 182.186C211.174 183.448 203.387 184.448 193.813 184.448C184.238 184.448 176.451 183.448 176.451 182.186C176.451 180.923 184.238 179.924 193.813 179.924C203.387 179.924 211.174 180.923 211.174 182.186Z" fill="#E2E6F7"/>
<path d="M24.9366 129.156C24.9366 128.946 25.0418 128.788 25.1997 128.63C26.4097 127.525 29.5136 124.579 30.408 125C31.355 125.421 26.5675 130.471 26.0414 130.366C25.4627 130.261 24.7788 130.261 24.9366 129.156Z" fill="#E0B59D"/>
<path d="M29.2508 125.368C29.2508 125.368 30.1977 124.474 30.9869 124.684C31.776 124.894 32.1443 125.42 32.2495 125.736C32.3547 125.999 32.1969 126.473 32.0391 126.315C31.8812 126.157 30.9343 125.473 30.8817 125.841C30.7764 126.262 31.4077 126.42 31.0395 126.683C30.6712 126.946 29.7242 125.631 29.7242 125.631L29.2508 125.368Z" fill="#E0B59D"/>
<path d="M20.6755 119.002C20.2546 119.423 20.1494 120.002 20.3599 120.581C21.2016 123.001 24.1477 131.102 25.9364 130.629C28.0934 130.05 25.0947 123.053 23.9373 121.107C22.9903 119.476 21.6751 118.003 20.6755 119.002Z" fill="#E0B59D"/>
<path d="M19.5706 121.58L19.9389 122.264L22.885 127.946L24.2002 127.262L26.252 126.21C26.252 126.21 26.1467 125.473 25.042 122.212C24.4633 120.528 24.1476 119.371 23.5689 119.055C23.5163 119.055 21.7276 118.424 21.675 118.424C21.5171 118.371 21.4645 118.318 21.4645 118.318L20.7806 119.528L19.5706 121.58Z" fill="url(#paint1_linear)"/>
<path d="M29.5664 127.262C29.5664 127.262 29.0929 127.841 28.409 128.577C27.6199 129.419 26.5677 130.471 25.5155 131.102C24.7263 131.576 23.9372 131.839 23.3585 131.576C22.2537 131.102 21.3593 127.683 21.3593 127.683L23.832 119.37C23.832 119.37 24.9368 120.054 26.5677 126.999L28.409 125.736L29.5664 127.262Z" fill="url(#paint2_linear)"/>
<path opacity="0.3" d="M28.4089 128.577C27.6198 129.419 26.5676 130.471 25.5154 131.102L24.2528 130.997C24.2528 130.997 23.2006 128.051 23.2006 127.946C23.2006 127.841 24.621 123.316 24.621 123.316C24.621 123.316 24.6737 129.419 25.6732 129.472C27.0937 129.577 27.8828 128.84 28.4089 128.577Z" fill="url(#paint3_linear)"/>
<path d="M17.4662 112.005C17.098 113.531 18.5184 116.424 18.5184 116.424L17.9923 117.95L17.6241 119.423L19.7284 121.264L21.0437 119.002L21.5172 117.477C21.5172 117.477 22.9902 117.634 23.4111 116.53C23.832 115.425 25.8837 111.058 22.7272 109.638C19.6232 108.217 17.8345 110.48 17.4662 112.005Z" fill="#E0B59D"/>
<path d="M24.5686 112.636C24.5686 112.636 20.9386 111.321 20.5177 112.321C20.0968 113.268 20.2546 114.162 19.9916 114.215C19.6759 114.267 19.3077 112.531 18.729 113.005C18.0977 113.478 18.9394 115.004 18.3607 115.898C18.1503 116.214 16.9929 112.689 17.3085 111.111C17.6242 109.533 18.992 107.954 21.5173 108.323C22.4642 108.48 25.3577 108.059 25.9364 108.691C26.8308 109.69 25.0421 112.005 24.5686 112.636Z" fill="#1C976E"/>
<path d="M16.6245 140.204C15.4671 139.888 14.2571 140.73 13.994 141.94C13.7836 142.939 13.6258 144.255 13.7836 145.938C14.0993 150.199 13.3101 155.25 14.7832 156.092C16.2562 156.881 17.9397 154.461 18.4658 150.305C18.8867 146.569 20.2545 142.045 19.3076 141.256C18.7815 140.782 17.6241 140.467 16.6245 140.204Z" fill="#E0B59D"/>
<path d="M20.9385 139.836C19.7285 139.73 18.6763 140.73 18.6237 141.993C18.5711 142.992 18.6763 144.307 19.0446 145.991C19.9915 150.147 20.0441 155.25 21.6224 155.829C23.2007 156.407 24.3581 153.619 24.1477 149.41C23.9898 145.623 24.779 141.046 23.6742 140.414C23.1481 140.099 21.9907 139.941 20.9385 139.836Z" fill="#E0B59D"/>
<path d="M16.0984 154.724C13.8362 151.515 8.89092 166.614 8.31222 170.928C7.73352 175.242 9.78528 172.243 12.5736 165.982C15.3619 159.722 16.9928 155.987 16.0984 154.724Z" fill="#E0B59D"/>
<path d="M22.7797 154.198C19.4653 152.146 20.7806 167.929 21.938 172.138C23.0954 176.346 23.7793 172.769 23.9371 165.877C24.0423 159.038 24.0949 154.987 22.7797 154.198Z" fill="#E0B59D"/>
<path d="M21.675 172.664L21.3593 170.612L23.6742 170.717L23.6215 172.716L21.675 172.664Z" fill="#E0B59D"/>
<path d="M7.6283 171.77L8.207 169.77L10.3114 170.823L9.41701 172.611L7.6283 171.77Z" fill="#E0B59D"/>
<path d="M8.04916 170.033L10.364 171.138C10.364 171.138 16.2562 158.985 17.098 156.881C17.9397 154.776 18.8867 147.832 18.8867 147.832L20.3071 155.723C19.6758 162.089 21.0963 171.506 21.0963 171.506H23.9372C23.9372 171.506 24.1476 161.247 24.4107 155.197C24.6737 149.568 24.3054 141.887 24.2528 140.835V140.782C24.2528 140.73 24.2528 140.677 24.2528 140.677L14.7305 140.625H13.9414C13.8888 140.73 13.8888 140.835 13.8362 140.94C11.9949 146.464 13.5205 155.092 13.5205 155.092C9.89049 160.721 8.04916 170.033 8.04916 170.033Z" fill="#1C976E"/>
<path d="M9.78534 171.927C9.78534 171.927 10.0484 172.874 11.048 174.4C12.0475 175.925 12.521 175.82 12.4158 176.241C12.3106 176.662 6.62878 174.347 6.62878 174.347L7.8388 171.138C7.8388 171.138 9.78534 171.875 9.78534 171.927Z" fill="#1C976E"/>
<path d="M23.6214 172.716C23.6214 172.716 24.3053 173.558 25.7784 174.663C27.2514 175.768 27.6197 175.505 27.6723 175.926C27.7249 176.346 21.5696 176.031 21.5696 176.031L21.6222 172.611C21.6749 172.664 23.6214 172.664 23.6214 172.716Z" fill="#1C976E"/>
<path d="M13.9939 140.572H24.3054C24.3054 140.572 24.358 137.415 24.4106 133.575C24.4106 133.049 24.4106 132.523 24.4106 131.997V131.471C24.4106 130.366 24.4106 129.314 24.4632 128.209C24.4632 127.525 24.4632 126.841 24.4632 126.21C24.4632 123.684 24.4632 121.58 24.358 120.791C24.2528 120.002 23.9371 119.423 23.5162 119.055C23.4636 119.055 23.4636 119.002 23.411 119.002C23.0427 118.687 22.6219 118.476 22.2536 118.371C21.6749 118.213 21.3066 118.213 21.3066 118.213C21.3066 118.213 21.1488 119.318 20.0966 119.318C18.8866 119.318 18.0449 118.108 18.0449 118.108C18.0449 118.108 17.3609 118.108 16.5718 118.266C16.2035 118.318 15.7827 118.424 15.467 118.634C15.2566 118.739 14.3622 119.213 14.257 119.37C13.6257 120.002 14.3096 124.894 14.3622 128.84V128.893C14.4148 130.681 14.4674 132.26 14.4674 132.891C14.52 134.89 13.9939 140.572 13.9939 140.572Z" fill="#F9FBFC"/>
<path d="M20.8857 142.729C21.0962 143.203 24.621 143.413 24.8314 143.15C25.0945 142.887 24.5684 128.735 24.5684 128.735C24.884 123.474 24.5158 120.844 24.0423 119.791C23.7792 119.213 23.3583 118.687 22.727 118.476C21.8853 118.161 21.254 118.266 21.254 118.266C21.254 118.266 21.517 121.738 21.4644 126.473C21.4644 127.525 21.4118 128.788 21.3592 130.208C21.2014 135.048 20.6753 142.361 20.8857 142.729Z" fill="url(#paint4_linear)"/>
<path d="M18.9918 129.629C18.9918 130.261 18.9392 130.945 18.9392 131.628C18.9392 132.155 18.8866 132.733 18.8866 133.312C18.7288 137.942 18.5183 142.939 18.4131 143.097C18.1501 143.36 13.6257 143.781 12.8365 142.887C12.5209 142.519 14.1518 130.261 14.1518 128.682C14.1518 127.841 14.0466 126.894 13.9413 125.947C13.8361 125.105 13.6783 124.263 13.5731 123.421C13.3626 121.948 13.3626 121.159 13.6257 120.37C13.6783 120.16 13.7835 119.949 13.8887 119.739C14.52 118.318 17.9923 118.108 17.9923 118.108C18.0975 118.371 19.097 120.475 19.097 124.105C19.097 124.947 19.0444 127.104 18.9918 129.629Z" fill="url(#paint5_linear)"/>
<path opacity="0.3" d="M18.9395 131.629C18.9395 132.155 18.8869 132.733 18.8869 133.312C18.2556 133.312 17.519 133.259 16.7825 133.049C15.5725 132.733 14.4151 128.367 13.889 125.842C13.7838 125 13.6259 124.158 13.5207 123.316C13.3103 121.843 13.3103 121.054 13.5733 120.265L18.9395 131.629Z" fill="url(#paint6_linear)"/>
<path d="M21.5173 126.473C21.5173 127.525 21.4647 128.787 21.412 130.208L22.4116 122.79L21.9381 122.159L22.3064 121.685L21.3068 118.266C21.3068 118.266 21.5699 121.738 21.5173 126.473Z" fill="#7A92F9"/>
<path d="M17.9924 121.948L18.6237 122.211L18.2555 123.106C18.2555 123.106 19.0972 127.683 19.0446 129.735V129.629C19.0972 127.157 19.1498 125 19.1498 124.053C19.1498 120.475 18.1503 118.318 18.045 118.055L17.9924 121.948Z" fill="#7A92F9"/>
<path d="M36.3003 125.315L32.8281 131.418C32.7755 131.523 32.6703 131.576 32.5125 131.576L29.7768 130.944C29.5663 130.892 29.5137 130.681 29.619 130.524L33.1438 124.526C33.1964 124.421 33.3016 124.368 33.4068 124.368L36.1425 124.842C36.3003 124.947 36.4056 125.157 36.3003 125.315Z" fill="#1E397C"/>
<path d="M36.3531 125.421L32.8809 131.523C32.8283 131.628 32.7231 131.681 32.5653 131.681L29.8296 131.05C29.6191 130.997 29.5665 130.787 29.6718 130.629L33.1966 124.631C33.2492 124.526 33.3544 124.474 33.4596 124.474L36.1953 124.947C36.3531 125.052 36.4583 125.263 36.3531 125.421Z" fill="url(#paint7_linear)"/>
<path d="M14.8358 127.63C14.8358 127.63 15.9406 131.944 17.3084 132.47C19.5706 133.312 27.7777 131.313 27.7777 131.313L27.5146 129.629C27.5146 129.629 18.9919 129.682 18.9393 129.629C18.8867 129.577 17.9923 126.946 17.9923 126.946L14.8358 127.63Z" fill="#E0B59D"/>
<path d="M17.5716 130.576C17.7294 130.366 17.9924 130.261 18.2029 130.261C20.2546 130.05 30.7239 128.945 31.3026 129.998C31.9865 131.155 17.9924 132.944 17.519 132.365C17.0981 131.839 16.572 131.628 17.5716 130.576Z" fill="#E0B59D"/>
<path d="M13.5204 120.475C13.6257 119.844 13.9939 119.318 14.52 118.95C14.9935 118.634 15.9405 118.266 16.5192 119.002C17.3609 120.054 18.9392 129.051 19.097 129.209C19.2548 129.366 26.9358 129.314 26.9358 129.314L27.1462 131.681C27.1462 131.681 19.5179 133.049 17.3083 132.786C15.6248 132.576 14.6778 127.63 14.6778 127.63C13.6257 123.369 13.31 121.58 13.5204 120.475Z" fill="url(#paint8_linear)"/>
<path d="M29.4612 129.734L29.4086 129.577L29.7768 128.945C29.8821 128.787 29.9873 128.63 30.1977 128.524L30.9868 128.261C30.9868 128.261 30.9868 128.472 30.7764 128.63C30.6712 128.735 30.6186 128.893 30.5134 129.051L30.9342 128.84L32.039 128.419C32.3021 128.314 32.6177 128.524 32.6703 128.787L32.723 129.314C32.723 129.419 32.6703 129.524 32.6177 129.577L31.9864 130.05C31.6708 130.313 31.3025 130.471 30.8816 130.629L29.7242 130.787L29.4612 129.734Z" fill="#E0B59D"/>
<path d="M52.8723 22.8325V25.9891C52.8723 26.3574 53.188 26.673 53.5563 26.673H54.7663C54.9241 26.673 55.0819 26.7782 55.0819 26.9361C55.345 27.7778 55.7132 28.6196 56.1867 29.3561L55.1872 30.3557C54.9241 30.6187 54.9241 31.0396 55.1872 31.3026L57.3967 33.5122C57.6598 33.7753 58.0807 33.7753 58.3437 33.5122L59.3959 32.46C60.2376 32.9335 61.132 33.3018 62.079 33.5648V34.9853C62.079 35.3535 62.3946 35.6692 62.7629 35.6692H65.9195C66.2877 35.6692 66.6034 35.3535 66.6034 34.9853V33.5122C67.5503 33.2492 68.4447 32.8809 69.2864 32.3548L70.286 33.3544C70.5491 33.6174 70.9699 33.6174 71.233 33.3544L73.4426 31.1448C73.7056 30.8818 73.7056 30.4609 73.4426 30.1978L72.6008 29.3561C72.4956 29.2509 72.443 29.093 72.5482 28.9352C72.9165 28.2513 73.2321 27.5148 73.4426 26.7256C73.4952 26.5678 73.6004 26.4626 73.7582 26.4626H74.9156C75.2839 26.4626 75.5996 26.1469 75.5996 25.7787V22.6221C75.5996 22.2538 75.2839 21.9382 74.9156 21.9382H73.7056C73.5478 21.9382 73.39 21.833 73.39 21.6751C73.1795 20.886 72.8639 20.1495 72.443 19.5181C72.3378 19.3603 72.3904 19.2025 72.4956 19.0973L73.2848 18.3081C73.5478 18.0451 73.5478 17.6242 73.2848 17.3612L71.0752 15.1516C70.8121 14.8885 70.3912 14.8885 70.1282 15.1516L69.076 16.2038C68.3395 15.7829 67.4977 15.4146 66.656 15.2042C66.4982 15.1516 66.3929 15.0464 66.3929 14.8885V13.6785C66.3929 13.3103 66.0773 12.9946 65.709 12.9946H62.5525C62.1842 12.9946 61.8685 13.3103 61.8685 13.6785V14.8885C61.8685 15.0464 61.7633 15.2042 61.6055 15.2042C60.8163 15.4146 60.0798 15.7303 59.3959 16.1512C59.2381 16.2564 59.0802 16.2038 58.975 16.0985L58.1859 15.3094C57.9228 15.0464 57.502 15.0464 57.2389 15.3094L55.0293 17.519C54.7663 17.782 54.7663 18.2029 55.0293 18.466L55.8711 19.3077C55.9763 19.4129 56.0289 19.5708 55.9237 19.7286C55.5554 20.4125 55.2398 21.149 55.0293 21.9382C54.9767 22.096 54.8715 22.2012 54.7137 22.2012H53.5563C53.188 22.1486 52.8723 22.4643 52.8723 22.8325ZM59.6589 21.5173C60.0272 20.7808 60.6585 20.2021 61.395 19.7812C66.3403 17.0981 71.3908 22.096 68.7604 27.0939C68.3921 27.8304 67.7608 28.4091 67.0242 28.83C62.0264 31.4605 57.0285 26.4626 59.6589 21.5173Z" fill="#E2E6F7"/>
<path d="M64.1832 27.6198C66.0137 27.6198 67.4976 26.1359 67.4976 24.3054C67.4976 22.4749 66.0137 20.991 64.1832 20.991C62.3527 20.991 60.8688 22.4749 60.8688 24.3054C60.8688 26.1359 62.3527 27.6198 64.1832 27.6198Z" fill="#E2E6F7"/>
<path d="M152.199 36.6159V25.5153H151.041V37.7733H171.822V36.6159H152.199Z" fill="#E2E6F7"/>
<path d="M155.355 33.4595H153.356V35.7217H155.355V33.4595Z" fill="#E2E6F7"/>
<path d="M159.143 31.0919H157.144V35.7215H159.143V31.0919Z" fill="#E2E6F7"/>
<path d="M162.984 33.4595H160.984V35.7217H162.984V33.4595Z" fill="#E2E6F7"/>
<path d="M166.824 28.7772H164.825V35.7743H166.824V28.7772Z" fill="#E2E6F7"/>
<path d="M170.665 31.0919H168.666V35.7215H170.665V31.0919Z" fill="#E2E6F7"/>
<path d="M158.775 27.5671L160.827 29.4085C160.985 29.5663 161.195 29.5663 161.353 29.4611L166.509 26.0941L166.824 26.5676L167.298 25.6732L167.771 24.7789L166.772 24.8315L165.772 24.8841L166.088 25.3576L161.195 28.5667L159.143 26.7254C158.985 26.6202 158.775 26.5676 158.617 26.6728L153.672 29.8293L154.145 30.5659L158.775 27.5671Z" fill="#E2E6F7"/>
<path d="M107.007 8.52287C107.995 8.52287 108.796 7.72203 108.796 6.73415C108.796 5.74627 107.995 4.94543 107.007 4.94543C106.019 4.94543 105.218 5.74627 105.218 6.73415C105.218 7.72203 106.019 8.52287 107.007 8.52287Z" fill="#E2E6F7"/>
<path d="M109.69 11.2585H104.324C104.324 9.94331 105.429 8.83852 106.744 8.83852H107.218C108.585 8.83852 109.69 9.94331 109.69 11.2585Z" fill="#E2E6F7"/>
<path d="M114.162 8.52287C115.15 8.52287 115.951 7.72203 115.951 6.73415C115.951 5.74627 115.15 4.94543 114.162 4.94543C113.174 4.94543 112.373 5.74627 112.373 6.73415C112.373 7.72203 113.174 8.52287 114.162 8.52287Z" fill="#E2E6F7"/>
<path d="M116.793 11.2585H111.426C111.426 9.94331 112.531 8.83852 113.846 8.83852H114.32C115.74 8.83852 116.793 9.94331 116.793 11.2585Z" fill="#E2E6F7"/>
<path d="M99.9046 8.52287C100.892 8.52287 101.693 7.72203 101.693 6.73415C101.693 5.74627 100.892 4.94543 99.9046 4.94543C98.9167 4.94543 98.1159 5.74627 98.1159 6.73415C98.1159 7.72203 98.9167 8.52287 99.9046 8.52287Z" fill="#E2E6F7"/>
<path d="M102.588 11.2585H97.2216C97.2216 9.94331 98.3264 8.83852 99.6417 8.83852H100.115C101.483 8.83852 102.588 9.94331 102.588 11.2585Z" fill="#E2E6F7"/>
<path d="M114.162 3.4196C114.109 3.4196 114.057 3.36699 114.057 3.31439V0.263046H100.01V3.26178C100.01 3.31439 99.9575 3.36699 99.9049 3.36699C99.8523 3.36699 99.7997 3.31439 99.7997 3.26178V0.105219C99.7997 0.0526093 99.8523 0 99.9049 0H114.162C114.215 0 114.267 0.0526093 114.267 0.105219V3.26178C114.267 3.36699 114.215 3.4196 114.162 3.4196Z" fill="#E2E6F7"/>
<path d="M107.007 3.41978C106.955 3.41978 106.902 3.36717 106.902 3.31456V0.157999C106.902 0.105389 106.955 0.0527802 107.007 0.0527802C107.06 0.0527802 107.112 0.105389 107.112 0.157999V3.31456C107.165 3.36717 107.112 3.41978 107.007 3.41978Z" fill="#E2E6F7"/>
<path d="M114.162 3.99838C114.394 3.99838 114.583 3.80995 114.583 3.57751C114.583 3.34506 114.394 3.15663 114.162 3.15663C113.929 3.15663 113.741 3.34506 113.741 3.57751C113.741 3.80995 113.929 3.99838 114.162 3.99838Z" fill="#E2E6F7"/>
<path d="M107.007 3.99838C107.24 3.99838 107.428 3.80995 107.428 3.57751C107.428 3.34506 107.24 3.15663 107.007 3.15663C106.775 3.15663 106.586 3.34506 106.586 3.57751C106.586 3.80995 106.775 3.99838 107.007 3.99838Z" fill="#E2E6F7"/>
<path d="M99.8522 3.99838C100.085 3.99838 100.273 3.80995 100.273 3.57751C100.273 3.34506 100.085 3.15663 99.8522 3.15663C99.6198 3.15663 99.4314 3.34506 99.4314 3.57751C99.4314 3.80995 99.6198 3.99838 99.8522 3.99838Z" fill="#E2E6F7"/>
<path d="M228.114 89.7514L219.065 86.9105L215.383 98.6424C214.804 100.536 215.856 102.588 217.75 103.219L226.799 106.06L230.481 94.3284C231.06 92.3819 230.008 90.3301 228.114 89.7514ZM216.961 99.5367L216.803 97.9584L217.382 97.9058L217.434 98.7476L219.118 98.1689L219.328 98.7476L216.961 99.5367ZM218.066 95.9593L217.908 94.381L218.487 94.3284L218.539 95.1702L220.223 94.5915L220.433 95.1702L218.066 95.9593ZM219.223 92.3819L219.065 90.8036L219.644 90.751L219.697 91.5927L221.38 91.014L221.591 91.5927L219.223 92.3819ZM226.799 102.009L220.17 99.905L220.433 99.1158L227.062 101.22L226.799 102.009ZM227.904 98.4319L221.275 96.3276L221.538 95.5384L228.167 97.6428L227.904 98.4319ZM229.061 94.8545L222.432 92.7501L222.695 91.961L229.324 94.0654L229.061 94.8545Z" fill="#E2E6F7"/>
<path d="M203.756 18.0975C204.44 17.4661 205.229 17.0453 206.018 16.7822L206.176 17.9396L209.911 15.0461L205.544 13.2574L205.702 14.4148C204.387 14.9409 203.282 15.7826 202.388 16.8348C201.283 18.0975 200.652 19.7283 200.547 21.3592C200.389 22.9901 200.81 24.621 201.546 25.9362C202.335 27.3041 203.545 28.3563 204.86 28.9876C203.598 28.1458 202.598 26.9884 202.072 25.6732C201.546 24.358 201.388 22.8849 201.704 21.5171C202.072 20.2018 202.756 18.9918 203.756 18.0975Z" fill="#E2E6F7"/>
<path d="M215.33 19.0447C214.488 17.6242 213.225 16.572 211.805 15.9407C213.12 16.7299 214.172 17.9399 214.751 19.3077C215.33 20.6756 215.487 22.2012 215.119 23.5691C214.804 24.9369 214.014 26.1995 213.015 27.0939C212.331 27.6726 211.594 28.0935 210.805 28.3039L210.647 27.1991L206.965 30.0926L211.331 31.8287L211.174 30.5661C212.436 30.0926 213.488 29.3035 214.383 28.3565C215.54 27.0413 216.277 25.4104 216.434 23.7269C216.54 22.096 216.171 20.4125 215.33 19.0447Z" fill="#E2E6F7"/>
<path d="M211.279 22.5693C211.279 24.095 210.016 25.3576 208.49 25.3576C206.965 25.3576 205.702 24.095 205.702 22.5693C205.702 21.0436 206.965 19.781 208.49 19.781C210.016 19.781 211.279 21.0436 211.279 22.5693Z" fill="#E2E6F7"/>
<path d="M139.783 154.619H105.271V164.299H139.783V154.619Z" fill="#1C976E"/>
<path d="M206.386 53.4511V151.094C206.386 153.461 204.492 155.355 202.125 155.355H42.9293C40.5619 155.355 38.6679 153.461 38.6679 151.094V53.4511C38.6679 51.0837 40.5619 49.1898 42.9293 49.1898H202.072C204.44 49.1372 206.386 51.0837 206.386 53.4511Z" fill="url(#paint9_linear)"/>
<path d="M206.386 53.4511V145.728H38.6679V53.4511C38.6679 51.0837 40.5619 49.1898 42.9293 49.1898H202.125C204.44 49.1372 206.386 51.0837 206.386 53.4511Z" fill="#1C976E"/>
<path d="M202.23 53.451H42.7713V141.203H202.23V53.451Z" fill="white"/>
<path d="M150.673 166.403H94.381V165.298C94.381 164.246 95.2228 163.352 96.3276 163.352H148.779C149.831 163.352 150.726 164.194 150.726 165.298V166.403H150.673Z" fill="#3454A3"/>
<path d="M95.1176 81.0711H49.8736C49.6106 81.0711 49.4001 80.8606 49.4001 80.5976V58.7121C49.4001 58.4491 49.6106 58.2386 49.8736 58.2386H95.1176C95.3806 58.2386 95.5911 58.4491 95.5911 58.7121V80.5976C95.5911 80.8606 95.3806 81.0711 95.1176 81.0711Z" stroke="#1C976E" stroke-miterlimit="10"/>
<path d="M62.8155 65.3934H58.0281V68.55H62.2894V70.5491H58.0281V73.9161H62.8155V75.9679H55.5028V63.2891H62.8155V65.3934Z" fill="#1C976E"/>
<path d="M71.6537 63.3418C74.705 63.3418 76.2307 65.0779 76.2307 67.2349C76.2307 68.7605 75.3889 70.3388 73.3372 70.8649L76.3359 75.968H73.3898L70.6015 71.0227H69.4441V75.968H66.9189V63.3418H71.6537ZM71.6011 65.4461H69.4967V69.1814H71.6011C73.0215 69.1814 73.6528 68.4449 73.6528 67.2875C73.6528 66.1301 73.0215 65.4461 71.6011 65.4461Z" fill="#1C976E"/>
<path d="M85.0164 71.1279H82.9121V75.968H80.3868V63.3418H85.0164C88.0678 63.3418 89.5934 65.0779 89.5934 67.2349C89.5934 69.1814 88.2782 71.1279 85.0164 71.1279ZM84.9112 69.0762C86.3317 69.0762 86.963 68.3923 86.963 67.2349C86.963 66.0775 86.3317 65.3935 84.9112 65.3935H82.9121V69.0762H84.9112Z" fill="#1C976E"/>
<path d="M95.1701 86.3319H49.8735C49.6104 86.3319 49.4526 86.5423 49.4526 86.7527V134.049C49.4526 134.312 49.663 134.469 49.8735 134.469H95.1701C95.4331 134.469 95.591 134.259 95.591 134.049V86.7527C95.591 86.5423 95.4331 86.3319 95.1701 86.3319Z" fill="#E2E6F7"/>
<path d="M194.023 91.172H101.536C100.904 91.172 100.431 91.6981 100.431 92.2768V133.312C100.431 133.943 100.957 134.417 101.536 134.417H194.023C194.654 134.417 195.128 133.891 195.128 133.312V92.2768C195.128 91.6981 194.654 91.172 194.023 91.172Z" fill="#E2E6F7"/>
<path d="M107.165 130.103C107.165 130.103 114.373 132.786 118.581 128.051C122.79 123.316 124.105 113.847 128.261 112.847C132.47 111.847 135.101 122.317 143.676 122.317C152.251 122.317 153.935 107.27 159.669 107.27C165.351 107.27 167.455 116.056 173.19 116.056C178.872 116.056 186.5 98.9581 186.5 98.9581" stroke="#1C976E" stroke-miterlimit="10"/>
<path d="M188.394 98.8529C188.394 99.6421 187.657 100.273 186.763 100.273C185.869 100.273 185.132 99.6421 185.132 98.8529C185.132 98.0638 185.869 97.4325 186.763 97.4325C187.657 97.4325 188.394 98.0638 188.394 98.8529Z" fill="url(#paint10_linear)"/>
<path d="M161.195 107.165C161.195 107.954 160.458 108.586 159.564 108.586C158.67 108.586 157.933 107.954 157.933 107.165C157.933 106.376 158.67 105.745 159.564 105.745C160.458 105.745 161.195 106.323 161.195 107.165Z" fill="url(#paint11_linear)"/>
<path d="M129.892 112.847C129.892 113.636 129.156 114.267 128.261 114.267C127.367 114.267 126.63 113.636 126.63 112.847C126.63 112.058 127.367 111.427 128.261 111.427C129.156 111.427 129.892 112.058 129.892 112.847Z" fill="url(#paint12_linear)"/>
<path d="M174.821 72.5485C174.821 74.3372 175.557 75.9681 176.767 77.1255L172.559 81.3342C170.296 79.072 168.876 75.9681 168.876 72.5485C168.876 65.7093 174.4 60.1853 181.239 60.1853V66.1828C177.662 66.1828 174.821 69.0237 174.821 72.5485Z" fill="#1C976E"/>
<path d="M193.497 72.5485H187.499C187.499 69.0236 184.658 66.1827 181.134 66.1827V60.1853C187.973 60.1853 193.497 65.7092 193.497 72.5485Z" fill="url(#paint13_linear)"/>
<path d="M193.497 72.5484C193.497 79.3876 187.973 84.9116 181.134 84.9116C177.767 84.9116 174.715 83.5438 172.506 81.3868L176.715 77.1781C177.872 78.2828 179.398 78.9668 181.134 78.9668C184.659 78.9668 187.499 76.1259 187.499 72.601H193.497V72.5484Z" fill="#E2E6F7"/>
<path d="M164.773 66.7088H145.36V67.9714H164.773V66.7088Z" fill="url(#paint14_linear)"/>
<path d="M164.773 71.9169H145.36V73.1795H164.773V71.9169Z" fill="url(#paint15_linear)"/>
<path d="M164.773 77.0726H145.36V78.3352H164.773V77.0726Z" fill="url(#paint16_linear)"/>
<path d="M92.1715 91.9612H57.765V92.8029H92.1715V91.9612Z" fill="url(#paint17_linear)"/>
<path d="M83.4909 94.2232H57.765V95.065H83.4909V94.2232Z" fill="url(#paint18_linear)"/>
<path d="M56.1345 91.9614H51.8205V95.118H56.1345V91.9614Z" fill="url(#paint19_linear)"/>
<path d="M92.1714 100.379H57.765V101.22H92.1714V100.379Z" fill="url(#paint20_linear)"/>
<path d="M83.4909 102.641H57.7649V103.483H83.4909V102.641Z" fill="url(#paint21_linear)"/>
<path d="M56.1339 100.379H51.82V103.535H56.1339V100.379Z" fill="url(#paint22_linear)"/>
<path d="M92.1714 108.796H57.765V109.638H92.1714V108.796Z" fill="url(#paint23_linear)"/>
<path d="M83.4909 111.058H57.7649V111.9H83.4909V111.058Z" fill="url(#paint24_linear)"/>
<path d="M56.1339 108.796H51.82V111.953H56.1339V108.796Z" fill="url(#paint25_linear)"/>
<path d="M92.1714 117.266H57.765V118.108H92.1714V117.266Z" fill="#1C976E"/>
<path d="M83.4909 119.476H57.7649V120.318H83.4909V119.476Z" fill="#1C976E"/>
<path d="M56.1339 117.266H51.82V120.423H56.1339V117.266Z" fill="#1C976E"/>
<path d="M92.1714 125.684H57.765V126.525H92.1714V125.684Z" fill="url(#paint26_linear)"/>
<path d="M83.4909 127.893H57.7649V128.735H83.4909V127.893Z" fill="url(#paint27_linear)"/>
<path d="M56.1339 125.684H51.82V128.841H56.1339V125.684Z" fill="url(#paint28_linear)"/>
<path d="M108.27 73.0218H106.797V80.124H108.27V73.0218Z" fill="url(#paint29_linear)"/>
<path d="M110.427 69.7602H108.954V80.0716H110.427V69.7602Z" fill="#1C976E"/>
<path d="M116.635 68.3925H115.162V80.1244H116.635V68.3925Z" fill="url(#paint30_linear)"/>
<path d="M118.739 67.1824H117.266V80.1243H118.739V67.1824Z" fill="#1C976E"/>
<path d="M124.947 72.4434H123.474V80.1244H124.947V72.4434Z" fill="url(#paint31_linear)"/>
<path d="M127.051 65.3412H125.578V80.1244H127.051V65.3412Z" fill="#1C976E"/>
<path d="M133.312 63.0788H131.839V80.0716H133.312V63.0788Z" fill="url(#paint32_linear)"/>
<path d="M135.416 67.1822H133.943V80.1241H135.416V67.1822Z" fill="#1C976E"/>
<path d="M135.153 81.3865H107.06V81.9652H135.153V81.3865Z" fill="#E2E6F7"/>
<path d="M135.153 83.333H107.06V83.9117H135.153V83.333Z" fill="#E2E6F7"/>
<path d="M189.604 136.521C189.341 136.468 189.078 136.468 188.867 136.574C186.974 137.521 177.399 142.361 177.504 143.623C177.609 144.991 190.498 139.099 190.604 138.362C190.709 137.731 191.024 136.889 189.604 136.521Z" fill="#E0B59D"/>
<path d="M179.24 142.255L179.135 142.098L178.398 141.887C178.188 141.835 178.03 141.835 177.819 141.887L177.03 142.045C177.03 142.045 177.188 142.413 177.451 142.413C177.556 142.413 177.767 142.466 177.925 142.519L177.451 142.676L176.346 143.15C176.083 143.255 175.978 143.623 176.136 143.886L176.452 144.307C176.504 144.412 176.609 144.412 176.715 144.412L177.504 144.307C177.925 144.255 178.346 144.149 178.714 143.939L179.713 143.413L179.24 142.255Z" fill="#E0B59D"/>
<path d="M192.813 126.21C193.287 126.525 193.497 127.104 193.444 127.683C193.076 130.261 191.761 138.941 189.867 138.836C187.605 138.678 189.236 131.05 189.972 128.945C190.604 127.157 191.656 125.421 192.813 126.21Z" fill="#E0B59D"/>
<path d="M194.444 128.577L194.233 129.314L192.445 135.574L190.972 135.206L188.709 134.522C188.709 134.522 188.657 133.733 189.13 130.313C189.393 128.524 189.446 127.262 189.972 126.841C190.025 126.841 191.708 125.841 191.708 125.789C191.813 125.684 191.919 125.631 191.919 125.631L192.813 126.683L194.444 128.577Z" fill="url(#paint33_linear)"/>
<path d="M185.606 138.099L186.816 140.256L186.973 140.572C186.973 140.572 189.656 139.625 190.551 138.836C190.551 138.836 190.603 138.783 190.656 138.783C191.55 137.889 192.655 134.89 192.655 134.89L190.13 126.42C190.13 126.42 189.13 127.63 188.815 130.997C188.499 134.364 188.446 136.258 188.341 136.521C188.183 136.837 185.606 138.099 185.606 138.099Z" fill="url(#paint34_linear)"/>
<path d="M186.816 140.256L186.973 140.572C186.973 140.572 189.657 139.625 190.551 138.836C190.551 138.836 190.603 138.783 190.656 138.783L189.341 131.313C189.341 131.313 189.236 134.943 189.183 136.416C189.078 137.784 188.973 139.783 186.816 140.256Z" fill="url(#paint35_linear)"/>
<path d="M196.969 119.423C197.127 121.001 195.759 123.737 195.759 123.737L196.075 125.473L196.127 126.893L193.707 128.367L192.76 125.894L192.497 124.263C192.497 124.263 190.972 124.158 190.709 123C190.446 121.79 188.71 117.529 192.129 116.635C195.654 115.793 196.811 117.845 196.969 119.423Z" fill="#E0B59D"/>
<path d="M192.655 145.833C193.76 145.359 195.075 146.043 195.549 147.201C195.917 148.148 196.233 149.463 196.338 151.199C196.654 155.566 198.127 160.511 196.759 161.563C195.391 162.615 193.444 160.248 192.392 156.092C191.445 152.356 189.288 148.148 190.183 147.201C190.604 146.78 191.656 146.254 192.655 145.833Z" fill="#E0B59D"/>
<path d="M195.338 159.564C197.916 156.512 201.599 172.243 201.809 176.662C202.02 181.081 200.231 177.872 197.916 171.243C195.602 164.667 194.286 160.774 195.338 159.564Z" fill="#E0B59D"/>
<path d="M198.653 161.247C198.653 161.247 200.494 164.141 201.809 175.978L199.6 176.82L194.444 162.3L198.653 161.247Z" fill="#E0B59D"/>
<path d="M202.178 178.03L201.809 175.978L199.6 176.767L200.284 178.714L202.178 178.03Z" fill="#E0B59D"/>
<path d="M200.284 178.714C200.284 178.714 199.915 179.766 198.811 181.292C197.706 182.817 197.285 182.712 197.39 183.133C197.495 183.554 203.335 181.344 203.335 181.344L202.23 178.03C202.178 178.03 200.284 178.661 200.284 178.714Z" fill="#1C976E"/>
<path d="M198.337 147.358C199.442 147.779 199.968 149.147 199.494 150.357C199.073 151.304 198.442 152.461 197.337 153.829C194.549 157.196 192.234 161.826 190.551 161.668C188.867 161.458 188.867 158.406 190.919 154.671C192.76 151.304 194.286 146.78 195.549 146.674C196.18 146.622 197.337 146.99 198.337 147.358Z" fill="#E0B59D"/>
<path d="M189.867 160.932C193.129 158.617 192.76 174.768 191.866 179.135C190.972 183.501 190.025 179.871 189.446 172.927C188.867 165.93 188.552 161.826 189.867 160.932Z" fill="#E0B59D"/>
<path d="M192.813 161.879C192.813 161.879 192.445 162.878 192.392 163.299C192.392 163.668 193.286 169.139 192.287 178.03L189.919 178.346C189.919 178.346 187.236 161.353 188.078 159.827C188.972 158.249 192.813 161.879 192.813 161.879Z" fill="#E0B59D"/>
<path d="M192.129 180.134L192.287 178.03L189.919 178.346L190.13 180.397L192.129 180.134Z" fill="#E0B59D"/>
<path d="M190.077 179.608C190.077 179.608 189.499 180.45 188.026 181.555C186.5 182.659 186.132 182.449 186.079 182.87C186.026 183.291 192.287 182.975 192.287 182.975L192.234 179.503C192.182 179.503 190.077 179.503 190.077 179.608Z" fill="#1C976E"/>
<path d="M189.657 147.832C190.183 145.359 194.234 145.833 194.234 145.833C194.234 145.833 197.337 146.412 198.284 152.041C199.021 156.355 199.074 160.248 199.074 160.248C199.074 160.248 201.599 168.56 202.02 176.083L199.284 176.978C199.284 176.978 195.286 165.772 194.339 162.878C194.339 162.878 189.13 150.357 189.657 147.832Z" fill="#294A8C"/>
<path d="M190.867 149.884C191.34 148.463 191.34 147.464 191.866 147.148C194.023 145.78 200.126 147.99 200.126 147.99C200.126 147.99 200.757 151.673 198.811 154.724C195.759 159.564 192.971 162.405 192.971 162.405C193.865 166.719 192.497 178.135 192.497 178.135H189.762C189.762 178.135 187.236 164.825 187.657 160.774C187.868 157.933 189.551 153.935 190.867 149.884Z" fill="#2F4E9B"/>
<path d="M189.446 133.364C189.446 133.996 189.446 134.68 189.446 135.364C189.446 135.732 189.446 136.153 189.446 136.574C189.446 136.942 189.446 137.363 189.446 137.784C189.446 138.099 189.446 138.415 189.446 138.731V139.257C189.446 139.783 189.446 140.361 189.446 140.888C189.499 144.781 189.551 147.99 189.551 147.99H200.021C200.021 147.99 199.494 142.255 199.547 140.098C199.547 139.414 199.6 137.889 199.652 136.047V135.995C199.705 131.997 200.389 126.999 199.758 126.367C199.6 126.21 198.705 125.736 198.495 125.631C198.127 125.473 197.758 125.315 197.338 125.263C196.548 125.105 195.917 125.052 195.917 125.052C195.917 125.052 194.97 126.367 193.76 126.367C192.708 126.367 192.55 125.21 192.55 125.21C192.55 125.21 192.34 125.21 192.024 125.263C191.866 125.263 191.708 125.315 191.55 125.368C191.498 125.368 191.393 125.42 191.34 125.473C191.024 125.578 190.709 125.789 190.393 125.999C190.34 125.999 190.34 126.052 190.288 126.052C189.867 126.42 189.551 126.999 189.446 127.84C189.446 128.682 189.446 130.787 189.446 133.364Z" fill="white"/>
<path d="M189.078 150.568C189.341 150.831 192.182 150.673 192.392 150.199C192.55 149.831 192.234 142.361 192.024 137.415C191.971 136.416 192.55 130.681 192.708 127.472C192.708 127.367 192.708 127.262 192.708 127.209C192.708 126.841 192.603 126.42 192.497 125.946C192.445 125.42 192.603 125.263 192.603 125.263C192.603 125.263 192.445 125.21 192.182 125.21C192.129 125.21 192.024 125.21 191.919 125.21C191.813 125.21 191.656 125.263 191.498 125.315C191.393 125.368 191.235 125.368 191.13 125.42C190.498 125.631 190.077 126.157 189.814 126.736C189.341 127.788 188.973 130.471 189.288 135.837C189.288 135.837 189.288 135.837 189.288 135.89C189.288 135.89 189.236 136.994 189.183 138.52C189.078 142.676 188.867 150.357 189.078 150.568Z" fill="url(#paint36_linear)"/>
<path d="M201.231 150.041C200.441 150.988 195.812 150.515 195.549 150.252C195.391 150.094 194.97 145.043 194.707 140.361V140.309C194.654 139.625 194.654 138.993 194.602 138.31C194.602 138.152 194.602 138.046 194.602 137.889C194.602 137.468 194.602 137.099 194.549 136.731C194.497 134.206 194.444 128.366 194.444 127.419C194.444 127.314 194.444 127.262 194.444 127.209C194.549 126.893 195.075 126.946 195.864 125.578C195.97 125.42 196.022 124.999 196.022 124.999C196.022 124.999 196.18 124.999 196.443 124.999C196.496 124.999 196.496 124.999 196.548 124.999C196.601 124.999 196.601 124.999 196.654 124.999C196.706 124.999 196.706 124.999 196.759 124.999C197.022 124.999 197.39 125.052 197.758 125.105C198.758 125.262 199.863 125.578 200.178 126.367C200.652 127.419 200.81 128.209 200.494 130.102C200.231 131.996 199.863 133.89 199.863 135.521C199.915 137.152 201.546 149.673 201.231 150.041Z" fill="url(#paint37_linear)"/>
<path opacity="0.5" d="M194.549 137.941C194.602 138.678 194.602 139.52 194.654 140.309C195.391 140.572 196.18 140.677 196.864 140.256C198.547 139.309 199.389 134.627 199.389 134.627L194.549 137.941Z" fill="url(#paint38_linear)"/>
<path opacity="0.5" d="M196.128 131.733C196.128 131.733 195.549 135.416 195.023 135.574C194.497 135.732 194.128 135.574 194.128 135.574L195.128 136.468C195.128 136.468 196.391 135.364 196.443 135.311C196.443 135.206 196.128 131.733 196.128 131.733Z" fill="url(#paint39_linear)"/>
<path d="M194.496 127.262C195.18 127.315 195.18 128.051 195.18 128.051C195.391 127.841 195.549 127.63 195.654 127.42C196.285 126.525 196.601 125.315 196.653 125.105C196.601 125.105 196.601 125.105 196.548 125.105C196.496 125.105 196.496 125.105 196.443 125.105C196.18 125.105 196.022 125.105 196.022 125.105C196.022 125.105 195.97 125.526 195.864 125.684C195.075 126.999 194.602 126.894 194.496 127.262Z" fill="#A1B5FF"/>
<path d="M199.231 134.785C199.231 134.785 197.864 139.309 196.443 139.835C194.128 140.73 188.552 135.048 188.552 135.048L189.762 133.207C189.762 133.207 195.391 136.574 195.444 136.521C195.496 136.468 195.917 133.996 195.917 133.996L199.231 134.785Z" fill="#E0B59D"/>
<path d="M196.917 137.994C196.864 137.731 196.706 137.52 196.496 137.415C194.707 136.258 185.763 130.366 184.711 131.05C183.554 131.786 195.075 140.046 195.759 139.783C196.391 139.52 197.285 139.414 196.917 137.994Z" fill="#E0B59D"/>
<path d="M200.599 127.472C200.494 126.841 200.073 126.315 199.547 125.946C199.074 125.631 198.127 125.262 197.496 125.999C196.601 127.104 195.759 134.101 195.759 134.101C195.759 134.101 195.496 135.627 195.339 135.837C195.181 135.995 193.971 135.521 193.971 135.521L192.445 138.573C192.445 138.573 194.181 140.361 196.496 140.046C197.496 139.888 198.337 138.152 198.863 136.731C199.232 135.732 199.442 134.89 199.442 134.89C199.6 134.259 199.758 133.68 199.863 133.101C200.547 129.945 200.757 128.472 200.599 127.472Z" fill="url(#paint40_linear)"/>
<path d="M186.658 131.839L186.763 131.681L186.5 130.945C186.447 130.734 186.342 130.576 186.184 130.471L185.448 130.05C185.448 130.05 185.395 130.261 185.553 130.471C185.606 130.576 185.658 130.734 185.711 130.892L185.343 130.629L184.343 129.998C184.08 129.84 183.764 129.945 183.659 130.261L183.449 130.787C183.396 130.892 183.449 130.997 183.501 131.05L184.027 131.681C184.29 131.997 184.659 132.26 185.027 132.47L186.079 132.944L186.658 131.839Z" fill="#E0B59D"/>
<path d="M192.129 128.051C192.129 128.051 192.497 126.893 192.761 127.209C192.761 126.841 192.655 126.42 192.55 125.946C192.497 125.42 192.655 125.263 192.655 125.263C192.655 125.263 192.497 125.21 192.234 125.21C192.024 125.368 191.761 126.788 192.129 128.051Z" fill="#A1B5FF"/>
<path d="M194.286 135.679L192.76 138.731C192.708 138.836 192.55 138.888 192.445 138.836L191.971 138.573C191.866 138.52 191.814 138.362 191.866 138.257L193.339 135.206C193.392 135.101 193.55 135.048 193.655 135.101L194.181 135.364C194.286 135.416 194.339 135.574 194.286 135.679Z" fill="#A1B5FF"/>
<path d="M186.079 137.784L187.394 140.414C187.447 140.467 187.394 140.519 187.342 140.572L186.816 140.782C186.763 140.782 186.71 140.782 186.658 140.73L185.395 138.152C185.395 138.099 185.395 138.047 185.448 137.994L185.921 137.731C185.974 137.678 186.027 137.731 186.079 137.784Z" fill="#A1B5FF"/>
<path d="M197.653 121.106C197.6 120.633 197.232 120.633 197.074 120.107C196.916 119.581 197.232 118.318 196.601 116.898C195.969 115.477 193.707 115.951 193.286 115.425C192.866 114.899 192.129 115.004 191.919 115.319C191.708 115.635 191.656 116.109 190.919 115.688C190.235 115.267 189.656 115.846 189.762 116.214C189.867 116.582 190.025 116.898 189.499 117.371C188.92 117.845 189.025 118.897 190.077 118.686C191.129 118.476 191.445 119.055 191.708 119.528C191.971 120.002 192.655 120.054 192.655 120.054C192.655 120.054 192.708 120.58 192.813 121.001C192.918 121.422 193.076 122.316 192.866 122.58C192.602 122.948 192.024 122.632 191.603 122.211C191.129 121.79 190.446 122.369 190.446 122.369C190.446 122.369 190.919 124.053 191.392 124.21C191.919 124.368 192.287 124.368 193.286 123.947C194.233 123.579 193.602 121.106 193.497 120.738C193.497 120.633 193.497 120.58 193.497 120.475C193.444 120.002 194.286 119.476 194.759 120.212C195.233 120.896 194.496 121.843 194.496 122.474C194.496 123.158 196.075 124.316 196.864 123.737C197.706 123.053 197.285 122.527 197.179 122.159C197.127 121.738 197.706 121.58 197.653 121.106Z" fill="#2F4E9B"/>
<path d="M87.384 146.254L96.4854 145.886L96.9062 130.313L96.2749 126.42L92.0662 124.895L89.9092 125.684C88.3835 125.999 87.1209 127.525 87.1735 129.051L87.7522 139.678L87.384 146.254Z" fill="#E0B59D"/>
<path d="M91.0141 122.895V126.052C91.0141 126.052 91.698 126.473 93.2237 126.473C94.0655 126.473 94.2233 126.052 94.2233 126.052V124.895L91.0141 122.895Z" fill="#E0B59D"/>
<path d="M97.3273 133.102C96.9065 132.26 90.5933 134.995 88.8046 135.837C87.0685 136.679 85.2272 137.679 85.7007 138.626C86.1742 139.573 88.0681 138.836 89.8568 137.994C91.5929 137.152 97.7482 133.943 97.3273 133.102Z" fill="#E0B59D"/>
<path d="M90.6458 120.528C90.6458 120.633 90.6458 120.738 90.6458 120.844C90.6458 120.896 90.6458 120.896 90.6458 120.949C90.5932 122.79 91.7506 124.789 93.5393 125.052C93.5393 125.052 93.5393 125.052 93.5919 125.052H93.6445C94.0128 125.105 95.4332 125.21 95.9067 124.632C96.4854 123.948 97.0115 122.79 97.0115 121.948C97.0115 121.107 96.8537 120.949 96.8537 120.581C96.8537 120.318 97.0115 119.528 97.0115 119.16C97.0115 117.477 95.9067 115.846 93.9076 115.846C91.014 115.951 90.5932 118.529 90.6458 120.528Z" fill="#E0B59D"/>
<path d="M86.0161 138.941C87.0157 139.204 89.1201 133.365 89.804 130.839C90.4879 128.314 90.5931 126.21 89.3305 125.841C88.0679 125.473 87.1735 127.42 86.5422 129.998C85.9109 132.575 84.9639 138.678 86.0161 138.941Z" fill="#E0B59D"/>
<path d="M85.4373 134.838C85.4373 134.838 86.1212 125.421 89.4356 125.631C92.75 125.842 88.2782 135.68 88.2782 135.68L85.4373 134.838Z" fill="url(#paint41_linear)"/>
<path d="M85.3323 135.206L86.8054 135.469L87.0684 135.522L87.9628 135.679L89.015 135.89C89.015 135.89 89.2254 135.416 89.1202 135.311C89.0676 135.258 88.8571 135.206 88.4889 135.101C88.331 135.048 88.2258 135.048 88.068 134.995C87.6997 134.89 87.2789 134.838 86.858 134.732C86.8054 134.732 86.7528 134.732 86.7002 134.68C86.0688 134.575 85.5427 134.522 85.3849 134.575H85.3323C85.3323 134.68 85.3323 135.206 85.3323 135.206Z" fill="#A1B5FF"/>
<path opacity="0.4" d="M86.7527 130.787C86.7527 130.787 86.7527 133.312 86.8053 134.68C86.8053 135.048 86.8053 135.364 86.8053 135.469L87.0684 135.522L87.9627 135.68C87.9627 135.627 87.9627 135.627 87.9627 135.574C88.0153 135.364 88.0153 135.153 88.0679 134.943C88.1206 134.47 88.1732 134.049 88.1206 133.996C88.1206 133.786 86.7527 130.787 86.7527 130.787Z" fill="url(#paint42_linear)"/>
<path d="M94.7492 144.413C93.8022 144.728 93.1709 146.307 93.3813 147.885C93.5392 149.147 93.8548 150.726 94.4335 152.62C95.9592 157.355 96.9062 163.615 98.274 163.773C99.5892 163.878 100.326 160.143 99.4314 155.092C98.5897 150.515 98.011 144.57 97.0114 144.15C96.4853 143.939 95.5383 144.15 94.7492 144.413Z" fill="#E0B59D"/>
<path d="M99.116 163.142C95.486 161.879 97.1169 178.609 98.3269 182.186C99.5369 185.764 100.01 179.608 100.221 173.453C100.484 167.298 100.536 163.668 99.116 163.142Z" fill="#E0B59D"/>
<path d="M97.5901 182.133L97.3796 180.187L100.063 180.239L100.01 182.239L97.5901 182.133Z" fill="#E0B59D"/>
<path d="M87.7524 145.57C86.8055 145.886 86.2794 147.464 86.5424 149.042C86.7529 150.252 87.1211 151.883 87.8577 153.777C89.5938 158.512 90.909 164.72 92.2242 164.772C93.5921 164.878 94.1182 161.09 92.9608 156.092C91.9086 151.567 91.0142 145.623 90.0146 145.254C89.4886 145.044 88.5416 145.307 87.7524 145.57Z" fill="#E0B59D"/>
<path d="M93.0658 163.668C90.1197 161.195 86.0161 177.504 85.9109 181.292C85.8057 185.08 88.2783 179.45 90.5932 173.716C92.908 168.034 94.2232 164.667 93.0658 163.668Z" fill="#E0B59D"/>
<path d="M85.5426 180.766L86.0161 178.609L88.5413 179.45L87.8574 181.502L85.5426 180.766Z" fill="#E0B59D"/>
<path d="M100.01 182.081C100.01 182.081 100.273 182.765 101.747 183.712C103.22 184.659 103.588 184.448 103.64 184.764C103.693 185.132 97.4852 184.816 97.4852 184.816L97.5904 181.975C97.5904 182.028 100.01 182.028 100.01 182.081Z" fill="#1C976E"/>
<path d="M87.9101 181.134C87.9101 181.134 88.0154 181.765 88.6467 183.028C89.2254 184.08 90.0145 184.185 89.8567 184.448C89.6989 184.711 84.8062 182.975 84.8062 182.975L85.5953 180.45C85.5953 180.397 87.9101 181.134 87.9101 181.134Z" fill="#1C976E"/>
<path d="M85.8057 178.609L88.6466 179.608C88.6466 179.608 93.8549 168.245 94.118 163.51C94.1706 162.458 94.118 160.932 93.9601 159.196C93.6971 156.408 93.2762 153.041 92.9079 150.305C92.4345 147.201 92.0662 144.833 92.0662 144.833L86.4896 145.412C86.4896 145.412 85.2796 147.306 86.437 152.462C87.5944 157.67 89.6988 163.142 89.804 163.405C89.804 163.72 87.2788 169.665 85.8057 178.609Z" fill="#1C976E"/>
<path d="M90.6458 148.832C90.6458 148.832 91.2771 153.882 93.9602 159.249C93.6971 156.46 93.2762 153.093 92.908 150.358C92.8028 149.989 92.7502 149.779 92.7502 149.779L90.6458 148.832Z" fill="#DCE8EF"/>
<path d="M97.8006 144.939C97.8006 144.939 100.747 155.408 100.852 162.51C100.957 169.665 100.221 180.345 100.221 180.345H97.1693C97.1693 180.345 95.9067 167.718 96.6958 163.036C96.6958 163.036 90.2249 153.146 90.2775 144.939" fill="#1C976E"/>
<path d="M97.8532 145.307C97.8532 145.307 96.0644 137.626 97.4323 134.154C97.4323 134.101 97.4849 134.049 97.4849 133.996C97.5901 133.68 97.6953 133.365 97.748 133.102C98.0636 131.628 97.748 130.524 97.748 130.05C97.6427 127.946 97.1166 126.946 96.4853 126.315C95.854 125.736 92.1188 124.684 89.5935 125.368C87.91 125.841 85.9635 127.841 86.9104 133.943C87.0683 134.995 87.4891 137.994 87.2787 140.73C87.1209 143.203 86.3843 145.517 86.3843 145.517L97.8532 145.307Z" fill="url(#paint43_linear)"/>
<path d="M103.64 136.679C104.429 135.995 101.01 130.945 99.3788 128.893C97.748 126.841 96.1171 125.526 95.1175 126.368C94.1179 127.157 95.1175 129.051 96.801 131.05C98.5371 133.049 102.851 137.363 103.64 136.679Z" fill="#E0B59D"/>
<path d="M99.1686 133.996C99.1686 133.996 101.431 137.047 103.22 137.047C104.535 137.047 107.376 130.892 107.376 130.892L105.271 130.208C105.271 130.208 103.062 133.838 103.009 133.785C102.957 133.785 101.536 131.891 101.536 131.891L99.1686 133.996Z" fill="#E0B59D"/>
<path d="M109.059 125.578C108.217 125.105 104.745 130.997 103.798 132.733C102.851 134.417 102.01 136.311 102.904 136.784C103.798 137.31 104.903 135.574 105.85 133.891C106.85 132.155 109.901 125.999 109.059 125.578Z" fill="#E0B59D"/>
<path d="M107.586 126.894C107.796 126.631 107.796 126.262 107.744 125.947C107.691 125.578 107.691 125.21 107.744 124.842C107.744 124.684 107.796 124.526 107.902 124.421C108.06 124.316 108.217 124.421 108.428 124.474C108.743 124.579 109.164 124.579 109.375 124.316C109.533 124.105 109.585 123.474 109.848 123.369C109.901 123.369 110.006 123.264 110.164 123.369C110.637 123.685 110.532 124.316 110.427 124.789C110.269 125.526 110.059 126.052 109.322 126.631C108.901 126.946 108.428 127.315 108.165 127.735" fill="#E0B59D"/>
<path opacity="0.4" d="M97.5376 133.943C97.6428 133.627 97.748 133.312 97.8006 133.049C97.485 132.628 96.3276 131.207 95.0124 129.682C94.8545 130.471 95.4332 132.47 97.5376 133.943Z" fill="url(#paint44_linear)"/>
<path d="M94.3811 126.42C94.3811 126.42 96.2224 124.684 98.9055 128.262C101.062 131.155 101.641 131.839 101.641 131.839L99.0107 134.312C99.0633 134.364 92.0137 128.893 94.3811 126.42Z" fill="url(#paint45_linear)"/>
<path d="M101.641 131.681C101.431 131.629 98.695 133.838 98.695 134.154C98.695 134.312 99.1159 134.627 99.1159 134.627L102.009 132.155C102.009 132.155 101.746 131.681 101.641 131.681Z" fill="#A1B5FF"/>
<path d="M97.3271 118.318C97.2745 119.055 97.0641 119.476 96.4328 119.949C95.6436 120.581 95.2754 122.106 95.2228 123.211C95.2228 123.579 95.2754 123.948 95.2228 124.316C95.1701 124.579 95.0649 124.842 94.9071 125.105C94.8019 125.263 94.6441 125.421 94.5388 125.631C94.2232 126.105 94.118 126.736 94.0127 127.262C93.9075 127.735 93.6971 128.262 93.2236 128.525C92.9606 128.682 92.5923 128.682 92.2766 128.682C91.5401 128.735 90.751 128.735 90.0144 128.735C89.3305 128.735 88.5414 128.682 87.9101 128.367C87.4892 128.104 87.3314 127.578 87.3314 127.052C87.3314 126.42 87.384 125.842 87.5944 125.263C87.6996 124.895 87.9101 124.474 87.9627 124.105C88.0153 123.632 87.9101 123.211 87.9101 122.738C87.9101 122.054 88.1731 121.528 88.4888 120.949C88.8044 120.318 89.0675 119.686 89.2253 119.002C89.3831 118.266 89.8566 117.582 90.3827 117.003C91.014 116.267 91.7505 115.635 92.7501 115.425C94.4336 115.109 97.0641 115.688 97.3271 117.792C97.2745 117.792 97.3271 118.161 97.3271 118.318Z" fill="#1C976E"/>
<path d="M21.5173 54.5557C18.8342 54.5557 16.3616 55.5553 14.4151 57.1862L14.5729 56.4496C14.6255 56.2918 14.5729 56.134 14.4151 56.0288L12.3633 53.977C12.1003 53.714 11.6268 53.8192 11.5216 54.24L11.3637 55.0818C11.3111 55.2922 11.1533 55.4501 10.9955 55.4501L10.1537 55.6079C9.78544 55.6605 9.62762 56.134 9.89066 56.4496L11.9424 58.5014C12.0476 58.6066 12.2055 58.6592 12.3633 58.6592L13.0998 58.5014C11.4689 60.3953 10.4694 62.868 10.4694 65.6037C10.4694 71.6537 15.4146 76.599 21.4647 76.599C27.5148 76.599 32.4601 71.6537 32.4601 65.6037C32.4601 59.5536 27.5674 54.5557 21.5173 54.5557ZM21.5173 74.2316C16.7299 74.2316 12.8368 70.3385 12.8368 65.551C12.8368 63.2888 13.6785 61.2371 15.099 59.7114L16.6247 61.2371C15.6251 62.3945 14.9938 63.9202 14.9938 65.551C14.9938 69.1811 17.9399 72.0746 21.5173 72.0746C25.1474 72.0746 28.0409 69.1285 28.0409 65.551C28.0409 61.921 25.0947 59.0275 21.5173 59.0275C19.8864 59.0275 18.3608 59.6588 17.2034 60.6584L15.6777 59.1327C17.2034 57.7123 19.2551 56.8705 21.5173 56.8705C26.3048 56.8705 30.1979 60.7636 30.1979 65.551C30.1979 70.3385 26.3048 74.2316 21.5173 74.2316ZM19.7286 64.341C19.5182 64.7093 19.3603 65.0776 19.3603 65.551C19.3603 66.7611 20.3073 67.708 21.5173 67.708C22.7273 67.708 23.6743 66.7611 23.6743 65.551C23.6743 64.341 22.7273 63.3941 21.5173 63.3941C21.0964 63.3941 20.6756 63.5519 20.3073 63.7623L18.7816 62.2367C19.5182 61.6053 20.4651 61.2371 21.5173 61.2371C23.9373 61.2371 25.8839 63.1836 25.8839 65.6037C25.8839 68.0237 23.9373 69.9702 21.5173 69.9702C19.0973 69.9702 17.1507 68.0237 17.1507 65.6037C17.1507 64.5515 17.519 63.6045 18.1503 62.868L19.7286 64.341Z" fill="#E2E6F7"/>
<defs>
<linearGradient id="paint0_linear" x1="116.176" y1="147.74" x2="116.176" y2="21.8842" gradientUnits="userSpaceOnUse">
<stop stop-color="#D0D2F9"/>
<stop offset="1" stop-color="#DCDFF8"/>
</linearGradient>
<linearGradient id="paint1_linear" x1="24.7987" y1="122.074" x2="10.2613" y2="127.801" gradientUnits="userSpaceOnUse">
<stop offset="0.0376884" stop-color="#214F95"/>
<stop offset="1" stop-color="#14408F"/>
</linearGradient>
<linearGradient id="paint2_linear" x1="25.4681" y1="119.396" x2="25.4681" y2="143.837" gradientUnits="userSpaceOnUse">
<stop offset="0.0427136" stop-color="#7B8BFF"/>
<stop offset="1" stop-color="#6F80FF"/>
</linearGradient>
<linearGradient id="paint3_linear" x1="25.8284" y1="130.188" x2="25.8284" y2="122.627" gradientUnits="userSpaceOnUse">
<stop offset="0.0427136" stop-color="#7B8BFF"/>
<stop offset="1" stop-color="#6F80FF"/>
</linearGradient>
<linearGradient id="paint4_linear" x1="22.8646" y1="119.398" x2="22.8646" y2="143.838" gradientUnits="userSpaceOnUse">
<stop offset="0.0427136" stop-color="#7B8BFF"/>
<stop offset="1" stop-color="#6F80FF"/>
</linearGradient>
<linearGradient id="paint5_linear" x1="15.9419" y1="119.398" x2="15.9419" y2="143.838" gradientUnits="userSpaceOnUse">
<stop offset="0.0427136" stop-color="#7B8BFF"/>
<stop offset="1" stop-color="#6F80FF"/>
</linearGradient>
<linearGradient id="paint6_linear" x1="13.3699" y1="126.801" x2="18.9553" y2="126.801" gradientUnits="userSpaceOnUse">
<stop offset="0.0427136" stop-color="#7B8BFF"/>
<stop offset="1" stop-color="#6F80FF"/>
</linearGradient>
<linearGradient id="paint7_linear" x1="36.3932" y1="128.083" x2="29.6063" y2="128.083" gradientUnits="userSpaceOnUse">
<stop offset="0.0427136" stop-color="#7B8BFF"/>
<stop offset="1" stop-color="#6F80FF"/>
</linearGradient>
<linearGradient id="paint8_linear" x1="20.3264" y1="119.398" x2="20.3264" y2="143.838" gradientUnits="userSpaceOnUse">
<stop offset="0.0427136" stop-color="#7B8BFF"/>
<stop offset="1" stop-color="#6F80FF"/>
</linearGradient>
<linearGradient id="paint9_linear" x1="38.6635" y1="102.249" x2="206.365" y2="102.249" gradientUnits="userSpaceOnUse">
<stop stop-color="#ACB1F4"/>
<stop offset="1" stop-color="#A3B0F5"/>
</linearGradient>
<linearGradient id="paint10_linear" x1="185.15" y1="98.8541" x2="188.384" y2="98.8541" gradientUnits="userSpaceOnUse">
<stop offset="0.0427136" stop-color="#7B8BFF"/>
<stop offset="1" stop-color="#6F80FF"/>
</linearGradient>
<linearGradient id="paint11_linear" x1="157.951" y1="107.14" x2="161.184" y2="107.14" gradientUnits="userSpaceOnUse">
<stop offset="0.0427136" stop-color="#7B8BFF"/>
<stop offset="1" stop-color="#6F80FF"/>
</linearGradient>
<linearGradient id="paint12_linear" x1="126.663" y1="112.847" x2="129.896" y2="112.847" gradientUnits="userSpaceOnUse">
<stop offset="0.0427136" stop-color="#7B8BFF"/>
<stop offset="1" stop-color="#6F80FF"/>
</linearGradient>
<linearGradient id="paint13_linear" x1="181.168" y1="66.3599" x2="193.51" y2="66.3599" gradientUnits="userSpaceOnUse">
<stop stop-color="#ACB1F4"/>
<stop offset="1" stop-color="#A3B0F5"/>
</linearGradient>
<linearGradient id="paint14_linear" x1="145.338" y1="67.3493" x2="164.766" y2="67.3493" gradientUnits="userSpaceOnUse">
<stop stop-color="#ACB1F4"/>
<stop offset="1" stop-color="#A3B0F5"/>
</linearGradient>
<linearGradient id="paint15_linear" x1="145.338" y1="72.5306" x2="164.766" y2="72.5306" gradientUnits="userSpaceOnUse">
<stop stop-color="#ACB1F4"/>
<stop offset="1" stop-color="#A3B0F5"/>
</linearGradient>
<linearGradient id="paint16_linear" x1="145.338" y1="77.7121" x2="164.766" y2="77.7121" gradientUnits="userSpaceOnUse">
<stop stop-color="#ACB1F4"/>
<stop offset="1" stop-color="#A3B0F5"/>
</linearGradient>
<linearGradient id="paint17_linear" x1="57.7446" y1="92.396" x2="92.1752" y2="92.396" gradientUnits="userSpaceOnUse">
<stop stop-color="#ACB1F4"/>
<stop offset="1" stop-color="#A3B0F5"/>
</linearGradient>
<linearGradient id="paint18_linear" x1="57.7446" y1="94.63" x2="83.4518" y2="94.63" gradientUnits="userSpaceOnUse">
<stop stop-color="#ACB1F4"/>
<stop offset="1" stop-color="#A3B0F5"/>
</linearGradient>
<linearGradient id="paint19_linear" x1="51.8384" y1="93.5471" x2="56.1709" y2="93.5471" gradientUnits="userSpaceOnUse">
<stop stop-color="#ACB1F4"/>
<stop offset="1" stop-color="#A3B0F5"/>
</linearGradient>
<linearGradient id="paint20_linear" x1="57.7446" y1="100.824" x2="92.1752" y2="100.824" gradientUnits="userSpaceOnUse">
<stop offset="0.0427136" stop-color="#7B8BFF"/>
<stop offset="1" stop-color="#6F80FF"/>
</linearGradient>
<linearGradient id="paint21_linear" x1="57.7446" y1="103.059" x2="83.4518" y2="103.059" gradientUnits="userSpaceOnUse">
<stop offset="0.0427136" stop-color="#7B8BFF"/>
<stop offset="1" stop-color="#6F80FF"/>
</linearGradient>
<linearGradient id="paint22_linear" x1="51.8379" y1="101.976" x2="56.1703" y2="101.976" gradientUnits="userSpaceOnUse">
<stop offset="0.0427136" stop-color="#7B8BFF"/>
<stop offset="1" stop-color="#6F80FF"/>
</linearGradient>
<linearGradient id="paint23_linear" x1="57.7446" y1="109.253" x2="92.1752" y2="109.253" gradientUnits="userSpaceOnUse">
<stop stop-color="#ACB1F4"/>
<stop offset="1" stop-color="#A3B0F5"/>
</linearGradient>
<linearGradient id="paint24_linear" x1="57.7446" y1="111.486" x2="83.4518" y2="111.486" gradientUnits="userSpaceOnUse">
<stop stop-color="#ACB1F4"/>
<stop offset="1" stop-color="#A3B0F5"/>
</linearGradient>
<linearGradient id="paint25_linear" x1="51.8379" y1="110.404" x2="56.1703" y2="110.404" gradientUnits="userSpaceOnUse">
<stop stop-color="#ACB1F4"/>
<stop offset="1" stop-color="#A3B0F5"/>
</linearGradient>
<linearGradient id="paint26_linear" x1="57.7446" y1="126.109" x2="92.1752" y2="126.109" gradientUnits="userSpaceOnUse">
<stop offset="0.0427136" stop-color="#7B8BFF"/>
<stop offset="1" stop-color="#6F80FF"/>
</linearGradient>
<linearGradient id="paint27_linear" x1="57.7446" y1="128.343" x2="83.4518" y2="128.343" gradientUnits="userSpaceOnUse">
<stop offset="0.0427136" stop-color="#7B8BFF"/>
<stop offset="1" stop-color="#6F80FF"/>
</linearGradient>
<linearGradient id="paint28_linear" x1="51.8379" y1="127.261" x2="56.1703" y2="127.261" gradientUnits="userSpaceOnUse">
<stop offset="0.0427136" stop-color="#7B8BFF"/>
<stop offset="1" stop-color="#6F80FF"/>
</linearGradient>
<linearGradient id="paint29_linear" x1="107.557" y1="66.6122" x2="107.557" y2="77.6451" gradientUnits="userSpaceOnUse">
<stop offset="0.0427136" stop-color="#7B8BFF"/>
<stop offset="1" stop-color="#6F80FF"/>
</linearGradient>
<linearGradient id="paint30_linear" x1="115.891" y1="66.6125" x2="115.891" y2="77.6455" gradientUnits="userSpaceOnUse">
<stop offset="0.0427136" stop-color="#7B8BFF"/>
<stop offset="1" stop-color="#6F80FF"/>
</linearGradient>
<linearGradient id="paint31_linear" x1="124.226" y1="66.6125" x2="124.226" y2="77.6454" gradientUnits="userSpaceOnUse">
<stop offset="0.0427136" stop-color="#7B8BFF"/>
<stop offset="1" stop-color="#6F80FF"/>
</linearGradient>
<linearGradient id="paint32_linear" x1="132.561" y1="66.6123" x2="132.561" y2="77.6453" gradientUnits="userSpaceOnUse">
<stop offset="0.0427136" stop-color="#7B8BFF"/>
<stop offset="1" stop-color="#6F80FF"/>
</linearGradient>
<linearGradient id="paint33_linear" x1="189.302" y1="130.111" x2="204.967" y2="132.948" gradientUnits="userSpaceOnUse">
<stop offset="0.0376884" stop-color="#214F95"/>
<stop offset="1" stop-color="#14408F"/>
</linearGradient>
<linearGradient id="paint34_linear" x1="192.597" y1="133.485" x2="185.59" y2="133.485" gradientUnits="userSpaceOnUse">
<stop offset="0.0427136" stop-color="#7B8BFF"/>
<stop offset="1" stop-color="#6F80FF"/>
</linearGradient>
<linearGradient id="paint35_linear" x1="190.622" y1="135.922" x2="186.789" y2="135.922" gradientUnits="userSpaceOnUse">
<stop offset="0.0427136" stop-color="#7B8BFF"/>
<stop offset="1" stop-color="#6F80FF"/>
</linearGradient>
<linearGradient id="paint36_linear" x1="192.741" y1="137.935" x2="188.999" y2="137.935" gradientUnits="userSpaceOnUse">
<stop offset="0.0427136" stop-color="#7B8BFF"/>
<stop offset="1" stop-color="#6F80FF"/>
</linearGradient>
<linearGradient id="paint37_linear" x1="194.444" y1="137.83" x2="201.25" y2="137.83" gradientUnits="userSpaceOnUse">
<stop offset="0.0427136" stop-color="#7B8BFF"/>
<stop offset="1" stop-color="#6F80FF"/>
</linearGradient>
<linearGradient id="paint38_linear" x1="199.444" y1="137.567" x2="194.562" y2="137.567" gradientUnits="userSpaceOnUse">
<stop offset="0.0427136" stop-color="#7B8BFF"/>
<stop offset="1" stop-color="#6F80FF"/>
</linearGradient>
<linearGradient id="paint39_linear" x1="196.437" y1="134.117" x2="194.152" y2="134.117" gradientUnits="userSpaceOnUse">
<stop offset="0.0427136" stop-color="#7B8BFF"/>
<stop offset="1" stop-color="#6F80FF"/>
</linearGradient>
<linearGradient id="paint40_linear" x1="192.426" y1="132.813" x2="200.632" y2="132.813" gradientUnits="userSpaceOnUse">
<stop offset="0.0427136" stop-color="#7B8BFF"/>
<stop offset="1" stop-color="#6F80FF"/>
</linearGradient>
<linearGradient id="paint41_linear" x1="90.6737" y1="130.657" x2="85.4482" y2="130.657" gradientUnits="userSpaceOnUse">
<stop offset="0.0427136" stop-color="#7B8BFF"/>
<stop offset="1" stop-color="#6F80FF"/>
</linearGradient>
<linearGradient id="paint42_linear" x1="88.2194" y1="133.226" x2="86.7734" y2="133.226" gradientUnits="userSpaceOnUse">
<stop stop-color="#ACB1F4"/>
<stop offset="1" stop-color="#A3B0F5"/>
</linearGradient>
<linearGradient id="paint43_linear" x1="92.1944" y1="141.129" x2="92.1944" y2="128.39" gradientUnits="userSpaceOnUse">
<stop offset="0.0427136" stop-color="#7B8BFF"/>
<stop offset="1" stop-color="#6F80FF"/>
</linearGradient>
<linearGradient id="paint44_linear" x1="97.7862" y1="131.831" x2="94.9721" y2="131.831" gradientUnits="userSpaceOnUse">
<stop stop-color="#ACB1F4"/>
<stop offset="1" stop-color="#A3B0F5"/>
</linearGradient>
<linearGradient id="paint45_linear" x1="97.8087" y1="141.129" x2="97.8087" y2="128.39" gradientUnits="userSpaceOnUse">
<stop offset="0.0427136" stop-color="#7B8BFF"/>
<stop offset="1" stop-color="#6F80FF"/>
</linearGradient>
</defs>
</svg>
