<svg id="Layer_1" data-name="Layer 1" xmlns="http://www.w3.org/2000/svg" viewBox="0 0 150 75.5"><defs><style>.cls-1{fill:#214975;}.cls-2{fill:#fff;}.cls-3{fill:#1c976e;}</style></defs><polygon class="cls-1" points="39.2 57.16 0 57.16 5.86 21.53 45.06 21.53 39.2 57.16"/><path class="cls-2" d="M7.92,53.28l4.73-26.93h4.62L12.54,53.28Z"/><path class="cls-2" d="M32.62,30.69l-4,22.59H24l4-22.59H20.81l.73-4.34H40.59l-.74,4.34Z"/><path class="cls-1" d="M47,39.54l2.49-14.16h1.42L48.39,39.54Z"/><path class="cls-1" d="M51.12,39.54l1.82-10.33h1.42l-.21,1.13A3.61,3.61,0,0,1,57,29a2.71,2.71,0,0,1,2.09.8,3.45,3.45,0,0,1,.74,2.4,9.87,9.87,0,0,1-.14,1.66l-1,5.72H57.29l1.09-6.23a5.71,5.71,0,0,0,.1-1.05,2.19,2.19,0,0,0-.46-1.5,1.67,1.67,0,0,0-1.32-.52,2.76,2.76,0,0,0-2,.84,3.86,3.86,0,0,0-1.08,2.19l-1.09,6.27Z"/><path class="cls-1" d="M64.39,30.48l-1.6,9.06H61.38L63,30.48H61.26l.22-1.27H63.2l.32-1.87A2.33,2.33,0,0,1,66,25.14a3,3,0,0,1,1.6.49l-.2,1.23a2.85,2.85,0,0,0-1.36-.41c-.62,0-1,.41-1.15,1.22l-.29,1.54H67l-.22,1.27Z"/><path class="cls-1" d="M66.35,39.54l1.82-10.33h1.42l-.26,1.45a4.71,4.71,0,0,1,1.44-1.27A3.07,3.07,0,0,1,72.26,29a1.6,1.6,0,0,1,1.21.43L73,30.76a2.25,2.25,0,0,0-1.23-.38,2.71,2.71,0,0,0-1.78.81A4.2,4.2,0,0,0,68.8,33.7l-1,5.84Z"/><path class="cls-1" d="M78.13,39.54l.14-.85a4.57,4.57,0,0,1-3,1.1A2.92,2.92,0,0,1,73.12,39a3,3,0,0,1-.8-2.17,3.53,3.53,0,0,1,1.26-3,4.63,4.63,0,0,1,3-1,4.37,4.37,0,0,1,2.61.77l.16-.91a4.37,4.37,0,0,0,.1-.87,1.47,1.47,0,0,0-1.68-1.66,6,6,0,0,0-3.27,1.11l-.19-1.21A7.1,7.1,0,0,1,77.84,29a3.34,3.34,0,0,1,2,.65,2.43,2.43,0,0,1,.87,2.08,6.62,6.62,0,0,1-.1,1l-1.22,6.87Zm-2.59-1a3.59,3.59,0,0,0,1.66-.44A5,5,0,0,0,78.57,37l.35-2a3.77,3.77,0,0,0-2.39-.89,3.25,3.25,0,0,0-2.06.65,2.26,2.26,0,0,0-.83,1.92A1.91,1.91,0,0,0,74.13,38,1.84,1.84,0,0,0,75.54,38.55Z"/><path class="cls-1" d="M84.82,39.79A3.8,3.8,0,0,1,81.43,38l1.07-.85a2.71,2.71,0,0,0,2.36,1.39,2.6,2.6,0,0,0,1.59-.46,1.5,1.5,0,0,0,.64-1.3,1.4,1.4,0,0,0-.48-1.05A4.38,4.38,0,0,0,85.47,35c-.44-.21-.89-.44-1.33-.68a3.45,3.45,0,0,1-1.15-1,2.38,2.38,0,0,1-.47-1.48,2.54,2.54,0,0,1,1-2.08A3.72,3.72,0,0,1,85.9,29a3.55,3.55,0,0,1,3.29,1.58l-1,.77a2.84,2.84,0,0,0-2.32-1.09,2.39,2.39,0,0,0-1.45.42,1.36,1.36,0,0,0-.58,1.14,1.22,1.22,0,0,0,.48.95,4.44,4.44,0,0,0,1.15.69c.45.2.91.42,1.37.67a3.41,3.41,0,0,1,1.16,1,2.82,2.82,0,0,1,.48,1.65,2.68,2.68,0,0,1-1,2.18A4.08,4.08,0,0,1,84.82,39.79Z"/><path class="cls-1" d="M92.07,39.79a1.54,1.54,0,0,1-1.25-.5A2,2,0,0,1,90.41,38a4.2,4.2,0,0,1,.06-.69l1.19-6.8H90l.23-1.27h1.7l.64-3.67,1.52-.6-.75,4.27h2.51l-.22,1.27H93.08L92,36.81a4.73,4.73,0,0,0-.08.75c0,.6.28.89.85.89a3,3,0,0,0,1.57-.54l-.42,1.47A4,4,0,0,1,92.07,39.79Z"/><path class="cls-1" d="M94.7,39.54l1.82-10.33h1.42l-.27,1.45a4.86,4.86,0,0,1,1.45-1.27,3,3,0,0,1,1.49-.43,1.61,1.61,0,0,1,1.21.43l-.45,1.37a2.25,2.25,0,0,0-1.23-.38,2.73,2.73,0,0,0-1.78.81,4.19,4.19,0,0,0-1.21,2.51l-1,5.84Z"/><path class="cls-1" d="M107.1,39.54l.18-1a3.15,3.15,0,0,1-2.69,1.24q-3,0-3-3.2a9.21,9.21,0,0,1,.14-1.44l1-5.94h1.42L103,35.52a5.22,5.22,0,0,0-.08.91,2.12,2.12,0,0,0,.52,1.58,1.85,1.85,0,0,0,1.34.5c1.65,0,2.65-1,3-2.95l1.11-6.35h1.42l-1.82,10.33Z"/><path class="cls-1" d="M114.36,39.79A2.93,2.93,0,0,1,112,38.65a4.65,4.65,0,0,1-.93-3,7.84,7.84,0,0,1,1.37-4.83A4.32,4.32,0,0,1,116,29a3.35,3.35,0,0,1,2,.57,2.66,2.66,0,0,1,1.1,1.6l-1.32.5a1.74,1.74,0,0,0-1.88-1.39,2.54,2.54,0,0,0-1.9.8,4.44,4.44,0,0,0-1.13,2,9.17,9.17,0,0,0-.35,2.59c0,1.94.67,2.91,2,2.91A2.63,2.63,0,0,0,117,36.93l1.14.49A3.92,3.92,0,0,1,114.36,39.79Z"/><path class="cls-1" d="M121.65,39.79a1.54,1.54,0,0,1-1.25-.5A2,2,0,0,1,120,38a4.2,4.2,0,0,1,.06-.69l1.19-6.8h-1.7l.22-1.27h1.7l.65-3.67,1.52-.6-.75,4.27h2.51l-.22,1.27h-2.51l-1.12,6.33a6.38,6.38,0,0,0-.08.75c0,.6.29.89.85.89a3,3,0,0,0,1.58-.54l-.42,1.47A4,4,0,0,1,121.65,39.79Z"/><path class="cls-1" d="M130.35,39.54l.18-1a3.15,3.15,0,0,1-2.69,1.24q-3,0-3-3.2a10.64,10.64,0,0,1,.14-1.44l1-5.94h1.41l-1.11,6.31a5.22,5.22,0,0,0-.08.91,2.16,2.16,0,0,0,.51,1.58,1.89,1.89,0,0,0,1.35.5c1.65,0,2.64-1,3-2.95l1.12-6.35h1.41l-1.82,10.33Z"/><path class="cls-1" d="M134.17,39.54,136,29.21h1.42l-.27,1.45a4.86,4.86,0,0,1,1.45-1.27,3,3,0,0,1,1.49-.43,1.61,1.61,0,0,1,1.21.43l-.44,1.37a2.31,2.31,0,0,0-1.24-.38,2.73,2.73,0,0,0-1.78.81,4.19,4.19,0,0,0-1.21,2.51l-1,5.84Z"/><path class="cls-1" d="M143.82,39.79a3.17,3.17,0,0,1-2.64-1.24,4.77,4.77,0,0,1-1-3.09,7.31,7.31,0,0,1,1.45-4.65A4.49,4.49,0,0,1,145.3,29a3.53,3.53,0,0,1,2.57.93,3.92,3.92,0,0,1,.95,2.9,7.62,7.62,0,0,1-.39,2.16h-6.78v.29a4.14,4.14,0,0,0,.59,2.38,2,2,0,0,0,1.74.85,4.24,4.24,0,0,0,2.39-.81l.63,1A5.2,5.2,0,0,1,143.82,39.79Zm-2-6.11h5.46a4.29,4.29,0,0,0,.14-1,2.42,2.42,0,0,0-.62-1.88,2.19,2.19,0,0,0-1.52-.55,2.88,2.88,0,0,0-2.27,1A5.36,5.36,0,0,0,141.84,33.68Z"/><path class="cls-3" d="M48.44,54.72a5,5,0,0,1-2.9-.85,4.59,4.59,0,0,1-1.72-2.32l1.94-.71a3.38,3.38,0,0,0,1.1,1.37,2.78,2.78,0,0,0,1.65.51A2.46,2.46,0,0,0,50,52.29,1.51,1.51,0,0,0,50.6,51a1.32,1.32,0,0,0-.15-.62,2.31,2.31,0,0,0-.36-.48,2.48,2.48,0,0,0-.61-.39,6.86,6.86,0,0,0-.68-.3A7.76,7.76,0,0,0,48,49l-1.07-.39a6.14,6.14,0,0,1-1-.46,3.54,3.54,0,0,1-.89-.66,3.16,3.16,0,0,1-.54-.88A3.11,3.11,0,0,1,45.36,43a4.31,4.31,0,0,1,2.94-.94,4.25,4.25,0,0,1,2.55.73,3.49,3.49,0,0,1,1.36,1.89l-1.89.63a2.13,2.13,0,0,0-2.16-1.26,2.2,2.2,0,0,0-1.29.34,1.13,1.13,0,0,0-.46,1,1,1,0,0,0,.36.76,2.34,2.34,0,0,0,.77.49,12.39,12.39,0,0,0,1.21.43l.8.29c.18.07.43.17.76.32s.58.29.77.41.39.29.63.5a2.36,2.36,0,0,1,.55.66,4.28,4.28,0,0,1,.34.8,3.62,3.62,0,0,1,.14,1,3.3,3.3,0,0,1-1.22,2.7A4.72,4.72,0,0,1,48.44,54.72Z"/><path class="cls-3" d="M59,54.72a3.83,3.83,0,0,1-3-1.24,5,5,0,0,1-1.1-3.43A5.06,5.06,0,0,1,56,46.61a4.21,4.21,0,0,1,6,0,5,5,0,0,1,1.11,3.44A5,5,0,0,1,62,53.48,3.85,3.85,0,0,1,59,54.72Zm0-2A1.79,1.79,0,0,0,60.52,52a3.18,3.18,0,0,0,.56-2,3.26,3.26,0,0,0-.56-2A1.78,1.78,0,0,0,59,47.3a1.75,1.75,0,0,0-1.48.75,3.85,3.85,0,0,0,0,4A1.75,1.75,0,0,0,59,52.76Z"/><path class="cls-3" d="M65.83,54.51V42.85l2-1V54.51Z"/><path class="cls-3" d="M76.46,54.51v-.86a2.82,2.82,0,0,1-2.34,1.07,3.1,3.1,0,0,1-2.29-.89,3.73,3.73,0,0,1-.9-2.78V45.57h2v5.11c0,1.39.56,2.08,1.68,2.08s1.8-.68,1.8-2V45.57h2v8.94Z"/><path class="cls-3" d="M84.19,54.72c-1.39,0-2.08-.77-2.08-2.29V47.36H80.78V45.57h1.33V42.86l2-1v3.69h2.06v1.79H84.15V52c0,.58.25.86.75.86a2.82,2.82,0,0,0,1.4-.4l-.24,1.83A4,4,0,0,1,84.19,54.72Z"/><path class="cls-3" d="M90.65,44a1.13,1.13,0,0,1-.85.36,1.23,1.23,0,0,1-1.23-1.22,1.15,1.15,0,0,1,.36-.86,1.22,1.22,0,0,1,.87-.35,1.15,1.15,0,0,1,.85.35,1.14,1.14,0,0,1,.35.86A1.17,1.17,0,0,1,90.65,44ZM88.77,54.51V45.57h2v8.94Z"/><path class="cls-3" d="M97.54,54.72a3.83,3.83,0,0,1-3-1.24,5,5,0,0,1-1.1-3.43,5.06,5.06,0,0,1,1.1-3.44,4.21,4.21,0,0,1,6,0,5,5,0,0,1,1.11,3.44,5,5,0,0,1-1.1,3.43A3.84,3.84,0,0,1,97.54,54.72Zm0-2A1.79,1.79,0,0,0,99.05,52a3.18,3.18,0,0,0,.56-2,3.26,3.26,0,0,0-.56-2,1.78,1.78,0,0,0-1.51-.74,1.75,1.75,0,0,0-1.48.75,3.85,3.85,0,0,0,0,4A1.75,1.75,0,0,0,97.54,52.76Z"/><path class="cls-3" d="M109.8,54.51V49.38c0-1.38-.56-2.08-1.66-2.08s-1.82.69-1.82,2.05v5.16h-2V45.57h2v.84a2.91,2.91,0,0,1,2.36-1,3.12,3.12,0,0,1,2.28.88,3.77,3.77,0,0,1,.88,2.78v5.49Z"/><rect class="cls-1" x="45.27" y="40.87" width="104.73" height="0.32"/></svg>