<svg width="238" height="238" viewBox="0 0 238 238" fill="none" xmlns="http://www.w3.org/2000/svg">
<path d="M203.242 153.758C222.438 107.232 200.283 53.9539 153.758 34.7577C107.232 15.5616 53.9538 37.7166 34.7577 84.2423C15.5615 130.768 37.7166 184.046 84.2423 203.242C130.768 222.438 184.046 200.283 203.242 153.758Z" stroke="#214975" stroke-width="0.8577" stroke-miterlimit="10" stroke-linecap="round" stroke-linejoin="round" stroke-dasharray="30.02 30.02"/>
<path d="M105.641 159.32H94.9132C94.3996 159.32 94.0002 159.719 94.0002 160.233V162.401H73.6853C73.1146 162.401 72.601 162.858 72.601 163.485V185.455C72.601 186.026 73.0576 186.539 73.6853 186.539H105.527C106.098 186.539 106.611 186.083 106.611 185.455V160.29C106.554 159.719 106.155 159.32 105.641 159.32Z" fill="#1C976E" stroke="#214975" stroke-width="0.8577" stroke-miterlimit="10" stroke-linecap="round" stroke-linejoin="round"/>
<path d="M101.476 163.714H71.0602V189.164H101.476V163.714Z" fill="white" stroke="#214975" stroke-width="0.8577" stroke-miterlimit="10" stroke-linecap="round" stroke-linejoin="round"/>
<path d="M104.614 164.855H71.0602V190.306H104.614V164.855Z" fill="white" stroke="#214975" stroke-width="0.8577" stroke-miterlimit="10" stroke-linecap="round" stroke-linejoin="round"/>
<path d="M105.641 163.2H94.9132C94.3996 163.2 94.0002 163.599 94.0002 164.113V166.281H73.6853C73.1146 166.281 72.601 166.738 72.601 167.366V189.335C72.601 189.906 73.0576 190.42 73.6853 190.42H105.527C106.098 190.42 106.611 189.963 106.611 189.335V164.17C106.554 163.599 106.155 163.2 105.641 163.2Z" fill="#1C976E" stroke="#214975" stroke-width="0.8577" stroke-miterlimit="10" stroke-linecap="round" stroke-linejoin="round"/>
<path d="M105.641 163.2L100.391 185.113L72.601 189.221C72.601 189.792 73.0576 190.306 73.6853 190.306H105.527C106.098 190.306 106.611 189.849 106.611 189.221V164.056C106.554 163.599 106.155 163.2 105.641 163.2Z" fill="#DADADA"/>
<path d="M156.6 152.415H131.149V187.909H156.6V152.415Z" fill="white" stroke="#214975" stroke-width="0.8577" stroke-miterlimit="10" stroke-linecap="round" stroke-linejoin="round"/>
<path d="M154.888 154.012H132.918V154.526H154.888V154.012Z" fill="#272223"/>
<path d="M154.888 155.439H132.918V155.952H154.888V155.439Z" fill="#272223"/>
<path d="M154.888 156.866H132.918V157.379H154.888V156.866Z" fill="#272223"/>
<path d="M154.888 173.015H132.918V173.528H154.888V173.015Z" fill="#272223"/>
<path d="M154.888 174.441H132.918V174.955H154.888V174.441Z" fill="#272223"/>
<path d="M154.888 175.868H132.918V176.382H154.888V175.868Z" fill="#272223"/>
<path d="M154.831 161.26H146.614V161.773H154.831V161.26Z" fill="#272223"/>
<path d="M154.831 162.686H146.614V163.2H154.831V162.686Z" fill="#272223"/>
<path d="M154.831 164.113H146.614V164.626H154.831V164.113Z" fill="#272223"/>
<path d="M154.831 165.596H146.614V166.11H154.831V165.596Z" fill="#272223"/>
<path d="M154.831 167.023H146.614V167.537H154.831V167.023Z" fill="#272223"/>
<path d="M154.831 168.45H146.614V168.963H154.831V168.45Z" fill="#272223"/>
<path d="M144.788 164.854C144.788 168.107 142.106 170.789 138.853 170.789C135.6 170.789 132.918 168.107 132.918 164.854C132.918 161.602 135.6 158.92 138.853 158.92C142.106 158.92 144.788 161.602 144.788 164.854Z" fill="#B5CF4D" stroke="#214975" stroke-width="0.8577" stroke-miterlimit="10" stroke-linecap="round" stroke-linejoin="round"/>
<path d="M144.731 164.969C144.731 164.911 144.731 164.911 144.731 164.854C144.731 161.602 142.049 158.92 138.796 158.92C138.739 158.92 138.739 158.92 138.682 158.92V164.912H144.731V164.969Z" fill="#E75832" stroke="#214975" stroke-width="0.8577" stroke-miterlimit="10" stroke-linecap="round" stroke-linejoin="round"/>
<path d="M136.399 177.409H132.918V186.026H136.399V177.409Z" fill="#B5CF4D" stroke="#214975" stroke-width="0.8577" stroke-miterlimit="10" stroke-linecap="round" stroke-linejoin="round"/>
<path d="M141.021 177.409H137.54V186.026H141.021V177.409Z" fill="#B5CF4D" stroke="#214975" stroke-width="0.8577" stroke-miterlimit="10" stroke-linecap="round" stroke-linejoin="round"/>
<path d="M145.644 177.409H142.163V186.026H145.644V177.409Z" fill="#B5CF4D" stroke="#214975" stroke-width="0.8577" stroke-miterlimit="10" stroke-linecap="round" stroke-linejoin="round"/>
<path d="M150.266 177.409H146.785V186.026H150.266V177.409Z" fill="#B5CF4D" stroke="#214975" stroke-width="0.8577" stroke-miterlimit="10" stroke-linecap="round" stroke-linejoin="round"/>
<path d="M154.888 177.409H151.407V186.026H154.888V177.409Z" fill="#B5CF4D" stroke="#214975" stroke-width="0.8577" stroke-miterlimit="10" stroke-linecap="round" stroke-linejoin="round"/>
<path d="M136.399 177.409H132.918V181.518H136.399V177.409Z" fill="#E75832"/>
<path d="M136.399 177.409H132.918V181.518H136.399V177.409Z" stroke="#214975" stroke-width="0.8577" stroke-miterlimit="10" stroke-linecap="round" stroke-linejoin="round"/>
<path d="M141.021 177.409H137.54V179.977H141.021V177.409Z" fill="#E75832"/>
<path d="M141.021 177.409H137.54V179.977H141.021V177.409Z" stroke="#214975" stroke-width="0.8577" stroke-miterlimit="10" stroke-linecap="round" stroke-linejoin="round"/>
<path d="M145.644 177.409H142.163V184.713H145.644V177.409Z" fill="#E75832"/>
<path d="M145.644 177.409H142.163V184.713H145.644V177.409Z" stroke="#214975" stroke-width="0.8577" stroke-miterlimit="10" stroke-linecap="round" stroke-linejoin="round"/>
<path d="M150.266 177.409H146.785V179.463H150.266V177.409Z" fill="#E75832"/>
<path d="M150.266 177.409H146.785V179.463H150.266V177.409Z" stroke="#214975" stroke-width="0.8577" stroke-miterlimit="10" stroke-linecap="round" stroke-linejoin="round"/>
<path d="M154.888 177.409H151.407V183.914H154.888V177.409Z" fill="#E75832"/>
<path d="M154.888 177.409H151.407V183.914H154.888V177.409Z" stroke="#214975" stroke-width="0.8577" stroke-miterlimit="10" stroke-linecap="round" stroke-linejoin="round"/>
<path d="M131.149 187.852L151.407 183.857L156.6 152.415V187.852H131.149Z" fill="#DADADA"/>
<path d="M175.203 111.385C175.203 111.956 174.746 112.469 174.118 112.469H149.01C148.439 112.469 147.926 112.013 147.926 111.385V94.6654C147.926 94.0948 148.382 93.5812 149.01 93.5812H174.118C174.689 93.5812 175.203 94.0377 175.203 94.6654V111.385Z" fill="#1C976E" stroke="#214975" stroke-width="0.8577" stroke-miterlimit="10" stroke-linecap="round" stroke-linejoin="round"/>
<path d="M148.44 95.0078L161.622 105.394L174.746 95.0078" stroke="#214975" stroke-width="0.8577" stroke-miterlimit="10" stroke-linecap="round" stroke-linejoin="round"/>
<path d="M158.198 102.769L152.548 108.076" stroke="#214975" stroke-width="0.8577" stroke-miterlimit="10" stroke-linecap="round" stroke-linejoin="round"/>
<path d="M165.045 102.769L170.695 108.076" stroke="#214975" stroke-width="0.8577" stroke-miterlimit="10" stroke-linecap="round" stroke-linejoin="round"/>
<path d="M175.203 111.385C175.203 111.956 174.746 112.469 174.118 112.469H149.01C148.439 112.469 147.926 112.013 147.926 111.385L170.638 108.076L174.118 93.5812C174.689 93.5812 175.203 94.0377 175.203 94.6654V111.385Z" fill="#DADADA"/>
<path d="M92.003 107.22C89.6063 104.823 86.3536 103.396 82.7015 103.396C79.1064 103.396 75.7967 104.88 73.4 107.22C75.7967 109.616 79.0494 111.043 82.7015 111.043C86.3536 111.043 89.6634 109.559 92.003 107.22Z" stroke="#214975" stroke-width="1.7154" stroke-miterlimit="10" stroke-linecap="round" stroke-linejoin="round"/>
<path d="M73.457 125.766C75.8537 128.162 79.1064 129.589 82.7585 129.589C86.3536 129.589 89.6633 128.105 92.06 125.766C89.6633 123.369 86.4106 121.942 82.7585 121.942C79.1064 121.885 75.8537 123.369 73.457 125.766Z" stroke="#214975" stroke-width="1.7154" stroke-miterlimit="10" stroke-linecap="round" stroke-linejoin="round"/>
<path d="M95.8832 116.464C95.8832 123.712 90.0055 129.589 82.7584 129.589C75.5112 129.589 69.6335 123.712 69.6335 116.464C69.6335 109.217 75.5112 103.34 82.7584 103.34C90.0055 103.397 95.8832 109.217 95.8832 116.464Z" stroke="#214975" stroke-width="1.7154" stroke-miterlimit="10" stroke-linecap="round" stroke-linejoin="round"/>
<path d="M90.8046 116.464C90.8046 123.711 87.2095 129.589 82.7585 129.589C78.3075 129.589 74.7124 123.711 74.7124 116.464C74.7124 109.217 78.3075 103.339 82.7585 103.339C87.2095 103.396 90.8046 109.217 90.8046 116.464Z" stroke="#214975" stroke-width="1.7154" stroke-miterlimit="10" stroke-linecap="round" stroke-linejoin="round"/>
<path d="M82.7584 129.589V103.396" stroke="#214975" stroke-width="1.7154" stroke-miterlimit="10" stroke-linecap="round" stroke-linejoin="round"/>
<path d="M69.6335 116.464H95.8831" stroke="#214975" stroke-width="1.7154" stroke-miterlimit="10" stroke-linecap="round" stroke-linejoin="round"/>
<path opacity="0.3" d="M184.333 92.2113C179.083 92.2113 174.86 87.9315 174.86 82.7386C174.86 77.4887 179.14 73.2659 184.333 73.2659C189.583 73.2659 193.806 77.5457 193.806 82.7386C193.806 87.9315 189.583 92.2113 184.333 92.2113Z" fill="#007DBB"/>
<path d="M185.931 96.263H182.45V113.382H185.931V96.263Z" fill="#1C976E" stroke="#214975" stroke-width="0.8577" stroke-miterlimit="10" stroke-linecap="round" stroke-linejoin="round"/>
<path d="M185.931 92.0973H182.45V96.4912H185.931V92.0973Z" fill="#B7B8CF" stroke="#214975" stroke-width="0.8577" stroke-miterlimit="10" stroke-linecap="round" stroke-linejoin="round"/>
<path d="M184.219 71.8965C178.284 71.8965 173.434 76.747 173.434 82.6817C173.434 88.6164 178.284 93.4669 184.219 93.4669C190.154 93.4669 195.004 88.6164 195.004 82.6817C195.004 76.747 190.154 71.8965 184.219 71.8965ZM184.219 91.0131C179.597 91.0131 175.887 87.3039 175.887 82.6817C175.887 78.0595 179.597 74.3503 184.219 74.3503C188.841 74.3503 192.55 78.0595 192.55 82.6817C192.55 87.3039 188.841 91.0131 184.219 91.0131Z" fill="#B7B8CF" stroke="#214975" stroke-width="0.8577" stroke-miterlimit="10" stroke-linecap="round" stroke-linejoin="round"/>
<path d="M186.787 95.1217H181.651V97.4613H186.787V95.1217Z" fill="#1C976E" stroke="#214975" stroke-width="0.8577" stroke-miterlimit="10" stroke-linecap="round" stroke-linejoin="round"/>
<path d="M186.787 112.07H181.651V114.409H186.787V112.07Z" fill="#1C976E" stroke="#214975" stroke-width="0.8577" stroke-miterlimit="10" stroke-linecap="round" stroke-linejoin="round"/>
<path d="M186.787 97.4613V95.1217H184.333V114.409H186.787V112.07H185.988V97.4613H186.787Z" fill="#DADADA"/>
<path d="M158.768 82.7962H143.418V86.3912H158.768V82.7962Z" fill="#B7B8CF" stroke="#214975" stroke-width="0.8577" stroke-miterlimit="10" stroke-linecap="round" stroke-linejoin="round"/>
<path d="M158.768 84.6223H143.418V86.4484H158.768V84.6223Z" fill="#DADADA"/>
<path d="M139.938 80.3424C138.169 80.3424 136.628 81.4266 136 82.9674L139.652 81.712L142.163 83.1386V86.0488L139.652 87.4755L136 86.22C136.628 87.7608 138.169 88.845 139.938 88.845C142.334 88.845 144.217 86.9048 144.217 84.5652C144.217 82.2255 142.334 80.3424 139.938 80.3424Z" fill="#B7B8CF" stroke="#214975" stroke-width="0.8577" stroke-miterlimit="10" stroke-linecap="round" stroke-linejoin="round"/>
<path d="M144.73 86.6767C144.73 86.9049 144.559 87.0761 144.331 87.0761C144.103 87.0761 143.931 86.9049 143.931 86.6767V82.568C143.931 82.3398 144.103 82.1686 144.331 82.1686C144.559 82.1686 144.73 82.3398 144.73 82.568V86.6767Z" fill="#B7B8CF" stroke="#214975" stroke-width="0.8577" stroke-miterlimit="10" stroke-linecap="round" stroke-linejoin="round"/>
<path d="M162.249 80.3424C164.018 80.3424 165.559 81.4267 166.187 82.9674L162.535 81.712L160.024 83.1386V86.0489L162.535 87.4755L166.187 86.2201C165.559 87.7608 164.018 88.845 162.249 88.845C159.853 88.845 157.97 86.9048 157.97 84.5652C157.97 82.2256 159.91 80.3424 162.249 80.3424Z" fill="#B7B8CF" stroke="#214975" stroke-width="0.8577" stroke-miterlimit="10" stroke-linecap="round" stroke-linejoin="round"/>
<path d="M157.456 86.6767C157.456 86.9049 157.627 87.0761 157.855 87.0761C158.084 87.0761 158.255 86.9049 158.255 86.6767V82.568C158.255 82.3398 158.084 82.1686 157.855 82.1686C157.627 82.1686 157.456 82.3398 157.456 82.568V86.6767Z" fill="#B7B8CF" stroke="#214975" stroke-width="0.8577" stroke-miterlimit="10" stroke-linecap="round" stroke-linejoin="round"/>
<path d="M142.163 84.5652V86.0489L139.652 87.4755L136 86.2201C136.627 87.7608 138.168 88.845 139.937 88.845C141.706 88.845 143.19 87.7608 143.874 86.2771V86.6195C143.874 86.8478 144.046 87.019 144.274 87.019C144.502 87.019 144.673 86.8478 144.673 86.6195V84.5081H142.163V84.5652Z" fill="#DADADA"/>
<path d="M160.081 86.049V84.5653H157.513V86.6767C157.513 86.9049 157.684 87.0761 157.912 87.0761C158.141 87.0761 158.312 86.9049 158.312 86.6767V86.3343C158.996 87.875 160.48 88.9022 162.249 88.9022C164.018 88.9022 165.559 87.818 166.187 86.2772L162.534 87.5327L160.081 86.049Z" fill="#DADADA"/>
<path d="M156.714 85.0218C156.714 85.25 156.543 85.4212 156.315 85.4212H145.929C145.701 85.4212 145.529 85.25 145.529 85.0218C145.529 84.7935 145.701 84.6223 145.929 84.6223H156.315C156.543 84.6223 156.714 84.7935 156.714 85.0218Z" fill="#B7B8CF" stroke="#214975" stroke-width="0.8577" stroke-miterlimit="10" stroke-linecap="round" stroke-linejoin="round"/>
<path d="M121.562 173.871H110.777V158.292H126.299V169.134L121.562 173.871Z" fill="#1C976E" stroke="#214975" stroke-width="0.8577" stroke-miterlimit="10" stroke-linecap="round" stroke-linejoin="round"/>
<path d="M124.587 160.289H112.375V161.088H124.587V160.289Z" fill="#272223"/>
<path d="M124.587 162.401H112.375V163.2H124.587V162.401Z" fill="#272223"/>
<path d="M124.587 164.512H112.375V165.311H124.587V164.512Z" fill="#272223"/>
<path d="M124.587 166.738H112.375V167.537H124.587V166.738Z" fill="#272223"/>
<path d="M124.587 168.849H112.375V169.648H124.587V168.849Z" fill="#272223"/>
<path d="M122.761 171.018H112.375V171.816H122.761V171.018Z" fill="#272223"/>
<path d="M121.562 173.871H110.777L121.905 170.219L126.299 158.292V169.134L121.562 173.871Z" fill="#DADADA"/>
<path d="M121.505 173.871V169.134H126.242L121.505 173.871Z" fill="#1C976E" stroke="#214975" stroke-width="0.8577" stroke-miterlimit="10" stroke-linecap="round" stroke-linejoin="round"/>
<path d="M136.057 128.334H135.087C134.915 127.478 134.573 126.622 134.059 125.937L134.744 125.252C134.858 125.138 134.858 124.91 134.744 124.739L133.203 123.198C133.089 123.084 132.861 123.084 132.69 123.198L132.005 123.883C131.263 123.426 130.464 123.084 129.608 122.856V121.885C129.608 121.714 129.437 121.543 129.266 121.543H127.098C126.926 121.543 126.755 121.714 126.755 121.885V122.856C125.899 123.027 125.043 123.369 124.359 123.883L123.674 123.198C123.56 123.084 123.331 123.084 123.16 123.198L121.619 124.739C121.505 124.853 121.505 125.081 121.619 125.252L122.304 125.937C121.848 126.679 121.505 127.478 121.277 128.334H120.307C120.136 128.334 119.965 128.505 119.965 128.676V130.845C119.965 131.016 120.136 131.187 120.307 131.187H121.277C121.448 132.043 121.791 132.899 122.304 133.584L121.619 134.268C121.505 134.383 121.505 134.611 121.619 134.782L123.16 136.323C123.274 136.437 123.503 136.437 123.674 136.323L124.359 135.638C125.1 136.094 125.899 136.437 126.755 136.665V137.635C126.755 137.806 126.926 137.978 127.098 137.978H129.266C129.437 137.978 129.608 137.806 129.608 137.635V136.665C130.464 136.494 131.32 136.152 132.005 135.638L132.69 136.323C132.804 136.437 133.032 136.437 133.203 136.323L134.744 134.782C134.858 134.668 134.858 134.44 134.744 134.268L134.059 133.584C134.516 132.842 134.858 132.043 135.087 131.187H136.057C136.228 131.187 136.399 131.016 136.399 130.845V128.676C136.456 128.505 136.285 128.334 136.057 128.334ZM130.35 124.739C130.521 124.453 130.921 124.339 131.206 124.51C131.492 124.682 131.606 125.081 131.434 125.366C131.32 125.595 131.092 125.709 130.864 125.709C130.75 125.709 130.636 125.709 130.521 125.652C130.293 125.423 130.179 125.024 130.35 124.739ZM128.182 123.712C128.524 123.712 128.81 123.997 128.81 124.339C128.81 124.682 128.524 124.967 128.182 124.967C127.839 124.967 127.554 124.682 127.554 124.339C127.554 123.997 127.839 123.712 128.182 123.712ZM125.1 124.51C125.386 124.339 125.785 124.453 125.956 124.739C126.127 125.024 126.013 125.423 125.728 125.595C125.614 125.652 125.5 125.652 125.386 125.652C125.157 125.652 124.929 125.538 124.815 125.366C124.701 125.081 124.815 124.682 125.1 124.51ZM122.932 126.736C123.103 126.451 123.503 126.336 123.788 126.508C124.073 126.679 124.187 127.078 124.016 127.364C123.902 127.592 123.674 127.706 123.445 127.706C123.331 127.706 123.217 127.706 123.103 127.649C122.818 127.421 122.761 127.021 122.932 126.736ZM122.076 129.76C122.076 129.418 122.361 129.133 122.704 129.133C123.046 129.133 123.331 129.418 123.331 129.76C123.331 130.103 123.046 130.388 122.704 130.388C122.361 130.388 122.076 130.16 122.076 129.76ZM123.788 133.07C123.674 133.127 123.56 133.127 123.445 133.127C123.217 133.127 122.989 133.013 122.875 132.842C122.704 132.556 122.818 132.157 123.103 131.986C123.388 131.815 123.788 131.929 123.959 132.214C124.187 132.499 124.073 132.899 123.788 133.07ZM126.013 134.839C125.899 135.067 125.671 135.181 125.443 135.181C125.329 135.181 125.214 135.181 125.1 135.124C124.815 134.953 124.701 134.554 124.872 134.268C125.043 133.983 125.443 133.869 125.728 134.04C126.07 134.154 126.185 134.497 126.013 134.839ZM128.182 135.866C127.839 135.866 127.554 135.581 127.554 135.239C127.554 134.896 127.839 134.611 128.182 134.611C128.524 134.611 128.81 134.896 128.81 135.239C128.81 135.581 128.524 135.866 128.182 135.866ZM131.206 135.067C131.092 135.124 130.978 135.124 130.864 135.124C130.636 135.124 130.407 135.01 130.293 134.782C130.122 134.497 130.236 134.097 130.521 133.926C130.807 133.755 131.206 133.869 131.377 134.154C131.606 134.497 131.549 134.896 131.206 135.067ZM128.182 133.698C126.013 133.698 124.244 131.929 124.244 129.76C124.244 127.592 126.013 125.823 128.182 125.823C130.35 125.823 132.119 127.592 132.119 129.76C132.119 131.986 130.35 133.698 128.182 133.698ZM132.576 126.508C132.861 126.336 133.261 126.451 133.432 126.736C133.603 127.021 133.489 127.421 133.203 127.592C133.089 127.649 132.975 127.706 132.861 127.706C132.633 127.706 132.405 127.592 132.29 127.421C132.176 127.078 132.29 126.679 132.576 126.508ZM133.432 132.842C133.318 133.07 133.089 133.127 132.861 133.127C132.747 133.127 132.633 133.127 132.519 133.07C132.233 132.899 132.119 132.499 132.29 132.214C132.462 131.929 132.861 131.815 133.146 131.986C133.489 132.157 133.603 132.499 133.432 132.842ZM134.231 129.76C134.231 130.103 133.945 130.388 133.603 130.388C133.261 130.388 132.975 130.103 132.975 129.76C132.975 129.418 133.261 129.133 133.603 129.133C133.945 129.133 134.231 129.418 134.231 129.76Z" fill="#1C976E" stroke="#214975" stroke-width="0.8577" stroke-miterlimit="10" stroke-linecap="round" stroke-linejoin="round"/>
<path d="M149.695 136.608H148.725C148.554 135.752 148.211 134.896 147.698 134.211L148.383 133.527C148.497 133.413 148.497 133.184 148.383 133.013L146.842 131.472C146.728 131.358 146.499 131.358 146.328 131.472L145.643 132.157C144.902 131.701 144.103 131.358 143.247 131.13V130.16C143.247 129.989 143.076 129.817 142.904 129.817H140.736C140.565 129.817 140.394 129.989 140.394 130.16V131.13C139.538 131.301 138.682 131.644 137.997 132.157L137.312 131.472C137.198 131.358 136.97 131.358 136.798 131.472L135.258 133.013C135.144 133.127 135.144 133.355 135.258 133.527L135.942 134.211C135.486 134.953 135.144 135.752 134.915 136.608H133.945C133.774 136.608 133.603 136.779 133.603 136.951V139.119C133.603 139.29 133.774 139.461 133.945 139.461H134.915C135.087 140.317 135.429 141.173 135.942 141.858L135.258 142.543C135.144 142.657 135.144 142.885 135.258 143.056L136.798 144.597C136.913 144.711 137.141 144.711 137.312 144.597L137.997 143.912C138.739 144.369 139.538 144.711 140.394 144.94V145.91C140.394 146.081 140.565 146.252 140.736 146.252H142.904C143.076 146.252 143.247 146.081 143.247 145.91V144.94C144.103 144.768 144.959 144.426 145.643 143.912L146.328 144.597C146.442 144.711 146.671 144.711 146.842 144.597L148.383 143.056C148.497 142.942 148.497 142.714 148.383 142.543L147.698 141.858C148.154 141.116 148.497 140.317 148.725 139.461H149.695C149.866 139.461 150.037 139.29 150.037 139.119V136.951C150.094 136.722 149.923 136.608 149.695 136.608ZM143.989 133.013C144.16 132.728 144.559 132.614 144.845 132.785C145.13 132.956 145.244 133.355 145.073 133.641C144.959 133.869 144.73 133.983 144.502 133.983C144.388 133.983 144.274 133.983 144.16 133.926C143.932 133.698 143.817 133.298 143.989 133.013ZM141.82 131.929C142.163 131.929 142.448 132.214 142.448 132.557C142.448 132.899 142.163 133.184 141.82 133.184C141.478 133.184 141.192 132.899 141.192 132.557C141.192 132.214 141.478 131.929 141.82 131.929ZM138.796 132.785C139.081 132.614 139.48 132.728 139.652 133.013C139.823 133.298 139.709 133.698 139.423 133.869C139.309 133.926 139.195 133.983 139.081 133.983C138.853 133.983 138.625 133.869 138.51 133.641C138.396 133.355 138.453 132.956 138.796 132.785ZM136.57 135.01C136.741 134.725 137.141 134.611 137.426 134.782C137.711 134.953 137.826 135.353 137.654 135.638C137.54 135.866 137.312 135.98 137.084 135.98C136.97 135.98 136.856 135.98 136.741 135.923C136.456 135.695 136.399 135.296 136.57 135.01ZM135.714 138.035C135.714 137.692 136 137.407 136.342 137.407C136.684 137.407 136.97 137.692 136.97 138.035C136.97 138.377 136.684 138.662 136.342 138.662C136 138.662 135.714 138.377 135.714 138.035ZM137.426 141.287C137.312 141.344 137.198 141.344 137.084 141.344C136.856 141.344 136.627 141.23 136.513 141.002C136.342 140.717 136.456 140.317 136.741 140.146C137.027 139.975 137.426 140.089 137.597 140.374C137.826 140.774 137.711 141.116 137.426 141.287ZM139.652 143.056C139.538 143.285 139.309 143.399 139.081 143.399C138.967 143.399 138.853 143.399 138.739 143.342C138.453 143.171 138.339 142.771 138.51 142.486C138.682 142.2 139.081 142.086 139.366 142.258C139.709 142.372 139.823 142.771 139.652 143.056ZM141.82 144.084C141.478 144.084 141.192 143.798 141.192 143.456C141.192 143.113 141.478 142.828 141.82 142.828C142.163 142.828 142.448 143.113 142.448 143.456C142.448 143.855 142.163 144.084 141.82 144.084ZM144.845 143.285C144.73 143.342 144.616 143.342 144.502 143.342C144.274 143.342 144.046 143.228 143.931 142.999C143.76 142.714 143.874 142.315 144.16 142.143C144.445 141.972 144.845 142.086 145.016 142.372C145.244 142.714 145.187 143.113 144.845 143.285ZM141.82 141.972C139.652 141.972 137.883 140.203 137.883 138.035C137.883 135.866 139.652 134.097 141.82 134.097C143.989 134.097 145.758 135.866 145.758 138.035C145.758 140.203 143.989 141.972 141.82 141.972ZM146.214 134.725C146.499 134.554 146.899 134.668 147.07 134.953C147.241 135.239 147.127 135.638 146.842 135.809C146.728 135.866 146.614 135.923 146.499 135.923C146.271 135.923 146.043 135.809 145.929 135.638C145.815 135.296 145.929 134.953 146.214 134.725ZM147.07 141.059C146.956 141.287 146.728 141.402 146.499 141.402C146.385 141.402 146.271 141.402 146.157 141.344C145.872 141.173 145.758 140.774 145.929 140.489C146.1 140.203 146.499 140.089 146.785 140.26C147.184 140.374 147.241 140.774 147.07 141.059ZM147.926 138.035C147.926 138.377 147.641 138.662 147.298 138.662C146.956 138.662 146.671 138.377 146.671 138.035C146.671 137.692 146.956 137.407 147.298 137.407C147.641 137.407 147.926 137.692 147.926 138.035Z" fill="#B7B8CF" stroke="#214975" stroke-width="0.8577" stroke-miterlimit="10" stroke-linecap="round" stroke-linejoin="round"/>
<path d="M149.182 119.717H148.212C148.04 118.861 147.698 118.005 147.184 117.32L147.869 116.635C147.983 116.521 147.983 116.293 147.869 116.122L146.328 114.581C146.214 114.467 145.986 114.467 145.815 114.581L145.13 115.266C144.388 114.809 143.589 114.467 142.733 114.239V113.268C142.733 113.097 142.562 112.926 142.391 112.926H140.222C140.051 112.926 139.88 113.097 139.88 113.268V114.239C139.024 114.41 138.168 114.752 137.483 115.266L136.799 114.581C136.685 114.467 136.456 114.467 136.285 114.581L134.744 116.122C134.63 116.236 134.63 116.464 134.744 116.635L135.429 117.32C134.973 118.062 134.63 118.861 134.402 119.717H133.432C133.261 119.717 133.089 119.888 133.089 120.059V122.228C133.089 122.399 133.261 122.57 133.432 122.57H134.402C134.573 123.426 134.916 124.282 135.429 124.967L134.744 125.651C134.63 125.766 134.63 125.994 134.744 126.165L136.285 127.706C136.399 127.82 136.627 127.82 136.799 127.706L137.483 127.021C138.225 127.478 139.024 127.82 139.88 128.048V129.018C139.88 129.189 140.051 129.361 140.222 129.361H142.391C142.562 129.361 142.733 129.189 142.733 129.018V128.048C143.589 127.877 144.445 127.535 145.13 127.021L145.815 127.706C145.929 127.82 146.157 127.82 146.328 127.706L147.869 126.165C147.983 126.051 147.983 125.823 147.869 125.651L147.184 124.967C147.641 124.225 147.983 123.426 148.212 122.57H149.182C149.353 122.57 149.524 122.399 149.524 122.228V120.059C149.581 119.888 149.41 119.717 149.182 119.717ZM143.475 116.122C143.646 115.836 144.046 115.722 144.331 115.893C144.616 116.065 144.731 116.464 144.559 116.749C144.445 116.978 144.217 117.092 143.989 117.092C143.875 117.092 143.76 117.092 143.646 117.035C143.418 116.806 143.304 116.407 143.475 116.122ZM141.307 115.095C141.649 115.095 141.934 115.38 141.934 115.722C141.934 116.065 141.649 116.35 141.307 116.35C140.964 116.35 140.679 116.065 140.679 115.722C140.679 115.38 140.964 115.095 141.307 115.095ZM138.225 115.893C138.511 115.722 138.91 115.836 139.081 116.122C139.252 116.407 139.138 116.806 138.853 116.978C138.739 117.035 138.625 117.035 138.511 117.035C138.282 117.035 138.054 116.921 137.94 116.749C137.826 116.464 137.94 116.065 138.225 115.893ZM136.057 118.119C136.228 117.834 136.627 117.719 136.913 117.891C137.198 118.062 137.312 118.461 137.141 118.747C137.027 118.975 136.799 119.089 136.57 119.089C136.456 119.089 136.342 119.089 136.228 119.032C135.943 118.804 135.886 118.404 136.057 118.119ZM135.201 121.143C135.201 120.801 135.486 120.516 135.829 120.516C136.171 120.516 136.456 120.801 136.456 121.143C136.456 121.486 136.171 121.771 135.829 121.771C135.486 121.771 135.201 121.486 135.201 121.143ZM136.913 124.453C136.799 124.51 136.685 124.567 136.57 124.567C136.342 124.567 136.114 124.453 136 124.225C135.829 123.94 135.943 123.54 136.228 123.369C136.513 123.198 136.913 123.312 137.084 123.597C137.312 123.882 137.198 124.282 136.913 124.453ZM139.138 126.222C139.024 126.45 138.796 126.564 138.568 126.564C138.454 126.564 138.339 126.564 138.225 126.507C137.94 126.336 137.826 125.937 137.997 125.651C138.168 125.366 138.568 125.252 138.853 125.423C139.195 125.48 139.309 125.88 139.138 126.222ZM141.307 127.249C140.964 127.249 140.679 126.964 140.679 126.622C140.679 126.279 140.964 125.994 141.307 125.994C141.649 125.994 141.934 126.279 141.934 126.622C141.934 126.964 141.649 127.249 141.307 127.249ZM144.331 126.393C144.217 126.45 144.103 126.45 143.989 126.45C143.76 126.45 143.532 126.336 143.418 126.108C143.247 125.823 143.361 125.423 143.646 125.252C143.932 125.081 144.331 125.195 144.502 125.48C144.731 125.88 144.674 126.222 144.331 126.393ZM141.307 125.081C139.138 125.081 137.369 123.312 137.369 121.143C137.369 118.975 139.138 117.206 141.307 117.206C143.475 117.206 145.244 118.975 145.244 121.143C145.244 123.312 143.475 125.081 141.307 125.081ZM145.701 117.891C145.986 117.719 146.385 117.834 146.557 118.119C146.728 118.404 146.614 118.804 146.328 118.975C146.214 119.032 146.1 119.089 145.986 119.089C145.758 119.089 145.529 118.975 145.415 118.804C145.301 118.461 145.415 118.062 145.701 117.891ZM146.557 124.168C146.443 124.396 146.214 124.51 145.986 124.51C145.872 124.51 145.758 124.51 145.644 124.453C145.358 124.282 145.244 123.882 145.415 123.597C145.587 123.312 145.986 123.198 146.271 123.369C146.614 123.483 146.728 123.882 146.557 124.168ZM147.356 121.143C147.356 121.486 147.07 121.771 146.728 121.771C146.385 121.771 146.1 121.486 146.1 121.143C146.1 120.801 146.385 120.516 146.728 120.516C147.07 120.516 147.356 120.801 147.356 121.143Z" fill="#E9A848" stroke="#214975" stroke-width="0.8577" stroke-miterlimit="10" stroke-linecap="round" stroke-linejoin="round"/>
<path d="M128.581 68.0162H99.0789V118.746H128.581V68.0162Z" fill="white" stroke="#214975" stroke-width="0.8577" stroke-miterlimit="10" stroke-linecap="round" stroke-linejoin="round"/>
<path d="M126.356 70.1846H101.305V76.9182H126.356V70.1846Z" fill="#1C976E" stroke="#214975" stroke-width="0.8577" stroke-miterlimit="10" stroke-linecap="round" stroke-linejoin="round"/>
<path d="M112.375 71.0979H102.446V71.5544H112.375V71.0979Z" fill="#272223"/>
<path d="M112.375 72.0109H102.446V72.4674H112.375V72.0109Z" fill="#272223"/>
<path d="M112.375 72.8669H102.446V73.3234H112.375V72.8669Z" fill="#272223"/>
<path d="M112.375 73.7798H102.446V74.2363H112.375V73.7798Z" fill="#272223"/>
<path d="M112.375 74.6357H102.446V75.0923H112.375V74.6357Z" fill="#272223"/>
<path d="M112.375 75.549H102.446V76.0055H112.375V75.549Z" fill="#272223"/>
<path d="M113.745 71.0979H113.174V76.0054H113.745V71.0979Z" fill="#272223"/>
<path d="M114.943 71.0979H114.372V76.0054H114.943V71.0979Z" fill="#272223"/>
<path d="M116.084 71.0979H115.514V76.0054H116.084V71.0979Z" fill="#272223"/>
<path d="M124.358 73.5517C124.358 74.2935 123.788 74.8642 123.046 74.8642C122.304 74.8642 121.733 74.2935 121.733 73.5517C121.733 72.8098 122.304 72.2392 123.046 72.2392C123.788 72.2392 124.358 72.8098 124.358 73.5517Z" fill="#1C976E" stroke="#214975" stroke-width="0.8577" stroke-miterlimit="10" stroke-linecap="round" stroke-linejoin="round"/>
<path d="M123.56 73.5515C123.56 73.8368 123.331 74.0651 123.046 74.0651C122.761 74.0651 122.532 73.8368 122.532 73.5515C122.532 73.2662 122.761 73.0379 123.046 73.0379C123.331 73.0379 123.56 73.2662 123.56 73.5515Z" fill="#272223"/>
<path d="M126.356 76.9182H101.305V83.6518H126.356V76.9182Z" fill="#1C976E" stroke="#214975" stroke-width="0.8577" stroke-miterlimit="10" stroke-linecap="round" stroke-linejoin="round"/>
<path d="M112.375 77.8888H102.446V78.3453H112.375V77.8888Z" fill="#272223"/>
<path d="M112.375 78.7444H102.446V79.2009H112.375V78.7444Z" fill="#272223"/>
<path d="M112.375 79.6573H102.446V80.1138H112.375V79.6573Z" fill="#272223"/>
<path d="M112.375 80.5132H102.446V80.9698H112.375V80.5132Z" fill="#272223"/>
<path d="M112.375 81.4261H102.446V81.8827H112.375V81.4261Z" fill="#272223"/>
<path d="M112.375 82.2821H102.446V82.7386H112.375V82.2821Z" fill="#272223"/>
<path d="M113.745 77.8883H113.174V82.7959H113.745V77.8883Z" fill="#272223"/>
<path d="M114.943 77.8883H114.372V82.7959H114.943V77.8883Z" fill="#272223"/>
<path d="M116.084 77.8883H115.514V82.7959H116.084V77.8883Z" fill="#272223"/>
<path d="M124.358 80.2849C124.358 81.0267 123.788 81.5973 123.046 81.5973C122.304 81.5973 121.733 81.0267 121.733 80.2849C121.733 79.543 122.304 78.9724 123.046 78.9724C123.788 78.9724 124.358 79.543 124.358 80.2849Z" fill="#1C976E" stroke="#214975" stroke-width="0.8577" stroke-miterlimit="10" stroke-linecap="round" stroke-linejoin="round"/>
<path d="M123.56 80.285C123.56 80.5703 123.331 80.7986 123.046 80.7986C122.761 80.7986 122.532 80.5703 122.532 80.285C122.532 79.9997 122.761 79.7714 123.046 79.7714C123.331 79.7714 123.56 79.9997 123.56 80.285Z" fill="#272223"/>
<path d="M126.356 83.7087H101.305V90.4423H126.356V83.7087Z" fill="#1C976E" stroke="#214975" stroke-width="0.8577" stroke-miterlimit="10" stroke-linecap="round" stroke-linejoin="round"/>
<path d="M112.375 84.6219H102.446V85.0784H112.375V84.6219Z" fill="#272223"/>
<path d="M112.375 85.4779H102.446V85.9344H112.375V85.4779Z" fill="#272223"/>
<path d="M112.375 86.3908H102.446V86.8474H112.375V86.3908Z" fill="#272223"/>
<path d="M112.375 87.3041H102.446V87.7606H112.375V87.3041Z" fill="#272223"/>
<path d="M112.375 88.16H102.446V88.6166H112.375V88.16Z" fill="#272223"/>
<path d="M112.375 89.0729H102.446V89.5295H112.375V89.0729Z" fill="#272223"/>
<path d="M113.745 84.6218H113.174V89.5294H113.745V84.6218Z" fill="#272223"/>
<path d="M114.943 84.6218H114.372V89.5294H114.943V84.6218Z" fill="#272223"/>
<path d="M116.084 84.6218H115.514V89.5294H116.084V84.6218Z" fill="#272223"/>
<path d="M124.358 87.0756C124.358 87.8174 123.788 88.3881 123.046 88.3881C122.304 88.3881 121.733 87.8174 121.733 87.0756C121.733 86.3338 122.304 85.7631 123.046 85.7631C123.788 85.7061 124.358 86.3338 124.358 87.0756Z" fill="#1C976E" stroke="#214975" stroke-width="0.8577" stroke-miterlimit="10" stroke-linecap="round" stroke-linejoin="round"/>
<path d="M123.56 87.0756C123.56 87.3609 123.331 87.5892 123.046 87.5892C122.761 87.5892 122.532 87.3609 122.532 87.0756C122.532 86.7903 122.761 86.562 123.046 86.562C123.331 86.5049 123.56 86.7903 123.56 87.0756Z" fill="#272223"/>
<path d="M126.356 90.4423H101.305V97.1759H126.356V90.4423Z" fill="#1C976E" stroke="#214975" stroke-width="0.8577" stroke-miterlimit="10" stroke-linecap="round" stroke-linejoin="round"/>
<path d="M112.375 91.3562H102.446V91.8127H112.375V91.3562Z" fill="#272223"/>
<path d="M112.375 92.2689H102.446V92.7254H112.375V92.2689Z" fill="#272223"/>
<path d="M112.375 93.1249H102.446V93.5814H112.375V93.1249Z" fill="#272223"/>
<path d="M112.375 94.0378H102.446V94.4943H112.375V94.0378Z" fill="#272223"/>
<path d="M112.375 94.9507H102.446V95.4072H112.375V94.9507Z" fill="#272223"/>
<path d="M112.375 95.8067H102.446V96.2632H112.375V95.8067Z" fill="#272223"/>
<path d="M113.745 91.3556H113.174V96.2631H113.745V91.3556Z" fill="#272223"/>
<path d="M114.943 91.3556H114.372V96.2631H114.943V91.3556Z" fill="#272223"/>
<path d="M116.084 91.3556H115.514V96.2631H116.084V91.3556Z" fill="#272223"/>
<path d="M124.358 93.8093C124.358 94.5512 123.788 95.1218 123.046 95.1218C122.304 95.1218 121.733 94.5512 121.733 93.8093C121.733 93.0675 122.304 92.4969 123.046 92.4969C123.788 92.4969 124.358 93.0675 124.358 93.8093Z" fill="#1C976E" stroke="#214975" stroke-width="0.8577" stroke-miterlimit="10" stroke-linecap="round" stroke-linejoin="round"/>
<path d="M123.56 93.8092C123.56 94.0945 123.331 94.3228 123.046 94.3228C122.761 94.3228 122.532 94.0945 122.532 93.8092C122.532 93.5239 122.761 93.2956 123.046 93.2956C123.331 93.2956 123.56 93.5239 123.56 93.8092Z" fill="#272223"/>
<path d="M126.356 97.1762H101.305V103.91H126.356V97.1762Z" fill="#1C976E" stroke="#214975" stroke-width="0.8577" stroke-miterlimit="10" stroke-linecap="round" stroke-linejoin="round"/>
<path d="M112.375 98.1463H102.446V98.6028H112.375V98.1463Z" fill="#272223"/>
<path d="M112.375 99.0022H102.446V99.4587H112.375V99.0022Z" fill="#272223"/>
<path d="M112.375 99.9155H102.446V100.372H112.375V99.9155Z" fill="#272223"/>
<path d="M112.375 100.771H102.446V101.228H112.375V100.771Z" fill="#272223"/>
<path d="M112.375 101.684H102.446V102.141H112.375V101.684Z" fill="#272223"/>
<path d="M112.375 102.597H102.446V103.054H112.375V102.597Z" fill="#272223"/>
<path d="M113.745 98.1461H113.174V103.054H113.745V98.1461Z" fill="#272223"/>
<path d="M114.943 98.1461H114.372V103.054H114.943V98.1461Z" fill="#272223"/>
<path d="M116.084 98.1461H115.514V103.054H116.084V98.1461Z" fill="#272223"/>
<path d="M124.358 100.543C124.358 101.285 123.788 101.855 123.046 101.855C122.304 101.855 121.733 101.285 121.733 100.543C121.733 99.8011 122.304 99.2305 123.046 99.2305C123.788 99.2305 124.358 99.8582 124.358 100.543Z" fill="#1C976E" stroke="#214975" stroke-width="0.8577" stroke-miterlimit="10" stroke-linecap="round" stroke-linejoin="round"/>
<path d="M123.56 100.543C123.56 100.828 123.331 101.057 123.046 101.057C122.761 101.057 122.532 100.828 122.532 100.543C122.532 100.258 122.761 100.03 123.046 100.03C123.331 100.03 123.56 100.258 123.56 100.543Z" fill="#272223"/>
<path d="M126.356 103.51H101.305V110.244H126.356V103.51Z" fill="#1C976E" stroke="#214975" stroke-width="0.8577" stroke-miterlimit="10" stroke-linecap="round" stroke-linejoin="round"/>
<path d="M112.375 104.423H102.446V104.88H112.375V104.423Z" fill="#272223"/>
<path d="M112.375 105.336H102.446V105.793H112.375V105.336Z" fill="#272223"/>
<path d="M112.375 106.192H102.446V106.649H112.375V106.192Z" fill="#272223"/>
<path d="M112.375 107.105H102.446V107.562H112.375V107.105Z" fill="#272223"/>
<path d="M112.375 108.018H102.446V108.475H112.375V108.018Z" fill="#272223"/>
<path d="M112.375 108.874H102.446V109.331H112.375V108.874Z" fill="#272223"/>
<path d="M113.745 104.423H113.174V109.331H113.745V104.423Z" fill="#272223"/>
<path d="M114.943 104.423H114.372V109.331H114.943V104.423Z" fill="#272223"/>
<path d="M116.084 104.423H115.514V109.331H116.084V104.423Z" fill="#272223"/>
<path d="M124.358 106.877C124.358 107.619 123.788 108.189 123.046 108.189C122.304 108.189 121.733 107.619 121.733 106.877C121.733 106.135 122.304 105.564 123.046 105.564C123.788 105.564 124.358 106.135 124.358 106.877Z" fill="#1C976E" stroke="#214975" stroke-width="0.8577" stroke-miterlimit="10" stroke-linecap="round" stroke-linejoin="round"/>
<path d="M123.56 106.877C123.56 107.162 123.331 107.391 123.046 107.391C122.761 107.391 122.532 107.162 122.532 106.877C122.532 106.592 122.761 106.363 123.046 106.363C123.331 106.363 123.56 106.592 123.56 106.877Z" fill="#272223"/>
<path d="M126.356 109.787H101.305V116.521H126.356V109.787Z" fill="#1C976E" stroke="#214975" stroke-width="0.8577" stroke-miterlimit="10" stroke-linecap="round" stroke-linejoin="round"/>
<path d="M112.375 110.758H102.446V111.214H112.375V110.758Z" fill="#272223"/>
<path d="M112.375 111.613H102.446V112.07H112.375V111.613Z" fill="#272223"/>
<path d="M112.375 112.526H102.446V112.983H112.375V112.526Z" fill="#272223"/>
<path d="M112.375 113.439H102.446V113.896H112.375V113.439Z" fill="#272223"/>
<path d="M112.375 114.295H102.446V114.752H112.375V114.295Z" fill="#272223"/>
<path d="M112.375 115.208H102.446V115.665H112.375V115.208Z" fill="#272223"/>
<path d="M113.745 110.757H113.174V115.665H113.745V110.757Z" fill="#272223"/>
<path d="M114.943 110.757H114.372V115.665H114.943V110.757Z" fill="#272223"/>
<path d="M116.084 110.757H115.514V115.665H116.084V110.757Z" fill="#272223"/>
<path d="M124.358 113.211C124.358 113.953 123.788 114.524 123.046 114.524C122.304 114.524 121.733 113.953 121.733 113.211C121.733 112.469 122.304 111.899 123.046 111.899C123.788 111.841 124.358 112.469 124.358 113.211Z" fill="#1C976E" stroke="#214975" stroke-width="0.8577" stroke-miterlimit="10" stroke-linecap="round" stroke-linejoin="round"/>
<path d="M123.56 113.211C123.56 113.496 123.331 113.725 123.046 113.725C122.761 113.725 122.532 113.496 122.532 113.211C122.532 112.926 122.761 112.697 123.046 112.697C123.331 112.64 123.56 112.926 123.56 113.211Z" fill="#272223"/>
<path d="M113.174 70.1846H101.305V116.578H113.174V70.1846Z" fill="#DADADA"/>
<path d="M128.581 89.6436H127.212V97.119H128.581V89.6436Z" fill="#272223"/>
<path d="M175.488 124.168V120.002C175.488 118.347 176.858 116.978 178.513 116.978C180.168 116.978 181.537 118.347 181.537 120.002V124.168H182.907V119.945C182.907 117.548 180.966 115.551 178.57 115.551C176.173 115.551 174.176 117.491 174.176 119.945V124.168H175.488Z" fill="#B7B8CF" stroke="#214975" stroke-width="0.8577" stroke-miterlimit="10" stroke-linecap="round" stroke-linejoin="round"/>
<path d="M184.105 134.097C184.105 134.211 184.048 134.268 183.934 134.268H173.092C172.977 134.268 172.92 134.211 172.92 134.097V123.141C172.92 123.027 172.977 122.97 173.092 122.97H183.934C184.048 122.97 184.105 123.027 184.105 123.141V134.097Z" fill="#1C976E" stroke="#214975" stroke-width="0.8577" stroke-miterlimit="10" stroke-linecap="round" stroke-linejoin="round"/>
<path d="M180.053 132.043L178.969 129.075C179.483 128.904 179.825 128.448 179.825 127.877C179.825 127.135 179.254 126.565 178.513 126.565C177.771 126.565 177.2 127.135 177.2 127.877C177.2 128.448 177.542 128.904 178.056 129.075L176.972 132.043H180.053Z" fill="#272223"/>
<path d="M183.934 122.912L181.366 131.244L172.92 134.097C172.92 134.211 172.977 134.268 173.092 134.268H183.934C184.048 134.268 184.105 134.211 184.105 134.097V123.141C184.105 123.026 184.048 122.912 183.934 122.912Z" fill="#DADADA"/>
<path d="M187.016 171.36C187.016 171.703 186.73 171.931 186.445 171.931H170.638C170.296 171.931 170.067 171.646 170.067 171.36V144.027C170.067 143.684 170.353 143.456 170.638 143.456H186.445C186.787 143.456 187.016 143.741 187.016 144.027V171.36Z" fill="#B7B8CF" stroke="#214975" stroke-width="0.8577" stroke-miterlimit="10" stroke-linecap="round" stroke-linejoin="round"/>
<path d="M187.015 146.309H170.067V169.021H187.015V146.309Z" fill="white" stroke="#214975" stroke-width="0.8577" stroke-miterlimit="10" stroke-linecap="round" stroke-linejoin="round"/>
<path d="M172.008 171.36V144.027C172.008 143.684 172.293 143.456 172.578 143.456H170.638C170.296 143.456 170.067 143.741 170.067 144.027V171.36C170.067 171.703 170.353 171.931 170.638 171.931H172.578C172.293 171.931 172.008 171.646 172.008 171.36Z" fill="#DADADA"/>
<path d="M186.445 143.456H184.504C184.847 143.456 185.075 143.741 185.075 144.026V171.36C185.075 171.703 184.79 171.931 184.504 171.931H186.445C186.787 171.931 187.015 171.646 187.015 171.36V144.026C187.015 143.684 186.73 143.456 186.445 143.456Z" fill="#DADADA"/>
<path d="M183.648 144.939C183.648 145.11 183.534 145.225 183.363 145.225H173.662C173.491 145.225 173.377 145.11 173.377 144.939C173.377 144.768 173.491 144.654 173.662 144.654H183.363C183.534 144.654 183.648 144.768 183.648 144.939Z" fill="#272223"/>
<path d="M183.648 170.39C183.648 170.561 183.534 170.675 183.363 170.675H173.662C173.491 170.675 173.377 170.561 173.377 170.39C173.377 170.219 173.491 170.105 173.662 170.105H183.363C183.534 170.105 183.648 170.276 183.648 170.39Z" fill="#272223"/>
<path d="M89.4349 66.5895H50.7453V90.2141H89.4349V66.5895Z" fill="#1C976E" stroke="#214975" stroke-width="0.8577" stroke-miterlimit="10" stroke-linecap="round" stroke-linejoin="round"/>
<path d="M87.7801 69.1574H52.4572V88.6734H87.7801V69.1574Z" fill="white" stroke="#214975" stroke-width="0.8577" stroke-miterlimit="10" stroke-linecap="round" stroke-linejoin="round"/>
<path d="M46.5796 91.4124L51.2018 94.608H88.9785L93.6007 91.4124H46.5796Z" fill="#1C976E" stroke="#214975" stroke-width="0.8577" stroke-miterlimit="10" stroke-linecap="round" stroke-linejoin="round"/>
<path d="M95.0273 91.4125C95.0273 92.0972 94.3996 92.6108 93.6007 92.6108H46.5796C45.7807 92.6108 45.153 92.0972 45.153 91.4125C45.153 90.7277 45.7807 90.2141 46.5796 90.2141H93.6007C94.3996 90.2141 95.0273 90.7277 95.0273 91.4125Z" fill="#1C976E" stroke="#214975" stroke-width="0.8577" stroke-miterlimit="10" stroke-linecap="round" stroke-linejoin="round"/>
<path d="M77.1092 90.2141H63.1284V91.5837H77.1092V90.2141Z" fill="#272223"/>
<path d="M70.5466 67.9592C70.5466 68.1875 70.3184 68.4157 70.0901 68.4157C69.8619 68.4157 69.6336 68.1875 69.6336 67.9592C69.6336 67.731 69.8619 67.5027 70.0901 67.5027C70.3754 67.5027 70.5466 67.6739 70.5466 67.9592Z" fill="#272223"/>
<path d="M89.4349 90.2141H50.7453L89.4349 66.5895V90.2141Z" fill="#DADADA"/>
<path d="M87.7231 47.7585C87.4378 44.9624 85.041 42.7369 82.1308 42.7369C79.1634 42.7369 76.7096 45.0765 76.5385 48.0439C76.139 47.8727 75.6254 47.7585 75.1689 47.7585C73.1146 47.7585 71.4027 49.4134 71.4027 51.5248C68.6636 51.6389 66.438 53.9215 66.438 56.7177C66.438 59.6279 68.7777 61.9676 71.6309 61.9676H87.666C91.6035 61.9676 94.742 58.772 94.742 54.8916C94.8561 50.8971 91.6605 47.7585 87.7231 47.7585Z" fill="white" stroke="#214975" stroke-width="0.8577" stroke-miterlimit="10" stroke-linecap="round" stroke-linejoin="round"/>
<path d="M87.7232 47.7587C87.4379 45.1338 85.3836 43.0795 82.8157 42.7941C83.6716 43.6501 84.2423 44.7914 84.2423 46.1039C84.2423 46.8457 84.0711 47.5305 83.7857 48.1011C85.4406 49.0712 86.5819 50.8973 86.5819 52.9516C86.5819 55.6907 84.6417 57.9162 82.1309 58.4868C81.4461 59.6281 80.1336 60.427 78.707 60.427C77.2804 60.427 76.0821 59.6852 75.3402 58.601H75.2261C74.5413 60.37 72.8294 61.6254 70.8321 61.6254C70.3185 61.6254 69.862 61.5683 69.4055 61.3971C70.0903 61.7395 70.9463 61.9678 71.8022 61.9678H87.8373C91.7748 61.9678 94.9133 58.7722 94.9133 54.8918C94.8562 50.8973 91.6606 47.7587 87.7232 47.7587Z" fill="#DADADA"/>
<path d="M105.47 147.736V151.502C105.47 152.529 107.981 153.385 111.062 153.385C114.144 153.385 116.655 152.529 116.655 151.502V147.736H105.47Z" fill="#1C976E" stroke="#214975" stroke-width="0.8577" stroke-miterlimit="10" stroke-linecap="round" stroke-linejoin="round"/>
<path d="M116.655 147.735C116.655 148.762 114.144 149.618 111.062 149.618C107.981 149.618 105.47 148.762 105.47 147.735C105.47 146.708 107.981 145.852 111.062 145.852C114.144 145.852 116.655 146.651 116.655 147.735Z" fill="#1C976E" stroke="#214975" stroke-width="0.8577" stroke-miterlimit="10" stroke-linecap="round" stroke-linejoin="round"/>
<path d="M106.44 143.969V147.051C106.44 147.907 108.494 148.591 111.062 148.591C113.63 148.591 115.685 147.907 115.685 147.051V143.969H106.44Z" fill="#00A194" stroke="#214975" stroke-width="0.8577" stroke-miterlimit="10" stroke-linecap="round" stroke-linejoin="round"/>
<path d="M105.47 141.63V145.396C105.47 146.423 107.981 147.279 111.062 147.279C114.144 147.279 116.655 146.423 116.655 145.396V141.63H105.47Z" fill="#1C976E" stroke="#214975" stroke-width="0.8577" stroke-miterlimit="10" stroke-linecap="round" stroke-linejoin="round"/>
<path d="M116.655 141.63C116.655 142.657 114.144 143.513 111.062 143.513C107.981 143.513 105.47 142.657 105.47 141.63C105.47 140.602 107.981 139.746 111.062 139.746C114.144 139.746 116.655 140.602 116.655 141.63Z" fill="#1C976E" stroke="#214975" stroke-width="0.8577" stroke-miterlimit="10" stroke-linecap="round" stroke-linejoin="round"/>
<path d="M106.44 137.92V141.002C106.44 141.858 108.494 142.543 111.062 142.543C113.63 142.543 115.685 141.858 115.685 141.002V137.92H106.44Z" fill="#00A194" stroke="#214975" stroke-width="0.8577" stroke-miterlimit="10" stroke-linecap="round" stroke-linejoin="round"/>
<path d="M105.47 135.352V139.119C105.47 140.146 107.981 141.002 111.062 141.002C114.144 141.002 116.655 140.146 116.655 139.119V135.352H105.47Z" fill="#1C976E" stroke="#214975" stroke-width="0.8577" stroke-miterlimit="10" stroke-linecap="round" stroke-linejoin="round"/>
<path d="M116.655 135.353C116.655 136.38 114.144 137.236 111.062 137.236C107.981 137.236 105.47 136.38 105.47 135.353C105.47 134.326 107.981 133.47 111.062 133.47C114.144 133.47 116.655 134.326 116.655 135.353Z" fill="#1C976E" stroke="#214975" stroke-width="0.8577" stroke-miterlimit="10" stroke-linecap="round" stroke-linejoin="round"/>
<path d="M116.655 139.119V135.352C116.655 134.325 114.144 133.469 111.062 133.469C110.606 133.469 110.149 133.469 109.75 133.526C112.204 133.755 114.03 134.496 114.03 135.352V139.119C114.03 139.518 113.687 139.861 113.06 140.203V140.602C113.687 140.888 114.03 141.287 114.03 141.687V145.453C114.03 145.852 113.687 146.195 113.06 146.537V146.765C113.687 147.051 114.03 147.45 114.03 147.85V151.616C114.03 152.529 112.204 153.271 109.75 153.442C110.149 153.499 110.606 153.499 111.062 153.499C114.144 153.499 116.655 152.643 116.655 151.616V147.85C116.655 147.45 116.312 147.108 115.685 146.765V146.537C116.312 146.252 116.655 145.852 116.655 145.453V141.687C116.655 141.287 116.312 140.945 115.685 140.602V140.203C116.312 139.861 116.655 139.518 116.655 139.119Z" fill="#DADADA"/>
<path d="M114.657 135.352C114.657 135.923 113.06 136.38 111.062 136.38C109.065 136.38 107.467 135.923 107.467 135.352C107.467 134.782 109.065 134.325 111.062 134.325C113.06 134.325 114.657 134.782 114.657 135.352Z" fill="#00A194" stroke="#214975" stroke-width="0.8577" stroke-miterlimit="10" stroke-linecap="round" stroke-linejoin="round"/>
<path d="M93.0868 147.736V151.502C93.0868 152.529 95.5976 153.385 98.6791 153.385C101.761 153.385 104.271 152.529 104.271 151.502V147.736H93.0868Z" fill="#1C976E" stroke="#214975" stroke-width="0.8577" stroke-miterlimit="10" stroke-linecap="round" stroke-linejoin="round"/>
<path d="M104.271 147.735C104.271 148.762 101.761 149.618 98.6791 149.618C95.5976 149.618 93.0868 148.762 93.0868 147.735C93.0868 146.708 95.5976 145.852 98.6791 145.852C101.761 145.852 104.271 146.651 104.271 147.735Z" fill="#1C976E" stroke="#214975" stroke-width="0.8577" stroke-miterlimit="10" stroke-linecap="round" stroke-linejoin="round"/>
<path d="M94.057 143.969V147.051C94.057 147.907 96.1113 148.591 98.6792 148.591C101.247 148.591 103.301 147.907 103.301 147.051V143.969H94.057Z" fill="#00A194" stroke="#214975" stroke-width="0.8577" stroke-miterlimit="10" stroke-linecap="round" stroke-linejoin="round"/>
<path d="M93.0868 141.63V145.396C93.0868 146.423 95.5976 147.279 98.6791 147.279C101.761 147.279 104.271 146.423 104.271 145.396V141.63H93.0868Z" fill="#1C976E" stroke="#214975" stroke-width="0.8577" stroke-miterlimit="10" stroke-linecap="round" stroke-linejoin="round"/>
<path d="M104.271 141.63C104.271 142.657 101.761 143.513 98.6791 143.513C95.5976 143.513 93.0868 142.657 93.0868 141.63C93.0868 140.602 95.5976 139.746 98.6791 139.746C101.761 139.746 104.271 140.602 104.271 141.63Z" fill="#1C976E" stroke="#214975" stroke-width="0.8577" stroke-miterlimit="10" stroke-linecap="round" stroke-linejoin="round"/>
<path d="M94.057 137.92V141.002C94.057 141.858 96.1113 142.543 98.6792 142.543C101.247 142.543 103.301 141.858 103.301 141.002V137.92H94.057Z" fill="#00A194" stroke="#214975" stroke-width="0.8577" stroke-miterlimit="10" stroke-linecap="round" stroke-linejoin="round"/>
<path d="M93.0868 135.352V139.119C93.0868 140.146 95.5976 141.002 98.6791 141.002C101.761 141.002 104.271 140.146 104.271 139.119V135.352H93.0868Z" fill="#1C976E" stroke="#214975" stroke-width="0.8577" stroke-miterlimit="10" stroke-linecap="round" stroke-linejoin="round"/>
<path d="M104.272 135.353C104.272 136.38 101.761 137.236 98.6792 137.236C95.5977 137.236 93.0869 136.38 93.0869 135.353C93.0869 134.326 95.5977 133.47 98.6792 133.47C101.761 133.47 104.272 134.326 104.272 135.353Z" fill="#1C976E" stroke="#214975" stroke-width="0.8577" stroke-miterlimit="10" stroke-linecap="round" stroke-linejoin="round"/>
<path d="M104.271 139.119V135.352C104.271 134.325 101.761 133.469 98.6791 133.469C98.2226 133.469 97.7661 133.469 97.3667 133.526C99.8204 133.755 101.647 134.496 101.647 135.352V139.119C101.647 139.518 101.304 139.861 100.676 140.203V140.602C101.304 140.888 101.647 141.287 101.647 141.687V145.453C101.647 145.852 101.304 146.195 100.676 146.537V146.765C101.304 147.051 101.647 147.45 101.647 147.85V151.616C101.647 152.529 99.8204 153.271 97.3667 153.442C97.7661 153.499 98.2226 153.499 98.6791 153.499C101.761 153.499 104.271 152.643 104.271 151.616V147.85C104.271 147.45 103.929 147.108 103.301 146.765V146.537C103.929 146.252 104.271 145.852 104.271 145.453V141.687C104.271 141.287 103.929 140.945 103.301 140.602V140.203C103.929 139.861 104.271 139.518 104.271 139.119Z" fill="#DADADA"/>
<path d="M102.274 135.352C102.274 135.923 100.676 136.38 98.6791 136.38C96.6819 136.38 95.0841 135.923 95.0841 135.352C95.0841 134.782 96.6819 134.325 98.6791 134.325C100.676 134.325 102.274 134.782 102.274 135.352Z" fill="#00A194" stroke="#214975" stroke-width="0.8577" stroke-miterlimit="10" stroke-linecap="round" stroke-linejoin="round"/>
<path d="M80.7039 147.736V151.502C80.7039 152.529 83.2148 153.385 86.2963 153.385C89.3777 153.385 91.8886 152.529 91.8886 151.502V147.736H80.7039Z" fill="#1C976E" stroke="#214975" stroke-width="0.8577" stroke-miterlimit="10" stroke-linecap="round" stroke-linejoin="round"/>
<path d="M91.8886 147.735C91.8886 148.762 89.3777 149.618 86.2963 149.618C83.2148 149.618 80.7039 148.762 80.7039 147.735C80.7039 146.708 83.2148 145.852 86.2963 145.852C89.3777 145.852 91.8886 146.651 91.8886 147.735Z" fill="#1C976E" stroke="#214975" stroke-width="0.8577" stroke-miterlimit="10" stroke-linecap="round" stroke-linejoin="round"/>
<path d="M81.6741 143.969V147.051C81.6741 147.907 83.7285 148.591 86.2964 148.591C88.8642 148.591 90.9186 147.907 90.9186 147.051V143.969H81.6741Z" fill="#00A194" stroke="#214975" stroke-width="0.8577" stroke-miterlimit="10" stroke-linecap="round" stroke-linejoin="round"/>
<path d="M80.7039 141.63V145.396C80.7039 146.423 83.2148 147.279 86.2963 147.279C89.3777 147.279 91.8886 146.423 91.8886 145.396V141.63H80.7039Z" fill="#1C976E" stroke="#214975" stroke-width="0.8577" stroke-miterlimit="10" stroke-linecap="round" stroke-linejoin="round"/>
<path d="M91.8886 141.63C91.8886 142.657 89.3777 143.513 86.2963 143.513C83.2148 143.513 80.7039 142.657 80.7039 141.63C80.7039 140.602 83.2148 139.747 86.2963 139.747C89.3777 139.747 91.8886 140.602 91.8886 141.63Z" fill="#1C976E" stroke="#214975" stroke-width="0.8577" stroke-miterlimit="10" stroke-linecap="round" stroke-linejoin="round"/>
<path d="M81.6741 137.92V141.002C81.6741 141.858 83.7285 142.543 86.2964 142.543C88.8642 142.543 90.9186 141.858 90.9186 141.002V137.92H81.6741Z" fill="#00A194" stroke="#214975" stroke-width="0.8577" stroke-miterlimit="10" stroke-linecap="round" stroke-linejoin="round"/>
<path d="M80.7039 135.352V139.119C80.7039 140.146 83.2148 141.002 86.2963 141.002C89.3777 141.002 91.8886 140.146 91.8886 139.119V135.352H80.7039Z" fill="#1C976E" stroke="#214975" stroke-width="0.8577" stroke-miterlimit="10" stroke-linecap="round" stroke-linejoin="round"/>
<path d="M86.2964 137.236C89.385 137.236 91.8888 136.393 91.8888 135.353C91.8888 134.313 89.385 133.47 86.2964 133.47C83.2079 133.47 80.7041 134.313 80.7041 135.353C80.7041 136.393 83.2079 137.236 86.2964 137.236Z" fill="#1C976E" stroke="#214975" stroke-width="0.8577" stroke-miterlimit="10" stroke-linecap="round" stroke-linejoin="round"/>
<path d="M91.8886 139.119V135.353C91.8886 134.325 89.3778 133.469 86.2963 133.469C85.8398 133.469 85.3833 133.469 84.9838 133.526C87.4376 133.755 89.2637 134.497 89.2637 135.353V139.119C89.2637 139.518 88.9213 139.861 88.2936 140.203V140.602C88.9213 140.888 89.2637 141.287 89.2637 141.687V145.453C89.2637 145.852 88.9213 146.195 88.2936 146.537V146.765C88.9213 147.051 89.2637 147.45 89.2637 147.85V151.616C89.2637 152.529 87.4376 153.271 84.9838 153.442C85.3833 153.499 85.8398 153.499 86.2963 153.499C89.3778 153.499 91.8886 152.643 91.8886 151.616V147.85C91.8886 147.45 91.5462 147.108 90.9185 146.765V146.537C91.5462 146.252 91.8886 145.852 91.8886 145.453V141.687C91.8886 141.287 91.5462 140.945 90.9185 140.602V140.203C91.4892 139.861 91.8886 139.518 91.8886 139.119Z" fill="#DADADA"/>
<path d="M89.8913 135.353C89.8913 135.923 88.2935 136.38 86.2963 136.38C84.299 136.38 82.7012 135.923 82.7012 135.353C82.7012 134.782 84.299 134.325 86.2963 134.325C88.2365 134.325 89.8913 134.782 89.8913 135.353Z" fill="#00A194" stroke="#214975" stroke-width="0.8577" stroke-miterlimit="10" stroke-linecap="round" stroke-linejoin="round"/>
<path d="M164.247 127.021C164.247 127.135 164.132 127.249 164.018 127.249H158.483C158.369 127.249 158.255 127.135 158.255 127.021V117.491C158.255 117.377 158.369 117.263 158.483 117.263H164.018C164.132 117.263 164.247 117.377 164.247 117.491V127.021Z" fill="#B7B8CF" stroke="#214975" stroke-width="0.8577" stroke-miterlimit="10" stroke-linecap="round" stroke-linejoin="round"/>
<path d="M165.73 140.203C165.73 140.488 165.502 140.66 165.273 140.66H157.399C157.113 140.66 156.942 140.431 156.942 140.203V123.198C156.942 122.912 157.17 122.741 157.399 122.741H165.273C165.559 122.741 165.73 122.97 165.73 123.198V140.203Z" fill="#1C976E" stroke="#214975" stroke-width="0.8577" stroke-miterlimit="10" stroke-linecap="round" stroke-linejoin="round"/>
<path d="M163.847 123.426V132.556C163.847 132.728 163.733 132.842 163.562 132.842H158.997C158.825 132.842 158.711 132.728 158.711 132.556V123.426" stroke="#214975" stroke-width="0.8577" stroke-miterlimit="10" stroke-linecap="round" stroke-linejoin="round"/>
<path d="M164.189 134.097H158.426V135.98H164.189V134.097Z" stroke="#214975" stroke-width="0.8577" stroke-miterlimit="10" stroke-linecap="round" stroke-linejoin="round"/>
<path d="M163.105 137.179H159.453V138.035H163.105V137.179Z" fill="#272223"/>
<path d="M163.561 118.119H162.135V118.576H163.561V118.119Z" fill="#272223"/>
<path d="M160.48 118.119H159.053V118.576H160.48V118.119Z" fill="#272223"/>
<path d="M162.192 123.883H160.366V124.339H162.192V123.883Z" fill="#272223"/>
<path d="M161.279 117.948V121.6" stroke="#214975" stroke-width="0.8577" stroke-miterlimit="10" stroke-linecap="round" stroke-linejoin="round"/>
<path d="M165.73 140.203C165.73 140.488 165.502 140.66 165.273 140.66H157.399C157.113 140.66 156.942 140.431 156.942 140.203L163.904 132.842L165.273 122.741C165.559 122.741 165.73 122.97 165.73 123.198V140.203Z" fill="#DADADA"/>
<path d="M130.293 190.534C127.497 188.137 123.845 186.71 119.907 186.71C115.913 186.71 112.318 188.137 109.522 190.534" stroke="#214975" stroke-width="1.7154" stroke-miterlimit="10" stroke-linecap="round" stroke-linejoin="round"/>
<path d="M127.896 194.699C125.956 192.531 123.103 191.161 119.907 191.161C116.712 191.161 113.916 192.531 111.918 194.699" stroke="#214975" stroke-width="1.7154" stroke-miterlimit="10" stroke-linecap="round" stroke-linejoin="round"/>
<path d="M125.842 198.294C124.644 196.297 122.418 194.985 119.964 194.985C117.454 194.985 115.285 196.297 114.087 198.294" stroke="#214975" stroke-width="1.7154" stroke-miterlimit="10" stroke-linecap="round" stroke-linejoin="round"/>
<path d="M122.989 201.89C122.989 203.544 121.619 204.914 119.964 204.914C118.31 204.914 116.94 203.544 116.94 201.89C116.94 200.235 118.31 198.865 119.964 198.865C121.619 198.865 122.989 200.235 122.989 201.89Z" fill="#272223"/>
<path d="M170.466 72.9807C170.466 73.266 170.238 73.5514 169.896 73.5514C169.61 73.5514 169.325 73.3231 169.325 72.9807V60.1412C169.325 59.8559 169.553 59.5706 169.896 59.5706C170.181 59.5706 170.466 59.7988 170.466 60.1412V72.9807Z" fill="#272223"/>
<path d="M146.328 72.9813C146.328 73.2667 146.1 73.552 145.758 73.552C145.472 73.552 145.187 73.3237 145.187 72.9813V60.1418C145.187 59.8565 145.415 59.5712 145.758 59.5712C146.043 59.5712 146.328 59.7995 146.328 60.1418V72.9813Z" fill="#272223"/>
<path d="M149.98 71.9544H144.388V75.0929H149.98V71.9544Z" fill="#1C976E" stroke="#214975" stroke-width="0.8577" stroke-miterlimit="10" stroke-linecap="round" stroke-linejoin="round"/>
<path d="M171.322 71.9538H165.73V75.0923H171.322V71.9538Z" fill="#1C976E" stroke="#214975" stroke-width="0.8577" stroke-miterlimit="10" stroke-linecap="round" stroke-linejoin="round"/>
<path d="M172.692 73.2092C172.692 73.7799 172.236 74.2934 171.608 74.2934H144.103C143.532 74.2934 143.019 73.8369 143.019 73.2092V69.5571C143.019 68.9865 143.475 68.4729 144.103 68.4729H171.608C172.179 68.4729 172.692 68.9294 172.692 69.5571V73.2092Z" fill="#1C976E" stroke="#214975" stroke-width="0.8577" stroke-miterlimit="10" stroke-linecap="round" stroke-linejoin="round"/>
<path d="M143.018 72.8097V73.2091C143.018 73.7798 143.475 74.2933 144.102 74.2933H171.608C172.178 74.2933 172.692 73.8368 172.692 73.2091V72.8097H143.018Z" fill="#DADADA"/>
<path d="M154.089 70.5271H146.328V71.7254H154.089V70.5271Z" fill="#00A194" stroke="#214975" stroke-width="0.8577" stroke-miterlimit="10" stroke-linecap="round" stroke-linejoin="round"/>
<path d="M158.825 70.5271H155.173V71.7254H158.825V70.5271Z" fill="#00A194" stroke="#214975" stroke-width="0.8577" stroke-miterlimit="10" stroke-linecap="round" stroke-linejoin="round"/>
<path d="M162.249 72.8097H170.409" stroke="#214975" stroke-width="0.8577" stroke-miterlimit="10" stroke-linecap="round" stroke-linejoin="round"/>
<path d="M165.502 71.7256H170.409" stroke="#214975" stroke-width="0.8577" stroke-miterlimit="10" stroke-linecap="round" stroke-linejoin="round"/>
<path d="M175.203 54.2638C173.776 53.0654 171.95 52.3236 169.953 52.3236C167.956 52.3236 166.073 53.0654 164.703 54.2638" stroke="#214975" stroke-width="0.8577" stroke-miterlimit="10" stroke-linecap="round" stroke-linejoin="round"/>
<path d="M173.947 56.3749C172.92 55.2906 171.494 54.5488 169.896 54.5488C168.298 54.5488 166.814 55.2336 165.844 56.3749" stroke="#214975" stroke-width="0.8577" stroke-miterlimit="10" stroke-linecap="round" stroke-linejoin="round"/>
<path d="M172.92 58.2582C172.293 57.231 171.208 56.6033 169.953 56.6033C168.697 56.6033 167.556 57.2881 166.986 58.2582" stroke="#214975" stroke-width="0.8577" stroke-miterlimit="10" stroke-linecap="round" stroke-linejoin="round"/>
<path d="M71.9161 140.089H49.8893V155.325H71.9161V140.089Z" fill="#1C976E" stroke="#214975" stroke-width="0.8577" stroke-miterlimit="10" stroke-linecap="round" stroke-linejoin="round"/>
<path d="M49.8893 155.382H71.9161L52.6284 153.784L49.8893 140.089V155.382Z" fill="#DADADA"/>
<path d="M69.1776 144.654H52.6289" stroke="#214975" stroke-width="0.8577" stroke-miterlimit="10"/>
<path d="M69.1773 147.736H52.6286" stroke="#214975" stroke-width="0.8577" stroke-miterlimit="10"/>
<path d="M69.1773 150.817H52.6286" stroke="#214975" stroke-width="0.8577" stroke-miterlimit="10"/>
<path d="M56.6229 154.127L67.0657 161.317L64.0413 154.127" fill="#1C976E"/>
<path d="M56.6229 154.127L67.0657 161.317L64.0413 154.127" stroke="#214975" stroke-width="0.8577" stroke-miterlimit="10" stroke-linecap="round" stroke-linejoin="round"/>
<path d="M60.2181 131.358H38.1913V146.594H60.2181V131.358Z" fill="#1C976E" stroke="#214975" stroke-width="0.8577" stroke-miterlimit="10" stroke-linecap="round" stroke-linejoin="round"/>
<path d="M60.2181 146.594H38.1913L57.479 144.996L60.2181 131.358V146.594Z" fill="#DADADA"/>
<path d="M40.9306 135.866H57.4793" stroke="#214975" stroke-width="0.8577" stroke-miterlimit="10"/>
<path d="M40.9305 138.948H57.4792" stroke="#214975" stroke-width="0.8577" stroke-miterlimit="10"/>
<path d="M40.9305 142.086H57.4792" stroke="#214975" stroke-width="0.8577" stroke-miterlimit="10"/>
<path d="M53.5414 145.339L43.0415 152.529L46.0659 145.339" fill="#1C976E"/>
<path d="M53.5414 145.339L43.0415 152.529L46.0659 145.339" stroke="#214975" stroke-width="0.8577" stroke-miterlimit="10" stroke-linecap="round" stroke-linejoin="round"/>
<path d="M123.331 58.3156H114.658V63.6796H123.331V58.3156Z" fill="#B7B8CF" stroke="#214975" stroke-width="0.8577" stroke-miterlimit="10" stroke-linecap="round" stroke-linejoin="round"/>
<path d="M138.339 36.0602H99.6497V59.6849H138.339V36.0602Z" fill="#B7B8CF" stroke="#214975" stroke-width="0.8577" stroke-miterlimit="10" stroke-linecap="round" stroke-linejoin="round"/>
<path d="M138.339 51.582H99.6496V59.6851H138.339V51.582Z" fill="#1C976E" stroke="#214975" stroke-width="0.8577" stroke-miterlimit="10" stroke-linecap="round" stroke-linejoin="round"/>
<path d="M136.627 37.5442H101.305V57.0602H136.627V37.5442Z" fill="white" stroke="#214975" stroke-width="0.8577" stroke-miterlimit="10" stroke-linecap="round" stroke-linejoin="round"/>
<path d="M118.538 58.3156C118.538 58.0874 118.766 57.8591 118.994 57.8591C119.223 57.8591 119.451 58.0874 119.451 58.3156C119.451 58.5439 119.223 58.7722 118.994 58.7722C118.709 58.7722 118.538 58.5439 118.538 58.3156Z" fill="#272223"/>
<path d="M138.339 59.6849H99.6497L138.339 36.0602V59.6849Z" fill="#DADADA"/>
<path d="M127.041 62.4813H110.948V64.4785H127.041V62.4813Z" fill="#B7B8CF" stroke="#214975" stroke-width="0.8577" stroke-miterlimit="10" stroke-linecap="round" stroke-linejoin="round"/>
<path d="M200.768 120.801H189.526V145.852H200.768V120.801Z" fill="#1C976E" stroke="#214975" stroke-width="0.8577" stroke-miterlimit="10" stroke-linecap="round" stroke-linejoin="round"/>
<path d="M195.118 138.948C196.203 138.948 197.116 139.861 197.116 140.945C197.116 142.029 196.203 142.942 195.118 142.942C194.034 142.942 193.121 142.029 193.121 140.945C193.121 139.861 194.034 138.948 195.118 138.948Z" fill="#00A194" stroke="#214975" stroke-width="0.8577" stroke-miterlimit="10" stroke-linecap="round" stroke-linejoin="round"/>
<path d="M195.118 140.032C195.632 140.032 196.031 140.431 196.031 140.945C196.031 141.459 195.632 141.858 195.118 141.858C194.605 141.858 194.205 141.459 194.205 140.945C194.205 140.488 194.605 140.032 195.118 140.032Z" fill="white" stroke="#214975" stroke-width="0.8577" stroke-miterlimit="10" stroke-linecap="round" stroke-linejoin="round"/>
<path d="M199.455 122.171H190.781V123.883H199.455V122.171Z" fill="#00586B" stroke="#214975" stroke-width="0.8577" stroke-miterlimit="10" stroke-linecap="round" stroke-linejoin="round"/>
<path d="M199.455 125.138H190.781V126.85H199.455V125.138Z" fill="#00586B" stroke="#214975" stroke-width="0.8577" stroke-miterlimit="10" stroke-linecap="round" stroke-linejoin="round"/>
<path d="M199.455 128.105H190.781V129.817H199.455V128.105Z" fill="#00586B" stroke="#214975" stroke-width="0.8577" stroke-miterlimit="10" stroke-linecap="round" stroke-linejoin="round"/>
<path d="M195.632 132.785C195.917 132.785 199.512 132.785 199.512 132.785" stroke="#214975" stroke-width="0.8577" stroke-miterlimit="10" stroke-linecap="round" stroke-linejoin="round"/>
<path d="M195.632 133.926C195.917 133.926 199.512 133.926 199.512 133.926" stroke="#214975" stroke-width="0.8577" stroke-miterlimit="10" stroke-linecap="round" stroke-linejoin="round"/>
<path d="M195.632 135.067C195.917 135.067 199.512 135.067 199.512 135.067" stroke="#214975" stroke-width="0.8577" stroke-miterlimit="10" stroke-linecap="round" stroke-linejoin="round"/>
<path d="M190.781 136.208C191.067 136.208 199.455 136.208 199.455 136.208" stroke="#214975" stroke-width="0.8577" stroke-miterlimit="10" stroke-linecap="round" stroke-linejoin="round"/>
<path d="M200.768 120.801V145.909H189.526L198.485 142.6L200.768 120.801Z" fill="#DADADA"/>
<path d="M198.713 119.317H191.58L189.983 120.801H200.311L198.713 119.317Z" fill="#00586B" stroke="#214975" stroke-width="0.8577" stroke-miterlimit="10" stroke-linecap="round" stroke-linejoin="round"/>
<path d="M63.1283 101.456H37.6776V122.855H63.1283V101.456Z" fill="white" stroke="#214975" stroke-width="0.8577" stroke-miterlimit="10" stroke-linecap="round" stroke-linejoin="round"/>
<path d="M37.6776 122.855L58.2778 117.548L63.1283 101.456V122.855H37.6776Z" fill="#DADADA"/>
<path d="M41.1017 108.475C41.6153 108.475 41.9577 108.875 41.9577 109.331C41.9577 109.845 41.5582 110.187 41.1017 110.187C40.5881 110.187 40.2457 109.788 40.2457 109.331C40.2457 108.875 40.6452 108.475 41.1017 108.475ZM41.1017 110.016C41.4441 110.016 41.7865 109.731 41.7865 109.331C41.7865 108.989 41.5011 108.646 41.1017 108.646C40.7593 108.646 40.4169 108.932 40.4169 109.331C40.474 109.731 40.7593 110.016 41.1017 110.016Z" fill="black"/>
<path d="M42.2428 108.76C42.414 108.76 42.414 108.646 42.4711 108.532H42.6993V110.301H42.4711V108.989H42.2428V108.76Z" fill="black"/>
<path d="M43.7835 108.475C44.2971 108.475 44.6395 108.875 44.6395 109.331C44.6395 109.845 44.24 110.187 43.7835 110.187C43.2699 110.187 42.9276 109.788 42.9276 109.331C42.8705 108.875 43.2699 108.475 43.7835 108.475ZM43.7835 110.016C44.1259 110.016 44.4683 109.731 44.4683 109.331C44.4683 108.989 44.183 108.646 43.7835 108.646C43.4411 108.646 43.0987 108.932 43.0987 109.331C43.0987 109.731 43.3841 110.016 43.7835 110.016Z" fill="black"/>
<path d="M44.868 108.76C45.0392 108.76 45.0392 108.646 45.0963 108.532H45.3245V110.301H45.0963V108.989H44.868V108.76Z" fill="black"/>
<path d="M45.5525 108.76C45.7237 108.76 45.7237 108.646 45.7808 108.532H46.009V110.301H45.7808V108.989H45.5525V108.76Z" fill="black"/>
<path d="M46.1801 108.76C46.3513 108.76 46.3513 108.646 46.4084 108.532H46.6366V110.301H46.4084V108.989H46.1801V108.76Z" fill="black"/>
<path d="M47.7209 108.475C48.2345 108.475 48.5769 108.875 48.5769 109.331C48.5769 109.845 48.1774 110.187 47.7209 110.187C47.2073 110.187 46.865 109.788 46.865 109.331C46.865 108.875 47.2644 108.475 47.7209 108.475ZM47.7209 110.016C48.0633 110.016 48.4057 109.731 48.4057 109.331C48.4057 108.989 48.1204 108.646 47.7209 108.646C47.3785 108.646 47.0362 108.932 47.0362 109.331C47.0932 109.731 47.3785 110.016 47.7209 110.016Z" fill="black"/>
<path d="M49.7182 108.475C50.2318 108.475 50.5741 108.875 50.5741 109.331C50.5741 109.845 50.1747 110.187 49.7182 110.187C49.2046 110.187 48.8622 109.788 48.8622 109.331C48.8622 108.875 49.2617 108.475 49.7182 108.475ZM49.7182 110.016C50.0606 110.016 50.403 109.731 50.403 109.331C50.403 108.989 50.1176 108.646 49.7182 108.646C49.3758 108.646 49.0334 108.932 49.0334 109.331C49.0905 109.731 49.3758 110.016 49.7182 110.016Z" fill="black"/>
<path d="M51.7157 108.475C52.2292 108.475 52.5716 108.875 52.5716 109.331C52.5716 109.845 52.1722 110.187 51.7157 110.187C51.2591 110.187 50.8597 109.788 50.8597 109.331C50.8026 108.875 51.2021 108.475 51.7157 108.475ZM51.7157 110.016C52.058 110.016 52.4004 109.731 52.4004 109.331C52.4004 108.989 52.1151 108.646 51.7157 108.646C51.3733 108.646 51.0309 108.932 51.0309 109.331C51.0309 109.731 51.3733 110.016 51.7157 110.016Z" fill="black"/>
<path d="M52.7998 108.76C52.971 108.76 52.971 108.646 53.0281 108.532H53.2564V110.301H53.0281V108.989H52.7998V108.76Z" fill="black"/>
<path d="M53.4843 108.76C53.6555 108.76 53.6555 108.646 53.7126 108.532H53.9409V110.301H53.7126V108.989H53.4843V108.76Z" fill="black"/>
<path d="M55.0253 108.475C55.5389 108.475 55.8813 108.875 55.8813 109.331C55.8813 109.845 55.4819 110.187 55.0253 110.187C54.5118 110.187 54.1694 109.788 54.1694 109.331C54.1123 108.875 54.5118 108.475 55.0253 108.475ZM55.0253 110.016C55.3677 110.016 55.7101 109.731 55.7101 109.331C55.7101 108.989 55.4248 108.646 55.0253 108.646C54.683 108.646 54.3406 108.932 54.3406 109.331C54.3406 109.731 54.6259 110.016 55.0253 110.016Z" fill="black"/>
<path d="M57.0226 108.475C57.5362 108.475 57.8786 108.875 57.8786 109.331C57.8786 109.845 57.4791 110.187 57.0226 110.187C56.509 110.187 56.1667 109.788 56.1667 109.331C56.1096 108.875 56.509 108.475 57.0226 108.475ZM57.0226 110.016C57.365 110.016 57.7074 109.731 57.7074 109.331C57.7074 108.989 57.4221 108.646 57.0226 108.646C56.6802 108.646 56.3379 108.932 56.3379 109.331C56.3379 109.731 56.6232 110.016 57.0226 110.016Z" fill="black"/>
<path d="M58.1068 108.76C58.278 108.76 58.278 108.646 58.335 108.532H58.5633V110.301H58.335V108.989H58.1068V108.76Z" fill="black"/>
<path d="M59.6476 108.475C60.1612 108.475 60.5036 108.875 60.5036 109.331C60.5036 109.845 60.1041 110.187 59.6476 110.187C59.134 110.187 58.7916 109.788 58.7916 109.331C58.7916 108.875 59.1911 108.475 59.6476 108.475ZM59.6476 110.016C59.99 110.016 60.3324 109.731 60.3324 109.331C60.3324 108.989 60.047 108.646 59.6476 108.646C59.3052 108.646 58.9628 108.932 58.9628 109.331C58.9628 109.731 59.3052 110.016 59.6476 110.016Z" fill="black"/>
<path d="M40.2456 111.842C40.4168 111.842 40.4168 111.728 40.4738 111.614H40.7021V113.383H40.4738V112.07H40.2456V111.842Z" fill="black"/>
<path d="M41.7865 111.613C42.3001 111.613 42.6424 112.013 42.6424 112.469C42.6424 112.983 42.243 113.325 41.7865 113.325C41.2729 113.325 40.9305 112.926 40.9305 112.469C40.9305 112.013 41.33 111.613 41.7865 111.613ZM41.7865 113.154C42.1289 113.154 42.4713 112.869 42.4713 112.469C42.4713 112.127 42.1859 111.785 41.7865 111.785C41.4441 111.785 41.1017 112.07 41.1017 112.469C41.1017 112.869 41.4441 113.154 41.7865 113.154Z" fill="black"/>
<path d="M42.8708 111.842C43.042 111.842 43.042 111.727 43.0991 111.613H43.3273V113.382H43.0991V112.07H42.8708V111.842Z" fill="black"/>
<path d="M43.5554 111.842C43.7266 111.842 43.7266 111.727 43.7836 111.613H44.0119V113.382H43.7836V112.07H43.5554V111.842Z" fill="black"/>
<path d="M44.2402 111.842C44.4114 111.842 44.4114 111.727 44.4685 111.613H44.6967V113.382H44.4685V112.07H44.2402V111.842Z" fill="black"/>
<path d="M45.7809 111.613C46.2944 111.613 46.6368 112.013 46.6368 112.469C46.6368 112.983 46.2374 113.325 45.7809 113.325C45.2673 113.325 44.9249 112.926 44.9249 112.469C44.8678 112.013 45.2673 111.613 45.7809 111.613ZM45.7809 113.154C46.1233 113.154 46.4656 112.869 46.4656 112.469C46.4656 112.127 46.1803 111.785 45.7809 111.785C45.4385 111.785 45.0961 112.07 45.0961 112.469C45.0961 112.869 45.3814 113.154 45.7809 113.154Z" fill="black"/>
<path d="M46.8651 111.842C47.0362 111.842 47.0362 111.727 47.0933 111.613H47.3216V113.382H47.0933V112.07H46.8651V111.842Z" fill="black"/>
<path d="M47.5499 111.842C47.7211 111.842 47.7211 111.727 47.7782 111.613H48.0064V113.382H47.7782V112.07H47.5499V111.842Z" fill="black"/>
<path d="M49.0906 111.613C49.6041 111.613 49.9465 112.013 49.9465 112.469C49.9465 112.983 49.5471 113.325 49.0906 113.325C48.634 113.325 48.2346 112.926 48.2346 112.469C48.1775 112.013 48.577 111.613 49.0906 111.613ZM49.0906 113.154C49.4329 113.154 49.7753 112.869 49.7753 112.469C49.7753 112.127 49.49 111.785 49.0906 111.785C48.7482 111.785 48.4058 112.07 48.4058 112.469C48.4058 112.869 48.6911 113.154 49.0906 113.154Z" fill="black"/>
<path d="M50.1747 111.842C50.3459 111.842 50.3459 111.727 50.403 111.613H50.6313V113.382H50.403V112.07H50.1747V111.842Z" fill="black"/>
<path d="M50.8026 111.842C50.9738 111.842 50.9738 111.727 51.0309 111.613H51.2592V113.382H51.0309V112.07H50.8026V111.842Z" fill="black"/>
<path d="M51.4875 111.842C51.6587 111.842 51.6587 111.727 51.7157 111.613H51.944V113.382H51.7157V112.07H51.4875V111.842Z" fill="black"/>
<path d="M52.172 111.842C52.3432 111.842 52.3432 111.727 52.4003 111.613H52.6285V113.382H52.4003V112.07H52.172V111.842Z" fill="black"/>
<path d="M53.713 111.613C54.2266 111.613 54.569 112.013 54.569 112.469C54.569 112.983 54.1695 113.325 53.713 113.325C53.2565 113.325 52.8571 112.926 52.8571 112.469C52.8 112.013 53.1994 111.613 53.713 111.613ZM53.713 113.154C54.0554 113.154 54.3978 112.869 54.3978 112.469C54.3978 112.127 54.1125 111.785 53.713 111.785C53.3706 111.785 53.0283 112.07 53.0283 112.469C53.0283 112.869 53.3136 113.154 53.713 113.154Z" fill="black"/>
<path d="M54.7972 111.842C54.9684 111.842 54.9684 111.727 55.0254 111.613H55.2537V113.382H55.0254V112.07H54.7972V111.842Z" fill="black"/>
<path d="M55.4817 111.842C55.6529 111.842 55.6529 111.727 55.71 111.613H55.9382V113.382H55.71V112.07H55.4817V111.842Z" fill="black"/>
<path d="M57.0227 111.613C57.5363 111.613 57.8787 112.013 57.8787 112.469C57.8787 112.983 57.4792 113.325 57.0227 113.325C56.5091 113.325 56.1668 112.926 56.1668 112.469C56.1097 112.013 56.5091 111.613 57.0227 111.613ZM57.0227 113.154C57.3651 113.154 57.7075 112.869 57.7075 112.469C57.7075 112.127 57.4222 111.785 57.0227 111.785C56.6803 111.785 56.3379 112.07 56.3379 112.469C56.3379 112.869 56.6233 113.154 57.0227 113.154Z" fill="black"/>
<path d="M58.9628 111.613C59.4764 111.613 59.8188 112.013 59.8188 112.469C59.8188 112.983 59.4194 113.325 58.9628 113.325C58.4493 113.325 58.1069 112.926 58.1069 112.469C58.1069 112.013 58.5063 111.613 58.9628 111.613ZM58.9628 113.154C59.3052 113.154 59.6476 112.869 59.6476 112.469C59.6476 112.127 59.3623 111.785 58.9628 111.785C58.6205 111.785 58.2781 112.07 58.2781 112.469C58.3351 112.869 58.6205 113.154 58.9628 113.154Z" fill="black"/>
<path d="M60.1042 111.842C60.2753 111.842 60.2754 111.727 60.3324 111.613H60.5607V113.382H60.3324V112.07H60.1042V111.842Z" fill="black"/>
<path d="M41.1015 114.695C41.6151 114.695 41.9575 115.095 41.9575 115.551C41.9575 116.065 41.5581 116.407 41.1015 116.407C40.588 116.407 40.2456 116.008 40.2456 115.551C40.2456 115.095 40.645 114.695 41.1015 114.695ZM41.1015 116.236C41.4439 116.236 41.7863 115.951 41.7863 115.551C41.7863 115.209 41.501 114.867 41.1015 114.867C40.7592 114.867 40.4168 115.152 40.4168 115.551C40.4738 115.951 40.7592 116.236 41.1015 116.236Z" fill="black"/>
<path d="M42.2429 114.98C42.4141 114.98 42.4141 114.866 42.4712 114.752H42.6994V116.521H42.4712V115.209H42.2429V114.98Z" fill="black"/>
<path d="M43.7836 114.695C44.2972 114.695 44.6396 115.094 44.6396 115.551C44.6396 116.065 44.2401 116.407 43.7836 116.407C43.27 116.407 42.9276 116.008 42.9276 115.551C42.8706 115.094 43.27 114.695 43.7836 114.695ZM43.7836 116.236C44.126 116.236 44.4684 115.95 44.4684 115.551C44.4684 115.209 44.1831 114.866 43.7836 114.866C43.4412 114.866 43.0988 115.152 43.0988 115.551C43.0988 115.95 43.3842 116.236 43.7836 116.236Z" fill="black"/>
<path d="M44.8681 114.98C45.0393 114.98 45.0393 114.866 45.0964 114.752H45.3246V116.521H45.0964V115.209H44.8681V114.98Z" fill="black"/>
<path d="M45.5526 114.98C45.7238 114.98 45.7238 114.866 45.7809 114.752H46.0091V116.521H45.7809V115.209H45.5526V114.98Z" fill="black"/>
<path d="M46.1802 114.98C46.3514 114.98 46.3514 114.866 46.4085 114.752H46.6367V116.521H46.4085V115.209H46.1802V114.98Z" fill="black"/>
<path d="M47.721 114.695C48.2346 114.695 48.577 115.094 48.577 115.551C48.577 116.065 48.1775 116.407 47.721 116.407C47.2074 116.407 46.8651 116.008 46.8651 115.551C46.8651 115.094 47.2645 114.695 47.721 114.695ZM47.721 116.236C48.0634 116.236 48.4058 115.95 48.4058 115.551C48.4058 115.209 48.1205 114.866 47.721 114.866C47.3786 114.866 47.0362 115.152 47.0362 115.551C47.0933 115.95 47.3786 116.236 47.721 116.236Z" fill="black"/>
<path d="M49.7183 114.695C50.2319 114.695 50.5742 115.094 50.5742 115.551C50.5742 116.065 50.1748 116.407 49.7183 116.407C49.2047 116.407 48.8623 116.008 48.8623 115.551C48.8623 115.094 49.2618 114.695 49.7183 114.695ZM49.7183 116.236C50.0607 116.236 50.403 115.95 50.403 115.551C50.403 115.209 50.1177 114.866 49.7183 114.866C49.3759 114.866 49.0335 115.152 49.0335 115.551C49.0906 115.95 49.3759 116.236 49.7183 116.236Z" fill="black"/>
<path d="M51.7157 114.695C52.2293 114.695 52.5717 115.094 52.5717 115.551C52.5717 116.065 52.1723 116.407 51.7157 116.407C51.2592 116.407 50.8598 116.008 50.8598 115.551C50.8027 115.094 51.2022 114.695 51.7157 114.695ZM51.7157 116.236C52.0581 116.236 52.4005 115.95 52.4005 115.551C52.4005 115.209 52.1152 114.866 51.7157 114.866C51.3734 114.866 51.031 115.152 51.031 115.551C51.031 115.95 51.3734 116.236 51.7157 116.236Z" fill="black"/>
<path d="M52.7999 114.98C52.9711 114.98 52.9711 114.866 53.0282 114.752H53.2564V116.521H53.0282V115.209H52.7999V114.98Z" fill="black"/>
<path d="M53.4844 114.98C53.6556 114.98 53.6556 114.866 53.7127 114.752H53.941V116.521H53.7127V115.209H53.4844V114.98Z" fill="black"/>
<path d="M55.0254 114.695C55.539 114.695 55.8814 115.094 55.8814 115.551C55.8814 116.065 55.482 116.407 55.0254 116.407C54.5119 116.407 54.1695 116.008 54.1695 115.551C54.1124 115.094 54.5119 114.695 55.0254 114.695ZM55.0254 116.236C55.3678 116.236 55.7102 115.95 55.7102 115.551C55.7102 115.209 55.4249 114.866 55.0254 114.866C54.683 114.866 54.3407 115.152 54.3407 115.551C54.3407 115.95 54.626 116.236 55.0254 116.236Z" fill="black"/>
<path d="M57.0227 114.695C57.5363 114.695 57.8787 115.094 57.8787 115.551C57.8787 116.065 57.4792 116.407 57.0227 116.407C56.5091 116.407 56.1668 116.008 56.1668 115.551C56.1097 115.094 56.5091 114.695 57.0227 114.695ZM57.0227 116.236C57.3651 116.236 57.7075 115.95 57.7075 115.551C57.7075 115.209 57.4222 114.866 57.0227 114.866C56.6803 114.866 56.3379 115.152 56.3379 115.551C56.3379 115.95 56.6233 116.236 57.0227 116.236Z" fill="black"/>
<path d="M58.1069 114.98C58.2781 114.98 58.2781 114.866 58.3351 114.752H58.5634V116.521H58.3351V115.209H58.1069V114.98Z" fill="black"/>
<path d="M59.6477 114.695C60.1613 114.695 60.5037 115.094 60.5037 115.551C60.5037 116.065 60.1042 116.407 59.6477 116.407C59.1341 116.407 58.7917 116.008 58.7917 115.551C58.7917 115.094 59.1912 114.695 59.6477 114.695ZM59.6477 116.236C59.9901 116.236 60.3325 115.95 60.3325 115.551C60.3325 115.209 60.0471 114.866 59.6477 114.866C59.3053 114.866 58.9629 115.152 58.9629 115.551C58.9629 115.95 59.3053 116.236 59.6477 116.236Z" fill="black"/>
<path d="M40.2456 118.062C40.4168 118.062 40.4168 117.948 40.4738 117.834H40.7021V119.603H40.4738V118.29H40.2456V118.062Z" fill="black"/>
<path d="M41.7865 117.833C42.3001 117.833 42.6424 118.233 42.6424 118.689C42.6424 119.203 42.243 119.545 41.7865 119.545C41.2729 119.545 40.9305 119.146 40.9305 118.689C40.9305 118.233 41.33 117.833 41.7865 117.833ZM41.7865 119.374C42.1289 119.374 42.4713 119.089 42.4713 118.689C42.4713 118.347 42.1859 118.005 41.7865 118.005C41.4441 118.005 41.1017 118.29 41.1017 118.689C41.1017 119.089 41.4441 119.374 41.7865 119.374Z" fill="black"/>
<path d="M42.8708 118.062C43.042 118.062 43.042 117.948 43.0991 117.833H43.3273V119.602H43.0991V118.29H42.8708V118.062Z" fill="black"/>
<path d="M43.5554 118.062C43.7266 118.062 43.7266 117.948 43.7836 117.833H44.0119V119.602H43.7836V118.29H43.5554V118.062Z" fill="black"/>
<path d="M44.2402 118.062C44.4114 118.062 44.4114 117.948 44.4685 117.833H44.6967V119.602H44.4685V118.29H44.2402V118.062Z" fill="black"/>
<path d="M45.7809 117.833C46.2944 117.833 46.6368 118.233 46.6368 118.689C46.6368 119.203 46.2374 119.545 45.7809 119.545C45.2673 119.545 44.9249 119.146 44.9249 118.689C44.8678 118.233 45.2673 117.833 45.7809 117.833ZM45.7809 119.374C46.1233 119.374 46.4656 119.089 46.4656 118.689C46.4656 118.347 46.1803 118.005 45.7809 118.005C45.4385 118.005 45.0961 118.29 45.0961 118.689C45.0961 119.089 45.3814 119.374 45.7809 119.374Z" fill="black"/>
<path d="M46.8651 118.062C47.0362 118.062 47.0362 117.948 47.0933 117.833H47.3216V119.602H47.0933V118.29H46.8651V118.062Z" fill="black"/>
<path d="M47.5499 118.062C47.7211 118.062 47.7211 117.948 47.7782 117.833H48.0064V119.602H47.7782V118.29H47.5499V118.062Z" fill="black"/>
<path d="M49.0906 117.833C49.6041 117.833 49.9465 118.233 49.9465 118.689C49.9465 119.203 49.5471 119.545 49.0906 119.545C48.634 119.545 48.2346 119.146 48.2346 118.689C48.1775 118.233 48.577 117.833 49.0906 117.833ZM49.0906 119.374C49.4329 119.374 49.7753 119.089 49.7753 118.689C49.7753 118.347 49.49 118.005 49.0906 118.005C48.7482 118.005 48.4058 118.29 48.4058 118.689C48.4058 119.089 48.6911 119.374 49.0906 119.374Z" fill="black"/>
<path d="M50.1747 118.062C50.3459 118.062 50.3459 117.948 50.403 117.833H50.6313V119.602H50.403V118.29H50.1747V118.062Z" fill="black"/>
<path d="M50.8026 118.062C50.9738 118.062 50.9738 117.948 51.0309 117.833H51.2592V119.602H51.0309V118.29H50.8026V118.062Z" fill="black"/>
<path d="M51.4875 118.062C51.6587 118.062 51.6587 117.948 51.7157 117.833H51.944V119.602H51.7157V118.29H51.4875V118.062Z" fill="black"/>
<path d="M52.172 118.062C52.3432 118.062 52.3432 117.948 52.4003 117.833H52.6285V119.602H52.4003V118.29H52.172V118.062Z" fill="black"/>
<path d="M53.713 117.833C54.2266 117.833 54.569 118.233 54.569 118.689C54.569 119.203 54.1695 119.545 53.713 119.545C53.2565 119.545 52.8571 119.146 52.8571 118.689C52.8 118.233 53.1994 117.833 53.713 117.833ZM53.713 119.374C54.0554 119.374 54.3978 119.089 54.3978 118.689C54.3978 118.347 54.1125 118.005 53.713 118.005C53.3706 118.005 53.0283 118.29 53.0283 118.689C53.0283 119.089 53.3136 119.374 53.713 119.374Z" fill="black"/>
<path d="M54.7972 118.062C54.9684 118.062 54.9684 117.948 55.0254 117.833H55.2537V119.602H55.0254V118.29H54.7972V118.062Z" fill="black"/>
<path d="M55.4817 118.062C55.6529 118.062 55.6529 117.948 55.71 117.833H55.9382V119.602H55.71V118.29H55.4817V118.062Z" fill="black"/>
<path d="M57.0227 117.833C57.5363 117.833 57.8787 118.233 57.8787 118.689C57.8787 119.203 57.4792 119.545 57.0227 119.545C56.5091 119.545 56.1668 119.146 56.1668 118.689C56.1097 118.233 56.5091 117.833 57.0227 117.833ZM57.0227 119.374C57.3651 119.374 57.7075 119.089 57.7075 118.689C57.7075 118.347 57.4222 118.005 57.0227 118.005C56.6803 118.005 56.3379 118.29 56.3379 118.689C56.3379 119.089 56.6233 119.374 57.0227 119.374Z" fill="black"/>
<path d="M58.9628 117.833C59.4764 117.833 59.8188 118.233 59.8188 118.689C59.8188 119.203 59.4194 119.545 58.9628 119.545C58.4493 119.545 58.1069 119.146 58.1069 118.689C58.1069 118.233 58.5063 117.833 58.9628 117.833ZM58.9628 119.374C59.3052 119.374 59.6476 119.089 59.6476 118.689C59.6476 118.347 59.3623 118.005 58.9628 118.005C58.6205 118.005 58.2781 118.29 58.2781 118.689C58.3351 119.089 58.6205 119.374 58.9628 119.374Z" fill="black"/>
<path d="M60.1042 118.062C60.2753 118.062 60.2754 117.948 60.3324 117.833H60.5607V119.602H60.3324V118.29H60.1042V118.062Z" fill="black"/>
<path d="M63.1283 101.456H37.6776V105.165H63.1283V101.456Z" fill="#1C976E" stroke="#214975" stroke-width="0.8577" stroke-miterlimit="10" stroke-linecap="round" stroke-linejoin="round"/>
<path d="M59.5903 102.54L61.1881 104.138" stroke="#214975" stroke-width="0.8577" stroke-miterlimit="10" stroke-linecap="round" stroke-linejoin="round"/>
<path d="M61.1881 102.54L59.5903 104.138" stroke="#214975" stroke-width="0.8577" stroke-miterlimit="10" stroke-linecap="round" stroke-linejoin="round"/>
<path d="M166.358 190.02C166.358 190.591 165.901 191.104 165.273 191.104H163.048C162.477 191.104 161.964 190.648 161.964 190.02V177.352C161.964 176.781 162.42 176.268 163.048 176.268H165.273C165.844 176.268 166.358 176.724 166.358 177.352V190.02Z" fill="#E9A848" stroke="#214975" stroke-width="0.8577" stroke-miterlimit="10" stroke-linecap="round" stroke-linejoin="round"/>
<path d="M164.817 189.392C164.817 189.735 164.532 190.02 164.189 190.02C163.847 190.02 163.561 189.735 163.561 189.392V177.238C163.561 176.895 163.847 176.61 164.189 176.61C164.532 176.61 164.817 176.895 164.817 177.238V189.392Z" fill="#E1723F" stroke="#214975" stroke-width="0.8577" stroke-miterlimit="10" stroke-linecap="round" stroke-linejoin="round"/>
<path d="M167.271 161.602L165.73 158.349H162.649L161.165 161.602L162.649 164.855H163.448V177.124H164.931V164.855H165.73L167.271 161.602Z" fill="#B7B8CF" stroke="#214975" stroke-width="0.8577" stroke-miterlimit="10" stroke-linecap="round" stroke-linejoin="round"/>
<path d="M165.73 158.349H164.589L166.072 161.602L165.217 163.314H164.189V177.124H164.931V164.855H165.73L167.271 161.602L165.73 158.349Z" fill="#DADADA"/>
<path d="M166.928 176.553C166.928 177.067 166.529 177.466 166.015 177.466H162.363C161.85 177.466 161.45 177.067 161.45 176.553C161.45 176.04 161.85 175.64 162.363 175.64H166.015C166.529 175.697 166.928 176.097 166.928 176.553Z" fill="#E9A848" stroke="#214975" stroke-width="0.8577" stroke-miterlimit="10" stroke-linecap="round" stroke-linejoin="round"/>
<path d="M94.5709 66.5896H142.448" stroke="#214975" stroke-width="1.625" stroke-miterlimit="10" stroke-linecap="round" stroke-linejoin="round"/>
<path d="M70.5468 100.143H86.8101" stroke="#214975" stroke-width="1.625" stroke-miterlimit="10" stroke-linecap="round" stroke-linejoin="round"/>
<path d="M132.005 103.681H143.018" stroke="#214975" stroke-width="1.625" stroke-miterlimit="10" stroke-linecap="round" stroke-linejoin="round"/>
<path d="M146.271 55.5193H157.285" stroke="#214975" stroke-width="1.625" stroke-miterlimit="10" stroke-linecap="round" stroke-linejoin="round"/>
<path d="M147.241 148.648H163.505" stroke="#214975" stroke-width="1.625" stroke-miterlimit="10" stroke-linecap="round" stroke-linejoin="round"/>
<path d="M34.9385 127.078H51.2018" stroke="#214975" stroke-width="1.625" stroke-miterlimit="10" stroke-linecap="round" stroke-linejoin="round"/>
<path d="M94.9702 42.7939C94.9702 43.8211 94.1142 44.677 93.0871 44.677C92.0599 44.677 91.2039 43.8211 91.2039 42.7939C91.2039 41.7667 92.0599 40.9108 93.0871 40.9108C94.1142 40.9108 94.9702 41.7097 94.9702 42.7939Z" stroke="#214975" stroke-width="1.625" stroke-miterlimit="10" stroke-linecap="round" stroke-linejoin="round"/>
<path d="M108.323 127.021C108.323 128.048 107.467 128.904 106.44 128.904C105.413 128.904 104.557 128.048 104.557 127.021C104.557 125.994 105.413 125.138 106.44 125.138C107.467 125.138 108.323 125.994 108.323 127.021Z" stroke="#214975" stroke-width="1.625" stroke-miterlimit="10" stroke-linecap="round" stroke-linejoin="round"/>
<path d="M153.689 129.874C153.689 130.901 152.833 131.757 151.806 131.757C150.779 131.757 149.923 130.901 149.923 129.874C149.923 128.847 150.779 127.991 151.806 127.991C152.833 127.991 153.689 128.79 153.689 129.874Z" stroke="#214975" stroke-width="1.625" stroke-miterlimit="10" stroke-linecap="round" stroke-linejoin="round"/>
<path d="M154.432 42.7366C154.432 43.7638 153.576 44.6198 152.548 44.6198C151.521 44.6198 150.665 43.7638 150.665 42.7366C150.665 41.7095 151.521 40.8535 152.548 40.8535C153.576 40.8535 154.432 41.6524 154.432 42.7366Z" stroke="#214975" stroke-width="1.625" stroke-miterlimit="10" stroke-linecap="round" stroke-linejoin="round"/>
<path d="M94.9702 198.865C94.9702 199.892 94.1142 200.748 93.0871 200.748C92.0599 200.748 91.2039 199.892 91.2039 198.865C91.2039 197.838 92.0599 196.982 93.0871 196.982C94.1142 196.982 94.9702 197.781 94.9702 198.865Z" stroke="#214975" stroke-width="1.625" stroke-miterlimit="10" stroke-linecap="round" stroke-linejoin="round"/>
<path d="M177.143 179.406C177.143 180.433 176.287 181.289 175.26 181.289C174.233 181.289 173.377 180.433 173.377 179.406C173.377 178.379 174.233 177.523 175.26 177.523C176.287 177.523 177.143 178.379 177.143 179.406Z" stroke="#214975" stroke-width="1.625" stroke-miterlimit="10" stroke-linecap="round" stroke-linejoin="round"/>
<path d="M193.292 99.7439L193.349 103.168" stroke="#214975" stroke-width="1.625" stroke-miterlimit="10" stroke-linecap="round" stroke-linejoin="round"/>
<path d="M193.406 106.363L193.463 109.787" stroke="#214975" stroke-width="1.625" stroke-miterlimit="10" stroke-linecap="round" stroke-linejoin="round"/>
<path d="M198.371 104.651L194.947 104.708" stroke="#214975" stroke-width="1.625" stroke-miterlimit="10" stroke-linecap="round" stroke-linejoin="round"/>
<path d="M191.808 104.766L188.385 104.88" stroke="#214975" stroke-width="1.625" stroke-miterlimit="10" stroke-linecap="round" stroke-linejoin="round"/>
<path d="M196.83 101.171L194.433 103.624" stroke="#214975" stroke-width="1.625" stroke-miterlimit="10" stroke-linecap="round" stroke-linejoin="round"/>
<path d="M192.265 105.907L189.868 108.361" stroke="#214975" stroke-width="1.625" stroke-miterlimit="10" stroke-linecap="round" stroke-linejoin="round"/>
<path d="M196.944 108.247L194.491 105.85" stroke="#214975" stroke-width="1.625" stroke-miterlimit="10" stroke-linecap="round" stroke-linejoin="round"/>
<path d="M192.208 103.681L189.754 101.285" stroke="#214975" stroke-width="1.625" stroke-miterlimit="10" stroke-linecap="round" stroke-linejoin="round"/>
<path d="M57.4218 163.884L57.4789 167.308" stroke="#214975" stroke-width="1.625" stroke-miterlimit="10" stroke-linecap="round" stroke-linejoin="round"/>
<path d="M57.536 170.447L57.5931 173.871" stroke="#214975" stroke-width="1.625" stroke-miterlimit="10" stroke-linecap="round" stroke-linejoin="round"/>
<path d="M62.5007 168.792L59.0768 168.849" stroke="#214975" stroke-width="1.625" stroke-miterlimit="10" stroke-linecap="round" stroke-linejoin="round"/>
<path d="M55.9382 168.906L52.5144 168.963" stroke="#214975" stroke-width="1.625" stroke-miterlimit="10" stroke-linecap="round" stroke-linejoin="round"/>
<path d="M60.9598 165.254L58.5631 167.765" stroke="#214975" stroke-width="1.625" stroke-miterlimit="10" stroke-linecap="round" stroke-linejoin="round"/>
<path d="M56.3946 169.99L53.9979 172.501" stroke="#214975" stroke-width="1.625" stroke-miterlimit="10" stroke-linecap="round" stroke-linejoin="round"/>
<path d="M61.0738 172.33L58.6201 169.99" stroke="#214975" stroke-width="1.625" stroke-miterlimit="10" stroke-linecap="round" stroke-linejoin="round"/>
<path d="M56.3375 167.765L53.8837 165.425" stroke="#214975" stroke-width="1.625" stroke-miterlimit="10" stroke-linecap="round" stroke-linejoin="round"/>
<path d="M145.529 190.02L145.587 193.444" stroke="#214975" stroke-width="1.625" stroke-miterlimit="10" stroke-linecap="round" stroke-linejoin="round"/>
<path d="M145.643 196.582L145.7 200.006" stroke="#214975" stroke-width="1.625" stroke-miterlimit="10" stroke-linecap="round" stroke-linejoin="round"/>
<path d="M150.608 194.928L147.184 194.985" stroke="#214975" stroke-width="1.625" stroke-miterlimit="10" stroke-linecap="round" stroke-linejoin="round"/>
<path d="M144.046 195.041L140.622 195.098" stroke="#214975" stroke-width="1.625" stroke-miterlimit="10" stroke-linecap="round" stroke-linejoin="round"/>
<path d="M149.067 191.389L146.728 193.843" stroke="#214975" stroke-width="1.625" stroke-miterlimit="10" stroke-linecap="round" stroke-linejoin="round"/>
<path d="M144.502 196.126L142.163 198.58" stroke="#214975" stroke-width="1.625" stroke-miterlimit="10" stroke-linecap="round" stroke-linejoin="round"/>
<path d="M149.239 198.466L146.728 196.069" stroke="#214975" stroke-width="1.625" stroke-miterlimit="10" stroke-linecap="round" stroke-linejoin="round"/>
<path d="M144.502 193.9L141.991 191.504" stroke="#214975" stroke-width="1.625" stroke-miterlimit="10" stroke-linecap="round" stroke-linejoin="round"/>
</svg>
