<svg width="208" height="161" viewBox="0 0 208 161" fill="none" xmlns="http://www.w3.org/2000/svg">
<path opacity="0.1" d="M184.274 123.753C186.301 116.503 187.366 108.949 187.366 101.294C187.366 90.1908 185.237 79.443 180.978 69.3035C176.872 59.5189 171.042 50.7482 163.538 43.1943C156.086 35.6404 147.366 29.7088 137.683 25.6023C127.645 21.293 116.998 19.113 106.047 19.113C95.0968 19.113 84.3996 21.293 74.4123 25.6023C64.729 29.7595 56.0091 35.6911 48.5566 43.1943C41.0534 50.6975 35.2232 59.4682 31.1167 69.2528C26.8581 79.3923 24.7288 90.1401 24.7288 101.243C24.7288 108.949 25.7427 116.452 27.8213 123.702H184.274V123.753Z" fill="white"/>
<path opacity="0.1" d="M169.419 123.753C171.853 116.706 173.171 109.152 173.171 101.294C173.171 63.8282 143.107 33.4604 106.047 33.4604C68.9876 33.4604 38.924 63.8282 38.924 101.294C38.924 109.152 40.2421 116.756 42.6756 123.753H169.419Z" fill="white"/>
<path opacity="0.2" d="M108.684 160.204C163.535 160.204 208 156.64 208 152.244C208 147.848 163.535 144.285 108.684 144.285C53.833 144.285 9.36758 147.848 9.36758 152.244C9.36758 156.64 53.833 160.204 108.684 160.204Z" fill="#214975" fill-opacity="0.29"/>
<path d="M167.239 61.4961V123.398H45.0076V61.4961C45.0076 58.2514 47.6439 55.5645 50.9392 55.5645H161.358C164.603 55.6152 167.239 58.2514 167.239 61.4961Z" fill="#03283B"/>
<path opacity="0.2" d="M167.29 92.5737H45.0077V123.448H167.29V92.5737Z" fill="#214975"/>
<path d="M163.133 62.3579V115.996C163.133 116.756 162.524 117.314 161.815 117.314H50.4831C50.2297 117.314 49.9255 117.213 49.7227 117.06C49.3678 116.807 49.165 116.401 49.165 115.945V62.3579C49.165 61.6482 49.7734 61.0398 50.4831 61.0398H161.815C162.271 61.0398 162.677 61.2933 162.93 61.6482C163.031 61.851 163.133 62.1044 163.133 62.3579Z" fill="#FBFBFB"/>
<path d="M167.29 123.397C167.29 125.02 166.884 126.541 166.175 127.91C165.718 128.771 165.11 129.583 164.451 130.242C162.676 132.016 160.294 133.081 157.607 133.081H54.6909C50.99 133.081 47.7453 131.002 46.123 127.91C45.4133 126.591 45.0077 125.02 45.0077 123.397H167.29Z" fill="#FBFBFB"/>
<path d="M166.175 127.91C165.718 128.772 165.11 129.583 164.451 130.242C162.677 132.016 160.294 133.081 157.607 133.081H54.691C50.9901 133.081 47.7455 131.002 46.1232 127.91H166.175Z" fill="#1C976E"/>
<path d="M124.197 133.081H88.0497V148.138H124.197V133.081Z" fill="#03283B"/>
<path opacity="0.2" d="M124.197 133.081H88.0497V138.607H124.197V133.081Z" fill="#214975"/>
<path d="M137.226 153.36H75.0713C75.0713 150.521 77.4034 148.189 80.2424 148.189H132.055C134.894 148.189 137.226 150.47 137.226 153.36Z" fill="#1C976E"/>
<path d="M163.133 62.3579V66.4137H49.165V62.3579C49.165 61.5975 49.7734 61.0398 50.4831 61.0398H161.815C162.524 61.0398 163.133 61.5975 163.133 62.3579Z" fill="#1C976E"/>
<path d="M136.517 64.2338H74.1587C73.6518 64.2338 73.2462 63.8282 73.2462 63.3212C73.2462 62.8143 73.6518 62.4087 74.1587 62.4087H136.517C137.024 62.4087 137.429 62.8143 137.429 63.3212C137.429 63.8789 137.024 64.2338 136.517 64.2338Z" fill="#FBFBFB"/>
<path d="M146.707 63.3718C146.707 63.8788 146.301 64.2843 145.794 64.2843C145.287 64.2843 144.882 63.8788 144.882 63.3718C144.882 62.8648 145.287 62.4592 145.794 62.4592C146.301 62.4592 146.707 62.8648 146.707 63.3718Z" fill="#02313D"/>
<path d="M151.269 63.3718C151.269 63.8788 150.864 64.2843 150.357 64.2843C149.85 64.2843 149.444 63.8788 149.444 63.3718C149.444 62.8648 149.85 62.4592 150.357 62.4592C150.864 62.4592 151.269 62.8648 151.269 63.3718Z" fill="#02313D"/>
<path d="M155.426 63.3718C155.426 63.8788 155.021 64.2843 154.514 64.2843C154.007 64.2843 153.601 63.8788 153.601 63.3718C153.601 62.8648 154.007 62.4592 154.514 62.4592C155.021 62.4592 155.426 62.8648 155.426 63.3718Z" fill="#02313D"/>
<path d="M107.771 58.3023C107.771 58.9106 107.264 59.4683 106.605 59.4683C105.997 59.4683 105.439 58.9613 105.439 58.3023C105.439 57.6939 105.946 57.1362 106.605 57.1362C107.264 57.1869 107.771 57.6939 107.771 58.3023Z" fill="#284C5E"/>
<path d="M72.2829 76.5533H53.677C53.1193 76.5533 52.663 76.097 52.663 75.5393C52.663 74.9817 53.1193 74.5254 53.677 74.5254H72.2829C72.8406 74.5254 73.2969 74.9817 73.2969 75.5393C73.2462 76.097 72.8406 76.5533 72.2829 76.5533Z" fill="#1C976E"/>
<path d="M72.283 81.471H53.6771C53.1194 81.471 52.6631 81.0147 52.6631 80.4571C52.6631 79.8994 53.1194 79.4431 53.6771 79.4431H72.283C72.8407 79.4431 73.297 79.8994 73.297 80.4571C73.2463 81.0147 72.8407 81.471 72.283 81.471Z" fill="#1C976E"/>
<path d="M72.283 86.3885H53.6771C53.1194 86.3885 52.6631 85.9322 52.6631 85.3745C52.6631 84.8169 53.1194 84.3606 53.6771 84.3606H72.283C72.8407 84.3606 73.297 84.8169 73.297 85.3745C73.2463 85.9322 72.8407 86.3885 72.283 86.3885Z" fill="#1C976E"/>
<path d="M72.283 91.2554H53.6771C53.1194 91.2554 52.6631 90.7992 52.6631 90.2415C52.6631 89.6838 53.1194 89.2275 53.6771 89.2275H72.283C72.8407 89.2275 73.297 89.6838 73.297 90.2415C73.2463 90.8499 72.8407 91.2554 72.283 91.2554Z" fill="#1C976E"/>
<path d="M72.283 96.1732H53.6771C53.1194 96.1732 52.6631 95.7169 52.6631 95.1592C52.6631 94.6015 53.1194 94.1453 53.6771 94.1453H72.283C72.8407 94.1453 73.297 94.6015 73.297 95.1592C73.2463 95.7169 72.8407 96.1732 72.283 96.1732Z" fill="#1C976E"/>
<path d="M72.283 101.091H53.6771C53.1194 101.091 52.6631 100.635 52.6631 100.077C52.6631 99.5193 53.1194 99.063 53.6771 99.063H72.283C72.8407 99.063 73.297 99.5193 73.297 100.077C73.2463 100.635 72.8407 101.091 72.283 101.091Z" fill="#1C976E"/>
<path d="M72.283 106.008H53.6771C53.1194 106.008 52.6631 105.552 52.6631 104.994C52.6631 104.437 53.1194 103.98 53.6771 103.98H72.283C72.8407 103.98 73.297 104.437 73.297 104.994C73.2463 105.552 72.8407 106.008 72.283 106.008Z" fill="#1C976E"/>
<path d="M72.283 110.926H53.6771C53.1194 110.926 52.6631 110.47 52.6631 109.912C52.6631 109.354 53.1194 108.898 53.6771 108.898H72.283C72.8407 108.898 73.297 109.354 73.297 109.912C73.2463 110.47 72.8407 110.926 72.283 110.926Z" fill="#1C976E"/>
<path d="M158.773 76.5533H140.167C139.61 76.5533 139.154 76.097 139.154 75.5393C139.154 74.9817 139.61 74.5254 140.167 74.5254H158.773C159.331 74.5254 159.787 74.9817 159.787 75.5393C159.787 76.097 159.331 76.5533 158.773 76.5533Z" fill="#1C976E"/>
<path d="M158.773 81.471H140.167C139.609 81.471 139.153 81.0147 139.153 80.4571C139.153 79.8994 139.609 79.4431 140.167 79.4431H158.773C159.331 79.4431 159.787 79.8994 159.787 80.4571C159.787 81.0147 159.331 81.471 158.773 81.471Z" fill="#1C976E"/>
<path d="M158.773 86.3885H140.167C139.609 86.3885 139.153 85.9322 139.153 85.3745C139.153 84.8169 139.609 84.3606 140.167 84.3606H158.773C159.331 84.3606 159.787 84.8169 159.787 85.3745C159.787 85.9322 159.331 86.3885 158.773 86.3885Z" fill="#1C976E"/>
<path d="M158.773 91.2554H140.167C139.609 91.2554 139.153 90.7992 139.153 90.2415C139.153 89.6838 139.609 89.2275 140.167 89.2275H158.773C159.331 89.2275 159.787 89.6838 159.787 90.2415C159.787 90.8499 159.331 91.2554 158.773 91.2554Z" fill="#1C976E"/>
<path d="M158.773 96.1732H140.167C139.609 96.1732 139.153 95.7169 139.153 95.1592C139.153 94.6015 139.609 94.1453 140.167 94.1453H158.773C159.331 94.1453 159.787 94.6015 159.787 95.1592C159.787 95.7169 159.331 96.1732 158.773 96.1732Z" fill="#1C976E"/>
<path d="M158.773 101.091H140.167C139.609 101.091 139.153 100.635 139.153 100.077C139.153 99.5193 139.609 99.063 140.167 99.063H158.773C159.331 99.063 159.787 99.5193 159.787 100.077C159.787 100.635 159.331 101.091 158.773 101.091Z" fill="#1C976E"/>
<path d="M158.773 106.008H140.167C139.609 106.008 139.153 105.552 139.153 104.994C139.153 104.437 139.609 103.98 140.167 103.98H158.773C159.331 103.98 159.787 104.437 159.787 104.994C159.787 105.552 159.331 106.008 158.773 106.008Z" fill="#1C976E"/>
<path d="M158.773 110.926H140.167C139.609 110.926 139.153 110.47 139.153 109.912C139.153 109.354 139.609 108.898 140.167 108.898H158.773C159.331 108.898 159.787 109.354 159.787 109.912C159.787 110.47 159.331 110.926 158.773 110.926Z" fill="#1C976E"/>
<path d="M104.831 72.3454C104.628 73.0045 104.374 73.7143 104.172 74.3733C104.172 74.424 104.172 74.424 104.121 74.5254C104.78 74.0184 105.439 73.5622 106.098 73.1059C106.757 73.6129 107.416 74.0691 108.075 74.5761C108.075 74.4747 108.025 74.4747 108.025 74.424C107.822 73.7143 107.568 73.0552 107.365 72.3961C107.315 72.244 107.315 72.1933 107.467 72.0919C108.025 71.6864 108.582 71.2808 109.14 70.8752C109.191 70.8245 109.241 70.8245 109.292 70.7738C109.292 70.7738 109.292 70.7738 109.292 70.7231H109.191C108.481 70.7231 107.771 70.7231 107.061 70.7231C106.96 70.7231 106.909 70.6724 106.859 70.571C106.757 70.2161 106.656 69.9119 106.554 69.5571C106.453 69.1515 106.301 68.7966 106.149 68.3403V68.391V68.4417C106.149 68.4924 106.098 68.4924 106.098 68.5431C105.895 69.2022 105.692 69.8613 105.439 70.5203C105.388 70.6217 105.338 70.6724 105.236 70.6724C104.526 70.6724 103.817 70.6724 103.107 70.6724C103.056 70.6724 103.006 70.6724 102.904 70.6724C103.006 70.7231 103.006 70.7738 103.056 70.7738C103.614 71.1794 104.172 71.585 104.729 71.9905C104.881 72.1426 104.881 72.1933 104.831 72.3454Z" fill="#1C976E"/>
<path d="M91.193 75.438C90.9902 76.097 90.7367 76.8068 90.5339 77.4659C90.5339 77.5166 90.5339 77.5166 90.4832 77.618C91.1423 77.111 91.8014 76.6547 92.4604 76.1984C93.1195 76.7054 93.7786 77.1617 94.4376 77.6686C94.4376 77.5673 94.3869 77.5672 94.3869 77.5166C94.1841 76.8068 93.9306 76.1477 93.7279 75.4887C93.6772 75.3366 93.6772 75.2859 93.8292 75.1845C94.3869 74.7789 94.9446 74.3733 95.5023 73.9677C95.553 73.917 95.6037 73.917 95.6544 73.8663C95.6544 73.8663 95.6544 73.8663 95.6544 73.8156H95.5023C94.7925 73.8156 94.0827 73.8156 93.373 73.8156C93.2716 73.8156 93.2209 73.7649 93.1702 73.6636C93.0688 73.3087 92.9674 73.0045 92.866 72.6496C92.7646 72.244 92.6125 71.8891 92.4604 71.4329V71.4836V71.5343C92.4604 71.585 92.4097 71.585 92.4097 71.6357C92.2069 72.2947 92.0041 72.9538 91.7507 73.6129C91.7 73.7142 91.6493 73.7649 91.5479 73.7649C90.8381 73.7649 90.1283 73.7649 89.4186 73.7649C89.3679 73.7649 89.3172 73.7649 89.2158 73.7649C89.3172 73.8156 89.3172 73.8663 89.3679 73.8663C89.9255 74.2719 90.4832 74.6775 91.0409 75.0831C91.2437 75.2352 91.2437 75.2859 91.193 75.438Z" fill="#1C976E"/>
<path d="M80.6479 83.2961C80.4451 83.9552 80.1916 84.6649 79.9888 85.324C79.9888 85.3747 79.9888 85.3747 79.9381 85.4761C80.5972 84.9691 81.2562 84.5129 81.9153 84.0566C82.5744 84.5636 83.2335 85.0198 83.8925 85.5268C83.8925 85.4254 83.8418 85.4254 83.8418 85.3747C83.639 84.6649 83.3855 84.0059 83.1828 83.3468C83.1321 83.1947 83.1321 83.144 83.2841 83.0426C83.8418 82.637 84.3995 82.2315 84.9572 81.8259C85.0079 81.7752 85.0586 81.7752 85.1093 81.7245C85.1093 81.7245 85.1093 81.7245 85.1093 81.6738H84.9572C84.2474 81.6738 83.5376 81.6738 82.8279 81.6738C82.7265 81.6738 82.6758 81.6231 82.6251 81.5217C82.5237 81.1668 82.4223 80.8626 82.3209 80.5078C82.2195 80.1022 82.0674 79.7473 81.9153 79.291V79.3417V79.3924C81.9153 79.4431 81.8646 79.4431 81.8646 79.4938C81.6618 80.1529 81.459 80.8119 81.2056 81.471C81.1549 81.5724 81.1042 81.6231 81.0028 81.6231C80.293 81.6231 79.5832 81.6231 78.8735 81.6231C78.8228 81.6231 78.7721 81.6231 78.6707 81.6231C78.7721 81.6738 78.7721 81.7245 78.8228 81.7245C79.3805 82.1301 79.9381 82.5357 80.4958 82.9412C80.6479 83.0933 80.6479 83.144 80.6479 83.2961Z" fill="#1C976E"/>
<path d="M80.952 97.7448C80.7492 98.4039 80.4957 99.1137 80.293 99.7727C80.293 99.8234 80.293 99.8234 80.2423 99.9248C80.9013 99.4179 81.5604 98.9616 82.2195 98.5053C82.8785 99.0123 83.5376 99.4686 84.1967 99.9755C84.1967 99.8741 84.146 99.8741 84.146 99.8234C83.9432 99.1137 83.6897 98.4546 83.4869 97.7955C83.4362 97.6434 83.4362 97.5928 83.5883 97.4914C84.146 97.0858 84.7036 96.6802 85.2613 96.2746C85.312 96.2239 85.3627 96.2239 85.4134 96.1732C85.4134 96.1732 85.4134 96.1732 85.4134 96.1225H85.2613C84.5515 96.1225 83.8418 96.1225 83.132 96.1225C83.0306 96.1225 82.9799 96.0718 82.9292 95.9704C82.8278 95.6156 82.7264 95.3114 82.625 94.9565C82.5236 94.5509 82.3716 94.196 82.2195 93.7397V93.7904V93.8411C82.2195 93.8918 82.1688 93.8918 82.1688 93.9425C81.966 94.6016 81.7632 95.2607 81.5097 95.9197C81.459 96.0211 81.4083 96.0718 81.3069 96.0718C80.5971 96.0718 79.8874 96.0718 79.1776 96.0718C79.1269 96.0718 79.0762 96.0718 78.9748 96.0718C79.0762 96.1225 79.0762 96.1732 79.1269 96.1732C79.6846 96.5788 80.2423 96.9844 80.7999 97.39C81.0027 97.5421 81.0027 97.6435 80.952 97.7448Z" fill="#1C976E"/>
<path d="M87.5426 110.825C87.3398 111.484 87.0864 112.194 86.8836 112.853C86.8836 112.904 86.8836 112.904 86.8329 113.005C87.4919 112.498 88.151 112.042 88.8101 111.585C89.4691 112.092 90.1282 112.549 90.7873 113.056C90.7873 112.954 90.7366 112.954 90.7366 112.904C90.5338 112.194 90.2803 111.535 90.0775 110.876C90.0268 110.724 90.0268 110.673 90.1789 110.571C90.7366 110.166 91.2942 109.76 91.8519 109.355C91.9026 109.304 91.9533 109.304 92.004 109.253C92.004 109.253 92.004 109.253 92.004 109.203H91.8519C91.1422 109.203 90.4324 109.203 89.7226 109.203C89.6212 109.203 89.5705 109.152 89.5198 109.051C89.4184 108.696 89.317 108.391 89.2157 108.037C89.1143 107.631 88.9622 107.276 88.8101 106.82V106.871V106.921C88.8101 106.972 88.7594 106.972 88.7594 107.023C88.5566 107.682 88.3538 108.341 88.1003 109C88.0496 109.101 87.9989 109.152 87.8975 109.152C87.1878 109.152 86.478 109.152 85.7682 109.152C85.7175 109.152 85.6668 109.152 85.5654 109.152C85.6668 109.203 85.6668 109.253 85.7175 109.253C86.2752 109.659 86.8329 110.064 87.3905 110.47C87.5933 110.622 87.5933 110.724 87.5426 110.825Z" fill="#1C976E"/>
<path d="M119.634 75.438C119.837 76.097 120.091 76.8068 120.293 77.4659C120.293 77.5166 120.293 77.5166 120.344 77.618C119.685 77.111 119.026 76.6547 118.367 76.1984C117.708 76.7054 117.049 77.1617 116.39 77.6686C116.39 77.5673 116.44 77.5672 116.44 77.5166C116.643 76.8068 116.897 76.1477 117.099 75.4887C117.15 75.3366 117.15 75.2859 116.998 75.1845C116.44 74.7789 115.883 74.3733 115.325 73.9677C115.274 73.917 115.224 73.917 115.173 73.8663C115.173 73.8663 115.173 73.8663 115.173 73.8156H115.325C116.035 73.8156 116.745 73.8156 117.454 73.8156C117.556 73.8156 117.606 73.7649 117.657 73.6636C117.759 73.3087 117.86 73.0045 117.961 72.6496C118.063 72.244 118.215 71.8891 118.367 71.4329V71.4836V71.5343C118.367 71.585 118.418 71.585 118.418 71.6357C118.62 72.2947 118.823 72.9538 119.077 73.6129C119.127 73.7142 119.178 73.7649 119.279 73.7649C119.989 73.7649 120.699 73.7649 121.409 73.7649C121.459 73.7649 121.51 73.7649 121.612 73.7649C121.51 73.8156 121.51 73.8663 121.459 73.8663C120.902 74.2719 120.344 74.6775 119.786 75.0831C119.634 75.2352 119.584 75.2859 119.634 75.438Z" fill="#1C976E"/>
<path d="M130.23 83.2961C130.433 83.9552 130.686 84.6649 130.889 85.324C130.889 85.3747 130.889 85.3747 130.94 85.4761C130.281 84.9691 129.621 84.5129 128.962 84.0566C128.303 84.5636 127.644 85.0198 126.985 85.5268C126.985 85.4254 127.036 85.4254 127.036 85.3747C127.239 84.6649 127.492 84.0059 127.695 83.3468C127.746 83.1947 127.746 83.144 127.594 83.0426C127.036 82.637 126.478 82.2315 125.921 81.8259C125.87 81.7752 125.819 81.7752 125.768 81.7245C125.768 81.7245 125.768 81.7245 125.768 81.6738H125.921C126.63 81.6738 127.34 81.6738 128.05 81.6738C128.151 81.6738 128.202 81.6231 128.253 81.5217C128.354 81.1668 128.455 80.8626 128.557 80.5078C128.658 80.1022 128.81 79.7473 128.962 79.291V79.3417V79.3924C128.962 79.4431 129.013 79.4431 129.013 79.4938C129.216 80.1529 129.419 80.8119 129.672 81.471C129.723 81.5724 129.774 81.6231 129.875 81.6231C130.585 81.6231 131.295 81.6231 132.004 81.6231C132.055 81.6231 132.106 81.6231 132.207 81.6231C132.106 81.6738 132.106 81.7245 132.055 81.7245C131.497 82.1301 130.94 82.5357 130.382 82.9412C130.23 83.0933 130.179 83.144 130.23 83.2961Z" fill="#1C976E"/>
<path d="M129.926 97.7448C130.129 98.4039 130.382 99.1137 130.585 99.7727C130.585 99.8234 130.585 99.8234 130.635 99.9248C129.976 99.4179 129.317 98.9616 128.658 98.5053C127.999 99.0123 127.34 99.4686 126.681 99.9755C126.681 99.8741 126.732 99.8741 126.732 99.8234C126.935 99.1137 127.188 98.4546 127.391 97.7955C127.442 97.6434 127.442 97.5928 127.289 97.4914C126.732 97.0858 126.174 96.6802 125.616 96.2746C125.566 96.2239 125.515 96.2239 125.464 96.1732C125.464 96.1732 125.464 96.1732 125.464 96.1225H125.616C126.326 96.1225 127.036 96.1225 127.746 96.1225C127.847 96.1225 127.898 96.0718 127.949 95.9704C128.05 95.6156 128.151 95.3114 128.253 94.9565C128.354 94.5509 128.506 94.196 128.658 93.7397V93.7904V93.8411C128.658 93.8918 128.709 93.8918 128.709 93.9425C128.912 94.6016 129.115 95.2607 129.368 95.9197C129.419 96.0211 129.469 96.0718 129.571 96.0718C130.281 96.0718 130.99 96.0718 131.7 96.0718C131.751 96.0718 131.802 96.0718 131.903 96.0718C131.802 96.1225 131.802 96.1732 131.751 96.1732C131.193 96.5788 130.635 96.9844 130.078 97.39C129.875 97.5421 129.875 97.6435 129.926 97.7448Z" fill="#1C976E"/>
<path d="M123.335 110.825C123.538 111.484 123.791 112.194 123.994 112.853C123.994 112.904 123.994 112.904 124.045 113.005C123.386 112.498 122.727 112.042 122.068 111.585C121.409 112.092 120.75 112.549 120.09 113.056C120.09 112.954 120.141 112.954 120.141 112.904C120.344 112.194 120.597 111.535 120.8 110.876C120.851 110.724 120.851 110.673 120.699 110.571C120.141 110.166 119.584 109.76 119.026 109.355C118.975 109.304 118.924 109.304 118.874 109.253C118.874 109.253 118.874 109.253 118.874 109.203H119.026C119.736 109.203 120.445 109.203 121.155 109.203C121.257 109.203 121.307 109.152 121.358 109.051C121.459 108.696 121.561 108.391 121.662 108.037C121.764 107.631 121.916 107.276 122.068 106.82V106.871V106.921C122.068 106.972 122.118 106.972 122.118 107.023C122.321 107.682 122.524 108.341 122.777 109C122.828 109.101 122.879 109.152 122.98 109.152C123.69 109.152 124.4 109.152 125.11 109.152C125.16 109.152 125.211 109.152 125.312 109.152C125.211 109.203 125.211 109.253 125.16 109.253C124.603 109.659 124.045 110.064 123.487 110.47C123.284 110.622 123.284 110.724 123.335 110.825Z" fill="#1C976E"/>
<path d="M106.2 113.866C106.2 113.866 106.149 113.866 106.2 113.866C85.7178 109.202 89.0131 83.9043 89.0131 83.9043L106.149 76.5024H106.2L123.285 83.8536C123.285 83.9043 126.58 109.152 106.2 113.866Z" fill="#03283B"/>
<path opacity="0.2" d="M106.199 113.867V76.5532L123.285 83.9043C123.285 83.9043 126.58 109.152 106.199 113.867Z" fill="#214975"/>
<path d="M119.888 96.6801C117.86 104.538 113.246 109.456 106.149 111.281C99.0509 109.456 94.4374 104.538 92.4095 96.6801C91.2435 92.168 91.2942 87.808 91.3956 85.6787L106.098 79.3416L120.8 85.6787C121.003 87.7573 121.054 92.1173 119.888 96.6801Z" fill="#174356"/>
<g opacity="0.2">
<path opacity="0.2" d="M119.888 96.68C117.86 104.538 113.246 109.456 106.149 111.281V79.2908L120.851 85.6279C121.003 87.7572 121.054 92.1172 119.888 96.68Z" fill="#214975"/>
</g>
<path d="M113.297 89.684H112.587C112.537 89.0756 112.384 88.4672 112.131 87.9096C111.168 85.5775 108.886 83.9045 106.199 83.8538H106.149C103.462 83.8538 101.13 85.5268 100.166 87.9096C99.9129 88.4672 99.7608 89.0756 99.7101 89.684H99.0004C98.0878 89.684 97.3274 90.4444 97.3274 91.357V102.156C97.3274 103.068 98.0878 103.829 99.0004 103.829H113.297C114.21 103.829 114.97 103.068 114.97 102.156V91.357C114.919 90.3937 114.21 89.684 113.297 89.684ZM107.771 100.178H104.476L105.236 96.9844C105.135 96.9337 105.033 96.8323 104.932 96.7309C104.577 96.376 104.374 95.9197 104.374 95.4128C104.374 95.1086 104.425 94.8551 104.577 94.6016C104.881 93.9932 105.49 93.5877 106.199 93.5877H106.25C106.96 93.5877 107.568 93.9932 107.872 94.6016C107.974 94.8551 108.075 95.1086 108.075 95.4128C108.075 95.9197 107.872 96.376 107.568 96.6802C107.416 96.8323 107.264 96.9337 107.061 97.0351L107.771 100.178ZM101.637 89.684C101.738 89.0249 101.941 88.4165 102.296 87.9096C103.107 86.6421 104.526 85.7803 106.149 85.7803H106.199C107.771 85.7803 109.191 86.6421 110.002 87.9096C110.357 88.4165 110.559 89.0249 110.661 89.684H101.637Z" fill="#FBFBFB"/>
<path opacity="0.2" d="M102.397 87.7065C102.346 87.7572 102.346 87.8079 102.296 87.8586C101.941 88.3656 101.738 88.974 101.637 89.633H99.7102C99.7609 89.0247 99.913 88.4163 100.166 87.8586C100.166 87.8079 100.217 87.7572 100.217 87.7065H102.397Z" fill="#214975"/>
<path opacity="0.2" d="M112.587 89.6838H110.661C110.559 89.0248 110.357 88.4164 110.002 87.9094C109.951 87.8587 109.951 87.808 109.9 87.7573H112.08C112.08 87.808 112.131 87.8587 112.131 87.9094C112.385 88.4164 112.537 89.0248 112.587 89.6838Z" fill="#214975"/>
<path opacity="0.2" d="M114.919 91.3063V102.105C114.919 103.017 114.159 103.778 113.246 103.778H106.149V100.178H107.771L107.011 97.0351C107.213 96.9337 107.366 96.8323 107.518 96.6802C107.822 96.3253 108.025 95.9197 108.025 95.4128C108.025 95.1086 107.974 94.8551 107.822 94.6016C107.518 93.9932 106.909 93.5877 106.199 93.5877H106.149V89.684H110.661C110.559 89.0249 110.357 88.4165 110.002 87.9096C109.191 86.6421 107.822 85.831 106.199 85.7803H106.149V83.8538H106.199C108.886 83.8538 111.168 85.5268 112.131 87.9096C112.385 88.4672 112.537 89.0756 112.587 89.684H113.297C114.21 89.684 114.919 90.3937 114.919 91.3063Z" fill="#214975"/>
<path d="M158.316 31.1788C158.823 31.5844 159.33 31.99 159.837 32.3955C159.939 32.4969 160.091 32.5476 160.243 32.5476C160.395 32.5476 160.598 32.4462 160.699 32.3448C160.902 32.0913 160.851 31.6858 160.598 31.483C160.091 31.0774 159.584 30.6718 159.077 30.2662C158.823 30.0635 158.418 30.1142 158.215 30.3676C158.012 30.6211 158.063 30.976 158.316 31.1788Z" fill="#214975" fill-opacity="0.42"/>
<path d="M129.114 16.5272C129.723 16.6793 130.331 16.8821 130.939 17.0849C130.99 17.0849 131.041 17.1356 131.092 17.1356C131.345 17.1356 131.598 16.9835 131.649 16.73C131.751 16.4258 131.548 16.0709 131.244 15.9695C130.635 15.7668 129.976 15.6147 129.368 15.4119C129.064 15.3105 128.709 15.5133 128.607 15.8175C128.607 16.1216 128.81 16.4765 129.114 16.5272Z" fill="#214975" fill-opacity="0.42"/>
<path d="M133.627 17.9469C134.235 18.1497 134.843 18.3525 135.452 18.606C135.502 18.606 135.604 18.6567 135.655 18.6567C135.908 18.6567 136.111 18.5046 136.212 18.2511C136.314 17.9469 136.161 17.592 135.857 17.4906C135.249 17.2879 134.641 17.0344 134.032 16.8316C133.728 16.7302 133.373 16.8823 133.272 17.1865C133.12 17.4906 133.272 17.8455 133.627 17.9469Z" fill="#214975" fill-opacity="0.42"/>
<path d="M124.552 15.4118C125.16 15.5639 125.819 15.716 126.427 15.8681C126.478 15.8681 126.529 15.8681 126.579 15.8681C126.833 15.8681 127.086 15.6653 127.188 15.4118C127.289 15.1077 127.086 14.7528 126.732 14.7021C126.123 14.55 125.464 14.3979 124.805 14.2458C124.501 14.1951 124.146 14.3979 124.095 14.7021C124.045 15.0063 124.247 15.3611 124.552 15.4118Z" fill="#214975" fill-opacity="0.42"/>
<path d="M137.987 19.5692C138.443 19.772 138.95 19.9748 139.406 20.1776C139.507 20.2283 139.66 20.279 139.761 20.3297C139.862 20.3804 139.913 20.3804 140.014 20.3804C140.268 20.3804 140.471 20.2283 140.572 20.0255C140.724 19.7213 140.572 19.3664 140.268 19.2144C140.167 19.1637 140.014 19.113 139.913 19.0623C139.457 18.8595 138.95 18.6567 138.443 18.4539C138.139 18.3525 137.784 18.5046 137.632 18.8088C137.53 19.113 137.682 19.4678 137.987 19.5692Z" fill="#214975" fill-opacity="0.42"/>
<path d="M150.61 25.8557C151.168 26.2106 151.726 26.5148 152.233 26.8697C152.334 26.9203 152.435 26.971 152.537 26.971C152.739 26.971 152.942 26.8697 153.044 26.6669C153.246 26.3627 153.145 26.0078 152.841 25.805C152.283 25.4501 151.726 25.0952 151.168 24.7911C150.864 24.639 150.509 24.6897 150.357 24.9938C150.205 25.3487 150.306 25.7036 150.61 25.8557Z" fill="#214975" fill-opacity="0.42"/>
<path d="M154.565 28.4412C155.072 28.796 155.629 29.2016 156.136 29.5565C156.238 29.6579 156.39 29.6579 156.491 29.6579C156.694 29.6579 156.846 29.5565 156.998 29.4044C157.201 29.1509 157.15 28.7453 156.846 28.5426C156.339 28.1877 155.782 27.7821 155.224 27.4272C154.97 27.2244 154.565 27.3258 154.362 27.5793C154.21 27.8835 154.261 28.2384 154.565 28.4412Z" fill="#214975" fill-opacity="0.42"/>
<path d="M146.504 23.5234C147.061 23.8276 147.619 24.1318 148.177 24.436C148.278 24.4867 148.38 24.5374 148.481 24.5374C148.684 24.5374 148.887 24.436 148.988 24.2332C149.14 23.929 149.039 23.5741 148.734 23.422C148.177 23.1179 147.619 22.763 147.011 22.4588C146.707 22.3067 146.352 22.4081 146.2 22.7123C146.098 23.0165 146.25 23.3713 146.504 23.5234Z" fill="#214975" fill-opacity="0.42"/>
<path d="M142.347 21.4449C142.904 21.6984 143.513 22.0026 144.07 22.2561C144.172 22.3068 144.273 22.3068 144.324 22.3068C144.527 22.3068 144.78 22.2054 144.881 21.9519C145.034 21.6477 144.932 21.2929 144.628 21.1408C144.07 20.8366 143.462 20.5831 142.854 20.2789C142.549 20.1268 142.194 20.2789 142.042 20.5831C141.89 20.938 142.042 21.2929 142.347 21.4449Z" fill="#214975" fill-opacity="0.42"/>
<path d="M73.6515 19.8734C73.7529 19.8734 73.8036 19.8734 73.905 19.8227C74.5134 19.5692 75.1217 19.3157 75.6794 19.1129C75.9836 19.0115 76.1357 18.6567 76.0343 18.3525C75.9329 18.0483 75.578 17.8962 75.2738 17.9976C74.6655 18.2511 74.0571 18.4539 73.4487 18.7074C73.1445 18.8594 72.9924 19.1636 73.0938 19.5185C73.1445 19.7213 73.398 19.8734 73.6515 19.8734Z" fill="#214975" fill-opacity="0.42"/>
<path d="M119.938 14.55C120.547 14.6514 121.206 14.7528 121.814 14.8542C121.865 14.8542 121.865 14.8542 121.915 14.8542C122.22 14.8542 122.473 14.6514 122.524 14.3473C122.575 14.0431 122.372 13.6882 122.017 13.6375C121.358 13.5361 120.749 13.384 120.09 13.2826C119.735 13.2319 119.431 13.4347 119.381 13.7896C119.381 14.1952 119.634 14.4993 119.938 14.55Z" fill="#214975" fill-opacity="0.42"/>
<path d="M91.801 14.6514C91.8517 14.6514 91.8517 14.6514 91.9024 14.6514C92.5108 14.55 93.1698 14.4486 93.8289 14.3472C94.1838 14.2966 94.3866 13.9924 94.3359 13.6375C94.2852 13.2826 93.981 13.0798 93.6261 13.1305C92.9671 13.2319 92.3587 13.3333 91.6996 13.4347C91.3447 13.4854 91.1419 13.7896 91.1926 14.1445C91.2433 14.4486 91.4968 14.6514 91.801 14.6514Z" fill="#214975" fill-opacity="0.42"/>
<path d="M87.137 15.5641C87.1877 15.5641 87.2384 15.5641 87.2891 15.5641C87.8975 15.412 88.5566 15.3106 89.1649 15.1585C89.4691 15.1078 89.7226 14.7529 89.6212 14.4487C89.5705 14.1445 89.2156 13.891 88.9114 13.9924C88.2524 14.1445 87.644 14.2459 86.9849 14.398C86.6808 14.4487 86.478 14.8036 86.5287 15.1078C86.6301 15.3613 86.8835 15.5641 87.137 15.5641Z" fill="#214975" fill-opacity="0.42"/>
<path d="M78.0625 18.1496C78.1132 18.1496 78.2145 18.1496 78.2652 18.0989C78.8736 17.8961 79.482 17.6933 80.0904 17.4905C80.3945 17.3891 80.5973 17.0342 80.4959 16.7301C80.3945 16.4259 80.0397 16.2231 79.7355 16.3245C79.1271 16.5273 78.5187 16.7301 77.8597 16.9328C77.5555 17.0342 77.3527 17.3891 77.5048 17.6933C77.5555 17.9975 77.809 18.1496 78.0625 18.1496Z" fill="#214975" fill-opacity="0.42"/>
<path d="M82.5743 16.73C82.625 16.73 82.6757 16.73 82.7264 16.73C83.3348 16.5779 83.9431 16.3751 84.6022 16.223C84.9064 16.1216 85.1092 15.8175 85.0585 15.4626C84.9571 15.1584 84.6529 14.9556 84.298 15.0063C83.6897 15.1584 83.0306 15.3612 82.4222 15.5133C82.118 15.6147 81.9152 15.9189 82.0166 16.2737C82.0673 16.5779 82.3208 16.73 82.5743 16.73Z" fill="#214975" fill-opacity="0.42"/>
<path d="M163.437 35.4375C163.538 35.5389 163.69 35.5896 163.842 35.5896C163.994 35.5896 164.197 35.5389 164.299 35.3868C164.501 35.1333 164.501 34.7785 164.248 34.525C163.741 34.0687 163.285 33.6631 162.778 33.2068C162.524 33.004 162.119 33.004 161.916 33.2575C161.713 33.511 161.713 33.9166 161.967 34.1194C162.474 34.5757 162.93 35.0319 163.437 35.4375Z" fill="#214975" fill-opacity="0.42"/>
<path d="M110.61 13.5361C111.269 13.5868 111.877 13.5868 112.536 13.6375H112.587C112.891 13.6375 113.145 13.384 113.196 13.0798C113.196 12.7249 112.993 12.4714 112.638 12.4207C111.979 12.37 111.32 12.3193 110.711 12.3193C110.711 12.3193 110.711 12.3193 110.661 12.3193C110.356 12.3193 110.052 12.5728 110.052 12.877C110.002 13.2319 110.255 13.5361 110.61 13.5361Z" fill="#214975" fill-opacity="0.42"/>
<path d="M101.18 13.5867C101.839 13.536 102.498 13.536 103.158 13.4853C103.512 13.4853 103.766 13.1811 103.766 12.8769C103.766 12.522 103.462 12.2686 103.158 12.2686C102.498 12.2686 101.839 12.3193 101.18 12.3699C100.825 12.3699 100.572 12.6741 100.623 13.029C100.572 13.3332 100.876 13.5867 101.18 13.5867Z" fill="#214975" fill-opacity="0.42"/>
<path d="M96.4655 13.9923H96.5162C97.1752 13.9416 97.7836 13.8402 98.4427 13.7895C98.7975 13.7388 99.0003 13.4853 99.0003 13.1304C98.9496 12.7755 98.6961 12.5728 98.3413 12.5728C97.6822 12.6235 97.0231 12.6741 96.4148 12.7755C96.0599 12.8262 95.8571 13.1304 95.8571 13.4346C95.9078 13.7388 96.1613 13.9923 96.4655 13.9923Z" fill="#214975" fill-opacity="0.42"/>
<path d="M105.895 13.4348H106.199C106.757 13.4348 107.264 13.4348 107.822 13.4348C108.176 13.4348 108.43 13.1813 108.43 12.8264C108.43 12.4715 108.176 12.218 107.822 12.218C107.264 12.218 106.706 12.218 106.199 12.218H105.895C105.54 12.218 105.287 12.4715 105.287 12.8264C105.287 13.1813 105.591 13.4348 105.895 13.4348Z" fill="#214975" fill-opacity="0.42"/>
<path d="M166.58 38.4285C166.681 38.5298 166.732 38.5805 166.833 38.6819C166.935 38.7833 167.087 38.8847 167.239 38.8847C167.391 38.8847 167.543 38.834 167.645 38.7326C167.898 38.4792 167.898 38.1243 167.645 37.8708C167.543 37.7694 167.493 37.7187 167.391 37.6173C167.036 37.2624 166.631 36.8568 166.276 36.502C166.022 36.2485 165.667 36.2992 165.414 36.502C165.16 36.7554 165.211 37.1103 165.414 37.3638C165.82 37.7187 166.174 38.0736 166.58 38.4285Z" fill="#214975" fill-opacity="0.42"/>
<path d="M185.997 68.4414C186.2 69.0498 186.453 69.6581 186.656 70.2665C186.758 70.52 186.96 70.6721 187.214 70.6721C187.265 70.6721 187.366 70.6721 187.417 70.6214C187.721 70.52 187.873 70.1651 187.772 69.8609C187.569 69.2526 187.315 68.6442 187.112 68.0358C187.011 67.7316 186.656 67.5795 186.352 67.6809C186.048 67.7823 185.896 68.1372 185.997 68.4414Z" fill="#214975" fill-opacity="0.42"/>
<path d="M187.569 72.852C187.772 73.4604 187.974 74.0688 188.126 74.6771C188.228 74.9306 188.431 75.1334 188.684 75.1334C188.735 75.1334 188.786 75.1334 188.836 75.1334C189.14 75.032 189.343 74.6771 189.242 74.3729C189.039 73.7646 188.887 73.1055 188.684 72.4971C188.583 72.193 188.228 71.9902 187.924 72.0916C187.62 72.193 187.467 72.5478 187.569 72.852Z" fill="#214975" fill-opacity="0.42"/>
<path d="M184.223 64.0815C184.425 64.5885 184.628 65.0448 184.831 65.5517L184.983 65.8559C185.084 66.1094 185.287 66.2108 185.541 66.2108C185.642 66.2108 185.693 66.2108 185.794 66.1601C186.098 66.008 186.25 65.6531 186.098 65.3489L185.946 65.0448C185.743 64.5378 185.541 64.0815 185.287 63.5745C185.135 63.2704 184.78 63.1183 184.476 63.2704C184.223 63.4225 184.07 63.7773 184.223 64.0815Z" fill="#214975" fill-opacity="0.42"/>
<path d="M191.219 91.2553C191.269 91.9143 191.32 92.5227 191.371 93.1818C191.371 93.4859 191.675 93.7394 191.979 93.7394H192.03C192.385 93.7394 192.638 93.4353 192.588 93.0804C192.537 92.4213 192.486 91.7622 192.436 91.1539C192.385 90.799 192.131 90.5962 191.776 90.5962C191.422 90.6469 191.168 90.9004 191.219 91.2553Z" fill="#214975" fill-opacity="0.42"/>
<path d="M192.081 95.311C191.726 95.311 191.472 95.6152 191.472 95.9194C191.472 96.5785 191.523 97.1868 191.523 97.8459C191.523 98.2008 191.777 98.4543 192.131 98.4543C192.486 98.4543 192.74 98.2008 192.74 97.8459C192.74 97.1868 192.74 96.5278 192.689 95.8687C192.689 95.5645 192.436 95.311 192.081 95.311Z" fill="#214975" fill-opacity="0.42"/>
<path d="M191.219 85.8813C190.864 85.932 190.661 86.2362 190.712 86.5911C190.813 87.1995 190.864 87.8586 190.965 88.5176C191.016 88.8218 191.27 89.0753 191.574 89.0753H191.624C191.979 89.0246 192.182 88.7204 192.131 88.4162C192.03 87.7572 191.979 87.0981 191.878 86.4897C191.827 86.0841 191.523 85.8813 191.219 85.8813Z" fill="#214975" fill-opacity="0.42"/>
<path d="M190.357 81.2678C190.053 81.3185 189.799 81.6734 189.901 81.9776C190.002 82.586 190.154 83.245 190.256 83.8534C190.306 84.1576 190.56 84.3604 190.864 84.3604C190.915 84.3604 190.915 84.3604 190.965 84.3604C191.32 84.3097 191.523 84.0055 191.472 83.6506C191.371 82.9915 191.219 82.3832 191.117 81.7241C191.016 81.4199 190.712 81.1664 190.357 81.2678Z" fill="#214975" fill-opacity="0.42"/>
<path d="M188.836 77.3643C188.988 77.9726 189.14 78.6317 189.293 79.2401C189.343 79.5442 189.597 79.6963 189.901 79.6963C189.952 79.6963 190.002 79.6963 190.053 79.6963C190.357 79.5949 190.56 79.2908 190.509 78.9866C190.357 78.3782 190.205 77.7191 190.053 77.1108C189.952 76.8066 189.647 76.6038 189.293 76.6545C188.938 76.7052 188.786 77.0601 188.836 77.3643Z" fill="#214975" fill-opacity="0.42"/>
<path d="M175.858 49.4806C175.959 49.6327 176.162 49.7341 176.365 49.7341C176.466 49.7341 176.618 49.6834 176.72 49.6327C176.973 49.4299 177.074 49.075 176.872 48.7708C176.517 48.2638 176.111 47.7062 175.706 47.1992C175.503 46.9457 175.148 46.895 174.844 47.0978C174.59 47.3006 174.54 47.6555 174.742 47.9596C175.148 48.4159 175.503 48.9229 175.858 49.4806Z" fill="#214975" fill-opacity="0.42"/>
<path d="M178.494 53.3843C178.595 53.5871 178.798 53.6885 179.001 53.6885C179.102 53.6885 179.204 53.6378 179.305 53.5871C179.609 53.3843 179.66 53.0295 179.508 52.776C179.153 52.2183 178.798 51.6606 178.443 51.1536C178.24 50.8495 177.885 50.7988 177.581 51.0016C177.277 51.2043 177.226 51.5592 177.429 51.8634C177.784 52.269 178.139 52.8267 178.494 53.3843Z" fill="#214975" fill-opacity="0.42"/>
<path d="M173.069 45.7291C173.171 45.8812 173.373 45.9826 173.526 45.9826C173.678 45.9826 173.779 45.9319 173.88 45.8305C174.134 45.6277 174.185 45.2221 173.982 44.9686C173.576 44.4617 173.171 43.9547 172.765 43.4477C172.562 43.1942 172.157 43.1435 171.903 43.3463C171.65 43.5491 171.599 43.9547 171.802 44.2082C172.258 44.7152 172.664 45.2221 173.069 45.7291Z" fill="#214975" fill-opacity="0.42"/>
<path d="M170.027 42.1295C170.129 42.2816 170.332 42.3323 170.484 42.3323C170.636 42.3323 170.788 42.2816 170.889 42.1802C171.143 41.9774 171.143 41.5718 170.94 41.3183C170.534 40.8114 170.078 40.3551 169.622 39.8481C169.419 39.5946 169.014 39.5946 168.76 39.7974C168.507 40.0509 168.507 40.4058 168.709 40.6593C169.166 41.1662 169.622 41.6225 170.027 42.1295Z" fill="#214975" fill-opacity="0.42"/>
<path d="M183.057 61.5974C183.158 61.8002 183.361 61.9523 183.614 61.9523C183.716 61.9523 183.817 61.9523 183.868 61.9016C184.172 61.7495 184.274 61.3946 184.172 61.0904C183.868 60.4821 183.614 59.9244 183.31 59.316C183.158 59.0119 182.803 58.9105 182.499 59.0626C182.195 59.2146 182.094 59.5695 182.246 59.8737C182.448 60.4314 182.753 60.9891 183.057 61.5974Z" fill="#214975" fill-opacity="0.42"/>
<path d="M185.389 132.27C185.085 132.118 184.73 132.27 184.578 132.574C184.324 133.182 184.071 133.74 183.817 134.348C183.665 134.652 183.817 135.007 184.121 135.159C184.223 135.21 184.274 135.21 184.375 135.21C184.628 135.21 184.831 135.058 184.933 134.855C185.186 134.247 185.49 133.689 185.744 133.081C185.845 132.726 185.693 132.371 185.389 132.27Z" fill="#214975" fill-opacity="0.42"/>
<path d="M182.245 139.418C182.448 139.418 182.651 139.317 182.803 139.114C183.107 138.556 183.411 137.948 183.716 137.39C183.868 137.086 183.766 136.731 183.462 136.579C183.158 136.427 182.803 136.528 182.651 136.832C182.347 137.39 182.093 137.998 181.789 138.556C181.637 138.86 181.738 139.215 182.043 139.367C182.043 139.418 182.144 139.418 182.245 139.418Z" fill="#214975" fill-opacity="0.42"/>
<path d="M179.913 143.575C180.116 143.575 180.319 143.474 180.42 143.271C180.775 142.713 181.079 142.156 181.384 141.598C181.536 141.294 181.434 140.939 181.181 140.787C180.877 140.635 180.522 140.736 180.37 140.99C180.065 141.547 179.711 142.105 179.406 142.663C179.254 142.967 179.305 143.322 179.609 143.474C179.711 143.524 179.812 143.575 179.913 143.575Z" fill="#214975" fill-opacity="0.42"/>
<path d="M180.877 57.3894C180.978 57.5922 181.181 57.6936 181.384 57.6936C181.485 57.6936 181.586 57.6936 181.688 57.5922C181.992 57.4401 182.093 57.0852 181.941 56.781C181.637 56.2234 181.282 55.6657 180.978 55.0573C180.826 54.7531 180.42 54.6517 180.167 54.8545C179.863 55.0066 179.761 55.4122 179.964 55.6657C180.268 56.2741 180.573 56.8317 180.877 57.3894Z" fill="#214975" fill-opacity="0.42"/>
<path d="M115.274 13.9418C115.933 13.9925 116.542 14.0939 117.201 14.1446C117.251 14.1446 117.251 14.1446 117.302 14.1446C117.606 14.1446 117.86 13.9418 117.91 13.6376C117.961 13.2827 117.708 12.9785 117.403 12.9785C116.744 12.8771 116.085 12.8264 115.477 12.7757C115.122 12.725 114.869 12.9785 114.818 13.3334C114.716 13.5869 114.97 13.8911 115.274 13.9418Z" fill="#214975" fill-opacity="0.42"/>
<path d="M21.9909 115.996C22.2951 115.945 22.5486 115.59 22.4472 115.286C22.3458 114.677 22.1937 114.018 22.0923 113.41C22.0416 113.055 21.7374 112.852 21.3825 112.903C21.0277 112.954 20.8249 113.258 20.8756 113.613C20.977 114.272 21.1291 114.88 21.2305 115.539C21.2811 115.843 21.5346 116.046 21.8388 116.046C21.9402 115.996 21.9909 115.996 21.9909 115.996Z" fill="#214975" fill-opacity="0.42"/>
<path d="M24.8299 124.361C24.6271 123.752 24.475 123.144 24.2722 122.535C24.1708 122.231 23.8666 122.028 23.5118 122.13C23.2076 122.231 23.0048 122.535 23.1062 122.89C23.309 123.499 23.4611 124.158 23.6639 124.766C23.7652 125.02 23.968 125.172 24.2215 125.172C24.2722 125.172 24.3229 125.172 24.4243 125.121C24.7285 125.02 24.9313 124.665 24.8299 124.361Z" fill="#214975" fill-opacity="0.42"/>
<path d="M23.5119 119.849C23.3598 119.24 23.2077 118.581 23.0556 117.973C23.0049 117.669 22.65 117.466 22.3458 117.517C22.0417 117.567 21.8389 117.922 21.8896 118.226C22.0417 118.835 22.1938 119.494 22.3458 120.102C22.3965 120.356 22.65 120.558 22.9542 120.558C23.0049 120.558 23.0556 120.558 23.1063 120.558C23.4105 120.508 23.6133 120.153 23.5119 119.849Z" fill="#214975" fill-opacity="0.42"/>
<path d="M26.3508 128.822C26.148 128.214 25.8945 127.605 25.6918 126.997C25.5904 126.693 25.2355 126.49 24.9313 126.642C24.6271 126.743 24.4243 127.098 24.5764 127.403C24.7792 128.011 25.0327 128.619 25.2355 129.228C25.3369 129.481 25.5397 129.633 25.7931 129.633C25.8438 129.633 25.9452 129.633 25.9959 129.583C26.3001 129.481 26.4522 129.126 26.3508 128.822Z" fill="#214975" fill-opacity="0.42"/>
<path d="M20.318 101.902C20.318 101.902 20.3687 101.902 20.318 101.902C20.6729 101.902 20.9264 101.598 20.9264 101.293C20.9264 100.634 20.8757 100.026 20.8757 99.3669C20.8757 99.012 20.6222 98.7585 20.2673 98.7585C19.9124 98.7585 19.6589 99.012 19.6589 99.3669C19.6589 100.026 19.6589 100.685 19.7096 101.344C19.7603 101.648 20.0138 101.902 20.318 101.902Z" fill="#214975" fill-opacity="0.42"/>
<path d="M20.3181 97.1869C20.673 97.1869 20.9265 96.9334 20.9265 96.5785C20.9265 95.9194 20.9772 95.3111 20.9772 94.652C20.9772 94.2971 20.7237 94.0436 20.4195 93.9929C20.0646 93.9929 19.8111 94.2464 19.7604 94.5506C19.7097 95.2097 19.7097 95.8687 19.7097 96.5278C19.7097 96.8827 19.9632 97.1362 20.3181 97.1869Z" fill="#214975" fill-opacity="0.42"/>
<path d="M28.1253 133.131C27.9732 132.726 27.7704 132.371 27.6183 131.965C27.5169 131.763 27.4662 131.56 27.3648 131.357C27.2127 131.053 26.8578 130.901 26.5536 131.053C26.2495 131.205 26.0974 131.56 26.2495 131.864C26.3509 132.067 26.4015 132.27 26.5029 132.472C26.655 132.878 26.8578 133.284 27.0099 133.638C27.1113 133.841 27.3141 133.993 27.5676 133.993C27.669 133.993 27.7197 133.993 27.8211 133.943C28.1253 133.79 28.2774 133.436 28.1253 133.131Z" fill="#214975" fill-opacity="0.42"/>
<path d="M69.2917 21.7493C69.3931 21.7493 69.4438 21.7493 69.5452 21.6986C70.1028 21.4451 70.7112 21.1409 71.3196 20.8874C71.6238 20.7353 71.7759 20.3804 71.6238 20.0763C71.4717 19.7721 71.1168 19.62 70.8126 19.7721C70.2042 20.0256 69.6466 20.3297 69.0382 20.5832C68.734 20.7353 68.5819 21.0902 68.734 21.3944C68.8354 21.6479 69.0889 21.7493 69.2917 21.7493Z" fill="#214975" fill-opacity="0.42"/>
<path d="M20.6727 106.616C21.0275 106.566 21.2303 106.312 21.2303 105.957C21.1796 105.298 21.1289 104.69 21.0782 104.031C21.0782 103.676 20.7741 103.423 20.4192 103.473C20.0643 103.473 19.8108 103.777 19.8615 104.132C19.9122 104.791 19.9629 105.45 20.0136 106.059C20.0643 106.363 20.3178 106.616 20.622 106.616C20.622 106.616 20.622 106.616 20.6727 106.616Z" fill="#214975" fill-opacity="0.42"/>
<path d="M190.763 114.171C190.408 114.12 190.104 114.323 190.053 114.678C189.952 115.286 189.799 115.945 189.698 116.553C189.647 116.858 189.85 117.212 190.154 117.263C190.205 117.263 190.256 117.263 190.256 117.263C190.56 117.263 190.763 117.06 190.864 116.807C191.016 116.148 191.118 115.539 191.27 114.88C191.32 114.525 191.118 114.221 190.763 114.171Z" fill="#214975" fill-opacity="0.42"/>
<path d="M191.472 109.506C191.118 109.456 190.813 109.709 190.813 110.013C190.712 110.673 190.661 111.281 190.56 111.94C190.509 112.295 190.712 112.599 191.067 112.65C191.118 112.65 191.118 112.65 191.168 112.65C191.472 112.65 191.726 112.447 191.777 112.143C191.878 111.484 191.979 110.875 192.03 110.216C192.081 109.811 191.827 109.506 191.472 109.506Z" fill="#214975" fill-opacity="0.42"/>
<path d="M191.929 104.792C191.574 104.741 191.32 104.994 191.27 105.349C191.219 106.008 191.168 106.617 191.117 107.276C191.067 107.631 191.32 107.884 191.675 107.935H191.726C192.03 107.935 192.284 107.681 192.334 107.377C192.385 106.718 192.436 106.059 192.486 105.451C192.537 105.096 192.284 104.792 191.929 104.792Z" fill="#214975" fill-opacity="0.42"/>
<path d="M192.131 100.026C191.777 100.026 191.523 100.279 191.523 100.634C191.523 101.293 191.472 101.902 191.472 102.561C191.472 102.916 191.726 103.169 192.03 103.169C192.03 103.169 192.03 103.169 192.081 103.169C192.385 103.169 192.689 102.916 192.689 102.611C192.74 101.952 192.74 101.293 192.74 100.634C192.74 100.33 192.486 100.077 192.131 100.026Z" fill="#214975" fill-opacity="0.42"/>
<path d="M29.2914 135.666C29.1393 135.362 28.7844 135.261 28.4802 135.362C28.176 135.514 28.0746 135.869 28.176 136.173C28.4802 136.782 28.7337 137.339 29.0379 137.948C29.1393 138.15 29.3421 138.302 29.5956 138.302C29.6969 138.302 29.7983 138.302 29.849 138.252C30.1532 138.1 30.2546 137.745 30.1025 137.441C29.849 136.832 29.5449 136.224 29.2914 135.666Z" fill="#214975" fill-opacity="0.42"/>
<path d="M20.5207 92.4214C20.5207 92.4214 20.5714 92.4214 20.5207 92.4214C20.8756 92.4214 21.1291 92.1679 21.1798 91.8638C21.2305 91.2047 21.2812 90.5963 21.3319 89.9372C21.3826 89.5824 21.1291 89.3289 20.7742 89.2782C20.4193 89.2275 20.1659 89.481 20.1152 89.8359C20.0645 90.4949 20.0138 91.154 19.9631 91.7624C19.9631 92.1172 20.1659 92.4214 20.5207 92.4214Z" fill="#214975" fill-opacity="0.42"/>
<path d="M31.8263 142.409C31.9277 142.409 32.0291 142.358 32.1305 142.308C32.4346 142.155 32.536 141.75 32.3332 141.496C32.0291 140.939 31.6742 140.381 31.37 139.823C31.2179 139.519 30.863 139.418 30.5588 139.57C30.2547 139.722 30.1533 140.077 30.3053 140.381C30.6095 140.939 30.9644 141.547 31.2686 142.105C31.4207 142.308 31.6235 142.409 31.8263 142.409Z" fill="#214975" fill-opacity="0.42"/>
<path d="M187.112 127.859C186.808 127.758 186.453 127.91 186.352 128.214C186.149 128.822 185.896 129.431 185.642 130.039C185.541 130.343 185.693 130.698 185.997 130.85C186.048 130.901 186.149 130.901 186.2 130.901C186.453 130.901 186.656 130.749 186.758 130.495C187.011 129.887 187.214 129.278 187.467 128.67C187.569 128.315 187.417 127.96 187.112 127.859Z" fill="#214975" fill-opacity="0.42"/>
<path d="M189.799 118.784C189.495 118.683 189.14 118.885 189.09 119.24C188.938 119.849 188.785 120.508 188.583 121.116C188.481 121.42 188.684 121.775 188.988 121.876C189.039 121.876 189.09 121.876 189.14 121.876C189.394 121.876 189.647 121.674 189.749 121.42C189.901 120.812 190.104 120.153 190.256 119.544C190.357 119.189 190.154 118.885 189.799 118.784Z" fill="#214975" fill-opacity="0.42"/>
<path d="M188.583 123.347C188.278 123.245 187.924 123.448 187.822 123.752C187.619 124.361 187.417 124.969 187.214 125.577C187.112 125.882 187.264 126.236 187.619 126.338C187.67 126.338 187.771 126.389 187.822 126.389C188.076 126.389 188.329 126.236 188.38 125.983C188.583 125.375 188.785 124.766 188.988 124.107C189.09 123.803 188.887 123.448 188.583 123.347Z" fill="#214975" fill-opacity="0.42"/>
<path d="M21.1799 111.331C21.5348 111.281 21.7376 110.977 21.6869 110.672C21.5855 110.064 21.5348 109.405 21.4334 108.746C21.3827 108.391 21.0785 108.188 20.7743 108.188C20.4195 108.239 20.2167 108.543 20.2167 108.847C20.2674 109.506 20.3688 110.165 20.4702 110.774C20.5209 111.078 20.7743 111.281 21.0785 111.281C21.1292 111.331 21.1799 111.331 21.1799 111.331Z" fill="#214975" fill-opacity="0.42"/>
<path d="M46.123 37.9724C46.275 37.9724 46.4271 37.9217 46.5285 37.8203C46.9848 37.3641 47.4411 36.9078 47.8974 36.5022C48.1509 36.2487 48.1509 35.8938 47.9481 35.6403C47.6946 35.3869 47.3397 35.3869 47.0862 35.5896C46.6299 36.0459 46.123 36.5022 45.6667 36.9585C45.4132 37.212 45.4132 37.5668 45.6667 37.8203C45.8188 37.871 45.9709 37.9724 46.123 37.9724Z" fill="#214975" fill-opacity="0.42"/>
<path d="M42.8275 41.3689C42.9796 41.3689 43.1317 41.3182 43.2838 41.1661C43.7401 40.7099 44.1457 40.2029 44.6019 39.7466C44.8554 39.4931 44.8047 39.1383 44.6019 38.8848C44.3484 38.6313 43.9936 38.682 43.7401 38.8848C43.2838 39.341 42.8275 39.848 42.4219 40.3043C42.2192 40.5578 42.2192 40.9127 42.4726 41.1661C42.574 41.3182 42.6754 41.3689 42.8275 41.3689Z" fill="#214975" fill-opacity="0.42"/>
<path d="M36.4905 48.5174C36.5919 48.6188 36.744 48.6188 36.8454 48.6188C37.0481 48.6188 37.2002 48.5174 37.3523 48.3653C37.7072 47.8584 38.1128 47.3514 38.5184 46.8444C38.7212 46.5909 38.6705 46.1853 38.417 45.9826C38.1635 45.7798 37.7579 45.8305 37.5551 46.0839C37.1495 46.5909 36.744 47.1486 36.3891 47.6556C36.1356 47.9598 36.237 48.3653 36.4905 48.5174Z" fill="#214975" fill-opacity="0.42"/>
<path d="M39.7352 44.918C39.8873 44.918 40.0901 44.8673 40.1915 44.7152C40.5971 44.2082 41.0027 43.7012 41.4082 43.245C41.611 42.9915 41.611 42.5859 41.3575 42.3831C41.1041 42.1803 40.6985 42.1803 40.4957 42.4338C40.0901 42.9408 39.6338 43.4477 39.2282 43.9547C39.0255 44.2082 39.0762 44.6138 39.3296 44.8166C39.4817 44.8673 39.6338 44.918 39.7352 44.918Z" fill="#214975" fill-opacity="0.42"/>
<path d="M49.6209 34.7277C49.773 34.7277 49.9251 34.677 50.0265 34.5756C50.4828 34.1701 50.9897 33.7138 51.4967 33.3082C51.7502 33.1054 51.8009 32.6998 51.5474 32.4464C51.3446 32.1929 50.939 32.1422 50.6855 32.3957C50.1786 32.8012 49.6716 33.2575 49.2153 33.6631C48.9618 33.8659 48.9618 34.2715 49.1646 34.5249C49.266 34.677 49.4181 34.7277 49.6209 34.7277Z" fill="#214975" fill-opacity="0.42"/>
<path d="M53.2713 31.6858C53.4234 31.6858 53.5248 31.6351 53.6262 31.5337C54.1331 31.1281 54.6401 30.7226 55.1471 30.3677C55.4006 30.1649 55.4513 29.81 55.2485 29.5058C55.0457 29.2523 54.6908 29.2016 54.3866 29.4044C53.8796 29.81 53.322 30.2156 52.815 30.5705C52.5615 30.7733 52.5108 31.1788 52.7136 31.4323C52.8657 31.6351 53.0685 31.6858 53.2713 31.6858Z" fill="#214975" fill-opacity="0.42"/>
<path d="M65.0838 23.9291C65.1852 23.9291 65.2866 23.9291 65.388 23.8784C65.9456 23.5742 66.5033 23.27 67.1117 22.9658C67.4159 22.8137 67.5173 22.4588 67.3652 22.1547C67.2131 21.8505 66.8582 21.7491 66.554 21.9012C65.9963 22.2054 65.388 22.5095 64.8303 22.8137C64.5261 22.9658 64.4247 23.3207 64.5768 23.6249C64.6782 23.777 64.881 23.9291 65.0838 23.9291Z" fill="#214975" fill-opacity="0.42"/>
<path d="M60.9772 26.3119C61.0786 26.3119 61.18 26.2612 61.2814 26.2105C61.8391 25.8557 62.3967 25.5515 62.9544 25.1966C63.2586 25.0445 63.36 24.6389 63.1572 24.3854C63.0051 24.0813 62.5995 23.9799 62.346 24.1827C61.7884 24.4868 61.2307 24.8417 60.673 25.1966C60.3688 25.3487 60.3181 25.7543 60.4702 26.0078C60.6223 26.2105 60.7744 26.3119 60.9772 26.3119Z" fill="#214975" fill-opacity="0.42"/>
<path d="M20.9771 87.7064C21.0278 87.7064 21.0278 87.7064 21.0785 87.7064C21.3826 87.7064 21.6361 87.5036 21.6868 87.1994C21.7882 86.5403 21.8896 85.932 21.991 85.2729C22.0417 84.918 21.8389 84.6138 21.484 84.5631C21.1292 84.5124 20.825 84.7152 20.7743 85.0701C20.6729 85.7292 20.5715 86.3375 20.4701 86.9966C20.4194 87.4022 20.6729 87.7064 20.9771 87.7064Z" fill="#214975" fill-opacity="0.42"/>
<path d="M57.0736 28.8976C57.175 28.8976 57.3271 28.8469 57.4285 28.7962C57.9354 28.4413 58.4931 28.0865 59.0001 27.7316C59.3043 27.5288 59.355 27.1739 59.1522 26.8697C58.9494 26.5655 58.5945 26.5148 58.2903 26.7176C57.7326 27.0725 57.2257 27.4274 56.668 27.833C56.4145 28.0358 56.3131 28.3906 56.5159 28.6948C56.668 28.7962 56.8708 28.8976 57.0736 28.8976Z" fill="#214975" fill-opacity="0.42"/>
<path d="M25.4384 69.4048C25.4891 69.4555 25.5905 69.4555 25.6412 69.4555C25.8947 69.4555 26.0975 69.3034 26.1989 69.05C26.4017 68.4416 26.6551 67.8332 26.9086 67.2755C27.01 66.9714 26.8579 66.6165 26.5538 66.4644C26.2496 66.363 25.8947 66.5151 25.7426 66.8193C25.4891 67.4276 25.2863 68.036 25.0328 68.6444C24.9821 68.8979 25.1342 69.2527 25.4384 69.4048Z" fill="#214975" fill-opacity="0.42"/>
<path d="M23.9682 73.8661C24.0189 73.8661 24.0696 73.9168 24.171 73.9168C24.4245 73.9168 24.678 73.7647 24.7287 73.5112C24.9315 72.9028 25.1343 72.2944 25.337 71.6861C25.4384 71.3819 25.2863 71.027 24.9315 70.9256C24.6273 70.8242 24.2724 70.9763 24.171 71.3312C23.9682 71.9396 23.7654 72.5479 23.5626 73.207C23.4612 73.4098 23.664 73.7647 23.9682 73.8661Z" fill="#214975" fill-opacity="0.42"/>
<path d="M22.7007 78.4287C22.7514 78.4287 22.8021 78.4287 22.8528 78.4287C23.1062 78.4287 23.3597 78.2259 23.4611 77.9725C23.6132 77.3641 23.7653 76.705 23.9681 76.0967C24.0695 75.7925 23.8667 75.4376 23.5625 75.3362C23.2583 75.2348 22.9035 75.4376 22.8021 75.7418C22.65 76.3501 22.4472 77.0092 22.2951 77.6176C22.1937 78.0232 22.3965 78.3273 22.7007 78.4287Z" fill="#214975" fill-opacity="0.42"/>
<path d="M21.7374 83.0422C21.7881 83.0422 21.8388 83.0422 21.8388 83.0422C22.143 83.0422 22.3965 82.8394 22.4472 82.5352C22.5486 81.9269 22.7007 81.2678 22.8528 80.6594C22.9035 80.3552 22.7007 80.0004 22.3965 79.9497C22.0923 79.899 21.7374 80.1018 21.6867 80.4059C21.5346 81.0143 21.4332 81.6734 21.2811 82.3324C21.1797 82.6873 21.3825 82.9915 21.7374 83.0422Z" fill="#214975" fill-opacity="0.42"/>
<path d="M29.1901 60.6848C29.2914 60.7355 29.3928 60.7355 29.4435 60.7355C29.6463 60.7355 29.8998 60.6341 30.0012 60.3806C30.3054 59.823 30.6096 59.2146 30.8631 58.6569C31.0152 58.3527 30.9138 57.9978 30.6096 57.8458C30.3054 57.6937 29.9505 57.7951 29.7984 58.0992C29.4942 58.6569 29.1901 59.2653 28.8859 59.823C28.7338 60.1778 28.8859 60.5327 29.1901 60.6848Z" fill="#214975" fill-opacity="0.42"/>
<path d="M27.2127 64.9941C27.3141 65.0448 27.3648 65.0448 27.4662 65.0448C27.7196 65.0448 27.9224 64.8927 28.0238 64.6899C28.2773 64.0815 28.5308 63.5239 28.835 62.9155C28.9871 62.6113 28.835 62.2564 28.5308 62.1043C28.2266 61.9523 27.8717 62.1043 27.7196 62.4085C27.4662 63.0169 27.162 63.5746 26.9085 64.1829C26.7564 64.4871 26.9085 64.842 27.2127 64.9941Z" fill="#214975" fill-opacity="0.42"/>
<path d="M32.7894 144.538C32.8401 144.64 32.9415 144.741 32.9922 144.842H34.4117C34.2089 144.538 34.0061 144.183 33.8034 143.879C33.6513 143.575 33.2457 143.524 32.9922 143.676C32.688 143.879 32.5866 144.234 32.7894 144.538Z" fill="#214975" fill-opacity="0.42"/>
<path d="M31.37 56.5276C31.4714 56.5783 31.5728 56.629 31.6742 56.629C31.877 56.629 32.0798 56.5276 32.1812 56.3248C32.4854 55.7671 32.8403 55.2095 33.1444 54.6518C33.2965 54.3476 33.2458 53.9927 32.9417 53.8406C32.6375 53.6885 32.2826 53.7392 32.1305 54.0434C31.7756 54.6011 31.4714 55.1588 31.1166 55.7164C31.0152 55.9699 31.1166 56.3248 31.37 56.5276Z" fill="#214975" fill-opacity="0.42"/>
<path d="M33.8035 52.4719C33.9049 52.5226 34.0063 52.5733 34.1584 52.5733C34.3612 52.5733 34.564 52.4719 34.6654 52.3198C35.0203 51.7622 35.3751 51.2552 35.73 50.6975C35.9328 50.444 35.8314 50.0385 35.5779 49.8357C35.3244 49.6329 34.9189 49.7343 34.7161 49.9878C34.3612 50.5454 34.0063 51.0524 33.6514 51.6101C33.4486 51.9143 33.55 52.2691 33.8035 52.4719Z" fill="#214975" fill-opacity="0.42"/>
<path d="M182.905 128.214L168.709 134.855L182.905 143.778L197.1 134.855L182.905 128.214Z" fill="#9E9E9E"/>
<path d="M190.966 149.608H174.844C173.982 149.608 173.272 148.898 173.272 148.036V126.49C173.272 125.628 173.982 124.918 174.844 124.918H190.966C191.827 124.918 192.537 125.628 192.537 126.49V148.036C192.537 148.898 191.827 149.608 190.966 149.608Z" fill="white"/>
<path d="M190.459 128.467H175.452C175.25 128.467 175.047 128.265 175.047 128.062V128.011C175.047 127.808 175.25 127.605 175.452 127.605H190.459C190.662 127.605 190.865 127.808 190.865 128.011V128.062C190.865 128.315 190.712 128.467 190.459 128.467Z" fill="#1C976E"/>
<path d="M190.459 130.546H175.452C175.25 130.546 175.047 130.343 175.047 130.14V130.09C175.047 129.887 175.25 129.684 175.452 129.684H190.459C190.662 129.684 190.864 129.887 190.864 130.09V130.14C190.864 130.343 190.712 130.546 190.459 130.546Z" fill="#1C976E"/>
<path d="M190.459 132.574H175.452C175.25 132.574 175.047 132.371 175.047 132.168V132.118C175.047 131.915 175.25 131.712 175.452 131.712H190.459C190.662 131.712 190.864 131.915 190.864 132.118V132.168C190.864 132.371 190.712 132.574 190.459 132.574Z" fill="#1C976E"/>
<path d="M190.459 134.602H175.452C175.25 134.602 175.047 134.399 175.047 134.196V134.145C175.047 133.943 175.25 133.74 175.452 133.74H190.459C190.662 133.74 190.864 133.943 190.864 134.145V134.196C190.864 134.45 190.712 134.602 190.459 134.602Z" fill="#1C976E"/>
<path d="M190.459 136.63H175.452C175.25 136.63 175.047 136.427 175.047 136.224V136.173C175.047 135.971 175.25 135.768 175.452 135.768H190.459C190.662 135.768 190.864 135.971 190.864 136.173V136.224C190.864 136.478 190.712 136.63 190.459 136.63Z" fill="#1C976E"/>
<path d="M190.459 138.708H175.452C175.25 138.708 175.047 138.505 175.047 138.302V138.252C175.047 138.049 175.25 137.846 175.452 137.846H190.459C190.662 137.846 190.864 138.049 190.864 138.252V138.302C190.864 138.505 190.712 138.708 190.459 138.708Z" fill="#1C976E"/>
<path d="M190.459 140.736H175.452C175.25 140.736 175.047 140.533 175.047 140.331V140.28C175.047 140.077 175.25 139.874 175.452 139.874H190.459C190.662 139.874 190.864 140.077 190.864 140.28V140.331C190.864 140.533 190.712 140.736 190.459 140.736Z" fill="#1C976E"/>
<path d="M190.459 142.764H175.452C175.25 142.764 175.047 142.561 175.047 142.358V142.308C175.047 142.105 175.25 141.902 175.452 141.902H190.459C190.662 141.902 190.864 142.105 190.864 142.308V142.358C190.864 142.612 190.712 142.764 190.459 142.764Z" fill="#1C976E"/>
<path d="M190.459 144.792H175.452C175.25 144.792 175.047 144.589 175.047 144.386V144.336C175.047 144.133 175.25 143.93 175.452 143.93H190.459C190.662 143.93 190.864 144.133 190.864 144.336V144.386C190.864 144.64 190.712 144.792 190.459 144.792Z" fill="#1C976E"/>
<path d="M190.459 146.871H175.452C175.25 146.871 175.047 146.668 175.047 146.465V146.414C175.047 146.212 175.25 146.009 175.452 146.009H190.459C190.662 146.009 190.864 146.212 190.864 146.414V146.465C190.864 146.668 190.712 146.871 190.459 146.871Z" fill="#1C976E"/>
<path d="M182.905 143.778L168.709 134.855V153.563H197.1V134.855L182.905 143.778Z" fill="#214975"/>
<path d="M168.709 153.562L182.905 143.778L197.1 153.562H168.709Z" fill="#1C976E"/>
<path d="M66.8582 37.4659C66.8582 40.4571 64.4247 42.8906 61.4336 42.8906H61.3829C61.3829 42.8906 61.3829 42.8906 61.3322 42.8906C61.2815 42.8906 61.2815 42.8906 61.2308 42.8906H36.237C36.1863 42.8906 36.1863 42.8906 36.1356 42.8906H36.0849C32.384 42.8906 29.4435 39.8994 29.4435 36.2492C29.4435 35.6915 29.4942 35.1339 29.6463 34.6269C30.3561 31.7371 32.9923 29.6078 36.0849 29.6078C37.3016 29.6078 38.4677 29.912 39.4309 30.5204C39.4816 30.5711 39.583 30.6218 39.6337 30.6725C40.09 26.4646 43.6895 23.22 47.9988 23.22C52.0039 23.22 55.4006 26.0083 56.2118 29.8106C57.7834 30.1655 59.2029 31.0781 60.1154 32.3455C60.521 32.2441 60.9773 32.1934 61.4336 32.1934C64.0699 32.1934 66.3005 34.0692 66.7568 36.6041C66.8582 36.8069 66.8582 37.1111 66.8582 37.4659Z" fill="#1C976E"/>
<path d="M66.8068 36.4514C66.1478 38.6821 64.0692 40.3044 61.6357 40.3044H61.585C61.585 40.3044 61.585 40.3044 61.5343 40.3044C61.4836 40.3044 61.4836 40.3044 61.4329 40.3044H36.3377C36.287 40.3044 36.287 40.3044 36.2363 40.3044H36.1856C32.8395 40.3044 30.0512 37.8203 29.5949 34.5756C30.3047 31.6859 32.9409 29.5566 36.0335 29.5566C37.2502 29.5566 38.4163 29.8608 39.3795 30.4691C39.4302 30.5198 39.5316 30.5705 39.5823 30.6212C40.0386 26.4133 43.6381 23.1687 47.9474 23.1687C51.9525 23.1687 55.3492 25.9571 56.1604 29.7594C57.732 30.1142 59.1515 31.0268 60.0641 32.2942C60.4696 32.1928 60.9259 32.1421 61.3822 32.1421C64.1199 32.0408 66.2998 33.9673 66.8068 36.4514Z" fill="#FBFBFB"/>
<path d="M48.7593 31.8379H46.123V35.4881H48.7593V31.8379Z" fill="#214975"/>
<path d="M45.6161 30.4692C45.6668 29.4552 46.4779 28.6948 47.4412 28.6948C48.4551 28.6948 49.2663 29.5059 49.2663 30.4692H50.3816C50.3309 28.8976 49.0635 27.6301 47.4919 27.6301C45.9202 27.6301 44.6021 28.8976 44.6021 30.4692H45.6161Z" fill="#174356"/>
<path d="M50.8886 30.2664H44.0444C43.5882 30.2664 43.2333 30.6212 43.2333 31.0775V36.2487C43.2333 36.7049 43.5882 37.0598 44.0444 37.0598H50.8886C51.3449 37.0598 51.6997 36.7049 51.6997 36.2487V31.0775C51.6997 30.6212 51.3449 30.2664 50.8886 30.2664ZM48.1002 35.1333H46.8835L47.0356 33.9166C46.8328 33.7645 46.6807 33.511 46.6807 33.2575C46.6807 32.8012 47.0356 32.4463 47.4919 32.4463C47.9481 32.4463 48.303 32.8012 48.303 33.2575C48.303 33.511 48.1509 33.7645 47.9481 33.9166L48.1002 35.1333Z" fill="#1C976E"/>
<path d="M120.446 2.58557V11.9139H97.9866V1.41953C97.9866 1.31813 97.9866 1.16604 98.0373 1.06465C98.1894 0.456277 98.747 0 99.4061 0H108.329C109.14 0 109.799 0.659066 109.799 1.47023V1.77441L119.533 1.82511C120.04 1.77441 120.446 2.07859 120.446 2.58557Z" fill="#214975"/>
<path d="M119.838 3.90367V15.5641C119.838 16.1725 119.331 16.6794 118.722 16.6794H99.5588C98.9504 16.6794 98.4434 16.1725 98.4434 15.5641V3.90367C98.4434 3.2953 98.9504 2.78833 99.5588 2.78833H118.722C119.331 2.83903 119.838 3.2953 119.838 3.90367Z" fill="white"/>
<path d="M100.724 14.7022C100.521 14.7022 100.319 14.5501 100.319 14.3473V4.61343C100.319 4.41064 100.471 4.25854 100.724 4.25854C100.927 4.25854 101.13 4.41064 101.13 4.61343V14.3473C101.13 14.5501 100.927 14.7022 100.724 14.7022Z" fill="#1C976E"/>
<path d="M102.6 14.7022C102.397 14.7022 102.194 14.5501 102.194 14.3473V4.61343C102.194 4.41064 102.397 4.25854 102.6 4.25854C102.803 4.25854 103.006 4.41064 103.006 4.61343V14.3473C103.006 14.5501 102.803 14.7022 102.6 14.7022Z" fill="#1C976E"/>
<path d="M104.476 14.7022C104.273 14.7022 104.07 14.5501 104.07 14.3473V4.61343C104.07 4.41064 104.222 4.25854 104.476 4.25854C104.679 4.25854 104.881 4.41064 104.881 4.61343V14.3473C104.881 14.5501 104.679 14.7022 104.476 14.7022Z" fill="#1C976E"/>
<path d="M106.352 14.7022C106.149 14.7022 105.946 14.5501 105.946 14.3473V4.61343C105.946 4.41064 106.098 4.25854 106.352 4.25854C106.554 4.25854 106.757 4.41064 106.757 4.61343V14.3473C106.757 14.5501 106.554 14.7022 106.352 14.7022Z" fill="#1C976E"/>
<path d="M108.227 14.7022C108.025 14.7022 107.822 14.5501 107.822 14.3473V4.61343C107.822 4.41064 108.025 4.25854 108.227 4.25854C108.43 4.25854 108.633 4.41064 108.633 4.61343V14.3473C108.633 14.5501 108.43 14.7022 108.227 14.7022Z" fill="#1C976E"/>
<path d="M110.103 14.7022C109.9 14.7022 109.698 14.5501 109.698 14.3473V4.61343C109.698 4.41064 109.85 4.25854 110.103 4.25854C110.306 4.25854 110.509 4.41064 110.509 4.61343V14.3473C110.509 14.5501 110.357 14.7022 110.103 14.7022Z" fill="#1C976E"/>
<path d="M111.979 14.7022C111.776 14.7022 111.574 14.5501 111.574 14.3473V4.61343C111.574 4.41064 111.776 4.25854 111.979 4.25854C112.182 4.25854 112.385 4.41064 112.385 4.61343V14.3473C112.385 14.5501 112.233 14.7022 111.979 14.7022Z" fill="#1C976E"/>
<path d="M113.855 14.7022C113.652 14.7022 113.449 14.5501 113.449 14.3473V4.61343C113.449 4.41064 113.652 4.25854 113.855 4.25854C114.058 4.25854 114.261 4.41064 114.261 4.61343V14.3473C114.261 14.5501 114.108 14.7022 113.855 14.7022Z" fill="#1C976E"/>
<path d="M115.782 14.7022C115.579 14.7022 115.376 14.5501 115.376 14.3473V4.61343C115.376 4.41064 115.528 4.25854 115.782 4.25854C115.984 4.25854 116.187 4.41064 116.187 4.61343V14.3473C116.136 14.5501 115.984 14.7022 115.782 14.7022Z" fill="#1C976E"/>
<path d="M117.657 14.7022C117.455 14.7022 117.252 14.5501 117.252 14.3473V4.61343C117.252 4.41064 117.455 4.25854 117.657 4.25854C117.86 4.25854 118.063 4.41064 118.063 4.61343V14.3473C118.012 14.5501 117.86 14.7022 117.657 14.7022Z" fill="#1C976E"/>
<path opacity="0.2" d="M119.837 5.32324V15.5641C119.837 16.1725 119.33 16.6795 118.722 16.6795H99.5585C98.9501 16.6795 98.4431 16.1725 98.4431 15.5641V5.32324H119.837Z" fill="#214975"/>
<path d="M120.75 6.89501V21.3438C120.75 21.5466 120.598 21.6987 120.395 21.6987H98.0373C97.8346 21.6987 97.6825 21.5466 97.6825 21.3438V6.89501C97.6825 6.74291 97.7839 6.59082 97.936 6.59082H97.9866H120.344H120.395C120.598 6.59082 120.75 6.74291 120.75 6.89501Z" fill="#1C976E"/>
<path opacity="0.2" d="M117.454 7.95955V21.6479H98.0373C97.8346 21.6479 97.6825 21.4958 97.6825 21.293V6.8949C97.6825 6.74281 97.7839 6.59072 97.936 6.59072V1.41958C97.936 1.31818 97.9359 1.16609 97.9866 1.0647H105.034C105.845 1.0647 106.504 1.72376 106.504 2.53492V2.83911L116.238 2.8898C116.795 2.8898 117.201 3.19399 117.201 3.75166V7.60466C117.353 7.65536 117.454 7.80745 117.454 7.95955Z" fill="#214975"/>
<path d="M115.427 5.01908V14.3474H92.9678V3.80234C92.9678 3.04188 93.5761 2.38281 94.3873 2.38281H103.31C104.121 2.38281 104.78 3.04188 104.78 3.85304V4.15722L114.514 4.20792C115.021 4.15722 115.427 4.46141 115.427 5.01908Z" fill="#214975"/>
<path d="M114.768 6.28649V17.9469C114.768 18.5553 114.261 19.0622 113.652 19.0622H94.4886C93.8803 19.0622 93.3733 18.5553 93.3733 17.9469V6.28649C93.3733 5.67812 93.8803 5.17114 94.4886 5.17114H113.652C114.261 5.22184 114.768 5.72881 114.768 6.28649Z" fill="white"/>
<path d="M95.6545 17.1358C95.4517 17.1358 95.2489 16.9837 95.2489 16.7809V7.04702C95.2489 6.84423 95.401 6.69214 95.6545 6.69214C95.8573 6.69214 96.0601 6.84423 96.0601 7.04702V16.7809C96.0601 16.9837 95.8573 17.1358 95.6545 17.1358Z" fill="#1C976E"/>
<path d="M97.5303 17.1358C97.3275 17.1358 97.1247 16.9837 97.1247 16.7809V7.04702C97.1247 6.84423 97.2768 6.69214 97.5303 6.69214C97.7331 6.69214 97.9359 6.84423 97.9359 7.04702V16.7809C97.9359 16.9837 97.7331 17.1358 97.5303 17.1358Z" fill="#1C976E"/>
<path d="M99.4061 17.1358C99.2033 17.1358 99.0005 16.9837 99.0005 16.7809V7.04702C99.0005 6.84423 99.2033 6.69214 99.4061 6.69214C99.6089 6.69214 99.8117 6.84423 99.8117 7.04702V16.7809C99.8117 16.9837 99.6596 17.1358 99.4061 17.1358Z" fill="#1C976E"/>
<path d="M101.282 17.1358C101.079 17.1358 100.876 16.9837 100.876 16.7809V7.04702C100.876 6.84423 101.028 6.69214 101.282 6.69214C101.485 6.69214 101.688 6.84423 101.688 7.04702V16.7809C101.688 16.9837 101.535 17.1358 101.282 17.1358Z" fill="#1C976E"/>
<path d="M103.158 17.1358C102.955 17.1358 102.752 16.9837 102.752 16.7809V7.04702C102.752 6.84423 102.904 6.69214 103.158 6.69214C103.361 6.69214 103.563 6.84423 103.563 7.04702V16.7809C103.563 16.9837 103.411 17.1358 103.158 17.1358Z" fill="#1C976E"/>
<path d="M105.084 17.1358C104.882 17.1358 104.679 16.9837 104.679 16.7809V7.04702C104.679 6.84423 104.831 6.69214 105.084 6.69214C105.287 6.69214 105.49 6.84423 105.49 7.04702V16.7809C105.439 16.9837 105.287 17.1358 105.084 17.1358Z" fill="#1C976E"/>
<path d="M106.96 17.1358C106.757 17.1358 106.555 16.9837 106.555 16.7809V7.04702C106.555 6.84423 106.707 6.69214 106.96 6.69214C107.163 6.69214 107.366 6.84423 107.366 7.04702V16.7809C107.315 16.9837 107.163 17.1358 106.96 17.1358Z" fill="#1C976E"/>
<path d="M108.836 17.1358C108.633 17.1358 108.43 16.9837 108.43 16.7809V7.04702C108.43 6.84423 108.633 6.69214 108.836 6.69214C109.039 6.69214 109.242 6.84423 109.242 7.04702V16.7809C109.242 16.9837 109.039 17.1358 108.836 17.1358Z" fill="#1C976E"/>
<path d="M110.712 17.1358C110.509 17.1358 110.306 16.9837 110.306 16.7809V7.04702C110.306 6.84423 110.458 6.69214 110.712 6.69214C110.915 6.69214 111.117 6.84423 111.117 7.04702V16.7809C111.117 16.9837 110.915 17.1358 110.712 17.1358Z" fill="#1C976E"/>
<path d="M112.587 17.1358C112.385 17.1358 112.182 16.9837 112.182 16.7809V7.04702C112.182 6.84423 112.385 6.69214 112.587 6.69214C112.79 6.69214 112.993 6.84423 112.993 7.04702V16.7809C112.993 16.9837 112.79 17.1358 112.587 17.1358Z" fill="#1C976E"/>
<path opacity="0.2" d="M114.767 7.70605V17.9469C114.767 18.5553 114.26 19.0623 113.652 19.0623H94.4884C93.8801 19.0623 93.3731 18.5553 93.3731 17.9469V7.70605H114.767Z" fill="#214975"/>
<path d="M114.109 24.0307H94.1845C93.3226 24.0307 92.6129 23.3209 92.6129 22.4591V10.4945C92.6129 9.63262 93.3226 8.92285 94.1845 8.92285H114.109C114.97 8.92285 115.68 9.63262 115.68 10.4945V22.4591C115.68 23.3716 114.97 24.0307 114.109 24.0307Z" fill="#1C976E"/>
<path d="M199.229 90.495H185.896C185.186 90.495 184.628 89.9373 184.628 89.2276V67.3263C184.628 66.6165 185.186 66.0588 185.896 66.0588H199.229C199.939 66.0588 200.496 66.6165 200.496 67.3263V89.2276C200.496 89.9373 199.939 90.495 199.229 90.495Z" fill="white"/>
<path d="M186.91 68.6443C186.91 68.3908 187.113 68.188 187.315 68.188H198.418C198.621 68.188 198.824 68.3908 198.824 68.6443C198.824 68.8977 198.621 69.1005 198.418 69.1005H187.315C187.062 69.0498 186.91 68.8471 186.91 68.6443Z" fill="#1C976E"/>
<path d="M186.91 70.7737C186.91 70.5202 187.113 70.3174 187.315 70.3174H198.418C198.621 70.3174 198.824 70.5202 198.824 70.7737C198.824 71.0272 198.621 71.2299 198.418 71.2299H187.315C187.062 71.2299 186.91 71.0272 186.91 70.7737Z" fill="#1C976E"/>
<path d="M186.91 72.9028C186.91 72.6493 187.113 72.4465 187.315 72.4465H198.418C198.621 72.4465 198.824 72.6493 198.824 72.9028C198.824 73.1563 198.621 73.3591 198.418 73.3591H187.315C187.062 73.3591 186.91 73.1563 186.91 72.9028Z" fill="#1C976E"/>
<path d="M186.91 75.083C186.91 74.8295 187.113 74.6267 187.315 74.6267H198.418C198.621 74.6267 198.824 74.8295 198.824 75.083C198.824 75.3365 198.621 75.5393 198.418 75.5393H187.315C187.062 75.5393 186.91 75.3365 186.91 75.083Z" fill="#1C976E"/>
<path d="M186.91 77.2124C186.91 76.9589 187.113 76.7561 187.315 76.7561H198.418C198.621 76.7561 198.824 76.9589 198.824 77.2124C198.824 77.4659 198.621 77.6687 198.418 77.6687H187.315C187.062 77.6687 186.91 77.4659 186.91 77.2124Z" fill="#1C976E"/>
<path d="M186.91 79.3923C186.91 79.1388 187.113 78.936 187.315 78.936H198.418C198.621 78.936 198.824 79.1388 198.824 79.3923C198.824 79.6458 198.621 79.8486 198.418 79.8486H187.315C187.062 79.7979 186.91 79.5951 186.91 79.3923Z" fill="#1C976E"/>
<path d="M186.91 81.5215C186.91 81.268 187.113 81.0652 187.315 81.0652H198.418C198.621 81.0652 198.824 81.268 198.824 81.5215C198.824 81.775 198.621 81.9777 198.418 81.9777H187.315C187.062 81.9777 186.91 81.775 186.91 81.5215Z" fill="#1C976E"/>
<path d="M186.91 83.6509C186.91 83.3974 187.113 83.1946 187.315 83.1946H198.418C198.621 83.1946 198.824 83.3974 198.824 83.6509C198.824 83.9043 198.621 84.1071 198.418 84.1071H187.315C187.062 84.1071 186.91 83.9043 186.91 83.6509Z" fill="#1C976E"/>
<path d="M186.91 85.8308C186.91 85.5773 187.113 85.3745 187.315 85.3745H198.418C198.621 85.3745 198.824 85.5773 198.824 85.8308C198.824 86.0843 198.621 86.2871 198.418 86.2871H187.315C187.062 86.2871 186.91 86.0843 186.91 85.8308Z" fill="#1C976E"/>
<path d="M186.91 87.9602C186.91 87.7067 187.113 87.5039 187.315 87.5039H198.418C198.621 87.5039 198.824 87.7067 198.824 87.9602C198.824 88.2137 198.621 88.4165 198.418 88.4165H187.315C187.062 88.4165 186.91 88.2137 186.91 87.9602Z" fill="#1C976E"/>
<path opacity="0.2" d="M197.658 90.495H185.947C185.237 90.495 184.68 89.9373 184.68 89.2276V67.3263C184.68 66.6165 185.237 66.0588 185.947 66.0588H197.658V90.495Z" fill="#214975"/>
<path d="M195.833 65.8053V87.7066C195.833 88.4163 195.275 88.974 194.565 88.974H181.232C180.522 88.974 179.964 88.4163 179.964 87.7066V65.8053C179.964 65.0955 180.522 64.5378 181.232 64.5378H194.565C195.275 64.5885 195.833 65.1462 195.833 65.8053Z" fill="white"/>
<path d="M193.754 66.667H191.219C190.965 66.667 190.762 66.8698 190.762 67.1233C190.762 67.3768 190.965 67.5795 191.219 67.5795H193.754C193.956 67.5795 194.159 67.3768 194.159 67.1233C194.159 66.8698 194.007 66.667 193.754 66.667Z" fill="#1C976E"/>
<path d="M193.754 68.7964H191.219C190.965 68.7964 190.762 68.9992 190.762 69.2527C190.762 69.5062 190.965 69.7089 191.219 69.7089H193.754C193.956 69.7089 194.159 69.5062 194.159 69.2527C194.159 68.9992 194.007 68.7964 193.754 68.7964Z" fill="#1C976E"/>
<path d="M193.754 70.9763H191.219C190.965 70.9763 190.762 71.1791 190.762 71.4326C190.762 71.6861 190.965 71.8889 191.219 71.8889H193.754C193.956 71.8889 194.159 71.6861 194.159 71.4326C194.159 71.1791 194.007 70.9763 193.754 70.9763Z" fill="#1C976E"/>
<path d="M193.754 73.1057H191.219C190.965 73.1057 190.762 73.3085 190.762 73.562C190.762 73.8155 190.965 74.0183 191.219 74.0183H193.754C193.956 74.0183 194.159 73.8155 194.159 73.562C194.159 73.3085 194.007 73.1057 193.754 73.1057Z" fill="#1C976E"/>
<path d="M182.245 75.6914C182.245 75.4379 182.448 75.2351 182.651 75.2351H193.754C193.956 75.2351 194.159 75.4379 194.159 75.6914C194.159 75.9449 193.956 76.1477 193.754 76.1477H182.651C182.397 76.1477 182.245 75.9449 182.245 75.6914Z" fill="#1C976E"/>
<path d="M182.245 77.8713C182.245 77.6178 182.448 77.415 182.651 77.415H193.754C193.956 77.415 194.159 77.6178 194.159 77.8713C194.159 78.1248 193.956 78.3276 193.754 78.3276H182.651C182.397 78.3276 182.245 78.1248 182.245 77.8713Z" fill="#1C976E"/>
<path d="M182.245 80.0005C182.245 79.747 182.448 79.5442 182.651 79.5442H193.754C193.956 79.5442 194.159 79.747 194.159 80.0005C194.159 80.254 193.956 80.4567 193.754 80.4567H182.651C182.397 80.4567 182.245 80.254 182.245 80.0005Z" fill="#1C976E"/>
<path d="M182.245 82.1804C182.245 81.9269 182.448 81.7241 182.651 81.7241H193.754C193.956 81.7241 194.159 81.9269 194.159 82.1804C194.159 82.4339 193.956 82.6367 193.754 82.6367H182.651C182.397 82.586 182.245 82.3832 182.245 82.1804Z" fill="#1C976E"/>
<path d="M182.245 84.3098C182.245 84.0563 182.448 83.8535 182.651 83.8535H193.754C193.956 83.8535 194.159 84.0563 194.159 84.3098C194.159 84.5633 193.956 84.7661 193.754 84.7661H182.651C182.397 84.7661 182.245 84.5633 182.245 84.3098Z" fill="#1C976E"/>
<path d="M182.245 86.4392C182.245 86.1857 182.448 85.9829 182.651 85.9829H193.754C193.956 85.9829 194.159 86.1857 194.159 86.4392C194.159 86.6927 193.956 86.8955 193.754 86.8955H182.651C182.397 86.8955 182.245 86.6927 182.245 86.4392Z" fill="#1C976E"/>
<path d="M188.228 70.4695V72.8016H183.209V67.7825H186.25C186.555 67.7825 186.757 67.5797 186.757 67.2755C186.757 66.9713 186.555 66.7686 186.25 66.7686H182.955C182.499 66.7686 182.144 67.1234 182.144 67.5797V73.0043C182.144 73.4606 182.499 73.8155 182.955 73.8155H188.38C188.836 73.8155 189.191 73.4606 189.191 73.0043V70.4695C189.191 70.1653 188.988 69.9625 188.684 69.9625C188.481 69.9625 188.228 70.1653 188.228 70.4695Z" fill="#03283B"/>
<path d="M185.541 71.5849C185.541 71.5849 185.49 71.5849 185.541 71.5849C185.338 71.5849 185.186 71.4835 185.084 71.3314L184.121 69.8612C183.969 69.6077 184.02 69.2528 184.273 69.1007C184.527 68.9486 184.882 68.9993 185.034 69.2528L185.642 70.1654L189.191 66.3124C189.394 66.1096 189.748 66.0589 189.951 66.2617C190.154 66.4645 190.205 66.8193 190.002 67.0221L185.997 71.3821C185.845 71.4835 185.693 71.5849 185.541 71.5849Z" fill="#03283B"/>
<path d="M162.539 38.2201L160.496 36.1768L149.383 47.2897L151.426 49.333L162.539 38.2201Z" fill="#02313D"/>
<path d="M160.477 36.1727L158.469 38.1802L160.513 40.2235L162.52 38.216L160.477 36.1727Z" fill="#1C976E"/>
<path d="M150.152 46.5236L149.363 47.3123L151.407 49.3556L152.195 48.5669L150.152 46.5236Z" fill="#1C976E"/>
<path d="M149.788 46.9043L149.393 47.2986L151.437 49.3422L151.831 48.9479L149.788 46.9043Z" fill="#214975"/>
<path d="M162.524 38.2259L161.815 38.9357C161.409 38.6822 161.054 38.378 160.699 38.0231C160.344 37.6682 160.04 37.3133 159.787 36.9078L160.497 36.198L162.524 38.2259Z" fill="#214975"/>
<path d="M166.783 39.7975C171.123 39.7975 174.641 36.2793 174.641 31.9394C174.641 27.5995 171.123 24.0813 166.783 24.0813C162.443 24.0813 158.925 27.5995 158.925 31.9394C158.925 36.2793 162.443 39.7975 166.783 39.7975Z" fill="#02313D"/>
<path d="M172.613 32.142C172.613 32.2941 172.613 32.3955 172.563 32.5476C172.563 32.5983 172.563 32.5983 172.563 32.649C172.512 33.0545 172.411 33.4601 172.309 33.8657C172.208 34.1699 172.056 34.4741 171.904 34.7782C171.853 34.8289 171.853 34.8796 171.802 34.9303C171.599 35.2852 171.346 35.6401 171.042 35.9443C170.991 35.995 170.94 36.0457 170.89 36.0964C170.738 36.2485 170.585 36.3499 170.433 36.502C170.332 36.6033 170.231 36.7047 170.078 36.7554C170.028 36.7554 170.028 36.8061 169.977 36.8061C169.622 37.0596 169.217 37.2624 168.862 37.4145C168.659 37.5159 168.456 37.5666 168.253 37.6173C167.949 37.7187 167.645 37.7694 167.29 37.7694C165.769 37.9215 164.248 37.5159 162.981 36.502C162.829 36.4006 162.677 36.2485 162.525 36.0964C162.474 36.0457 162.423 35.995 162.372 35.9443C162.018 35.5894 161.764 35.1838 161.511 34.7782C161.358 34.4741 161.206 34.1699 161.105 33.8657C161.004 33.5108 160.902 33.1559 160.852 32.801C160.852 32.7503 160.852 32.6996 160.852 32.649C160.852 32.5476 160.852 32.4969 160.852 32.3955C160.852 32.2941 160.852 32.2434 160.852 32.142V32.0913C160.852 31.7871 160.852 31.4322 160.902 31.128C160.953 30.8745 161.004 30.6211 161.054 30.4183V30.3676C161.105 30.2662 161.105 30.1141 161.156 30.0127C161.257 29.6578 161.409 29.3536 161.612 29.0494C161.865 28.5932 162.17 28.1876 162.575 27.8327C162.575 27.8327 162.575 27.8327 162.626 27.782C162.677 27.7313 162.778 27.6299 162.829 27.5792C163.386 27.0722 164.045 26.6667 164.755 26.4639C166.732 25.7541 169.014 26.109 170.636 27.5792C170.738 27.6299 170.788 27.7313 170.89 27.782C171.244 28.1369 171.599 28.5932 171.853 28.9987C171.904 29.0494 171.904 29.1508 171.954 29.2015C172.157 29.6071 172.309 29.962 172.411 30.3676C172.461 30.6211 172.512 30.8238 172.563 31.0773C172.613 31.4829 172.613 31.7871 172.613 32.142Z" fill="#1C976E"/>
<path d="M172.563 32.5983C172.512 33.0039 172.411 33.4095 172.309 33.8151C172.208 34.1192 172.056 34.4234 171.904 34.7276C171.853 34.7783 171.853 34.829 171.802 34.8797C171.599 35.2346 171.346 35.5895 171.042 35.8937C170.991 35.9444 170.94 35.995 170.89 36.0457C170.738 36.1978 170.585 36.2992 170.433 36.4513C170.332 36.5527 170.231 36.6541 170.078 36.7048C170.028 36.7048 170.028 36.7555 169.977 36.7555C169.622 37.009 169.217 37.2118 168.862 37.3639C168.659 37.4653 168.456 37.516 168.253 37.5667C167.949 37.6681 167.645 37.7188 167.29 37.7188C165.769 37.8709 164.248 37.4653 162.981 36.4513C162.829 36.3499 162.677 36.1978 162.525 36.0457C162.474 35.995 162.423 35.9444 162.372 35.8937C162.018 35.5388 161.764 35.1332 161.511 34.7276C161.358 34.4234 161.206 34.1192 161.105 33.8151C161.004 33.4602 160.902 33.1053 160.852 32.7504C160.852 32.6997 160.852 32.649 160.852 32.5983C160.852 32.5476 160.852 32.5476 160.852 32.4969C160.902 32.2434 160.953 31.99 161.004 31.7872V31.7365C161.054 31.6351 161.054 31.483 161.105 31.3816C161.206 31.0267 161.358 30.7225 161.561 30.4183C161.815 29.9621 162.119 29.5565 162.525 29.2016C162.525 29.2016 162.525 29.2016 162.575 29.1509C162.626 29.1002 162.727 28.9988 162.778 28.9481C163.336 28.4411 163.995 28.0356 164.705 27.8328C166.682 27.123 168.963 27.4779 170.585 28.9481C170.687 28.9988 170.738 29.1002 170.839 29.1509C171.194 29.5058 171.549 29.9621 171.802 30.3676C171.853 30.4183 171.853 30.5197 171.904 30.5704C172.106 30.976 172.258 31.3309 172.36 31.7365C172.411 31.99 172.461 32.1927 172.512 32.4462C172.563 32.5476 172.563 32.5983 172.563 32.5983Z" fill="#FBFBFB"/>
<path d="M32.1305 72.7001C32.0798 71.4326 31.0152 70.4187 29.7477 70.4187L27.517 70.4694H27.0608L25.8947 70.5201L24.0189 70.5708H23.3092H23.0557C22.3459 70.5708 21.7375 70.9257 21.332 71.4326C21.0785 71.7368 20.8757 72.1424 20.825 72.5987C20.825 72.7001 20.825 72.8522 20.825 72.9536V73.3085V73.6633L20.9264 77.4656V78.4796L20.9771 79.5949C21.0278 80.8624 22.0924 81.8763 23.3599 81.8763L30.0012 81.7242C31.2686 81.6735 32.2826 80.6089 32.2826 79.3415L32.1305 72.7001ZM27.0608 76.8066H26.2496C25.9961 76.8066 25.7426 76.7559 25.5398 76.6545C24.9822 76.4517 24.5259 75.894 24.4245 75.2857C24.4245 75.1843 24.3738 75.0829 24.3738 74.9815V74.9308V74.1703C24.3738 73.8154 24.4752 73.5112 24.6273 73.2578C24.9315 72.7001 25.4891 72.3452 26.1482 72.3452H26.2496H26.9594C27.3142 72.3452 27.6691 72.4466 27.9733 72.6494C28.4803 72.9536 28.8352 73.5112 28.8352 74.1703V74.9815C28.8352 75.9447 28.024 76.8066 27.0608 76.8066Z" fill="#1C976E"/>
<path d="M29.5448 80.761L29.8997 97.0349C27.3141 97.0856 25.1848 95.0577 25.1341 92.4721L25.0834 91.0526H24.1709L24.1202 89.8865H25.0327V89.0247H24.1202L24.0695 87.8586H24.982V87.2503H24.0695L24.0188 86.0842H24.9313L24.8299 80.8117L29.5448 80.761Z" fill="#1C976E"/>
<path d="M28.6322 94.0438C28.3787 94.0438 28.1759 93.841 28.1759 93.6382L27.9225 82.8904C27.9225 82.6369 28.1252 82.4848 28.328 82.4341H28.3787C28.6322 82.4341 28.7843 82.6369 28.835 82.8397L29.0885 93.5875C29.0378 93.841 28.835 94.0438 28.6322 94.0438Z" fill="#214975"/>
<path d="M26.6044 92.9792C26.3509 92.9792 26.1481 92.7764 26.1481 92.5737L25.9453 82.9411C25.9453 82.6877 26.1481 82.5356 26.3509 82.4849H26.4016C26.6551 82.4849 26.8072 82.6877 26.8579 82.8904L27.0607 92.523C27.01 92.7764 26.8072 92.9792 26.6044 92.9792Z" fill="#214975"/>
<path opacity="0.2" d="M25.8947 70.5203L24.0189 70.571H23.3092C23.2585 70.723 23.2078 70.9258 23.1064 71.0779L22.7008 71.737C22.5994 71.9398 22.4473 72.0919 22.2445 72.244C21.8389 72.5482 21.332 72.6496 20.825 72.5989C20.825 72.7002 20.825 72.8523 20.825 72.9537V73.3086V73.6635L20.9264 77.4658V78.4798C21.7882 78.5812 22.7008 78.1756 23.1571 77.4151L24.3738 75.4379C24.3738 75.3365 24.3231 75.2351 24.3231 75.1337V75.083V74.3226C24.3231 73.9677 24.4245 73.6635 24.5766 73.41C24.8808 72.8523 25.4384 72.4975 26.0975 72.4975H26.1989L26.6552 71.7877C26.9087 71.4328 27.0101 70.9765 27.0101 70.571L25.8947 70.5203Z" fill="#03283B"/>
<path d="M24.9821 67.5797L19.304 64.0816C18.2393 63.4225 16.7691 63.7267 16.11 64.8421L12.6119 70.4695C11.9529 71.5341 12.257 73.0044 13.3724 73.6634L19.0505 77.1615C19.6589 77.5164 20.3179 77.6178 20.9263 77.415C21.4333 77.2629 21.9402 76.9081 22.2444 76.4011L23.3091 74.6774L24.2216 73.2071L25.7426 70.723C25.7933 70.6216 25.8439 70.5709 25.8946 70.4695C26.3509 69.4555 25.996 68.1881 24.9821 67.5797ZM19.2533 71.4327L18.5942 71.0272C17.7324 70.5202 17.4789 69.3541 17.9858 68.543L18.3914 67.8839C18.8984 67.0221 20.0644 66.7686 20.8756 67.2756L21.5347 67.6811C22.3965 68.1881 22.65 69.3541 22.143 70.1653L21.7375 70.8244C21.6361 71.0272 21.484 71.1793 21.2812 71.3313C20.7235 71.7369 19.963 71.8383 19.304 71.4834C19.304 71.4834 19.2533 71.4834 19.2533 71.4327Z" fill="#1C976E"/>
<path d="M19.1519 76.1474L10.5841 89.9878C8.40406 88.619 7.745 85.7799 9.06313 83.5999L9.82359 82.3832L9.01243 81.8762L9.6208 80.8623L10.432 81.3693L10.8882 80.6595L10.0771 80.1525L10.6854 79.1386L11.4966 79.6455L11.8008 79.1386L10.9896 78.6316L11.598 77.6177L12.4092 78.1246L15.1975 73.6125L19.1519 76.1474Z" fill="#1C976E"/>
<path d="M11.1418 86.7433C10.939 86.5912 10.8376 86.3378 10.9897 86.135L16.6678 77.0094C16.7692 76.8066 17.0734 76.7559 17.2255 76.8573C17.4283 76.9587 17.479 77.2629 17.3776 77.415L11.6995 86.5405C11.5981 86.794 11.3446 86.8447 11.1418 86.7433Z" fill="#214975"/>
<path d="M10.0266 84.7153C9.82377 84.5632 9.72238 84.3097 9.87447 84.1069L14.9442 75.894C15.0456 75.6912 15.3498 75.6405 15.5019 75.7419C15.7047 75.8433 15.7554 76.1474 15.654 76.2995L10.5842 84.5125C10.4828 84.766 10.2294 84.8674 10.0266 84.7153Z" fill="#214975"/>
<path opacity="0.2" d="M24.374 74.2717V75.0321C24.1712 74.9814 24.0191 74.9814 23.8671 74.9307C23.6643 74.88 23.5122 74.8293 23.3094 74.7787C22.4475 74.4745 21.6364 74.0182 20.9773 73.4605C20.9266 73.4098 20.9266 73.4098 20.8759 73.3591C20.7238 73.2577 20.6224 73.1056 20.4703 73.0042C20.3182 72.8521 20.1661 72.7001 20.0647 72.548C19.8113 72.2438 19.5578 71.8889 19.355 71.5847C20.014 71.9396 20.7745 71.8889 21.3322 71.4326C21.3322 71.4833 21.3829 71.4833 21.3829 71.534C21.4336 71.5847 21.4843 71.6861 21.5857 71.7368C21.7885 71.9396 22.0419 72.1931 22.2954 72.3452C22.3461 72.3452 22.3461 72.3959 22.3968 72.3959C22.9545 72.8015 23.6136 73.1056 24.2726 73.3084C24.4247 73.3591 24.5261 73.3591 24.6782 73.4098C24.4247 73.6126 24.374 73.9168 24.374 74.2717Z" fill="#03283B"/>
<path d="M26.1483 59.6201C23.1064 59.6201 20.5209 61.4452 19.4055 64.0815L20.8757 64.994C21.6869 62.8648 23.7655 61.2931 26.1483 61.2931C29.2408 61.2931 31.7757 63.828 31.7757 66.9205C31.7757 68.2894 31.3194 69.5061 30.5083 70.4694C31.0659 70.6722 31.5222 71.027 31.8264 71.5847C32.891 70.3173 33.4994 68.695 33.4994 66.9205C33.4994 62.9154 30.2041 59.6201 26.1483 59.6201ZM27.9227 72.6494C27.7706 72.548 27.6692 72.4973 27.5171 72.4466C27.0608 72.548 26.6046 72.5987 26.1483 72.5987C25.8948 72.5987 25.6413 72.5987 25.3878 72.548C25.1343 72.4973 24.9315 72.4466 24.6781 72.3959C23.9683 72.1931 23.3599 71.8889 22.8022 71.4833C22.4981 71.2805 22.2446 71.027 22.0418 70.7736C21.9911 70.7229 21.9404 70.6215 21.839 70.5708C21.0278 69.6075 20.5209 68.3401 20.4702 67.0219C19.9125 66.8191 19.2534 66.9205 18.7971 67.3261C18.8985 68.9484 19.5069 70.4694 20.4702 71.6354C20.6223 71.7875 20.7237 71.9396 20.8757 72.0917C21.0278 72.2438 21.1799 72.3959 21.3827 72.548C22.0925 73.1056 22.8529 73.5619 23.7148 73.8661C23.9176 73.9168 24.1204 73.9675 24.3232 74.0182C24.8808 74.1703 25.4892 74.221 26.0976 74.221C27.0101 74.221 27.872 74.0689 28.6831 73.7647C28.6831 73.3591 28.379 72.9028 27.9227 72.6494Z" fill="#03283B"/>
<path d="M43.4866 150.064H18.3914V139.925C18.3914 138.81 19.3039 137.897 20.4193 137.897H41.5094C42.6248 137.897 43.5373 138.81 43.5373 139.925V150.064H43.4866Z" fill="#214975"/>
<path d="M39.7349 148.645H22.1429C21.4331 148.645 20.8755 148.087 20.8755 147.377V111.129C20.8755 110.419 21.4331 109.861 22.1429 109.861H39.7349C40.4447 109.861 41.0023 110.419 41.0023 111.129V147.377C41.0023 148.087 40.4447 148.645 39.7349 148.645Z" fill="#03283B"/>
<path d="M39.2282 115.844V142.612C39.2282 143.119 38.8226 143.524 38.3157 143.524H23.6134C23.4106 143.524 23.2585 143.474 23.1064 143.372C22.853 143.22 22.7009 142.916 22.7009 142.612V115.844C22.7009 115.235 23.1571 114.779 23.7655 114.779H38.1636C38.7213 114.779 39.2282 115.235 39.2282 115.844Z" fill="#FBFBFB"/>
<path d="M30.9645 137.542C23.1571 135.768 24.3738 126.084 24.3738 126.084L30.9138 123.245L37.4538 126.084C37.5044 126.084 38.7719 135.768 30.9645 137.542Z" fill="#03283B"/>
<path opacity="0.2" d="M30.9644 137.542V123.245L37.5044 126.084C37.5044 126.084 38.7718 135.768 30.9644 137.542Z" fill="#214975"/>
<path d="M36.1863 130.951C35.4259 133.943 33.6515 135.869 30.9138 136.528C28.1761 135.818 26.4524 133.943 25.6413 130.951C25.185 129.228 25.2357 127.555 25.2357 126.744L30.8631 124.31L36.4905 126.744C36.5919 127.555 36.6426 129.228 36.1863 130.951Z" fill="#174356"/>
<g opacity="0.2">
<path opacity="0.2" d="M36.1862 130.951C35.4257 133.943 33.6513 135.869 30.9137 136.528V124.31L36.5411 126.744C36.5918 127.555 36.6425 129.228 36.1862 130.951Z" fill="#214975"/>
</g>
<path d="M33.6513 128.315H33.3978C33.3978 128.061 33.2964 127.858 33.2457 127.656C32.8908 126.743 31.9783 126.135 30.9643 126.135C29.9504 126.135 29.0378 126.794 28.6829 127.656C28.5815 127.858 28.5308 128.112 28.5308 128.315H28.2773C27.9225 128.315 27.669 128.619 27.669 128.923V133.08C27.669 133.435 27.9732 133.689 28.2773 133.689H33.6513C34.0062 133.689 34.2596 133.384 34.2596 133.08V128.923C34.3103 128.568 34.0062 128.315 33.6513 128.315ZM31.5727 132.32H30.3052L30.6094 131.103C30.5587 131.052 30.508 131.052 30.508 131.002C30.3559 130.85 30.3052 130.698 30.3052 130.495C30.3052 130.393 30.3052 130.292 30.3559 130.191C30.4573 129.937 30.7108 129.785 30.9643 129.785C31.2178 129.785 31.4713 129.937 31.5727 130.191C31.6234 130.292 31.6234 130.393 31.6234 130.495C31.6234 130.698 31.5727 130.85 31.4206 131.002C31.3699 131.052 31.3192 131.103 31.2178 131.154L31.5727 132.32ZM29.1899 128.315C29.2406 128.061 29.2913 127.858 29.4434 127.656C29.7476 127.149 30.3052 126.845 30.9136 126.845C31.522 126.845 32.0797 127.149 32.3838 127.656C32.5359 127.858 32.5866 128.112 32.6373 128.315H29.1899Z" fill="#FBFBFB"/>
<path opacity="0.2" d="M29.4943 127.555L29.4436 127.606C29.2915 127.808 29.2408 128.062 29.1901 128.265H28.4297C28.4297 128.011 28.5311 127.808 28.5818 127.606C28.5818 127.606 28.5818 127.555 28.6325 127.555H29.4943Z" fill="#214975"/>
<path opacity="0.2" d="M33.398 128.315H32.6376C32.5869 128.062 32.5362 127.859 32.3841 127.656L32.3334 127.605H33.1952C33.1952 127.605 33.1952 127.656 33.2459 127.656C33.2966 127.808 33.398 128.062 33.398 128.315Z" fill="#214975"/>
<path opacity="0.2" d="M34.3105 128.924V133.081C34.3105 133.436 34.0063 133.689 33.7021 133.689H30.9645V132.32H31.5728L31.2686 131.104C31.3193 131.053 31.4207 131.002 31.4714 130.952C31.5728 130.85 31.6742 130.647 31.6742 130.445C31.6742 130.343 31.6235 130.242 31.6235 130.14C31.5221 129.887 31.2686 129.735 31.0152 129.735V128.265H32.6375C32.5868 128.011 32.5361 127.808 32.384 127.606C32.0798 127.149 31.5221 126.794 30.9138 126.794V126.034C31.9277 126.034 32.8403 126.693 33.1951 127.555C33.2965 127.758 33.3472 128.011 33.3472 128.214H33.6514C34.0063 128.315 34.3105 128.569 34.3105 128.924Z" fill="#214975"/>
<path d="M39.2281 115.844V117.263H22.6501V115.844C22.6501 115.235 23.1064 114.779 23.7147 114.779H38.1128C38.7212 114.779 39.2281 115.235 39.2281 115.844Z" fill="#1C976E"/>
<path d="M32.0291 145.755C32.0291 146.364 31.5222 146.871 30.9138 146.871C30.3054 146.871 29.7985 146.364 29.7985 145.755C29.7985 145.147 30.3054 144.64 30.9138 144.64C31.5222 144.64 32.0291 145.147 32.0291 145.755Z" fill="#284C5E"/>
<path d="M35.7806 113.157H26.6551C26.3509 113.157 26.1481 112.903 26.1481 112.65V112.599C26.1481 112.295 26.4016 112.092 26.6551 112.092H35.7806C36.0848 112.092 36.2876 112.346 36.2876 112.599V112.65C36.2876 112.903 36.0341 113.157 35.7806 113.157Z" fill="#284C5E"/>
<path d="M43.4866 147.682H18.3914V153.512H43.4866V147.682Z" fill="#1C976E"/>
<path d="M43.4866 150.622H18.3914V153.512H43.4866V150.622Z" fill="#214975"/>
<path d="M16.0553 109.545C17.5701 105.868 15.818 101.66 12.1419 100.145C8.46576 98.6306 4.25766 100.383 2.74283 104.059C1.22801 107.735 2.98009 111.943 6.65623 113.458C10.3324 114.973 14.5405 113.221 16.0553 109.545Z" fill="white"/>
<path d="M192.372 46.2887C193.887 42.6125 192.135 38.4044 188.459 36.8896C184.782 35.3748 180.574 37.1269 179.06 40.803C177.545 44.4791 179.297 48.6872 182.973 50.2021C186.649 51.7169 190.857 49.9648 192.372 46.2887Z" fill="white"/>
</svg>
