<svg id="Layer_1" data-name="Layer 1" xmlns="http://www.w3.org/2000/svg" viewBox="0 0 150 75.5"><defs><style>.cls-1{fill:#214975;}.cls-2{fill:#1c976e;}</style></defs><path class="cls-1" d="M7.41,57.66a7.9,7.9,0,0,1-4.64-1.37A7.2,7.2,0,0,1,0,52.57l3.12-1.15a5.37,5.37,0,0,0,1.77,2.21,4.39,4.39,0,0,0,2.64.83A3.88,3.88,0,0,0,10,53.75a2.39,2.39,0,0,0,.92-2,2.07,2.07,0,0,0-.26-1,3.08,3.08,0,0,0-.57-.77,4.18,4.18,0,0,0-1-.62c-.43-.2-.8-.37-1.1-.49s-.74-.27-1.32-.46c-.75-.26-1.32-.47-1.72-.62A12.65,12.65,0,0,1,3.41,47,5.64,5.64,0,0,1,2,46a4.73,4.73,0,0,1-.87-1.41,5,5,0,0,1-.38-2,4.8,4.8,0,0,1,1.74-3.76,6.94,6.94,0,0,1,4.72-1.52,6.85,6.85,0,0,1,4.1,1.17,5.6,5.6,0,0,1,2.19,3l-3,1a3.44,3.44,0,0,0-3.49-2,3.45,3.45,0,0,0-2.06.54,1.82,1.82,0,0,0-.74,1.56,1.63,1.63,0,0,0,.57,1.21,4.1,4.1,0,0,0,1.24.8q.66.27,2,.69l1.28.46c.29.1.69.28,1.22.52a8.73,8.73,0,0,1,1.23.66,9.16,9.16,0,0,1,1,.8,4.16,4.16,0,0,1,.88,1,6.28,6.28,0,0,1,.54,1.3,5.5,5.5,0,0,1,.22,1.61,5.29,5.29,0,0,1-2,4.34A7.59,7.59,0,0,1,7.41,57.66Z"/><path class="cls-1" d="M26.45,57.66a9,9,0,0,1-3.31-.59,7.16,7.16,0,0,1-2.46-1.59,9.29,9.29,0,0,1-1.63-2.32,10.84,10.84,0,0,1-.94-2.74,15.47,15.47,0,0,1,0-5.86,10.84,10.84,0,0,1,.94-2.74,9.29,9.29,0,0,1,1.63-2.32,7.16,7.16,0,0,1,2.46-1.59,9,9,0,0,1,3.31-.59,8.68,8.68,0,0,1,4,.89,6.73,6.73,0,0,1,2.69,2.39,11.53,11.53,0,0,1,1.45,3.24,14.12,14.12,0,0,1,0,7.3,11.53,11.53,0,0,1-1.45,3.24,6.73,6.73,0,0,1-2.69,2.39A8.68,8.68,0,0,1,26.45,57.66Zm0-3.23a4.44,4.44,0,0,0,2.39-.65,4.63,4.63,0,0,0,1.62-1.7,8.79,8.79,0,0,0,.85-2.22,9.85,9.85,0,0,0,.28-2.37A10.36,10.36,0,0,0,31.31,45a8.65,8.65,0,0,0-.85-2.2,4.47,4.47,0,0,0-1.6-1.66,4.62,4.62,0,0,0-2.41-.62,4.2,4.2,0,0,0-3,1.14,6,6,0,0,0-1.67,2.63,10.57,10.57,0,0,0-.46,3.17,10.31,10.31,0,0,0,.28,2.44,8.51,8.51,0,0,0,.85,2.22,4.47,4.47,0,0,0,1.6,1.66A4.61,4.61,0,0,0,26.45,54.43Z"/><path class="cls-1" d="M39.43,57.32V37.66H42.8V54.09h9.55v3.23Z"/><path class="cls-1" d="M63.1,57.66a10,10,0,0,1-2.92-.41A7.12,7.12,0,0,1,57.77,56a5.91,5.91,0,0,1-1.72-2.45,10,10,0,0,1-.61-3.69V37.66h3.37V49.82a4.72,4.72,0,0,0,1.11,3.58,5.42,5.42,0,0,0,6.37,0,4.74,4.74,0,0,0,1.11-3.57V37.66h3.37V49.82a10.19,10.19,0,0,1-.6,3.67,5.83,5.83,0,0,1-1.69,2.44,7.34,7.34,0,0,1-2.41,1.31A9.87,9.87,0,0,1,63.1,57.66Z"/><path class="cls-1" d="M83.38,40.89V57.32H80V40.89H74.42V37.66H89v3.23Z"/><path class="cls-1" d="M92.9,57.32V37.66h3.37V57.32Z"/><path class="cls-1" d="M130.5,57.32h-3.06L119.3,44.91a13.16,13.16,0,0,1-.82-1.46,11,11,0,0,1,.09,1.46V57.32h-3.34V37.66h3.25l8,12.22a14.62,14.62,0,0,1,.82,1.49,12.79,12.79,0,0,1-.09-1.49V37.66h3.34Z"/><path class="cls-1" d="M141.85,57.66a7.9,7.9,0,0,1-4.65-1.37,7.23,7.23,0,0,1-2.76-3.72l3.11-1.15a5.37,5.37,0,0,0,1.77,2.21,4.43,4.43,0,0,0,2.64.83,3.93,3.93,0,0,0,2.46-.71,2.38,2.38,0,0,0,.91-2,2.06,2.06,0,0,0-.25-1,3.11,3.11,0,0,0-.58-.77,4,4,0,0,0-1-.62c-.43-.2-.79-.37-1.09-.49s-.74-.27-1.32-.46l-1.73-.62a12.63,12.63,0,0,1-1.54-.74A5.71,5.71,0,0,1,136.41,46a5.17,5.17,0,0,1-.87-1.41,5,5,0,0,1-.37-2,4.8,4.8,0,0,1,1.74-3.76,6.93,6.93,0,0,1,4.71-1.52,6.83,6.83,0,0,1,4.1,1.17,5.66,5.66,0,0,1,2.2,3l-3,1a4.07,4.07,0,0,0-5.54-1.48,1.83,1.83,0,0,0-.75,1.56,1.61,1.61,0,0,0,.58,1.21,3.94,3.94,0,0,0,1.23.8q.66.27,1.95.69l1.28.46c.29.1.7.28,1.22.52a8.93,8.93,0,0,1,1.24.66,9.16,9.16,0,0,1,1,.8,4.22,4.22,0,0,1,.89,1,6.28,6.28,0,0,1,.53,1.3,5.49,5.49,0,0,1,.23,1.61,5.29,5.29,0,0,1-1.95,4.34A7.62,7.62,0,0,1,141.85,57.66Z"/><path class="cls-2" d="M113.13,45.72a6.83,6.83,0,1,0-10.55,5.72v2.15a3.73,3.73,0,1,0,7.45,0V51.44A6.86,6.86,0,0,0,113.13,45.72Zm-4.41,7.87a2.42,2.42,0,0,1-4.83,0V53h4.83Zm.33-3.09a.65.65,0,0,0-.33.57v.65H107v-3.4a2.13,2.13,0,0,0,1.48-2,.66.66,0,1,0-1.32,0,.82.82,0,0,1-.82.82.82.82,0,0,1-.81-.82.66.66,0,0,0-1.32,0,2.13,2.13,0,0,0,1.48,2v3.4h-1.76v-.65a.65.65,0,0,0-.33-.57,5.52,5.52,0,1,1,5.49,0Z"/><path class="cls-2" d="M105.77,34.52a.9.9,0,0,0-.9.9V37a.9.9,0,0,0,1.8,0V35.42A.91.91,0,0,0,105.77,34.52Z"/><path class="cls-2" d="M103.24,37.23l-.56-1.48a.9.9,0,0,0-1.15-.52.91.91,0,0,0-.53,1.16l.56,1.47a.9.9,0,0,0,.84.58.86.86,0,0,0,.32,0A.9.9,0,0,0,103.24,37.23Z"/><path class="cls-2" d="M110,35.23a.91.91,0,0,0-1.16.52l-.56,1.48a.91.91,0,0,0,.53,1.16.84.84,0,0,0,.31,0,.88.88,0,0,0,.84-.58l.56-1.47A.9.9,0,0,0,110,35.23Z"/><path class="cls-2" d="M10.37,30.41H8.9l-5.48-8.7a8.3,8.3,0,0,1-.48-.86c0,.35,0,.64,0,.86v8.7H1.46V18.23H3l5.39,8.66a10.4,10.4,0,0,1,.51.91c0-.42,0-.72,0-.89V18.23h1.52Z"/><path class="cls-2" d="M16.94,30.62a3.57,3.57,0,0,1-2.88-1.3A5.14,5.14,0,0,1,13,26a5,5,0,0,1,1.08-3.41,3.64,3.64,0,0,1,2.87-1.23,3.49,3.49,0,0,1,2.64,1.07,4.36,4.36,0,0,1,1,3.16,8.64,8.64,0,0,1-.06,1h-6a3.13,3.13,0,0,0,.76,2,2.16,2.16,0,0,0,1.68.74,2.58,2.58,0,0,0,1.91-.8l.93,1A3.94,3.94,0,0,1,16.94,30.62Zm-2.42-5.36h4.56a2.73,2.73,0,0,0-.65-2,2.06,2.06,0,0,0-1.49-.61,2.27,2.27,0,0,0-1.68.65A2.84,2.84,0,0,0,14.52,25.26Z"/><path class="cls-2" d="M25.11,30.62c-1.26,0-1.88-.71-1.88-2.13V22.84H21.78V21.52h1.45V18.57l1.51-.73v3.68h2.19v1.32H24.74V28a1.7,1.7,0,0,0,.19.9.79.79,0,0,0,.73.32A2.5,2.5,0,0,0,27,28.74l-.17,1.48A3.7,3.7,0,0,1,25.11,30.62Z"/><path class="cls-2" d="M30.71,30.41l-2.28-8.89h1.5l1.35,6c0,.07,0,.22.09.44s.08.39.1.5c0-.16.1-.47.23-.94l1.67-6h1.25l1.68,6,.24,1,.09-.49c0-.22.08-.38.1-.49l1.34-6h1.5l-2.28,8.89H35.93l-1.62-5.27q-.24-.8-.33-1.17c-.12.49-.22.88-.31,1.17l-1.6,5.27Z"/><path class="cls-2" d="M47.76,29.37a3.93,3.93,0,0,1-5.74,0A5,5,0,0,1,41,26,5.09,5.09,0,0,1,42,22.55a4,4,0,0,1,5.74,0A5.06,5.06,0,0,1,48.82,26,5.09,5.09,0,0,1,47.76,29.37Zm-4.63-1a2.24,2.24,0,0,0,3.53,0,4,4,0,0,0,.63-2.4,4,4,0,0,0-.63-2.38,2.23,2.23,0,0,0-3.53,0A4,4,0,0,0,42.49,26,3.91,3.91,0,0,0,43.13,28.35Z"/><path class="cls-2" d="M51.19,30.41V21.52h1.52v1.16a2.13,2.13,0,0,1,2.1-1.37,2.08,2.08,0,0,1,1.38.45L56,23.19a2.17,2.17,0,0,0-1.27-.39,1.91,1.91,0,0,0-1.38.61,2.77,2.77,0,0,0-.6,2v5Z"/><path class="cls-2" d="M65.1,30.41H63.44L60.69,25l-1.3,1.36v4H57.87V18.56l1.52-.72v6.74l2.89-3.06h1.81l-2.34,2.41Z"/><path class="cls-2" d="M74.2,30.62a3.52,3.52,0,0,1-2.54-.93,3.2,3.2,0,0,1-1-2.43,3.11,3.11,0,0,1,.73-2.12,7.65,7.65,0,0,1,2.09-1.62A10.7,10.7,0,0,1,72.44,22a2.74,2.74,0,0,1-.31-1.3A2.4,2.4,0,0,1,73,18.73,3.13,3.13,0,0,1,75.05,18a2.89,2.89,0,0,1,2,.75,2.54,2.54,0,0,1,.81,1.93,2.59,2.59,0,0,1-.58,1.69,7.32,7.32,0,0,1-1.68,1.41l2.28,2.73a5.41,5.41,0,0,0,.49-1.85h1.44a6.47,6.47,0,0,1-.92,3.05l2.25,2.68h-2L78,29A5,5,0,0,1,74.2,30.62Zm.24-1.41a3.5,3.5,0,0,0,2.65-1.36l-2.74-3.31a7.23,7.23,0,0,0-1.58,1.26,2,2,0,0,0-.52,1.37,1.91,1.91,0,0,0,.61,1.47A2.2,2.2,0,0,0,74.44,29.21ZM75,19.36a1.52,1.52,0,0,0-1,.35,1.24,1.24,0,0,0-.39.95,1.49,1.49,0,0,0,.18.66,4.12,4.12,0,0,0,.4.66l.66.81c1.1-.64,1.65-1.3,1.65-2A1.36,1.36,0,0,0,76,19.75,1.48,1.48,0,0,0,75,19.36Z"/><path class="cls-2" d="M90.89,30.62a4.77,4.77,0,0,1-2.69-.76,3.82,3.82,0,0,1-1.56-2l1.43-.52A3,3,0,0,0,89.2,28.7a3,3,0,0,0,1.72.49,2.72,2.72,0,0,0,1.76-.53,1.85,1.85,0,0,0,.64-1.52,1.88,1.88,0,0,0-.72-1.54,7.19,7.19,0,0,0-2-1c-.42-.15-.76-.28-1-.4a6.79,6.79,0,0,1-.94-.5,3.58,3.58,0,0,1-.85-.66A3,3,0,0,1,87,21a2.72,2.72,0,0,1,1-2.14A4.08,4.08,0,0,1,90.75,18a4.29,4.29,0,0,1,2.35.6,2.71,2.71,0,0,1,1.21,1.57l-1.39.47a2,2,0,0,0-.83-.88,2.76,2.76,0,0,0-1.45-.35,2.44,2.44,0,0,0-1.51.42A1.42,1.42,0,0,0,88.57,21a1.4,1.4,0,0,0,.2.73,1.72,1.72,0,0,0,.63.59,7.79,7.79,0,0,0,.79.42c.24.1.58.24,1,.4a13.11,13.11,0,0,1,1.32.56,7.34,7.34,0,0,1,1.13.73,2.77,2.77,0,0,1,.92,1.12,3.53,3.53,0,0,1,.32,1.52,3.19,3.19,0,0,1-1.12,2.58A4.34,4.34,0,0,1,90.89,30.62Z"/><path class="cls-2" d="M100.93,30.62a3.55,3.55,0,0,1-2.88-1.3A5.08,5.08,0,0,1,97,26a5.07,5.07,0,0,1,1.07-3.41,3.64,3.64,0,0,1,2.88-1.23,3.48,3.48,0,0,1,2.63,1.07,4.36,4.36,0,0,1,1,3.16c0,.32,0,.66,0,1h-6a3.13,3.13,0,0,0,.76,2,2.16,2.16,0,0,0,1.68.74,2.61,2.61,0,0,0,1.92-.8l.92,1A3.94,3.94,0,0,1,100.93,30.62Zm-2.42-5.36h4.56a2.73,2.73,0,0,0-.66-2,2.06,2.06,0,0,0-1.48-.61,2.28,2.28,0,0,0-1.69.65A2.83,2.83,0,0,0,98.51,25.26Z"/><path class="cls-2" d="M110,30.62a3.28,3.28,0,0,1-2.7-1.23,5.32,5.32,0,0,1-1-3.42,5.31,5.31,0,0,1,1-3.43,3.37,3.37,0,0,1,2.76-1.23,3,3,0,0,1,3.11,2.07l-1.42.52a1.67,1.67,0,0,0-1.68-1.18,1.86,1.86,0,0,0-1.67.85,4.4,4.4,0,0,0-.55,2.4,4.34,4.34,0,0,0,.55,2.38,1.82,1.82,0,0,0,1.62.84,1.73,1.73,0,0,0,1.81-1.32l1.41.47A3.1,3.1,0,0,1,112.11,30,3.59,3.59,0,0,1,110,30.62Z"/><path class="cls-2" d="M120.78,30.41v-.85a2.68,2.68,0,0,1-2.24,1.06,3.05,3.05,0,0,1-2.43-.94,4.61,4.61,0,0,1-.81-3V21.52h1.51v5.36a2.57,2.57,0,0,0,.52,1.76,1.79,1.79,0,0,0,1.4.57c1.37,0,2-.77,2-2.3V21.52h1.52v8.89Z"/><path class="cls-2" d="M125.18,30.41V21.52h1.52v1.16a2.15,2.15,0,0,1,2.1-1.37,2.08,2.08,0,0,1,1.38.45L130,23.19a2.15,2.15,0,0,0-1.27-.39,1.91,1.91,0,0,0-1.38.61,2.77,2.77,0,0,0-.6,2v5Z"/><path class="cls-2" d="M133.31,19.63a.95.95,0,0,1-1.62-.67,1,1,0,0,1,.28-.69.92.92,0,0,1,1.34,0,.94.94,0,0,1,.28.69A.89.89,0,0,1,133.31,19.63Zm-1.43,10.78V21.52h1.52v8.89Z"/><path class="cls-2" d="M138.69,30.62c-1.25,0-1.88-.71-1.88-2.13V22.84h-1.45V21.52h1.45V18.57l1.51-.73v3.68h2.2v1.32h-2.2V28a1.69,1.69,0,0,0,.2.9.78.78,0,0,0,.73.32,2.55,2.55,0,0,0,1.32-.47l-.18,1.48A3.67,3.67,0,0,1,138.69,30.62Z"/><path class="cls-2" d="M143.86,33.78l1.35-3.6-3.28-8.66h1.51l2.21,6.05c.08.2.17.48.28.85a7.66,7.66,0,0,1,.28-.85l2.24-6.05H150l-4.61,12.26Z"/><rect class="cls-2" x="1.5" y="32.54" width="142.94" height="1.25"/></svg>