<svg width="211" height="156" viewBox="0 0 211 156" fill="none" xmlns="http://www.w3.org/2000/svg">
<path d="M104.745 54.7701C119.594 54.7701 131.63 42.7332 131.63 27.885C131.63 13.0368 119.594 1 104.745 1C89.8973 1 77.8604 13.0368 77.8604 27.885C77.8604 42.7332 89.8973 54.7701 104.745 54.7701Z" stroke="#214975" stroke-miterlimit="10" stroke-dasharray="3.97 3.97"/>
<path d="M105.096 87.3345V54.9973" stroke="#214975" stroke-miterlimit="10" stroke-dasharray="4 4"/>
<path d="M123.942 30.364C125.236 19.7622 117.691 10.1183 107.09 8.8238C96.4878 7.52929 86.8439 15.0743 85.5494 25.6761C84.2549 36.2779 91.7999 45.9217 102.402 47.2162C113.003 48.5108 122.647 40.9657 123.942 30.364Z" fill="#1C976E"/>
<path d="M104.745 45.2681C114.284 45.2681 122.017 37.5355 122.017 27.9968C122.017 18.4582 114.284 10.7256 104.745 10.7256C95.2068 10.7256 87.4742 18.4582 87.4742 27.9968C87.4742 37.5355 95.2068 45.2681 104.745 45.2681Z" fill="white"/>
<path d="M105.025 12.123H104.299V14.6383H105.025V12.123Z" fill="#1C976E"/>
<path d="M105.025 41.6909H104.298V44.2061H105.025V41.6909Z" fill="#1C976E"/>
<path d="M120.69 28.5069V27.7803H118.174V28.5069H120.69Z" fill="#1C976E"/>
<path d="M91.1031 28.5254V27.7988H88.5879V28.5254H91.1031Z" fill="#1C976E"/>
<path d="M114.238 41.0854L114.81 40.6384L113.263 38.6552L112.69 39.1021L114.238 41.0854Z" fill="#1C976E"/>
<path d="M96.0537 17.724L96.6266 17.2771L95.0794 15.2941L94.5066 15.741L96.0537 17.724Z" fill="#1C976E"/>
<path d="M109.552 43.4574L110.239 43.2207L109.42 40.8428L108.733 41.0795L109.552 43.4574Z" fill="#1C976E"/>
<path d="M99.8967 15.5304L100.584 15.2937L99.7642 12.9158L99.0773 13.1525L99.8967 15.5304Z" fill="#1C976E"/>
<path d="M117.546 37.7909L117.968 37.1995L115.921 35.7384L115.499 36.3298L117.546 37.7909Z" fill="#1C976E"/>
<path d="M93.4444 20.5797L93.8665 19.9883L91.8194 18.5272L91.3973 19.1186L93.4444 20.5797Z" fill="#1C976E"/>
<path d="M119.722 33.7978L119.96 33.1113L117.584 32.2863L117.346 32.9728L119.722 33.7978Z" fill="#1C976E"/>
<path d="M91.7394 24.0846L91.9777 23.3982L89.6016 22.5732L89.3632 23.2596L91.7394 24.0846Z" fill="#1C976E"/>
<path d="M96.6246 39.0561L96.0517 38.6091L94.5045 40.5924L95.0775 41.0393L96.6246 39.0561Z" fill="#1C976E"/>
<path d="M114.828 15.7489L114.255 15.302L112.708 17.285L113.28 17.732L114.828 15.7489Z" fill="#1C976E"/>
<path d="M100.603 41.104L99.9156 40.8672L99.0959 43.2451L99.7828 43.4819L100.603 41.104Z" fill="#1C976E"/>
<path d="M110.226 13.0912L109.539 12.8545L108.72 15.2324L109.407 15.4691L110.226 13.0912Z" fill="#1C976E"/>
<path d="M93.8525 36.2928L93.4304 35.7014L91.3833 37.1625L91.8054 37.7539L93.8525 36.2928Z" fill="#1C976E"/>
<path d="M117.915 19.1275L117.492 18.5361L115.445 19.9972L115.867 20.5886L117.915 19.1275Z" fill="#1C976E"/>
<path d="M92.0181 32.9574L91.7798 32.271L89.4036 33.096L89.6419 33.7824L92.0181 32.9574Z" fill="#1C976E"/>
<path d="M119.935 23.2624L119.697 22.5759L117.321 23.4009L117.559 24.0874L119.935 23.2624Z" fill="#1C976E"/>
<path d="M97.0321 34.5923L96.6409 34.1452L104.131 27.8851V20.3953H104.746V28.1645L97.0321 34.5923Z" fill="#1C976E"/>
<path d="M156.112 67.3462H53.3789C50.696 67.3462 48.5721 69.3584 48.5721 71.8736V130.227C48.5721 132.742 50.7519 134.754 53.3789 134.754H156.112C158.795 134.754 160.919 132.742 160.919 130.227V71.8736C160.975 69.3584 158.795 67.3462 156.112 67.3462Z" fill="white"/>
<path d="M128.556 149.455H124.867C120.899 149.287 117.713 145.989 117.713 141.965V130.004C117.713 129.668 117.433 129.389 117.098 129.389H92.4487C92.1133 129.389 91.8339 129.668 91.8339 130.004V141.965C91.8339 145.989 88.6479 149.287 84.6794 149.455H80.9904C79.7608 149.455 78.8106 150.405 78.8106 151.634C78.8106 152.864 79.7608 153.814 80.9904 153.814H81.7171H127.83H128.556C129.786 153.814 130.736 152.864 130.736 151.634C130.736 150.461 129.73 149.455 128.556 149.455Z" fill="white"/>
<path d="M156.112 135.481H53.3788C50.3047 135.481 47.8453 133.134 47.8453 130.227V71.8737C47.8453 68.9672 50.3606 66.6196 53.3788 66.6196H156.112C159.186 66.6196 161.646 68.9672 161.646 71.8737V130.227C161.701 133.134 159.186 135.481 156.112 135.481Z" fill="white"/>
<path d="M156.112 69.3025C157.621 69.3025 158.795 70.4204 158.795 71.8737V130.227C158.795 131.624 157.565 132.798 156.112 132.798H53.3788C51.8697 132.798 50.6959 131.68 50.6959 130.227V71.8737C50.6959 70.4763 51.9256 69.3025 53.3788 69.3025H156.112ZM156.112 66.6196H53.3788C50.3047 66.6196 47.8453 68.9672 47.8453 71.8737V130.227C47.8453 133.134 50.3606 135.481 53.3788 135.481H156.112C159.186 135.481 161.646 133.134 161.646 130.227V71.8737C161.701 68.9672 159.186 66.6196 156.112 66.6196Z" fill="#1C976E"/>
<path d="M47.8453 122.681V130.227C47.8453 133.134 50.3606 135.481 53.3788 135.481H156.112C159.186 135.481 161.646 133.134 161.646 130.227V122.681H47.8453Z" fill="#214975"/>
<path d="M108.043 129.333C108.043 131.121 106.59 132.575 104.801 132.575C103.013 132.575 101.559 131.121 101.559 129.333C101.559 127.544 103.013 126.091 104.801 126.091C106.59 126.091 108.043 127.544 108.043 129.333Z" fill="white"/>
<path d="M61.9307 73.8301H61.3717V118.713H61.9307V73.8301Z" fill="#D9EAFA"/>
<path d="M72.8298 73.8301H72.2709V118.713H72.8298V73.8301Z" fill="#D9EAFA"/>
<path d="M83.7853 73.8301H83.2263V118.713H83.7853V73.8301Z" fill="#D9EAFA"/>
<path d="M94.6845 73.8301H94.1255V118.713H94.6845V73.8301Z" fill="#D9EAFA"/>
<path d="M105.64 73.8301H105.081V118.713H105.64V73.8301Z" fill="#D9EAFA"/>
<path d="M116.539 73.8301H115.98V118.713H116.539V73.8301Z" fill="#D9EAFA"/>
<path d="M127.494 73.8301H126.935V118.713H127.494V73.8301Z" fill="#D9EAFA"/>
<path d="M138.394 73.8301H137.835V118.713H138.394V73.8301Z" fill="#D9EAFA"/>
<path d="M149.293 73.8301H148.734V118.713H149.293V73.8301Z" fill="#D9EAFA"/>
<path d="M72.5505 77.7424H54.2172V80.4812H72.5505V77.7424Z" fill="#214975"/>
<path d="M60.8686 72.6562H54.2172V75.3951H60.8686V72.6562Z" fill="#1C976E"/>
<path d="M69.6441 72.6562H62.9927V75.3951H69.6441V72.6562Z" fill="#1C976E"/>
<path d="M80.7669 72.6562H74.1155V75.3951H80.7669V72.6562Z" fill="#1C976E"/>
<path d="M91.8897 72.6562H85.2383V75.3951H91.8897V72.6562Z" fill="#1C976E"/>
<path d="M103.013 72.6562H96.3613V75.3951H103.013V72.6562Z" fill="#1C976E"/>
<path d="M114.136 72.6562H107.484V75.3951H114.136V72.6562Z" fill="#1C976E"/>
<path d="M125.259 72.6562H118.607V75.3951H125.259V72.6562Z" fill="#1C976E"/>
<path d="M136.382 72.6562H129.73V75.3951H136.382V72.6562Z" fill="#1C976E"/>
<path d="M147.504 72.6562H140.853V75.3951H147.504V72.6562Z" fill="#1C976E"/>
<path d="M72.5505 83.7791H54.2172V86.5179H72.5505V83.7791Z" fill="#214975"/>
<path d="M72.5505 100.212H54.2172V102.951H72.5505V100.212Z" fill="#214975"/>
<path d="M95.9701 106.416H54.2172V109.155H95.9701V106.416Z" fill="#214975"/>
<path d="M101.615 83.7791H83.282V86.5179H101.615V83.7791Z" fill="#214975"/>
<path d="M130.904 90.0393H83.282V92.7781H130.904V90.0393Z" fill="#214975"/>
<path d="M78.4193 89.8716H54.2172V92.6104H78.4193V89.8716Z" fill="#214975"/>
<path opacity="0.4" d="M117.713 135.481H91.778V140.4H117.713V135.481Z" fill="#1C976E"/>
<path d="M156.783 94.7344H116.148V120.669H156.783V94.7344Z" fill="#214975"/>
<path d="M134.034 97.4731H117.936V98.9823H134.034V97.4731Z" fill="white"/>
<path d="M154.323 100.938H117.936V102.448H154.323V100.938Z" fill="white"/>
<path d="M154.323 104.572H117.936V106.081H154.323V104.572Z" fill="white"/>
<path d="M154.323 108.205H117.936V109.714H154.323V108.205Z" fill="white"/>
<path d="M154.323 111.838H117.936V113.347H154.323V111.838Z" fill="white"/>
<path d="M154.323 115.471H117.936V116.98H154.323V115.471Z" fill="white"/>
<path d="M34.7989 53.6243C42.53 48.7541 44.8492 38.5387 39.979 30.8076C35.1088 23.0765 24.8934 20.7573 17.1623 25.6275C9.43118 30.4977 7.11196 40.7131 11.9822 48.4442C16.8524 56.1753 27.0678 58.4945 34.7989 53.6243Z" fill="white"/>
<path d="M25.9907 39.6227L33.4246 54.3787C38.8464 51.6399 42.5354 46.0505 42.5354 39.6227C42.5354 38.896 42.4795 38.1694 42.3677 37.4428C38.2315 37.2751 32.9775 37.1633 32.9775 37.1633L25.9907 39.6227Z" fill="#9BD2F1"/>
<path d="M25.9907 23.0781V39.6228H42.5354C42.5354 30.512 35.1015 23.0781 25.9907 23.0781Z" fill="#214975"/>
<path d="M33.7043 54.267L26.7734 40.1258L42.5355 40.0699C42.5355 39.9022 42.5355 39.7904 42.5355 39.6228C42.5355 39.4551 42.5355 39.2874 42.5355 39.1197L26.4939 39.1756V23.0781C26.3263 23.0781 26.1586 23.0781 25.9909 23.0781C25.8232 23.0781 25.6555 23.0781 25.4878 23.0781V39.6228C25.4878 39.6786 25.4878 39.7345 25.5437 39.7904C25.5437 39.7904 25.5437 39.7904 25.5437 39.8463L32.81 54.7141C33.0894 54.6024 33.3689 54.4347 33.7043 54.267Z" fill="#1C976E"/>
<path d="M152.423 36.2134L151.137 36.1575C150.97 35.7663 150.746 35.3191 150.467 34.9838L151.081 33.8659C151.361 33.3628 151.249 32.748 150.802 32.4126L149.572 31.4065C149.349 31.2389 149.125 31.1271 148.846 31.1271C148.566 31.1271 148.287 31.2389 148.119 31.4065L147.113 32.3008C146.666 32.1332 146.219 32.0214 145.772 31.9096L145.436 30.6799C145.268 30.121 144.765 29.7856 144.207 29.8415L142.586 30.0092C142.027 30.0651 141.579 30.5122 141.579 31.0712L141.524 32.4126C141.132 32.5803 140.741 32.8039 140.35 33.0834L139.232 32.4685C139.008 32.3567 138.785 32.3008 138.561 32.3567C138.282 32.4126 138.002 32.5244 137.779 32.748L136.773 34.0336C136.437 34.4807 136.437 35.0955 136.828 35.4868L137.723 36.4929C137.555 36.94 137.443 37.3313 137.332 37.7785L136.102 38.1138C135.543 38.2815 135.208 38.7845 135.263 39.3435L135.431 40.9644C135.487 41.5234 135.934 41.9705 136.493 41.9705L137.835 42.0264C138.002 42.4177 138.226 42.8089 138.505 43.2002L137.89 44.3181C137.611 44.8211 137.723 45.4359 138.17 45.7713L139.456 46.7774C139.679 46.9451 140.014 47.0569 140.294 47.001C140.517 47.001 140.741 46.8892 140.909 46.7215L141.915 45.8272C142.306 45.9949 142.753 46.1067 143.2 46.2184L143.536 47.504C143.703 48.0629 144.207 48.3983 144.765 48.3424L146.386 48.1747C146.945 48.1188 147.392 47.6717 147.392 47.1128L147.448 45.8272C147.84 45.6595 148.287 45.4359 148.622 45.1565L149.74 45.7713C149.964 45.8831 150.187 45.939 150.411 45.8831C150.69 45.8272 150.97 45.7154 151.193 45.4918L152.199 44.2063C152.535 43.7591 152.535 43.1443 152.143 42.753L151.249 41.7469C151.417 41.2998 151.529 40.9085 151.64 40.4614L152.926 40.126C153.485 39.9583 153.82 39.4553 153.764 38.8963L153.597 37.2754C153.429 36.6606 152.982 36.2693 152.423 36.2134ZM144.821 42.3059C142.977 42.5294 141.356 41.188 141.188 39.3435C140.965 37.499 142.306 35.8781 144.151 35.7104C145.995 35.4868 147.616 36.8283 147.784 38.6728C147.951 40.4614 146.61 42.1382 144.821 42.3059Z" fill="#1C976E"/>
<path d="M165.39 29.8973L164.44 29.8414C164.328 29.506 164.161 29.2266 163.937 28.9471L164.44 28.1087C164.664 27.7733 164.552 27.3262 164.217 27.0467L163.322 26.3201C163.155 26.2083 162.987 26.0965 162.763 26.0965C162.54 26.0965 162.372 26.1524 162.204 26.3201L161.478 26.9908C161.142 26.879 160.807 26.7672 160.472 26.7113L160.192 25.817C160.08 25.4258 159.689 25.1463 159.298 25.2022L158.124 25.314C157.733 25.3699 157.397 25.7052 157.397 26.0965L157.342 27.1026C157.062 27.2144 156.727 27.3821 156.447 27.6056L155.609 27.1026C155.441 26.9908 155.274 26.9908 155.106 26.9908C154.882 26.9908 154.659 27.1026 154.547 27.3262L153.82 28.2764C153.541 28.6117 153.597 29.0589 153.82 29.3383L154.491 30.065C154.379 30.4003 154.267 30.6798 154.212 31.0152L153.317 31.2946C152.926 31.4064 152.647 31.7977 152.702 32.1889L152.814 33.3627C152.87 33.754 153.205 34.0893 153.597 34.0893L154.603 34.1452C154.715 34.4247 154.882 34.7601 155.106 35.0395L154.659 35.8779C154.435 36.2133 154.547 36.6605 154.882 36.9399L155.832 37.6666C156 37.8342 156.224 37.8901 156.447 37.8342C156.615 37.8342 156.783 37.7225 156.894 37.6107L157.621 36.9399C157.901 37.0517 158.236 37.1635 158.571 37.2194L158.739 38.1696C158.851 38.5609 159.242 38.8403 159.633 38.7844L160.807 38.6726C161.198 38.6168 161.534 38.2814 161.534 37.8901L161.59 36.9399C161.925 36.8281 162.204 36.6605 162.484 36.4369L163.322 36.9399C163.49 37.0517 163.658 37.0517 163.825 37.0517C164.049 37.0517 164.272 36.9399 164.384 36.7164L165.111 35.7662C165.39 35.4308 165.334 34.9836 165.111 34.7042L164.44 33.9776C164.552 33.6422 164.664 33.3627 164.72 33.0274L165.67 32.7479C166.061 32.6361 166.341 32.2448 166.285 31.8536L166.173 30.6798C166.173 30.2327 165.837 29.8973 165.39 29.8973ZM159.745 34.3688C158.404 34.5365 157.174 33.5304 157.062 32.1889C156.894 30.8475 157.901 29.6178 159.242 29.506C160.583 29.3383 161.813 30.3444 161.925 31.6859C162.093 33.0274 161.086 34.257 159.745 34.3688Z" fill="#214975"/>
<path d="M165.949 45.9388L164.999 45.8829C164.887 45.5475 164.72 45.2681 164.496 44.9886L164.999 44.1502C165.223 43.8148 165.111 43.3677 164.776 43.0882L163.881 42.3616C163.714 42.2498 163.546 42.138 163.322 42.138C163.099 42.138 162.931 42.1939 162.763 42.3616L162.037 43.0323C161.701 42.9205 161.366 42.8087 161.031 42.7528L160.751 41.8585C160.639 41.4673 160.248 41.1878 159.857 41.2437L158.683 41.3555C158.292 41.4114 157.956 41.7467 157.956 42.138L157.901 43.1441C157.621 43.2559 157.286 43.4236 157.006 43.6471L156.168 43.1441C156 43.0323 155.832 43.0323 155.665 43.0323C155.441 43.0323 155.218 43.1441 155.106 43.3677L154.379 44.3179C154.1 44.6532 154.156 45.1004 154.379 45.3799L155.05 46.1065C154.938 46.4418 154.826 46.7213 154.77 47.0567L153.876 47.3361C153.485 47.4479 153.205 47.8392 153.261 48.2304L153.373 49.4042C153.429 49.7955 153.764 50.1308 154.156 50.1308L155.162 50.1867C155.274 50.4662 155.441 50.8016 155.665 51.081L155.218 51.9195C154.994 52.2548 155.106 52.702 155.441 52.9814L156.391 53.7081C156.559 53.8757 156.783 53.9316 157.006 53.8757C157.174 53.8757 157.342 53.764 157.453 53.6522L158.18 52.9814C158.459 53.0932 158.795 53.205 159.13 53.2609L159.41 54.2111C159.521 54.6024 159.913 54.8818 160.304 54.8259L161.478 54.7142C161.869 54.6583 162.204 54.3229 162.204 53.9316L162.26 52.9814C162.596 52.8697 162.875 52.702 163.155 52.4784L163.993 52.9255C164.161 53.0373 164.328 53.0373 164.496 53.0373C164.72 53.0373 164.943 52.9255 165.055 52.702L165.782 51.7518C166.061 51.4164 166.005 50.9693 165.782 50.6898L165.111 49.9632C165.223 49.6278 165.334 49.3483 165.39 49.013L166.341 48.7335C166.732 48.6217 167.011 48.2304 166.955 47.8392L166.844 46.6654C166.676 46.2742 166.341 45.9388 165.949 45.9388ZM160.304 50.4662C158.963 50.6339 157.733 49.6278 157.621 48.2863C157.453 46.9449 158.459 45.7152 159.801 45.6034C161.142 45.4357 162.372 46.4418 162.484 47.7833C162.596 49.0689 161.645 50.2985 160.304 50.4662Z" fill="#9BD2F1"/>
<path d="M208.489 153.626H0.893606C0.390953 153.626 0 153.979 0 154.434C0 154.889 0.390953 155.243 0.893606 155.243H208.489C208.992 155.243 209.383 154.889 209.383 154.434C209.383 153.979 208.936 153.626 208.489 153.626Z" fill="#1C976E"/>
<path d="M209.77 112.341L180.37 112.397C179.699 112.397 179.14 111.838 179.14 111.167V93.0575C179.14 92.3868 179.699 91.8279 180.37 91.8279L209.77 91.772C210.441 91.772 211 92.3309 211 93.0016V111.111C211 111.782 210.441 112.341 209.77 112.341Z" fill="#214975"/>
<path d="M195.238 103.342L180.65 93.5606L181.208 92.7222L195.238 102.168L208.932 92.6663L209.491 93.5047L195.238 103.342Z" fill="#1C976E"/>
<path d="M1.67686 80.6489L14.4766 66.5078C15.0355 65.8929 15.9298 65.8929 16.4888 66.5078L29.2326 80.6489H1.67686Z" fill="#1C976E"/>
<path d="M29.1208 99.8206L1.78862 99.8765C1.11789 99.8765 0.558952 99.3175 0.558952 98.6468V81.8786C0.558952 81.2079 1.11789 80.6489 1.78862 80.6489L29.1208 80.593C29.7915 80.593 30.3505 81.152 30.3505 81.8227V98.5909C30.3505 99.2616 29.7915 99.8206 29.1208 99.8206Z" fill="#214975"/>
<path d="M28.3942 81.4314L28.9531 82.2139L15.6504 91.4364L1.95634 82.2698L2.51528 81.4873" fill="#1C976E"/>
<path d="M15.6503 91.4365L28.6177 82.3817V72.0413H2.68285V82.717C7.43385 86.0707 15.6503 91.4365 15.6503 91.4365Z" fill="white"/>
<path d="M25.9908 74.4448H5.42176V75.6186H25.9908V74.4448Z" fill="#214975"/>
<path d="M25.9908 77.9102H5.42176V79.0839H25.9908V77.9102Z" fill="#214975"/>
<path d="M25.9908 81.3755H5.42176V82.5493H25.9908V81.3755Z" fill="#214975"/>
<path d="M25.9908 84.897H5.42176V86.0707H25.9908V84.897Z" fill="#214975"/>
<path d="M177.911 102.112H176.737V103.286H177.911V102.112Z" fill="#214975"/>
<path d="M174.892 103.286H173.048V102.112H174.892V103.286ZM171.259 103.286H169.415V102.112H171.259V103.286Z" fill="#214975"/>
<path d="M167.57 102.112H166.396V103.286H167.57V102.112Z" fill="#214975"/>
<path d="M170.589 97.5291L171.483 98.4792L166.9 102.727L171.483 106.975L170.589 107.869L165.055 102.727L170.589 97.5291Z" fill="#214975"/>
<path d="M46.1686 85.7354H44.9948V86.9091H46.1686V85.7354Z" fill="#214975"/>
<path d="M42.9266 86.9091H40.8586V85.7354H42.9266V86.9091ZM38.7905 86.9091H36.7224V85.7354H38.7905V86.9091Z" fill="#214975"/>
<path d="M34.6542 85.7354H33.4804V86.9091H34.6542V85.7354Z" fill="#214975"/>
<path d="M37.6725 81.1521L38.5668 82.1023L33.9835 86.2944L38.5668 90.5423L37.6725 91.4925L32.139 86.2944L37.6725 81.1521Z" fill="#214975"/>
<path opacity="0.2" d="M73.6683 106.248C73.5565 105.969 73.333 105.689 73.1094 105.466C72.9976 105.354 72.9417 105.298 72.8299 105.242C72.7181 105.131 72.5504 105.075 72.4387 105.019C72.3269 104.963 72.1592 104.907 71.9915 104.851C71.712 104.795 71.4326 104.739 71.1531 104.739H51.5902C50.081 104.739 48.8514 105.969 48.8514 107.478V109.323V146.772V151.914C48.8514 152.417 48.9632 152.864 49.1867 153.255C49.6339 154.094 50.5841 154.709 51.5902 154.709H71.209C72.4387 154.709 73.5006 153.87 73.836 152.752C73.8919 152.473 73.9478 152.193 73.9478 151.914V146.772V109.323V107.478C73.9478 107.031 73.836 106.584 73.6683 106.248Z" fill="#3672C9"/>
<path d="M69.5323 103.957H49.9694C48.4603 103.957 47.2306 105.186 47.2306 106.696V150.964C47.2306 152.473 48.4603 153.702 49.9694 153.702H69.5323C71.0415 153.702 72.2712 152.473 72.2712 150.964V106.696C72.2712 105.186 71.0415 103.957 69.5323 103.957Z" fill="#1C976E"/>
<path d="M72.0475 105.523C71.9357 105.243 71.7122 104.964 71.4886 104.74C71.3768 104.628 71.3209 104.572 71.2091 104.516C71.0973 104.405 70.9296 104.349 70.8178 104.293C70.7061 104.237 70.5384 104.181 70.3707 104.125C70.0912 104.069 69.8118 104.013 69.5323 104.013H49.9694C48.4602 104.013 47.2306 105.243 47.2306 106.752V108.597V145.934V151.076C47.2306 151.579 47.3424 151.97 47.5659 152.362C48.0131 153.2 48.9633 153.815 49.9694 153.815H69.5323C70.762 153.815 71.8239 152.977 72.1593 151.859C72.2152 151.579 72.2711 151.3 72.2711 151.02V145.878V108.541V106.696C72.2711 106.305 72.2152 105.914 72.0475 105.523ZM70.8737 145.878H48.6279V108.541H70.8737V145.878Z" fill="white"/>
<path d="M60.6451 106.64C60.6451 107.143 60.2538 107.534 59.7508 107.534C59.2477 107.534 58.8565 107.143 58.8565 106.64C58.8565 106.137 59.2477 105.745 59.7508 105.745C60.2538 105.745 60.6451 106.137 60.6451 106.64Z" fill="#1C976E"/>
<path d="M61.6511 149.734C61.6511 150.796 60.8127 151.634 59.7507 151.634C58.6887 151.634 57.8503 150.796 57.8503 149.734C57.8503 148.672 58.6887 147.833 59.7507 147.833C60.8127 147.889 61.6511 148.728 61.6511 149.734Z" fill="#1C976E"/>
<path d="M64.0552 125.36C65.9242 122.981 65.511 119.538 63.1322 117.669C60.7535 115.8 57.3101 116.213 55.4411 118.592C53.5722 120.971 53.9854 124.414 56.3641 126.283C58.7428 128.152 62.1863 127.739 64.0552 125.36Z" fill="white"/>
<path d="M57.2915 114.465C57.2915 114.688 57.2356 114.912 57.0679 115.08C56.9002 115.247 56.6766 115.303 56.3972 115.303C56.1177 115.303 55.8941 115.192 55.7264 115.024C55.5588 114.8 55.447 114.577 55.447 114.241V113.794C55.447 113.459 55.5588 113.235 55.7264 113.012C55.8941 112.788 56.1177 112.732 56.3972 112.732C56.6766 112.732 56.9002 112.788 57.0679 112.956C57.2356 113.123 57.2915 113.291 57.2915 113.571H57.012C57.012 113.403 56.9561 113.235 56.8443 113.179C56.7325 113.068 56.6207 113.012 56.3972 113.012C56.2295 113.012 56.0618 113.068 55.95 113.235C55.8382 113.403 55.7823 113.571 55.7823 113.794V114.241C55.7823 114.465 55.8382 114.633 55.95 114.8C56.0618 114.968 56.2295 115.024 56.3972 115.024C56.5649 115.024 56.7325 114.968 56.8443 114.856C56.9561 114.744 57.012 114.633 57.012 114.465H57.2915Z" fill="white"/>
<path d="M58.074 115.247H57.7386V112.564H58.074V115.247Z" fill="white"/>
<path d="M58.9683 112.956H58.6329V112.62H58.9683V112.956ZM58.9683 115.247H58.6329V113.403H58.9683V115.247Z" fill="white"/>
<path d="M60.2539 115.303C59.9744 115.303 59.8068 115.191 59.6391 115.024C59.4714 114.856 59.4155 114.632 59.4155 114.353V114.297C59.4155 114.018 59.4714 113.794 59.6391 113.626C59.8068 113.459 59.9744 113.347 60.198 113.347C60.4216 113.347 60.6452 113.403 60.7569 113.57C60.8687 113.738 60.9246 113.906 60.9246 114.185V114.409H59.695C59.695 114.577 59.7509 114.744 59.8068 114.856C59.9185 114.968 60.0303 115.024 60.198 115.024C60.3098 115.024 60.4216 115.024 60.4775 114.968C60.5893 114.912 60.6452 114.912 60.7011 114.856L60.8128 115.08C60.757 115.136 60.6452 115.191 60.5334 115.247C60.5334 115.247 60.4216 115.303 60.2539 115.303ZM60.198 113.626C60.0862 113.626 59.9744 113.682 59.9185 113.794C59.8626 113.906 59.8068 114.018 59.7509 114.129H60.5893V114.074C60.5893 113.962 60.5334 113.85 60.4775 113.738C60.4216 113.682 60.3098 113.626 60.198 113.626Z" fill="white"/>
<path d="M61.6511 113.403V113.682C61.707 113.571 61.7629 113.515 61.8747 113.459C61.9865 113.403 62.0983 113.403 62.2101 113.403C62.4337 113.403 62.5454 113.459 62.6572 113.571C62.769 113.682 62.8249 113.85 62.8249 114.129V115.303H62.4896V114.129C62.4896 113.962 62.4337 113.85 62.3778 113.794C62.3219 113.738 62.2101 113.682 62.0983 113.682C61.9865 113.682 61.9306 113.682 61.8188 113.738C61.7629 113.794 61.707 113.85 61.6511 113.906V115.247H61.3158V113.403H61.6511Z" fill="white"/>
<path d="M63.7752 112.956V113.403H64.1106V113.626H63.7752V114.744C63.7752 114.856 63.7752 114.912 63.8311 114.912C63.887 114.968 63.887 114.968 63.9988 114.968H64.0547H64.1106L64.1665 115.191C64.1665 115.191 64.1106 115.247 64.0547 115.247C63.9988 115.247 63.9429 115.247 63.887 115.247C63.7752 115.247 63.6634 115.191 63.5517 115.135C63.4958 115.08 63.4399 114.912 63.4399 114.744V113.626H63.1604V113.403H63.4399V112.956H63.7752Z" fill="white"/>
<path d="M59.7508 122.905C60.7568 122.905 61.5953 122.066 61.5953 121.06V120.334C61.5953 119.328 60.7568 118.489 59.7508 118.489C58.7447 118.489 57.9062 119.328 57.9062 120.334V121.06C57.9062 122.122 58.7447 122.905 59.7508 122.905Z" fill="#D9EAFA"/>
<path d="M59.9743 123.128H59.5272C58.2975 123.128 57.3473 124.079 57.3473 125.308V127.935H62.1542V125.308C62.1542 124.079 61.204 123.128 59.9743 123.128Z" fill="#D9EAFA"/>
<path d="M55.7264 138.891C55.7264 140.288 54.6085 141.35 53.2671 141.35C51.8697 141.35 50.8077 140.232 50.8077 138.891C50.8077 137.493 51.9256 136.431 53.2671 136.431C54.6085 136.375 55.7264 137.493 55.7264 138.891Z" fill="white"/>
<path fill-rule="evenodd" clip-rule="evenodd" d="M54.3849 138.555C54.5526 138.723 54.6644 138.89 54.6644 139.17C54.6644 139.282 54.7202 139.393 54.6085 139.505C54.5526 139.561 54.3849 139.561 54.2731 139.561C54.1054 139.561 53.8259 139.505 53.8259 139.282C53.8259 139.17 53.8259 139.058 53.8259 139.002C53.8259 138.89 53.7142 138.835 53.6024 138.835C53.3788 138.779 53.1552 138.779 52.9316 138.835C52.8199 138.835 52.7081 138.89 52.6522 138.946C52.5963 139.058 52.6522 139.17 52.6522 139.282C52.6522 139.561 52.3168 139.561 52.1491 139.561C52.0373 139.561 51.9256 139.561 51.8697 139.505C51.8138 139.449 51.8138 139.282 51.8138 139.17C51.8138 138.946 51.9256 138.723 52.1491 138.555C52.3727 138.387 52.6522 138.331 52.8757 138.276C53.1552 138.22 53.4347 138.276 53.6583 138.276C53.7701 138.276 53.8818 138.331 54.0495 138.387C54.2172 138.387 54.2731 138.499 54.3849 138.555C54.4967 138.611 54.329 138.499 54.3849 138.555Z" fill="#1C976E"/>
<path d="M65.7314 141.35C67.0896 141.35 68.1907 140.249 68.1907 138.89C68.1907 137.532 67.0896 136.431 65.7314 136.431C64.3731 136.431 63.272 137.532 63.272 138.89C63.272 140.249 64.3731 141.35 65.7314 141.35Z" fill="white"/>
<path fill-rule="evenodd" clip-rule="evenodd" d="M64.8929 138.052C64.9488 137.829 65.0605 137.661 65.2841 137.493C65.34 137.437 65.4518 137.326 65.5636 137.381C65.6754 137.437 65.7313 137.549 65.7872 137.661C65.8431 137.829 65.9548 138.052 65.7872 138.164C65.7313 138.22 65.6195 138.276 65.5077 138.332C65.4518 138.388 65.4518 138.499 65.4518 138.611C65.5077 138.835 65.6195 139.002 65.7872 139.17C65.8431 139.226 65.9549 139.338 66.0107 139.338C66.1225 139.338 66.2343 139.226 66.2902 139.17C66.5138 139.058 66.6815 139.282 66.7933 139.45C66.8492 139.505 66.905 139.617 66.905 139.729C66.905 139.841 66.7374 139.897 66.6815 139.953C66.4579 140.064 66.2343 140.064 66.0107 140.008C65.7872 139.897 65.5636 139.729 65.3959 139.505C65.2282 139.282 65.1164 139.058 65.0047 138.779C64.9488 138.667 64.8929 138.555 64.8929 138.443C64.8929 138.332 64.8929 138.164 64.8929 138.052C64.8929 137.94 64.8929 138.108 64.8929 138.052Z" fill="#1C976E"/>
<path d="M189.202 60.4712H184.059V73.5504H189.202V60.4712Z" fill="#9BD2F1"/>
<path d="M181.824 64.5515H176.681V73.5505H181.824V64.5515Z" fill="#1C976E"/>
<path d="M196.356 52.2549H191.214V73.4946H196.356V52.2549Z" fill="#214975"/>
<path d="M203.734 46.1624H198.592V73.5504H203.734V46.1624Z" fill="white"/>
<path d="M204.237 73.5505H176.681V74.333H204.237V73.5505Z" fill="#1C976E"/>
<path d="M176.681 46.1624H175.954V74.3329H176.681V46.1624Z" fill="#1C976E"/>
<path d="M197.529 125.476H157.733V153.591H197.529V125.476Z" fill="white"/>
<path d="M167.347 129.053C167.347 130.059 166.564 130.842 165.558 130.842C164.552 130.842 163.77 130.059 163.77 129.053C163.77 128.047 164.552 127.265 165.558 127.265C166.564 127.265 167.347 128.103 167.347 129.053Z" fill="#DAEBFB"/>
<path d="M165.614 129.221H165.502C164.888 129.221 164.385 128.718 164.385 128.103V123.855C164.385 123.24 164.888 122.737 165.502 122.737H165.614C166.229 122.737 166.732 123.24 166.732 123.855V128.103C166.732 128.718 166.229 129.221 165.614 129.221Z" fill="#1C976E"/>
<path d="M175.396 129.053C175.396 130.059 174.613 130.842 173.607 130.842C172.601 130.842 171.818 130.059 171.818 129.053C171.818 128.047 172.601 127.265 173.607 127.265C174.613 127.265 175.396 128.103 175.396 129.053Z" fill="#DAEBFB"/>
<path d="M173.663 129.221H173.551C172.936 129.221 172.433 128.718 172.433 128.103V123.855C172.433 123.24 172.936 122.737 173.551 122.737H173.663C174.278 122.737 174.781 123.24 174.781 123.855V128.103C174.781 128.718 174.278 129.221 173.663 129.221Z" fill="#1C976E"/>
<path d="M183.444 129.053C183.444 130.059 182.662 130.842 181.656 130.842C180.65 130.842 179.867 130.059 179.867 129.053C179.867 128.047 180.65 127.265 181.656 127.265C182.662 127.265 183.444 128.103 183.444 129.053Z" fill="#DAEBFB"/>
<path d="M181.712 129.221H181.6C180.985 129.221 180.482 128.718 180.482 128.103V123.855C180.482 123.24 180.985 122.737 181.6 122.737H181.712C182.327 122.737 182.83 123.24 182.83 123.855V128.103C182.83 128.718 182.327 129.221 181.712 129.221Z" fill="#1C976E"/>
<path d="M191.493 129.053C191.493 130.059 190.71 130.842 189.704 130.842C188.698 130.842 187.916 130.059 187.916 129.053C187.916 128.047 188.698 127.265 189.704 127.265C190.71 127.265 191.493 128.103 191.493 129.053Z" fill="#DAEBFB"/>
<path d="M189.76 129.221H189.648C189.034 129.221 188.531 128.718 188.531 128.103V123.855C188.531 123.24 189.034 122.737 189.648 122.737H189.76C190.375 122.737 190.878 123.24 190.878 123.855V128.103C190.878 128.718 190.375 129.221 189.76 129.221Z" fill="#1C976E"/>
<path d="M163.825 134.754H160.36V138.22H163.825V134.754Z" fill="#9BD2F1"/>
<path d="M170.03 134.754H166.564V138.22H170.03V134.754Z" fill="#9BD2F1"/>
<path d="M176.29 134.754H172.824V138.22H176.29V134.754Z" fill="#9BD2F1"/>
<path d="M182.494 134.754H179.028V138.22H182.494V134.754Z" fill="#1C976E"/>
<path d="M188.698 134.754H185.233V138.22H188.698V134.754Z" fill="#9BD2F1"/>
<path d="M194.958 134.754H191.493V138.22H194.958V134.754Z" fill="#9BD2F1"/>
<path d="M163.825 139.841H160.36V143.306H163.825V139.841Z" fill="#9BD2F1"/>
<path d="M170.03 139.841H166.564V143.306H170.03V139.841Z" fill="#9BD2F1"/>
<path d="M176.29 139.841H172.824V143.306H176.29V139.841Z" fill="#1C976E"/>
<path d="M182.494 139.841H179.028V143.306H182.494V139.841Z" fill="#1C976E"/>
<path d="M188.698 139.841H185.233V143.306H188.698V139.841Z" fill="#9BD2F1"/>
<path d="M194.958 139.841H191.493V143.306H194.958V139.841Z" fill="#9BD2F1"/>
<path d="M163.825 144.927H160.36V148.392H163.825V144.927Z" fill="#9BD2F1"/>
<path d="M170.03 144.927H166.564V148.392H170.03V144.927Z" fill="#9BD2F1"/>
<path d="M176.29 144.927H172.824V148.392H176.29V144.927Z" fill="#9BD2F1"/>
<path d="M182.494 144.927H179.028V148.392H182.494V144.927Z" fill="#9BD2F1"/>
<path d="M188.698 144.927H185.233V148.392H188.698V144.927Z" fill="#9BD2F1"/>
<path d="M194.958 144.927H191.493V148.392H194.958V144.927Z" fill="#9BD2F1"/>
<path d="M63.831 34.3129L51.4784 36.4927C50.0811 36.7163 49.1309 38.1137 49.3545 39.511L50.3605 45.4917C50.5841 46.889 51.9256 47.8392 53.3788 47.6156L53.8819 50.4662L56.2294 47.1126L65.7873 45.4358C67.1846 45.2122 68.1348 43.8149 67.9113 42.4175L66.9052 36.4368C66.6257 35.0395 65.2842 34.0893 63.831 34.3129Z" fill="white"/>
<path d="M64.9091 36.6625L51.9094 38.8997L52.0326 39.6157L65.0324 37.3786L64.9091 36.6625Z" fill="#1C976E"/>
<path d="M65.3538 39.2909L52.3541 41.5281L52.4773 42.2442L65.477 40.007L65.3538 39.2909Z" fill="#1C976E"/>
<path d="M63.0834 42.375L52.7828 44.1477L52.8965 44.8087L63.1972 43.036L63.0834 42.375Z" fill="#1C976E"/>
<path d="M61.819 43.1442L74.2275 45.3241C75.6249 45.5477 76.5751 46.945 76.3515 48.3424L75.3454 54.323C75.1218 55.7204 73.7804 56.6706 72.3271 56.447L71.8241 59.2976L69.4765 55.944L59.9186 54.2671C58.5213 54.0436 57.5711 52.6462 57.7947 51.2489L58.8008 45.2682C59.0802 43.8149 60.4217 42.8647 61.819 43.1442Z" fill="#214975"/>
<path d="M74.1966 47.641L61.1863 45.4658L61.0665 46.1825L74.0768 48.3577L74.1966 47.641Z" fill="white"/>
<path d="M73.7531 50.2672L60.7428 48.092L60.623 48.8087L73.6333 50.9839L73.7531 50.2672Z" fill="white"/>
<path d="M70.6371 52.4518L60.3281 50.7283L60.2175 51.3898L70.5265 53.1134L70.6371 52.4518Z" fill="white"/>
<path d="M36.6106 153.535H6.53967L6.59556 107.59H39.7966L39.7407 150.461C39.7407 152.137 38.3434 153.535 36.6106 153.535Z" fill="white"/>
<path d="M9.89318 150.628L37.8961 149.454L36.4987 153.535L9.89318 150.628Z" fill="white"/>
<path d="M34.7102 151.746C34.7102 150.74 35.4927 149.958 36.4988 149.958H4.13613C3.13004 149.958 2.34752 150.74 2.34752 151.746C2.34752 152.752 3.13004 153.535 4.13613 153.535H36.4988C35.4927 153.535 34.6543 152.752 34.7102 151.746Z" fill="#214975"/>
<path d="M37.1694 113.067H9.05476V114.129H37.1694V113.067Z" fill="#214975"/>
<path d="M37.1694 116.03H9.05476V117.092H37.1694V116.03Z" fill="#214975"/>
<path d="M36.946 120.11H31.9714V121.116H36.946V120.11Z" fill="#1C976E"/>
<path d="M21.631 120.11H16.6565V121.116H21.631V120.11Z" fill="#1C976E"/>
<path d="M29.2884 120.11H24.3139V121.116H29.2884V120.11Z" fill="#1C976E"/>
<path d="M14.0293 120.11H9.05476V121.116H14.0293V120.11Z" fill="#1C976E"/>
<path d="M14.0293 125.085H9.05476V126.091H14.0293V125.085Z" fill="#D9EAFA"/>
<path d="M14.0293 127.432H9.05476V128.438H14.0293V127.432Z" fill="#D9EAFA"/>
<path d="M14.0293 129.78H9.05476V130.786H14.0293V129.78Z" fill="#D9EAFA"/>
<path d="M14.0293 132.127H9.05476V133.133H14.0293V132.127Z" fill="#D9EAFA"/>
<path d="M14.0293 134.475H9.05476V135.481H14.0293V134.475Z" fill="#D9EAFA"/>
<path d="M14.0293 136.878H9.05476V137.885H14.0293V136.878Z" fill="#D9EAFA"/>
<path d="M14.0293 139.226H9.05476V140.232H14.0293V139.226Z" fill="#D9EAFA"/>
<path d="M14.0293 141.573H9.05476V142.58H14.0293V141.573Z" fill="#D9EAFA"/>
<path d="M21.631 125.085H16.6565V126.091H21.631V125.085Z" fill="#D9EAFA"/>
<path d="M21.631 127.432H16.6565V128.438H21.631V127.432Z" fill="#D9EAFA"/>
<path d="M21.631 129.78H16.6565V130.786H21.631V129.78Z" fill="#D9EAFA"/>
<path d="M21.631 132.127H16.6565V133.133H21.631V132.127Z" fill="#D9EAFA"/>
<path d="M21.631 134.475H16.6565V135.481H21.631V134.475Z" fill="#D9EAFA"/>
<path d="M21.631 136.878H16.6565V137.885H21.631V136.878Z" fill="#D9EAFA"/>
<path d="M21.631 139.226H16.6565V140.232H21.631V139.226Z" fill="#D9EAFA"/>
<path d="M21.631 141.573H16.6565V142.58H21.631V141.573Z" fill="#D9EAFA"/>
<path d="M29.2884 125.085H24.3139V126.091H29.2884V125.085Z" fill="#D9EAFA"/>
<path d="M29.2884 127.432H24.3139V128.438H29.2884V127.432Z" fill="#D9EAFA"/>
<path d="M29.2884 129.78H24.3139V130.786H29.2884V129.78Z" fill="#D9EAFA"/>
<path d="M29.2884 132.127H24.3139V133.133H29.2884V132.127Z" fill="#D9EAFA"/>
<path d="M29.2884 134.475H24.3139V135.481H29.2884V134.475Z" fill="#D9EAFA"/>
<path d="M29.2884 136.878H24.3139V137.885H29.2884V136.878Z" fill="#D9EAFA"/>
<path d="M29.2884 139.226H24.3139V140.232H29.2884V139.226Z" fill="#D9EAFA"/>
<path d="M29.2884 141.573H24.3139V142.58H29.2884V141.573Z" fill="#D9EAFA"/>
<path d="M36.946 125.085H31.9714V126.091H36.946V125.085Z" fill="#D9EAFA"/>
<path d="M36.946 127.432H31.9714V128.438H36.946V127.432Z" fill="#D9EAFA"/>
<path d="M36.946 129.78H31.9714V130.786H36.946V129.78Z" fill="#D9EAFA"/>
<path d="M36.946 132.127H31.9714V133.133H36.946V132.127Z" fill="#D9EAFA"/>
<path d="M36.946 134.475H31.9714V135.481H36.946V134.475Z" fill="#D9EAFA"/>
<path d="M36.946 136.878H31.9714V137.885H36.946V136.878Z" fill="#D9EAFA"/>
<path d="M36.946 139.226H31.9714V140.232H36.946V139.226Z" fill="#D9EAFA"/>
<path d="M36.946 141.573H31.9714V142.58H36.946V141.573Z" fill="#D9EAFA"/>
<path d="M25.9906 122.681H9.05476V123.687H25.9906V122.681Z" fill="#D9EAFA"/>
</svg>
