<svg id="Layer_1" data-name="Layer 1" xmlns="http://www.w3.org/2000/svg" viewBox="0 0 150 75.5"><defs><style>.cls-1{fill:#1c976e;}.cls-2{fill:#214975;}</style></defs><rect class="cls-1" x="0.16" y="33.7" width="149.84" height="0.96"/><path class="cls-2" d="M0,32V16.5H6.44a5,5,0,0,1,3.93,1.39,5.1,5.1,0,0,1,0,6.77,5,5,0,0,1-3.88,1.46H2.65V32ZM6.57,23.6a2.16,2.16,0,0,0,1.75-.69,2.44,2.44,0,0,0,.57-1.61,2.5,2.5,0,0,0-.54-1.58A2.11,2.11,0,0,0,6.57,19H2.65V23.6Z"/><path class="cls-2" d="M15.15,32V16.5H22a5.05,5.05,0,0,1,3.89,1.32,5.14,5.14,0,0,1,.38,6.09,4.1,4.1,0,0,1-2.36,1.72L27,32H24l-3-6.06H17.8V32ZM17.8,23.4h4.25a2.26,2.26,0,0,0,1.75-.62,2.31,2.31,0,0,0,.55-1.57,2.36,2.36,0,0,0-.53-1.56A2.22,2.22,0,0,0,22.05,19H17.8Z"/><path class="cls-2" d="M37.51,32.24a7,7,0,0,1-2.61-.46A5.55,5.55,0,0,1,33,30.53a7.26,7.26,0,0,1-1.28-1.82,8.63,8.63,0,0,1-.74-2.16,12.24,12.24,0,0,1,0-4.62,8.37,8.37,0,0,1,.74-2.16A7.26,7.26,0,0,1,33,18,5.42,5.42,0,0,1,34.9,16.7a7,7,0,0,1,2.61-.47,6.77,6.77,0,0,1,3.15.7,5.32,5.32,0,0,1,2.12,1.88,9.14,9.14,0,0,1,1.14,2.55,10.94,10.94,0,0,1,.38,2.88,10.81,10.81,0,0,1-.38,2.87,9.07,9.07,0,0,1-1.14,2.56,5.39,5.39,0,0,1-2.12,1.88A6.89,6.89,0,0,1,37.51,32.24Zm0-2.54a3.49,3.49,0,0,0,1.88-.51,3.55,3.55,0,0,0,1.27-1.34,6.81,6.81,0,0,0,.67-1.74,7.84,7.84,0,0,0,.22-1.87,8.18,8.18,0,0,0-.22-1.94,6.61,6.61,0,0,0-.67-1.73,3.44,3.44,0,0,0-1.26-1.31,3.64,3.64,0,0,0-1.89-.48,3.29,3.29,0,0,0-2.37.89,4.78,4.78,0,0,0-1.31,2.07,8.57,8.57,0,0,0-.15,4.42,6.77,6.77,0,0,0,.68,1.75,3.35,3.35,0,0,0,1.26,1.3A3.5,3.5,0,0,0,37.51,29.7Z"/><path class="cls-2" d="M52,32.24a5.55,5.55,0,0,1-3-.83A5.35,5.35,0,0,1,47,29.08l2.3-1.1A2.89,2.89,0,0,0,52,29.7c1.72,0,2.58-1.1,2.58-3.29V16.5h2.64V26.69A7.47,7.47,0,0,1,56.94,29a4.8,4.8,0,0,1-.83,1.6,4.22,4.22,0,0,1-1.22,1,5.17,5.17,0,0,1-1.4.54A6.93,6.93,0,0,1,52,32.24Z"/><path class="cls-2" d="M62,32V16.5H72.07V19H64.64v3.73h4.58v2.5H64.64v4.25h7.92V32Z"/><path class="cls-2" d="M82,32.24a6.54,6.54,0,0,1-2.52-.46,5,5,0,0,1-1.84-1.24,6.77,6.77,0,0,1-1.21-1.83,9.63,9.63,0,0,1-.7-2.17,12.38,12.38,0,0,1-.21-2.3,10.69,10.69,0,0,1,.36-2.77A9.23,9.23,0,0,1,77,18.92a5.63,5.63,0,0,1,2-2,6.57,6.57,0,0,1,6.45.22,5.23,5.23,0,0,1,2,2.34L85,20.61a4.61,4.61,0,0,0-1.29-1.39A3,3,0,0,0,82,18.78a3.19,3.19,0,0,0-1.78.49,3.34,3.34,0,0,0-1.17,1.33,7.54,7.54,0,0,0-.6,1.75,9.77,9.77,0,0,0-.18,1.89,7.37,7.37,0,0,0,1,3.8A3,3,0,0,0,82,29.68a3.46,3.46,0,0,0,3-2l2.45.93A5.54,5.54,0,0,1,82,32.24Z"/><path class="cls-2" d="M97.26,19V32H94.61V19h-4.4V16.5h11.45V19Z"/><path class="cls-1" d="M7.14,54.25,4.42,42a7.11,7.11,0,0,1-.18-.9c0,.35-.1.66-.15,1L2,54H.25L3.32,36.47H4.94L7.61,48.76c.12.48.2.89.25,1.22a12.59,12.59,0,0,1,.65-1.15L16,36.47h1.67L14.55,54H12.8l2.13-12c.08-.48.15-.81.2-1,0,.05-.19.35-.5.9Z"/><path class="cls-1" d="M27.46,54l.17-1.05A5.65,5.65,0,0,1,24,54.25a3.58,3.58,0,0,1-2.68-1,3.62,3.62,0,0,1-1-2.67,4.39,4.39,0,0,1,1.55-3.65,5.78,5.78,0,0,1,3.67-1.22,5.47,5.47,0,0,1,3.22.95l.2-1.12a6,6,0,0,0,.13-1.08,1.82,1.82,0,0,0-2.08-2,7.43,7.43,0,0,0-4,1.37l-.22-1.5a8.77,8.77,0,0,1,4.39-1.4,4.14,4.14,0,0,1,2.52.8,3,3,0,0,1,1.07,2.57,7.13,7.13,0,0,1-.12,1.2L29.08,54Zm-3.2-1.22a4.35,4.35,0,0,0,2-.55A6,6,0,0,0,28,50.85l.42-2.52a4.64,4.64,0,0,0-2.94-1.1,4,4,0,0,0-2.55.8,2.85,2.85,0,0,0-1,2.37,2.35,2.35,0,0,0,.61,1.68A2.27,2.27,0,0,0,24.26,52.73Z"/><path class="cls-1" d="M34.4,54l2.25-12.76h1.74l-.25,1.4a4.45,4.45,0,0,1,3.55-1.7,3.32,3.32,0,0,1,2.58,1,4.21,4.21,0,0,1,.91,3,11.16,11.16,0,0,1-.17,2L43.76,54H42l1.35-7.69a7.83,7.83,0,0,0,.13-1.3,2.73,2.73,0,0,0-.58-1.85,2,2,0,0,0-1.62-.64,3.42,3.42,0,0,0-2.46,1,4.79,4.79,0,0,0-1.34,2.71L36.15,54Z"/><path class="cls-1" d="M56.22,54l.17-1.05a5.65,5.65,0,0,1-3.67,1.35,3.58,3.58,0,0,1-2.68-1,3.62,3.62,0,0,1-1-2.67,4.39,4.39,0,0,1,1.55-3.65,5.78,5.78,0,0,1,3.67-1.22,5.47,5.47,0,0,1,3.22.95l.2-1.12a6,6,0,0,0,.13-1.08,1.82,1.82,0,0,0-2.08-2,7.43,7.43,0,0,0-4,1.37l-.22-1.5a8.77,8.77,0,0,1,4.39-1.4,4.14,4.14,0,0,1,2.52.8,3,3,0,0,1,1.07,2.57,7.13,7.13,0,0,1-.12,1.2L57.84,54ZM53,52.73a4.35,4.35,0,0,0,2-.55,6,6,0,0,0,1.7-1.33l.42-2.52a4.64,4.64,0,0,0-2.94-1.1,4,4,0,0,0-2.55.8,2.85,2.85,0,0,0-1,2.37,2.35,2.35,0,0,0,.61,1.68A2.27,2.27,0,0,0,53,52.73Z"/><path class="cls-1" d="M65.18,57.89a7.46,7.46,0,0,0,4-1,3.79,3.79,0,0,0,1.46-2.4l.3-1.72a4.32,4.32,0,0,1-3.4,1.52,3.68,3.68,0,0,1-3.08-1.47A6,6,0,0,1,63.28,49,9.37,9.37,0,0,1,65,43.16a5.38,5.38,0,0,1,4.45-2.27,4,4,0,0,1,3.25,1.5l.22-1.2h1.7l-2.29,13a7.65,7.65,0,0,1-.7,2.18,5.35,5.35,0,0,1-1.06,1.46,4.42,4.42,0,0,1-1.44.88,8.57,8.57,0,0,1-1.62.44c-.52.07-1.13.12-1.85.16ZM68,52.68a3.33,3.33,0,0,0,1.92-.63,4.41,4.41,0,0,0,1.43-1.52l1.07-6.12A2.71,2.71,0,0,0,71.32,43a2.92,2.92,0,0,0-1.8-.56,3.7,3.7,0,0,0-3.27,1.87,8.22,8.22,0,0,0-1.19,4.49,4.51,4.51,0,0,0,.79,2.81A2.55,2.55,0,0,0,68,52.68Z"/><path class="cls-1" d="M82.53,54.25a4,4,0,0,1-3.26-1.52,6,6,0,0,1-1.21-3.82,9,9,0,0,1,1.8-5.73,5.49,5.49,0,0,1,4.49-2.29A4.34,4.34,0,0,1,87.52,42a4.79,4.79,0,0,1,1.18,3.57,9.45,9.45,0,0,1-.48,2.67H79.86v.35a5.17,5.17,0,0,0,.72,2.95,2.45,2.45,0,0,0,2.15,1.05,5.3,5.3,0,0,0,3-1l.77,1.27A6.38,6.38,0,0,1,82.53,54.25Zm-2.45-7.54h6.75A5.33,5.33,0,0,0,87,45.46a3,3,0,0,0-.76-2.31,2.71,2.71,0,0,0-1.89-.68,3.52,3.52,0,0,0-2.79,1.22A6.65,6.65,0,0,0,80.08,46.71Z"/><path class="cls-1" d="M91.87,54l2.25-12.76h1.72l-.23,1.25A4.56,4.56,0,0,1,99,40.89a2.92,2.92,0,0,1,3,2,5,5,0,0,1,4-2,3.52,3.52,0,0,1,2.56,1,3.47,3.47,0,0,1,1,2.61,4.58,4.58,0,0,1-.1,1L108,54h-1.75l1.4-8a5.63,5.63,0,0,0,.1-1.1c0-1.62-.7-2.42-2.1-2.42a3,3,0,0,0-2.18,1,4.51,4.51,0,0,0-1.21,2.5l-1.42,8H99.06l1.4-8a6.52,6.52,0,0,0,.1-1.1c0-1.62-.71-2.42-2.13-2.42a3,3,0,0,0-2.18,1A4.51,4.51,0,0,0,95,45.94l-1.42,8Z"/><path class="cls-1" d="M118.11,54.25a4,4,0,0,1-3.26-1.52,5.94,5.94,0,0,1-1.21-3.82,9,9,0,0,1,1.79-5.73,5.5,5.5,0,0,1,4.5-2.29A4.36,4.36,0,0,1,123.1,42a4.83,4.83,0,0,1,1.17,3.57,9.75,9.75,0,0,1-.47,2.67h-8.37v.35a5.16,5.16,0,0,0,.73,2.95,2.44,2.44,0,0,0,2.15,1.05,5.25,5.25,0,0,0,2.94-1L122,52.9A6.4,6.4,0,0,1,118.11,54.25Zm-2.45-7.54h6.74a4.89,4.89,0,0,0,.18-1.25,3,3,0,0,0-.77-2.31,2.67,2.67,0,0,0-1.88-.68,3.54,3.54,0,0,0-2.8,1.22A6.74,6.74,0,0,0,115.66,46.71Z"/><path class="cls-1" d="M127.44,54l2.25-12.76h1.75l-.25,1.4a4.45,4.45,0,0,1,3.54-1.7,3.35,3.35,0,0,1,2.59,1,4.26,4.26,0,0,1,.91,3,11.14,11.14,0,0,1-.18,2L136.81,54h-1.75l1.35-7.69a7.76,7.76,0,0,0,.12-1.3,2.73,2.73,0,0,0-.57-1.85,2.08,2.08,0,0,0-1.63-.64,3.42,3.42,0,0,0-2.46,1,4.78,4.78,0,0,0-1.33,2.71L129.19,54Z"/><path class="cls-1" d="M145.29,54.25a1.87,1.87,0,0,1-1.53-.61,2.48,2.48,0,0,1-.51-1.64,5.21,5.21,0,0,1,.07-.85l1.47-8.38H142.7l.27-1.58h2.1l.8-4.52,1.87-.75-.92,5.27h3.09l-.27,1.58h-3.1l-1.37,7.81a6.42,6.42,0,0,0-.1.92c0,.74.35,1.1,1.05,1.1a3.6,3.6,0,0,0,1.94-.67l-.52,1.82A5,5,0,0,1,145.29,54.25Z"/></svg>