<svg id="Layer_1" data-name="Layer 1" xmlns="http://www.w3.org/2000/svg" xmlns:xlink="http://www.w3.org/1999/xlink" viewBox="0 0 150 75.5"><defs><style>.cls-1{fill:none;}.cls-2{clip-path:url(#clip-path);}.cls-3{fill:#ff4d4d;}.cls-4{fill:#ff4b4b;}.cls-5{fill:#ff4949;}.cls-6{fill:#ff4747;}.cls-7{fill:#ff4545;}.cls-8{fill:#ff4343;}.cls-9{fill:#ff4242;}.cls-10{fill:#ff4040;}.cls-11{fill:#ff3e3e;}.cls-12{fill:#ff3c3c;}.cls-13{fill:#ff3b3b;}.cls-14{fill:#ff3939;}.cls-15{fill:#ff3838;}.cls-16{fill:#ff3636;}.cls-17{fill:#ff3535;}.cls-18{fill:#f33;}.cls-19{fill:#ff3232;}.cls-20{fill:#ff3030;}.cls-21{fill:#ff2f2f;}.cls-22{fill:#ff2e2e;}.cls-23{fill:#ff2d2d;}.cls-24{fill:#ff2c2c;}.cls-25{fill:#ff2a2a;}.cls-26{fill:#ff2929;}.cls-27{fill:#ff2828;}.cls-28{fill:#ff2727;}.cls-29{fill:#ff2626;}.cls-30{fill:#ff2525;}.cls-31{fill:#ff2424;}.cls-32{fill:#ff2323;}.cls-33{fill:#f22;}.cls-34{fill:#ff2121;}.cls-35{fill:#ff2020;}.cls-36{fill:#ff1f1f;}.cls-37{fill:#ff1e1e;}.cls-38{fill:#ff1d1d;}.cls-39{fill:#ff1c1c;}.cls-40{clip-path:url(#clip-path-2);}.cls-41{fill:#1c976e;}.cls-42{fill:#214975;}</style><clipPath id="clip-path"><path class="cls-1" d="M18.75,5.56A19.24,19.24,0,0,0,.1,22.39a14.81,14.81,0,0,0,15,16.83A19.23,19.23,0,0,0,33.76,22.39,14.82,14.82,0,0,0,18.75,5.56ZM16.66,36.62l.12-1.13a1.12,1.12,0,0,0-1.13-1.27,1.46,1.46,0,0,0-1.41,1.27l-.12,1.13a12.51,12.51,0,0,1-11.56-13h1.1a1.45,1.45,0,0,0,1.41-1.27,1.12,1.12,0,0,0-1.14-1.27H2.84A16.47,16.47,0,0,1,17.2,8.16l-.11,1.06a1.12,1.12,0,0,0,1.13,1.27,1.46,1.46,0,0,0,1.41-1.27l.11-1.06A12.52,12.52,0,0,1,31.3,21.08H30.21a1.46,1.46,0,0,0-1.41,1.27,1.12,1.12,0,0,0,1.13,1.27H31A16.44,16.44,0,0,1,16.66,36.62Z"/></clipPath><clipPath id="clip-path-2"><path class="cls-1" d="M25.38,14.19,17,22.08H17l-.27,0L10.9,17.35a1,1,0,0,0-1.35.18.94.94,0,0,0,0,1.34l5.78,4.75a1.25,1.25,0,0,0,1.28,1.31,1.64,1.64,0,0,0,1.59-1.42v-.12l8.38-7.88a1,1,0,0,0,.11-1.35A1,1,0,0,0,25.38,14.19Z"/></clipPath></defs><g class="cls-2"><rect class="cls-3" x="2.41" y="8.16" width="1.38" height="28.46"/><rect class="cls-3" x="3.79" y="8.16" width="0.61" height="28.46"/><rect class="cls-4" x="4.4" y="8.16" width="0.61" height="28.46"/><rect class="cls-5" x="5.02" y="8.16" width="0.61" height="28.46"/><rect class="cls-6" x="5.63" y="8.16" width="0.61" height="28.46"/><rect class="cls-7" x="6.24" y="8.16" width="0.61" height="28.46"/><rect class="cls-8" x="6.86" y="8.16" width="0.61" height="28.46"/><rect class="cls-9" x="7.47" y="8.16" width="0.61" height="28.46"/><rect class="cls-10" x="8.09" y="8.16" width="0.61" height="28.46"/><rect class="cls-11" x="8.7" y="8.16" width="0.61" height="28.46"/><rect class="cls-12" x="9.31" y="8.16" width="0.61" height="28.46"/><rect class="cls-13" x="9.93" y="8.16" width="0.61" height="28.46"/><rect class="cls-14" x="10.54" y="8.16" width="0.61" height="28.46"/><rect class="cls-15" x="11.15" y="8.16" width="0.61" height="28.46"/><rect class="cls-16" x="11.77" y="8.16" width="0.61" height="28.46"/><rect class="cls-17" x="12.38" y="8.16" width="0.61" height="28.46"/><rect class="cls-18" x="13" y="8.16" width="0.61" height="28.46"/><rect class="cls-19" x="13.61" y="8.16" width="0.61" height="28.46"/><rect class="cls-20" x="14.22" y="8.16" width="0.61" height="28.46"/><rect class="cls-21" x="14.84" y="8.16" width="0.61" height="28.46"/><rect class="cls-22" x="15.45" y="8.16" width="0.61" height="28.46"/><rect class="cls-23" x="16.06" y="8.16" width="0.61" height="28.46"/><rect class="cls-24" x="16.68" y="8.16" width="0.61" height="28.46"/><rect class="cls-25" x="17.29" y="8.16" width="0.61" height="28.46"/><rect class="cls-26" x="17.9" y="8.16" width="0.61" height="28.46"/><rect class="cls-27" x="18.52" y="8.16" width="0.61" height="28.46"/><rect class="cls-28" x="19.13" y="8.16" width="0.61" height="28.46"/><rect class="cls-29" x="19.75" y="8.16" width="0.61" height="28.46"/><rect class="cls-30" x="20.36" y="8.16" width="0.61" height="28.46"/><rect class="cls-30" x="20.97" y="8.16" width="0.61" height="28.46"/><rect class="cls-31" x="21.59" y="8.16" width="0.61" height="28.46"/><rect class="cls-32" x="22.2" y="8.16" width="0.61" height="28.46"/><rect class="cls-33" x="22.81" y="8.16" width="0.61" height="28.46"/><rect class="cls-34" x="23.43" y="8.16" width="0.61" height="28.46"/><rect class="cls-34" x="24.04" y="8.16" width="0.61" height="28.46"/><rect class="cls-35" x="24.65" y="8.16" width="0.61" height="28.46"/><rect class="cls-35" x="25.27" y="8.16" width="0.61" height="28.46"/><rect class="cls-36" x="25.88" y="8.16" width="0.61" height="28.46"/><rect class="cls-36" x="26.5" y="8.16" width="0.61" height="28.46"/><rect class="cls-37" x="27.11" y="8.16" width="0.61" height="28.46"/><rect class="cls-37" x="27.72" y="8.16" width="0.61" height="28.46"/><rect class="cls-38" x="28.34" y="8.16" width="0.61" height="28.46"/><rect class="cls-38" x="28.95" y="8.16" width="0.61" height="28.46"/><rect class="cls-38" x="29.56" y="8.16" width="0.61" height="28.46"/><rect class="cls-38" x="30.18" y="8.16" width="0.61" height="28.46"/><rect class="cls-39" x="30.79" y="8.16" width="0.61" height="28.46"/><rect class="cls-39" x="31.4" y="8.16" width="0.01" height="28.46"/><rect class="cls-3" x="-0.91" y="5.56" width="4.7" height="33.66"/><rect class="cls-3" x="3.79" y="5.56" width="0.61" height="33.66"/><rect class="cls-4" x="4.4" y="5.56" width="0.61" height="33.66"/><rect class="cls-5" x="5.02" y="5.56" width="0.61" height="33.66"/><rect class="cls-6" x="5.63" y="5.56" width="0.61" height="33.66"/><rect class="cls-7" x="6.24" y="5.56" width="0.61" height="33.66"/><rect class="cls-8" x="6.86" y="5.56" width="0.61" height="33.66"/><rect class="cls-9" x="7.47" y="5.56" width="0.61" height="33.66"/><rect class="cls-10" x="8.09" y="5.56" width="0.61" height="33.66"/><rect class="cls-11" x="8.7" y="5.56" width="0.61" height="33.66"/><rect class="cls-12" x="9.31" y="5.56" width="0.61" height="33.66"/><rect class="cls-13" x="9.93" y="5.56" width="0.61" height="33.66"/><rect class="cls-14" x="10.54" y="5.56" width="0.61" height="33.66"/><rect class="cls-15" x="11.15" y="5.56" width="0.61" height="33.66"/><rect class="cls-16" x="11.77" y="5.56" width="0.61" height="33.66"/><rect class="cls-17" x="12.38" y="5.56" width="0.61" height="33.66"/><rect class="cls-18" x="13" y="5.56" width="0.61" height="33.66"/><rect class="cls-19" x="13.61" y="5.56" width="0.61" height="33.66"/><rect class="cls-20" x="14.22" y="5.56" width="0.61" height="33.66"/><rect class="cls-21" x="14.84" y="5.56" width="0.61" height="33.66"/><rect class="cls-22" x="15.45" y="5.56" width="0.61" height="33.66"/><rect class="cls-23" x="16.06" y="5.56" width="0.61" height="33.66"/><rect class="cls-24" x="16.68" y="5.56" width="0.61" height="33.66"/><rect class="cls-25" x="17.29" y="5.56" width="0.61" height="33.66"/><rect class="cls-26" x="17.9" y="5.56" width="0.61" height="33.66"/><rect class="cls-27" x="18.52" y="5.56" width="0.61" height="33.66"/><rect class="cls-28" x="19.13" y="5.56" width="0.61" height="33.66"/><rect class="cls-29" x="19.75" y="5.56" width="0.61" height="33.66"/><rect class="cls-30" x="20.36" y="5.56" width="0.61" height="33.66"/><rect class="cls-30" x="20.97" y="5.56" width="0.61" height="33.66"/><rect class="cls-31" x="21.59" y="5.56" width="0.61" height="33.66"/><rect class="cls-32" x="22.2" y="5.56" width="0.61" height="33.66"/><rect class="cls-33" x="22.81" y="5.56" width="0.61" height="33.66"/><rect class="cls-34" x="23.43" y="5.56" width="0.61" height="33.66"/><rect class="cls-34" x="24.04" y="5.56" width="0.61" height="33.66"/><rect class="cls-35" x="24.65" y="5.56" width="0.61" height="33.66"/><rect class="cls-35" x="25.27" y="5.56" width="0.61" height="33.66"/><rect class="cls-36" x="25.88" y="5.56" width="0.61" height="33.66"/><rect class="cls-36" x="26.5" y="5.56" width="0.61" height="33.66"/><rect class="cls-37" x="27.11" y="5.56" width="0.61" height="33.66"/><rect class="cls-37" x="27.72" y="5.56" width="0.61" height="33.66"/><rect class="cls-38" x="28.34" y="5.56" width="0.61" height="33.66"/><rect class="cls-38" x="28.95" y="5.56" width="0.61" height="33.66"/><rect class="cls-38" x="29.56" y="5.56" width="0.61" height="33.66"/><rect class="cls-38" x="30.18" y="5.56" width="0.61" height="33.66"/><rect class="cls-39" x="30.79" y="5.56" width="0.61" height="33.66"/><rect class="cls-39" x="31.4" y="5.56" width="0.61" height="33.66"/><rect class="cls-39" x="32.02" y="5.56" width="0.61" height="33.66"/><rect class="cls-39" x="32.63" y="5.56" width="0.61" height="33.66"/><rect class="cls-39" x="33.25" y="5.56" width="0.61" height="33.66"/><rect class="cls-39" x="33.86" y="5.56" width="0.91" height="33.66"/></g><g class="cls-40"><rect class="cls-3" x="9.19" y="13.8" width="2.08" height="11.14"/><rect class="cls-3" x="11.27" y="13.8" width="0.32" height="11.14"/><rect class="cls-4" x="11.59" y="13.8" width="0.32" height="11.14"/><rect class="cls-5" x="11.91" y="13.8" width="0.32" height="11.14"/><rect class="cls-6" x="12.23" y="13.8" width="0.32" height="11.14"/><rect class="cls-7" x="12.55" y="13.8" width="0.32" height="11.14"/><rect class="cls-8" x="12.87" y="13.8" width="0.32" height="11.14"/><rect class="cls-9" x="13.19" y="13.8" width="0.32" height="11.14"/><rect class="cls-10" x="13.51" y="13.8" width="0.32" height="11.14"/><rect class="cls-11" x="13.83" y="13.8" width="0.32" height="11.14"/><rect class="cls-12" x="14.15" y="13.8" width="0.32" height="11.14"/><rect class="cls-13" x="14.47" y="13.8" width="0.32" height="11.14"/><rect class="cls-14" x="14.79" y="13.8" width="0.32" height="11.14"/><rect class="cls-15" x="15.11" y="13.8" width="0.32" height="11.14"/><rect class="cls-16" x="15.43" y="13.8" width="0.32" height="11.14"/><rect class="cls-17" x="15.75" y="13.8" width="0.32" height="11.14"/><rect class="cls-18" x="16.07" y="13.8" width="0.32" height="11.14"/><rect class="cls-19" x="16.39" y="13.8" width="0.32" height="11.14"/><rect class="cls-20" x="16.71" y="13.8" width="0.32" height="11.14"/><rect class="cls-21" x="17.03" y="13.8" width="0.32" height="11.14"/><rect class="cls-22" x="17.35" y="13.8" width="0.32" height="11.14"/><rect class="cls-23" x="17.67" y="13.8" width="0.32" height="11.14"/><rect class="cls-24" x="17.99" y="13.8" width="0.32" height="11.14"/><rect class="cls-25" x="18.31" y="13.8" width="0.32" height="11.14"/><rect class="cls-26" x="18.63" y="13.8" width="0.32" height="11.14"/><rect class="cls-27" x="18.95" y="13.8" width="0.32" height="11.14"/><rect class="cls-28" x="19.28" y="13.8" width="0.32" height="11.14"/><rect class="cls-29" x="19.6" y="13.8" width="0.32" height="11.14"/><rect class="cls-30" x="19.92" y="13.8" width="0.32" height="11.14"/><rect class="cls-30" x="20.24" y="13.8" width="0.32" height="11.14"/><rect class="cls-31" x="20.56" y="13.8" width="0.32" height="11.14"/><rect class="cls-32" x="20.88" y="13.8" width="0.32" height="11.14"/><rect class="cls-33" x="21.2" y="13.8" width="0.32" height="11.14"/><rect class="cls-34" x="21.52" y="13.8" width="0.32" height="11.14"/><rect class="cls-34" x="21.84" y="13.8" width="0.32" height="11.14"/><rect class="cls-35" x="22.16" y="13.8" width="0.32" height="11.14"/><rect class="cls-35" x="22.48" y="13.8" width="0.32" height="11.14"/><rect class="cls-36" x="22.8" y="13.8" width="0.32" height="11.14"/><rect class="cls-36" x="23.12" y="13.8" width="0.32" height="11.14"/><rect class="cls-37" x="23.44" y="13.8" width="0.32" height="11.14"/><rect class="cls-37" x="23.76" y="13.8" width="0.32" height="11.14"/><rect class="cls-38" x="24.08" y="13.8" width="0.32" height="11.14"/><rect class="cls-38" x="24.4" y="13.8" width="0.32" height="11.14"/><rect class="cls-38" x="24.72" y="13.8" width="0.32" height="11.14"/><rect class="cls-38" x="25.04" y="13.8" width="0.32" height="11.14"/><rect class="cls-39" x="25.36" y="13.8" width="0.32" height="11.14"/><rect class="cls-39" x="25.68" y="13.8" width="0.32" height="11.14"/><rect class="cls-39" x="26" y="13.8" width="0.32" height="11.14"/><rect class="cls-39" x="26.32" y="13.8" width="0.32" height="11.14"/><rect class="cls-39" x="26.64" y="13.8" width="0.32" height="11.14"/><rect class="cls-39" x="26.96" y="13.8" width="0.12" height="11.14"/></g><path class="cls-41" d="M36,37.09a24.88,24.88,0,0,1,2-6.31,16.07,16.07,0,0,1,3.39-4.68,26.27,26.27,0,0,1,3.93-3.16q1.86-1.2,4.86-2.78l1.52-.71c.72-.32,1.3-.6,1.72-.83a12.49,12.49,0,0,0,1.4-.88A3.57,3.57,0,0,0,56,16.57a2.75,2.75,0,0,0,.37-1.41c0-1.8-1.1-2.69-3.29-2.69a6.21,6.21,0,0,0-5.8,3.33l-5.84-2.61A14.84,14.84,0,0,1,54.1,6.65,10.5,10.5,0,0,1,61,9a7.17,7.17,0,0,1,2.8,5.71,7.7,7.7,0,0,1-1.38,4.61,10.13,10.13,0,0,1-2.92,2.87c-1,.63-2.91,1.59-5.62,2.9l-.5.26q-5.79,2.82-7,5.51h14.1l-1.28,6.25Z"/><path class="cls-41" d="M79.94,37.09l1.13-5.48H63.68l1-5.12L84.61,7.17h8.65L89.57,25.59H93.4l-1.22,6H88.34l-1.12,5.48Zm2.31-11.5,2.07-10.13L74.1,25.59Z"/><path class="cls-41" d="M91.88,42.64l25.84-36H125l-25.89,36Z"/><path class="cls-41" d="M127.3,37.09a49,49,0,0,1,12.58-23.64H125.29l1.23-6.28H150L148.82,13a39.36,39.36,0,0,0-8.89,11.44,46.8,46.8,0,0,0-4.77,12.63Z"/><path class="cls-42" d="M8.58,69.81A11,11,0,0,1,6,68.8a7.57,7.57,0,0,1-1.75-1.3l1.82-3.75a5.72,5.72,0,0,0,1.25,1.14,8.47,8.47,0,0,0,1.91,1,5.93,5.93,0,0,0,2.15.43,3.59,3.59,0,0,0,2.36-.78,2.66,2.66,0,0,0,1-2.18,2.82,2.82,0,0,0-.44-1.58,4.54,4.54,0,0,0-1.16-1.2c-.48-.35-1.22-.82-2.22-1.43a37,37,0,0,1-3.21-2.13,7.87,7.87,0,0,1-2-2.32,6.64,6.64,0,0,1-.85-3.47,7.06,7.06,0,0,1,.85-3.5,5.87,5.87,0,0,1,2.5-2.38,8.64,8.64,0,0,1,4-.85,9.09,9.09,0,0,1,6.35,2.31l-2,3.64a4.88,4.88,0,0,0-.91-.94,5.88,5.88,0,0,0-1.46-.87,4.59,4.59,0,0,0-1.8-.36A2.67,2.67,0,0,0,9.46,51.1a2.94,2.94,0,0,0,.46,1.61A4.88,4.88,0,0,0,11.11,54c.5.36,1.16.8,2,1.3a39,39,0,0,1,3.46,2.24,7.74,7.74,0,0,1,2,2.31,6.78,6.78,0,0,1,.82,3.43A7.2,7.2,0,0,1,18.45,67a6.15,6.15,0,0,1-2.66,2.4,9.37,9.37,0,0,1-4.08.83A12.2,12.2,0,0,1,8.58,69.81Z"/><path class="cls-42" d="M25.55,68.11q-2.4-2.16-2.4-7.17V45h4.64V61.43c0,1.88.41,3.18,1.24,3.89a4.29,4.29,0,0,0,2.89,1.07,4.16,4.16,0,0,0,2.86-1c.78-.7,1.17-2,1.17-3.91V45h4.64v16q0,5-2.34,7.17A8.79,8.79,0,0,1,32,70.28,9.24,9.24,0,0,1,25.55,68.11Z"/><path class="cls-42" d="M59.44,47c1.65,1.33,2.47,3.56,2.47,6.71a11.45,11.45,0,0,1-1,4.72,7.92,7.92,0,0,1-3,3.46,9.12,9.12,0,0,1-5,1.31H50.71v6.66h-4.6V45h6.67A10.31,10.31,0,0,1,59.44,47ZM56.12,58a6.16,6.16,0,0,0,1.19-4.09,8.36,8.36,0,0,0-.47-3,3.27,3.27,0,0,0-1.52-1.73,5.88,5.88,0,0,0-2.83-.57H50.71V59.4H52.6A4.33,4.33,0,0,0,56.12,58Z"/><path class="cls-42" d="M79.12,47c1.64,1.33,2.46,3.56,2.46,6.71a11.45,11.45,0,0,1-1,4.72,8,8,0,0,1-3,3.46,9.12,9.12,0,0,1-5,1.31H70.39v6.66h-4.6V45h6.67A10.33,10.33,0,0,1,79.12,47ZM75.8,58A6.16,6.16,0,0,0,77,53.91a8.36,8.36,0,0,0-.47-3A3.31,3.31,0,0,0,75,49.14a5.88,5.88,0,0,0-2.83-.57H70.39V59.4h1.89A4.33,4.33,0,0,0,75.8,58Z"/><path class="cls-42" d="M88.94,68.66a9.66,9.66,0,0,1-3.52-4.47,17.72,17.72,0,0,1-1.2-6.82,17.82,17.82,0,0,1,1.19-6.78,9.19,9.19,0,0,1,9.08-6.05,10,10,0,0,1,5.74,1.59,9.65,9.65,0,0,1,3.5,4.49,17.86,17.86,0,0,1,1.17,6.75,17.72,17.72,0,0,1-1.2,6.82,9.85,9.85,0,0,1-3.52,4.47,9.64,9.64,0,0,1-5.58,1.58A9.83,9.83,0,0,1,88.94,68.66Zm8.5-3.25a6.79,6.79,0,0,0,2-3.08,15.53,15.53,0,0,0,.73-5.07,12.47,12.47,0,0,0-1.49-6.71,4.71,4.71,0,0,0-4.18-2.31,4.53,4.53,0,0,0-4.06,2.31A13,13,0,0,0,89,57.3a16,16,0,0,0,.69,5.07,6.32,6.32,0,0,0,1.94,3.05,4.6,4.6,0,0,0,3,1A4.4,4.4,0,0,0,97.44,65.41Z"/><path class="cls-42" d="M120.37,69.81l-6.38-9v9h-4.53V45h6.92q8.84,0,8.84,7.92a10.92,10.92,0,0,1-.57,3.47,7.87,7.87,0,0,1-1.86,3,6.92,6.92,0,0,1-3.31,1.82l6.42,8.62Zm-4.49-11.23a4.44,4.44,0,0,0,4.22-2.64,6.24,6.24,0,0,0,.56-2.63,5,5,0,0,0-1.14-3.62,5.09,5.09,0,0,0-3.75-1.16H114v10Z"/><path class="cls-42" d="M143.94,49H138.2V69.81h-4.6V49h-5.74V45h16.08Z"/></svg>