<svg width="186" height="174" viewBox="0 0 186 174" fill="none" xmlns="http://www.w3.org/2000/svg">
<path d="M90.1866 167.64C89.0276 167.64 87.8272 167.599 86.6682 167.557C86.3371 167.557 86.0474 167.268 86.0887 166.895C86.0887 166.564 86.3785 166.274 86.751 166.315C89.069 166.44 91.4698 166.44 93.7878 166.315C94.1189 166.315 94.4086 166.564 94.45 166.895C94.45 167.226 94.2017 167.516 93.8705 167.557C92.5874 167.599 91.387 167.64 90.1866 167.64ZM79.6315 166.895C79.5901 166.895 79.5901 166.895 79.5487 166.895C77.1893 166.564 74.83 166.109 72.512 165.57C72.1808 165.488 71.9739 165.156 72.0567 164.825C72.1395 164.494 72.4706 164.287 72.8017 164.37C75.0783 164.908 77.3963 165.363 79.7143 165.695C80.0454 165.736 80.2938 166.067 80.2524 166.398C80.1696 166.688 79.9212 166.895 79.6315 166.895ZM100.825 166.895C100.535 166.895 100.245 166.688 100.204 166.357C100.162 166.026 100.411 165.695 100.742 165.653C103.06 165.322 105.378 164.867 107.654 164.329C107.985 164.246 108.317 164.453 108.399 164.784C108.482 165.115 108.275 165.446 107.944 165.529C105.626 166.067 103.267 166.522 100.907 166.895C100.866 166.895 100.866 166.895 100.825 166.895ZM65.8478 163.584C65.765 163.584 65.7236 163.584 65.6408 163.542C63.4056 162.756 61.1704 161.886 59.018 160.893C58.6869 160.769 58.5627 160.396 58.7282 160.065C58.8938 159.734 59.225 159.61 59.5561 159.775C61.6671 160.727 63.8609 161.638 66.0961 162.383C66.4273 162.507 66.5928 162.839 66.4687 163.17C66.3445 163.418 66.0961 163.584 65.8478 163.584ZM114.567 163.542C114.318 163.542 114.07 163.377 113.987 163.128C113.863 162.797 114.029 162.466 114.36 162.342C116.554 161.597 118.747 160.686 120.9 159.734C121.231 159.61 121.562 159.734 121.728 160.024C121.852 160.355 121.728 160.686 121.438 160.852C119.286 161.845 117.05 162.756 114.815 163.501C114.732 163.542 114.65 163.542 114.567 163.542ZM52.9747 157.706C52.8505 157.706 52.7677 157.664 52.6849 157.623C50.6153 156.423 48.5871 155.139 46.683 153.774C46.3933 153.567 46.3519 153.194 46.5174 152.904C46.7244 152.615 47.0969 152.573 47.3867 152.739C49.2907 154.105 51.2776 155.388 53.3058 156.547C53.5956 156.712 53.7197 157.085 53.5128 157.375C53.3886 157.582 53.1816 157.706 52.9747 157.706ZM127.481 157.664C127.274 157.664 127.067 157.54 126.943 157.375C126.778 157.085 126.86 156.712 127.15 156.547C129.178 155.388 131.165 154.105 133.069 152.739C133.359 152.532 133.732 152.615 133.939 152.863C134.146 153.153 134.063 153.525 133.814 153.732C131.869 155.098 129.841 156.423 127.812 157.623C127.688 157.623 127.564 157.664 127.481 157.664ZM41.4262 149.469C41.302 149.469 41.1364 149.427 41.0122 149.303C39.2323 147.73 37.4939 146.075 35.8382 144.377C35.5898 144.129 35.5898 143.757 35.8382 143.508C36.0865 143.26 36.459 143.26 36.7074 143.508C38.3217 145.205 40.0188 146.82 41.7987 148.351C42.047 148.558 42.0884 148.972 41.8815 149.22C41.7573 149.427 41.5917 149.469 41.4262 149.469ZM138.988 149.427C138.823 149.427 138.657 149.345 138.533 149.22C138.326 148.972 138.326 148.558 138.575 148.351C140.354 146.82 142.052 145.205 143.666 143.508C143.914 143.26 144.287 143.26 144.535 143.467C144.783 143.715 144.783 144.088 144.576 144.336C142.921 146.075 141.182 147.73 139.402 149.262C139.278 149.386 139.154 149.427 138.988 149.427ZM31.6575 139.245C31.4919 139.245 31.285 139.162 31.1608 138.996C29.6707 137.134 28.3047 135.188 27.0215 133.16C26.856 132.87 26.9387 132.498 27.1871 132.291C27.4355 132.084 27.8494 132.208 28.0564 132.456C29.3395 134.402 30.7055 136.347 32.1542 138.169C32.3612 138.458 32.3198 138.831 32.0714 139.038C31.9059 139.203 31.7817 139.245 31.6575 139.245ZM148.757 139.162C148.633 139.162 148.467 139.121 148.385 139.038C148.095 138.831 148.053 138.417 148.26 138.169C149.709 136.347 151.075 134.402 152.358 132.456C152.524 132.167 152.938 132.084 153.228 132.249C153.517 132.415 153.6 132.829 153.434 133.119C152.151 135.105 150.744 137.092 149.295 138.955C149.13 139.079 148.964 139.162 148.757 139.162ZM23.9585 127.324C23.7515 127.324 23.5032 127.199 23.4204 126.993C22.3442 124.882 21.3094 122.688 20.4401 120.494C20.3159 120.163 20.4815 119.832 20.7713 119.666C21.1024 119.542 21.4335 119.707 21.5991 119.997C22.4684 122.15 23.4618 124.302 24.538 126.372C24.7036 126.661 24.5794 127.034 24.2896 127.199C24.1654 127.324 24.0413 127.324 23.9585 127.324ZM156.415 127.241C156.332 127.241 156.208 127.199 156.125 127.158C155.835 126.993 155.711 126.62 155.877 126.33C156.953 124.261 157.946 122.108 158.816 119.956C158.94 119.625 159.312 119.5 159.643 119.625C159.975 119.749 160.099 120.121 159.975 120.453C159.105 122.646 158.112 124.84 156.994 126.951C156.87 127.117 156.663 127.241 156.415 127.241ZM18.6602 114.202C18.4119 114.202 18.1635 114.037 18.0807 113.747C17.4185 111.47 16.839 109.152 16.3836 106.793C16.3009 106.462 16.5492 106.131 16.8804 106.048C17.2115 105.965 17.5426 106.213 17.6254 106.545C18.0807 108.821 18.6188 111.139 19.2811 113.374C19.3639 113.706 19.1983 114.037 18.8672 114.161C18.7844 114.202 18.743 114.202 18.6602 114.202ZM161.713 114.119C161.672 114.119 161.589 114.119 161.547 114.078C161.216 113.995 161.009 113.623 161.133 113.292C161.796 111.056 162.334 108.738 162.789 106.462C162.872 106.131 163.162 105.924 163.534 105.965C163.865 106.048 164.072 106.338 164.031 106.71C163.576 109.028 163.038 111.388 162.334 113.664C162.21 113.954 161.961 114.119 161.713 114.119ZM16.0111 100.294C15.68 100.294 15.4316 100.046 15.3902 99.7148C15.1833 97.3555 15.0591 94.9547 15.0591 92.5953C15.0591 92.2642 15.3488 91.9744 15.68 91.9744C16.0111 91.9744 16.3009 92.2642 16.3009 92.5953C16.3009 94.9547 16.425 97.3141 16.632 99.632C16.6734 99.9632 16.425 100.294 16.0525 100.294H16.0111ZM164.362 100.212H164.321C163.99 100.17 163.741 99.8804 163.741 99.5493C163.948 97.2313 164.072 94.8719 164.072 92.5125V92.3469C164.072 92.0158 164.362 91.7261 164.693 91.7261C165.024 91.7261 165.314 92.0158 165.314 92.3469V92.5125C165.314 94.9133 165.19 97.3141 164.983 99.632C164.942 99.9632 164.693 100.212 164.362 100.212ZM15.9697 86.1381H15.9283C15.5972 86.0967 15.3488 85.8069 15.3488 85.4758C15.5558 83.1164 15.8869 80.7156 16.3423 78.3976C16.425 78.0665 16.7148 77.8182 17.0873 77.9009C17.4185 77.9837 17.6254 78.2735 17.584 78.646C17.1287 80.9226 16.7976 83.282 16.5906 85.6C16.5906 85.8897 16.3009 86.1381 15.9697 86.1381ZM164.362 85.8897C164.031 85.8897 163.783 85.6413 163.741 85.3102C163.534 82.9922 163.162 80.6328 162.748 78.3563C162.665 78.0251 162.913 77.694 163.245 77.6112C163.576 77.5284 163.907 77.7768 163.99 78.1079C164.445 80.4259 164.776 82.8267 165.024 85.186C165.066 85.5172 164.817 85.8483 164.486 85.8483C164.404 85.8897 164.362 85.8897 164.362 85.8897ZM18.6188 72.2302C18.5775 72.2302 18.4947 72.2302 18.4533 72.1888C18.1221 72.106 17.9152 71.7334 18.0393 71.4023C18.7016 69.1257 19.4881 66.8491 20.3573 64.6553C20.4815 64.3242 20.854 64.2 21.1438 64.3242C21.4749 64.4483 21.5991 64.8209 21.4749 65.1106C20.6057 67.263 19.8192 69.4982 19.1983 71.7748C19.1569 72.0232 18.9086 72.2302 18.6188 72.2302ZM161.63 71.9818C161.382 71.9818 161.133 71.8162 161.051 71.5265C160.388 69.2913 159.602 67.0561 158.733 64.9037C158.609 64.5725 158.774 64.2414 159.064 64.0758C159.395 63.9516 159.726 64.1172 159.892 64.407C160.761 66.6008 161.589 68.8774 162.251 71.1539C162.334 71.4851 162.168 71.8162 161.837 71.9404C161.754 71.9404 161.713 71.9818 161.63 71.9818ZM23.8757 59.0673C23.7929 59.0673 23.6687 59.0259 23.586 58.9845C23.2962 58.819 23.172 58.4464 23.3376 58.1567C24.4138 56.0457 25.6142 53.976 26.8974 51.9478C27.0629 51.658 27.4769 51.5753 27.7666 51.7408C28.0563 51.9064 28.1391 52.3203 27.9736 52.6101C26.7318 54.5969 25.5314 56.6251 24.4552 58.6948C24.331 58.9431 24.1241 59.0673 23.8757 59.0673ZM156.373 58.819C156.166 58.819 155.918 58.6948 155.835 58.4878C154.759 56.4182 153.559 54.39 152.317 52.4031C152.151 52.1134 152.193 51.7408 152.482 51.5339C152.772 51.3683 153.145 51.4097 153.352 51.6994C154.635 53.6863 155.835 55.7559 156.953 57.8669C157.118 58.1567 156.994 58.5292 156.704 58.6948C156.539 58.819 156.456 58.819 156.373 58.819ZM31.5333 47.1463C31.4091 47.1463 31.2436 47.1049 31.1608 47.0221C30.871 46.8151 30.8297 46.4012 31.0366 46.1528C32.4854 44.2902 34.0583 42.4689 35.714 40.7304C35.9623 40.482 36.3349 40.482 36.5832 40.689C36.8316 40.9374 36.8316 41.3099 36.6246 41.5583C35.0103 43.2553 33.4788 45.0352 32.03 46.8979C31.9059 47.0635 31.6989 47.1463 31.5333 47.1463ZM148.674 46.9393C148.509 46.9393 148.302 46.8565 148.178 46.6909C146.729 44.8697 145.156 43.0898 143.542 41.3927C143.293 41.1443 143.293 40.7718 143.542 40.5234C143.79 40.2751 144.163 40.2751 144.411 40.5234C146.067 42.2205 147.64 44.0418 149.088 45.9045C149.295 46.1528 149.254 46.5668 149.005 46.7737C148.923 46.8979 148.799 46.9393 148.674 46.9393ZM41.302 36.8809C41.1364 36.8809 40.9708 36.7981 40.8467 36.6739C40.6397 36.4256 40.6397 36.0116 40.8881 35.8047C42.6679 34.2318 44.572 32.7416 46.5174 31.3757C46.8072 31.1687 47.1797 31.2515 47.3867 31.4999C47.5936 31.7896 47.5109 32.1621 47.2625 32.3691C45.3584 33.7351 43.4958 35.1838 41.7573 36.7153C41.5917 36.8395 41.4262 36.8809 41.302 36.8809ZM138.864 36.7153C138.74 36.7153 138.575 36.6739 138.45 36.5497C136.67 35.0182 134.808 33.5695 132.904 32.2035C132.614 31.9966 132.573 31.624 132.738 31.3343C132.945 31.0445 133.318 31.0031 133.607 31.1687C135.553 32.5347 137.416 34.0248 139.237 35.5977C139.485 35.8047 139.527 36.2186 139.32 36.467C139.195 36.6325 139.03 36.7153 138.864 36.7153ZM52.8091 28.6438C52.6021 28.6438 52.3952 28.5196 52.271 28.354C52.1054 28.0643 52.1882 27.6917 52.478 27.4848C54.5476 26.2844 56.6586 25.1668 58.811 24.2148C59.1422 24.0906 59.4733 24.2148 59.6389 24.5045C59.7631 24.8356 59.6389 25.1668 59.3491 25.3324C57.2381 26.3258 55.1271 27.402 53.0989 28.561C53.0161 28.6024 52.9333 28.6438 52.8091 28.6438ZM127.316 28.5196C127.192 28.5196 127.109 28.4782 127.026 28.4368C124.998 27.2778 122.887 26.2016 120.776 25.2082C120.445 25.084 120.32 24.7115 120.486 24.3803C120.61 24.0492 120.983 23.925 121.314 24.0906C123.466 25.084 125.619 26.1602 127.688 27.3606C127.978 27.5262 128.102 27.8987 127.937 28.1884C127.73 28.3954 127.523 28.5196 127.316 28.5196ZM65.6822 22.7246C65.4338 22.7246 65.1855 22.5591 65.1027 22.3107C64.9785 21.9796 65.1441 21.6484 65.4752 21.5242C67.7104 20.7378 70.0284 20.0755 72.3464 19.496C72.6775 19.4132 73.0087 19.6202 73.0915 19.9513C73.1743 20.2825 72.9673 20.6136 72.6362 20.6964C70.3596 21.2345 68.083 21.9382 65.8892 22.6832C65.8064 22.7246 65.765 22.7246 65.6822 22.7246ZM114.443 22.6418C114.36 22.6418 114.318 22.6418 114.236 22.6005C112.042 21.8554 109.765 21.1931 107.489 20.655C107.158 20.5722 106.951 20.2411 107.033 19.9099C107.116 19.5788 107.447 19.3718 107.778 19.4546C110.096 19.9927 112.414 20.6964 114.65 21.4415C114.981 21.5656 115.146 21.8968 115.022 22.2279C114.939 22.4763 114.691 22.6418 114.443 22.6418ZM79.4659 19.3718C79.1762 19.3718 78.8864 19.1649 78.845 18.8337C78.8037 18.5026 79.052 18.1714 79.3831 18.1301C81.7425 17.7989 84.1019 17.5506 86.5027 17.4264C86.8338 17.385 87.1236 17.6747 87.165 18.0059C87.165 18.337 86.9166 18.6268 86.5854 18.6682C84.2675 18.7923 81.9081 18.9993 79.5901 19.3304C79.5073 19.3718 79.4659 19.3718 79.4659 19.3718ZM100.659 19.3304C100.618 19.3304 100.618 19.3304 100.576 19.3304C98.2582 18.9993 95.8988 18.7923 93.5808 18.6682C93.2497 18.6682 92.9599 18.3784 93.0013 18.0059C93.0013 17.6747 93.291 17.385 93.6636 17.4264C96.023 17.5506 98.4237 17.7575 100.783 18.0887C101.114 18.1301 101.363 18.4612 101.321 18.7923C101.238 19.1235 100.949 19.3304 100.659 19.3304Z" fill="#1C976E"/>
<path d="M90.4349 173.559C90.1038 173.559 89.814 173.269 89.814 172.938C89.814 172.607 90.1038 172.317 90.4349 172.317C91.3869 172.317 92.339 172.276 93.291 172.276C93.3738 172.276 93.4152 172.276 93.498 172.317C93.5807 172.276 93.6221 172.276 93.7049 172.276C94.657 172.235 95.609 172.193 96.561 172.11C96.8922 172.069 97.1819 172.359 97.2233 172.69C97.2647 173.021 96.9749 173.311 96.6438 173.352C95.6918 173.435 94.6983 173.476 93.7463 173.518C93.6635 173.518 93.6221 173.518 93.5394 173.476C93.4566 173.518 93.4152 173.518 93.3324 173.518C92.339 173.518 91.3869 173.559 90.4349 173.559ZM87.5374 173.518H87.0821C86.751 173.518 86.4612 173.228 86.5026 172.855C86.5026 172.524 86.7924 172.235 87.1649 172.276H87.5788C87.91 172.276 88.1997 172.566 88.1997 172.897C88.1583 173.228 87.8686 173.518 87.5374 173.518ZM84.2674 173.352H84.226C83.274 173.269 82.2806 173.187 81.3285 173.104C81.2458 173.104 81.2044 173.062 81.1216 173.062C81.0388 173.062 80.9974 173.062 80.9146 173.062C79.9626 172.938 79.0106 172.814 78.0585 172.69C77.7274 172.648 77.479 172.317 77.5204 171.986C77.5618 171.655 77.893 171.407 78.2241 171.448C79.1761 171.572 80.1282 171.696 81.0388 171.821C81.1216 171.821 81.163 171.862 81.2458 171.862C81.3285 171.862 81.3699 171.862 81.4527 171.862C82.4048 171.945 83.3568 172.069 84.3088 172.11C84.6399 172.152 84.8883 172.441 84.8883 172.773C84.8469 173.104 84.5986 173.352 84.2674 173.352ZM99.4171 173.021C99.086 173.021 98.8376 172.773 98.7962 172.483C98.7548 172.152 99.0032 171.821 99.3343 171.779L99.7482 171.738C100.079 171.696 100.411 171.945 100.452 172.276C100.493 172.607 100.245 172.938 99.9138 172.98L99.4999 173.021C99.4585 173.021 99.4585 173.021 99.4171 173.021ZM102.687 172.607C102.397 172.607 102.108 172.4 102.066 172.069C102.025 171.738 102.232 171.407 102.604 171.365C103.556 171.2 104.467 171.034 105.419 170.869C105.502 170.869 105.543 170.869 105.626 170.869C105.667 170.827 105.75 170.827 105.833 170.786C106.744 170.62 107.696 170.413 108.606 170.165C108.937 170.082 109.269 170.289 109.351 170.62C109.434 170.951 109.227 171.283 108.896 171.365C107.944 171.572 106.992 171.779 106.081 171.986C105.999 171.986 105.957 171.986 105.874 171.986C105.833 172.028 105.75 172.028 105.667 172.069C104.715 172.235 103.763 172.4 102.811 172.566C102.77 172.566 102.729 172.607 102.687 172.607ZM75.2852 172.193C75.2438 172.193 75.2024 172.193 75.161 172.193L74.7471 172.11C74.416 172.028 74.209 171.738 74.2504 171.365C74.2918 170.993 74.6229 170.827 74.9955 170.869L75.4094 170.951C75.7405 171.034 75.9889 171.324 75.9061 171.655C75.8647 171.986 75.6164 172.193 75.2852 172.193ZM72.098 171.531C72.0566 171.531 72.0152 171.531 71.9738 171.531C71.0218 171.324 70.1112 171.076 69.1591 170.827C69.0763 170.827 69.035 170.786 68.9522 170.744C68.8694 170.744 68.828 170.744 68.7452 170.744C67.8346 170.496 66.8825 170.206 65.9719 169.917C65.6408 169.834 65.4752 169.461 65.558 169.13C65.6408 168.799 66.0133 168.633 66.3444 168.716C67.2551 169.006 68.1657 169.254 69.0763 169.503C69.1591 169.503 69.2005 169.544 69.2833 169.585C69.3661 169.585 69.4075 169.585 69.4903 169.585C70.4009 169.834 71.3529 170.082 72.2636 170.289C72.5947 170.372 72.8017 170.703 72.7189 171.034C72.6361 171.324 72.3877 171.531 72.098 171.531ZM111.504 170.703C111.214 170.703 110.966 170.537 110.924 170.248C110.841 169.917 111.048 169.585 111.338 169.503L111.752 169.378C112.083 169.296 112.414 169.461 112.497 169.792C112.58 170.124 112.414 170.455 112.083 170.537L111.669 170.662C111.628 170.703 111.587 170.703 111.504 170.703ZM114.65 169.751C114.401 169.751 114.153 169.585 114.07 169.337C113.946 169.006 114.153 168.675 114.484 168.551C115.395 168.261 116.305 167.971 117.175 167.64C117.257 167.599 117.299 167.599 117.381 167.599C117.423 167.557 117.506 167.516 117.547 167.516C118.416 167.185 119.327 166.853 120.196 166.481C120.527 166.357 120.858 166.522 121.024 166.812C121.148 167.143 120.983 167.474 120.693 167.64C119.782 168.012 118.872 168.344 118.002 168.675C117.92 168.716 117.878 168.716 117.795 168.716C117.754 168.758 117.671 168.799 117.63 168.84C116.719 169.171 115.809 169.461 114.898 169.751C114.815 169.751 114.732 169.751 114.65 169.751ZM63.4056 169.006C63.3228 169.006 63.2814 169.006 63.1986 168.965L62.8261 168.84C62.4949 168.716 62.3293 168.385 62.4535 168.054C62.5777 167.723 62.9088 167.557 63.24 167.681L63.6125 167.806C63.9437 167.93 64.1092 168.261 63.9851 168.592C63.9023 168.84 63.6539 169.006 63.4056 169.006ZM60.3011 167.847C60.2183 167.847 60.1356 167.847 60.0528 167.806C59.1421 167.433 58.2729 167.06 57.3622 166.688C57.2795 166.647 57.2381 166.605 57.1967 166.564C57.1139 166.564 57.0725 166.522 56.9897 166.522C56.1205 166.15 55.2098 165.695 54.382 165.281C54.0922 165.115 53.9681 164.742 54.0922 164.453C54.2578 164.163 54.6303 164.039 54.9201 164.163C55.7893 164.577 56.6586 164.991 57.5278 165.363C57.6106 165.405 57.652 165.446 57.6934 165.488C57.7762 165.488 57.8176 165.529 57.9003 165.529C58.7696 165.901 59.6388 166.274 60.5495 166.647C60.8806 166.771 61.0048 167.143 60.8806 167.433C60.7978 167.681 60.5495 167.847 60.3011 167.847ZM123.094 166.522C122.845 166.522 122.638 166.398 122.514 166.15C122.39 165.819 122.514 165.488 122.845 165.322L123.218 165.156C123.549 165.032 123.88 165.156 124.046 165.446C124.211 165.736 124.046 166.108 123.756 166.274L123.383 166.44C123.259 166.522 123.176 166.522 123.094 166.522ZM126.074 165.115C125.826 165.115 125.619 164.991 125.536 164.784C125.37 164.494 125.494 164.122 125.826 163.956C126.653 163.542 127.523 163.087 128.351 162.631C128.433 162.59 128.475 162.59 128.557 162.549C128.599 162.507 128.64 162.466 128.723 162.424C129.551 161.969 130.379 161.472 131.207 161.017C131.496 160.852 131.869 160.934 132.076 161.224C132.241 161.514 132.159 161.886 131.869 162.093C131.041 162.59 130.213 163.087 129.344 163.542C129.261 163.583 129.22 163.583 129.137 163.625C129.096 163.666 129.054 163.708 128.971 163.749C128.144 164.204 127.274 164.66 126.405 165.074C126.239 165.115 126.157 165.115 126.074 165.115ZM52.1054 163.997C52.0226 163.997 51.8984 163.956 51.8156 163.915L51.4431 163.708C51.1534 163.542 51.0292 163.17 51.1948 162.88C51.3603 162.59 51.7329 162.466 52.0226 162.631L52.3951 162.838C52.6849 163.004 52.8091 163.377 52.6435 163.666C52.5607 163.873 52.3537 163.997 52.1054 163.997ZM49.2493 162.383C49.1251 162.383 49.0423 162.342 48.9182 162.3C48.0903 161.804 47.2625 161.307 46.4346 160.769C46.3932 160.727 46.3104 160.686 46.269 160.645C46.1862 160.645 46.1449 160.603 46.0621 160.562C45.2756 160.024 44.4478 159.486 43.6613 158.948C43.3716 158.741 43.3302 158.368 43.4957 158.078C43.7027 157.789 44.0752 157.747 44.365 157.913C45.1514 158.451 45.9379 158.989 46.7244 159.527C46.7657 159.568 46.8485 159.61 46.8899 159.651C46.9727 159.651 47.0141 159.693 47.0969 159.734C47.8833 160.231 48.7112 160.769 49.539 161.224C49.8288 161.39 49.9116 161.762 49.746 162.093C49.6632 162.259 49.4563 162.383 49.2493 162.383ZM133.897 160.645C133.69 160.645 133.483 160.562 133.359 160.355C133.152 160.065 133.235 159.693 133.525 159.486L133.856 159.279C134.145 159.072 134.518 159.154 134.725 159.444C134.932 159.734 134.849 160.107 134.559 160.313L134.228 160.52C134.104 160.603 134.021 160.645 133.897 160.645ZM136.588 158.823C136.381 158.823 136.215 158.741 136.091 158.575C135.884 158.285 135.967 157.913 136.257 157.706C137.043 157.168 137.788 156.588 138.533 156.009C138.574 155.967 138.657 155.926 138.699 155.926C138.74 155.884 138.781 155.802 138.823 155.76C139.568 155.181 140.313 154.601 141.058 153.98C141.306 153.773 141.72 153.815 141.927 154.063C142.134 154.312 142.093 154.725 141.844 154.932C141.099 155.553 140.354 156.133 139.568 156.754C139.527 156.795 139.444 156.836 139.402 156.836C139.361 156.878 139.32 156.961 139.278 157.002C138.533 157.582 137.747 158.161 136.96 158.699C136.836 158.782 136.712 158.823 136.588 158.823ZM41.7572 157.333C41.6331 157.333 41.5089 157.292 41.3847 157.209L41.0536 156.961C40.7638 156.754 40.7224 156.381 40.9294 156.091C41.1364 155.802 41.5089 155.76 41.7986 155.967L42.1298 156.216C42.4195 156.423 42.4609 156.795 42.254 157.085C42.1298 157.25 41.9228 157.333 41.7572 157.333ZM39.1495 155.305C39.0253 155.305 38.8598 155.264 38.7356 155.181C37.9905 154.56 37.2455 153.939 36.5418 153.318C36.5004 153.277 36.459 153.194 36.4176 153.153C36.3348 153.111 36.2934 153.07 36.252 153.028C35.5484 152.407 34.8033 151.745 34.141 151.042C33.8927 150.793 33.8927 150.421 34.141 150.172C34.3894 149.924 34.7619 149.924 35.0103 150.172C35.7139 150.835 36.4176 151.497 37.1213 152.118C37.1627 152.159 37.2041 152.201 37.2455 152.283C37.3282 152.325 37.3696 152.366 37.411 152.407C38.1147 153.028 38.8598 153.649 39.6048 154.27C39.8532 154.477 39.8946 154.891 39.6876 155.139C39.522 155.222 39.3565 155.305 39.1495 155.305ZM143.666 153.194C143.5 153.194 143.335 153.111 143.21 152.987C142.962 152.739 143.003 152.325 143.252 152.118L143.542 151.828C143.79 151.58 144.204 151.621 144.411 151.869C144.659 152.118 144.618 152.532 144.369 152.739L144.08 153.028C143.956 153.153 143.831 153.194 143.666 153.194ZM146.067 150.959C145.901 150.959 145.735 150.876 145.611 150.752C145.363 150.503 145.363 150.131 145.611 149.883C146.273 149.22 146.977 148.558 147.639 147.854C147.681 147.813 147.764 147.772 147.805 147.73C147.846 147.689 147.888 147.606 147.929 147.565C148.591 146.861 149.212 146.157 149.875 145.454C150.082 145.205 150.496 145.164 150.744 145.412C150.992 145.66 151.034 146.033 150.785 146.281C150.164 146.985 149.502 147.73 148.84 148.434C148.798 148.475 148.716 148.517 148.674 148.558C148.633 148.641 148.591 148.682 148.55 148.724C147.888 149.427 147.184 150.09 146.522 150.793C146.398 150.917 146.232 150.959 146.067 150.959ZM32.5267 149.179C32.3611 149.179 32.1956 149.096 32.0714 148.972L31.7816 148.682C31.5333 148.434 31.5333 148.061 31.7816 147.813C32.03 147.565 32.4025 147.565 32.6509 147.813L32.9406 148.103C33.189 148.351 33.189 148.724 32.9406 148.972C32.8164 149.137 32.6509 149.179 32.5267 149.179ZM30.2501 146.778C30.0845 146.778 29.919 146.695 29.7948 146.571C29.1739 145.867 28.5116 145.122 27.8907 144.377C27.8493 144.336 27.8079 144.253 27.7666 144.212C27.7252 144.17 27.6424 144.129 27.601 144.088C26.9801 143.343 26.4006 142.597 25.7797 141.811C25.5727 141.521 25.6141 141.149 25.9039 140.942C26.1936 140.735 26.5662 140.776 26.7731 141.066C27.3526 141.811 27.9321 142.556 28.553 143.301C28.5944 143.343 28.6358 143.425 28.6772 143.467C28.7186 143.508 28.8014 143.549 28.8428 143.591C29.4636 144.336 30.0845 145.04 30.7054 145.743C30.9538 145.992 30.9124 146.406 30.664 146.613C30.5812 146.737 30.4157 146.778 30.2501 146.778ZM152.193 144.336C152.068 144.336 151.903 144.295 151.779 144.212C151.53 144.005 151.489 143.591 151.696 143.343L151.944 143.011C152.151 142.763 152.565 142.722 152.814 142.929C153.062 143.136 153.103 143.549 152.896 143.798L152.648 144.129C152.565 144.253 152.4 144.336 152.193 144.336ZM154.262 141.728C154.138 141.728 154.014 141.687 153.89 141.604C153.6 141.397 153.559 141.025 153.766 140.735C154.345 139.99 154.883 139.203 155.463 138.417C155.504 138.375 155.545 138.293 155.628 138.251C155.628 138.168 155.67 138.127 155.711 138.044C156.249 137.258 156.787 136.471 157.284 135.685C157.491 135.395 157.863 135.312 158.153 135.519C158.443 135.685 158.526 136.099 158.319 136.389C157.781 137.216 157.243 138.003 156.704 138.789C156.663 138.831 156.622 138.914 156.539 138.955C156.539 139.038 156.497 139.079 156.456 139.162C155.918 139.948 155.338 140.735 154.759 141.521C154.635 141.645 154.428 141.728 154.262 141.728ZM24.6207 139.741C24.4138 139.741 24.2482 139.659 24.124 139.493L23.8756 139.162C23.6687 138.872 23.7515 138.5 24.0412 138.293C24.331 138.086 24.7035 138.168 24.9105 138.458L25.1588 138.789C25.3658 139.079 25.283 139.452 24.9933 139.659C24.8691 139.7 24.7449 139.741 24.6207 139.741ZM22.7581 137.051C22.5511 137.051 22.3441 136.968 22.2199 136.761C21.6818 135.975 21.1851 135.147 20.6884 134.319C20.647 134.278 20.6056 134.195 20.6056 134.112C20.5642 134.071 20.5229 134.029 20.4815 133.946C19.9847 133.119 19.488 132.291 19.0327 131.421C18.8671 131.132 18.9913 130.759 19.2811 130.594C19.5708 130.428 19.9434 130.552 20.1089 130.842C20.5642 131.67 21.0196 132.498 21.5163 133.326C21.5577 133.367 21.5577 133.45 21.5991 133.532C21.6405 133.574 21.6818 133.615 21.7232 133.698C22.2199 134.526 22.7167 135.312 23.2548 136.099C23.4617 136.389 23.3789 136.761 23.0892 136.968C23.0064 137.009 22.8822 137.051 22.7581 137.051ZM159.312 134.236C159.188 134.236 159.105 134.195 158.981 134.153C158.691 133.988 158.608 133.615 158.774 133.284L158.981 132.953C159.147 132.663 159.519 132.539 159.85 132.746C160.14 132.912 160.264 133.284 160.057 133.615L159.85 133.988C159.726 134.153 159.519 134.236 159.312 134.236ZM160.926 131.38C160.844 131.38 160.72 131.339 160.637 131.297C160.347 131.132 160.223 130.759 160.388 130.469C160.844 129.642 161.299 128.772 161.713 127.944C161.754 127.862 161.796 127.82 161.837 127.779C161.837 127.696 161.878 127.655 161.878 127.572C162.292 126.703 162.706 125.833 163.079 124.964C163.203 124.633 163.576 124.509 163.907 124.633C164.238 124.757 164.362 125.13 164.238 125.461C163.824 126.33 163.41 127.241 162.996 128.11C162.955 128.193 162.913 128.234 162.872 128.276C162.872 128.358 162.831 128.4 162.831 128.483C162.417 129.352 161.961 130.221 161.506 131.049C161.382 131.256 161.175 131.38 160.926 131.38ZM18.2877 129.228C18.0807 129.228 17.8323 129.103 17.7495 128.897L17.584 128.524C17.4184 128.234 17.5426 127.862 17.8737 127.696C18.1635 127.531 18.536 127.655 18.7016 127.986L18.8671 128.358C19.0327 128.648 18.9085 129.021 18.5774 129.186C18.4532 129.186 18.3704 129.228 18.2877 129.228ZM16.8803 126.247C16.6319 126.247 16.425 126.123 16.3008 125.875C15.8869 125.006 15.5143 124.095 15.1418 123.226C15.1004 123.143 15.1004 123.102 15.1004 123.019C15.059 122.977 15.0176 122.895 14.9762 122.853C14.6037 121.943 14.2726 121.032 13.9414 120.163C13.8173 119.832 13.9828 119.5 14.314 119.376C14.6451 119.252 14.9762 119.418 15.1004 119.749C15.4316 120.618 15.7627 121.529 16.1352 122.398C16.1766 122.481 16.1766 122.522 16.1766 122.605C16.218 122.646 16.2594 122.729 16.3008 122.77C16.6733 123.64 17.0459 124.509 17.4184 125.378C17.5426 125.709 17.4184 126.04 17.1287 126.206C17.0459 126.247 16.9631 126.247 16.8803 126.247ZM164.817 123.184C164.735 123.184 164.652 123.184 164.569 123.143C164.238 123.019 164.114 122.646 164.238 122.315L164.403 121.943C164.528 121.611 164.9 121.487 165.19 121.611C165.521 121.736 165.645 122.108 165.521 122.398L165.355 122.77C165.273 123.06 165.024 123.184 164.817 123.184ZM165.976 120.121C165.894 120.121 165.852 120.121 165.769 120.08C165.438 119.956 165.273 119.625 165.397 119.293C165.728 118.383 166.018 117.472 166.307 116.562C166.349 116.479 166.349 116.437 166.39 116.396C166.39 116.313 166.39 116.272 166.432 116.189C166.721 115.278 166.97 114.368 167.218 113.457C167.301 113.126 167.632 112.919 167.963 113.002C168.294 113.085 168.501 113.416 168.419 113.747C168.17 114.657 167.88 115.609 167.591 116.52C167.549 116.603 167.549 116.644 167.508 116.727C167.508 116.81 167.508 116.851 167.466 116.934C167.177 117.845 166.846 118.797 166.556 119.707C166.473 119.956 166.225 120.121 165.976 120.121ZM13.6103 117.845C13.3619 117.845 13.1136 117.679 13.0308 117.431L12.9066 117.017C12.7824 116.686 12.9894 116.355 13.3205 116.23C13.6517 116.106 13.9828 116.313 14.107 116.644L14.2312 117.017C14.3554 117.348 14.1484 117.679 13.8173 117.803C13.7345 117.845 13.6931 117.845 13.6103 117.845ZM12.6583 114.699C12.3685 114.699 12.1202 114.533 12.0788 114.244C11.8304 113.333 11.5821 112.381 11.3337 111.429C11.3337 111.346 11.2923 111.305 11.3337 111.222C11.2923 111.18 11.2509 111.098 11.2509 111.015C11.044 110.063 10.837 109.111 10.63 108.2C10.5472 107.869 10.7956 107.538 11.1267 107.455C11.4579 107.372 11.789 107.621 11.8718 107.952C12.0374 108.862 12.2443 109.815 12.4513 110.725C12.4513 110.808 12.4513 110.849 12.4513 110.932C12.4927 110.974 12.5341 111.056 12.5341 111.139C12.741 112.05 12.9894 113.002 13.2378 113.912C13.3205 114.244 13.155 114.575 12.8238 114.657C12.7824 114.699 12.741 114.699 12.6583 114.699ZM168.501 111.429C168.46 111.429 168.419 111.429 168.377 111.429C168.046 111.346 167.839 111.015 167.922 110.684L168.005 110.27C168.087 109.939 168.419 109.732 168.75 109.815C169.081 109.897 169.288 110.228 169.205 110.56L169.122 110.974C169.039 111.263 168.791 111.429 168.501 111.429ZM169.205 108.242C169.164 108.242 169.122 108.242 169.081 108.242C168.75 108.159 168.543 107.869 168.584 107.497C168.75 106.586 168.915 105.634 169.081 104.682C169.081 104.599 169.122 104.558 169.164 104.475C169.164 104.392 169.164 104.351 169.164 104.268C169.288 103.316 169.412 102.364 169.536 101.453C169.578 101.122 169.867 100.874 170.24 100.915C170.571 100.957 170.819 101.246 170.778 101.619C170.654 102.571 170.53 103.523 170.405 104.475C170.405 104.558 170.364 104.599 170.323 104.682C170.323 104.765 170.323 104.806 170.323 104.889C170.157 105.841 170.033 106.793 169.826 107.745C169.743 108.035 169.495 108.242 169.205 108.242ZM10.7542 105.882C10.4645 105.882 10.1747 105.675 10.1333 105.344L10.0505 104.93C10.0091 104.599 10.2161 104.268 10.5886 104.227C10.9198 104.185 11.2509 104.392 11.2923 104.765L11.3751 105.179C11.4165 105.51 11.2095 105.841 10.8784 105.882C10.7956 105.882 10.7956 105.882 10.7542 105.882ZM10.2989 102.612C9.96774 102.612 9.71939 102.364 9.678 102.074C9.55382 101.122 9.47103 100.17 9.38825 99.1766C9.38825 99.0938 9.38825 99.0525 9.38825 98.9697C9.34686 98.8869 9.34686 98.8455 9.34686 98.7627C9.26407 97.8107 9.22268 96.8173 9.18129 95.8652C9.18129 95.5341 9.42964 95.2443 9.76078 95.2029C10.0919 95.2029 10.3817 95.4513 10.4231 95.7824C10.4645 96.7345 10.5058 97.6865 10.5886 98.6385C10.5886 98.7213 10.5886 98.7627 10.5886 98.8455C10.63 98.8869 10.63 98.9697 10.63 99.0524C10.7128 100.004 10.7956 100.957 10.9198 101.909C10.9612 102.24 10.7128 102.571 10.3817 102.612C10.3403 102.612 10.3403 102.612 10.2989 102.612ZM170.364 99.2594H170.323C169.991 99.218 169.743 98.9283 169.743 98.5971L169.784 98.1832C169.826 97.8521 170.116 97.5623 170.447 97.6037C170.778 97.6451 171.026 97.9349 171.026 98.266L170.985 98.6799C170.985 99.0111 170.695 99.2594 170.364 99.2594ZM170.571 95.9894C170.571 95.9894 170.53 95.9894 170.571 95.9894C170.198 95.9894 169.95 95.6996 169.95 95.3271C169.991 94.3751 169.991 93.4231 169.991 92.471V92.3469C169.991 92.2641 169.991 92.2227 170.033 92.1399C169.991 92.0571 169.991 92.0157 169.991 91.9329C169.991 90.9809 169.95 90.0289 169.909 89.0768C169.909 88.7457 170.157 88.4559 170.488 88.4146C170.819 88.4146 171.109 88.6629 171.15 88.9941C171.192 89.9461 171.233 90.9395 171.233 91.8915C171.233 91.9743 171.233 92.0157 171.192 92.0985C171.233 92.1813 171.233 92.2227 171.233 92.3055V92.4296C171.233 93.3817 171.233 94.3751 171.192 95.3271C171.15 95.741 170.902 95.9894 170.571 95.9894ZM9.76078 93.5886C9.42964 93.5886 9.13989 93.2989 9.13989 92.9677V92.5538C9.13989 92.2227 9.42964 91.9329 9.76078 91.9329C10.0919 91.9329 10.3817 92.2227 10.3817 92.5538V92.9677C10.3817 93.2989 10.0919 93.5886 9.76078 93.5886ZM9.80217 90.3186C9.80217 90.3186 9.76078 90.3186 9.80217 90.3186C9.42964 90.3186 9.18129 90.0289 9.18129 89.6563C9.22268 88.7043 9.26407 87.7109 9.34686 86.7589C9.34686 86.6761 9.38825 86.6347 9.38825 86.5519C9.38825 86.4691 9.34686 86.4277 9.38825 86.3449C9.47103 85.3929 9.55382 84.3995 9.6366 83.4474C9.678 83.1163 9.96774 82.868 10.3403 82.9093C10.6714 82.9507 10.9198 83.2405 10.8784 83.613C10.7542 84.565 10.6714 85.5171 10.63 86.4691C10.63 86.5519 10.5886 86.5933 10.5886 86.6761C10.5886 86.7589 10.63 86.8002 10.5886 86.883C10.5058 87.8351 10.4645 88.7871 10.4231 89.7391C10.3817 90.0703 10.1333 90.3186 9.80217 90.3186ZM170.364 86.8416C170.033 86.8416 169.784 86.5933 169.743 86.2621L169.702 85.8482C169.66 85.5171 169.909 85.1859 170.281 85.1859C170.612 85.1445 170.902 85.3929 170.943 85.7654L170.985 86.1794C171.026 86.5105 170.737 86.8002 170.405 86.8416H170.364ZM170.033 83.5716C169.702 83.5716 169.453 83.3233 169.412 83.0335C169.288 82.0815 169.164 81.1295 169.039 80.2188C169.039 80.136 169.039 80.0947 169.039 80.0119C168.998 79.9705 168.998 79.8877 168.957 79.8049C168.791 78.8529 168.625 77.9422 168.46 76.9902C168.377 76.6591 168.625 76.3279 168.957 76.2451C169.288 76.1624 169.619 76.4107 169.702 76.7419C169.867 77.6939 170.074 78.6459 170.198 79.5979C170.198 79.6807 170.198 79.7221 170.198 79.8049C170.24 79.8463 170.24 79.9291 170.281 80.0119C170.447 80.9639 170.571 81.9159 170.654 82.868C170.695 83.1991 170.447 83.5302 170.116 83.5716C170.116 83.5716 170.074 83.5716 170.033 83.5716ZM10.5886 81.3364C10.5472 81.3364 10.5472 81.3364 10.5058 81.3364C10.1747 81.295 9.92635 80.9639 9.96774 80.6328L10.0091 80.2188C10.0505 79.8877 10.3817 79.6393 10.7128 79.6807C11.044 79.7221 11.2923 80.0533 11.2509 80.3844L11.2095 80.7983C11.1681 81.0881 10.9198 81.3364 10.5886 81.3364ZM11.1267 78.0664C11.0853 78.0664 11.044 78.0664 11.0026 78.0664C10.6714 77.9836 10.4645 77.6939 10.5058 77.3213C10.6714 76.3693 10.8784 75.4173 11.0853 74.4653C11.0853 74.3825 11.1267 74.3411 11.1681 74.2583C11.1681 74.1755 11.1681 74.1341 11.1681 74.0513C11.3751 73.0993 11.6234 72.1887 11.8718 71.2366C11.9546 70.9055 12.2857 70.6985 12.6169 70.7813C12.948 70.8641 13.155 71.1952 13.0722 71.5264C12.8238 72.437 12.5755 73.3891 12.3685 74.2997C12.3685 74.3825 12.3271 74.4239 12.2857 74.5067C12.2857 74.5894 12.2857 74.6308 12.2857 74.7136C12.0788 75.6243 11.8718 76.5763 11.7062 77.4869C11.7062 77.8595 11.4579 78.0664 11.1267 78.0664ZM168.501 74.6722C168.212 74.6722 167.963 74.4653 167.88 74.1755L167.798 73.7616C167.715 73.4304 167.922 73.0993 168.253 73.0165C168.584 72.9337 168.915 73.1407 168.998 73.4718L169.081 73.8858C169.164 74.2169 168.957 74.548 168.625 74.6308C168.584 74.6722 168.543 74.6722 168.501 74.6722ZM167.673 71.485C167.384 71.485 167.135 71.3194 167.094 71.0297C166.846 70.119 166.556 69.2084 166.266 68.2978C166.225 68.215 166.225 68.1736 166.225 68.0908C166.183 68.0494 166.142 67.9666 166.142 67.9252C165.852 67.0146 165.521 66.104 165.231 65.2347C165.107 64.9036 165.273 64.5724 165.604 64.4483C165.935 64.3241 166.266 64.4896 166.39 64.8208C166.721 65.7314 167.053 66.6421 167.342 67.5527C167.384 67.6355 167.384 67.6769 167.384 67.7597C167.425 67.8011 167.466 67.8838 167.466 67.9666C167.756 68.8773 168.046 69.8293 168.294 70.7399C168.377 71.0711 168.212 71.4022 167.88 71.485C167.798 71.485 167.715 71.485 167.673 71.485ZM13.3205 69.2912C13.2792 69.2912 13.1964 69.2912 13.155 69.2498C12.8238 69.167 12.6583 68.7945 12.741 68.4633L12.8652 68.0494C12.948 67.7183 13.3205 67.5527 13.6517 67.6355C13.9828 67.7183 14.1484 68.0908 14.0656 68.4219L13.9414 68.7945C13.8173 69.1256 13.6103 69.2912 13.3205 69.2912ZM14.3554 66.1867C14.2726 66.1867 14.2312 66.1867 14.1484 66.1453C13.8173 66.0212 13.6517 65.69 13.7759 65.3589C14.107 64.4483 14.4381 63.5376 14.8107 62.627C14.8521 62.5442 14.8935 62.5028 14.9349 62.4614C14.9349 62.3786 14.9349 62.3372 14.9762 62.2544C15.3488 61.3438 15.7213 60.4746 16.0938 59.5639C16.218 59.2328 16.5906 59.1086 16.9217 59.2328C17.2528 59.357 17.377 59.7295 17.2528 60.0606C16.8803 60.9299 16.5078 61.7991 16.1352 62.7098C16.0938 62.7926 16.0525 62.8339 16.0111 62.8753C16.0111 62.9581 16.0111 62.9995 15.9697 63.0823C15.6385 63.9515 15.266 64.8622 14.9762 65.7728C14.8521 66.0212 14.6037 66.1867 14.3554 66.1867ZM164.735 62.9167C164.486 62.9167 164.238 62.7512 164.155 62.5442L163.99 62.1717C163.865 61.8405 163.99 61.5094 164.321 61.3438C164.652 61.2196 164.983 61.3852 165.149 61.675L165.314 62.0475C165.438 62.3786 165.273 62.7098 164.983 62.8753C164.9 62.9167 164.817 62.9167 164.735 62.9167ZM163.451 59.9365C163.203 59.9365 162.996 59.8123 162.872 59.5639C162.499 58.6947 162.085 57.8254 161.63 56.9976C161.589 56.9148 161.589 56.8734 161.589 56.7906C161.547 56.7492 161.506 56.7078 161.465 56.6251C161.051 55.7972 160.595 54.928 160.14 54.1001C159.974 53.8104 160.099 53.4378 160.388 53.2723C160.678 53.1067 161.051 53.2309 161.216 53.5206C161.672 54.3485 162.127 55.2177 162.582 56.087C162.624 56.1697 162.624 56.2111 162.624 56.2939C162.665 56.3353 162.706 56.4181 162.748 56.4595C163.162 57.3287 163.576 58.198 163.99 59.0672C164.114 59.3984 163.99 59.7295 163.7 59.8951C163.617 59.8951 163.534 59.9365 163.451 59.9365ZM17.8737 57.8254C17.7909 57.8254 17.7082 57.8254 17.584 57.7427C17.2942 57.5771 17.1287 57.2046 17.2942 56.9148L17.4598 56.5423C17.6254 56.2525 17.9979 56.1283 18.2877 56.2525C18.5774 56.4181 18.7016 56.7906 18.5774 57.0804L18.4118 57.4529C18.329 57.7013 18.1221 57.8254 17.8737 57.8254ZM19.3639 54.928C19.2811 54.928 19.1569 54.8866 19.0741 54.8452C18.7844 54.6796 18.6602 54.3071 18.8258 54.0173C19.2811 53.1895 19.7778 52.3202 20.2331 51.4924C20.2745 51.4096 20.3159 51.3682 20.3573 51.3268C20.3573 51.244 20.3987 51.2026 20.4401 51.1199C20.9368 50.292 21.4335 49.4641 21.9716 48.6363C22.1372 48.3465 22.5511 48.2638 22.8408 48.4707C23.1306 48.6363 23.2134 49.0502 23.0064 49.34C22.5097 50.1264 21.9716 50.9543 21.5163 51.7821C21.4749 51.8235 21.4335 51.9063 21.3921 51.9477C21.3921 52.0305 21.3507 52.0719 21.3093 52.1547C20.8126 52.9825 20.3573 53.8104 19.902 54.6382C19.8192 54.8038 19.6122 54.928 19.3639 54.928ZM159.271 51.9477C159.064 51.9477 158.857 51.8235 158.733 51.658L158.526 51.2854C158.36 50.9957 158.443 50.6231 158.733 50.4162C159.022 50.2506 159.395 50.3334 159.602 50.6231L159.809 50.9957C159.974 51.2854 159.892 51.658 159.602 51.8649C159.519 51.9063 159.395 51.9477 159.271 51.9477ZM157.532 49.133C157.325 49.133 157.118 49.0502 156.994 48.8433C156.497 48.0568 155.959 47.2703 155.38 46.4839C155.338 46.4425 155.297 46.3597 155.297 46.3183C155.256 46.2769 155.173 46.2355 155.132 46.1527C154.593 45.3663 154.014 44.6212 153.434 43.8761C153.227 43.5864 153.269 43.2139 153.559 43.0069C153.848 42.7999 154.221 42.8413 154.428 43.1311C155.007 43.8761 155.587 44.6626 156.166 45.4491C156.208 45.4905 156.249 45.5732 156.249 45.656C156.29 45.6974 156.373 45.7388 156.415 45.8216C156.953 46.6081 157.532 47.3945 158.029 48.2224C158.236 48.5121 158.153 48.8846 157.863 49.0916C157.781 49.133 157.656 49.133 157.532 49.133ZM24.124 47.1876C23.9998 47.1876 23.8757 47.1462 23.7515 47.0634C23.4617 46.8564 23.4203 46.4839 23.5859 46.1941L23.8343 45.863C24.0412 45.5732 24.4138 45.5318 24.7035 45.6974C24.9932 45.9044 25.0346 46.2769 24.8691 46.5667L24.6207 46.8978C24.4965 47.1048 24.331 47.1876 24.124 47.1876ZM26.0695 44.5384C25.9453 44.5384 25.8211 44.497 25.6969 44.4143C25.4072 44.2073 25.3658 43.8348 25.5727 43.545C26.1522 42.7999 26.7731 42.0135 27.3526 41.2684C27.394 41.227 27.4354 41.1856 27.5182 41.1442C27.5596 41.0615 27.5596 41.0201 27.6424 40.9787C28.2633 40.2336 28.8842 39.4885 29.5464 38.7849C29.7534 38.5365 30.1673 38.4951 30.4157 38.7435C30.664 38.9504 30.7054 39.3644 30.4571 39.6127C29.8362 40.3164 29.2153 41.0615 28.5944 41.7651C28.553 41.8065 28.5116 41.8479 28.4288 41.8893C28.3874 41.9721 28.3874 42.0135 28.346 42.0549C27.7666 42.7999 27.1457 43.545 26.5662 44.2901C26.442 44.4556 26.235 44.5384 26.0695 44.5384ZM152.193 41.8893C152.027 41.8893 151.82 41.8065 151.696 41.6823L151.448 41.3512C151.241 41.1028 151.282 40.6889 151.53 40.482C151.779 40.275 152.193 40.3164 152.4 40.5647L152.648 40.8959C152.855 41.1442 152.814 41.5582 152.565 41.7651C152.482 41.8479 152.317 41.8893 152.193 41.8893ZM150.04 39.4057C149.875 39.4057 149.709 39.323 149.585 39.1988C148.964 38.4951 148.302 37.7914 147.639 37.1292C147.598 37.0878 147.557 37.005 147.515 36.9636C147.474 36.9222 147.391 36.8808 147.35 36.8394C146.687 36.1771 146.025 35.4735 145.321 34.8112C145.073 34.5628 145.073 34.1903 145.321 33.9419C145.57 33.6936 145.942 33.6936 146.191 33.9419C146.894 34.6042 147.598 35.3079 148.26 35.9702C148.302 36.0116 148.343 36.0943 148.385 36.1357C148.426 36.1771 148.509 36.2185 148.55 36.2599C149.212 36.9636 149.875 37.6673 150.537 38.3709C150.785 38.6193 150.744 39.0332 150.496 39.2402C150.33 39.3644 150.206 39.4057 150.04 39.4057ZM31.9058 37.6673C31.7402 37.6673 31.6161 37.6259 31.4919 37.5017C31.2435 37.2533 31.2435 36.8808 31.4505 36.6324L31.7402 36.3427C31.9886 36.0943 32.3611 36.0943 32.6095 36.3427C32.8578 36.5911 32.8578 36.9636 32.6095 37.2119L32.3197 37.5017C32.2369 37.5845 32.0714 37.6673 31.9058 37.6673ZM34.2238 35.3493C34.0582 35.3493 33.8927 35.2665 33.7685 35.1423C33.5201 34.894 33.5201 34.5214 33.7685 34.2731C34.4721 33.6108 35.1758 32.9485 35.8795 32.2862C35.9209 32.2448 36.0037 32.2034 36.0451 32.162C36.0865 32.1207 36.1279 32.0379 36.1692 31.9965C36.8729 31.3342 37.618 30.7133 38.3631 30.0924C38.6114 29.8855 39.0253 29.9268 39.2323 30.1752C39.4393 30.4236 39.3979 30.8375 39.1495 31.0444C38.4044 31.6653 37.7008 32.2862 36.9971 32.9071C36.9557 32.9485 36.8729 32.9899 36.8315 33.0313C36.7901 33.0727 36.7487 33.1555 36.7073 33.1969C36.0037 33.8178 35.3 34.48 34.6377 35.1423C34.5549 35.2665 34.3894 35.3493 34.2238 35.3493ZM143.624 33.0313C143.459 33.0313 143.335 32.9899 143.21 32.8657L142.921 32.576C142.672 32.369 142.631 31.9551 142.879 31.7067C143.086 31.4584 143.5 31.417 143.749 31.6653L144.038 31.9551C144.287 32.2034 144.328 32.576 144.08 32.8243C143.997 32.9485 143.831 33.0313 143.624 33.0313ZM141.141 30.8789C141.017 30.8789 140.851 30.8375 140.768 30.7547C140.023 30.1338 139.278 29.5543 138.533 28.9748C138.492 28.9334 138.409 28.892 138.409 28.8092C138.326 28.8092 138.285 28.7679 138.243 28.7265C137.498 28.147 136.712 27.6089 135.925 27.0294C135.636 26.8224 135.594 26.4499 135.76 26.1601C135.967 25.8704 136.339 25.829 136.629 25.9946C137.415 26.5327 138.202 27.1122 138.988 27.6917C139.03 27.733 139.113 27.7744 139.113 27.8572C139.195 27.8986 139.237 27.8986 139.32 27.94C140.065 28.5195 140.851 29.1404 141.596 29.7199C141.844 29.9268 141.886 30.3408 141.679 30.5891C141.513 30.7961 141.306 30.8789 141.141 30.8789ZM41.0536 29.4301C40.888 29.4301 40.681 29.3474 40.5569 29.1818C40.3499 28.892 40.3913 28.5195 40.681 28.3125L41.0122 28.0642C41.3019 27.8572 41.6745 27.8986 41.8814 28.1884C42.0884 28.4781 42.047 28.8506 41.7572 29.0576L41.4261 29.306C41.3433 29.3887 41.1777 29.4301 41.0536 29.4301ZM43.7027 27.4847C43.4957 27.4847 43.3302 27.4019 43.206 27.2363C42.999 26.9466 43.0818 26.574 43.3716 26.3671C44.158 25.829 44.9445 25.2495 45.7723 24.7528C45.8137 24.7114 45.8965 24.67 45.9793 24.67C46.0207 24.6286 46.0621 24.5872 46.1449 24.5458C46.9313 24.0077 47.7592 23.511 48.587 23.0143C48.8768 22.8487 49.2493 22.9315 49.4563 23.2213C49.6218 23.511 49.539 23.8835 49.2493 24.0905C48.4214 24.5872 47.635 25.0839 46.8485 25.5806C46.8071 25.622 46.7243 25.6634 46.6416 25.6634C46.6002 25.7048 46.5588 25.7462 46.476 25.7876C45.6895 26.3257 44.9031 26.8638 44.1166 27.4019C43.951 27.4433 43.8269 27.4847 43.7027 27.4847ZM133.856 25.5392C133.732 25.5392 133.607 25.4978 133.525 25.4564L133.193 25.2495C132.904 25.0839 132.821 24.67 132.986 24.3802C133.152 24.0905 133.566 24.0077 133.856 24.1733L134.187 24.3802C134.477 24.5872 134.559 24.9597 134.352 25.2495C134.228 25.4564 134.063 25.5392 133.856 25.5392ZM131.041 23.8421C130.917 23.8421 130.834 23.8007 130.71 23.7594C129.882 23.2626 129.054 22.8073 128.226 22.352C128.144 22.3106 128.102 22.2692 128.061 22.2278C127.978 22.2278 127.937 22.1864 127.854 22.145C127.026 21.6897 126.157 21.2758 125.329 20.8205C125.039 20.6549 124.915 20.2824 125.039 19.9926C125.163 19.7029 125.577 19.5787 125.867 19.7029C126.736 20.1168 127.605 20.5721 128.433 21.0274C128.516 21.0688 128.557 21.1102 128.599 21.1516C128.682 21.1516 128.723 21.193 128.806 21.2344C129.634 21.6897 130.503 22.1864 131.331 22.6831C131.621 22.8487 131.703 23.2213 131.538 23.5524C131.455 23.718 131.248 23.8421 131.041 23.8421ZM51.3189 22.6831C51.112 22.6831 50.905 22.559 50.7808 22.352C50.6153 22.0623 50.7394 21.6897 51.0292 21.5242L51.4017 21.3172C51.6915 21.1516 52.064 21.2758 52.2296 21.5655C52.3951 21.8553 52.271 22.2278 51.9812 22.3934L51.6087 22.6004C51.5259 22.6418 51.4431 22.6831 51.3189 22.6831ZM54.2164 21.1516C54.0094 21.1516 53.7611 21.0274 53.6783 20.8205C53.5127 20.5307 53.6369 20.1582 53.9681 19.9926C54.8373 19.5787 55.7065 19.1648 56.5758 18.7509C56.6586 18.7095 56.7 18.7095 56.7827 18.7095C56.8241 18.6681 56.9069 18.6267 56.9483 18.5853C57.8176 18.1714 58.7282 17.7988 59.5974 17.4263C59.9286 17.3021 60.2597 17.4677 60.4253 17.7574C60.5495 18.0886 60.3839 18.4197 60.0942 18.5853C59.2249 18.9578 58.3557 19.3303 57.4864 19.7029C57.4036 19.7443 57.3622 19.7443 57.2795 19.7443C57.2381 19.7857 57.1553 19.8271 57.1139 19.8685C56.2446 20.241 55.3754 20.6549 54.5476 21.1102C54.4234 21.1102 54.3406 21.1516 54.2164 21.1516ZM123.011 19.6615C122.928 19.6615 122.845 19.6615 122.763 19.6201L122.39 19.4545C122.059 19.3303 121.935 18.9578 122.059 18.6267C122.183 18.2955 122.556 18.1714 122.887 18.2955L123.259 18.4611C123.59 18.5853 123.715 18.9578 123.59 19.289C123.466 19.5373 123.259 19.6615 123.011 19.6615ZM119.989 18.3783C119.906 18.3783 119.824 18.3783 119.741 18.3369C118.872 17.9644 117.961 17.6333 117.05 17.3435C116.968 17.3021 116.926 17.3021 116.885 17.2607C116.802 17.2607 116.761 17.2607 116.678 17.2193C115.767 16.8882 114.857 16.5984 113.946 16.3087C113.615 16.2259 113.449 15.8534 113.532 15.5222C113.615 15.1911 113.987 15.0255 114.318 15.1083C115.229 15.3981 116.181 15.6878 117.092 16.0189C117.175 16.0603 117.216 16.0603 117.257 16.1017C117.34 16.1017 117.381 16.1017 117.464 16.1431C118.375 16.4743 119.286 16.8054 120.196 17.1779C120.527 17.3021 120.651 17.6746 120.527 17.9644C120.445 18.2541 120.238 18.3783 119.989 18.3783ZM62.4949 17.5505C62.2466 17.5505 61.9982 17.3849 61.9154 17.1365C61.7913 16.8054 61.9568 16.4743 62.288 16.3501L62.6605 16.2259C62.9916 16.1017 63.3228 16.2673 63.447 16.5984C63.5711 16.9296 63.4056 17.2607 63.0744 17.3849L62.7019 17.5091C62.6605 17.5505 62.5777 17.5505 62.4949 17.5505ZM65.5994 16.5157C65.351 16.5157 65.1027 16.3501 65.0199 16.1017C64.8957 15.7706 65.1027 15.4394 65.4338 15.3153C66.3444 15.0255 67.2965 14.7358 68.2071 14.4874C68.2899 14.4874 68.3313 14.446 68.4141 14.446C68.4555 14.4046 68.5382 14.3632 68.621 14.3632C69.5317 14.1149 70.4837 13.8665 71.4357 13.6596C71.7669 13.5768 72.098 13.7837 72.1808 14.1149C72.2636 14.446 72.0566 14.7772 71.7255 14.86C70.8148 15.0669 69.8628 15.3153 68.9522 15.5636C68.8694 15.5636 68.828 15.605 68.7452 15.605C68.7038 15.6464 68.621 15.6878 68.5382 15.6878C67.6276 15.9362 66.717 16.2259 65.8063 16.5157C65.7649 16.4743 65.6821 16.5157 65.5994 16.5157ZM111.38 15.5222C111.338 15.5222 111.255 15.5222 111.214 15.4808L110.8 15.3567C110.469 15.2739 110.262 14.9427 110.345 14.6116C110.428 14.2805 110.759 14.0735 111.09 14.1563L111.504 14.2805C111.835 14.3632 112.042 14.6944 111.959 15.0255C111.918 15.3153 111.669 15.5222 111.38 15.5222ZM108.192 14.6944C108.151 14.6944 108.11 14.6944 108.068 14.6944C107.158 14.4874 106.205 14.2805 105.295 14.1149C105.212 14.1149 105.171 14.0735 105.088 14.0321C105.005 14.0321 104.964 14.0321 104.881 14.0321C103.97 13.8665 103.018 13.701 102.066 13.5768C101.735 13.5354 101.487 13.2042 101.528 12.8731C101.57 12.542 101.901 12.2936 102.232 12.335C103.184 12.4592 104.136 12.6248 105.088 12.8317C105.171 12.8317 105.212 12.8731 105.295 12.9145C105.378 12.9145 105.419 12.9145 105.502 12.9145C106.454 13.0801 107.406 13.287 108.358 13.494C108.689 13.5768 108.896 13.9079 108.813 14.2391C108.73 14.5288 108.482 14.6944 108.192 14.6944ZM74.3746 14.2391C74.0848 14.2391 73.8365 14.0321 73.7537 13.7424C73.6709 13.4112 73.9193 13.0801 74.2504 12.9973L74.6643 12.9145C74.9955 12.8317 75.3266 13.0801 75.4094 13.4112C75.4922 13.7424 75.2438 14.0735 74.9127 14.1563L74.4988 14.2391C74.4574 14.2391 74.416 14.2391 74.3746 14.2391ZM77.6032 13.6596C77.3135 13.6596 77.0237 13.4526 76.9823 13.1215C76.9409 12.7903 77.1479 12.4592 77.479 12.4178C78.4311 12.2522 79.3831 12.128 80.3351 12.0039C80.4179 12.0039 80.4593 12.0039 80.5421 12.0039C80.5835 11.9625 80.6663 11.9625 80.7491 11.9625C81.7011 11.8383 82.6531 11.7555 83.6465 11.6727C83.9777 11.6313 84.2674 11.8797 84.3088 12.2522C84.3502 12.5834 84.0605 12.8731 83.7293 12.9145C82.7773 12.9973 81.8252 13.0801 80.8732 13.2042C80.7904 13.2042 80.749 13.2042 80.6663 13.2042C80.6249 13.2456 80.5421 13.2456 80.4593 13.2456C79.5073 13.3698 78.5552 13.494 77.6446 13.6182C77.6446 13.6596 77.6446 13.6596 77.6032 13.6596ZM99.2929 13.2042C99.2515 13.2042 99.2515 13.2042 99.2101 13.2042L98.7962 13.1629C98.4651 13.1215 98.2167 12.8317 98.2581 12.4592C98.2995 12.128 98.5892 11.8797 98.9618 11.9211L99.3757 11.9625C99.7068 12.0039 99.9552 12.2936 99.9138 12.6661C99.8724 12.9559 99.6241 13.2042 99.2929 13.2042ZM96.0229 12.9145H95.9815C95.0295 12.8317 94.0775 12.7903 93.1254 12.7489C93.0426 12.7489 93.0013 12.7489 92.9185 12.7075C92.8357 12.7075 92.7943 12.7489 92.7115 12.7489C91.8837 12.7075 91.0144 12.7075 90.1452 12.7075H89.8554C89.5243 12.7075 89.2345 12.4178 89.2345 12.0866C89.2345 11.7555 89.5243 11.4658 89.8554 11.4658H90.1452C91.0144 11.4658 91.8837 11.4658 92.7529 11.5072C92.8357 11.5072 92.8771 11.5072 92.9599 11.5485C93.0426 11.5485 93.084 11.5072 93.1668 11.5072C94.1189 11.5485 95.1123 11.5899 96.0643 11.6727C96.3954 11.7141 96.6438 12.0039 96.6438 12.335C96.6024 12.6661 96.354 12.9145 96.0229 12.9145ZM86.5854 12.7489C86.2543 12.7489 85.9645 12.5006 85.9645 12.1694C85.9645 11.8383 86.2129 11.5485 86.544 11.5072H86.9579C87.2891 11.5072 87.5788 11.7555 87.6202 12.0866C87.6202 12.4178 87.3719 12.7075 87.0407 12.7489H86.5854Z" fill="#1C976E"/>
<path d="M167.384 41.641C159.312 39.6542 151.613 42.6344 150.247 48.2638C148.881 53.8932 154.304 60.0607 162.375 62.0475C163.12 62.2131 163.865 62.3787 164.61 62.4615L168.667 66.4765L168.253 62.627C173.882 62.3787 178.477 59.6468 179.512 55.4247C180.919 49.7953 175.455 43.6278 167.384 41.641Z" fill="#1C976E"/>
<path opacity="0.5" d="M174.006 47.1878C173.593 45.5321 172.682 44.1247 171.357 43.0071C170.116 42.4276 168.791 41.9723 167.384 41.5998C159.312 39.613 151.613 42.5932 150.247 48.2226C149.005 53.3139 153.31 58.8605 160.14 61.3441C160.719 61.2613 161.299 61.1371 161.878 61.0129C169.95 59.0261 175.414 52.8586 174.006 47.1878Z" fill="#1C976E"/>
<path d="M143.045 52.6927C141.679 47.0633 147.101 40.8958 155.173 38.9089C163.244 36.9221 170.943 39.9024 172.309 45.5318C173.675 51.1611 168.253 57.3286 160.181 59.3155C159.436 59.4811 158.691 59.6466 157.946 59.7294L153.89 63.7445L154.304 59.895C148.633 59.6466 144.08 56.9561 143.045 52.6927Z" fill="#1C976E"/>
<path d="M165.314 47.2291C165.48 47.9742 166.266 48.4295 166.97 48.264C167.715 48.0984 168.17 47.3119 168.004 46.6082C167.839 45.8632 167.052 45.4079 166.349 45.5734C165.604 45.739 165.148 46.4841 165.314 47.2291Z" fill="white"/>
<path d="M156.332 49.4642C156.497 50.2093 157.284 50.6646 157.988 50.4991C158.733 50.3335 159.188 49.547 159.022 48.8434C158.857 48.0983 158.07 47.643 157.367 47.8085C156.58 47.9741 156.125 48.7192 156.332 49.4642Z" fill="white"/>
<path d="M147.308 51.6582C147.474 52.4032 148.26 52.8585 148.964 52.693C149.709 52.5274 150.164 51.7409 149.999 51.0373C149.833 50.2922 149.047 49.8369 148.343 50.0024C147.598 50.168 147.143 50.9131 147.308 51.6582Z" fill="white"/>
<path d="M184.259 119.188C185.221 110.876 176.003 102.982 163.672 101.556C151.341 100.129 140.565 105.711 139.604 114.023C138.642 122.335 147.859 130.229 160.191 131.655C172.522 133.081 183.298 127.5 184.259 119.188Z" fill="#1C976E"/>
<g opacity="0.5">
<path opacity="0.5" d="M167.549 123.309L169.122 119.128L166.018 117.969C166.059 117.431 166.059 116.893 165.977 116.355L168.998 114.989L167.177 110.932L164.155 112.298C163.824 111.884 163.41 111.512 162.955 111.181L164.114 108.076L159.933 106.503L158.774 109.608C158.236 109.566 157.698 109.566 157.16 109.649L155.794 106.627L151.737 108.449L153.103 111.47C152.689 111.801 152.317 112.215 151.986 112.671L148.881 111.512L147.308 115.692L150.413 116.851C150.372 117.389 150.372 117.928 150.454 118.466L147.433 119.832L149.254 123.888L152.276 122.522C152.607 122.936 153.021 123.309 153.476 123.64L152.317 126.744L156.498 128.317L157.657 125.213C158.195 125.254 158.733 125.254 159.271 125.171L160.637 128.193L164.693 126.372L163.327 123.35C163.741 123.019 164.114 122.605 164.445 122.15L167.549 123.309ZM156.58 121.736C154.18 120.825 152.979 118.134 153.89 115.734C154.801 113.333 157.491 112.133 159.892 113.043C162.293 113.954 163.493 116.644 162.582 119.045C161.672 121.446 158.981 122.646 156.58 121.736Z" fill="#1C976E"/>
<path opacity="0.5" d="M177.484 121.611L179.139 119.831L177.815 118.59C177.939 118.341 178.063 118.052 178.146 117.762L179.926 117.72L179.843 115.278L178.063 115.32C177.98 115.03 177.856 114.782 177.691 114.533L178.932 113.209L177.153 111.553L175.911 112.877C175.662 112.753 175.373 112.629 175.083 112.546L175.042 110.766L172.599 110.849L172.641 112.629C172.351 112.712 172.103 112.836 171.854 113.002L170.53 111.76L168.874 113.54L170.199 114.782C170.074 115.03 169.95 115.32 169.868 115.609L168.088 115.651L168.17 118.093L169.95 118.052C170.033 118.341 170.157 118.59 170.323 118.838L169.081 120.163L170.861 121.818L172.103 120.494C172.351 120.618 172.641 120.742 172.931 120.825L172.972 122.605L175.414 122.522L175.373 120.742C175.662 120.659 175.911 120.535 176.159 120.37L177.484 121.611ZM172.31 118.548C171.275 117.596 171.233 115.982 172.186 114.989C173.138 113.995 174.752 113.912 175.745 114.864C176.78 115.816 176.821 117.431 175.869 118.424C174.917 119.459 173.303 119.5 172.31 118.548Z" fill="#1C976E"/>
</g>
<path d="M167.177 121.943L168.75 117.762L165.645 116.603C165.687 116.065 165.687 115.527 165.604 114.989L168.626 113.623L166.804 109.566L163.783 110.932C163.451 110.518 163.038 110.146 162.582 109.815L163.741 106.71L159.561 105.137L158.402 108.242C157.863 108.2 157.325 108.2 156.787 108.283L155.421 105.261L151.365 107.083L152.731 110.104C152.317 110.435 151.944 110.849 151.613 111.305L148.509 110.146L146.936 114.326L150.04 115.485C149.999 116.023 149.999 116.562 150.082 117.1L147.06 118.466L148.881 122.522L151.903 121.156C152.234 121.57 152.648 121.943 153.103 122.274L151.944 125.378L156.125 126.951L157.284 123.847C157.822 123.888 158.36 123.888 158.898 123.805L160.264 126.827L164.321 125.006L162.955 121.984C163.369 121.653 163.741 121.239 164.072 120.784L167.177 121.943ZM156.208 120.37C153.807 119.459 152.607 116.769 153.517 114.368C154.428 111.967 157.118 110.767 159.519 111.677C161.92 112.588 163.12 115.278 162.21 117.679C161.299 120.08 158.609 121.28 156.208 120.37Z" fill="white"/>
<path d="M177.111 120.245L178.767 118.465L177.442 117.224C177.566 116.975 177.691 116.686 177.773 116.396L179.553 116.354L179.47 113.912L177.691 113.954C177.608 113.664 177.484 113.416 177.318 113.167L178.56 111.843L176.78 110.187L175.538 111.512C175.29 111.387 175 111.263 174.71 111.18L174.669 109.401L172.227 109.483L172.268 111.263C171.978 111.346 171.73 111.47 171.482 111.636L170.157 110.394L168.501 112.174L169.826 113.416C169.702 113.664 169.578 113.954 169.495 114.243L167.715 114.285L167.798 116.727L169.578 116.686C169.66 116.975 169.785 117.224 169.95 117.472L168.708 118.797L170.488 120.452L171.73 119.128C171.978 119.252 172.268 119.376 172.558 119.459L172.599 121.239L175.041 121.156L175 119.376C175.29 119.293 175.538 119.169 175.787 119.004L177.111 120.245ZM171.937 117.182C170.902 116.23 170.861 114.616 171.813 113.623C172.765 112.588 174.379 112.546 175.373 113.498C176.407 114.45 176.449 116.065 175.497 117.058C174.545 118.093 172.93 118.134 171.937 117.182Z" fill="white"/>
<path d="M27.8819 107.992L0.319962 107.493L-9.99785e-05 125.164L27.5618 125.663L27.8819 107.992Z" fill="#FFF0B0"/>
<path d="M5.37479 111.306L4.87817 111.297L4.62589 125.244L5.1225 125.253L5.37479 111.306Z" fill="#F4D68E"/>
<path d="M23.1735 111.638L22.6769 111.628L22.4235 125.575L22.9201 125.584L23.1735 111.638Z" fill="#F4D68E"/>
<path d="M27.8493 107.993L13.9414 114.864L0.323261 107.497L0.281868 109.359L13.9414 116.603L27.8493 109.773V107.993Z" fill="#EA4444"/>
<path d="M29.0267 96.9422L2.96171 105.921L8.71834 122.632L34.7834 113.654L29.0267 96.9422Z" fill="#FFF0B0"/>
<path d="M9.00549 107.749L8.53585 107.911L13.0777 121.1L13.5474 120.938L9.00549 107.749Z" fill="#F4D68E"/>
<path d="M25.8137 101.964L25.344 102.125L29.8859 115.314L30.3556 115.153L25.8137 101.964Z" fill="#F4D68E"/>
<path d="M29.0084 96.9415L18.2877 108.159L2.9311 105.924L3.55199 107.662L18.8258 109.773L29.5879 98.6386L29.0084 96.9415Z" fill="#EA4444"/>
<path opacity="0.5" d="M27.7252 116.065L13.5276 120.949L13.4448 120.99L8.68462 122.605L3.55194 107.662L0.985603 108.573L1.5651 110.311L6.73917 125.254L11.4993 123.598H11.5821L27.6838 118.052L27.7252 116.065Z" fill="#E8CF92"/>
<path d="M25.9039 64.5723C34.1565 64.5723 40.8466 57.8822 40.8466 49.6296C40.8466 41.377 34.1565 34.6869 25.9039 34.6869C17.6513 34.6869 10.9612 41.377 10.9612 49.6296C10.9612 57.8822 17.6513 64.5723 25.9039 64.5723Z" fill="#303030"/>
<path d="M25.9039 61.9647C32.7163 61.9647 38.2389 56.4421 38.2389 49.6297C38.2389 42.8172 32.7163 37.2947 25.9039 37.2947C19.0915 37.2947 13.5689 42.8172 13.5689 49.6297C13.5689 56.4421 19.0915 61.9647 25.9039 61.9647Z" fill="#1C976E"/>
<path opacity="0.5" d="M37.5352 45.4493C37.5766 45.7804 37.5766 46.1116 37.5766 46.4427C37.5766 54.1417 31.3678 60.3506 23.6687 60.3506C21.6819 60.3506 19.8192 59.9367 18.1221 59.1916C20.2331 60.9301 22.9651 61.9649 25.9453 61.9649C32.7751 61.9649 38.2803 56.4183 38.2803 49.6299C38.2389 48.1398 37.9906 46.7324 37.5352 45.4493Z" fill="#1C976E"/>
<path d="M26.0695 38.0814H25.7383V39.7371H26.0695V38.0814Z" fill="#303030"/>
<path d="M26.0695 59.5228H25.7383V61.1785H26.0695V59.5228Z" fill="#303030"/>
<path d="M37.4528 49.8061V49.475H35.7971V49.8061H37.4528Z" fill="#303030"/>
<path d="M16.0239 49.7934V49.4623H14.3682V49.7934H16.0239Z" fill="#303030"/>
<path d="M26.1521 40.7303H25.6554V50.8301H26.1521V40.7303Z" fill="#303030"/>
<path d="M26.7146 48.8422L26.2938 48.5783L22.0062 55.4165L22.427 55.6804L26.7146 48.8422Z" fill="#303030"/>
<path d="M98.0511 27.5675H79.3831C77.9343 27.5675 76.7753 26.4085 76.7753 24.9597V2.60773C76.7753 1.15899 77.9343 0 79.3831 0H98.0511C99.4999 0 100.659 1.15899 100.659 2.60773V24.9597C100.659 26.3671 99.4999 27.5675 98.0511 27.5675Z" fill="#1C976E"/>
<path opacity="0.5" d="M90.021 11.466C89.4415 11.0521 89.2759 10.2656 89.6898 9.6861L92.5045 5.58823C92.9184 5.00874 93.7049 4.84317 94.2844 5.25709L95.7331 6.25051C97.72 7.61647 98.2167 10.307 96.8507 12.2938L89.1517 23.4698C87.7858 25.4567 85.0952 25.9534 83.1084 24.5874L81.6597 23.594C81.0802 23.1801 80.9146 22.3936 81.3285 21.8141L84.1432 17.7163C84.5571 17.1368 85.3436 16.9712 85.9231 17.3851L87.3718 18.3785L91.4283 12.5008L90.021 11.466Z" fill="#1C976E"/>
<path d="M89.3585 10.0589C88.779 9.64501 88.6135 8.85855 89.0274 8.27906L91.8421 4.18119C92.256 3.60169 93.0425 3.43612 93.6219 3.85005L95.0707 4.84347C97.0575 6.20943 97.5542 8.89994 96.1883 10.8868L88.4893 22.0628C87.1233 24.0496 84.4328 24.5463 82.446 23.1804L80.9972 22.187C80.4177 21.773 80.2521 20.9866 80.6661 20.4071L83.4808 16.3092C83.8947 15.7297 84.6812 15.5641 85.2606 15.9781L86.7094 16.9715L90.7659 11.0938L89.3585 10.0589Z" fill="white"/>
<path d="M85.8816 16.309L85.3435 15.9365C84.764 15.5225 83.9361 15.6881 83.5636 16.2676L80.7489 20.3655C80.335 20.945 80.5005 21.7728 81.08 22.1454L81.6182 22.5179L85.8816 16.309Z" fill="#303030"/>
<path d="M91.8421 4.18093L89.0274 8.2788C88.6135 8.8583 88.779 9.68615 89.3585 10.0587L89.8966 10.4312L94.1601 4.22233L93.622 3.84979C93.0425 3.43587 92.256 3.56005 91.8421 4.18093Z" fill="#303030"/>
<path d="M106.205 101.619L99.0858 119.707L90.2278 111.511L81.3698 119.707L74.2503 101.619L59.0592 106.42C59.0592 106.42 62.0395 144.046 90.2692 144.17C118.499 144.087 121.479 106.42 121.479 106.42L106.205 101.619Z" fill="#303030"/>
<path d="M109.227 118.631V102.571L106.247 101.619L99.1272 119.707L99.0858 119.666L90.2692 141.894L81.4526 119.666L81.4112 119.707L74.2917 101.619L71.3114 102.571V118.631H74.3331L71.3114 121.239L86.6267 143.963C87.827 144.129 89.0274 144.212 90.3106 144.212C91.5938 144.212 92.8355 144.129 93.9945 143.963L109.31 121.239L106.288 118.631H109.227Z" fill="#282828"/>
<path d="M90.1869 111.511L85.1784 116.147L87.455 120.535H90.1869H92.9602L95.2368 116.147L90.1869 111.511Z" fill="#EA4444"/>
<path d="M92.9597 120.535H90.1864H87.4545L85.1779 129.186L90.1864 141.894L95.2363 129.186L92.9597 120.535Z" fill="#EA4444"/>
<path d="M87.4545 120.535H92.9597L94.3257 125.626L91.8835 121.818L92.0905 128.565L89.4827 121.736L87.3303 120.908L87.4545 120.535Z" fill="#BC3939"/>
<path d="M104.757 98.3487L90.1866 111.305L75.6578 98.3487L74.209 101.619L81.3286 119.707L90.1866 111.512L99.086 119.707L106.206 101.619L104.757 98.3487Z" fill="#1C976E"/>
<path d="M85.1779 116.148L87.4545 120.535L85.1779 129.186L81.3284 119.708L85.1779 116.148Z" fill="#1C976E"/>
<path d="M95.2364 116.148L99.0859 119.707L95.2364 129.186L92.9598 120.535L95.2364 116.148Z" fill="#1C976E"/>
<path d="M90.1863 44.8284C77.1476 44.8698 66.6339 55.4663 66.6339 68.5049C66.6339 69.043 66.6753 69.6225 66.7167 70.1606H68.6621C68.6207 69.6225 68.5793 69.0844 68.5793 68.5049C68.5793 56.5425 78.2652 46.8566 90.1863 46.7738C102.149 46.8152 111.793 56.5425 111.793 68.5049C111.793 69.043 111.752 69.6225 111.71 70.1606H113.656C113.697 69.6225 113.739 69.0844 113.739 68.5049C113.78 55.4663 103.225 44.8698 90.1863 44.8284Z" fill="#303030"/>
<path d="M103.432 90.733C100.162 94.4583 93.5393 101.619 92.9185 101.619C92.2562 101.619 90.6419 101.619 90.2279 101.619C89.814 101.619 88.1997 101.619 87.5374 101.619C86.9165 101.619 80.2937 94.4583 77.0237 90.733L75.9475 98.5976L90.2279 111.305L104.508 98.5976L103.432 90.733Z" fill="#F4CAA4"/>
<path d="M103.432 90.7329C100.162 94.4582 93.5392 101.619 92.9183 101.619C92.2561 101.619 90.6417 101.619 90.2278 101.619C89.8139 101.619 88.1996 101.619 87.5373 101.619C86.9164 101.619 80.2936 94.4582 77.0236 90.7329L76.9408 91.4366L91.6352 110.063L104.55 98.5561L103.432 90.7329Z" fill="#D3A07D"/>
<path d="M106.412 55.632C104.798 52.8173 98.4649 46.9809 90.1864 47.2707C81.9079 47.0223 75.6162 52.8587 73.9605 55.632C72.4704 58.2397 72.1806 70.2435 72.3876 71.4439C72.5945 72.6857 74.6228 87.6698 75.2023 88.6218C75.7818 89.5739 86.7094 101.619 87.4959 101.619C88.1581 101.619 89.7725 101.619 90.1864 101.619C90.6003 101.619 92.2146 101.619 92.8769 101.619C93.6634 101.619 104.591 89.5325 105.17 88.6218C105.75 87.6698 107.778 72.6443 107.985 71.4439C108.192 70.2021 107.944 58.1983 106.412 55.632Z" fill="#F4CAA4"/>
<path d="M109.434 64.9454C109.02 64.2417 108.523 58.0742 107.654 56.5427C107.24 55.839 106.661 55.1353 106.123 54.5558C107.158 51.7411 105.626 44.3733 105.626 44.3733C105.585 45.2839 105.046 46.981 105.046 46.981C105.419 44.0835 103.184 40.9377 103.184 40.9377C102.315 44.3319 96.9335 46.5257 96.9335 46.5257C98.0098 44.9942 97.3475 42.8417 97.3475 42.8417C96.0229 45.1597 90.7247 46.0704 87.6202 46.981C84.5158 47.8916 77.9757 48.347 76.6926 49.7129C75.9061 50.5822 75.7405 52.3206 75.7405 53.4796C75.7405 53.4796 73.5881 55.0526 72.7189 56.5841C71.8496 58.157 71.3529 64.3245 70.939 64.9868L71.8083 64.1589L72.3877 70.9473C72.3877 71.1543 72.4291 71.3198 72.4291 71.444L76.1545 64.7384L76.734 59.4402L83.9777 60.3922V59.8955L90.2279 60.8475L96.4782 59.8955V60.3922L103.722 59.4402L104.301 64.7384L108.027 71.444C108.027 71.3198 108.068 71.1129 108.068 70.8231L108.565 64.1589L109.434 64.9454Z" fill="#664C3B"/>
<path d="M106.247 54.0589C106.992 50.9959 105.626 44.3731 105.626 44.3731C105.584 45.2837 105.046 46.9808 105.046 46.9808C105.419 44.0833 103.184 40.9375 103.184 40.9375C103.184 40.9375 105.046 50.2094 98.5062 57.8671C99.8722 54.3487 99.6238 49.8783 99.6238 49.8783C99.1271 55.0524 96.1054 58.7777 94.6981 60.2264L96.4366 59.9781V60.4748L103.68 59.5228C103.68 59.5228 105.419 56.9978 106.081 54.6384C106.122 54.3487 106.164 54.2245 106.247 54.0589Z" fill="#3D2F27"/>
<path d="M110.8 67.1389L109.765 67.0147C108.896 66.9319 108.109 67.5528 108.026 68.4221L106.246 84.648C106.164 85.5172 106.785 86.3037 107.654 86.3865L108.689 86.5106C109.558 86.5934 110.344 85.9725 110.427 85.1033L112.207 68.8774C112.29 68.0495 111.669 67.2631 110.8 67.1389Z" fill="#282828"/>
<path d="M112.891 68.9682L112.191 68.8916L110.408 85.1864L111.107 85.2629L112.891 68.9682Z" fill="#212121"/>
<path d="M113.242 68.5047C113.076 68.5047 112.911 68.5875 112.911 68.7944L111.089 85.4757C111.089 85.6412 111.172 85.8068 111.379 85.8068C113.863 86.0965 116.098 84.2753 116.346 81.7917L117.257 73.5132C117.505 70.9883 115.725 68.7531 113.242 68.5047Z" fill="#282828"/>
<path d="M69.6143 67.1389L70.6491 67.0147C71.5183 66.9319 72.3048 67.5528 72.3876 68.4221L74.1674 84.648C74.2502 85.5172 73.6293 86.3037 72.7601 86.3865L71.7253 86.5106C70.856 86.5934 70.0696 85.9725 69.9868 85.1033L68.2069 68.8774C68.1241 68.0495 68.745 67.2631 69.6143 67.1389Z" fill="#303030"/>
<path d="M69.2866 85.2308L69.9861 85.1542L68.2027 68.8595L67.5032 68.936L69.2866 85.2308Z" fill="#282828"/>
<path d="M67.1719 68.5049C67.3375 68.5049 67.5031 68.5877 67.5031 68.7947L69.3244 85.4759C69.3244 85.6415 69.2416 85.807 69.0346 85.807C66.5511 86.0968 64.3159 84.2755 64.0675 81.792L63.1569 73.5134C62.8671 70.9885 64.6884 68.7533 67.1719 68.5049Z" fill="#303030"/>
<path d="M82.3631 90.7326C81.1627 90.6084 80.0865 90.8982 79.6312 91.4363C76.237 91.2293 73.4223 88.9941 72.4289 85.8897L71.5596 85.8069C72.553 89.2839 75.6575 91.8916 79.3828 92.1813C79.5484 92.9264 80.666 93.5473 82.0733 93.7129C83.6462 93.8784 84.9708 93.3403 85.0536 92.5125C85.1364 91.6846 83.936 90.8982 82.3631 90.7326Z" fill="#303030"/>
</svg>
