<svg width="193" height="165" viewBox="0 0 193 165" fill="none" xmlns="http://www.w3.org/2000/svg">
<path d="M56.3059 10.8622H86.6261H87.3552V11.5917V32.019H111.66H112.389V32.7486V43.0635H110.931V33.4781H86.6261H85.897V32.7486V12.301H56.3059V10.8622Z" fill="#1C976E"/>
<path d="M32.3455 21.2784H16.3652V48.8188H14.9271V20.5691V19.8396H15.636H32.3455V21.2784Z" fill="#1C976E"/>
<path fill-rule="evenodd" clip-rule="evenodd" d="M40.5079 56.2156H161.444C163.895 56.2156 165.92 58.2218 165.92 60.6942V143.356H36.0318V60.6942C36.0318 58.2218 38.0369 56.2156 40.5079 56.2156Z" fill="#34465C"/>
<path fill-rule="evenodd" clip-rule="evenodd" d="M15.8993 158.474H100.966H186.032C186.498 158.474 186.397 158.109 185.83 157.683L167.561 143.64C166.994 143.194 166.143 142.849 165.677 142.849H100.986H36.2748C35.8089 142.849 34.9583 143.214 34.3911 143.64L16.1018 157.663C15.5347 158.109 15.4334 158.474 15.8993 158.474Z" fill="#34404F"/>
<path fill-rule="evenodd" clip-rule="evenodd" d="M16.588 157.46C72.8332 157.46 129.099 157.46 185.364 157.46C186.64 157.46 186.762 158.494 185.648 159.791L183.359 162.385C182.225 163.682 180.24 164.715 178.984 164.715C126.972 164.715 75.0004 164.715 23.0085 164.715C21.7123 164.715 19.7476 163.682 18.6337 162.385L16.345 159.791C15.1702 158.494 15.312 157.46 16.588 157.46Z" fill="#34465C"/>
<path fill-rule="evenodd" clip-rule="evenodd" d="M87.72 150.651H94.8899H107.083H114.232L118.222 155.029H103.093H98.8597H83.7299L87.72 150.651Z" fill="#6E7F8F"/>
<path d="M161.829 61.809H40.1031V138.918H161.829V61.809Z" fill="#1C976E"/>
<path fill-rule="evenodd" clip-rule="evenodd" d="M174.083 41.7059C175.034 40.1455 175.662 38.4229 175.926 36.6396L181.313 35.7074L179.855 27.3379L174.447 28.2903C174.022 27.5 173.515 26.7502 172.928 26.0409C172.341 25.3316 171.672 24.7034 171.004 24.1562L172.888 19.0089L164.928 16.0704L163.044 21.2178C161.242 21.157 159.439 21.461 157.738 22.1297L154.234 17.9146L147.712 23.3659L151.216 27.5608C150.264 29.1212 149.636 30.8437 149.373 32.6271L143.985 33.5795L145.443 41.9491L150.831 41.0169C151.256 41.8072 151.763 42.557 152.35 43.246C152.937 43.9553 153.606 44.5835 154.274 45.1307L152.391 50.278L160.371 53.1962L162.254 48.0489C164.057 48.1097 165.859 47.8057 167.561 47.1369L171.065 51.3521L177.586 45.9008L174.083 41.7059Z" fill="#214975"/>
<path fill-rule="evenodd" clip-rule="evenodd" d="M165.374 37.9162C167.176 36.4166 167.419 33.7416 165.9 31.938C164.401 30.1344 161.728 29.8912 159.905 31.3908C158.102 32.8904 157.859 35.5857 159.378 37.3893C160.898 39.1726 163.571 39.4158 165.374 37.9162ZM168.007 41.0573C171.551 38.0986 172.017 32.8296 169.06 29.2832C166.103 25.7368 160.837 25.2707 157.292 28.2294C153.768 31.1882 153.282 36.4774 156.239 40.0035C159.196 43.5702 164.462 44.0363 168.007 41.0573Z" fill="white"/>
<path fill-rule="evenodd" clip-rule="evenodd" d="M139.61 24.1155C139.104 22.9402 138.355 21.9066 137.463 21.0555L139.043 17.6104L133.676 15.1381L132.096 18.5831C131.489 18.5223 130.861 18.5223 130.213 18.5629C129.585 18.6237 128.957 18.7453 128.369 18.9276L126.162 15.8068L121.341 19.2519L123.549 22.3727C122.82 23.3657 122.273 24.5208 121.989 25.7773L118.202 26.1218L118.749 31.9987L122.536 31.6339C123.063 32.8093 123.792 33.8428 124.703 34.694L123.124 38.1593L128.471 40.6114L130.05 37.1663C130.658 37.2271 131.306 37.2271 131.934 37.1866C132.582 37.1258 133.19 37.0042 133.777 36.8218L135.985 39.9224L140.785 36.5178L138.577 33.397C139.327 32.404 139.853 31.2489 140.137 30.0127L143.924 29.6479L143.378 23.771L139.61 24.1155Z" fill="#214975"/>
<path fill-rule="evenodd" clip-rule="evenodd" d="M134.02 27.6012C133.879 25.98 132.441 24.7843 130.8 24.9464C129.18 25.0883 127.985 26.5271 128.147 28.1483C128.288 29.7696 129.727 30.9652 131.347 30.8233C132.987 30.6612 134.182 29.2427 134.02 27.6012ZM136.856 27.3377C136.552 24.1358 133.737 21.8053 130.537 22.0891C127.337 22.393 125.007 25.2099 125.291 28.4118C125.595 31.6137 128.43 33.9644 131.63 33.6605C134.81 33.3565 137.16 30.5396 136.856 27.3377Z" fill="white"/>
<path fill-rule="evenodd" clip-rule="evenodd" d="M44.8018 0C38.9079 0 33.9659 3.78959 32.5684 8.91668C26.8365 9.52463 22.3806 14.1046 22.3806 19.637C22.3806 25.6152 27.5454 30.4586 33.9051 30.4586H63.3544C63.3746 30.4586 63.4152 30.4586 63.4354 30.4586C68.9242 30.4586 73.3801 26.2839 73.3801 21.1163C73.3801 17.2862 70.9091 13.983 67.3849 12.5441C67.3849 12.4833 67.3849 12.4226 67.3849 12.3618C67.3849 8.71402 64.2253 5.77557 60.3568 5.77557C58.858 5.77557 57.4402 6.22141 56.306 6.99149C54.3211 2.85739 49.9058 0 44.8018 0Z" fill="#214975"/>
<path fill-rule="evenodd" clip-rule="evenodd" d="M85.0464 24.8046C81.9678 24.8046 79.3955 26.7703 78.6664 29.4453C75.6891 29.7695 73.3599 32.1608 73.3599 35.0587C73.3599 38.1796 76.0536 40.6925 79.3753 40.6925H94.748C94.7683 40.6925 94.7683 40.6925 94.7885 40.6925C97.6444 40.6925 99.9736 38.5038 99.9736 35.8288C99.9736 33.8226 98.6773 32.1 96.8342 31.3705C96.8342 31.33 96.8342 31.3097 96.8342 31.2692C96.8342 29.3845 95.2139 27.8241 93.1682 27.8241C92.3783 27.8241 91.6492 28.047 91.0416 28.4523C90.0289 26.2839 87.7199 24.8046 85.0464 24.8046Z" fill="#214975"/>
<path d="M191.238 93.6455H150.507V146.051H191.238V93.6455Z" fill="#214975"/>
<path fill-rule="evenodd" clip-rule="evenodd" d="M191.501 93.6454H170.883H150.264C149.434 93.6454 148.786 92.9766 148.786 92.166V89.9774C148.786 89.1668 149.434 88.498 150.264 88.498H165.151C165.131 88.2954 165.11 88.0927 165.11 87.8901C165.11 84.6882 167.703 82.1145 170.883 82.1145C174.063 82.1145 176.655 84.7084 176.655 87.8901C176.655 88.0927 176.635 88.2954 176.635 88.498H191.522C192.332 88.498 193 89.1668 193 89.9774V92.166C192.98 92.9766 192.311 93.6454 191.501 93.6454ZM170.883 85.6406C169.647 85.6406 168.655 86.6336 168.655 87.8698C168.655 89.0857 169.647 90.099 170.883 90.099C172.098 90.099 173.111 89.106 173.111 87.8698C173.111 86.6336 172.098 85.6406 170.883 85.6406Z" fill="#F16858"/>
<path fill-rule="evenodd" clip-rule="evenodd" d="M191.501 93.6454H170.883H150.264C149.434 93.6454 148.786 92.9766 148.786 92.166V92.1458H192.98V92.166C192.98 92.9766 192.311 93.6454 191.501 93.6454Z" fill="#C02729"/>
<path fill-rule="evenodd" clip-rule="evenodd" d="M184.595 146.072L191.238 139.404L184.595 139.506V146.072Z" fill="#D0D2D4"/>
<path d="M185.243 101.083H156.523V103.514H185.243V101.083Z" fill="white"/>
<path d="M185.243 110.486H156.523V112.918H185.243V110.486Z" fill="white"/>
<path d="M185.243 119.929H156.523V122.361H185.243V119.929Z" fill="white"/>
<path d="M185.243 129.332H156.523V131.764H185.243V129.332Z" fill="white"/>
<path fill-rule="evenodd" clip-rule="evenodd" d="M3.46343 42.9825H140.643C142.547 42.9825 144.087 44.543 144.087 46.4479V124.55C144.087 126.455 142.547 128.015 140.643 128.015H3.46343C1.55955 128.015 0 126.455 0 124.55V46.4479C0 44.543 1.55955 42.9825 3.46343 42.9825Z" fill="white"/>
<path fill-rule="evenodd" clip-rule="evenodd" d="M3.03809 42.9825H141.069C142.75 42.9825 144.107 44.3606 144.107 46.0223V55.3646C144.107 55.5064 144.006 55.6077 143.864 55.6077H0V46.0223C0 44.3606 1.37727 42.9825 3.03809 42.9825Z" fill="#353F49"/>
<path fill-rule="evenodd" clip-rule="evenodd" d="M7.12953 51.9396C8.58781 51.9396 9.78279 50.6832 9.78279 49.1633C9.78279 47.6231 8.60806 46.387 7.12953 46.387C5.67124 46.387 4.47626 47.6231 4.47626 49.1633C4.47626 50.6832 5.67124 51.9396 7.12953 51.9396Z" fill="#F77B55"/>
<path fill-rule="evenodd" clip-rule="evenodd" d="M14.5223 51.9396C15.9806 51.9396 17.1756 50.6832 17.1756 49.1633C17.1756 47.6231 15.9806 46.387 14.5223 46.387C13.064 46.387 11.869 47.6231 11.869 49.1633C11.869 50.6832 13.064 51.9396 14.5223 51.9396Z" fill="#76D0DE"/>
<path fill-rule="evenodd" clip-rule="evenodd" d="M21.9148 51.9396C23.3731 51.9396 24.568 50.6832 24.568 49.1633C24.568 47.6231 23.3731 46.387 21.9148 46.387C20.4565 46.387 19.2615 47.6231 19.2615 49.1633C19.2615 50.6832 20.4565 51.9396 21.9148 51.9396Z" fill="#FFDB79"/>
<path d="M140.015 46.8328H28.5782V52.0814H140.015V46.8328Z" fill="white"/>
<path d="M42.5131 60.5524H11.5853V64.6459H42.5131V60.5524Z" fill="#CCCCCC"/>
<path d="M86.2411 60.5524H55.3133V64.6459H86.2411V60.5524Z" fill="#CCCCCC"/>
<path d="M130.132 60.5524H99.2038V64.6459H130.132V60.5524Z" fill="#CCCCCC"/>
<path d="M85.1273 71.3536H10.7346V105.237H85.1273V71.3536Z" fill="#1C976E"/>
<path d="M114.03 71.3536H91.2442V93.0374H114.03V71.3536Z" fill="#F77B55"/>
<path d="M67.0204 109.189H10.1878V111.519H67.0204V109.189Z" fill="#CCCCCC"/>
<path d="M77.8765 113.566H21.0439V115.917H77.8765V113.566Z" fill="#CCCCCC"/>
<path d="M68.681 118.247H11.8484V120.598H68.681V118.247Z" fill="#CCCCCC"/>
<path fill-rule="evenodd" clip-rule="evenodd" d="M107.265 82.1955L102.647 84.9921L98.0292 87.7887V82.1955V76.6023L102.647 79.3989L107.265 82.1955Z" fill="white"/>
<path d="M136.836 98.3267H91.2442V120.01H136.836V98.3267Z" fill="#08C6A2"/>
<path d="M136.856 71.3536H114.05V93.0374H136.856V71.3536Z" fill="#1C976E"/>
<path fill-rule="evenodd" clip-rule="evenodd" d="M27.8086 91.2135L23.4945 89.2884L28.477 87.3632L28.6795 86.2486L22.1577 88.7615L21.9755 89.8558L27.6263 92.3484L27.8086 91.2135ZM37.5305 89.9774L36.457 96.1582H37.9963L40.3661 82.4185H38.8267L37.7533 88.5993H34.3911L35.4646 82.4185H33.9253L31.5556 96.1582H33.0949L34.1683 89.9774H37.5305ZM43.0598 96.1785L45.2067 83.837H47.7182L47.9613 82.459H41.3787L41.1357 83.837H43.6674L41.5205 96.1785H43.0598ZM55.7793 85.1137L53.8754 96.1582H55.3337L57.7034 82.4185H55.5565L51.4855 93.3819L51.1209 82.4185H48.974L46.584 96.1582H47.9208L49.8246 85.215L50.2095 96.1582H51.6678L55.7793 85.1137ZM62.3416 96.1785L62.5846 94.7802H58.6756L60.8023 82.4387H59.2832L56.8933 96.1785H62.3416ZM67.2025 92.3484L73.7041 89.8558L73.8863 88.7615L68.2557 86.2486L68.0735 87.3632L72.3875 89.2884L67.4051 91.2135L67.2025 92.3484Z" fill="white"/>
<path fill-rule="evenodd" clip-rule="evenodd" d="M103.275 110.851L99.8317 109.331L103.741 107.811L103.862 106.939L98.7582 108.905L98.6367 109.777L103.153 111.742L103.275 110.851ZM107.933 103.9L106.313 114.762H108.845C110.546 114.762 111.478 113.749 111.721 112.067L112.531 106.595C112.794 104.913 112.166 103.9 110.485 103.9H107.933ZM107.69 113.667L108.986 105.014H110.283C111.154 105.014 111.498 105.561 111.356 106.554L110.526 112.148C110.384 113.141 109.878 113.688 109.007 113.688H107.69V113.667ZM114.07 103.9L112.45 114.762H113.665L115.285 103.9H114.07ZM116.217 103.9L116.622 114.762H118.425L122.071 103.9H120.957L117.797 113.343L117.432 103.9H116.217ZM124.238 111.742L129.342 109.777L129.483 108.905L124.967 106.939L124.825 107.811L128.268 109.331L124.359 110.851L124.238 111.742Z" fill="white"/>
</svg>
